%TF.GenerationSoftware,KiCad,Pcbnew,6.0.11-2627ca5db0~126~ubuntu20.04.1*%
%TF.CreationDate,2024-09-10T20:57:43-04:00*%
%TF.ProjectId,panel,70616e65-6c2e-46b6-9963-61645f706362,rev?*%
%TF.SameCoordinates,Original*%
%TF.FileFunction,Soldermask,Top*%
%TF.FilePolarity,Negative*%
%FSLAX46Y46*%
G04 Gerber Fmt 4.6, Leading zero omitted, Abs format (unit mm)*
G04 Created by KiCad (PCBNEW 6.0.11-2627ca5db0~126~ubuntu20.04.1) date 2024-09-10 20:57:43*
%MOMM*%
%LPD*%
G01*
G04 APERTURE LIST*
G04 Aperture macros list*
%AMRoundRect*
0 Rectangle with rounded corners*
0 $1 Rounding radius*
0 $2 $3 $4 $5 $6 $7 $8 $9 X,Y pos of 4 corners*
0 Add a 4 corners polygon primitive as box body*
4,1,4,$2,$3,$4,$5,$6,$7,$8,$9,$2,$3,0*
0 Add four circle primitives for the rounded corners*
1,1,$1+$1,$2,$3*
1,1,$1+$1,$4,$5*
1,1,$1+$1,$6,$7*
1,1,$1+$1,$8,$9*
0 Add four rect primitives between the rounded corners*
20,1,$1+$1,$2,$3,$4,$5,0*
20,1,$1+$1,$4,$5,$6,$7,0*
20,1,$1+$1,$6,$7,$8,$9,0*
20,1,$1+$1,$8,$9,$2,$3,0*%
G04 Aperture macros list end*
%ADD10C,0.500000*%
%ADD11RoundRect,0.250000X-0.250000X-0.475000X0.250000X-0.475000X0.250000X0.475000X-0.250000X0.475000X0*%
%ADD12R,0.765000X0.210000*%
%ADD13R,0.650000X1.560000*%
%ADD14RoundRect,0.250000X-0.450000X0.262500X-0.450000X-0.262500X0.450000X-0.262500X0.450000X0.262500X0*%
%ADD15RoundRect,0.250000X0.475000X-0.250000X0.475000X0.250000X-0.475000X0.250000X-0.475000X-0.250000X0*%
%ADD16RoundRect,0.250000X0.450000X-0.262500X0.450000X0.262500X-0.450000X0.262500X-0.450000X-0.262500X0*%
%ADD17RoundRect,0.250000X-0.475000X0.250000X-0.475000X-0.250000X0.475000X-0.250000X0.475000X0.250000X0*%
%ADD18RoundRect,0.250000X0.250000X0.475000X-0.250000X0.475000X-0.250000X-0.475000X0.250000X-0.475000X0*%
%ADD19R,1.900000X1.100000*%
%ADD20C,3.200000*%
%ADD21RoundRect,0.150000X-0.825000X-0.150000X0.825000X-0.150000X0.825000X0.150000X-0.825000X0.150000X0*%
%ADD22RoundRect,0.250000X-0.262500X-0.450000X0.262500X-0.450000X0.262500X0.450000X-0.262500X0.450000X0*%
%ADD23RoundRect,0.250000X0.350000X0.450000X-0.350000X0.450000X-0.350000X-0.450000X0.350000X-0.450000X0*%
%ADD24RoundRect,0.250000X0.375000X0.625000X-0.375000X0.625000X-0.375000X-0.625000X0.375000X-0.625000X0*%
%ADD25RoundRect,0.250000X0.262500X0.450000X-0.262500X0.450000X-0.262500X-0.450000X0.262500X-0.450000X0*%
%ADD26RoundRect,0.150000X0.150000X-0.587500X0.150000X0.587500X-0.150000X0.587500X-0.150000X-0.587500X0*%
%ADD27RoundRect,0.100000X-0.712500X-0.100000X0.712500X-0.100000X0.712500X0.100000X-0.712500X0.100000X0*%
%ADD28RoundRect,0.150000X0.587500X0.150000X-0.587500X0.150000X-0.587500X-0.150000X0.587500X-0.150000X0*%
%ADD29RoundRect,0.012800X-0.357200X-0.147200X0.357200X-0.147200X0.357200X0.147200X-0.357200X0.147200X0*%
%ADD30R,1.300000X2.000000*%
%ADD31R,1.500000X0.900000*%
%ADD32R,0.900000X1.500000*%
%ADD33R,0.900000X0.900000*%
%ADD34RoundRect,0.102000X0.127000X0.165100X-0.127000X0.165100X-0.127000X-0.165100X0.127000X-0.165100X0*%
%ADD35RoundRect,0.102000X0.127000X0.254000X-0.127000X0.254000X-0.127000X-0.254000X0.127000X-0.254000X0*%
%ADD36RoundRect,0.102000X0.127000X0.177800X-0.127000X0.177800X-0.127000X-0.177800X0.127000X-0.177800X0*%
%ADD37RoundRect,0.102000X0.215900X-0.127000X0.215900X0.127000X-0.215900X0.127000X-0.215900X-0.127000X0*%
%ADD38RoundRect,0.102000X0.254000X-0.127000X0.254000X0.127000X-0.254000X0.127000X-0.254000X-0.127000X0*%
%ADD39R,5.175000X5.175000*%
%ADD40C,5.175000*%
%ADD41R,1.700000X1.700000*%
%ADD42O,1.700000X1.700000*%
%ADD43O,1.100000X1.800000*%
%ADD44O,1.100000X2.200000*%
G04 APERTURE END LIST*
D10*
%TO.C,KiKit_MB_2_1*%
X112692600Y-32133800D03*
%TD*%
D11*
%TO.C,C20*%
X82270700Y-10090000D03*
X84170700Y-10090000D03*
%TD*%
D10*
%TO.C,KiKit_MB_22_3*%
X182321000Y-67467600D03*
%TD*%
%TO.C,KiKit_MB_7_2*%
X115092600Y-40133800D03*
%TD*%
D12*
%TO.C,U9*%
X71532700Y-20640000D03*
X71532700Y-21040000D03*
X71532700Y-21440000D03*
X71532700Y-21840000D03*
X71532700Y-22240000D03*
X73068700Y-22240000D03*
X73068700Y-21840000D03*
X73068700Y-21440000D03*
X73068700Y-21040000D03*
X73068700Y-20640000D03*
%TD*%
D10*
%TO.C,KiKit_MB_4_5*%
X77428400Y-8200000D03*
%TD*%
%TO.C,KiKit_MB_30_4*%
X2500000Y-124535200D03*
%TD*%
D13*
%TO.C,U1*%
X142353300Y-56220000D03*
X141403300Y-56220000D03*
X140453300Y-56220000D03*
X140453300Y-58920000D03*
X142353300Y-58920000D03*
%TD*%
D14*
%TO.C,R18*%
X54590700Y-76785100D03*
X54590700Y-78610100D03*
%TD*%
D10*
%TO.C,KiKit_MB_15_1*%
X38464200Y-67467600D03*
%TD*%
%TO.C,KiKit_MB_10_2*%
X181321000Y-8200000D03*
%TD*%
D15*
%TO.C,C10*%
X145443300Y-57990000D03*
X145443300Y-56090000D03*
%TD*%
%TO.C,C17*%
X44863200Y-13317500D03*
X44863200Y-11417500D03*
%TD*%
D10*
%TO.C,KiKit_MB_5_8*%
X40464200Y-65067600D03*
%TD*%
D16*
%TO.C,R16*%
X71170700Y-13272500D03*
X71170700Y-11447500D03*
%TD*%
D17*
%TO.C,C4*%
X173973300Y-54330000D03*
X173973300Y-56230000D03*
%TD*%
D18*
%TO.C,C5*%
X209783300Y-88987600D03*
X207883300Y-88987600D03*
%TD*%
D10*
%TO.C,KiKit_MB_1_4*%
X8200000Y-38133800D03*
%TD*%
D19*
%TO.C,Y2*%
X79060700Y-78082600D03*
X79060700Y-75582600D03*
%TD*%
D16*
%TO.C,R20*%
X186383300Y-13432500D03*
X186383300Y-11607500D03*
%TD*%
%TO.C,R10*%
X152303300Y-59582500D03*
X152303300Y-57757500D03*
%TD*%
D17*
%TO.C,C4*%
X173973300Y-113597600D03*
X173973300Y-115497600D03*
%TD*%
%TO.C,C8*%
X195633300Y-12190000D03*
X195633300Y-14090000D03*
%TD*%
D10*
%TO.C,KiKit_MB_14_8*%
X112692600Y-98401400D03*
%TD*%
D17*
%TO.C,C18*%
X172453300Y-13790000D03*
X172453300Y-15690000D03*
%TD*%
D10*
%TO.C,KiKit_MB_4_6*%
X78428400Y-8200000D03*
%TD*%
D13*
%TO.C,U1*%
X35460700Y-56220000D03*
X34510700Y-56220000D03*
X33560700Y-56220000D03*
X33560700Y-58920000D03*
X35460700Y-58920000D03*
%TD*%
D14*
%TO.C,R18*%
X161483300Y-17517500D03*
X161483300Y-19342500D03*
%TD*%
D10*
%TO.C,KiKit_MB_18_1*%
X82428400Y-124335200D03*
%TD*%
%TO.C,KiKit_MB_4_2*%
X74428400Y-8200000D03*
%TD*%
%TO.C,KiKit_MB_21_7*%
X151356800Y-67467600D03*
%TD*%
D18*
%TO.C,C9*%
X35490700Y-112297600D03*
X33590700Y-112297600D03*
%TD*%
D20*
%TO.C,H2*%
X130826400Y-49333800D03*
%TD*%
D17*
%TO.C,C4*%
X67080700Y-54330000D03*
X67080700Y-56230000D03*
%TD*%
D10*
%TO.C,KiKit_MB_28_6*%
X219785200Y-132035200D03*
%TD*%
%TO.C,KiKit_MB_15_9*%
X46464200Y-67467600D03*
%TD*%
%TO.C,KiKit_MB_16_2*%
X74428400Y-67467600D03*
%TD*%
%TO.C,KiKit_MB_4_4*%
X76428400Y-8200000D03*
%TD*%
D16*
%TO.C,R19*%
X175653300Y-86320100D03*
X175653300Y-84495100D03*
%TD*%
D21*
%TO.C,U8*%
X82370700Y-113427600D03*
X82370700Y-114697600D03*
X82370700Y-115967600D03*
X82370700Y-117237600D03*
X87320700Y-117237600D03*
X87320700Y-115967600D03*
X87320700Y-114697600D03*
X87320700Y-113427600D03*
%TD*%
D18*
%TO.C,C2*%
X194863300Y-97707600D03*
X192963300Y-97707600D03*
%TD*%
D14*
%TO.C,R14*%
X155638300Y-57757500D03*
X155638300Y-59582500D03*
%TD*%
D17*
%TO.C,C18*%
X65560700Y-73057600D03*
X65560700Y-74957600D03*
%TD*%
D10*
%TO.C,KiKit_MB_19_1*%
X115092600Y-100401400D03*
%TD*%
D22*
%TO.C,R17*%
X156430800Y-14927500D03*
X158255800Y-14927500D03*
%TD*%
D23*
%TO.C,R22*%
X147323300Y-90157600D03*
X145323300Y-90157600D03*
%TD*%
D10*
%TO.C,KiKit_MB_8_2*%
X219585200Y-33133800D03*
%TD*%
D17*
%TO.C,C6*%
X69930700Y-113597600D03*
X69930700Y-115497600D03*
%TD*%
D10*
%TO.C,KiKit_MB_17_4*%
X44464200Y-124335200D03*
%TD*%
%TO.C,KiKit_MB_19_9*%
X115092600Y-92401400D03*
%TD*%
%TO.C,KiKit_MB_11_7*%
X148356800Y-65067600D03*
%TD*%
%TO.C,KiKit_MB_13_1*%
X8200000Y-100401400D03*
%TD*%
%TO.C,KiKit_MB_7_4*%
X115092600Y-38133800D03*
%TD*%
%TO.C,KiKit_MB_23_7*%
X148356800Y-124335200D03*
%TD*%
D20*
%TO.C,H1*%
X96958800Y-108601400D03*
%TD*%
D10*
%TO.C,KiKit_MB_8_5*%
X219585200Y-36133800D03*
%TD*%
%TO.C,KiKit_MB_4_10*%
X82428400Y-8200000D03*
%TD*%
D22*
%TO.C,R4*%
X77930700Y-34610000D03*
X79755700Y-34610000D03*
%TD*%
D10*
%TO.C,KiKit_MB_5_7*%
X41464200Y-65067600D03*
%TD*%
D15*
%TO.C,C17*%
X151755800Y-13317500D03*
X151755800Y-11417500D03*
%TD*%
D10*
%TO.C,KiKit_MB_1_1*%
X8200000Y-41133800D03*
%TD*%
D24*
%TO.C,F1*%
X98080700Y-29650000D03*
X95280700Y-29650000D03*
%TD*%
D18*
%TO.C,C2*%
X87970700Y-97707600D03*
X86070700Y-97707600D03*
%TD*%
%TO.C,C12*%
X51390700Y-11727500D03*
X49490700Y-11727500D03*
%TD*%
D10*
%TO.C,KiKit_MB_2_9*%
X112692600Y-40133800D03*
%TD*%
%TO.C,KiKit_MB_20_1*%
X219585200Y-91401400D03*
%TD*%
%TO.C,KiKit_MB_12_5*%
X185321000Y-65067600D03*
%TD*%
%TO.C,KiKit_MB_23_4*%
X151356800Y-124335200D03*
%TD*%
D16*
%TO.C,R13*%
X140603300Y-22152500D03*
X140603300Y-20327500D03*
%TD*%
D18*
%TO.C,C12*%
X51390700Y-70995100D03*
X49490700Y-70995100D03*
%TD*%
D10*
%TO.C,KiKit_MB_3_9*%
X46464200Y-8200000D03*
%TD*%
%TO.C,KiKit_MB_21_10*%
X154356800Y-67467600D03*
%TD*%
%TO.C,KiKit_MB_22_8*%
X187321000Y-67467600D03*
%TD*%
%TO.C,KiKit_MB_23_10*%
X145356800Y-124335200D03*
%TD*%
D22*
%TO.C,R4*%
X184823300Y-34610000D03*
X186648300Y-34610000D03*
%TD*%
D10*
%TO.C,KiKit_MB_10_10*%
X189321000Y-8200000D03*
%TD*%
%TO.C,KiKit_MB_16_3*%
X75428400Y-67467600D03*
%TD*%
%TO.C,KiKit_MB_12_3*%
X187321000Y-65067600D03*
%TD*%
%TO.C,KiKit_MB_14_10*%
X112692600Y-100401400D03*
%TD*%
D20*
%TO.C,H1*%
X203851400Y-49333800D03*
%TD*%
D10*
%TO.C,KiKit_MB_23_8*%
X147356800Y-124335200D03*
%TD*%
%TO.C,KiKit_MB_15_8*%
X45464200Y-67467600D03*
%TD*%
%TO.C,KiKit_MB_2_10*%
X112692600Y-41133800D03*
%TD*%
%TO.C,KiKit_MB_11_1*%
X154356800Y-65067600D03*
%TD*%
%TO.C,KiKit_MB_12_2*%
X188321000Y-65067600D03*
%TD*%
D17*
%TO.C,C14*%
X91960700Y-71457600D03*
X91960700Y-73357600D03*
%TD*%
D10*
%TO.C,KiKit_MB_14_6*%
X112692600Y-96401400D03*
%TD*%
%TO.C,KiKit_MB_19_4*%
X115092600Y-97401400D03*
%TD*%
%TO.C,KiKit_MB_29_5*%
X3500000Y-8000000D03*
%TD*%
D25*
%TO.C,R15*%
X61173200Y-73387600D03*
X59348200Y-73387600D03*
%TD*%
D26*
%TO.C,Q2*%
X33710700Y-76782600D03*
X35610700Y-76782600D03*
X34660700Y-74907600D03*
%TD*%
D10*
%TO.C,KiKit_MB_9_1*%
X145356800Y-8200000D03*
%TD*%
%TO.C,KiKit_MB_13_6*%
X8200000Y-95401400D03*
%TD*%
D27*
%TO.C,U5*%
X87288200Y-76492600D03*
X87288200Y-77142600D03*
X87288200Y-77792600D03*
X87288200Y-78442600D03*
X91513200Y-78442600D03*
X91513200Y-77792600D03*
X91513200Y-77142600D03*
X91513200Y-76492600D03*
%TD*%
%TO.C,U5*%
X194180800Y-17225000D03*
X194180800Y-17875000D03*
X194180800Y-18525000D03*
X194180800Y-19175000D03*
X198405800Y-19175000D03*
X198405800Y-18525000D03*
X198405800Y-17875000D03*
X198405800Y-17225000D03*
%TD*%
D10*
%TO.C,KiKit_MB_22_10*%
X189321000Y-67467600D03*
%TD*%
%TO.C,KiKit_MB_8_4*%
X219585200Y-35133800D03*
%TD*%
D26*
%TO.C,Q2*%
X33710700Y-17515000D03*
X35610700Y-17515000D03*
X34660700Y-15640000D03*
%TD*%
D10*
%TO.C,KiKit_MB_14_3*%
X112692600Y-93401400D03*
%TD*%
%TO.C,KiKit_MB_27_3*%
X8000000Y-129035200D03*
%TD*%
D16*
%TO.C,R20*%
X79490700Y-13432500D03*
X79490700Y-11607500D03*
%TD*%
D14*
%TO.C,R11*%
X148853300Y-15715000D03*
X148853300Y-17540000D03*
%TD*%
D10*
%TO.C,KiKit_MB_27_5*%
X8000000Y-131035200D03*
%TD*%
D14*
%TO.C,R11*%
X148853300Y-74982600D03*
X148853300Y-76807600D03*
%TD*%
D10*
%TO.C,KiKit_MB_20_2*%
X219585200Y-92401400D03*
%TD*%
D16*
%TO.C,R19*%
X68760700Y-27052500D03*
X68760700Y-25227500D03*
%TD*%
D28*
%TO.C,Q3*%
X141770800Y-91927600D03*
X141770800Y-90027600D03*
X139895800Y-90977600D03*
%TD*%
D10*
%TO.C,KiKit_MB_3_5*%
X42464200Y-8200000D03*
%TD*%
%TO.C,KiKit_MB_20_7*%
X219585200Y-97401400D03*
%TD*%
%TO.C,KiKit_MB_24_6*%
X184321000Y-124335200D03*
%TD*%
%TO.C,KiKit_MB_14_7*%
X112692600Y-97401400D03*
%TD*%
%TO.C,KiKit_MB_23_2*%
X153356800Y-124335200D03*
%TD*%
D26*
%TO.C,Q1*%
X140443300Y-108955100D03*
X142343300Y-108955100D03*
X141393300Y-107080100D03*
%TD*%
D10*
%TO.C,KiKit_MB_31_4*%
X225285200Y-8000000D03*
%TD*%
%TO.C,KiKit_MB_10_8*%
X187321000Y-8200000D03*
%TD*%
D25*
%TO.C,R15*%
X168065800Y-73387600D03*
X166240800Y-73387600D03*
%TD*%
D16*
%TO.C,R13*%
X140603300Y-81420100D03*
X140603300Y-79595100D03*
%TD*%
D10*
%TO.C,KiKit_MB_25_4*%
X8000000Y-2500000D03*
%TD*%
D22*
%TO.C,R9*%
X152740800Y-35110000D03*
X154565800Y-35110000D03*
%TD*%
D11*
%TO.C,C20*%
X189163300Y-10090000D03*
X191063300Y-10090000D03*
%TD*%
D10*
%TO.C,KiKit_MB_7_5*%
X115092600Y-37133800D03*
%TD*%
D17*
%TO.C,C4*%
X67080700Y-113597600D03*
X67080700Y-115497600D03*
%TD*%
D10*
%TO.C,KiKit_MB_18_4*%
X79428400Y-124335200D03*
%TD*%
D16*
%TO.C,R8*%
X202263300Y-77130100D03*
X202263300Y-75305100D03*
%TD*%
D10*
%TO.C,KiKit_MB_19_7*%
X115092600Y-94401400D03*
%TD*%
%TO.C,KiKit_MB_7_9*%
X115092600Y-33133800D03*
%TD*%
D22*
%TO.C,R3*%
X77930700Y-38440000D03*
X79755700Y-38440000D03*
%TD*%
D29*
%TO.C,U3*%
X59201350Y-9180000D03*
X59201350Y-9830000D03*
X59201350Y-10480000D03*
X61691350Y-10480000D03*
X61691350Y-9830000D03*
X61691350Y-9180000D03*
D30*
X60446350Y-9830000D03*
%TD*%
D20*
%TO.C,H4*%
X203851400Y-23933800D03*
%TD*%
D10*
%TO.C,KiKit_MB_1_5*%
X8200000Y-37133800D03*
%TD*%
%TO.C,KiKit_MB_1_3*%
X8200000Y-39133800D03*
%TD*%
D22*
%TO.C,R3*%
X184823300Y-38440000D03*
X186648300Y-38440000D03*
%TD*%
D10*
%TO.C,KiKit_MB_31_3*%
X224285200Y-8000000D03*
%TD*%
D28*
%TO.C,Q4*%
X34878200Y-96377600D03*
X34878200Y-94477600D03*
X33003200Y-95427600D03*
%TD*%
D10*
%TO.C,KiKit_MB_2_7*%
X112692600Y-38133800D03*
%TD*%
%TO.C,KiKit_MB_16_5*%
X77428400Y-67467600D03*
%TD*%
%TO.C,KiKit_MB_21_4*%
X148356800Y-67467600D03*
%TD*%
%TO.C,KiKit_MB_7_3*%
X115092600Y-39133800D03*
%TD*%
D20*
%TO.C,H4*%
X96958800Y-23933800D03*
%TD*%
D15*
%TO.C,C13*%
X190103300Y-20950000D03*
X190103300Y-19050000D03*
%TD*%
D23*
%TO.C,R22*%
X40430700Y-90157600D03*
X38430700Y-90157600D03*
%TD*%
D28*
%TO.C,Q3*%
X34878200Y-91927600D03*
X34878200Y-90027600D03*
X33003200Y-90977600D03*
%TD*%
D10*
%TO.C,KiKit_MB_26_2*%
X219785200Y-500000D03*
%TD*%
%TO.C,KiKit_MB_13_8*%
X8200000Y-93401400D03*
%TD*%
%TO.C,KiKit_MB_12_10*%
X180321000Y-65067600D03*
%TD*%
D25*
%TO.C,R6*%
X202215800Y-119087600D03*
X200390800Y-119087600D03*
%TD*%
D17*
%TO.C,C7*%
X190093300Y-73667600D03*
X190093300Y-75567600D03*
%TD*%
D10*
%TO.C,KiKit_MB_30_5*%
X3500000Y-124535200D03*
%TD*%
%TO.C,KiKit_MB_24_9*%
X181321000Y-124335200D03*
%TD*%
D18*
%TO.C,C12*%
X158283300Y-70995100D03*
X156383300Y-70995100D03*
%TD*%
D22*
%TO.C,R17*%
X49538200Y-74195100D03*
X51363200Y-74195100D03*
%TD*%
D10*
%TO.C,KiKit_MB_18_7*%
X76428400Y-124335200D03*
%TD*%
D16*
%TO.C,R20*%
X186383300Y-72700100D03*
X186383300Y-70875100D03*
%TD*%
%TO.C,R5*%
X200793300Y-102652600D03*
X200793300Y-100827600D03*
%TD*%
%TO.C,R16*%
X71170700Y-72540100D03*
X71170700Y-70715100D03*
%TD*%
D22*
%TO.C,R17*%
X49538200Y-14927500D03*
X51363200Y-14927500D03*
%TD*%
D10*
%TO.C,KiKit_MB_16_8*%
X80428400Y-67467600D03*
%TD*%
D22*
%TO.C,R1*%
X179790800Y-53690000D03*
X181615800Y-53690000D03*
%TD*%
D10*
%TO.C,KiKit_MB_28_2*%
X219785200Y-128035200D03*
%TD*%
D19*
%TO.C,Y2*%
X79060700Y-18815000D03*
X79060700Y-16315000D03*
%TD*%
D27*
%TO.C,U5*%
X87288200Y-17225000D03*
X87288200Y-17875000D03*
X87288200Y-18525000D03*
X87288200Y-19175000D03*
X91513200Y-19175000D03*
X91513200Y-18525000D03*
X91513200Y-17875000D03*
X91513200Y-17225000D03*
%TD*%
D10*
%TO.C,KiKit_MB_11_9*%
X146356800Y-65067600D03*
%TD*%
%TO.C,KiKit_MB_16_6*%
X78428400Y-67467600D03*
%TD*%
%TO.C,KiKit_MB_22_5*%
X184321000Y-67467600D03*
%TD*%
%TO.C,KiKit_MB_5_5*%
X43464200Y-65067600D03*
%TD*%
D20*
%TO.C,H3*%
X130826400Y-23933800D03*
%TD*%
D10*
%TO.C,KiKit_MB_18_8*%
X75428400Y-124335200D03*
%TD*%
%TO.C,KiKit_MB_2_2*%
X112692600Y-33133800D03*
%TD*%
%TO.C,KiKit_MB_15_7*%
X44464200Y-67467600D03*
%TD*%
D16*
%TO.C,R13*%
X33710700Y-22152500D03*
X33710700Y-20327500D03*
%TD*%
D23*
%TO.C,R22*%
X147323300Y-30890000D03*
X145323300Y-30890000D03*
%TD*%
D10*
%TO.C,KiKit_MB_19_3*%
X115092600Y-98401400D03*
%TD*%
D19*
%TO.C,Y1*%
X189713300Y-38895000D03*
X189713300Y-41395000D03*
%TD*%
D10*
%TO.C,KiKit_MB_21_9*%
X153356800Y-67467600D03*
%TD*%
D20*
%TO.C,H2*%
X130826400Y-108601400D03*
%TD*%
D10*
%TO.C,KiKit_MB_11_2*%
X153356800Y-65067600D03*
%TD*%
D18*
%TO.C,C9*%
X35490700Y-53030000D03*
X33590700Y-53030000D03*
%TD*%
D10*
%TO.C,KiKit_MB_20_9*%
X219585200Y-99401400D03*
%TD*%
%TO.C,KiKit_MB_11_10*%
X145356800Y-65067600D03*
%TD*%
%TO.C,KiKit_MB_8_7*%
X219585200Y-38133800D03*
%TD*%
%TO.C,KiKit_MB_22_4*%
X183321000Y-67467600D03*
%TD*%
%TO.C,KiKit_MB_1_7*%
X8200000Y-35133800D03*
%TD*%
%TO.C,KiKit_MB_22_7*%
X186321000Y-67467600D03*
%TD*%
%TO.C,KiKit_MB_24_7*%
X183321000Y-124335200D03*
%TD*%
D16*
%TO.C,R16*%
X178063300Y-13272500D03*
X178063300Y-11447500D03*
%TD*%
D10*
%TO.C,KiKit_MB_10_1*%
X180321000Y-8200000D03*
%TD*%
D15*
%TO.C,C10*%
X38550700Y-117257600D03*
X38550700Y-115357600D03*
%TD*%
D10*
%TO.C,KiKit_MB_2_3*%
X112692600Y-34133800D03*
%TD*%
%TO.C,KiKit_MB_21_6*%
X150356800Y-67467600D03*
%TD*%
D17*
%TO.C,C7*%
X83200700Y-73667600D03*
X83200700Y-75567600D03*
%TD*%
D15*
%TO.C,C17*%
X151755800Y-72585100D03*
X151755800Y-70685100D03*
%TD*%
D20*
%TO.C,H1*%
X96958800Y-49333800D03*
%TD*%
D28*
%TO.C,Q3*%
X141770800Y-32660000D03*
X141770800Y-30760000D03*
X139895800Y-31710000D03*
%TD*%
D16*
%TO.C,R5*%
X200793300Y-43385000D03*
X200793300Y-41560000D03*
%TD*%
D10*
%TO.C,KiKit_MB_26_5*%
X219785200Y-3500000D03*
%TD*%
%TO.C,KiKit_MB_11_4*%
X151356800Y-65067600D03*
%TD*%
D20*
%TO.C,H2*%
X23933800Y-49333800D03*
%TD*%
D10*
%TO.C,KiKit_MB_17_7*%
X41464200Y-124335200D03*
%TD*%
%TO.C,KiKit_MB_12_1*%
X189321000Y-65067600D03*
%TD*%
D26*
%TO.C,Q2*%
X140603300Y-76782600D03*
X142503300Y-76782600D03*
X141553300Y-74907600D03*
%TD*%
D10*
%TO.C,KiKit_MB_2_5*%
X112692600Y-36133800D03*
%TD*%
%TO.C,KiKit_MB_5_9*%
X39464200Y-65067600D03*
%TD*%
%TO.C,KiKit_MB_16_9*%
X81428400Y-67467600D03*
%TD*%
%TO.C,KiKit_MB_6_2*%
X81428400Y-65067600D03*
%TD*%
D12*
%TO.C,U9*%
X71532700Y-79907600D03*
X71532700Y-80307600D03*
X71532700Y-80707600D03*
X71532700Y-81107600D03*
X71532700Y-81507600D03*
X73068700Y-81507600D03*
X73068700Y-81107600D03*
X73068700Y-80707600D03*
X73068700Y-80307600D03*
X73068700Y-79907600D03*
%TD*%
D22*
%TO.C,R4*%
X77930700Y-93877600D03*
X79755700Y-93877600D03*
%TD*%
D10*
%TO.C,KiKit_MB_3_10*%
X47464200Y-8200000D03*
%TD*%
%TO.C,KiKit_MB_29_4*%
X2500000Y-8000000D03*
%TD*%
D14*
%TO.C,R7*%
X80230700Y-105247600D03*
X80230700Y-107072600D03*
%TD*%
D10*
%TO.C,KiKit_MB_25_6*%
X8000000Y-4500000D03*
%TD*%
D15*
%TO.C,C10*%
X38550700Y-57990000D03*
X38550700Y-56090000D03*
%TD*%
D10*
%TO.C,KiKit_MB_10_7*%
X186321000Y-8200000D03*
%TD*%
D18*
%TO.C,C1*%
X87970700Y-41770000D03*
X86070700Y-41770000D03*
%TD*%
D19*
%TO.C,Y1*%
X82820700Y-38895000D03*
X82820700Y-41395000D03*
%TD*%
D17*
%TO.C,C15*%
X145203300Y-74945100D03*
X145203300Y-76845100D03*
%TD*%
D15*
%TO.C,C16*%
X54590700Y-74437600D03*
X54590700Y-72537600D03*
%TD*%
D10*
%TO.C,KiKit_MB_26_6*%
X219785200Y-4500000D03*
%TD*%
D25*
%TO.C,R15*%
X168065800Y-14120000D03*
X166240800Y-14120000D03*
%TD*%
D28*
%TO.C,Q3*%
X34878200Y-32660000D03*
X34878200Y-30760000D03*
X33003200Y-31710000D03*
%TD*%
D10*
%TO.C,KiKit_MB_31_2*%
X223285200Y-8000000D03*
%TD*%
D17*
%TO.C,C7*%
X190093300Y-14400000D03*
X190093300Y-16300000D03*
%TD*%
D10*
%TO.C,KiKit_MB_25_5*%
X8000000Y-3500000D03*
%TD*%
D17*
%TO.C,C6*%
X176823300Y-113597600D03*
X176823300Y-115497600D03*
%TD*%
D10*
%TO.C,KiKit_MB_12_7*%
X183321000Y-65067600D03*
%TD*%
%TO.C,KiKit_MB_19_5*%
X115092600Y-96401400D03*
%TD*%
D16*
%TO.C,R5*%
X93900700Y-102652600D03*
X93900700Y-100827600D03*
%TD*%
D14*
%TO.C,R12*%
X143153300Y-79595100D03*
X143153300Y-81420100D03*
%TD*%
D29*
%TO.C,U3*%
X166093950Y-9180000D03*
X166093950Y-9830000D03*
X166093950Y-10480000D03*
X168583950Y-10480000D03*
X168583950Y-9830000D03*
X168583950Y-9180000D03*
D30*
X167338950Y-9830000D03*
%TD*%
D14*
%TO.C,R14*%
X48745700Y-117025100D03*
X48745700Y-118850100D03*
%TD*%
D28*
%TO.C,Q4*%
X141770800Y-37110000D03*
X141770800Y-35210000D03*
X139895800Y-36160000D03*
%TD*%
D10*
%TO.C,KiKit_MB_6_10*%
X73428400Y-65067600D03*
%TD*%
%TO.C,KiKit_MB_3_2*%
X39464200Y-8200000D03*
%TD*%
%TO.C,KiKit_MB_21_8*%
X152356800Y-67467600D03*
%TD*%
%TO.C,KiKit_MB_6_6*%
X77428400Y-65067600D03*
%TD*%
D14*
%TO.C,R18*%
X54590700Y-17517500D03*
X54590700Y-19342500D03*
%TD*%
D10*
%TO.C,KiKit_MB_1_6*%
X8200000Y-36133800D03*
%TD*%
D18*
%TO.C,C5*%
X102890700Y-29720000D03*
X100990700Y-29720000D03*
%TD*%
D10*
%TO.C,KiKit_MB_14_1*%
X112692600Y-91401400D03*
%TD*%
%TO.C,KiKit_MB_1_9*%
X8200000Y-33133800D03*
%TD*%
D17*
%TO.C,C19*%
X159003300Y-116987600D03*
X159003300Y-118887600D03*
%TD*%
D10*
%TO.C,KiKit_MB_23_6*%
X149356800Y-124335200D03*
%TD*%
%TO.C,KiKit_MB_17_9*%
X39464200Y-124335200D03*
%TD*%
%TO.C,KiKit_MB_13_3*%
X8200000Y-98401400D03*
%TD*%
%TO.C,KiKit_MB_10_4*%
X183321000Y-8200000D03*
%TD*%
%TO.C,KiKit_MB_18_6*%
X77428400Y-124335200D03*
%TD*%
%TO.C,KiKit_MB_26_4*%
X219785200Y-2500000D03*
%TD*%
D17*
%TO.C,C8*%
X88740700Y-71457600D03*
X88740700Y-73357600D03*
%TD*%
D28*
%TO.C,Q4*%
X141770800Y-96377600D03*
X141770800Y-94477600D03*
X139895800Y-95427600D03*
%TD*%
D15*
%TO.C,C13*%
X190103300Y-80217600D03*
X190103300Y-78317600D03*
%TD*%
D10*
%TO.C,KiKit_MB_22_6*%
X185321000Y-67467600D03*
%TD*%
%TO.C,KiKit_MB_7_10*%
X115092600Y-32133800D03*
%TD*%
D16*
%TO.C,R8*%
X202263300Y-17862500D03*
X202263300Y-16037500D03*
%TD*%
D10*
%TO.C,KiKit_MB_20_4*%
X219585200Y-94401400D03*
%TD*%
%TO.C,KiKit_MB_3_1*%
X38464200Y-8200000D03*
%TD*%
D17*
%TO.C,C19*%
X159003300Y-57720000D03*
X159003300Y-59620000D03*
%TD*%
%TO.C,C14*%
X198853300Y-12190000D03*
X198853300Y-14090000D03*
%TD*%
D10*
%TO.C,KiKit_MB_13_4*%
X8200000Y-97401400D03*
%TD*%
%TO.C,KiKit_MB_30_2*%
X500000Y-124535200D03*
%TD*%
D26*
%TO.C,Q1*%
X33550700Y-108955100D03*
X35450700Y-108955100D03*
X34500700Y-107080100D03*
%TD*%
D10*
%TO.C,KiKit_MB_14_4*%
X112692600Y-94401400D03*
%TD*%
%TO.C,KiKit_MB_9_10*%
X154356800Y-8200000D03*
%TD*%
D31*
%TO.C,U2*%
X68970700Y-108337600D03*
X68970700Y-107067600D03*
X68970700Y-105797600D03*
X68970700Y-104527600D03*
X68970700Y-103257600D03*
X68970700Y-101987600D03*
X68970700Y-100717600D03*
X68970700Y-99447600D03*
X68970700Y-98177600D03*
X68970700Y-96907600D03*
X68970700Y-95637600D03*
X68970700Y-94367600D03*
X68970700Y-93097600D03*
X68970700Y-91827600D03*
D32*
X67205700Y-90577600D03*
X65935700Y-90577600D03*
X64665700Y-90577600D03*
X63395700Y-90577600D03*
X62125700Y-90577600D03*
X60855700Y-90577600D03*
X59585700Y-90577600D03*
X58315700Y-90577600D03*
X57045700Y-90577600D03*
X55775700Y-90577600D03*
X54505700Y-90577600D03*
X53235700Y-90577600D03*
D31*
X51470700Y-91827600D03*
X51470700Y-93097600D03*
X51470700Y-94367600D03*
X51470700Y-95637600D03*
X51470700Y-96907600D03*
X51470700Y-98177600D03*
X51470700Y-99447600D03*
X51470700Y-100717600D03*
X51470700Y-101987600D03*
X51470700Y-103257600D03*
X51470700Y-104527600D03*
X51470700Y-105797600D03*
X51470700Y-107067600D03*
X51470700Y-108337600D03*
D33*
X61720700Y-99217600D03*
X63120700Y-100617600D03*
X60320700Y-99217600D03*
X61720700Y-100617600D03*
X61720700Y-102017600D03*
X60320700Y-100617600D03*
X63120700Y-99217600D03*
X63120700Y-102017600D03*
X60320700Y-102017600D03*
%TD*%
D10*
%TO.C,KiKit_MB_12_9*%
X181321000Y-65067600D03*
%TD*%
%TO.C,KiKit_MB_13_10*%
X8200000Y-91401400D03*
%TD*%
%TO.C,KiKit_MB_24_8*%
X182321000Y-124335200D03*
%TD*%
D17*
%TO.C,C14*%
X198853300Y-71457600D03*
X198853300Y-73357600D03*
%TD*%
D15*
%TO.C,C11*%
X66440700Y-70667600D03*
X66440700Y-68767600D03*
%TD*%
D17*
%TO.C,C8*%
X195633300Y-71457600D03*
X195633300Y-73357600D03*
%TD*%
D10*
%TO.C,KiKit_MB_27_6*%
X8000000Y-132035200D03*
%TD*%
D16*
%TO.C,R5*%
X93900700Y-43385000D03*
X93900700Y-41560000D03*
%TD*%
D10*
%TO.C,KiKit_MB_10_5*%
X184321000Y-8200000D03*
%TD*%
D16*
%TO.C,R10*%
X45410700Y-118850100D03*
X45410700Y-117025100D03*
%TD*%
D10*
%TO.C,KiKit_MB_28_3*%
X219785200Y-129035200D03*
%TD*%
%TO.C,KiKit_MB_15_6*%
X43464200Y-67467600D03*
%TD*%
D34*
%TO.C,U4*%
X166343422Y-79247600D03*
D35*
X166724422Y-79171400D03*
D36*
X167130822Y-79247600D03*
X167537222Y-79247600D03*
X167943622Y-79247600D03*
D34*
X168324622Y-79247600D03*
D37*
X168731020Y-78815796D03*
D38*
X168680220Y-78434796D03*
X168680220Y-78028396D03*
X168680220Y-77621996D03*
X168680220Y-77215596D03*
D37*
X168731020Y-76834596D03*
D34*
X168324622Y-76402800D03*
D36*
X167943622Y-76402800D03*
X167537222Y-76402800D03*
X167130822Y-76402800D03*
X166724422Y-76402800D03*
D34*
X166343422Y-76402800D03*
D37*
X165937020Y-76834596D03*
D38*
X165987820Y-77215596D03*
X165987820Y-77621996D03*
X165987820Y-78028396D03*
X165987820Y-78434796D03*
D37*
X165937020Y-78815796D03*
%TD*%
D10*
%TO.C,KiKit_MB_6_5*%
X78428400Y-65067600D03*
%TD*%
%TO.C,KiKit_MB_4_3*%
X75428400Y-8200000D03*
%TD*%
%TO.C,KiKit_MB_20_3*%
X219585200Y-93401400D03*
%TD*%
D18*
%TO.C,C2*%
X87970700Y-38440000D03*
X86070700Y-38440000D03*
%TD*%
D10*
%TO.C,KiKit_MB_6_4*%
X79428400Y-65067600D03*
%TD*%
%TO.C,KiKit_MB_4_1*%
X73428400Y-8200000D03*
%TD*%
%TO.C,KiKit_MB_32_3*%
X224285200Y-124535200D03*
%TD*%
D23*
%TO.C,R21*%
X40320700Y-35230000D03*
X38320700Y-35230000D03*
%TD*%
D27*
%TO.C,U5*%
X194180800Y-76492600D03*
X194180800Y-77142600D03*
X194180800Y-77792600D03*
X194180800Y-78442600D03*
X198405800Y-78442600D03*
X198405800Y-77792600D03*
X198405800Y-77142600D03*
X198405800Y-76492600D03*
%TD*%
D13*
%TO.C,U1*%
X142353300Y-115487600D03*
X141403300Y-115487600D03*
X140453300Y-115487600D03*
X140453300Y-118187600D03*
X142353300Y-118187600D03*
%TD*%
D19*
%TO.C,Y2*%
X185953300Y-78082600D03*
X185953300Y-75582600D03*
%TD*%
D31*
%TO.C,U2*%
X175863300Y-108337600D03*
X175863300Y-107067600D03*
X175863300Y-105797600D03*
X175863300Y-104527600D03*
X175863300Y-103257600D03*
X175863300Y-101987600D03*
X175863300Y-100717600D03*
X175863300Y-99447600D03*
X175863300Y-98177600D03*
X175863300Y-96907600D03*
X175863300Y-95637600D03*
X175863300Y-94367600D03*
X175863300Y-93097600D03*
X175863300Y-91827600D03*
D32*
X174098300Y-90577600D03*
X172828300Y-90577600D03*
X171558300Y-90577600D03*
X170288300Y-90577600D03*
X169018300Y-90577600D03*
X167748300Y-90577600D03*
X166478300Y-90577600D03*
X165208300Y-90577600D03*
X163938300Y-90577600D03*
X162668300Y-90577600D03*
X161398300Y-90577600D03*
X160128300Y-90577600D03*
D31*
X158363300Y-91827600D03*
X158363300Y-93097600D03*
X158363300Y-94367600D03*
X158363300Y-95637600D03*
X158363300Y-96907600D03*
X158363300Y-98177600D03*
X158363300Y-99447600D03*
X158363300Y-100717600D03*
X158363300Y-101987600D03*
X158363300Y-103257600D03*
X158363300Y-104527600D03*
X158363300Y-105797600D03*
X158363300Y-107067600D03*
X158363300Y-108337600D03*
D33*
X168613300Y-99217600D03*
X170013300Y-99217600D03*
X168613300Y-100617600D03*
X170013300Y-102017600D03*
X167213300Y-100617600D03*
X167213300Y-102017600D03*
X168613300Y-102017600D03*
X167213300Y-99217600D03*
X170013300Y-100617600D03*
%TD*%
D22*
%TO.C,R2*%
X184913300Y-101037600D03*
X186738300Y-101037600D03*
%TD*%
D20*
%TO.C,H4*%
X96958800Y-83201400D03*
%TD*%
D10*
%TO.C,KiKit_MB_19_10*%
X115092600Y-91401400D03*
%TD*%
%TO.C,KiKit_MB_7_6*%
X115092600Y-36133800D03*
%TD*%
D14*
%TO.C,R12*%
X143153300Y-20327500D03*
X143153300Y-22152500D03*
%TD*%
D29*
%TO.C,U3*%
X166093950Y-68447600D03*
X166093950Y-69097600D03*
X166093950Y-69747600D03*
X168583950Y-69747600D03*
X168583950Y-69097600D03*
X168583950Y-68447600D03*
D30*
X167338950Y-69097600D03*
%TD*%
D10*
%TO.C,KiKit_MB_20_5*%
X219585200Y-95401400D03*
%TD*%
%TO.C,KiKit_MB_19_6*%
X115092600Y-95401400D03*
%TD*%
D17*
%TO.C,C15*%
X38310700Y-74945100D03*
X38310700Y-76845100D03*
%TD*%
D11*
%TO.C,C20*%
X82270700Y-69357600D03*
X84170700Y-69357600D03*
%TD*%
D10*
%TO.C,KiKit_MB_27_4*%
X8000000Y-130035200D03*
%TD*%
%TO.C,KiKit_MB_5_2*%
X46464200Y-65067600D03*
%TD*%
%TO.C,KiKit_MB_30_6*%
X4500000Y-124535200D03*
%TD*%
%TO.C,KiKit_MB_14_5*%
X112692600Y-95401400D03*
%TD*%
%TO.C,KiKit_MB_31_5*%
X226285200Y-8000000D03*
%TD*%
D16*
%TO.C,R10*%
X152303300Y-118850100D03*
X152303300Y-117025100D03*
%TD*%
D19*
%TO.C,Y2*%
X185953300Y-18815000D03*
X185953300Y-16315000D03*
%TD*%
D20*
%TO.C,H2*%
X23933800Y-108601400D03*
%TD*%
D22*
%TO.C,R9*%
X45848200Y-35110000D03*
X47673200Y-35110000D03*
%TD*%
D10*
%TO.C,KiKit_MB_17_2*%
X46464200Y-124335200D03*
%TD*%
%TO.C,KiKit_MB_11_8*%
X147356800Y-65067600D03*
%TD*%
%TO.C,KiKit_MB_15_2*%
X39464200Y-67467600D03*
%TD*%
%TO.C,KiKit_MB_17_1*%
X47464200Y-124335200D03*
%TD*%
D16*
%TO.C,R19*%
X175653300Y-27052500D03*
X175653300Y-25227500D03*
%TD*%
D10*
%TO.C,KiKit_MB_9_6*%
X150356800Y-8200000D03*
%TD*%
%TO.C,KiKit_MB_21_2*%
X146356800Y-67467600D03*
%TD*%
%TO.C,KiKit_MB_18_9*%
X74428400Y-124335200D03*
%TD*%
D18*
%TO.C,C1*%
X87970700Y-101037600D03*
X86070700Y-101037600D03*
%TD*%
D10*
%TO.C,KiKit_MB_26_3*%
X219785200Y-1500000D03*
%TD*%
%TO.C,KiKit_MB_17_5*%
X43464200Y-124335200D03*
%TD*%
%TO.C,KiKit_MB_32_2*%
X223285200Y-124535200D03*
%TD*%
D15*
%TO.C,C11*%
X173333300Y-11400000D03*
X173333300Y-9500000D03*
%TD*%
D10*
%TO.C,KiKit_MB_10_9*%
X188321000Y-8200000D03*
%TD*%
D17*
%TO.C,C19*%
X52110700Y-57720000D03*
X52110700Y-59620000D03*
%TD*%
D10*
%TO.C,KiKit_MB_28_4*%
X219785200Y-130035200D03*
%TD*%
%TO.C,KiKit_MB_6_1*%
X82428400Y-65067600D03*
%TD*%
%TO.C,KiKit_MB_19_8*%
X115092600Y-93401400D03*
%TD*%
%TO.C,KiKit_MB_18_10*%
X73428400Y-124335200D03*
%TD*%
%TO.C,KiKit_MB_13_5*%
X8200000Y-96401400D03*
%TD*%
D22*
%TO.C,R4*%
X184823300Y-93877600D03*
X186648300Y-93877600D03*
%TD*%
D10*
%TO.C,KiKit_MB_21_3*%
X147356800Y-67467600D03*
%TD*%
%TO.C,KiKit_MB_3_6*%
X43464200Y-8200000D03*
%TD*%
D19*
%TO.C,Y1*%
X189713300Y-98162600D03*
X189713300Y-100662600D03*
%TD*%
D10*
%TO.C,KiKit_MB_15_5*%
X42464200Y-67467600D03*
%TD*%
D17*
%TO.C,C15*%
X145203300Y-15677500D03*
X145203300Y-17577500D03*
%TD*%
D10*
%TO.C,KiKit_MB_3_4*%
X41464200Y-8200000D03*
%TD*%
D34*
%TO.C,U4*%
X166343422Y-19980000D03*
D35*
X166724422Y-19903800D03*
D36*
X167130822Y-19980000D03*
X167537222Y-19980000D03*
X167943622Y-19980000D03*
D34*
X168324622Y-19980000D03*
D37*
X168731020Y-19548196D03*
D38*
X168680220Y-19167196D03*
X168680220Y-18760796D03*
X168680220Y-18354396D03*
X168680220Y-17947996D03*
D37*
X168731020Y-17566996D03*
D34*
X168324622Y-17135200D03*
D36*
X167943622Y-17135200D03*
X167537222Y-17135200D03*
X167130822Y-17135200D03*
X166724422Y-17135200D03*
D34*
X166343422Y-17135200D03*
D37*
X165937020Y-17566996D03*
D38*
X165987820Y-17947996D03*
X165987820Y-18354396D03*
X165987820Y-18760796D03*
X165987820Y-19167196D03*
D37*
X165937020Y-19548196D03*
%TD*%
D10*
%TO.C,KiKit_MB_27_2*%
X8000000Y-128035200D03*
%TD*%
D14*
%TO.C,R7*%
X187123300Y-45980000D03*
X187123300Y-47805000D03*
%TD*%
D16*
%TO.C,R8*%
X95370700Y-17862500D03*
X95370700Y-16037500D03*
%TD*%
D10*
%TO.C,KiKit_MB_31_6*%
X227285200Y-8000000D03*
%TD*%
%TO.C,KiKit_MB_3_7*%
X44464200Y-8200000D03*
%TD*%
%TO.C,KiKit_MB_23_1*%
X154356800Y-124335200D03*
%TD*%
D21*
%TO.C,U8*%
X189263300Y-113427600D03*
X189263300Y-114697600D03*
X189263300Y-115967600D03*
X189263300Y-117237600D03*
X194213300Y-117237600D03*
X194213300Y-115967600D03*
X194213300Y-114697600D03*
X194213300Y-113427600D03*
%TD*%
D10*
%TO.C,KiKit_MB_13_9*%
X8200000Y-92401400D03*
%TD*%
D23*
%TO.C,R22*%
X40430700Y-30890000D03*
X38430700Y-30890000D03*
%TD*%
D14*
%TO.C,R12*%
X36260700Y-79595100D03*
X36260700Y-81420100D03*
%TD*%
D10*
%TO.C,KiKit_MB_19_2*%
X115092600Y-99401400D03*
%TD*%
D18*
%TO.C,C2*%
X194863300Y-38440000D03*
X192963300Y-38440000D03*
%TD*%
D16*
%TO.C,R19*%
X68760700Y-86320100D03*
X68760700Y-84495100D03*
%TD*%
D17*
%TO.C,C6*%
X176823300Y-54330000D03*
X176823300Y-56230000D03*
%TD*%
D10*
%TO.C,KiKit_MB_17_3*%
X45464200Y-124335200D03*
%TD*%
%TO.C,KiKit_MB_8_3*%
X219585200Y-34133800D03*
%TD*%
%TO.C,KiKit_MB_24_3*%
X187321000Y-124335200D03*
%TD*%
%TO.C,KiKit_MB_20_10*%
X219585200Y-100401400D03*
%TD*%
%TO.C,KiKit_MB_6_9*%
X74428400Y-65067600D03*
%TD*%
%TO.C,KiKit_MB_15_10*%
X47464200Y-67467600D03*
%TD*%
D11*
%TO.C,C20*%
X189163300Y-69357600D03*
X191063300Y-69357600D03*
%TD*%
D10*
%TO.C,KiKit_MB_12_8*%
X182321000Y-65067600D03*
%TD*%
%TO.C,KiKit_MB_3_3*%
X40464200Y-8200000D03*
%TD*%
D29*
%TO.C,U3*%
X59201350Y-68447600D03*
X59201350Y-69097600D03*
X59201350Y-69747600D03*
X61691350Y-69747600D03*
X61691350Y-69097600D03*
X61691350Y-68447600D03*
D30*
X60446350Y-69097600D03*
%TD*%
D10*
%TO.C,KiKit_MB_9_9*%
X153356800Y-8200000D03*
%TD*%
%TO.C,KiKit_MB_25_2*%
X8000000Y-500000D03*
%TD*%
D21*
%TO.C,U8*%
X82370700Y-54160000D03*
X82370700Y-55430000D03*
X82370700Y-56700000D03*
X82370700Y-57970000D03*
X87320700Y-57970000D03*
X87320700Y-56700000D03*
X87320700Y-55430000D03*
X87320700Y-54160000D03*
%TD*%
D22*
%TO.C,R1*%
X72898200Y-112957600D03*
X74723200Y-112957600D03*
%TD*%
D24*
%TO.C,F1*%
X204973300Y-88917600D03*
X202173300Y-88917600D03*
%TD*%
D22*
%TO.C,R3*%
X184823300Y-97707600D03*
X186648300Y-97707600D03*
%TD*%
D10*
%TO.C,KiKit_MB_5_6*%
X42464200Y-65067600D03*
%TD*%
%TO.C,KiKit_MB_8_8*%
X219585200Y-39133800D03*
%TD*%
D23*
%TO.C,R21*%
X147213300Y-35230000D03*
X145213300Y-35230000D03*
%TD*%
D10*
%TO.C,KiKit_MB_24_5*%
X185321000Y-124335200D03*
%TD*%
%TO.C,KiKit_MB_22_2*%
X181321000Y-67467600D03*
%TD*%
D19*
%TO.C,Y1*%
X82820700Y-98162600D03*
X82820700Y-100662600D03*
%TD*%
D15*
%TO.C,C16*%
X54590700Y-15170000D03*
X54590700Y-13270000D03*
%TD*%
D16*
%TO.C,R8*%
X95370700Y-77130100D03*
X95370700Y-75305100D03*
%TD*%
D10*
%TO.C,KiKit_MB_14_2*%
X112692600Y-92401400D03*
%TD*%
D18*
%TO.C,C9*%
X142383300Y-53030000D03*
X140483300Y-53030000D03*
%TD*%
D10*
%TO.C,KiKit_MB_12_4*%
X186321000Y-65067600D03*
%TD*%
%TO.C,KiKit_MB_8_10*%
X219585200Y-41133800D03*
%TD*%
D11*
%TO.C,C3*%
X72860700Y-50750000D03*
X74760700Y-50750000D03*
%TD*%
D22*
%TO.C,R2*%
X78020700Y-101037600D03*
X79845700Y-101037600D03*
%TD*%
D10*
%TO.C,KiKit_MB_12_6*%
X184321000Y-65067600D03*
%TD*%
D24*
%TO.C,F1*%
X98080700Y-88917600D03*
X95280700Y-88917600D03*
%TD*%
D23*
%TO.C,R21*%
X40320700Y-94497600D03*
X38320700Y-94497600D03*
%TD*%
D10*
%TO.C,KiKit_MB_28_5*%
X219785200Y-131035200D03*
%TD*%
%TO.C,KiKit_MB_29_3*%
X1500000Y-8000000D03*
%TD*%
%TO.C,KiKit_MB_9_2*%
X146356800Y-8200000D03*
%TD*%
D22*
%TO.C,R3*%
X77930700Y-97707600D03*
X79755700Y-97707600D03*
%TD*%
D10*
%TO.C,KiKit_MB_24_2*%
X188321000Y-124335200D03*
%TD*%
D15*
%TO.C,C13*%
X83210700Y-20950000D03*
X83210700Y-19050000D03*
%TD*%
D10*
%TO.C,KiKit_MB_18_2*%
X81428400Y-124335200D03*
%TD*%
D31*
%TO.C,U2*%
X68970700Y-49070000D03*
X68970700Y-47800000D03*
X68970700Y-46530000D03*
X68970700Y-45260000D03*
X68970700Y-43990000D03*
X68970700Y-42720000D03*
X68970700Y-41450000D03*
X68970700Y-40180000D03*
X68970700Y-38910000D03*
X68970700Y-37640000D03*
X68970700Y-36370000D03*
X68970700Y-35100000D03*
X68970700Y-33830000D03*
X68970700Y-32560000D03*
D32*
X67205700Y-31310000D03*
X65935700Y-31310000D03*
X64665700Y-31310000D03*
X63395700Y-31310000D03*
X62125700Y-31310000D03*
X60855700Y-31310000D03*
X59585700Y-31310000D03*
X58315700Y-31310000D03*
X57045700Y-31310000D03*
X55775700Y-31310000D03*
X54505700Y-31310000D03*
X53235700Y-31310000D03*
D31*
X51470700Y-32560000D03*
X51470700Y-33830000D03*
X51470700Y-35100000D03*
X51470700Y-36370000D03*
X51470700Y-37640000D03*
X51470700Y-38910000D03*
X51470700Y-40180000D03*
X51470700Y-41450000D03*
X51470700Y-42720000D03*
X51470700Y-43990000D03*
X51470700Y-45260000D03*
X51470700Y-46530000D03*
X51470700Y-47800000D03*
X51470700Y-49070000D03*
D33*
X63120700Y-41350000D03*
X60320700Y-42750000D03*
X61720700Y-41350000D03*
X60320700Y-41350000D03*
X63120700Y-42750000D03*
X61720700Y-42750000D03*
X63120700Y-39950000D03*
X61720700Y-39950000D03*
X60320700Y-39950000D03*
%TD*%
D10*
%TO.C,KiKit_MB_11_6*%
X149356800Y-65067600D03*
%TD*%
D17*
%TO.C,C6*%
X69930700Y-54330000D03*
X69930700Y-56230000D03*
%TD*%
D10*
%TO.C,KiKit_MB_8_9*%
X219585200Y-40133800D03*
%TD*%
%TO.C,KiKit_MB_18_3*%
X80428400Y-124335200D03*
%TD*%
%TO.C,KiKit_MB_29_2*%
X500000Y-8000000D03*
%TD*%
%TO.C,KiKit_MB_9_3*%
X147356800Y-8200000D03*
%TD*%
%TO.C,KiKit_MB_15_4*%
X41464200Y-67467600D03*
%TD*%
D23*
%TO.C,R21*%
X147213300Y-94497600D03*
X145213300Y-94497600D03*
%TD*%
D10*
%TO.C,KiKit_MB_9_5*%
X149356800Y-8200000D03*
%TD*%
D20*
%TO.C,H3*%
X130826400Y-83201400D03*
%TD*%
D10*
%TO.C,KiKit_MB_4_8*%
X80428400Y-8200000D03*
%TD*%
D26*
%TO.C,Q1*%
X140443300Y-49687500D03*
X142343300Y-49687500D03*
X141393300Y-47812500D03*
%TD*%
D14*
%TO.C,R12*%
X36260700Y-20327500D03*
X36260700Y-22152500D03*
%TD*%
D10*
%TO.C,KiKit_MB_2_6*%
X112692600Y-37133800D03*
%TD*%
%TO.C,KiKit_MB_17_6*%
X42464200Y-124335200D03*
%TD*%
D14*
%TO.C,R14*%
X155638300Y-117025100D03*
X155638300Y-118850100D03*
%TD*%
D10*
%TO.C,KiKit_MB_21_5*%
X149356800Y-67467600D03*
%TD*%
%TO.C,KiKit_MB_14_9*%
X112692600Y-99401400D03*
%TD*%
D18*
%TO.C,C1*%
X194863300Y-101037600D03*
X192963300Y-101037600D03*
%TD*%
D10*
%TO.C,KiKit_MB_10_3*%
X182321000Y-8200000D03*
%TD*%
%TO.C,KiKit_MB_32_5*%
X226285200Y-124535200D03*
%TD*%
D34*
%TO.C,U4*%
X59450822Y-19980000D03*
D35*
X59831822Y-19903800D03*
D36*
X60238222Y-19980000D03*
X60644622Y-19980000D03*
X61051022Y-19980000D03*
D34*
X61432022Y-19980000D03*
D37*
X61838420Y-19548196D03*
D38*
X61787620Y-19167196D03*
X61787620Y-18760796D03*
X61787620Y-18354396D03*
X61787620Y-17947996D03*
D37*
X61838420Y-17566996D03*
D34*
X61432022Y-17135200D03*
D36*
X61051022Y-17135200D03*
X60644622Y-17135200D03*
X60238222Y-17135200D03*
X59831822Y-17135200D03*
D34*
X59450822Y-17135200D03*
D37*
X59044420Y-17566996D03*
D38*
X59095220Y-17947996D03*
X59095220Y-18354396D03*
X59095220Y-18760796D03*
X59095220Y-19167196D03*
D37*
X59044420Y-19548196D03*
%TD*%
D10*
%TO.C,KiKit_MB_6_3*%
X80428400Y-65067600D03*
%TD*%
D22*
%TO.C,R17*%
X156430800Y-74195100D03*
X158255800Y-74195100D03*
%TD*%
D24*
%TO.C,F1*%
X204973300Y-29650000D03*
X202173300Y-29650000D03*
%TD*%
D15*
%TO.C,C16*%
X161483300Y-15170000D03*
X161483300Y-13270000D03*
%TD*%
D17*
%TO.C,C8*%
X88740700Y-12190000D03*
X88740700Y-14090000D03*
%TD*%
D21*
%TO.C,U8*%
X189263300Y-54160000D03*
X189263300Y-55430000D03*
X189263300Y-56700000D03*
X189263300Y-57970000D03*
X194213300Y-57970000D03*
X194213300Y-56700000D03*
X194213300Y-55430000D03*
X194213300Y-54160000D03*
%TD*%
D10*
%TO.C,KiKit_MB_6_7*%
X76428400Y-65067600D03*
%TD*%
D25*
%TO.C,R6*%
X95323200Y-59820000D03*
X93498200Y-59820000D03*
%TD*%
D10*
%TO.C,KiKit_MB_21_1*%
X145356800Y-67467600D03*
%TD*%
%TO.C,KiKit_MB_15_3*%
X40464200Y-67467600D03*
%TD*%
D20*
%TO.C,H3*%
X23933800Y-83201400D03*
%TD*%
%TO.C,H3*%
X23933800Y-23933800D03*
%TD*%
D10*
%TO.C,KiKit_MB_17_8*%
X40464200Y-124335200D03*
%TD*%
D15*
%TO.C,C17*%
X44863200Y-72585100D03*
X44863200Y-70685100D03*
%TD*%
D25*
%TO.C,R15*%
X61173200Y-14120000D03*
X59348200Y-14120000D03*
%TD*%
D10*
%TO.C,KiKit_MB_16_7*%
X79428400Y-67467600D03*
%TD*%
D20*
%TO.C,H4*%
X203851400Y-83201400D03*
%TD*%
D22*
%TO.C,R2*%
X184913300Y-41770000D03*
X186738300Y-41770000D03*
%TD*%
D20*
%TO.C,H1*%
X203851400Y-108601400D03*
%TD*%
D10*
%TO.C,KiKit_MB_5_4*%
X44464200Y-65067600D03*
%TD*%
D18*
%TO.C,C5*%
X209783300Y-29720000D03*
X207883300Y-29720000D03*
%TD*%
D10*
%TO.C,KiKit_MB_24_1*%
X189321000Y-124335200D03*
%TD*%
D34*
%TO.C,U4*%
X59450822Y-79247600D03*
D35*
X59831822Y-79171400D03*
D36*
X60238222Y-79247600D03*
X60644622Y-79247600D03*
X61051022Y-79247600D03*
D34*
X61432022Y-79247600D03*
D37*
X61838420Y-78815796D03*
D38*
X61787620Y-78434796D03*
X61787620Y-78028396D03*
X61787620Y-77621996D03*
X61787620Y-77215596D03*
D37*
X61838420Y-76834596D03*
D34*
X61432022Y-76402800D03*
D36*
X61051022Y-76402800D03*
X60644622Y-76402800D03*
X60238222Y-76402800D03*
X59831822Y-76402800D03*
D34*
X59450822Y-76402800D03*
D37*
X59044420Y-76834596D03*
D38*
X59095220Y-77215596D03*
X59095220Y-77621996D03*
X59095220Y-78028396D03*
X59095220Y-78434796D03*
D37*
X59044420Y-78815796D03*
%TD*%
D16*
%TO.C,R10*%
X45410700Y-59582500D03*
X45410700Y-57757500D03*
%TD*%
D11*
%TO.C,C3*%
X179753300Y-110017600D03*
X181653300Y-110017600D03*
%TD*%
D15*
%TO.C,C13*%
X83210700Y-80217600D03*
X83210700Y-78317600D03*
%TD*%
D10*
%TO.C,KiKit_MB_32_6*%
X227285200Y-124535200D03*
%TD*%
%TO.C,KiKit_MB_7_8*%
X115092600Y-34133800D03*
%TD*%
D15*
%TO.C,C11*%
X173333300Y-70667600D03*
X173333300Y-68767600D03*
%TD*%
D14*
%TO.C,R7*%
X80230700Y-45980000D03*
X80230700Y-47805000D03*
%TD*%
D22*
%TO.C,R1*%
X179790800Y-112957600D03*
X181615800Y-112957600D03*
%TD*%
D10*
%TO.C,KiKit_MB_8_1*%
X219585200Y-32133800D03*
%TD*%
D15*
%TO.C,C10*%
X145443300Y-117257600D03*
X145443300Y-115357600D03*
%TD*%
D11*
%TO.C,C3*%
X179753300Y-50750000D03*
X181653300Y-50750000D03*
%TD*%
D10*
%TO.C,KiKit_MB_1_10*%
X8200000Y-32133800D03*
%TD*%
D25*
%TO.C,R6*%
X95323200Y-119087600D03*
X93498200Y-119087600D03*
%TD*%
D10*
%TO.C,KiKit_MB_20_8*%
X219585200Y-98401400D03*
%TD*%
%TO.C,KiKit_MB_5_1*%
X47464200Y-65067600D03*
%TD*%
D22*
%TO.C,R9*%
X152740800Y-94377600D03*
X154565800Y-94377600D03*
%TD*%
D15*
%TO.C,C16*%
X161483300Y-74437600D03*
X161483300Y-72537600D03*
%TD*%
D10*
%TO.C,KiKit_MB_20_6*%
X219585200Y-96401400D03*
%TD*%
%TO.C,KiKit_MB_29_6*%
X4500000Y-8000000D03*
%TD*%
D17*
%TO.C,C15*%
X38310700Y-15677500D03*
X38310700Y-17577500D03*
%TD*%
D18*
%TO.C,C1*%
X194863300Y-41770000D03*
X192963300Y-41770000D03*
%TD*%
D26*
%TO.C,Q1*%
X33550700Y-49687500D03*
X35450700Y-49687500D03*
X34500700Y-47812500D03*
%TD*%
D10*
%TO.C,KiKit_MB_4_7*%
X79428400Y-8200000D03*
%TD*%
D17*
%TO.C,C19*%
X52110700Y-116987600D03*
X52110700Y-118887600D03*
%TD*%
D10*
%TO.C,KiKit_MB_5_3*%
X45464200Y-65067600D03*
%TD*%
%TO.C,KiKit_MB_9_4*%
X148356800Y-8200000D03*
%TD*%
%TO.C,KiKit_MB_13_7*%
X8200000Y-94401400D03*
%TD*%
D14*
%TO.C,R7*%
X187123300Y-105247600D03*
X187123300Y-107072600D03*
%TD*%
D10*
%TO.C,KiKit_MB_9_7*%
X151356800Y-8200000D03*
%TD*%
%TO.C,KiKit_MB_11_3*%
X152356800Y-65067600D03*
%TD*%
%TO.C,KiKit_MB_8_6*%
X219585200Y-37133800D03*
%TD*%
%TO.C,KiKit_MB_24_4*%
X186321000Y-124335200D03*
%TD*%
D14*
%TO.C,R11*%
X41960700Y-15715000D03*
X41960700Y-17540000D03*
%TD*%
D13*
%TO.C,U1*%
X35460700Y-115487600D03*
X34510700Y-115487600D03*
X33560700Y-115487600D03*
X33560700Y-118187600D03*
X35460700Y-118187600D03*
%TD*%
D22*
%TO.C,R9*%
X45848200Y-94377600D03*
X47673200Y-94377600D03*
%TD*%
D10*
%TO.C,KiKit_MB_2_4*%
X112692600Y-35133800D03*
%TD*%
%TO.C,KiKit_MB_4_9*%
X81428400Y-8200000D03*
%TD*%
%TO.C,KiKit_MB_7_7*%
X115092600Y-35133800D03*
%TD*%
D22*
%TO.C,R2*%
X78020700Y-41770000D03*
X79845700Y-41770000D03*
%TD*%
D10*
%TO.C,KiKit_MB_6_8*%
X75428400Y-65067600D03*
%TD*%
%TO.C,KiKit_MB_25_3*%
X8000000Y-1500000D03*
%TD*%
D26*
%TO.C,Q2*%
X140603300Y-17515000D03*
X142503300Y-17515000D03*
X141553300Y-15640000D03*
%TD*%
D14*
%TO.C,R14*%
X48745700Y-57757500D03*
X48745700Y-59582500D03*
%TD*%
D11*
%TO.C,C3*%
X72860700Y-110017600D03*
X74760700Y-110017600D03*
%TD*%
D10*
%TO.C,KiKit_MB_23_3*%
X152356800Y-124335200D03*
%TD*%
%TO.C,KiKit_MB_16_1*%
X73428400Y-67467600D03*
%TD*%
D15*
%TO.C,C11*%
X66440700Y-11400000D03*
X66440700Y-9500000D03*
%TD*%
D10*
%TO.C,KiKit_MB_18_5*%
X78428400Y-124335200D03*
%TD*%
D22*
%TO.C,R1*%
X72898200Y-53690000D03*
X74723200Y-53690000D03*
%TD*%
D31*
%TO.C,U2*%
X175863300Y-49070000D03*
X175863300Y-47800000D03*
X175863300Y-46530000D03*
X175863300Y-45260000D03*
X175863300Y-43990000D03*
X175863300Y-42720000D03*
X175863300Y-41450000D03*
X175863300Y-40180000D03*
X175863300Y-38910000D03*
X175863300Y-37640000D03*
X175863300Y-36370000D03*
X175863300Y-35100000D03*
X175863300Y-33830000D03*
X175863300Y-32560000D03*
D32*
X174098300Y-31310000D03*
X172828300Y-31310000D03*
X171558300Y-31310000D03*
X170288300Y-31310000D03*
X169018300Y-31310000D03*
X167748300Y-31310000D03*
X166478300Y-31310000D03*
X165208300Y-31310000D03*
X163938300Y-31310000D03*
X162668300Y-31310000D03*
X161398300Y-31310000D03*
X160128300Y-31310000D03*
D31*
X158363300Y-32560000D03*
X158363300Y-33830000D03*
X158363300Y-35100000D03*
X158363300Y-36370000D03*
X158363300Y-37640000D03*
X158363300Y-38910000D03*
X158363300Y-40180000D03*
X158363300Y-41450000D03*
X158363300Y-42720000D03*
X158363300Y-43990000D03*
X158363300Y-45260000D03*
X158363300Y-46530000D03*
X158363300Y-47800000D03*
X158363300Y-49070000D03*
D33*
X168613300Y-42750000D03*
X170013300Y-39950000D03*
X170013300Y-41350000D03*
X167213300Y-42750000D03*
X167213300Y-41350000D03*
X167213300Y-39950000D03*
X168613300Y-39950000D03*
X168613300Y-41350000D03*
X170013300Y-42750000D03*
%TD*%
D12*
%TO.C,U9*%
X178425300Y-20640000D03*
X178425300Y-21040000D03*
X178425300Y-21440000D03*
X178425300Y-21840000D03*
X178425300Y-22240000D03*
X179961300Y-22240000D03*
X179961300Y-21840000D03*
X179961300Y-21440000D03*
X179961300Y-21040000D03*
X179961300Y-20640000D03*
%TD*%
D17*
%TO.C,C7*%
X83200700Y-14400000D03*
X83200700Y-16300000D03*
%TD*%
D16*
%TO.C,R20*%
X79490700Y-72700100D03*
X79490700Y-70875100D03*
%TD*%
D18*
%TO.C,C9*%
X142383300Y-112297600D03*
X140483300Y-112297600D03*
%TD*%
D25*
%TO.C,R6*%
X202215800Y-59820000D03*
X200390800Y-59820000D03*
%TD*%
D10*
%TO.C,KiKit_MB_3_8*%
X45464200Y-8200000D03*
%TD*%
D14*
%TO.C,R11*%
X41960700Y-74982600D03*
X41960700Y-76807600D03*
%TD*%
D16*
%TO.C,R16*%
X178063300Y-72540100D03*
X178063300Y-70715100D03*
%TD*%
D10*
%TO.C,KiKit_MB_7_1*%
X115092600Y-41133800D03*
%TD*%
D17*
%TO.C,C14*%
X91960700Y-12190000D03*
X91960700Y-14090000D03*
%TD*%
D10*
%TO.C,KiKit_MB_5_10*%
X38464200Y-65067600D03*
%TD*%
%TO.C,KiKit_MB_2_8*%
X112692600Y-39133800D03*
%TD*%
D18*
%TO.C,C5*%
X102890700Y-88987600D03*
X100990700Y-88987600D03*
%TD*%
D10*
%TO.C,KiKit_MB_16_4*%
X76428400Y-67467600D03*
%TD*%
%TO.C,KiKit_MB_32_4*%
X225285200Y-124535200D03*
%TD*%
%TO.C,KiKit_MB_1_8*%
X8200000Y-34133800D03*
%TD*%
%TO.C,KiKit_MB_30_3*%
X1500000Y-124535200D03*
%TD*%
%TO.C,KiKit_MB_10_6*%
X185321000Y-8200000D03*
%TD*%
D18*
%TO.C,C12*%
X158283300Y-11727500D03*
X156383300Y-11727500D03*
%TD*%
D10*
%TO.C,KiKit_MB_13_2*%
X8200000Y-99401400D03*
%TD*%
D16*
%TO.C,R13*%
X33710700Y-81420100D03*
X33710700Y-79595100D03*
%TD*%
D10*
%TO.C,KiKit_MB_9_8*%
X152356800Y-8200000D03*
%TD*%
%TO.C,KiKit_MB_24_10*%
X180321000Y-124335200D03*
%TD*%
%TO.C,KiKit_MB_1_2*%
X8200000Y-40133800D03*
%TD*%
%TO.C,KiKit_MB_22_1*%
X180321000Y-67467600D03*
%TD*%
D12*
%TO.C,U9*%
X178425300Y-79907600D03*
X178425300Y-80307600D03*
X178425300Y-80707600D03*
X178425300Y-81107600D03*
X178425300Y-81507600D03*
X179961300Y-81507600D03*
X179961300Y-81107600D03*
X179961300Y-80707600D03*
X179961300Y-80307600D03*
X179961300Y-79907600D03*
%TD*%
D10*
%TO.C,KiKit_MB_23_5*%
X150356800Y-124335200D03*
%TD*%
%TO.C,KiKit_MB_11_5*%
X150356800Y-65067600D03*
%TD*%
D14*
%TO.C,R18*%
X161483300Y-76785100D03*
X161483300Y-78610100D03*
%TD*%
D10*
%TO.C,KiKit_MB_16_10*%
X82428400Y-67467600D03*
%TD*%
%TO.C,KiKit_MB_22_9*%
X188321000Y-67467600D03*
%TD*%
%TO.C,KiKit_MB_17_10*%
X38464200Y-124335200D03*
%TD*%
D28*
%TO.C,Q4*%
X34878200Y-37110000D03*
X34878200Y-35210000D03*
X33003200Y-36160000D03*
%TD*%
D10*
%TO.C,KiKit_MB_23_9*%
X146356800Y-124335200D03*
%TD*%
D17*
%TO.C,C18*%
X172453300Y-73057600D03*
X172453300Y-74957600D03*
%TD*%
%TO.C,C18*%
X65560700Y-13790000D03*
X65560700Y-15690000D03*
%TD*%
D39*
%TO.C,J6*%
X60380700Y-115097600D03*
D40*
X60380700Y-85257600D03*
%TD*%
D41*
%TO.C,J5*%
X211630919Y-91957600D03*
D42*
X211630919Y-94497600D03*
X211630919Y-97037600D03*
X211630919Y-99577600D03*
%TD*%
D43*
%TO.C,J4*%
X95550700Y-98627600D03*
D44*
X97700700Y-95827600D03*
D43*
X95550700Y-93027600D03*
%TD*%
D39*
%TO.C,J6*%
X60380700Y-55830000D03*
D40*
X60380700Y-25990000D03*
%TD*%
D41*
%TO.C,J3*%
X122266633Y-30090000D03*
D42*
X122266633Y-32630000D03*
X122266633Y-35170000D03*
X122266633Y-37710000D03*
X122266633Y-40250000D03*
X122266633Y-42790000D03*
%TD*%
D44*
%TO.C,J4*%
X204593300Y-95827600D03*
D43*
X202443300Y-98627600D03*
X202443300Y-93027600D03*
%TD*%
D41*
%TO.C,J5*%
X104738319Y-32690000D03*
D42*
X104738319Y-35230000D03*
X104738319Y-37770000D03*
X104738319Y-40310000D03*
%TD*%
D41*
%TO.C,J3*%
X122266633Y-89357600D03*
D42*
X122266633Y-91897600D03*
X122266633Y-94437600D03*
X122266633Y-96977600D03*
X122266633Y-99517600D03*
X122266633Y-102057600D03*
%TD*%
D41*
%TO.C,J5*%
X211630919Y-32690000D03*
D42*
X211630919Y-35230000D03*
X211630919Y-37770000D03*
X211630919Y-40310000D03*
%TD*%
D41*
%TO.C,J3*%
X15374033Y-30090000D03*
D42*
X15374033Y-32630000D03*
X15374033Y-35170000D03*
X15374033Y-37710000D03*
X15374033Y-40250000D03*
X15374033Y-42790000D03*
%TD*%
D39*
%TO.C,J6*%
X167273300Y-55830000D03*
D40*
X167273300Y-25990000D03*
%TD*%
D39*
%TO.C,J6*%
X167273300Y-115097600D03*
D40*
X167273300Y-85257600D03*
%TD*%
D41*
%TO.C,J3*%
X15374033Y-89357600D03*
D42*
X15374033Y-91897600D03*
X15374033Y-94437600D03*
X15374033Y-96977600D03*
X15374033Y-99517600D03*
X15374033Y-102057600D03*
%TD*%
D43*
%TO.C,J4*%
X202443300Y-39360000D03*
D44*
X204593300Y-36560000D03*
D43*
X202443300Y-33760000D03*
%TD*%
D41*
%TO.C,J5*%
X104738319Y-91957600D03*
D42*
X104738319Y-94497600D03*
X104738319Y-97037600D03*
X104738319Y-99577600D03*
%TD*%
D43*
%TO.C,J4*%
X95550700Y-33760000D03*
X95550700Y-39360000D03*
D44*
X97700700Y-36560000D03*
%TD*%
M02*
