M48
INCH
T1C0.0197
T2C0.0197
T3C0.0394
T4C0.1358
%
G90
G05
T1
X0.424Y-1.522
X0.424Y-3.8554
X0.4335Y-1.8374
X0.4335Y-4.1708
X0.6941Y-1.0154
X0.6941Y-3.3487
X0.7201Y-1.8339
X0.7201Y-4.1672
X0.7382Y-1.3614
X0.7382Y-3.6948
X0.963Y-0.4846
X0.963Y-2.818
X1.002Y-0.7339
X1.002Y-3.0672
X1.1103Y-2.376
X1.1103Y-4.7094
X1.1193Y-0.6083
X1.1193Y-2.9416
X1.1276Y-1.4728
X1.1276Y-3.8062
X1.1307Y-2.1508
X1.1307Y-4.4842
X1.1457Y-0.4031
X1.1457Y-2.7365
X1.1579Y-1.6429
X1.1579Y-3.9763
X1.165Y-1.511
X1.165Y-3.8444
X1.1835Y-2.15
X1.1835Y-4.4834
X1.2012Y-0.8673
X1.2012Y-3.2007
X1.2055Y-1.5508
X1.2055Y-3.8842
X1.2256Y-1.276
X1.2256Y-3.6094
X1.2362Y-2.1484
X1.2362Y-4.4818
X1.2441Y-1.5906
X1.2441Y-3.9239
X1.2473Y-2.089
X1.2473Y-4.4223
X1.2481Y-2.0
X1.2481Y-4.3334
X1.2638Y-0.3984
X1.2638Y-2.7318
X1.328Y-0.9677
X1.328Y-3.3011
X1.3587Y-1.5862
X1.3587Y-1.6504
X1.3587Y-1.7126
X1.3587Y-1.7764
X1.3587Y-3.9196
X1.3587Y-3.9838
X1.3587Y-4.046
X1.3587Y-4.1097
X1.45Y-1.4614
X1.45Y-3.7948
X1.4508Y-0.7398
X1.4508Y-3.0731
X1.478Y-2.3575
X1.478Y-4.6909
X1.5126Y-0.4594
X1.5126Y-2.7928
X1.5193Y-2.1409
X1.5193Y-4.4743
X1.5437Y-1.7677
X1.5437Y-4.1011
X1.5492Y-1.6488
X1.5492Y-3.9822
X1.5807Y-0.6913
X1.5807Y-3.0247
X1.5855Y-0.6185
X1.5855Y-2.9519
X1.6142Y-0.7831
X1.6142Y-3.1164
X1.6197Y-0.9409
X1.6197Y-3.2743
X1.6303Y-2.3555
X1.6303Y-4.6889
X1.6725Y-0.3921
X1.6725Y-2.7255
X1.6796Y-2.0445
X1.6796Y-4.3779
X1.6961Y-1.2157
X1.6961Y-3.5491
X1.6973Y-1.0929
X1.6973Y-3.4263
X1.7374Y-1.6484
X1.7374Y-3.9818
X1.7658Y-0.5898
X1.7658Y-2.9231
X1.7663Y-0.3849
X1.7663Y-2.7183
X1.7862Y-1.2047
X1.7862Y-3.5381
X1.8044Y-1.5008
X1.8044Y-3.8342
X1.8551Y-1.7319
X1.8551Y-4.0653
X1.8697Y-0.7665
X1.8697Y-3.0999
X1.8713Y-1.061
X1.8713Y-3.3944
X1.8717Y-0.6685
X1.8717Y-3.0019
X1.8721Y-0.4625
X1.8721Y-2.7959
X1.9185Y-2.0453
X1.9185Y-2.4126
X1.9185Y-4.3786
X1.9185Y-4.746
X1.9225Y-1.9323
X1.9225Y-4.2657
X1.9327Y-1.7819
X1.9327Y-4.1153
X2.0512Y-2.413
X2.0512Y-4.7464
X2.0622Y-0.6906
X2.0622Y-3.0239
X2.1Y-0.4146
X2.1Y-2.7479
X2.1146Y-1.6055
X2.1146Y-3.9389
X2.1488Y-0.461
X2.1488Y-2.7944
X2.1544Y-1.5315
X2.1544Y-3.8649
X2.1823Y-0.9177
X2.1823Y-3.2511
X2.2055Y-1.4689
X2.2055Y-3.8023
X2.241Y-0.6878
X2.241Y-3.0212
X2.2548Y-0.4937
X2.2548Y-0.7803
X2.2548Y-2.8271
X2.2548Y-3.1137
X2.2551Y-0.424
X2.2551Y-2.7574
X2.2733Y-0.6449
X2.2733Y-2.9783
X2.2796Y-1.3264
X2.2796Y-3.6597
X2.2799Y-1.3894
X2.2799Y-3.7227
X2.2819Y-0.5882
X2.2819Y-2.9216
X2.2847Y-0.8205
X2.2847Y-3.1538
X2.2874Y-1.6283
X2.2874Y-3.9617
X2.3107Y-1.7461
X2.3107Y-4.0794
X2.315Y-1.5138
X2.315Y-3.8471
X2.3512Y-1.3882
X2.3512Y-3.7216
X2.3516Y-1.3268
X2.3516Y-3.6601
X2.3559Y-0.8272
X2.3559Y-3.1605
X2.3799Y-0.4689
X2.3799Y-2.8023
X2.3807Y-0.7535
X2.3807Y-3.0869
X2.391Y-0.706
X2.391Y-3.0394
X2.4044Y-2.4102
X2.4044Y-4.7436
X2.4296Y-1.7689
X2.4296Y-4.1023
X2.4311Y-1.3142
X2.4311Y-3.6475
X2.4323Y-1.4941
X2.4323Y-3.8275
X2.4433Y-1.3886
X2.4433Y-3.722
X2.4953Y-0.5004
X2.4953Y-2.8338
X2.502Y-0.5531
X2.502Y-2.8865
X2.513Y-0.4043
X2.513Y-2.7377
X2.537Y-0.7224
X2.537Y-3.0558
X2.5386Y-1.5146
X2.5386Y-3.8479
X2.5485Y-1.7441
X2.5485Y-4.0775
X2.5587Y-1.3299
X2.5587Y-3.6633
X2.5618Y-0.8283
X2.5618Y-3.1617
X2.5697Y-1.6287
X2.5697Y-3.9621
X2.5792Y-2.0354
X2.5792Y-4.3688
X2.6008Y-1.9311
X2.6008Y-4.2645
X2.6059Y-1.3299
X2.6059Y-3.6633
X2.6209Y-0.6827
X2.6209Y-3.016
X2.6292Y-1.5272
X2.6292Y-3.8605
X2.6315Y-1.8319
X2.6315Y-4.1653
X2.6402Y-2.2823
X2.6402Y-4.6157
X2.6721Y-0.8614
X2.6721Y-3.1948
X2.6878Y-0.5035
X2.6878Y-2.8369
X2.7095Y-0.3748
X2.7095Y-2.7082
X2.7532Y-2.2807
X2.7532Y-4.6141
X2.7611Y-0.7791
X2.7611Y-3.1125
X2.8162Y-0.9315
X2.8162Y-3.2649
X2.8217Y-1.065
X2.8217Y-3.3983
X2.8425Y-1.298
X2.8425Y-3.6314
X2.8618Y-0.6831
X2.8618Y-3.0164
X2.8764Y-0.9311
X2.8764Y-3.2645
X2.8937Y-2.4098
X2.8937Y-4.7432
X2.9087Y-0.3909
X2.9087Y-2.7243
X2.9453Y-0.8445
X2.9453Y-3.1779
X2.9477Y-0.5437
X2.9477Y-2.8771
X2.9551Y-0.776
X2.9551Y-3.1094
X3.0218Y-1.9953
X3.0218Y-4.3286
X3.0386Y-0.402
X3.0386Y-2.7353
X3.1402Y-1.2768
X3.1402Y-3.6101
X3.1412Y-2.2829
X3.1412Y-4.6162
X3.2048Y-2.4102
X3.2048Y-4.7436
X3.2768Y-0.5067
X3.2768Y-2.8401
X3.3374Y-1.9189
X3.3374Y-4.2523
X3.3473Y-0.4752
X3.3473Y-2.8086
X3.3548Y-0.8228
X3.3548Y-3.1562
X3.4197Y-0.4823
X3.4197Y-2.8157
X3.4284Y-0.9531
X3.4284Y-3.2865
X3.4386Y-2.0461
X3.4386Y-4.3794
X3.452Y-1.3004
X3.452Y-3.6338
X3.5193Y-0.6268
X3.5193Y-2.9601
X3.5331Y-1.1791
X3.5331Y-3.5125
X3.5587Y-1.5122
X3.5587Y-3.8456
X3.5599Y-1.6429
X3.5599Y-3.9763
X3.5992Y-1.3315
X3.5992Y-3.6649
X3.6012Y-1.5736
X3.6012Y-3.907
X3.6111Y-2.3543
X3.6111Y-4.6877
X3.6666Y-1.1343
X3.6666Y-3.4676
X3.6674Y-0.6224
X3.6674Y-2.9558
X3.6764Y-1.3291
X3.6764Y-3.6625
X3.6776Y-1.5524
X3.6776Y-3.8857
X3.6973Y-0.4799
X3.6973Y-2.8133
X3.7138Y-2.1091
X3.7138Y-4.4424
X3.7933Y-0.4854
X3.7933Y-2.8188
X3.8116Y-1.6679
X3.8116Y-4.0013
X3.8142Y-2.2465
X3.8142Y-4.5798
X3.9319Y-1.439
X3.9319Y-3.7723
X3.9996Y-1.85
X3.9996Y-4.1834
X4.0524Y-1.0976
X4.0524Y-3.431
X4.1174Y-1.7543
X4.1174Y-4.0877
X4.2244Y-1.8488
X4.2244Y-4.1822
X4.3303Y-1.7531
X4.3303Y-4.0865
X4.6324Y-1.522
X4.6324Y-3.8554
X4.6419Y-1.8374
X4.6419Y-4.1708
X4.9025Y-1.0154
X4.9025Y-3.3487
X4.9285Y-1.8339
X4.9285Y-4.1672
X4.9466Y-1.3614
X4.9466Y-3.6948
X5.1714Y-0.4846
X5.1714Y-2.818
X5.2104Y-0.7339
X5.2104Y-3.0672
X5.3186Y-2.376
X5.3186Y-4.7094
X5.3277Y-0.6083
X5.3277Y-2.9416
X5.336Y-1.4728
X5.336Y-3.8062
X5.3391Y-2.1508
X5.3391Y-4.4842
X5.3541Y-0.4031
X5.3541Y-2.7365
X5.3663Y-1.6429
X5.3663Y-3.9763
X5.3734Y-1.511
X5.3734Y-3.8444
X5.3919Y-2.15
X5.3919Y-4.4834
X5.4096Y-0.8673
X5.4096Y-3.2007
X5.4139Y-1.5508
X5.4139Y-3.8842
X5.434Y-1.276
X5.434Y-3.6094
X5.4446Y-2.1484
X5.4446Y-4.4818
X5.4525Y-1.5906
X5.4525Y-3.9239
X5.4556Y-2.089
X5.4556Y-4.4223
X5.4564Y-2.0
X5.4564Y-4.3334
X5.4722Y-0.3984
X5.4722Y-2.7318
X5.5364Y-0.9677
X5.5364Y-3.3011
X5.5671Y-1.5862
X5.5671Y-1.6504
X5.5671Y-1.7126
X5.5671Y-1.7764
X5.5671Y-3.9196
X5.5671Y-3.9838
X5.5671Y-4.046
X5.5671Y-4.1097
X5.6584Y-1.4614
X5.6584Y-3.7948
X5.6592Y-0.7398
X5.6592Y-3.0731
X5.6864Y-2.3575
X5.6864Y-4.6909
X5.721Y-0.4594
X5.721Y-2.7928
X5.7277Y-2.1409
X5.7277Y-4.4743
X5.7521Y-1.7677
X5.7521Y-4.1011
X5.7576Y-1.6488
X5.7576Y-3.9822
X5.7891Y-0.6913
X5.7891Y-3.0247
X5.7938Y-0.6185
X5.7938Y-2.9519
X5.8226Y-0.7831
X5.8226Y-3.1164
X5.8281Y-0.9409
X5.8281Y-3.2743
X5.8387Y-2.3555
X5.8387Y-4.6889
X5.8808Y-0.3921
X5.8808Y-2.7255
X5.8879Y-2.0445
X5.8879Y-4.3779
X5.9045Y-1.2157
X5.9045Y-3.5491
X5.9056Y-1.0929
X5.9056Y-3.4263
X5.9458Y-1.6484
X5.9458Y-3.9818
X5.9741Y-0.5898
X5.9741Y-2.9231
X5.9746Y-0.3849
X5.9746Y-2.7183
X5.9946Y-1.2047
X5.9946Y-3.5381
X6.0127Y-1.5008
X6.0127Y-3.8342
X6.0635Y-1.7319
X6.0635Y-4.0653
X6.0781Y-0.7665
X6.0781Y-3.0999
X6.0797Y-1.061
X6.0797Y-3.3944
X6.0801Y-0.6685
X6.0801Y-3.0019
X6.0804Y-0.4625
X6.0804Y-2.7959
X6.1269Y-2.0453
X6.1269Y-2.4126
X6.1269Y-4.3786
X6.1269Y-4.746
X6.1308Y-1.9323
X6.1308Y-4.2657
X6.1411Y-1.7819
X6.1411Y-4.1153
X6.2596Y-2.413
X6.2596Y-4.7464
X6.2706Y-0.6906
X6.2706Y-3.0239
X6.3084Y-0.4146
X6.3084Y-2.7479
X6.323Y-1.6055
X6.323Y-3.9389
X6.3572Y-0.461
X6.3572Y-2.7944
X6.3627Y-1.5315
X6.3627Y-3.8649
X6.3907Y-0.9177
X6.3907Y-3.2511
X6.4139Y-1.4689
X6.4139Y-3.8023
X6.4493Y-0.6878
X6.4493Y-3.0212
X6.4631Y-0.4937
X6.4631Y-0.7803
X6.4631Y-2.8271
X6.4631Y-3.1137
X6.4635Y-0.424
X6.4635Y-2.7574
X6.4816Y-0.6449
X6.4816Y-2.9783
X6.4879Y-1.3264
X6.4879Y-3.6597
X6.4883Y-1.3894
X6.4883Y-3.7227
X6.4903Y-0.5882
X6.4903Y-2.9216
X6.493Y-0.8205
X6.493Y-3.1538
X6.4958Y-1.6283
X6.4958Y-3.9617
X6.519Y-1.7461
X6.519Y-4.0794
X6.5234Y-1.5138
X6.5234Y-3.8471
X6.5596Y-1.3882
X6.5596Y-3.7216
X6.56Y-1.3268
X6.56Y-3.6601
X6.5643Y-0.8272
X6.5643Y-3.1605
X6.5883Y-0.4689
X6.5883Y-2.8023
X6.5891Y-0.7535
X6.5891Y-3.0869
X6.5994Y-0.706
X6.5994Y-3.0394
X6.6127Y-2.4102
X6.6127Y-4.7436
X6.6379Y-1.7689
X6.6379Y-4.1023
X6.6395Y-1.3142
X6.6395Y-3.6475
X6.6407Y-1.4941
X6.6407Y-3.8275
X6.6517Y-1.3886
X6.6517Y-3.722
X6.7037Y-0.5004
X6.7037Y-2.8338
X6.7104Y-0.5531
X6.7104Y-2.8865
X6.7214Y-0.4043
X6.7214Y-2.7377
X6.7454Y-0.7224
X6.7454Y-3.0558
X6.747Y-1.5146
X6.747Y-3.8479
X6.7568Y-1.7441
X6.7568Y-4.0775
X6.7671Y-1.3299
X6.7671Y-3.6633
X6.7702Y-0.8283
X6.7702Y-3.1617
X6.7781Y-1.6287
X6.7781Y-3.9621
X6.7875Y-2.0354
X6.7875Y-4.3688
X6.8092Y-1.9311
X6.8092Y-4.2645
X6.8143Y-1.3299
X6.8143Y-3.6633
X6.8293Y-0.6827
X6.8293Y-3.016
X6.8375Y-1.5272
X6.8375Y-3.8605
X6.8399Y-1.8319
X6.8399Y-4.1653
X6.8486Y-2.2823
X6.8486Y-4.6157
X6.8804Y-0.8614
X6.8804Y-3.1948
X6.8962Y-0.5035
X6.8962Y-2.8369
X6.9178Y-0.3748
X6.9178Y-2.7082
X6.9615Y-2.2807
X6.9615Y-4.6141
X6.9694Y-0.7791
X6.9694Y-3.1125
X7.0245Y-0.9315
X7.0245Y-3.2649
X7.0301Y-1.065
X7.0301Y-3.3983
X7.0509Y-1.298
X7.0509Y-3.6314
X7.0702Y-0.6831
X7.0702Y-3.0164
X7.0848Y-0.9311
X7.0848Y-3.2645
X7.1021Y-2.4098
X7.1021Y-4.7432
X7.1171Y-0.3909
X7.1171Y-2.7243
X7.1537Y-0.8445
X7.1537Y-3.1779
X7.156Y-0.5437
X7.156Y-2.8771
X7.1635Y-0.776
X7.1635Y-3.1094
X7.2301Y-1.9953
X7.2301Y-4.3286
X7.247Y-0.402
X7.247Y-2.7353
X7.3486Y-1.2768
X7.3486Y-3.6101
X7.3495Y-2.2829
X7.3495Y-4.6162
X7.4131Y-2.4102
X7.4131Y-4.7436
X7.4852Y-0.5067
X7.4852Y-2.8401
X7.5458Y-1.9189
X7.5458Y-4.2523
X7.5556Y-0.4752
X7.5556Y-2.8086
X7.5631Y-0.8228
X7.5631Y-3.1562
X7.6281Y-0.4823
X7.6281Y-2.8157
X7.6367Y-0.9531
X7.6367Y-3.2865
X7.647Y-2.0461
X7.647Y-4.3794
X7.6604Y-1.3004
X7.6604Y-3.6338
X7.7277Y-0.6268
X7.7277Y-2.9601
X7.7415Y-1.1791
X7.7415Y-3.5125
X7.7671Y-1.5122
X7.7671Y-3.8456
X7.7682Y-1.6429
X7.7682Y-3.9763
X7.8076Y-1.3315
X7.8076Y-3.6649
X7.8096Y-1.5736
X7.8096Y-3.907
X7.8194Y-2.3543
X7.8194Y-4.6877
X7.8749Y-1.1343
X7.8749Y-3.4676
X7.8757Y-0.6224
X7.8757Y-2.9558
X7.8848Y-1.3291
X7.8848Y-3.6625
X7.886Y-1.5524
X7.886Y-3.8857
X7.9056Y-0.4799
X7.9056Y-2.8133
X7.9222Y-2.1091
X7.9222Y-4.4424
X8.0017Y-0.4854
X8.0017Y-2.8188
X8.02Y-1.6679
X8.02Y-4.0013
X8.0226Y-2.2465
X8.0226Y-4.5798
X8.1403Y-1.439
X8.1403Y-3.7723
X8.208Y-1.85
X8.208Y-4.1834
X8.2608Y-1.0976
X8.2608Y-3.431
X8.3257Y-1.7543
X8.3257Y-4.0877
X8.4328Y-1.8488
X8.4328Y-4.1822
X8.5387Y-1.7531
X8.5387Y-4.0865
T3
X0.6053Y-1.1846
X0.6053Y-1.2846
X0.6053Y-1.3846
X0.6053Y-1.4846
X0.6053Y-1.5846
X0.6053Y-1.6846
X0.6053Y-3.518
X0.6053Y-3.618
X0.6053Y-3.718
X0.6053Y-3.818
X0.6053Y-3.918
X0.6053Y-4.018
X4.1236Y-1.287
X4.1236Y-1.387
X4.1236Y-1.487
X4.1236Y-1.587
X4.1236Y-3.6204
X4.1236Y-3.7204
X4.1236Y-3.8204
X4.1236Y-3.9204
X4.8136Y-1.1846
X4.8136Y-1.2846
X4.8136Y-1.3846
X4.8136Y-1.4846
X4.8136Y-1.5846
X4.8136Y-1.6846
X4.8136Y-3.518
X4.8136Y-3.618
X4.8136Y-3.718
X4.8136Y-3.818
X4.8136Y-3.918
X4.8136Y-4.018
X8.3319Y-1.287
X8.3319Y-1.387
X8.3319Y-1.487
X8.3319Y-1.587
X8.3319Y-3.6204
X8.3319Y-3.7204
X8.3319Y-3.8204
X8.3319Y-3.9204
T4
X2.3772Y-1.0232
X2.3772Y-2.198
X2.3772Y-3.3566
X2.3772Y-4.5314
X6.5856Y-1.0232
X6.5856Y-2.198
X6.5856Y-3.3566
X6.5856Y-4.5314
T2
G00X3.7618Y-1.3154
M15
G01X3.7618Y-1.3429
M16
G05
G00X3.7618Y-1.5358
M15
G01X3.7618Y-1.5634
M16
G05
G00X3.7618Y-3.6487
M15
G01X3.7618Y-3.6763
M16
G05
G00X3.7618Y-3.8692
M15
G01X3.7618Y-3.8968
M16
G05
G00X3.8465Y-1.4177
M15
G01X3.8465Y-1.461
M16
G05
G00X3.8465Y-3.7511
M15
G01X3.8465Y-3.7944
M16
G05
G00X7.9702Y-1.3154
M15
G01X7.9702Y-1.3429
M16
G05
G00X7.9702Y-1.5358
M15
G01X7.9702Y-1.5634
M16
G05
G00X7.9702Y-3.6487
M15
G01X7.9702Y-3.6763
M16
G05
G00X7.9702Y-3.8692
M15
G01X7.9702Y-3.8968
M16
G05
G00X8.0549Y-1.4177
M15
G01X8.0549Y-1.461
M16
G05
G00X8.0549Y-3.7511
M15
G01X8.0549Y-3.7944
M16
G05
T0
M30
