%TF.GenerationSoftware,KiCad,Pcbnew,6.0.11-2627ca5db0~126~ubuntu20.04.1*%
%TF.CreationDate,2024-09-10T20:57:43-04:00*%
%TF.ProjectId,panel,70616e65-6c2e-46b6-9963-61645f706362,rev?*%
%TF.SameCoordinates,Original*%
%TF.FileFunction,Paste,Bot*%
%TF.FilePolarity,Positive*%
%FSLAX46Y46*%
G04 Gerber Fmt 4.6, Leading zero omitted, Abs format (unit mm)*
G04 Created by KiCad (PCBNEW 6.0.11-2627ca5db0~126~ubuntu20.04.1) date 2024-09-10 20:57:43*
%MOMM*%
%LPD*%
G01*
G04 APERTURE LIST*
G04 Aperture macros list*
%AMRoundRect*
0 Rectangle with rounded corners*
0 $1 Rounding radius*
0 $2 $3 $4 $5 $6 $7 $8 $9 X,Y pos of 4 corners*
0 Add a 4 corners polygon primitive as box body*
4,1,4,$2,$3,$4,$5,$6,$7,$8,$9,$2,$3,0*
0 Add four circle primitives for the rounded corners*
1,1,$1+$1,$2,$3*
1,1,$1+$1,$4,$5*
1,1,$1+$1,$6,$7*
1,1,$1+$1,$8,$9*
0 Add four rect primitives between the rounded corners*
20,1,$1+$1,$2,$3,$4,$5,0*
20,1,$1+$1,$4,$5,$6,$7,0*
20,1,$1+$1,$6,$7,$8,$9,0*
20,1,$1+$1,$8,$9,$2,$3,0*%
G04 Aperture macros list end*
%ADD10RoundRect,0.243750X0.243750X0.456250X-0.243750X0.456250X-0.243750X-0.456250X0.243750X-0.456250X0*%
%ADD11R,1.000000X0.600000*%
%ADD12R,1.000000X0.700000*%
%ADD13R,1.500000X0.450000*%
%ADD14RoundRect,0.250000X-2.500000X0.250000X-2.500000X-0.250000X2.500000X-0.250000X2.500000X0.250000X0*%
%ADD15RoundRect,0.250000X-1.250000X0.550000X-1.250000X-0.550000X1.250000X-0.550000X1.250000X0.550000X0*%
G04 APERTURE END LIST*
D10*
%TO.C,D2*%
X95218200Y-57170000D03*
X93343200Y-57170000D03*
%TD*%
D11*
%TO.C,U6*%
X26232000Y-72917600D03*
X26232000Y-71617600D03*
X28432000Y-71617600D03*
X28432000Y-72917600D03*
%TD*%
D12*
%TO.C,S2*%
X193453300Y-69387600D03*
X187453300Y-69387600D03*
X193453300Y-73087600D03*
X187453300Y-73087600D03*
%TD*%
%TO.C,S1*%
X141224600Y-73087600D03*
X147224600Y-73087600D03*
X141224600Y-69387600D03*
X147224600Y-69387600D03*
%TD*%
D13*
%TO.C,J4*%
X95800700Y-94527600D03*
X95800700Y-95177600D03*
X95800700Y-95827600D03*
X95800700Y-96477600D03*
X95800700Y-97127600D03*
%TD*%
D12*
%TO.C,S2*%
X86560700Y-10120000D03*
X80560700Y-10120000D03*
X86560700Y-13820000D03*
X80560700Y-13820000D03*
%TD*%
D10*
%TO.C,D2*%
X202110800Y-116437600D03*
X200235800Y-116437600D03*
%TD*%
D13*
%TO.C,J4*%
X202693300Y-94527600D03*
X202693300Y-95177600D03*
X202693300Y-95827600D03*
X202693300Y-96477600D03*
X202693300Y-97127600D03*
%TD*%
D12*
%TO.C,S2*%
X193453300Y-10120000D03*
X187453300Y-10120000D03*
X193453300Y-13820000D03*
X187453300Y-13820000D03*
%TD*%
%TO.C,S2*%
X86560700Y-69387600D03*
X80560700Y-69387600D03*
X86560700Y-73087600D03*
X80560700Y-73087600D03*
%TD*%
D14*
%TO.C,J1*%
X131903300Y-34900000D03*
X131903300Y-36900000D03*
D15*
X129653300Y-32500000D03*
X129653300Y-39300000D03*
%TD*%
D10*
%TO.C,D2*%
X202110800Y-57170000D03*
X200235800Y-57170000D03*
%TD*%
D11*
%TO.C,U6*%
X133124600Y-13650000D03*
X133124600Y-12350000D03*
X135324600Y-12350000D03*
X135324600Y-13650000D03*
%TD*%
D14*
%TO.C,J1*%
X25010700Y-94167600D03*
X25010700Y-96167600D03*
D15*
X22760700Y-91767600D03*
X22760700Y-98567600D03*
%TD*%
D12*
%TO.C,S1*%
X34332000Y-13820000D03*
X40332000Y-13820000D03*
X34332000Y-10120000D03*
X40332000Y-10120000D03*
%TD*%
D13*
%TO.C,J4*%
X202693300Y-35260000D03*
X202693300Y-35910000D03*
X202693300Y-36560000D03*
X202693300Y-37210000D03*
X202693300Y-37860000D03*
%TD*%
D14*
%TO.C,J1*%
X131903300Y-94167600D03*
X131903300Y-96167600D03*
D15*
X129653300Y-91767600D03*
X129653300Y-98567600D03*
%TD*%
D10*
%TO.C,D2*%
X95218200Y-116437600D03*
X93343200Y-116437600D03*
%TD*%
D14*
%TO.C,J1*%
X25010700Y-34900000D03*
X25010700Y-36900000D03*
D15*
X22760700Y-39300000D03*
X22760700Y-32500000D03*
%TD*%
D11*
%TO.C,U6*%
X133124600Y-72917600D03*
X133124600Y-71617600D03*
X135324600Y-71617600D03*
X135324600Y-72917600D03*
%TD*%
D12*
%TO.C,S1*%
X34332000Y-73087600D03*
X40332000Y-73087600D03*
X34332000Y-69387600D03*
X40332000Y-69387600D03*
%TD*%
D11*
%TO.C,U6*%
X26232000Y-13650000D03*
X26232000Y-12350000D03*
X28432000Y-12350000D03*
X28432000Y-13650000D03*
%TD*%
D12*
%TO.C,S1*%
X141224600Y-13820000D03*
X147224600Y-13820000D03*
X141224600Y-10120000D03*
X147224600Y-10120000D03*
%TD*%
D13*
%TO.C,J4*%
X95800700Y-35260000D03*
X95800700Y-35910000D03*
X95800700Y-36560000D03*
X95800700Y-37210000D03*
X95800700Y-37860000D03*
%TD*%
M02*
