M48
INCH
T1C0.0197
T2C0.1260
%
G90
G05
T1
X0.0197Y-0.315
X0.0197Y-4.903
X0.0591Y-0.315
X0.0591Y-4.903
X0.0984Y-0.315
X0.0984Y-4.903
X0.1378Y-0.315
X0.1378Y-4.903
X0.1772Y-0.315
X0.1772Y-4.903
X0.315Y-0.0197
X0.315Y-0.0591
X0.315Y-0.0984
X0.315Y-0.1378
X0.315Y-0.1772
X0.315Y-5.0408
X0.315Y-5.0801
X0.315Y-5.1195
X0.315Y-5.1589
X0.315Y-5.1982
X0.3228Y-1.2651
X0.3228Y-1.3045
X0.3228Y-1.3439
X0.3228Y-1.3832
X0.3228Y-1.4226
X0.3228Y-1.462
X0.3228Y-1.5013
X0.3228Y-1.5407
X0.3228Y-1.5801
X0.3228Y-1.6194
X0.3228Y-3.5985
X0.3228Y-3.6379
X0.3228Y-3.6772
X0.3228Y-3.7166
X0.3228Y-3.756
X0.3228Y-3.7953
X0.3228Y-3.8347
X0.3228Y-3.8741
X0.3228Y-3.9134
X0.3228Y-3.9528
X1.5143Y-0.3228
X1.5143Y-2.5617
X1.5143Y-2.6562
X1.5143Y-4.8951
X1.5537Y-0.3228
X1.5537Y-2.5617
X1.5537Y-2.6562
X1.5537Y-4.8951
X1.5931Y-0.3228
X1.5931Y-2.5617
X1.5931Y-2.6562
X1.5931Y-4.8951
X1.6324Y-0.3228
X1.6324Y-2.5617
X1.6324Y-2.6562
X1.6324Y-4.8951
X1.6718Y-0.3228
X1.6718Y-2.5617
X1.6718Y-2.6562
X1.6718Y-4.8951
X1.7112Y-0.3228
X1.7112Y-2.5617
X1.7112Y-2.6562
X1.7112Y-4.8951
X1.7506Y-0.3228
X1.7506Y-2.5617
X1.7506Y-2.6562
X1.7506Y-4.8951
X1.7899Y-0.3228
X1.7899Y-2.5617
X1.7899Y-2.6562
X1.7899Y-4.8951
X1.8293Y-0.3228
X1.8293Y-2.5617
X1.8293Y-2.6562
X1.8293Y-4.8951
X1.8687Y-0.3228
X1.8687Y-2.5617
X1.8687Y-2.6562
X1.8687Y-4.8951
X2.8909Y-0.3228
X2.8909Y-2.5617
X2.8909Y-2.6562
X2.8909Y-4.8951
X2.9303Y-0.3228
X2.9303Y-2.5617
X2.9303Y-2.6562
X2.9303Y-4.8951
X2.9696Y-0.3228
X2.9696Y-2.5617
X2.9696Y-2.6562
X2.9696Y-4.8951
X3.009Y-0.3228
X3.009Y-2.5617
X3.009Y-2.6562
X3.009Y-4.8951
X3.0484Y-0.3228
X3.0484Y-2.5617
X3.0484Y-2.6562
X3.0484Y-4.8951
X3.0877Y-0.3228
X3.0877Y-2.5617
X3.0877Y-2.6562
X3.0877Y-4.8951
X3.1271Y-0.3228
X3.1271Y-2.5617
X3.1271Y-2.6562
X3.1271Y-4.8951
X3.1665Y-0.3228
X3.1665Y-2.5617
X3.1665Y-2.6562
X3.1665Y-4.8951
X3.2058Y-0.3228
X3.2058Y-2.5617
X3.2058Y-2.6562
X3.2058Y-4.8951
X3.2452Y-0.3228
X3.2452Y-2.5617
X3.2452Y-2.6562
X3.2452Y-4.8951
X4.4367Y-1.2651
X4.4367Y-1.3045
X4.4367Y-1.3439
X4.4367Y-1.3832
X4.4367Y-1.4226
X4.4367Y-1.462
X4.4367Y-1.5013
X4.4367Y-1.5407
X4.4367Y-1.5801
X4.4367Y-1.6194
X4.4367Y-3.5985
X4.4367Y-3.6379
X4.4367Y-3.6772
X4.4367Y-3.7166
X4.4367Y-3.756
X4.4367Y-3.7953
X4.4367Y-3.8347
X4.4367Y-3.8741
X4.4367Y-3.9134
X4.4367Y-3.9528
X4.5312Y-1.2651
X4.5312Y-1.3045
X4.5312Y-1.3439
X4.5312Y-1.3832
X4.5312Y-1.4226
X4.5312Y-1.462
X4.5312Y-1.5013
X4.5312Y-1.5407
X4.5312Y-1.5801
X4.5312Y-1.6194
X4.5312Y-3.5985
X4.5312Y-3.6379
X4.5312Y-3.6772
X4.5312Y-3.7166
X4.5312Y-3.756
X4.5312Y-3.7953
X4.5312Y-3.8347
X4.5312Y-3.8741
X4.5312Y-3.9134
X4.5312Y-3.9528
X5.7227Y-0.3228
X5.7227Y-2.5617
X5.7227Y-2.6562
X5.7227Y-4.8951
X5.7621Y-0.3228
X5.7621Y-2.5617
X5.7621Y-2.6562
X5.7621Y-4.8951
X5.8014Y-0.3228
X5.8014Y-2.5617
X5.8014Y-2.6562
X5.8014Y-4.8951
X5.8408Y-0.3228
X5.8408Y-2.5617
X5.8408Y-2.6562
X5.8408Y-4.8951
X5.8802Y-0.3228
X5.8802Y-2.5617
X5.8802Y-2.6562
X5.8802Y-4.8951
X5.9196Y-0.3228
X5.9196Y-2.5617
X5.9196Y-2.6562
X5.9196Y-4.8951
X5.9589Y-0.3228
X5.9589Y-2.5617
X5.9589Y-2.6562
X5.9589Y-4.8951
X5.9983Y-0.3228
X5.9983Y-2.5617
X5.9983Y-2.6562
X5.9983Y-4.8951
X6.0377Y-0.3228
X6.0377Y-2.5617
X6.0377Y-2.6562
X6.0377Y-4.8951
X6.077Y-0.3228
X6.077Y-2.5617
X6.077Y-2.6562
X6.077Y-4.8951
X7.0993Y-0.3228
X7.0993Y-2.5617
X7.0993Y-2.6562
X7.0993Y-4.8951
X7.1386Y-0.3228
X7.1386Y-2.5617
X7.1386Y-2.6562
X7.1386Y-4.8951
X7.178Y-0.3228
X7.178Y-2.5617
X7.178Y-2.6562
X7.178Y-4.8951
X7.2174Y-0.3228
X7.2174Y-2.5617
X7.2174Y-2.6562
X7.2174Y-4.8951
X7.2567Y-0.3228
X7.2567Y-2.5617
X7.2567Y-2.6562
X7.2567Y-4.8951
X7.2961Y-0.3228
X7.2961Y-2.5617
X7.2961Y-2.6562
X7.2961Y-4.8951
X7.3355Y-0.3228
X7.3355Y-2.5617
X7.3355Y-2.6562
X7.3355Y-4.8951
X7.3748Y-0.3228
X7.3748Y-2.5617
X7.3748Y-2.6562
X7.3748Y-4.8951
X7.4142Y-0.3228
X7.4142Y-2.5617
X7.4142Y-2.6562
X7.4142Y-4.8951
X7.4536Y-0.3228
X7.4536Y-2.5617
X7.4536Y-2.6562
X7.4536Y-4.8951
X8.6451Y-1.2651
X8.6451Y-1.3045
X8.6451Y-1.3439
X8.6451Y-1.3832
X8.6451Y-1.4226
X8.6451Y-1.462
X8.6451Y-1.5013
X8.6451Y-1.5407
X8.6451Y-1.5801
X8.6451Y-1.6194
X8.6451Y-3.5985
X8.6451Y-3.6379
X8.6451Y-3.6772
X8.6451Y-3.7166
X8.6451Y-3.756
X8.6451Y-3.7953
X8.6451Y-3.8347
X8.6451Y-3.8741
X8.6451Y-3.9134
X8.6451Y-3.9528
X8.653Y-0.0197
X8.653Y-0.0591
X8.653Y-0.0984
X8.653Y-0.1378
X8.653Y-0.1772
X8.653Y-5.0408
X8.653Y-5.0801
X8.653Y-5.1195
X8.653Y-5.1589
X8.653Y-5.1982
X8.7908Y-0.315
X8.7908Y-4.903
X8.8301Y-0.315
X8.8301Y-4.903
X8.8695Y-0.315
X8.8695Y-4.903
X8.9089Y-0.315
X8.9089Y-4.903
X8.9482Y-0.315
X8.9482Y-4.903
T2
X0.9423Y-0.9423
X0.9423Y-1.9423
X0.9423Y-3.2756
X0.9423Y-4.2756
X3.8173Y-0.9423
X3.8173Y-1.9423
X3.8173Y-3.2756
X3.8173Y-4.2756
X5.1506Y-0.9423
X5.1506Y-1.9423
X5.1506Y-3.2756
X5.1506Y-4.2756
X8.0256Y-0.9423
X8.0256Y-1.9423
X8.0256Y-3.2756
X8.0256Y-4.2756
T0
M30
