%TF.GenerationSoftware,KiCad,Pcbnew,6.0.11-2627ca5db0~126~ubuntu20.04.1*%
%TF.CreationDate,2024-09-10T20:57:43-04:00*%
%TF.ProjectId,panel,70616e65-6c2e-46b6-9963-61645f706362,rev?*%
%TF.SameCoordinates,Original*%
%TF.FileFunction,Legend,Bot*%
%TF.FilePolarity,Positive*%
%FSLAX46Y46*%
G04 Gerber Fmt 4.6, Leading zero omitted, Abs format (unit mm)*
G04 Created by KiCad (PCBNEW 6.0.11-2627ca5db0~126~ubuntu20.04.1) date 2024-09-10 20:57:43*
%MOMM*%
%LPD*%
G01*
G04 APERTURE LIST*
G04 Aperture macros list*
%AMRoundRect*
0 Rectangle with rounded corners*
0 $1 Rounding radius*
0 $2 $3 $4 $5 $6 $7 $8 $9 X,Y pos of 4 corners*
0 Add a 4 corners polygon primitive as box body*
4,1,4,$2,$3,$4,$5,$6,$7,$8,$9,$2,$3,0*
0 Add four circle primitives for the rounded corners*
1,1,$1+$1,$2,$3*
1,1,$1+$1,$4,$5*
1,1,$1+$1,$6,$7*
1,1,$1+$1,$8,$9*
0 Add four rect primitives between the rounded corners*
20,1,$1+$1,$2,$3,$4,$5,0*
20,1,$1+$1,$4,$5,$6,$7,0*
20,1,$1+$1,$6,$7,$8,$9,0*
20,1,$1+$1,$8,$9,$2,$3,0*%
G04 Aperture macros list end*
%ADD10C,0.150000*%
%ADD11C,0.250000*%
%ADD12C,0.254000*%
%ADD13C,0.120000*%
%ADD14C,0.100000*%
%ADD15C,0.200000*%
%ADD16C,0.500000*%
%ADD17C,3.200000*%
%ADD18RoundRect,0.243750X0.243750X0.456250X-0.243750X0.456250X-0.243750X-0.456250X0.243750X-0.456250X0*%
%ADD19R,1.000000X0.600000*%
%ADD20R,5.175000X5.175000*%
%ADD21C,5.175000*%
%ADD22R,1.000000X0.700000*%
%ADD23R,1.700000X1.700000*%
%ADD24O,1.700000X1.700000*%
%ADD25R,1.500000X0.450000*%
%ADD26O,1.100000X1.800000*%
%ADD27O,1.100000X2.200000*%
%ADD28RoundRect,0.250000X-2.500000X0.250000X-2.500000X-0.250000X2.500000X-0.250000X2.500000X0.250000X0*%
%ADD29RoundRect,0.250000X-1.250000X0.550000X-1.250000X-0.550000X1.250000X-0.550000X1.250000X0.550000X0*%
G04 APERTURE END LIST*
D10*
X12578795Y-34832380D02*
X11959747Y-34832380D01*
X12293080Y-35213333D01*
X12150223Y-35213333D01*
X12054985Y-35260952D01*
X12007366Y-35308571D01*
X11959747Y-35403809D01*
X11959747Y-35641904D01*
X12007366Y-35737142D01*
X12054985Y-35784761D01*
X12150223Y-35832380D01*
X12435938Y-35832380D01*
X12531176Y-35784761D01*
X12578795Y-35737142D01*
X11674033Y-34832380D02*
X11340700Y-35832380D01*
X11007366Y-34832380D01*
X10769271Y-34832380D02*
X10150223Y-34832380D01*
X10483557Y-35213333D01*
X10340700Y-35213333D01*
X10245461Y-35260952D01*
X10197842Y-35308571D01*
X10150223Y-35403809D01*
X10150223Y-35641904D01*
X10197842Y-35737142D01*
X10245461Y-35784761D01*
X10340700Y-35832380D01*
X10626414Y-35832380D01*
X10721652Y-35784761D01*
X10769271Y-35737142D01*
X119471395Y-34832380D02*
X118852347Y-34832380D01*
X119185680Y-35213333D01*
X119042823Y-35213333D01*
X118947585Y-35260952D01*
X118899966Y-35308571D01*
X118852347Y-35403809D01*
X118852347Y-35641904D01*
X118899966Y-35737142D01*
X118947585Y-35784761D01*
X119042823Y-35832380D01*
X119328538Y-35832380D01*
X119423776Y-35784761D01*
X119471395Y-35737142D01*
X118566633Y-34832380D02*
X118233300Y-35832380D01*
X117899966Y-34832380D01*
X117661871Y-34832380D02*
X117042823Y-34832380D01*
X117376157Y-35213333D01*
X117233300Y-35213333D01*
X117138061Y-35260952D01*
X117090442Y-35308571D01*
X117042823Y-35403809D01*
X117042823Y-35641904D01*
X117090442Y-35737142D01*
X117138061Y-35784761D01*
X117233300Y-35832380D01*
X117519014Y-35832380D01*
X117614252Y-35784761D01*
X117661871Y-35737142D01*
X12578795Y-94099980D02*
X11959747Y-94099980D01*
X12293080Y-94480933D01*
X12150223Y-94480933D01*
X12054985Y-94528552D01*
X12007366Y-94576171D01*
X11959747Y-94671409D01*
X11959747Y-94909504D01*
X12007366Y-95004742D01*
X12054985Y-95052361D01*
X12150223Y-95099980D01*
X12435938Y-95099980D01*
X12531176Y-95052361D01*
X12578795Y-95004742D01*
X11674033Y-94099980D02*
X11340700Y-95099980D01*
X11007366Y-94099980D01*
X10769271Y-94099980D02*
X10150223Y-94099980D01*
X10483557Y-94480933D01*
X10340700Y-94480933D01*
X10245461Y-94528552D01*
X10197842Y-94576171D01*
X10150223Y-94671409D01*
X10150223Y-94909504D01*
X10197842Y-95004742D01*
X10245461Y-95052361D01*
X10340700Y-95099980D01*
X10626414Y-95099980D01*
X10721652Y-95052361D01*
X10769271Y-95004742D01*
X119471395Y-94099980D02*
X118852347Y-94099980D01*
X119185680Y-94480933D01*
X119042823Y-94480933D01*
X118947585Y-94528552D01*
X118899966Y-94576171D01*
X118852347Y-94671409D01*
X118852347Y-94909504D01*
X118899966Y-95004742D01*
X118947585Y-95052361D01*
X119042823Y-95099980D01*
X119328538Y-95099980D01*
X119423776Y-95052361D01*
X119471395Y-95004742D01*
X118566633Y-94099980D02*
X118233300Y-95099980D01*
X117899966Y-94099980D01*
X117661871Y-94099980D02*
X117042823Y-94099980D01*
X117376157Y-94480933D01*
X117233300Y-94480933D01*
X117138061Y-94528552D01*
X117090442Y-94576171D01*
X117042823Y-94671409D01*
X117042823Y-94909504D01*
X117090442Y-95004742D01*
X117138061Y-95052361D01*
X117233300Y-95099980D01*
X117519014Y-95099980D01*
X117614252Y-95052361D01*
X117661871Y-95004742D01*
X12626414Y-39892380D02*
X12054986Y-39892380D01*
X12340700Y-40892380D02*
X12340700Y-39892380D01*
X11816890Y-39892380D02*
X11150224Y-40892380D01*
X11150224Y-39892380D02*
X11816890Y-40892380D01*
X119519014Y-39892380D02*
X118947586Y-39892380D01*
X119233300Y-40892380D02*
X119233300Y-39892380D01*
X118709490Y-39892380D02*
X118042824Y-40892380D01*
X118042824Y-39892380D02*
X118709490Y-40892380D01*
X12626414Y-99159980D02*
X12054986Y-99159980D01*
X12340700Y-100159980D02*
X12340700Y-99159980D01*
X11816890Y-99159980D02*
X11150224Y-100159980D01*
X11150224Y-99159980D02*
X11816890Y-100159980D01*
X119519014Y-99159980D02*
X118947586Y-99159980D01*
X119233300Y-100159980D02*
X119233300Y-99159980D01*
X118709490Y-99159980D02*
X118042824Y-100159980D01*
X118042824Y-99159980D02*
X118709490Y-100159980D01*
X12483557Y-43242380D02*
X12483557Y-42242380D01*
X12245461Y-42242380D01*
X12102604Y-42290000D01*
X12007366Y-42385238D01*
X11959747Y-42480476D01*
X11912128Y-42670952D01*
X11912128Y-42813809D01*
X11959747Y-43004285D01*
X12007366Y-43099523D01*
X12102604Y-43194761D01*
X12245461Y-43242380D01*
X12483557Y-43242380D01*
X11626414Y-42242380D02*
X11054985Y-42242380D01*
X11340700Y-43242380D02*
X11340700Y-42242380D01*
X10150223Y-43242380D02*
X10483557Y-42766190D01*
X10721652Y-43242380D02*
X10721652Y-42242380D01*
X10340700Y-42242380D01*
X10245461Y-42290000D01*
X10197842Y-42337619D01*
X10150223Y-42432857D01*
X10150223Y-42575714D01*
X10197842Y-42670952D01*
X10245461Y-42718571D01*
X10340700Y-42766190D01*
X10721652Y-42766190D01*
X119376157Y-43242380D02*
X119376157Y-42242380D01*
X119138061Y-42242380D01*
X118995204Y-42290000D01*
X118899966Y-42385238D01*
X118852347Y-42480476D01*
X118804728Y-42670952D01*
X118804728Y-42813809D01*
X118852347Y-43004285D01*
X118899966Y-43099523D01*
X118995204Y-43194761D01*
X119138061Y-43242380D01*
X119376157Y-43242380D01*
X118519014Y-42242380D02*
X117947585Y-42242380D01*
X118233300Y-43242380D02*
X118233300Y-42242380D01*
X117042823Y-43242380D02*
X117376157Y-42766190D01*
X117614252Y-43242380D02*
X117614252Y-42242380D01*
X117233300Y-42242380D01*
X117138061Y-42290000D01*
X117090442Y-42337619D01*
X117042823Y-42432857D01*
X117042823Y-42575714D01*
X117090442Y-42670952D01*
X117138061Y-42718571D01*
X117233300Y-42766190D01*
X117614252Y-42766190D01*
X12483557Y-102509980D02*
X12483557Y-101509980D01*
X12245461Y-101509980D01*
X12102604Y-101557600D01*
X12007366Y-101652838D01*
X11959747Y-101748076D01*
X11912128Y-101938552D01*
X11912128Y-102081409D01*
X11959747Y-102271885D01*
X12007366Y-102367123D01*
X12102604Y-102462361D01*
X12245461Y-102509980D01*
X12483557Y-102509980D01*
X11626414Y-101509980D02*
X11054985Y-101509980D01*
X11340700Y-102509980D02*
X11340700Y-101509980D01*
X10150223Y-102509980D02*
X10483557Y-102033790D01*
X10721652Y-102509980D02*
X10721652Y-101509980D01*
X10340700Y-101509980D01*
X10245461Y-101557600D01*
X10197842Y-101605219D01*
X10150223Y-101700457D01*
X10150223Y-101843314D01*
X10197842Y-101938552D01*
X10245461Y-101986171D01*
X10340700Y-102033790D01*
X10721652Y-102033790D01*
X119376157Y-102509980D02*
X119376157Y-101509980D01*
X119138061Y-101509980D01*
X118995204Y-101557600D01*
X118899966Y-101652838D01*
X118852347Y-101748076D01*
X118804728Y-101938552D01*
X118804728Y-102081409D01*
X118852347Y-102271885D01*
X118899966Y-102367123D01*
X118995204Y-102462361D01*
X119138061Y-102509980D01*
X119376157Y-102509980D01*
X118519014Y-101509980D02*
X117947585Y-101509980D01*
X118233300Y-102509980D02*
X118233300Y-101509980D01*
X117042823Y-102509980D02*
X117376157Y-102033790D01*
X117614252Y-102509980D02*
X117614252Y-101509980D01*
X117233300Y-101509980D01*
X117138061Y-101557600D01*
X117090442Y-101605219D01*
X117042823Y-101700457D01*
X117042823Y-101843314D01*
X117090442Y-101938552D01*
X117138061Y-101986171D01*
X117233300Y-102033790D01*
X117614252Y-102033790D01*
X11912128Y-38292380D02*
X12245462Y-37816190D01*
X12483557Y-38292380D02*
X12483557Y-37292380D01*
X12102604Y-37292380D01*
X12007366Y-37340000D01*
X11959747Y-37387619D01*
X11912128Y-37482857D01*
X11912128Y-37625714D01*
X11959747Y-37720952D01*
X12007366Y-37768571D01*
X12102604Y-37816190D01*
X12483557Y-37816190D01*
X11578795Y-37292380D02*
X10912128Y-38292380D01*
X10912128Y-37292380D02*
X11578795Y-38292380D01*
X118804728Y-38292380D02*
X119138062Y-37816190D01*
X119376157Y-38292380D02*
X119376157Y-37292380D01*
X118995204Y-37292380D01*
X118899966Y-37340000D01*
X118852347Y-37387619D01*
X118804728Y-37482857D01*
X118804728Y-37625714D01*
X118852347Y-37720952D01*
X118899966Y-37768571D01*
X118995204Y-37816190D01*
X119376157Y-37816190D01*
X118471395Y-37292380D02*
X117804728Y-38292380D01*
X117804728Y-37292380D02*
X118471395Y-38292380D01*
X11912128Y-97559980D02*
X12245462Y-97083790D01*
X12483557Y-97559980D02*
X12483557Y-96559980D01*
X12102604Y-96559980D01*
X12007366Y-96607600D01*
X11959747Y-96655219D01*
X11912128Y-96750457D01*
X11912128Y-96893314D01*
X11959747Y-96988552D01*
X12007366Y-97036171D01*
X12102604Y-97083790D01*
X12483557Y-97083790D01*
X11578795Y-96559980D02*
X10912128Y-97559980D01*
X10912128Y-96559980D02*
X11578795Y-97559980D01*
X118804728Y-97559980D02*
X119138062Y-97083790D01*
X119376157Y-97559980D02*
X119376157Y-96559980D01*
X118995204Y-96559980D01*
X118899966Y-96607600D01*
X118852347Y-96655219D01*
X118804728Y-96750457D01*
X118804728Y-96893314D01*
X118852347Y-96988552D01*
X118899966Y-97036171D01*
X118995204Y-97083790D01*
X119376157Y-97083790D01*
X118471395Y-96559980D02*
X117804728Y-97559980D01*
X117804728Y-96559980D02*
X118471395Y-97559980D01*
X11912129Y-33192380D02*
X12245462Y-32716190D01*
X12483557Y-33192380D02*
X12483557Y-32192380D01*
X12102605Y-32192380D01*
X12007367Y-32240000D01*
X11959748Y-32287619D01*
X11912129Y-32382857D01*
X11912129Y-32525714D01*
X11959748Y-32620952D01*
X12007367Y-32668571D01*
X12102605Y-32716190D01*
X12483557Y-32716190D01*
X11626414Y-32192380D02*
X11054986Y-32192380D01*
X11340700Y-33192380D02*
X11340700Y-32192380D01*
X10769271Y-33144761D02*
X10626414Y-33192380D01*
X10388319Y-33192380D01*
X10293081Y-33144761D01*
X10245462Y-33097142D01*
X10197843Y-33001904D01*
X10197843Y-32906666D01*
X10245462Y-32811428D01*
X10293081Y-32763809D01*
X10388319Y-32716190D01*
X10578795Y-32668571D01*
X10674033Y-32620952D01*
X10721652Y-32573333D01*
X10769271Y-32478095D01*
X10769271Y-32382857D01*
X10721652Y-32287619D01*
X10674033Y-32240000D01*
X10578795Y-32192380D01*
X10340700Y-32192380D01*
X10197843Y-32240000D01*
X118804729Y-33192380D02*
X119138062Y-32716190D01*
X119376157Y-33192380D02*
X119376157Y-32192380D01*
X118995205Y-32192380D01*
X118899967Y-32240000D01*
X118852348Y-32287619D01*
X118804729Y-32382857D01*
X118804729Y-32525714D01*
X118852348Y-32620952D01*
X118899967Y-32668571D01*
X118995205Y-32716190D01*
X119376157Y-32716190D01*
X118519014Y-32192380D02*
X117947586Y-32192380D01*
X118233300Y-33192380D02*
X118233300Y-32192380D01*
X117661871Y-33144761D02*
X117519014Y-33192380D01*
X117280919Y-33192380D01*
X117185681Y-33144761D01*
X117138062Y-33097142D01*
X117090443Y-33001904D01*
X117090443Y-32906666D01*
X117138062Y-32811428D01*
X117185681Y-32763809D01*
X117280919Y-32716190D01*
X117471395Y-32668571D01*
X117566633Y-32620952D01*
X117614252Y-32573333D01*
X117661871Y-32478095D01*
X117661871Y-32382857D01*
X117614252Y-32287619D01*
X117566633Y-32240000D01*
X117471395Y-32192380D01*
X117233300Y-32192380D01*
X117090443Y-32240000D01*
X11912129Y-92459980D02*
X12245462Y-91983790D01*
X12483557Y-92459980D02*
X12483557Y-91459980D01*
X12102605Y-91459980D01*
X12007367Y-91507600D01*
X11959748Y-91555219D01*
X11912129Y-91650457D01*
X11912129Y-91793314D01*
X11959748Y-91888552D01*
X12007367Y-91936171D01*
X12102605Y-91983790D01*
X12483557Y-91983790D01*
X11626414Y-91459980D02*
X11054986Y-91459980D01*
X11340700Y-92459980D02*
X11340700Y-91459980D01*
X10769271Y-92412361D02*
X10626414Y-92459980D01*
X10388319Y-92459980D01*
X10293081Y-92412361D01*
X10245462Y-92364742D01*
X10197843Y-92269504D01*
X10197843Y-92174266D01*
X10245462Y-92079028D01*
X10293081Y-92031409D01*
X10388319Y-91983790D01*
X10578795Y-91936171D01*
X10674033Y-91888552D01*
X10721652Y-91840933D01*
X10769271Y-91745695D01*
X10769271Y-91650457D01*
X10721652Y-91555219D01*
X10674033Y-91507600D01*
X10578795Y-91459980D01*
X10340700Y-91459980D01*
X10197843Y-91507600D01*
X118804729Y-92459980D02*
X119138062Y-91983790D01*
X119376157Y-92459980D02*
X119376157Y-91459980D01*
X118995205Y-91459980D01*
X118899967Y-91507600D01*
X118852348Y-91555219D01*
X118804729Y-91650457D01*
X118804729Y-91793314D01*
X118852348Y-91888552D01*
X118899967Y-91936171D01*
X118995205Y-91983790D01*
X119376157Y-91983790D01*
X118519014Y-91459980D02*
X117947586Y-91459980D01*
X118233300Y-92459980D02*
X118233300Y-91459980D01*
X117661871Y-92412361D02*
X117519014Y-92459980D01*
X117280919Y-92459980D01*
X117185681Y-92412361D01*
X117138062Y-92364742D01*
X117090443Y-92269504D01*
X117090443Y-92174266D01*
X117138062Y-92079028D01*
X117185681Y-92031409D01*
X117280919Y-91983790D01*
X117471395Y-91936171D01*
X117566633Y-91888552D01*
X117614252Y-91840933D01*
X117661871Y-91745695D01*
X117661871Y-91650457D01*
X117614252Y-91555219D01*
X117566633Y-91507600D01*
X117471395Y-91459980D01*
X117233300Y-91459980D01*
X117090443Y-91507600D01*
X11959747Y-29670000D02*
X12054985Y-29622380D01*
X12197843Y-29622380D01*
X12340700Y-29670000D01*
X12435938Y-29765238D01*
X12483557Y-29860476D01*
X12531176Y-30050952D01*
X12531176Y-30193809D01*
X12483557Y-30384285D01*
X12435938Y-30479523D01*
X12340700Y-30574761D01*
X12197843Y-30622380D01*
X12102604Y-30622380D01*
X11959747Y-30574761D01*
X11912128Y-30527142D01*
X11912128Y-30193809D01*
X12102604Y-30193809D01*
X11483557Y-30622380D02*
X11483557Y-29622380D01*
X10912128Y-30622380D01*
X10912128Y-29622380D01*
X10435938Y-30622380D02*
X10435938Y-29622380D01*
X10197843Y-29622380D01*
X10054985Y-29670000D01*
X9959747Y-29765238D01*
X9912128Y-29860476D01*
X9864509Y-30050952D01*
X9864509Y-30193809D01*
X9912128Y-30384285D01*
X9959747Y-30479523D01*
X10054985Y-30574761D01*
X10197843Y-30622380D01*
X10435938Y-30622380D01*
X118852347Y-29670000D02*
X118947585Y-29622380D01*
X119090443Y-29622380D01*
X119233300Y-29670000D01*
X119328538Y-29765238D01*
X119376157Y-29860476D01*
X119423776Y-30050952D01*
X119423776Y-30193809D01*
X119376157Y-30384285D01*
X119328538Y-30479523D01*
X119233300Y-30574761D01*
X119090443Y-30622380D01*
X118995204Y-30622380D01*
X118852347Y-30574761D01*
X118804728Y-30527142D01*
X118804728Y-30193809D01*
X118995204Y-30193809D01*
X118376157Y-30622380D02*
X118376157Y-29622380D01*
X117804728Y-30622380D01*
X117804728Y-29622380D01*
X117328538Y-30622380D02*
X117328538Y-29622380D01*
X117090443Y-29622380D01*
X116947585Y-29670000D01*
X116852347Y-29765238D01*
X116804728Y-29860476D01*
X116757109Y-30050952D01*
X116757109Y-30193809D01*
X116804728Y-30384285D01*
X116852347Y-30479523D01*
X116947585Y-30574761D01*
X117090443Y-30622380D01*
X117328538Y-30622380D01*
X11959747Y-88937600D02*
X12054985Y-88889980D01*
X12197843Y-88889980D01*
X12340700Y-88937600D01*
X12435938Y-89032838D01*
X12483557Y-89128076D01*
X12531176Y-89318552D01*
X12531176Y-89461409D01*
X12483557Y-89651885D01*
X12435938Y-89747123D01*
X12340700Y-89842361D01*
X12197843Y-89889980D01*
X12102604Y-89889980D01*
X11959747Y-89842361D01*
X11912128Y-89794742D01*
X11912128Y-89461409D01*
X12102604Y-89461409D01*
X11483557Y-89889980D02*
X11483557Y-88889980D01*
X10912128Y-89889980D01*
X10912128Y-88889980D01*
X10435938Y-89889980D02*
X10435938Y-88889980D01*
X10197843Y-88889980D01*
X10054985Y-88937600D01*
X9959747Y-89032838D01*
X9912128Y-89128076D01*
X9864509Y-89318552D01*
X9864509Y-89461409D01*
X9912128Y-89651885D01*
X9959747Y-89747123D01*
X10054985Y-89842361D01*
X10197843Y-89889980D01*
X10435938Y-89889980D01*
X118852347Y-88937600D02*
X118947585Y-88889980D01*
X119090443Y-88889980D01*
X119233300Y-88937600D01*
X119328538Y-89032838D01*
X119376157Y-89128076D01*
X119423776Y-89318552D01*
X119423776Y-89461409D01*
X119376157Y-89651885D01*
X119328538Y-89747123D01*
X119233300Y-89842361D01*
X119090443Y-89889980D01*
X118995204Y-89889980D01*
X118852347Y-89842361D01*
X118804728Y-89794742D01*
X118804728Y-89461409D01*
X118995204Y-89461409D01*
X118376157Y-89889980D02*
X118376157Y-88889980D01*
X117804728Y-89889980D01*
X117804728Y-88889980D01*
X117328538Y-89889980D02*
X117328538Y-88889980D01*
X117090443Y-88889980D01*
X116947585Y-88937600D01*
X116852347Y-89032838D01*
X116804728Y-89128076D01*
X116757109Y-89318552D01*
X116757109Y-89461409D01*
X116804728Y-89651885D01*
X116852347Y-89747123D01*
X116947585Y-89842361D01*
X117090443Y-89889980D01*
X117328538Y-89889980D01*
X109528795Y-32162380D02*
X108909747Y-32162380D01*
X109243080Y-32543333D01*
X109100223Y-32543333D01*
X109004985Y-32590952D01*
X108957366Y-32638571D01*
X108909747Y-32733809D01*
X108909747Y-32971904D01*
X108957366Y-33067142D01*
X109004985Y-33114761D01*
X109100223Y-33162380D01*
X109385938Y-33162380D01*
X109481176Y-33114761D01*
X109528795Y-33067142D01*
X108624033Y-32162380D02*
X108290700Y-33162380D01*
X107957366Y-32162380D01*
X107719271Y-32162380D02*
X107100223Y-32162380D01*
X107433557Y-32543333D01*
X107290700Y-32543333D01*
X107195461Y-32590952D01*
X107147842Y-32638571D01*
X107100223Y-32733809D01*
X107100223Y-32971904D01*
X107147842Y-33067142D01*
X107195461Y-33114761D01*
X107290700Y-33162380D01*
X107576414Y-33162380D01*
X107671652Y-33114761D01*
X107719271Y-33067142D01*
X216421395Y-32162380D02*
X215802347Y-32162380D01*
X216135680Y-32543333D01*
X215992823Y-32543333D01*
X215897585Y-32590952D01*
X215849966Y-32638571D01*
X215802347Y-32733809D01*
X215802347Y-32971904D01*
X215849966Y-33067142D01*
X215897585Y-33114761D01*
X215992823Y-33162380D01*
X216278538Y-33162380D01*
X216373776Y-33114761D01*
X216421395Y-33067142D01*
X215516633Y-32162380D02*
X215183300Y-33162380D01*
X214849966Y-32162380D01*
X214611871Y-32162380D02*
X213992823Y-32162380D01*
X214326157Y-32543333D01*
X214183300Y-32543333D01*
X214088061Y-32590952D01*
X214040442Y-32638571D01*
X213992823Y-32733809D01*
X213992823Y-32971904D01*
X214040442Y-33067142D01*
X214088061Y-33114761D01*
X214183300Y-33162380D01*
X214469014Y-33162380D01*
X214564252Y-33114761D01*
X214611871Y-33067142D01*
X109528795Y-91429980D02*
X108909747Y-91429980D01*
X109243080Y-91810933D01*
X109100223Y-91810933D01*
X109004985Y-91858552D01*
X108957366Y-91906171D01*
X108909747Y-92001409D01*
X108909747Y-92239504D01*
X108957366Y-92334742D01*
X109004985Y-92382361D01*
X109100223Y-92429980D01*
X109385938Y-92429980D01*
X109481176Y-92382361D01*
X109528795Y-92334742D01*
X108624033Y-91429980D02*
X108290700Y-92429980D01*
X107957366Y-91429980D01*
X107719271Y-91429980D02*
X107100223Y-91429980D01*
X107433557Y-91810933D01*
X107290700Y-91810933D01*
X107195461Y-91858552D01*
X107147842Y-91906171D01*
X107100223Y-92001409D01*
X107100223Y-92239504D01*
X107147842Y-92334742D01*
X107195461Y-92382361D01*
X107290700Y-92429980D01*
X107576414Y-92429980D01*
X107671652Y-92382361D01*
X107719271Y-92334742D01*
X216421395Y-91429980D02*
X215802347Y-91429980D01*
X216135680Y-91810933D01*
X215992823Y-91810933D01*
X215897585Y-91858552D01*
X215849966Y-91906171D01*
X215802347Y-92001409D01*
X215802347Y-92239504D01*
X215849966Y-92334742D01*
X215897585Y-92382361D01*
X215992823Y-92429980D01*
X216278538Y-92429980D01*
X216373776Y-92382361D01*
X216421395Y-92334742D01*
X215516633Y-91429980D02*
X215183300Y-92429980D01*
X214849966Y-91429980D01*
X214611871Y-91429980D02*
X213992823Y-91429980D01*
X214326157Y-91810933D01*
X214183300Y-91810933D01*
X214088061Y-91858552D01*
X214040442Y-91906171D01*
X213992823Y-92001409D01*
X213992823Y-92239504D01*
X214040442Y-92334742D01*
X214088061Y-92382361D01*
X214183300Y-92429980D01*
X214469014Y-92429980D01*
X214564252Y-92382361D01*
X214611871Y-92334742D01*
X108909747Y-39840000D02*
X109004985Y-39792380D01*
X109147843Y-39792380D01*
X109290700Y-39840000D01*
X109385938Y-39935238D01*
X109433557Y-40030476D01*
X109481176Y-40220952D01*
X109481176Y-40363809D01*
X109433557Y-40554285D01*
X109385938Y-40649523D01*
X109290700Y-40744761D01*
X109147843Y-40792380D01*
X109052604Y-40792380D01*
X108909747Y-40744761D01*
X108862128Y-40697142D01*
X108862128Y-40363809D01*
X109052604Y-40363809D01*
X108433557Y-40792380D02*
X108433557Y-39792380D01*
X107862128Y-40792380D01*
X107862128Y-39792380D01*
X107385938Y-40792380D02*
X107385938Y-39792380D01*
X107147843Y-39792380D01*
X107004985Y-39840000D01*
X106909747Y-39935238D01*
X106862128Y-40030476D01*
X106814509Y-40220952D01*
X106814509Y-40363809D01*
X106862128Y-40554285D01*
X106909747Y-40649523D01*
X107004985Y-40744761D01*
X107147843Y-40792380D01*
X107385938Y-40792380D01*
X215802347Y-39840000D02*
X215897585Y-39792380D01*
X216040443Y-39792380D01*
X216183300Y-39840000D01*
X216278538Y-39935238D01*
X216326157Y-40030476D01*
X216373776Y-40220952D01*
X216373776Y-40363809D01*
X216326157Y-40554285D01*
X216278538Y-40649523D01*
X216183300Y-40744761D01*
X216040443Y-40792380D01*
X215945204Y-40792380D01*
X215802347Y-40744761D01*
X215754728Y-40697142D01*
X215754728Y-40363809D01*
X215945204Y-40363809D01*
X215326157Y-40792380D02*
X215326157Y-39792380D01*
X214754728Y-40792380D01*
X214754728Y-39792380D01*
X214278538Y-40792380D02*
X214278538Y-39792380D01*
X214040443Y-39792380D01*
X213897585Y-39840000D01*
X213802347Y-39935238D01*
X213754728Y-40030476D01*
X213707109Y-40220952D01*
X213707109Y-40363809D01*
X213754728Y-40554285D01*
X213802347Y-40649523D01*
X213897585Y-40744761D01*
X214040443Y-40792380D01*
X214278538Y-40792380D01*
X108909747Y-99107600D02*
X109004985Y-99059980D01*
X109147843Y-99059980D01*
X109290700Y-99107600D01*
X109385938Y-99202838D01*
X109433557Y-99298076D01*
X109481176Y-99488552D01*
X109481176Y-99631409D01*
X109433557Y-99821885D01*
X109385938Y-99917123D01*
X109290700Y-100012361D01*
X109147843Y-100059980D01*
X109052604Y-100059980D01*
X108909747Y-100012361D01*
X108862128Y-99964742D01*
X108862128Y-99631409D01*
X109052604Y-99631409D01*
X108433557Y-100059980D02*
X108433557Y-99059980D01*
X107862128Y-100059980D01*
X107862128Y-99059980D01*
X107385938Y-100059980D02*
X107385938Y-99059980D01*
X107147843Y-99059980D01*
X107004985Y-99107600D01*
X106909747Y-99202838D01*
X106862128Y-99298076D01*
X106814509Y-99488552D01*
X106814509Y-99631409D01*
X106862128Y-99821885D01*
X106909747Y-99917123D01*
X107004985Y-100012361D01*
X107147843Y-100059980D01*
X107385938Y-100059980D01*
X215802347Y-99107600D02*
X215897585Y-99059980D01*
X216040443Y-99059980D01*
X216183300Y-99107600D01*
X216278538Y-99202838D01*
X216326157Y-99298076D01*
X216373776Y-99488552D01*
X216373776Y-99631409D01*
X216326157Y-99821885D01*
X216278538Y-99917123D01*
X216183300Y-100012361D01*
X216040443Y-100059980D01*
X215945204Y-100059980D01*
X215802347Y-100012361D01*
X215754728Y-99964742D01*
X215754728Y-99631409D01*
X215945204Y-99631409D01*
X215326157Y-100059980D02*
X215326157Y-99059980D01*
X214754728Y-100059980D01*
X214754728Y-99059980D01*
X214278538Y-100059980D02*
X214278538Y-99059980D01*
X214040443Y-99059980D01*
X213897585Y-99107600D01*
X213802347Y-99202838D01*
X213754728Y-99298076D01*
X213707109Y-99488552D01*
X213707109Y-99631409D01*
X213754728Y-99821885D01*
X213802347Y-99917123D01*
X213897585Y-100012361D01*
X214040443Y-100059980D01*
X214278538Y-100059980D01*
D11*
X97448795Y-63216190D02*
X97448795Y-63692380D01*
X97782128Y-62692380D02*
X97448795Y-63216190D01*
X97115461Y-62692380D01*
X96782128Y-63692380D02*
X96782128Y-62692380D01*
X96544033Y-62692380D01*
X96401176Y-62740000D01*
X96305938Y-62835238D01*
X96258319Y-62930476D01*
X96210700Y-63120952D01*
X96210700Y-63263809D01*
X96258319Y-63454285D01*
X96305938Y-63549523D01*
X96401176Y-63644761D01*
X96544033Y-63692380D01*
X96782128Y-63692380D01*
X95782128Y-63692380D02*
X95782128Y-63025714D01*
X95782128Y-63216190D02*
X95734509Y-63120952D01*
X95686890Y-63073333D01*
X95591652Y-63025714D01*
X95496414Y-63025714D01*
X95163080Y-63692380D02*
X95163080Y-63025714D01*
X95163080Y-62692380D02*
X95210700Y-62740000D01*
X95163080Y-62787619D01*
X95115461Y-62740000D01*
X95163080Y-62692380D01*
X95163080Y-62787619D01*
X94686890Y-63025714D02*
X94686890Y-64025714D01*
X94686890Y-63073333D02*
X94591652Y-63025714D01*
X94401176Y-63025714D01*
X94305938Y-63073333D01*
X94258319Y-63120952D01*
X94210700Y-63216190D01*
X94210700Y-63501904D01*
X94258319Y-63597142D01*
X94305938Y-63644761D01*
X94401176Y-63692380D01*
X94591652Y-63692380D01*
X94686890Y-63644761D01*
X93782128Y-63597142D02*
X93734509Y-63644761D01*
X93782128Y-63692380D01*
X93829747Y-63644761D01*
X93782128Y-63597142D01*
X93782128Y-63692380D01*
X93782128Y-63073333D02*
X93734509Y-63120952D01*
X93782128Y-63168571D01*
X93829747Y-63120952D01*
X93782128Y-63073333D01*
X93782128Y-63168571D01*
X92686890Y-62692380D02*
X92353557Y-63692380D01*
X92020223Y-62692380D01*
X91496414Y-62692380D02*
X91401176Y-62692380D01*
X91305938Y-62740000D01*
X91258319Y-62787619D01*
X91210700Y-62882857D01*
X91163080Y-63073333D01*
X91163080Y-63311428D01*
X91210700Y-63501904D01*
X91258319Y-63597142D01*
X91305938Y-63644761D01*
X91401176Y-63692380D01*
X91496414Y-63692380D01*
X91591652Y-63644761D01*
X91639271Y-63597142D01*
X91686890Y-63501904D01*
X91734509Y-63311428D01*
X91734509Y-63073333D01*
X91686890Y-62882857D01*
X91639271Y-62787619D01*
X91591652Y-62740000D01*
X91496414Y-62692380D01*
X90734509Y-63597142D02*
X90686890Y-63644761D01*
X90734509Y-63692380D01*
X90782128Y-63644761D01*
X90734509Y-63597142D01*
X90734509Y-63692380D01*
X89829747Y-63025714D02*
X89829747Y-63692380D01*
X90067842Y-62644761D02*
X90305938Y-63359047D01*
X89686890Y-63359047D01*
X204341395Y-63216190D02*
X204341395Y-63692380D01*
X204674728Y-62692380D02*
X204341395Y-63216190D01*
X204008061Y-62692380D01*
X203674728Y-63692380D02*
X203674728Y-62692380D01*
X203436633Y-62692380D01*
X203293776Y-62740000D01*
X203198538Y-62835238D01*
X203150919Y-62930476D01*
X203103300Y-63120952D01*
X203103300Y-63263809D01*
X203150919Y-63454285D01*
X203198538Y-63549523D01*
X203293776Y-63644761D01*
X203436633Y-63692380D01*
X203674728Y-63692380D01*
X202674728Y-63692380D02*
X202674728Y-63025714D01*
X202674728Y-63216190D02*
X202627109Y-63120952D01*
X202579490Y-63073333D01*
X202484252Y-63025714D01*
X202389014Y-63025714D01*
X202055680Y-63692380D02*
X202055680Y-63025714D01*
X202055680Y-62692380D02*
X202103300Y-62740000D01*
X202055680Y-62787619D01*
X202008061Y-62740000D01*
X202055680Y-62692380D01*
X202055680Y-62787619D01*
X201579490Y-63025714D02*
X201579490Y-64025714D01*
X201579490Y-63073333D02*
X201484252Y-63025714D01*
X201293776Y-63025714D01*
X201198538Y-63073333D01*
X201150919Y-63120952D01*
X201103300Y-63216190D01*
X201103300Y-63501904D01*
X201150919Y-63597142D01*
X201198538Y-63644761D01*
X201293776Y-63692380D01*
X201484252Y-63692380D01*
X201579490Y-63644761D01*
X200674728Y-63597142D02*
X200627109Y-63644761D01*
X200674728Y-63692380D01*
X200722347Y-63644761D01*
X200674728Y-63597142D01*
X200674728Y-63692380D01*
X200674728Y-63073333D02*
X200627109Y-63120952D01*
X200674728Y-63168571D01*
X200722347Y-63120952D01*
X200674728Y-63073333D01*
X200674728Y-63168571D01*
X199579490Y-62692380D02*
X199246157Y-63692380D01*
X198912823Y-62692380D01*
X198389014Y-62692380D02*
X198293776Y-62692380D01*
X198198538Y-62740000D01*
X198150919Y-62787619D01*
X198103300Y-62882857D01*
X198055680Y-63073333D01*
X198055680Y-63311428D01*
X198103300Y-63501904D01*
X198150919Y-63597142D01*
X198198538Y-63644761D01*
X198293776Y-63692380D01*
X198389014Y-63692380D01*
X198484252Y-63644761D01*
X198531871Y-63597142D01*
X198579490Y-63501904D01*
X198627109Y-63311428D01*
X198627109Y-63073333D01*
X198579490Y-62882857D01*
X198531871Y-62787619D01*
X198484252Y-62740000D01*
X198389014Y-62692380D01*
X197627109Y-63597142D02*
X197579490Y-63644761D01*
X197627109Y-63692380D01*
X197674728Y-63644761D01*
X197627109Y-63597142D01*
X197627109Y-63692380D01*
X196722347Y-63025714D02*
X196722347Y-63692380D01*
X196960442Y-62644761D02*
X197198538Y-63359047D01*
X196579490Y-63359047D01*
X97448795Y-122483790D02*
X97448795Y-122959980D01*
X97782128Y-121959980D02*
X97448795Y-122483790D01*
X97115461Y-121959980D01*
X96782128Y-122959980D02*
X96782128Y-121959980D01*
X96544033Y-121959980D01*
X96401176Y-122007600D01*
X96305938Y-122102838D01*
X96258319Y-122198076D01*
X96210700Y-122388552D01*
X96210700Y-122531409D01*
X96258319Y-122721885D01*
X96305938Y-122817123D01*
X96401176Y-122912361D01*
X96544033Y-122959980D01*
X96782128Y-122959980D01*
X95782128Y-122959980D02*
X95782128Y-122293314D01*
X95782128Y-122483790D02*
X95734509Y-122388552D01*
X95686890Y-122340933D01*
X95591652Y-122293314D01*
X95496414Y-122293314D01*
X95163080Y-122959980D02*
X95163080Y-122293314D01*
X95163080Y-121959980D02*
X95210700Y-122007600D01*
X95163080Y-122055219D01*
X95115461Y-122007600D01*
X95163080Y-121959980D01*
X95163080Y-122055219D01*
X94686890Y-122293314D02*
X94686890Y-123293314D01*
X94686890Y-122340933D02*
X94591652Y-122293314D01*
X94401176Y-122293314D01*
X94305938Y-122340933D01*
X94258319Y-122388552D01*
X94210700Y-122483790D01*
X94210700Y-122769504D01*
X94258319Y-122864742D01*
X94305938Y-122912361D01*
X94401176Y-122959980D01*
X94591652Y-122959980D01*
X94686890Y-122912361D01*
X93782128Y-122864742D02*
X93734509Y-122912361D01*
X93782128Y-122959980D01*
X93829747Y-122912361D01*
X93782128Y-122864742D01*
X93782128Y-122959980D01*
X93782128Y-122340933D02*
X93734509Y-122388552D01*
X93782128Y-122436171D01*
X93829747Y-122388552D01*
X93782128Y-122340933D01*
X93782128Y-122436171D01*
X92686890Y-121959980D02*
X92353557Y-122959980D01*
X92020223Y-121959980D01*
X91496414Y-121959980D02*
X91401176Y-121959980D01*
X91305938Y-122007600D01*
X91258319Y-122055219D01*
X91210700Y-122150457D01*
X91163080Y-122340933D01*
X91163080Y-122579028D01*
X91210700Y-122769504D01*
X91258319Y-122864742D01*
X91305938Y-122912361D01*
X91401176Y-122959980D01*
X91496414Y-122959980D01*
X91591652Y-122912361D01*
X91639271Y-122864742D01*
X91686890Y-122769504D01*
X91734509Y-122579028D01*
X91734509Y-122340933D01*
X91686890Y-122150457D01*
X91639271Y-122055219D01*
X91591652Y-122007600D01*
X91496414Y-121959980D01*
X90734509Y-122864742D02*
X90686890Y-122912361D01*
X90734509Y-122959980D01*
X90782128Y-122912361D01*
X90734509Y-122864742D01*
X90734509Y-122959980D01*
X89829747Y-122293314D02*
X89829747Y-122959980D01*
X90067842Y-121912361D02*
X90305938Y-122626647D01*
X89686890Y-122626647D01*
X204341395Y-122483790D02*
X204341395Y-122959980D01*
X204674728Y-121959980D02*
X204341395Y-122483790D01*
X204008061Y-121959980D01*
X203674728Y-122959980D02*
X203674728Y-121959980D01*
X203436633Y-121959980D01*
X203293776Y-122007600D01*
X203198538Y-122102838D01*
X203150919Y-122198076D01*
X203103300Y-122388552D01*
X203103300Y-122531409D01*
X203150919Y-122721885D01*
X203198538Y-122817123D01*
X203293776Y-122912361D01*
X203436633Y-122959980D01*
X203674728Y-122959980D01*
X202674728Y-122959980D02*
X202674728Y-122293314D01*
X202674728Y-122483790D02*
X202627109Y-122388552D01*
X202579490Y-122340933D01*
X202484252Y-122293314D01*
X202389014Y-122293314D01*
X202055680Y-122959980D02*
X202055680Y-122293314D01*
X202055680Y-121959980D02*
X202103300Y-122007600D01*
X202055680Y-122055219D01*
X202008061Y-122007600D01*
X202055680Y-121959980D01*
X202055680Y-122055219D01*
X201579490Y-122293314D02*
X201579490Y-123293314D01*
X201579490Y-122340933D02*
X201484252Y-122293314D01*
X201293776Y-122293314D01*
X201198538Y-122340933D01*
X201150919Y-122388552D01*
X201103300Y-122483790D01*
X201103300Y-122769504D01*
X201150919Y-122864742D01*
X201198538Y-122912361D01*
X201293776Y-122959980D01*
X201484252Y-122959980D01*
X201579490Y-122912361D01*
X200674728Y-122864742D02*
X200627109Y-122912361D01*
X200674728Y-122959980D01*
X200722347Y-122912361D01*
X200674728Y-122864742D01*
X200674728Y-122959980D01*
X200674728Y-122340933D02*
X200627109Y-122388552D01*
X200674728Y-122436171D01*
X200722347Y-122388552D01*
X200674728Y-122340933D01*
X200674728Y-122436171D01*
X199579490Y-121959980D02*
X199246157Y-122959980D01*
X198912823Y-121959980D01*
X198389014Y-121959980D02*
X198293776Y-121959980D01*
X198198538Y-122007600D01*
X198150919Y-122055219D01*
X198103300Y-122150457D01*
X198055680Y-122340933D01*
X198055680Y-122579028D01*
X198103300Y-122769504D01*
X198150919Y-122864742D01*
X198198538Y-122912361D01*
X198293776Y-122959980D01*
X198389014Y-122959980D01*
X198484252Y-122912361D01*
X198531871Y-122864742D01*
X198579490Y-122769504D01*
X198627109Y-122579028D01*
X198627109Y-122340933D01*
X198579490Y-122150457D01*
X198531871Y-122055219D01*
X198484252Y-122007600D01*
X198389014Y-121959980D01*
X197627109Y-122864742D02*
X197579490Y-122912361D01*
X197627109Y-122959980D01*
X197674728Y-122912361D01*
X197627109Y-122864742D01*
X197627109Y-122959980D01*
X196722347Y-122293314D02*
X196722347Y-122959980D01*
X196960442Y-121912361D02*
X197198538Y-122626647D01*
X196579490Y-122626647D01*
D10*
X109481176Y-35554761D02*
X109338319Y-35602380D01*
X109100223Y-35602380D01*
X109004985Y-35554761D01*
X108957366Y-35507142D01*
X108909747Y-35411904D01*
X108909747Y-35316666D01*
X108957366Y-35221428D01*
X109004985Y-35173809D01*
X109100223Y-35126190D01*
X109290700Y-35078571D01*
X109385938Y-35030952D01*
X109433557Y-34983333D01*
X109481176Y-34888095D01*
X109481176Y-34792857D01*
X109433557Y-34697619D01*
X109385938Y-34650000D01*
X109290700Y-34602380D01*
X109052604Y-34602380D01*
X108909747Y-34650000D01*
X107909747Y-35507142D02*
X107957366Y-35554761D01*
X108100223Y-35602380D01*
X108195461Y-35602380D01*
X108338319Y-35554761D01*
X108433557Y-35459523D01*
X108481176Y-35364285D01*
X108528795Y-35173809D01*
X108528795Y-35030952D01*
X108481176Y-34840476D01*
X108433557Y-34745238D01*
X108338319Y-34650000D01*
X108195461Y-34602380D01*
X108100223Y-34602380D01*
X107957366Y-34650000D01*
X107909747Y-34697619D01*
X107004985Y-35602380D02*
X107481176Y-35602380D01*
X107481176Y-34602380D01*
X216373776Y-35554761D02*
X216230919Y-35602380D01*
X215992823Y-35602380D01*
X215897585Y-35554761D01*
X215849966Y-35507142D01*
X215802347Y-35411904D01*
X215802347Y-35316666D01*
X215849966Y-35221428D01*
X215897585Y-35173809D01*
X215992823Y-35126190D01*
X216183300Y-35078571D01*
X216278538Y-35030952D01*
X216326157Y-34983333D01*
X216373776Y-34888095D01*
X216373776Y-34792857D01*
X216326157Y-34697619D01*
X216278538Y-34650000D01*
X216183300Y-34602380D01*
X215945204Y-34602380D01*
X215802347Y-34650000D01*
X214802347Y-35507142D02*
X214849966Y-35554761D01*
X214992823Y-35602380D01*
X215088061Y-35602380D01*
X215230919Y-35554761D01*
X215326157Y-35459523D01*
X215373776Y-35364285D01*
X215421395Y-35173809D01*
X215421395Y-35030952D01*
X215373776Y-34840476D01*
X215326157Y-34745238D01*
X215230919Y-34650000D01*
X215088061Y-34602380D01*
X214992823Y-34602380D01*
X214849966Y-34650000D01*
X214802347Y-34697619D01*
X213897585Y-35602380D02*
X214373776Y-35602380D01*
X214373776Y-34602380D01*
X109481176Y-94822361D02*
X109338319Y-94869980D01*
X109100223Y-94869980D01*
X109004985Y-94822361D01*
X108957366Y-94774742D01*
X108909747Y-94679504D01*
X108909747Y-94584266D01*
X108957366Y-94489028D01*
X109004985Y-94441409D01*
X109100223Y-94393790D01*
X109290700Y-94346171D01*
X109385938Y-94298552D01*
X109433557Y-94250933D01*
X109481176Y-94155695D01*
X109481176Y-94060457D01*
X109433557Y-93965219D01*
X109385938Y-93917600D01*
X109290700Y-93869980D01*
X109052604Y-93869980D01*
X108909747Y-93917600D01*
X107909747Y-94774742D02*
X107957366Y-94822361D01*
X108100223Y-94869980D01*
X108195461Y-94869980D01*
X108338319Y-94822361D01*
X108433557Y-94727123D01*
X108481176Y-94631885D01*
X108528795Y-94441409D01*
X108528795Y-94298552D01*
X108481176Y-94108076D01*
X108433557Y-94012838D01*
X108338319Y-93917600D01*
X108195461Y-93869980D01*
X108100223Y-93869980D01*
X107957366Y-93917600D01*
X107909747Y-93965219D01*
X107004985Y-94869980D02*
X107481176Y-94869980D01*
X107481176Y-93869980D01*
X216373776Y-94822361D02*
X216230919Y-94869980D01*
X215992823Y-94869980D01*
X215897585Y-94822361D01*
X215849966Y-94774742D01*
X215802347Y-94679504D01*
X215802347Y-94584266D01*
X215849966Y-94489028D01*
X215897585Y-94441409D01*
X215992823Y-94393790D01*
X216183300Y-94346171D01*
X216278538Y-94298552D01*
X216326157Y-94250933D01*
X216373776Y-94155695D01*
X216373776Y-94060457D01*
X216326157Y-93965219D01*
X216278538Y-93917600D01*
X216183300Y-93869980D01*
X215945204Y-93869980D01*
X215802347Y-93917600D01*
X214802347Y-94774742D02*
X214849966Y-94822361D01*
X214992823Y-94869980D01*
X215088061Y-94869980D01*
X215230919Y-94822361D01*
X215326157Y-94727123D01*
X215373776Y-94631885D01*
X215421395Y-94441409D01*
X215421395Y-94298552D01*
X215373776Y-94108076D01*
X215326157Y-94012838D01*
X215230919Y-93917600D01*
X215088061Y-93869980D01*
X214992823Y-93869980D01*
X214849966Y-93917600D01*
X214802347Y-93965219D01*
X213897585Y-94869980D02*
X214373776Y-94869980D01*
X214373776Y-93869980D01*
X109481176Y-38194761D02*
X109338319Y-38242380D01*
X109100224Y-38242380D01*
X109004986Y-38194761D01*
X108957367Y-38147142D01*
X108909748Y-38051904D01*
X108909748Y-37956666D01*
X108957367Y-37861428D01*
X109004986Y-37813809D01*
X109100224Y-37766190D01*
X109290700Y-37718571D01*
X109385938Y-37670952D01*
X109433557Y-37623333D01*
X109481176Y-37528095D01*
X109481176Y-37432857D01*
X109433557Y-37337619D01*
X109385938Y-37290000D01*
X109290700Y-37242380D01*
X109052605Y-37242380D01*
X108909748Y-37290000D01*
X108481176Y-38242380D02*
X108481176Y-37242380D01*
X108243081Y-37242380D01*
X108100224Y-37290000D01*
X108004986Y-37385238D01*
X107957367Y-37480476D01*
X107909748Y-37670952D01*
X107909748Y-37813809D01*
X107957367Y-38004285D01*
X108004986Y-38099523D01*
X108100224Y-38194761D01*
X108243081Y-38242380D01*
X108481176Y-38242380D01*
X107528795Y-37956666D02*
X107052605Y-37956666D01*
X107624033Y-38242380D02*
X107290700Y-37242380D01*
X106957367Y-38242380D01*
X216373776Y-38194761D02*
X216230919Y-38242380D01*
X215992824Y-38242380D01*
X215897586Y-38194761D01*
X215849967Y-38147142D01*
X215802348Y-38051904D01*
X215802348Y-37956666D01*
X215849967Y-37861428D01*
X215897586Y-37813809D01*
X215992824Y-37766190D01*
X216183300Y-37718571D01*
X216278538Y-37670952D01*
X216326157Y-37623333D01*
X216373776Y-37528095D01*
X216373776Y-37432857D01*
X216326157Y-37337619D01*
X216278538Y-37290000D01*
X216183300Y-37242380D01*
X215945205Y-37242380D01*
X215802348Y-37290000D01*
X215373776Y-38242380D02*
X215373776Y-37242380D01*
X215135681Y-37242380D01*
X214992824Y-37290000D01*
X214897586Y-37385238D01*
X214849967Y-37480476D01*
X214802348Y-37670952D01*
X214802348Y-37813809D01*
X214849967Y-38004285D01*
X214897586Y-38099523D01*
X214992824Y-38194761D01*
X215135681Y-38242380D01*
X215373776Y-38242380D01*
X214421395Y-37956666D02*
X213945205Y-37956666D01*
X214516633Y-38242380D02*
X214183300Y-37242380D01*
X213849967Y-38242380D01*
X109481176Y-97462361D02*
X109338319Y-97509980D01*
X109100224Y-97509980D01*
X109004986Y-97462361D01*
X108957367Y-97414742D01*
X108909748Y-97319504D01*
X108909748Y-97224266D01*
X108957367Y-97129028D01*
X109004986Y-97081409D01*
X109100224Y-97033790D01*
X109290700Y-96986171D01*
X109385938Y-96938552D01*
X109433557Y-96890933D01*
X109481176Y-96795695D01*
X109481176Y-96700457D01*
X109433557Y-96605219D01*
X109385938Y-96557600D01*
X109290700Y-96509980D01*
X109052605Y-96509980D01*
X108909748Y-96557600D01*
X108481176Y-97509980D02*
X108481176Y-96509980D01*
X108243081Y-96509980D01*
X108100224Y-96557600D01*
X108004986Y-96652838D01*
X107957367Y-96748076D01*
X107909748Y-96938552D01*
X107909748Y-97081409D01*
X107957367Y-97271885D01*
X108004986Y-97367123D01*
X108100224Y-97462361D01*
X108243081Y-97509980D01*
X108481176Y-97509980D01*
X107528795Y-97224266D02*
X107052605Y-97224266D01*
X107624033Y-97509980D02*
X107290700Y-96509980D01*
X106957367Y-97509980D01*
X216373776Y-97462361D02*
X216230919Y-97509980D01*
X215992824Y-97509980D01*
X215897586Y-97462361D01*
X215849967Y-97414742D01*
X215802348Y-97319504D01*
X215802348Y-97224266D01*
X215849967Y-97129028D01*
X215897586Y-97081409D01*
X215992824Y-97033790D01*
X216183300Y-96986171D01*
X216278538Y-96938552D01*
X216326157Y-96890933D01*
X216373776Y-96795695D01*
X216373776Y-96700457D01*
X216326157Y-96605219D01*
X216278538Y-96557600D01*
X216183300Y-96509980D01*
X215945205Y-96509980D01*
X215802348Y-96557600D01*
X215373776Y-97509980D02*
X215373776Y-96509980D01*
X215135681Y-96509980D01*
X214992824Y-96557600D01*
X214897586Y-96652838D01*
X214849967Y-96748076D01*
X214802348Y-96938552D01*
X214802348Y-97081409D01*
X214849967Y-97271885D01*
X214897586Y-97367123D01*
X214992824Y-97462361D01*
X215135681Y-97509980D01*
X215373776Y-97509980D01*
X214421395Y-97224266D02*
X213945205Y-97224266D01*
X214516633Y-97509980D02*
X214183300Y-96509980D01*
X213849967Y-97509980D01*
D11*
X79429271Y-11412380D02*
X79429271Y-12221904D01*
X79381652Y-12317142D01*
X79334033Y-12364761D01*
X79238795Y-12412380D01*
X79048319Y-12412380D01*
X78953080Y-12364761D01*
X78905461Y-12317142D01*
X78857842Y-12221904D01*
X78857842Y-11412380D01*
X78429271Y-12364761D02*
X78334033Y-12412380D01*
X78143557Y-12412380D01*
X78048319Y-12364761D01*
X78000700Y-12269523D01*
X78000700Y-12221904D01*
X78048319Y-12126666D01*
X78143557Y-12079047D01*
X78286414Y-12079047D01*
X78381652Y-12031428D01*
X78429271Y-11936190D01*
X78429271Y-11888571D01*
X78381652Y-11793333D01*
X78286414Y-11745714D01*
X78143557Y-11745714D01*
X78048319Y-11793333D01*
X77191176Y-12364761D02*
X77286414Y-12412380D01*
X77476890Y-12412380D01*
X77572128Y-12364761D01*
X77619747Y-12269523D01*
X77619747Y-11888571D01*
X77572128Y-11793333D01*
X77476890Y-11745714D01*
X77286414Y-11745714D01*
X77191176Y-11793333D01*
X77143557Y-11888571D01*
X77143557Y-11983809D01*
X77619747Y-12079047D01*
X76714985Y-12412380D02*
X76714985Y-11745714D01*
X76714985Y-11936190D02*
X76667366Y-11840952D01*
X76619747Y-11793333D01*
X76524509Y-11745714D01*
X76429271Y-11745714D01*
X186321871Y-11412380D02*
X186321871Y-12221904D01*
X186274252Y-12317142D01*
X186226633Y-12364761D01*
X186131395Y-12412380D01*
X185940919Y-12412380D01*
X185845680Y-12364761D01*
X185798061Y-12317142D01*
X185750442Y-12221904D01*
X185750442Y-11412380D01*
X185321871Y-12364761D02*
X185226633Y-12412380D01*
X185036157Y-12412380D01*
X184940919Y-12364761D01*
X184893300Y-12269523D01*
X184893300Y-12221904D01*
X184940919Y-12126666D01*
X185036157Y-12079047D01*
X185179014Y-12079047D01*
X185274252Y-12031428D01*
X185321871Y-11936190D01*
X185321871Y-11888571D01*
X185274252Y-11793333D01*
X185179014Y-11745714D01*
X185036157Y-11745714D01*
X184940919Y-11793333D01*
X184083776Y-12364761D02*
X184179014Y-12412380D01*
X184369490Y-12412380D01*
X184464728Y-12364761D01*
X184512347Y-12269523D01*
X184512347Y-11888571D01*
X184464728Y-11793333D01*
X184369490Y-11745714D01*
X184179014Y-11745714D01*
X184083776Y-11793333D01*
X184036157Y-11888571D01*
X184036157Y-11983809D01*
X184512347Y-12079047D01*
X183607585Y-12412380D02*
X183607585Y-11745714D01*
X183607585Y-11936190D02*
X183559966Y-11840952D01*
X183512347Y-11793333D01*
X183417109Y-11745714D01*
X183321871Y-11745714D01*
X79429271Y-70679980D02*
X79429271Y-71489504D01*
X79381652Y-71584742D01*
X79334033Y-71632361D01*
X79238795Y-71679980D01*
X79048319Y-71679980D01*
X78953080Y-71632361D01*
X78905461Y-71584742D01*
X78857842Y-71489504D01*
X78857842Y-70679980D01*
X78429271Y-71632361D02*
X78334033Y-71679980D01*
X78143557Y-71679980D01*
X78048319Y-71632361D01*
X78000700Y-71537123D01*
X78000700Y-71489504D01*
X78048319Y-71394266D01*
X78143557Y-71346647D01*
X78286414Y-71346647D01*
X78381652Y-71299028D01*
X78429271Y-71203790D01*
X78429271Y-71156171D01*
X78381652Y-71060933D01*
X78286414Y-71013314D01*
X78143557Y-71013314D01*
X78048319Y-71060933D01*
X77191176Y-71632361D02*
X77286414Y-71679980D01*
X77476890Y-71679980D01*
X77572128Y-71632361D01*
X77619747Y-71537123D01*
X77619747Y-71156171D01*
X77572128Y-71060933D01*
X77476890Y-71013314D01*
X77286414Y-71013314D01*
X77191176Y-71060933D01*
X77143557Y-71156171D01*
X77143557Y-71251409D01*
X77619747Y-71346647D01*
X76714985Y-71679980D02*
X76714985Y-71013314D01*
X76714985Y-71203790D02*
X76667366Y-71108552D01*
X76619747Y-71060933D01*
X76524509Y-71013314D01*
X76429271Y-71013314D01*
X186321871Y-70679980D02*
X186321871Y-71489504D01*
X186274252Y-71584742D01*
X186226633Y-71632361D01*
X186131395Y-71679980D01*
X185940919Y-71679980D01*
X185845680Y-71632361D01*
X185798061Y-71584742D01*
X185750442Y-71489504D01*
X185750442Y-70679980D01*
X185321871Y-71632361D02*
X185226633Y-71679980D01*
X185036157Y-71679980D01*
X184940919Y-71632361D01*
X184893300Y-71537123D01*
X184893300Y-71489504D01*
X184940919Y-71394266D01*
X185036157Y-71346647D01*
X185179014Y-71346647D01*
X185274252Y-71299028D01*
X185321871Y-71203790D01*
X185321871Y-71156171D01*
X185274252Y-71060933D01*
X185179014Y-71013314D01*
X185036157Y-71013314D01*
X184940919Y-71060933D01*
X184083776Y-71632361D02*
X184179014Y-71679980D01*
X184369490Y-71679980D01*
X184464728Y-71632361D01*
X184512347Y-71537123D01*
X184512347Y-71156171D01*
X184464728Y-71060933D01*
X184369490Y-71013314D01*
X184179014Y-71013314D01*
X184083776Y-71060933D01*
X184036157Y-71156171D01*
X184036157Y-71251409D01*
X184512347Y-71346647D01*
X183607585Y-71679980D02*
X183607585Y-71013314D01*
X183607585Y-71203790D02*
X183559966Y-71108552D01*
X183512347Y-71060933D01*
X183417109Y-71013314D01*
X183321871Y-71013314D01*
X44558795Y-12372380D02*
X44892128Y-11896190D01*
X45130223Y-12372380D02*
X45130223Y-11372380D01*
X44749271Y-11372380D01*
X44654033Y-11420000D01*
X44606414Y-11467619D01*
X44558795Y-11562857D01*
X44558795Y-11705714D01*
X44606414Y-11800952D01*
X44654033Y-11848571D01*
X44749271Y-11896190D01*
X45130223Y-11896190D01*
X43749271Y-12324761D02*
X43844509Y-12372380D01*
X44034985Y-12372380D01*
X44130223Y-12324761D01*
X44177842Y-12229523D01*
X44177842Y-11848571D01*
X44130223Y-11753333D01*
X44034985Y-11705714D01*
X43844509Y-11705714D01*
X43749271Y-11753333D01*
X43701652Y-11848571D01*
X43701652Y-11943809D01*
X44177842Y-12039047D01*
X43320700Y-12324761D02*
X43225461Y-12372380D01*
X43034985Y-12372380D01*
X42939747Y-12324761D01*
X42892128Y-12229523D01*
X42892128Y-12181904D01*
X42939747Y-12086666D01*
X43034985Y-12039047D01*
X43177842Y-12039047D01*
X43273080Y-11991428D01*
X43320700Y-11896190D01*
X43320700Y-11848571D01*
X43273080Y-11753333D01*
X43177842Y-11705714D01*
X43034985Y-11705714D01*
X42939747Y-11753333D01*
X42082604Y-12324761D02*
X42177842Y-12372380D01*
X42368319Y-12372380D01*
X42463557Y-12324761D01*
X42511176Y-12229523D01*
X42511176Y-11848571D01*
X42463557Y-11753333D01*
X42368319Y-11705714D01*
X42177842Y-11705714D01*
X42082604Y-11753333D01*
X42034985Y-11848571D01*
X42034985Y-11943809D01*
X42511176Y-12039047D01*
X41749271Y-11705714D02*
X41368319Y-11705714D01*
X41606414Y-11372380D02*
X41606414Y-12229523D01*
X41558795Y-12324761D01*
X41463557Y-12372380D01*
X41368319Y-12372380D01*
X151451395Y-12372380D02*
X151784728Y-11896190D01*
X152022823Y-12372380D02*
X152022823Y-11372380D01*
X151641871Y-11372380D01*
X151546633Y-11420000D01*
X151499014Y-11467619D01*
X151451395Y-11562857D01*
X151451395Y-11705714D01*
X151499014Y-11800952D01*
X151546633Y-11848571D01*
X151641871Y-11896190D01*
X152022823Y-11896190D01*
X150641871Y-12324761D02*
X150737109Y-12372380D01*
X150927585Y-12372380D01*
X151022823Y-12324761D01*
X151070442Y-12229523D01*
X151070442Y-11848571D01*
X151022823Y-11753333D01*
X150927585Y-11705714D01*
X150737109Y-11705714D01*
X150641871Y-11753333D01*
X150594252Y-11848571D01*
X150594252Y-11943809D01*
X151070442Y-12039047D01*
X150213300Y-12324761D02*
X150118061Y-12372380D01*
X149927585Y-12372380D01*
X149832347Y-12324761D01*
X149784728Y-12229523D01*
X149784728Y-12181904D01*
X149832347Y-12086666D01*
X149927585Y-12039047D01*
X150070442Y-12039047D01*
X150165680Y-11991428D01*
X150213300Y-11896190D01*
X150213300Y-11848571D01*
X150165680Y-11753333D01*
X150070442Y-11705714D01*
X149927585Y-11705714D01*
X149832347Y-11753333D01*
X148975204Y-12324761D02*
X149070442Y-12372380D01*
X149260919Y-12372380D01*
X149356157Y-12324761D01*
X149403776Y-12229523D01*
X149403776Y-11848571D01*
X149356157Y-11753333D01*
X149260919Y-11705714D01*
X149070442Y-11705714D01*
X148975204Y-11753333D01*
X148927585Y-11848571D01*
X148927585Y-11943809D01*
X149403776Y-12039047D01*
X148641871Y-11705714D02*
X148260919Y-11705714D01*
X148499014Y-11372380D02*
X148499014Y-12229523D01*
X148451395Y-12324761D01*
X148356157Y-12372380D01*
X148260919Y-12372380D01*
X44558795Y-71639980D02*
X44892128Y-71163790D01*
X45130223Y-71639980D02*
X45130223Y-70639980D01*
X44749271Y-70639980D01*
X44654033Y-70687600D01*
X44606414Y-70735219D01*
X44558795Y-70830457D01*
X44558795Y-70973314D01*
X44606414Y-71068552D01*
X44654033Y-71116171D01*
X44749271Y-71163790D01*
X45130223Y-71163790D01*
X43749271Y-71592361D02*
X43844509Y-71639980D01*
X44034985Y-71639980D01*
X44130223Y-71592361D01*
X44177842Y-71497123D01*
X44177842Y-71116171D01*
X44130223Y-71020933D01*
X44034985Y-70973314D01*
X43844509Y-70973314D01*
X43749271Y-71020933D01*
X43701652Y-71116171D01*
X43701652Y-71211409D01*
X44177842Y-71306647D01*
X43320700Y-71592361D02*
X43225461Y-71639980D01*
X43034985Y-71639980D01*
X42939747Y-71592361D01*
X42892128Y-71497123D01*
X42892128Y-71449504D01*
X42939747Y-71354266D01*
X43034985Y-71306647D01*
X43177842Y-71306647D01*
X43273080Y-71259028D01*
X43320700Y-71163790D01*
X43320700Y-71116171D01*
X43273080Y-71020933D01*
X43177842Y-70973314D01*
X43034985Y-70973314D01*
X42939747Y-71020933D01*
X42082604Y-71592361D02*
X42177842Y-71639980D01*
X42368319Y-71639980D01*
X42463557Y-71592361D01*
X42511176Y-71497123D01*
X42511176Y-71116171D01*
X42463557Y-71020933D01*
X42368319Y-70973314D01*
X42177842Y-70973314D01*
X42082604Y-71020933D01*
X42034985Y-71116171D01*
X42034985Y-71211409D01*
X42511176Y-71306647D01*
X41749271Y-70973314D02*
X41368319Y-70973314D01*
X41606414Y-70639980D02*
X41606414Y-71497123D01*
X41558795Y-71592361D01*
X41463557Y-71639980D01*
X41368319Y-71639980D01*
X151451395Y-71639980D02*
X151784728Y-71163790D01*
X152022823Y-71639980D02*
X152022823Y-70639980D01*
X151641871Y-70639980D01*
X151546633Y-70687600D01*
X151499014Y-70735219D01*
X151451395Y-70830457D01*
X151451395Y-70973314D01*
X151499014Y-71068552D01*
X151546633Y-71116171D01*
X151641871Y-71163790D01*
X152022823Y-71163790D01*
X150641871Y-71592361D02*
X150737109Y-71639980D01*
X150927585Y-71639980D01*
X151022823Y-71592361D01*
X151070442Y-71497123D01*
X151070442Y-71116171D01*
X151022823Y-71020933D01*
X150927585Y-70973314D01*
X150737109Y-70973314D01*
X150641871Y-71020933D01*
X150594252Y-71116171D01*
X150594252Y-71211409D01*
X151070442Y-71306647D01*
X150213300Y-71592361D02*
X150118061Y-71639980D01*
X149927585Y-71639980D01*
X149832347Y-71592361D01*
X149784728Y-71497123D01*
X149784728Y-71449504D01*
X149832347Y-71354266D01*
X149927585Y-71306647D01*
X150070442Y-71306647D01*
X150165680Y-71259028D01*
X150213300Y-71163790D01*
X150213300Y-71116171D01*
X150165680Y-71020933D01*
X150070442Y-70973314D01*
X149927585Y-70973314D01*
X149832347Y-71020933D01*
X148975204Y-71592361D02*
X149070442Y-71639980D01*
X149260919Y-71639980D01*
X149356157Y-71592361D01*
X149403776Y-71497123D01*
X149403776Y-71116171D01*
X149356157Y-71020933D01*
X149260919Y-70973314D01*
X149070442Y-70973314D01*
X148975204Y-71020933D01*
X148927585Y-71116171D01*
X148927585Y-71211409D01*
X149403776Y-71306647D01*
X148641871Y-70973314D02*
X148260919Y-70973314D01*
X148499014Y-70639980D02*
X148499014Y-71497123D01*
X148451395Y-71592361D01*
X148356157Y-71639980D01*
X148260919Y-71639980D01*
D10*
%TO.C,D2*%
X95018795Y-55972380D02*
X95018795Y-54972380D01*
X94780700Y-54972380D01*
X94637842Y-55020000D01*
X94542604Y-55115238D01*
X94494985Y-55210476D01*
X94447366Y-55400952D01*
X94447366Y-55543809D01*
X94494985Y-55734285D01*
X94542604Y-55829523D01*
X94637842Y-55924761D01*
X94780700Y-55972380D01*
X95018795Y-55972380D01*
X94066414Y-55067619D02*
X94018795Y-55020000D01*
X93923557Y-54972380D01*
X93685461Y-54972380D01*
X93590223Y-55020000D01*
X93542604Y-55067619D01*
X93494985Y-55162857D01*
X93494985Y-55258095D01*
X93542604Y-55400952D01*
X94114033Y-55972380D01*
X93494985Y-55972380D01*
%TO.C,U6*%
X27709904Y-69677980D02*
X27709904Y-70487504D01*
X27662285Y-70582742D01*
X27614666Y-70630361D01*
X27519428Y-70677980D01*
X27328952Y-70677980D01*
X27233714Y-70630361D01*
X27186095Y-70582742D01*
X27138476Y-70487504D01*
X27138476Y-69677980D01*
X26233714Y-69677980D02*
X26424190Y-69677980D01*
X26519428Y-69725600D01*
X26567047Y-69773219D01*
X26662285Y-69916076D01*
X26709904Y-70106552D01*
X26709904Y-70487504D01*
X26662285Y-70582742D01*
X26614666Y-70630361D01*
X26519428Y-70677980D01*
X26328952Y-70677980D01*
X26233714Y-70630361D01*
X26186095Y-70582742D01*
X26138476Y-70487504D01*
X26138476Y-70249409D01*
X26186095Y-70154171D01*
X26233714Y-70106552D01*
X26328952Y-70058933D01*
X26519428Y-70058933D01*
X26614666Y-70106552D01*
X26662285Y-70154171D01*
X26709904Y-70249409D01*
D12*
%TO.C,J6*%
X74724033Y-90952123D02*
X74724033Y-91859266D01*
X74784509Y-92040695D01*
X74905461Y-92161647D01*
X75086890Y-92222123D01*
X75207842Y-92222123D01*
X73574985Y-90952123D02*
X73816890Y-90952123D01*
X73937842Y-91012600D01*
X73998319Y-91073076D01*
X74119271Y-91254504D01*
X74179747Y-91496409D01*
X74179747Y-91980219D01*
X74119271Y-92101171D01*
X74058795Y-92161647D01*
X73937842Y-92222123D01*
X73695938Y-92222123D01*
X73574985Y-92161647D01*
X73514509Y-92101171D01*
X73454033Y-91980219D01*
X73454033Y-91677838D01*
X73514509Y-91556885D01*
X73574985Y-91496409D01*
X73695938Y-91435933D01*
X73937842Y-91435933D01*
X74058795Y-91496409D01*
X74119271Y-91556885D01*
X74179747Y-91677838D01*
%TO.C,S2*%
X191670919Y-71751647D02*
X191489490Y-71812123D01*
X191187109Y-71812123D01*
X191066157Y-71751647D01*
X191005680Y-71691171D01*
X190945204Y-71570219D01*
X190945204Y-71449266D01*
X191005680Y-71328314D01*
X191066157Y-71267838D01*
X191187109Y-71207361D01*
X191429014Y-71146885D01*
X191549966Y-71086409D01*
X191610442Y-71025933D01*
X191670919Y-70904980D01*
X191670919Y-70784028D01*
X191610442Y-70663076D01*
X191549966Y-70602600D01*
X191429014Y-70542123D01*
X191126633Y-70542123D01*
X190945204Y-70602600D01*
X190461395Y-70663076D02*
X190400919Y-70602600D01*
X190279966Y-70542123D01*
X189977585Y-70542123D01*
X189856633Y-70602600D01*
X189796157Y-70663076D01*
X189735680Y-70784028D01*
X189735680Y-70904980D01*
X189796157Y-71086409D01*
X190521871Y-71812123D01*
X189735680Y-71812123D01*
%TO.C,S1*%
X144942219Y-71751647D02*
X144760790Y-71812123D01*
X144458409Y-71812123D01*
X144337457Y-71751647D01*
X144276980Y-71691171D01*
X144216504Y-71570219D01*
X144216504Y-71449266D01*
X144276980Y-71328314D01*
X144337457Y-71267838D01*
X144458409Y-71207361D01*
X144700314Y-71146885D01*
X144821266Y-71086409D01*
X144881742Y-71025933D01*
X144942219Y-70904980D01*
X144942219Y-70784028D01*
X144881742Y-70663076D01*
X144821266Y-70602600D01*
X144700314Y-70542123D01*
X144397933Y-70542123D01*
X144216504Y-70602600D01*
X143006980Y-71812123D02*
X143732695Y-71812123D01*
X143369838Y-71812123D02*
X143369838Y-70542123D01*
X143490790Y-70723552D01*
X143611742Y-70844504D01*
X143732695Y-70904980D01*
D10*
%TO.C,J5*%
X211964252Y-89079980D02*
X211964252Y-89794266D01*
X212011871Y-89937123D01*
X212107109Y-90032361D01*
X212249966Y-90079980D01*
X212345204Y-90079980D01*
X211011871Y-89079980D02*
X211488061Y-89079980D01*
X211535680Y-89556171D01*
X211488061Y-89508552D01*
X211392823Y-89460933D01*
X211154728Y-89460933D01*
X211059490Y-89508552D01*
X211011871Y-89556171D01*
X210964252Y-89651409D01*
X210964252Y-89889504D01*
X211011871Y-89984742D01*
X211059490Y-90032361D01*
X211154728Y-90079980D01*
X211392823Y-90079980D01*
X211488061Y-90032361D01*
X211535680Y-89984742D01*
%TO.C,J4*%
X93228080Y-95494266D02*
X93942366Y-95494266D01*
X94085223Y-95446647D01*
X94180461Y-95351409D01*
X94228080Y-95208552D01*
X94228080Y-95113314D01*
X93561414Y-96399028D02*
X94228080Y-96399028D01*
X93180461Y-96160933D02*
X93894747Y-95922838D01*
X93894747Y-96541885D01*
D12*
%TO.C,J6*%
X74724033Y-31684523D02*
X74724033Y-32591666D01*
X74784509Y-32773095D01*
X74905461Y-32894047D01*
X75086890Y-32954523D01*
X75207842Y-32954523D01*
X73574985Y-31684523D02*
X73816890Y-31684523D01*
X73937842Y-31745000D01*
X73998319Y-31805476D01*
X74119271Y-31986904D01*
X74179747Y-32228809D01*
X74179747Y-32712619D01*
X74119271Y-32833571D01*
X74058795Y-32894047D01*
X73937842Y-32954523D01*
X73695938Y-32954523D01*
X73574985Y-32894047D01*
X73514509Y-32833571D01*
X73454033Y-32712619D01*
X73454033Y-32410238D01*
X73514509Y-32289285D01*
X73574985Y-32228809D01*
X73695938Y-32168333D01*
X73937842Y-32168333D01*
X74058795Y-32228809D01*
X74119271Y-32289285D01*
X74179747Y-32410238D01*
D10*
%TO.C,J3*%
X122599966Y-26772380D02*
X122599966Y-27486666D01*
X122647585Y-27629523D01*
X122742823Y-27724761D01*
X122885680Y-27772380D01*
X122980918Y-27772380D01*
X122219013Y-26772380D02*
X121599966Y-26772380D01*
X121933299Y-27153333D01*
X121790442Y-27153333D01*
X121695204Y-27200952D01*
X121647585Y-27248571D01*
X121599966Y-27343809D01*
X121599966Y-27581904D01*
X121647585Y-27677142D01*
X121695204Y-27724761D01*
X121790442Y-27772380D01*
X122076156Y-27772380D01*
X122171394Y-27724761D01*
X122219013Y-27677142D01*
D12*
%TO.C,S2*%
X84778319Y-12484047D02*
X84596890Y-12544523D01*
X84294509Y-12544523D01*
X84173557Y-12484047D01*
X84113080Y-12423571D01*
X84052604Y-12302619D01*
X84052604Y-12181666D01*
X84113080Y-12060714D01*
X84173557Y-12000238D01*
X84294509Y-11939761D01*
X84536414Y-11879285D01*
X84657366Y-11818809D01*
X84717842Y-11758333D01*
X84778319Y-11637380D01*
X84778319Y-11516428D01*
X84717842Y-11395476D01*
X84657366Y-11335000D01*
X84536414Y-11274523D01*
X84234033Y-11274523D01*
X84052604Y-11335000D01*
X83568795Y-11395476D02*
X83508319Y-11335000D01*
X83387366Y-11274523D01*
X83084985Y-11274523D01*
X82964033Y-11335000D01*
X82903557Y-11395476D01*
X82843080Y-11516428D01*
X82843080Y-11637380D01*
X82903557Y-11818809D01*
X83629271Y-12544523D01*
X82843080Y-12544523D01*
D10*
%TO.C,D2*%
X201911395Y-115239980D02*
X201911395Y-114239980D01*
X201673300Y-114239980D01*
X201530442Y-114287600D01*
X201435204Y-114382838D01*
X201387585Y-114478076D01*
X201339966Y-114668552D01*
X201339966Y-114811409D01*
X201387585Y-115001885D01*
X201435204Y-115097123D01*
X201530442Y-115192361D01*
X201673300Y-115239980D01*
X201911395Y-115239980D01*
X200959014Y-114335219D02*
X200911395Y-114287600D01*
X200816157Y-114239980D01*
X200578061Y-114239980D01*
X200482823Y-114287600D01*
X200435204Y-114335219D01*
X200387585Y-114430457D01*
X200387585Y-114525695D01*
X200435204Y-114668552D01*
X201006633Y-115239980D01*
X200387585Y-115239980D01*
%TO.C,J4*%
X200120680Y-95494266D02*
X200834966Y-95494266D01*
X200977823Y-95446647D01*
X201073061Y-95351409D01*
X201120680Y-95208552D01*
X201120680Y-95113314D01*
X200454014Y-96399028D02*
X201120680Y-96399028D01*
X200073061Y-96160933D02*
X200787347Y-95922838D01*
X200787347Y-96541885D01*
%TO.C,J5*%
X105071652Y-29812380D02*
X105071652Y-30526666D01*
X105119271Y-30669523D01*
X105214509Y-30764761D01*
X105357366Y-30812380D01*
X105452604Y-30812380D01*
X104119271Y-29812380D02*
X104595461Y-29812380D01*
X104643080Y-30288571D01*
X104595461Y-30240952D01*
X104500223Y-30193333D01*
X104262128Y-30193333D01*
X104166890Y-30240952D01*
X104119271Y-30288571D01*
X104071652Y-30383809D01*
X104071652Y-30621904D01*
X104119271Y-30717142D01*
X104166890Y-30764761D01*
X104262128Y-30812380D01*
X104500223Y-30812380D01*
X104595461Y-30764761D01*
X104643080Y-30717142D01*
%TO.C,J3*%
X122599966Y-86039980D02*
X122599966Y-86754266D01*
X122647585Y-86897123D01*
X122742823Y-86992361D01*
X122885680Y-87039980D01*
X122980918Y-87039980D01*
X122219013Y-86039980D02*
X121599966Y-86039980D01*
X121933299Y-86420933D01*
X121790442Y-86420933D01*
X121695204Y-86468552D01*
X121647585Y-86516171D01*
X121599966Y-86611409D01*
X121599966Y-86849504D01*
X121647585Y-86944742D01*
X121695204Y-86992361D01*
X121790442Y-87039980D01*
X122076156Y-87039980D01*
X122171394Y-86992361D01*
X122219013Y-86944742D01*
D12*
%TO.C,S2*%
X191670919Y-12484047D02*
X191489490Y-12544523D01*
X191187109Y-12544523D01*
X191066157Y-12484047D01*
X191005680Y-12423571D01*
X190945204Y-12302619D01*
X190945204Y-12181666D01*
X191005680Y-12060714D01*
X191066157Y-12000238D01*
X191187109Y-11939761D01*
X191429014Y-11879285D01*
X191549966Y-11818809D01*
X191610442Y-11758333D01*
X191670919Y-11637380D01*
X191670919Y-11516428D01*
X191610442Y-11395476D01*
X191549966Y-11335000D01*
X191429014Y-11274523D01*
X191126633Y-11274523D01*
X190945204Y-11335000D01*
X190461395Y-11395476D02*
X190400919Y-11335000D01*
X190279966Y-11274523D01*
X189977585Y-11274523D01*
X189856633Y-11335000D01*
X189796157Y-11395476D01*
X189735680Y-11516428D01*
X189735680Y-11637380D01*
X189796157Y-11818809D01*
X190521871Y-12544523D01*
X189735680Y-12544523D01*
X84778319Y-71751647D02*
X84596890Y-71812123D01*
X84294509Y-71812123D01*
X84173557Y-71751647D01*
X84113080Y-71691171D01*
X84052604Y-71570219D01*
X84052604Y-71449266D01*
X84113080Y-71328314D01*
X84173557Y-71267838D01*
X84294509Y-71207361D01*
X84536414Y-71146885D01*
X84657366Y-71086409D01*
X84717842Y-71025933D01*
X84778319Y-70904980D01*
X84778319Y-70784028D01*
X84717842Y-70663076D01*
X84657366Y-70602600D01*
X84536414Y-70542123D01*
X84234033Y-70542123D01*
X84052604Y-70602600D01*
X83568795Y-70663076D02*
X83508319Y-70602600D01*
X83387366Y-70542123D01*
X83084985Y-70542123D01*
X82964033Y-70602600D01*
X82903557Y-70663076D01*
X82843080Y-70784028D01*
X82843080Y-70904980D01*
X82903557Y-71086409D01*
X83629271Y-71812123D01*
X82843080Y-71812123D01*
D10*
%TO.C,J5*%
X211964252Y-29812380D02*
X211964252Y-30526666D01*
X212011871Y-30669523D01*
X212107109Y-30764761D01*
X212249966Y-30812380D01*
X212345204Y-30812380D01*
X211011871Y-29812380D02*
X211488061Y-29812380D01*
X211535680Y-30288571D01*
X211488061Y-30240952D01*
X211392823Y-30193333D01*
X211154728Y-30193333D01*
X211059490Y-30240952D01*
X211011871Y-30288571D01*
X210964252Y-30383809D01*
X210964252Y-30621904D01*
X211011871Y-30717142D01*
X211059490Y-30764761D01*
X211154728Y-30812380D01*
X211392823Y-30812380D01*
X211488061Y-30764761D01*
X211535680Y-30717142D01*
%TO.C,J3*%
X15707366Y-26772380D02*
X15707366Y-27486666D01*
X15754985Y-27629523D01*
X15850223Y-27724761D01*
X15993080Y-27772380D01*
X16088318Y-27772380D01*
X15326413Y-26772380D02*
X14707366Y-26772380D01*
X15040699Y-27153333D01*
X14897842Y-27153333D01*
X14802604Y-27200952D01*
X14754985Y-27248571D01*
X14707366Y-27343809D01*
X14707366Y-27581904D01*
X14754985Y-27677142D01*
X14802604Y-27724761D01*
X14897842Y-27772380D01*
X15183556Y-27772380D01*
X15278794Y-27724761D01*
X15326413Y-27677142D01*
D12*
%TO.C,J6*%
X181616633Y-31684523D02*
X181616633Y-32591666D01*
X181677109Y-32773095D01*
X181798061Y-32894047D01*
X181979490Y-32954523D01*
X182100442Y-32954523D01*
X180467585Y-31684523D02*
X180709490Y-31684523D01*
X180830442Y-31745000D01*
X180890919Y-31805476D01*
X181011871Y-31986904D01*
X181072347Y-32228809D01*
X181072347Y-32712619D01*
X181011871Y-32833571D01*
X180951395Y-32894047D01*
X180830442Y-32954523D01*
X180588538Y-32954523D01*
X180467585Y-32894047D01*
X180407109Y-32833571D01*
X180346633Y-32712619D01*
X180346633Y-32410238D01*
X180407109Y-32289285D01*
X180467585Y-32228809D01*
X180588538Y-32168333D01*
X180830442Y-32168333D01*
X180951395Y-32228809D01*
X181011871Y-32289285D01*
X181072347Y-32410238D01*
D10*
%TO.C,J1*%
X125405680Y-35566666D02*
X126119966Y-35566666D01*
X126262823Y-35519047D01*
X126358061Y-35423809D01*
X126405680Y-35280952D01*
X126405680Y-35185714D01*
X126405680Y-36566666D02*
X126405680Y-35995238D01*
X126405680Y-36280952D02*
X125405680Y-36280952D01*
X125548538Y-36185714D01*
X125643776Y-36090476D01*
X125691395Y-35995238D01*
%TO.C,D2*%
X201911395Y-55972380D02*
X201911395Y-54972380D01*
X201673300Y-54972380D01*
X201530442Y-55020000D01*
X201435204Y-55115238D01*
X201387585Y-55210476D01*
X201339966Y-55400952D01*
X201339966Y-55543809D01*
X201387585Y-55734285D01*
X201435204Y-55829523D01*
X201530442Y-55924761D01*
X201673300Y-55972380D01*
X201911395Y-55972380D01*
X200959014Y-55067619D02*
X200911395Y-55020000D01*
X200816157Y-54972380D01*
X200578061Y-54972380D01*
X200482823Y-55020000D01*
X200435204Y-55067619D01*
X200387585Y-55162857D01*
X200387585Y-55258095D01*
X200435204Y-55400952D01*
X201006633Y-55972380D01*
X200387585Y-55972380D01*
%TO.C,U6*%
X134602504Y-10410380D02*
X134602504Y-11219904D01*
X134554885Y-11315142D01*
X134507266Y-11362761D01*
X134412028Y-11410380D01*
X134221552Y-11410380D01*
X134126314Y-11362761D01*
X134078695Y-11315142D01*
X134031076Y-11219904D01*
X134031076Y-10410380D01*
X133126314Y-10410380D02*
X133316790Y-10410380D01*
X133412028Y-10458000D01*
X133459647Y-10505619D01*
X133554885Y-10648476D01*
X133602504Y-10838952D01*
X133602504Y-11219904D01*
X133554885Y-11315142D01*
X133507266Y-11362761D01*
X133412028Y-11410380D01*
X133221552Y-11410380D01*
X133126314Y-11362761D01*
X133078695Y-11315142D01*
X133031076Y-11219904D01*
X133031076Y-10981809D01*
X133078695Y-10886571D01*
X133126314Y-10838952D01*
X133221552Y-10791333D01*
X133412028Y-10791333D01*
X133507266Y-10838952D01*
X133554885Y-10886571D01*
X133602504Y-10981809D01*
%TO.C,J1*%
X18513080Y-94834266D02*
X19227366Y-94834266D01*
X19370223Y-94786647D01*
X19465461Y-94691409D01*
X19513080Y-94548552D01*
X19513080Y-94453314D01*
X19513080Y-95834266D02*
X19513080Y-95262838D01*
X19513080Y-95548552D02*
X18513080Y-95548552D01*
X18655938Y-95453314D01*
X18751176Y-95358076D01*
X18798795Y-95262838D01*
D12*
%TO.C,J6*%
X181616633Y-90952123D02*
X181616633Y-91859266D01*
X181677109Y-92040695D01*
X181798061Y-92161647D01*
X181979490Y-92222123D01*
X182100442Y-92222123D01*
X180467585Y-90952123D02*
X180709490Y-90952123D01*
X180830442Y-91012600D01*
X180890919Y-91073076D01*
X181011871Y-91254504D01*
X181072347Y-91496409D01*
X181072347Y-91980219D01*
X181011871Y-92101171D01*
X180951395Y-92161647D01*
X180830442Y-92222123D01*
X180588538Y-92222123D01*
X180467585Y-92161647D01*
X180407109Y-92101171D01*
X180346633Y-91980219D01*
X180346633Y-91677838D01*
X180407109Y-91556885D01*
X180467585Y-91496409D01*
X180588538Y-91435933D01*
X180830442Y-91435933D01*
X180951395Y-91496409D01*
X181011871Y-91556885D01*
X181072347Y-91677838D01*
D10*
%TO.C,J3*%
X15707366Y-86039980D02*
X15707366Y-86754266D01*
X15754985Y-86897123D01*
X15850223Y-86992361D01*
X15993080Y-87039980D01*
X16088318Y-87039980D01*
X15326413Y-86039980D02*
X14707366Y-86039980D01*
X15040699Y-86420933D01*
X14897842Y-86420933D01*
X14802604Y-86468552D01*
X14754985Y-86516171D01*
X14707366Y-86611409D01*
X14707366Y-86849504D01*
X14754985Y-86944742D01*
X14802604Y-86992361D01*
X14897842Y-87039980D01*
X15183556Y-87039980D01*
X15278794Y-86992361D01*
X15326413Y-86944742D01*
D12*
%TO.C,S1*%
X38049619Y-12484047D02*
X37868190Y-12544523D01*
X37565809Y-12544523D01*
X37444857Y-12484047D01*
X37384380Y-12423571D01*
X37323904Y-12302619D01*
X37323904Y-12181666D01*
X37384380Y-12060714D01*
X37444857Y-12000238D01*
X37565809Y-11939761D01*
X37807714Y-11879285D01*
X37928666Y-11818809D01*
X37989142Y-11758333D01*
X38049619Y-11637380D01*
X38049619Y-11516428D01*
X37989142Y-11395476D01*
X37928666Y-11335000D01*
X37807714Y-11274523D01*
X37505333Y-11274523D01*
X37323904Y-11335000D01*
X36114380Y-12544523D02*
X36840095Y-12544523D01*
X36477238Y-12544523D02*
X36477238Y-11274523D01*
X36598190Y-11455952D01*
X36719142Y-11576904D01*
X36840095Y-11637380D01*
D10*
%TO.C,J4*%
X200120680Y-36226666D02*
X200834966Y-36226666D01*
X200977823Y-36179047D01*
X201073061Y-36083809D01*
X201120680Y-35940952D01*
X201120680Y-35845714D01*
X200454014Y-37131428D02*
X201120680Y-37131428D01*
X200073061Y-36893333D02*
X200787347Y-36655238D01*
X200787347Y-37274285D01*
%TO.C,J1*%
X125405680Y-94834266D02*
X126119966Y-94834266D01*
X126262823Y-94786647D01*
X126358061Y-94691409D01*
X126405680Y-94548552D01*
X126405680Y-94453314D01*
X126405680Y-95834266D02*
X126405680Y-95262838D01*
X126405680Y-95548552D02*
X125405680Y-95548552D01*
X125548538Y-95453314D01*
X125643776Y-95358076D01*
X125691395Y-95262838D01*
%TO.C,D2*%
X95018795Y-115239980D02*
X95018795Y-114239980D01*
X94780700Y-114239980D01*
X94637842Y-114287600D01*
X94542604Y-114382838D01*
X94494985Y-114478076D01*
X94447366Y-114668552D01*
X94447366Y-114811409D01*
X94494985Y-115001885D01*
X94542604Y-115097123D01*
X94637842Y-115192361D01*
X94780700Y-115239980D01*
X95018795Y-115239980D01*
X94066414Y-114335219D02*
X94018795Y-114287600D01*
X93923557Y-114239980D01*
X93685461Y-114239980D01*
X93590223Y-114287600D01*
X93542604Y-114335219D01*
X93494985Y-114430457D01*
X93494985Y-114525695D01*
X93542604Y-114668552D01*
X94114033Y-115239980D01*
X93494985Y-115239980D01*
%TO.C,J1*%
X18513080Y-35566666D02*
X19227366Y-35566666D01*
X19370223Y-35519047D01*
X19465461Y-35423809D01*
X19513080Y-35280952D01*
X19513080Y-35185714D01*
X19513080Y-36566666D02*
X19513080Y-35995238D01*
X19513080Y-36280952D02*
X18513080Y-36280952D01*
X18655938Y-36185714D01*
X18751176Y-36090476D01*
X18798795Y-35995238D01*
%TO.C,U6*%
X134602504Y-69677980D02*
X134602504Y-70487504D01*
X134554885Y-70582742D01*
X134507266Y-70630361D01*
X134412028Y-70677980D01*
X134221552Y-70677980D01*
X134126314Y-70630361D01*
X134078695Y-70582742D01*
X134031076Y-70487504D01*
X134031076Y-69677980D01*
X133126314Y-69677980D02*
X133316790Y-69677980D01*
X133412028Y-69725600D01*
X133459647Y-69773219D01*
X133554885Y-69916076D01*
X133602504Y-70106552D01*
X133602504Y-70487504D01*
X133554885Y-70582742D01*
X133507266Y-70630361D01*
X133412028Y-70677980D01*
X133221552Y-70677980D01*
X133126314Y-70630361D01*
X133078695Y-70582742D01*
X133031076Y-70487504D01*
X133031076Y-70249409D01*
X133078695Y-70154171D01*
X133126314Y-70106552D01*
X133221552Y-70058933D01*
X133412028Y-70058933D01*
X133507266Y-70106552D01*
X133554885Y-70154171D01*
X133602504Y-70249409D01*
D12*
%TO.C,S1*%
X38049619Y-71751647D02*
X37868190Y-71812123D01*
X37565809Y-71812123D01*
X37444857Y-71751647D01*
X37384380Y-71691171D01*
X37323904Y-71570219D01*
X37323904Y-71449266D01*
X37384380Y-71328314D01*
X37444857Y-71267838D01*
X37565809Y-71207361D01*
X37807714Y-71146885D01*
X37928666Y-71086409D01*
X37989142Y-71025933D01*
X38049619Y-70904980D01*
X38049619Y-70784028D01*
X37989142Y-70663076D01*
X37928666Y-70602600D01*
X37807714Y-70542123D01*
X37505333Y-70542123D01*
X37323904Y-70602600D01*
X36114380Y-71812123D02*
X36840095Y-71812123D01*
X36477238Y-71812123D02*
X36477238Y-70542123D01*
X36598190Y-70723552D01*
X36719142Y-70844504D01*
X36840095Y-70904980D01*
D10*
%TO.C,U6*%
X27709904Y-10410380D02*
X27709904Y-11219904D01*
X27662285Y-11315142D01*
X27614666Y-11362761D01*
X27519428Y-11410380D01*
X27328952Y-11410380D01*
X27233714Y-11362761D01*
X27186095Y-11315142D01*
X27138476Y-11219904D01*
X27138476Y-10410380D01*
X26233714Y-10410380D02*
X26424190Y-10410380D01*
X26519428Y-10458000D01*
X26567047Y-10505619D01*
X26662285Y-10648476D01*
X26709904Y-10838952D01*
X26709904Y-11219904D01*
X26662285Y-11315142D01*
X26614666Y-11362761D01*
X26519428Y-11410380D01*
X26328952Y-11410380D01*
X26233714Y-11362761D01*
X26186095Y-11315142D01*
X26138476Y-11219904D01*
X26138476Y-10981809D01*
X26186095Y-10886571D01*
X26233714Y-10838952D01*
X26328952Y-10791333D01*
X26519428Y-10791333D01*
X26614666Y-10838952D01*
X26662285Y-10886571D01*
X26709904Y-10981809D01*
%TO.C,J5*%
X105071652Y-89079980D02*
X105071652Y-89794266D01*
X105119271Y-89937123D01*
X105214509Y-90032361D01*
X105357366Y-90079980D01*
X105452604Y-90079980D01*
X104119271Y-89079980D02*
X104595461Y-89079980D01*
X104643080Y-89556171D01*
X104595461Y-89508552D01*
X104500223Y-89460933D01*
X104262128Y-89460933D01*
X104166890Y-89508552D01*
X104119271Y-89556171D01*
X104071652Y-89651409D01*
X104071652Y-89889504D01*
X104119271Y-89984742D01*
X104166890Y-90032361D01*
X104262128Y-90079980D01*
X104500223Y-90079980D01*
X104595461Y-90032361D01*
X104643080Y-89984742D01*
D12*
%TO.C,S1*%
X144942219Y-12484047D02*
X144760790Y-12544523D01*
X144458409Y-12544523D01*
X144337457Y-12484047D01*
X144276980Y-12423571D01*
X144216504Y-12302619D01*
X144216504Y-12181666D01*
X144276980Y-12060714D01*
X144337457Y-12000238D01*
X144458409Y-11939761D01*
X144700314Y-11879285D01*
X144821266Y-11818809D01*
X144881742Y-11758333D01*
X144942219Y-11637380D01*
X144942219Y-11516428D01*
X144881742Y-11395476D01*
X144821266Y-11335000D01*
X144700314Y-11274523D01*
X144397933Y-11274523D01*
X144216504Y-11335000D01*
X143006980Y-12544523D02*
X143732695Y-12544523D01*
X143369838Y-12544523D02*
X143369838Y-11274523D01*
X143490790Y-11455952D01*
X143611742Y-11576904D01*
X143732695Y-11637380D01*
D10*
%TO.C,J4*%
X93228080Y-36226666D02*
X93942366Y-36226666D01*
X94085223Y-36179047D01*
X94180461Y-36083809D01*
X94228080Y-35940952D01*
X94228080Y-35845714D01*
X93561414Y-37131428D02*
X94228080Y-37131428D01*
X93180461Y-36893333D02*
X93894747Y-36655238D01*
X93894747Y-37274285D01*
D13*
%TO.C,D2*%
X95965700Y-56210000D02*
X95965700Y-58130000D01*
X93280700Y-56210000D02*
X95965700Y-56210000D01*
X95965700Y-58130000D02*
X93280700Y-58130000D01*
D14*
%TO.C,U6*%
X28682000Y-71067600D02*
X25982000Y-71067600D01*
X28682000Y-73467600D02*
X25982000Y-73467600D01*
X25532000Y-72867600D02*
X25532000Y-72867600D01*
X25982000Y-72067600D02*
X25982000Y-72467600D01*
X28682000Y-72067600D02*
X28682000Y-72467600D01*
X25532000Y-72967600D02*
X25532000Y-72967600D01*
X25532000Y-72967600D02*
G75*
G03*
X25532000Y-72867600I0J50000D01*
G01*
X25532000Y-72867600D02*
G75*
G03*
X25532000Y-72967600I0J-50000D01*
G01*
D15*
%TO.C,J6*%
X89375700Y-124322600D02*
X89375700Y-76032600D01*
D14*
X60380700Y-124897600D02*
X60380700Y-124897600D01*
D15*
X31385700Y-124322600D02*
X89375700Y-124322600D01*
D14*
X60380700Y-124797600D02*
X60380700Y-124797600D01*
D15*
X89375700Y-76032600D02*
X31385700Y-76032600D01*
X31385700Y-76032600D02*
X31385700Y-124322600D01*
D14*
X60380700Y-124797600D02*
G75*
G03*
X60380700Y-124897600I0J-50000D01*
G01*
X60380700Y-124897600D02*
G75*
G03*
X60380700Y-124797600I0J50000D01*
G01*
%TO.C,S2*%
X187853300Y-68637600D02*
X187853300Y-68837600D01*
D15*
X194253300Y-69337600D02*
X194253300Y-69337600D01*
D14*
X193053300Y-68637600D02*
X187853300Y-68637600D01*
X193053300Y-68837600D02*
X193053300Y-68637600D01*
X193053300Y-73837600D02*
X187853300Y-73837600D01*
X193053300Y-72537600D02*
X193053300Y-69937600D01*
X187853300Y-72537600D02*
X187853300Y-69937600D01*
D15*
X194453300Y-69337600D02*
X194453300Y-69337600D01*
D14*
X193053300Y-73637600D02*
X193053300Y-73837600D01*
X187853300Y-73837600D02*
X187853300Y-73637600D01*
D15*
X194453300Y-69337600D02*
G75*
G03*
X194253300Y-69337600I-100000J0D01*
G01*
X194253300Y-69337600D02*
G75*
G03*
X194453300Y-69337600I100000J0D01*
G01*
D14*
%TO.C,S1*%
X141624600Y-73637600D02*
X141624600Y-73837600D01*
X146824600Y-69937600D02*
X146824600Y-72537600D01*
D15*
X140224600Y-73137600D02*
X140224600Y-73137600D01*
D14*
X141624600Y-73837600D02*
X146824600Y-73837600D01*
X146824600Y-68637600D02*
X146824600Y-68837600D01*
X146824600Y-73837600D02*
X146824600Y-73637600D01*
X141624600Y-69937600D02*
X141624600Y-72537600D01*
D15*
X140424600Y-73137600D02*
X140424600Y-73137600D01*
D14*
X141624600Y-68837600D02*
X141624600Y-68637600D01*
X141624600Y-68637600D02*
X146824600Y-68637600D01*
D15*
X140224600Y-73137600D02*
G75*
G03*
X140424600Y-73137600I100000J0D01*
G01*
X140424600Y-73137600D02*
G75*
G03*
X140224600Y-73137600I-100000J0D01*
G01*
D13*
%TO.C,J5*%
X212960919Y-91957600D02*
X212960919Y-90627600D01*
X210300919Y-93227600D02*
X210300919Y-100907600D01*
X212960919Y-100907600D02*
X210300919Y-100907600D01*
X212960919Y-90627600D02*
X211630919Y-90627600D01*
X212960919Y-93227600D02*
X212960919Y-100907600D01*
X212960919Y-93227600D02*
X210300919Y-93227600D01*
%TO.C,J4*%
X94800700Y-97827600D02*
X94800700Y-99977600D01*
X95550700Y-94127600D02*
X94800700Y-94127600D01*
X98350700Y-91677600D02*
X98350700Y-94577600D01*
X98350700Y-99977600D02*
X98350700Y-97077600D01*
X94800700Y-94127600D02*
X94800700Y-94727600D01*
X94800700Y-91677600D02*
X98350700Y-91677600D01*
X94800700Y-93827600D02*
X94800700Y-91677600D01*
X94800700Y-99977600D02*
X98350700Y-99977600D01*
D15*
%TO.C,J6*%
X89375700Y-16765000D02*
X31385700Y-16765000D01*
D14*
X60380700Y-65530000D02*
X60380700Y-65530000D01*
D15*
X31385700Y-65055000D02*
X89375700Y-65055000D01*
D14*
X60380700Y-65630000D02*
X60380700Y-65630000D01*
D15*
X31385700Y-16765000D02*
X31385700Y-65055000D01*
X89375700Y-65055000D02*
X89375700Y-16765000D01*
D14*
X60380700Y-65530000D02*
G75*
G03*
X60380700Y-65630000I0J-50000D01*
G01*
X60380700Y-65630000D02*
G75*
G03*
X60380700Y-65530000I0J50000D01*
G01*
D13*
%TO.C,J3*%
X123596633Y-44120000D02*
X120936633Y-44120000D01*
X120936633Y-28760000D02*
X120936633Y-30090000D01*
X120936633Y-31360000D02*
X120936633Y-44120000D01*
X122266633Y-28760000D02*
X120936633Y-28760000D01*
X123596633Y-31360000D02*
X123596633Y-44120000D01*
X123596633Y-31360000D02*
X120936633Y-31360000D01*
D14*
%TO.C,S2*%
X86160700Y-13270000D02*
X86160700Y-10670000D01*
D15*
X87360700Y-10070000D02*
X87360700Y-10070000D01*
D14*
X86160700Y-9370000D02*
X80960700Y-9370000D01*
X86160700Y-9570000D02*
X86160700Y-9370000D01*
X80960700Y-13270000D02*
X80960700Y-10670000D01*
X86160700Y-14370000D02*
X86160700Y-14570000D01*
X80960700Y-14570000D02*
X80960700Y-14370000D01*
D15*
X87560700Y-10070000D02*
X87560700Y-10070000D01*
D14*
X86160700Y-14570000D02*
X80960700Y-14570000D01*
X80960700Y-9370000D02*
X80960700Y-9570000D01*
D15*
X87560700Y-10070000D02*
G75*
G03*
X87360700Y-10070000I-100000J0D01*
G01*
X87360700Y-10070000D02*
G75*
G03*
X87560700Y-10070000I100000J0D01*
G01*
D13*
%TO.C,D2*%
X200173300Y-115477600D02*
X202858300Y-115477600D01*
X202858300Y-117397600D02*
X200173300Y-117397600D01*
X202858300Y-115477600D02*
X202858300Y-117397600D01*
%TO.C,J4*%
X205243300Y-91677600D02*
X205243300Y-94577600D01*
X201693300Y-97827600D02*
X201693300Y-99977600D01*
X202443300Y-94127600D02*
X201693300Y-94127600D01*
X205243300Y-99977600D02*
X205243300Y-97077600D01*
X201693300Y-94127600D02*
X201693300Y-94727600D01*
X201693300Y-93827600D02*
X201693300Y-91677600D01*
X201693300Y-99977600D02*
X205243300Y-99977600D01*
X201693300Y-91677600D02*
X205243300Y-91677600D01*
%TO.C,J5*%
X106068319Y-41640000D02*
X103408319Y-41640000D01*
X106068319Y-32690000D02*
X106068319Y-31360000D01*
X106068319Y-33960000D02*
X103408319Y-33960000D01*
X106068319Y-31360000D02*
X104738319Y-31360000D01*
X106068319Y-33960000D02*
X106068319Y-41640000D01*
X103408319Y-33960000D02*
X103408319Y-41640000D01*
%TO.C,J3*%
X120936633Y-90627600D02*
X120936633Y-103387600D01*
X123596633Y-103387600D02*
X120936633Y-103387600D01*
X123596633Y-90627600D02*
X120936633Y-90627600D01*
X120936633Y-88027600D02*
X120936633Y-89357600D01*
X123596633Y-90627600D02*
X123596633Y-103387600D01*
X122266633Y-88027600D02*
X120936633Y-88027600D01*
D14*
%TO.C,S2*%
X193053300Y-13270000D02*
X193053300Y-10670000D01*
D15*
X194253300Y-10070000D02*
X194253300Y-10070000D01*
D14*
X187853300Y-14570000D02*
X187853300Y-14370000D01*
X193053300Y-9570000D02*
X193053300Y-9370000D01*
X187853300Y-13270000D02*
X187853300Y-10670000D01*
X193053300Y-14370000D02*
X193053300Y-14570000D01*
X187853300Y-9370000D02*
X187853300Y-9570000D01*
X193053300Y-9370000D02*
X187853300Y-9370000D01*
X193053300Y-14570000D02*
X187853300Y-14570000D01*
D15*
X194453300Y-10070000D02*
X194453300Y-10070000D01*
X194253300Y-10070000D02*
G75*
G03*
X194453300Y-10070000I100000J0D01*
G01*
X194453300Y-10070000D02*
G75*
G03*
X194253300Y-10070000I-100000J0D01*
G01*
D14*
X80960700Y-72537600D02*
X80960700Y-69937600D01*
X86160700Y-73637600D02*
X86160700Y-73837600D01*
X86160700Y-68637600D02*
X80960700Y-68637600D01*
X80960700Y-73837600D02*
X80960700Y-73637600D01*
X86160700Y-72537600D02*
X86160700Y-69937600D01*
D15*
X87360700Y-69337600D02*
X87360700Y-69337600D01*
X87560700Y-69337600D02*
X87560700Y-69337600D01*
D14*
X86160700Y-68837600D02*
X86160700Y-68637600D01*
X86160700Y-73837600D02*
X80960700Y-73837600D01*
X80960700Y-68637600D02*
X80960700Y-68837600D01*
D15*
X87360700Y-69337600D02*
G75*
G03*
X87560700Y-69337600I100000J0D01*
G01*
X87560700Y-69337600D02*
G75*
G03*
X87360700Y-69337600I-100000J0D01*
G01*
D13*
%TO.C,J5*%
X212960919Y-31360000D02*
X211630919Y-31360000D01*
X212960919Y-32690000D02*
X212960919Y-31360000D01*
X212960919Y-33960000D02*
X212960919Y-41640000D01*
X210300919Y-33960000D02*
X210300919Y-41640000D01*
X212960919Y-33960000D02*
X210300919Y-33960000D01*
X212960919Y-41640000D02*
X210300919Y-41640000D01*
%TO.C,J3*%
X14044033Y-28760000D02*
X14044033Y-30090000D01*
X15374033Y-28760000D02*
X14044033Y-28760000D01*
X16704033Y-31360000D02*
X16704033Y-44120000D01*
X16704033Y-44120000D02*
X14044033Y-44120000D01*
X16704033Y-31360000D02*
X14044033Y-31360000D01*
X14044033Y-31360000D02*
X14044033Y-44120000D01*
D14*
%TO.C,J6*%
X167273300Y-65630000D02*
X167273300Y-65630000D01*
D15*
X196268300Y-65055000D02*
X196268300Y-16765000D01*
X138278300Y-65055000D02*
X196268300Y-65055000D01*
X138278300Y-16765000D02*
X138278300Y-65055000D01*
D14*
X167273300Y-65530000D02*
X167273300Y-65530000D01*
D15*
X196268300Y-16765000D02*
X138278300Y-16765000D01*
D14*
X167273300Y-65630000D02*
G75*
G03*
X167273300Y-65530000I0J50000D01*
G01*
X167273300Y-65530000D02*
G75*
G03*
X167273300Y-65630000I0J-50000D01*
G01*
D13*
%TO.C,J1*%
X131413300Y-39985000D02*
X132263300Y-39985000D01*
X132263300Y-31815000D02*
X132263300Y-34140000D01*
X132263300Y-39985000D02*
X132263300Y-37660000D01*
X127043300Y-39985000D02*
X127893300Y-39985000D01*
X131413300Y-31815000D02*
X132263300Y-31815000D01*
X127893300Y-31815000D02*
X127043300Y-31815000D01*
X132263300Y-34140000D02*
X134653300Y-34140000D01*
X127043300Y-31815000D02*
X127043300Y-39985000D01*
%TO.C,D2*%
X200173300Y-56210000D02*
X202858300Y-56210000D01*
X202858300Y-56210000D02*
X202858300Y-58130000D01*
X202858300Y-58130000D02*
X200173300Y-58130000D01*
D14*
%TO.C,U6*%
X135574600Y-11800000D02*
X132874600Y-11800000D01*
X132424600Y-13600000D02*
X132424600Y-13600000D01*
X135574600Y-12800000D02*
X135574600Y-13200000D01*
X135574600Y-14200000D02*
X132874600Y-14200000D01*
X132424600Y-13700000D02*
X132424600Y-13700000D01*
X132874600Y-12800000D02*
X132874600Y-13200000D01*
X132424600Y-13700000D02*
G75*
G03*
X132424600Y-13600000I0J50000D01*
G01*
X132424600Y-13600000D02*
G75*
G03*
X132424600Y-13700000I0J-50000D01*
G01*
D13*
%TO.C,J1*%
X21000700Y-91082600D02*
X20150700Y-91082600D01*
X20150700Y-99252600D02*
X21000700Y-99252600D01*
X24520700Y-99252600D02*
X25370700Y-99252600D01*
X25370700Y-91082600D02*
X25370700Y-93407600D01*
X24520700Y-91082600D02*
X25370700Y-91082600D01*
X25370700Y-93407600D02*
X27760700Y-93407600D01*
X25370700Y-99252600D02*
X25370700Y-96927600D01*
X20150700Y-91082600D02*
X20150700Y-99252600D01*
D14*
%TO.C,J6*%
X167273300Y-124897600D02*
X167273300Y-124897600D01*
D15*
X196268300Y-124322600D02*
X196268300Y-76032600D01*
X138278300Y-76032600D02*
X138278300Y-124322600D01*
X138278300Y-124322600D02*
X196268300Y-124322600D01*
D14*
X167273300Y-124797600D02*
X167273300Y-124797600D01*
D15*
X196268300Y-76032600D02*
X138278300Y-76032600D01*
D14*
X167273300Y-124797600D02*
G75*
G03*
X167273300Y-124897600I0J-50000D01*
G01*
X167273300Y-124897600D02*
G75*
G03*
X167273300Y-124797600I0J50000D01*
G01*
D13*
%TO.C,J3*%
X15374033Y-88027600D02*
X14044033Y-88027600D01*
X16704033Y-90627600D02*
X16704033Y-103387600D01*
X14044033Y-90627600D02*
X14044033Y-103387600D01*
X14044033Y-88027600D02*
X14044033Y-89357600D01*
X16704033Y-90627600D02*
X14044033Y-90627600D01*
X16704033Y-103387600D02*
X14044033Y-103387600D01*
D14*
%TO.C,S1*%
X34732000Y-14370000D02*
X34732000Y-14570000D01*
X39932000Y-14570000D02*
X39932000Y-14370000D01*
X34732000Y-9570000D02*
X34732000Y-9370000D01*
D15*
X33332000Y-13870000D02*
X33332000Y-13870000D01*
D14*
X39932000Y-9370000D02*
X39932000Y-9570000D01*
X39932000Y-10670000D02*
X39932000Y-13270000D01*
X34732000Y-14570000D02*
X39932000Y-14570000D01*
D15*
X33532000Y-13870000D02*
X33532000Y-13870000D01*
D14*
X34732000Y-10670000D02*
X34732000Y-13270000D01*
X34732000Y-9370000D02*
X39932000Y-9370000D01*
D15*
X33332000Y-13870000D02*
G75*
G03*
X33532000Y-13870000I100000J0D01*
G01*
X33532000Y-13870000D02*
G75*
G03*
X33332000Y-13870000I-100000J0D01*
G01*
D13*
%TO.C,J4*%
X201693300Y-40710000D02*
X205243300Y-40710000D01*
X201693300Y-32410000D02*
X205243300Y-32410000D01*
X201693300Y-38560000D02*
X201693300Y-40710000D01*
X205243300Y-32410000D02*
X205243300Y-35310000D01*
X202443300Y-34860000D02*
X201693300Y-34860000D01*
X205243300Y-40710000D02*
X205243300Y-37810000D01*
X201693300Y-34860000D02*
X201693300Y-35460000D01*
X201693300Y-34560000D02*
X201693300Y-32410000D01*
%TO.C,J1*%
X127043300Y-91082600D02*
X127043300Y-99252600D01*
X132263300Y-93407600D02*
X134653300Y-93407600D01*
X127893300Y-91082600D02*
X127043300Y-91082600D01*
X131413300Y-91082600D02*
X132263300Y-91082600D01*
X131413300Y-99252600D02*
X132263300Y-99252600D01*
X132263300Y-99252600D02*
X132263300Y-96927600D01*
X127043300Y-99252600D02*
X127893300Y-99252600D01*
X132263300Y-91082600D02*
X132263300Y-93407600D01*
%TO.C,D2*%
X95965700Y-117397600D02*
X93280700Y-117397600D01*
X95965700Y-115477600D02*
X95965700Y-117397600D01*
X93280700Y-115477600D02*
X95965700Y-115477600D01*
%TO.C,J1*%
X24520700Y-31815000D02*
X25370700Y-31815000D01*
X25370700Y-34140000D02*
X27760700Y-34140000D01*
X25370700Y-31815000D02*
X25370700Y-34140000D01*
X20150700Y-39985000D02*
X21000700Y-39985000D01*
X21000700Y-31815000D02*
X20150700Y-31815000D01*
X24520700Y-39985000D02*
X25370700Y-39985000D01*
X20150700Y-31815000D02*
X20150700Y-39985000D01*
X25370700Y-39985000D02*
X25370700Y-37660000D01*
D14*
%TO.C,U6*%
X132424600Y-72867600D02*
X132424600Y-72867600D01*
X135574600Y-71067600D02*
X132874600Y-71067600D01*
X135574600Y-73467600D02*
X132874600Y-73467600D01*
X135574600Y-72067600D02*
X135574600Y-72467600D01*
X132424600Y-72967600D02*
X132424600Y-72967600D01*
X132874600Y-72067600D02*
X132874600Y-72467600D01*
X132424600Y-72867600D02*
G75*
G03*
X132424600Y-72967600I0J-50000D01*
G01*
X132424600Y-72967600D02*
G75*
G03*
X132424600Y-72867600I0J50000D01*
G01*
D15*
%TO.C,S1*%
X33532000Y-73137600D02*
X33532000Y-73137600D01*
D14*
X34732000Y-73837600D02*
X39932000Y-73837600D01*
X34732000Y-68837600D02*
X34732000Y-68637600D01*
X39932000Y-68637600D02*
X39932000Y-68837600D01*
X34732000Y-69937600D02*
X34732000Y-72537600D01*
D15*
X33332000Y-73137600D02*
X33332000Y-73137600D01*
D14*
X39932000Y-69937600D02*
X39932000Y-72537600D01*
X34732000Y-73637600D02*
X34732000Y-73837600D01*
X34732000Y-68637600D02*
X39932000Y-68637600D01*
X39932000Y-73837600D02*
X39932000Y-73637600D01*
D15*
X33532000Y-73137600D02*
G75*
G03*
X33332000Y-73137600I-100000J0D01*
G01*
X33332000Y-73137600D02*
G75*
G03*
X33532000Y-73137600I100000J0D01*
G01*
D14*
%TO.C,U6*%
X25532000Y-13600000D02*
X25532000Y-13600000D01*
X25532000Y-13700000D02*
X25532000Y-13700000D01*
X28682000Y-11800000D02*
X25982000Y-11800000D01*
X28682000Y-12800000D02*
X28682000Y-13200000D01*
X28682000Y-14200000D02*
X25982000Y-14200000D01*
X25982000Y-12800000D02*
X25982000Y-13200000D01*
X25532000Y-13700000D02*
G75*
G03*
X25532000Y-13600000I0J50000D01*
G01*
X25532000Y-13600000D02*
G75*
G03*
X25532000Y-13700000I0J-50000D01*
G01*
D13*
%TO.C,J5*%
X106068319Y-93227600D02*
X103408319Y-93227600D01*
X106068319Y-93227600D02*
X106068319Y-100907600D01*
X106068319Y-100907600D02*
X103408319Y-100907600D01*
X106068319Y-91957600D02*
X106068319Y-90627600D01*
X103408319Y-93227600D02*
X103408319Y-100907600D01*
X106068319Y-90627600D02*
X104738319Y-90627600D01*
D15*
%TO.C,S1*%
X140424600Y-13870000D02*
X140424600Y-13870000D01*
D14*
X146824600Y-14570000D02*
X146824600Y-14370000D01*
X141624600Y-9570000D02*
X141624600Y-9370000D01*
X146824600Y-9370000D02*
X146824600Y-9570000D01*
X141624600Y-14570000D02*
X146824600Y-14570000D01*
X141624600Y-9370000D02*
X146824600Y-9370000D01*
X146824600Y-10670000D02*
X146824600Y-13270000D01*
D15*
X140224600Y-13870000D02*
X140224600Y-13870000D01*
D14*
X141624600Y-14370000D02*
X141624600Y-14570000D01*
X141624600Y-10670000D02*
X141624600Y-13270000D01*
D15*
X140424600Y-13870000D02*
G75*
G03*
X140224600Y-13870000I-100000J0D01*
G01*
X140224600Y-13870000D02*
G75*
G03*
X140424600Y-13870000I100000J0D01*
G01*
D13*
%TO.C,J4*%
X94800700Y-40710000D02*
X98350700Y-40710000D01*
X94800700Y-38560000D02*
X94800700Y-40710000D01*
X94800700Y-34860000D02*
X94800700Y-35460000D01*
X98350700Y-32410000D02*
X98350700Y-35310000D01*
X94800700Y-34560000D02*
X94800700Y-32410000D01*
X98350700Y-40710000D02*
X98350700Y-37810000D01*
X94800700Y-32410000D02*
X98350700Y-32410000D01*
X95550700Y-34860000D02*
X94800700Y-34860000D01*
%TD*%
%LPC*%
D16*
%TO.C,KiKit_MB_2_1*%
X112692600Y-32133800D03*
%TD*%
%TO.C,KiKit_MB_22_3*%
X182321000Y-67467600D03*
%TD*%
%TO.C,KiKit_MB_7_2*%
X115092600Y-40133800D03*
%TD*%
%TO.C,KiKit_MB_4_5*%
X77428400Y-8200000D03*
%TD*%
%TO.C,KiKit_MB_30_4*%
X2500000Y-124535200D03*
%TD*%
%TO.C,KiKit_MB_15_1*%
X38464200Y-67467600D03*
%TD*%
%TO.C,KiKit_MB_10_2*%
X181321000Y-8200000D03*
%TD*%
%TO.C,KiKit_MB_5_8*%
X40464200Y-65067600D03*
%TD*%
%TO.C,KiKit_MB_1_4*%
X8200000Y-38133800D03*
%TD*%
%TO.C,KiKit_MB_14_8*%
X112692600Y-98401400D03*
%TD*%
%TO.C,KiKit_MB_4_6*%
X78428400Y-8200000D03*
%TD*%
%TO.C,KiKit_MB_18_1*%
X82428400Y-124335200D03*
%TD*%
%TO.C,KiKit_MB_4_2*%
X74428400Y-8200000D03*
%TD*%
%TO.C,KiKit_MB_21_7*%
X151356800Y-67467600D03*
%TD*%
D17*
%TO.C,H2*%
X130826400Y-49333800D03*
%TD*%
D16*
%TO.C,KiKit_MB_28_6*%
X219785200Y-132035200D03*
%TD*%
%TO.C,KiKit_MB_15_9*%
X46464200Y-67467600D03*
%TD*%
%TO.C,KiKit_MB_16_2*%
X74428400Y-67467600D03*
%TD*%
%TO.C,KiKit_MB_4_4*%
X76428400Y-8200000D03*
%TD*%
%TO.C,KiKit_MB_19_1*%
X115092600Y-100401400D03*
%TD*%
%TO.C,KiKit_MB_8_2*%
X219585200Y-33133800D03*
%TD*%
%TO.C,KiKit_MB_17_4*%
X44464200Y-124335200D03*
%TD*%
%TO.C,KiKit_MB_19_9*%
X115092600Y-92401400D03*
%TD*%
%TO.C,KiKit_MB_11_7*%
X148356800Y-65067600D03*
%TD*%
%TO.C,KiKit_MB_13_1*%
X8200000Y-100401400D03*
%TD*%
%TO.C,KiKit_MB_7_4*%
X115092600Y-38133800D03*
%TD*%
%TO.C,KiKit_MB_23_7*%
X148356800Y-124335200D03*
%TD*%
D17*
%TO.C,H1*%
X96958800Y-108601400D03*
%TD*%
D16*
%TO.C,KiKit_MB_8_5*%
X219585200Y-36133800D03*
%TD*%
%TO.C,KiKit_MB_4_10*%
X82428400Y-8200000D03*
%TD*%
%TO.C,KiKit_MB_5_7*%
X41464200Y-65067600D03*
%TD*%
%TO.C,KiKit_MB_1_1*%
X8200000Y-41133800D03*
%TD*%
%TO.C,KiKit_MB_2_9*%
X112692600Y-40133800D03*
%TD*%
%TO.C,KiKit_MB_20_1*%
X219585200Y-91401400D03*
%TD*%
%TO.C,KiKit_MB_12_5*%
X185321000Y-65067600D03*
%TD*%
%TO.C,KiKit_MB_23_4*%
X151356800Y-124335200D03*
%TD*%
%TO.C,KiKit_MB_3_9*%
X46464200Y-8200000D03*
%TD*%
%TO.C,KiKit_MB_21_10*%
X154356800Y-67467600D03*
%TD*%
%TO.C,KiKit_MB_22_8*%
X187321000Y-67467600D03*
%TD*%
%TO.C,KiKit_MB_23_10*%
X145356800Y-124335200D03*
%TD*%
%TO.C,KiKit_MB_10_10*%
X189321000Y-8200000D03*
%TD*%
%TO.C,KiKit_MB_16_3*%
X75428400Y-67467600D03*
%TD*%
%TO.C,KiKit_MB_12_3*%
X187321000Y-65067600D03*
%TD*%
%TO.C,KiKit_MB_14_10*%
X112692600Y-100401400D03*
%TD*%
D17*
%TO.C,H1*%
X203851400Y-49333800D03*
%TD*%
D16*
%TO.C,KiKit_MB_23_8*%
X147356800Y-124335200D03*
%TD*%
%TO.C,KiKit_MB_15_8*%
X45464200Y-67467600D03*
%TD*%
%TO.C,KiKit_MB_2_10*%
X112692600Y-41133800D03*
%TD*%
%TO.C,KiKit_MB_11_1*%
X154356800Y-65067600D03*
%TD*%
%TO.C,KiKit_MB_12_2*%
X188321000Y-65067600D03*
%TD*%
%TO.C,KiKit_MB_14_6*%
X112692600Y-96401400D03*
%TD*%
%TO.C,KiKit_MB_19_4*%
X115092600Y-97401400D03*
%TD*%
%TO.C,KiKit_MB_29_5*%
X3500000Y-8000000D03*
%TD*%
%TO.C,KiKit_MB_9_1*%
X145356800Y-8200000D03*
%TD*%
%TO.C,KiKit_MB_13_6*%
X8200000Y-95401400D03*
%TD*%
%TO.C,KiKit_MB_22_10*%
X189321000Y-67467600D03*
%TD*%
%TO.C,KiKit_MB_8_4*%
X219585200Y-35133800D03*
%TD*%
%TO.C,KiKit_MB_14_3*%
X112692600Y-93401400D03*
%TD*%
%TO.C,KiKit_MB_27_3*%
X8000000Y-129035200D03*
%TD*%
%TO.C,KiKit_MB_27_5*%
X8000000Y-131035200D03*
%TD*%
%TO.C,KiKit_MB_20_2*%
X219585200Y-92401400D03*
%TD*%
%TO.C,KiKit_MB_3_5*%
X42464200Y-8200000D03*
%TD*%
%TO.C,KiKit_MB_20_7*%
X219585200Y-97401400D03*
%TD*%
%TO.C,KiKit_MB_24_6*%
X184321000Y-124335200D03*
%TD*%
%TO.C,KiKit_MB_14_7*%
X112692600Y-97401400D03*
%TD*%
%TO.C,KiKit_MB_23_2*%
X153356800Y-124335200D03*
%TD*%
%TO.C,KiKit_MB_31_4*%
X225285200Y-8000000D03*
%TD*%
%TO.C,KiKit_MB_10_8*%
X187321000Y-8200000D03*
%TD*%
%TO.C,KiKit_MB_25_4*%
X8000000Y-2500000D03*
%TD*%
%TO.C,KiKit_MB_7_5*%
X115092600Y-37133800D03*
%TD*%
%TO.C,KiKit_MB_18_4*%
X79428400Y-124335200D03*
%TD*%
%TO.C,KiKit_MB_19_7*%
X115092600Y-94401400D03*
%TD*%
%TO.C,KiKit_MB_7_9*%
X115092600Y-33133800D03*
%TD*%
D17*
%TO.C,H4*%
X203851400Y-23933800D03*
%TD*%
D16*
%TO.C,KiKit_MB_1_5*%
X8200000Y-37133800D03*
%TD*%
%TO.C,KiKit_MB_1_3*%
X8200000Y-39133800D03*
%TD*%
%TO.C,KiKit_MB_31_3*%
X224285200Y-8000000D03*
%TD*%
%TO.C,KiKit_MB_2_7*%
X112692600Y-38133800D03*
%TD*%
%TO.C,KiKit_MB_16_5*%
X77428400Y-67467600D03*
%TD*%
%TO.C,KiKit_MB_21_4*%
X148356800Y-67467600D03*
%TD*%
%TO.C,KiKit_MB_7_3*%
X115092600Y-39133800D03*
%TD*%
D17*
%TO.C,H4*%
X96958800Y-23933800D03*
%TD*%
D16*
%TO.C,KiKit_MB_26_2*%
X219785200Y-500000D03*
%TD*%
%TO.C,KiKit_MB_13_8*%
X8200000Y-93401400D03*
%TD*%
%TO.C,KiKit_MB_12_10*%
X180321000Y-65067600D03*
%TD*%
%TO.C,KiKit_MB_30_5*%
X3500000Y-124535200D03*
%TD*%
%TO.C,KiKit_MB_24_9*%
X181321000Y-124335200D03*
%TD*%
%TO.C,KiKit_MB_18_7*%
X76428400Y-124335200D03*
%TD*%
%TO.C,KiKit_MB_16_8*%
X80428400Y-67467600D03*
%TD*%
%TO.C,KiKit_MB_28_2*%
X219785200Y-128035200D03*
%TD*%
%TO.C,KiKit_MB_11_9*%
X146356800Y-65067600D03*
%TD*%
%TO.C,KiKit_MB_16_6*%
X78428400Y-67467600D03*
%TD*%
%TO.C,KiKit_MB_22_5*%
X184321000Y-67467600D03*
%TD*%
%TO.C,KiKit_MB_5_5*%
X43464200Y-65067600D03*
%TD*%
D17*
%TO.C,H3*%
X130826400Y-23933800D03*
%TD*%
D16*
%TO.C,KiKit_MB_18_8*%
X75428400Y-124335200D03*
%TD*%
%TO.C,KiKit_MB_2_2*%
X112692600Y-33133800D03*
%TD*%
%TO.C,KiKit_MB_15_7*%
X44464200Y-67467600D03*
%TD*%
%TO.C,KiKit_MB_19_3*%
X115092600Y-98401400D03*
%TD*%
%TO.C,KiKit_MB_21_9*%
X153356800Y-67467600D03*
%TD*%
D17*
%TO.C,H2*%
X130826400Y-108601400D03*
%TD*%
D16*
%TO.C,KiKit_MB_11_2*%
X153356800Y-65067600D03*
%TD*%
%TO.C,KiKit_MB_20_9*%
X219585200Y-99401400D03*
%TD*%
%TO.C,KiKit_MB_11_10*%
X145356800Y-65067600D03*
%TD*%
%TO.C,KiKit_MB_8_7*%
X219585200Y-38133800D03*
%TD*%
%TO.C,KiKit_MB_22_4*%
X183321000Y-67467600D03*
%TD*%
%TO.C,KiKit_MB_1_7*%
X8200000Y-35133800D03*
%TD*%
%TO.C,KiKit_MB_22_7*%
X186321000Y-67467600D03*
%TD*%
%TO.C,KiKit_MB_24_7*%
X183321000Y-124335200D03*
%TD*%
%TO.C,KiKit_MB_10_1*%
X180321000Y-8200000D03*
%TD*%
%TO.C,KiKit_MB_2_3*%
X112692600Y-34133800D03*
%TD*%
%TO.C,KiKit_MB_21_6*%
X150356800Y-67467600D03*
%TD*%
D17*
%TO.C,H1*%
X96958800Y-49333800D03*
%TD*%
D16*
%TO.C,KiKit_MB_26_5*%
X219785200Y-3500000D03*
%TD*%
%TO.C,KiKit_MB_11_4*%
X151356800Y-65067600D03*
%TD*%
D17*
%TO.C,H2*%
X23933800Y-49333800D03*
%TD*%
D16*
%TO.C,KiKit_MB_17_7*%
X41464200Y-124335200D03*
%TD*%
%TO.C,KiKit_MB_12_1*%
X189321000Y-65067600D03*
%TD*%
%TO.C,KiKit_MB_2_5*%
X112692600Y-36133800D03*
%TD*%
%TO.C,KiKit_MB_5_9*%
X39464200Y-65067600D03*
%TD*%
%TO.C,KiKit_MB_16_9*%
X81428400Y-67467600D03*
%TD*%
%TO.C,KiKit_MB_6_2*%
X81428400Y-65067600D03*
%TD*%
%TO.C,KiKit_MB_3_10*%
X47464200Y-8200000D03*
%TD*%
%TO.C,KiKit_MB_29_4*%
X2500000Y-8000000D03*
%TD*%
%TO.C,KiKit_MB_25_6*%
X8000000Y-4500000D03*
%TD*%
%TO.C,KiKit_MB_10_7*%
X186321000Y-8200000D03*
%TD*%
%TO.C,KiKit_MB_26_6*%
X219785200Y-4500000D03*
%TD*%
%TO.C,KiKit_MB_31_2*%
X223285200Y-8000000D03*
%TD*%
%TO.C,KiKit_MB_25_5*%
X8000000Y-3500000D03*
%TD*%
%TO.C,KiKit_MB_12_7*%
X183321000Y-65067600D03*
%TD*%
%TO.C,KiKit_MB_19_5*%
X115092600Y-96401400D03*
%TD*%
%TO.C,KiKit_MB_6_10*%
X73428400Y-65067600D03*
%TD*%
%TO.C,KiKit_MB_3_2*%
X39464200Y-8200000D03*
%TD*%
%TO.C,KiKit_MB_21_8*%
X152356800Y-67467600D03*
%TD*%
%TO.C,KiKit_MB_6_6*%
X77428400Y-65067600D03*
%TD*%
%TO.C,KiKit_MB_1_6*%
X8200000Y-36133800D03*
%TD*%
%TO.C,KiKit_MB_14_1*%
X112692600Y-91401400D03*
%TD*%
%TO.C,KiKit_MB_1_9*%
X8200000Y-33133800D03*
%TD*%
%TO.C,KiKit_MB_23_6*%
X149356800Y-124335200D03*
%TD*%
%TO.C,KiKit_MB_17_9*%
X39464200Y-124335200D03*
%TD*%
%TO.C,KiKit_MB_13_3*%
X8200000Y-98401400D03*
%TD*%
%TO.C,KiKit_MB_10_4*%
X183321000Y-8200000D03*
%TD*%
%TO.C,KiKit_MB_18_6*%
X77428400Y-124335200D03*
%TD*%
%TO.C,KiKit_MB_26_4*%
X219785200Y-2500000D03*
%TD*%
%TO.C,KiKit_MB_22_6*%
X185321000Y-67467600D03*
%TD*%
%TO.C,KiKit_MB_7_10*%
X115092600Y-32133800D03*
%TD*%
%TO.C,KiKit_MB_20_4*%
X219585200Y-94401400D03*
%TD*%
%TO.C,KiKit_MB_3_1*%
X38464200Y-8200000D03*
%TD*%
%TO.C,KiKit_MB_13_4*%
X8200000Y-97401400D03*
%TD*%
%TO.C,KiKit_MB_30_2*%
X500000Y-124535200D03*
%TD*%
%TO.C,KiKit_MB_14_4*%
X112692600Y-94401400D03*
%TD*%
%TO.C,KiKit_MB_9_10*%
X154356800Y-8200000D03*
%TD*%
%TO.C,KiKit_MB_12_9*%
X181321000Y-65067600D03*
%TD*%
%TO.C,KiKit_MB_13_10*%
X8200000Y-91401400D03*
%TD*%
%TO.C,KiKit_MB_24_8*%
X182321000Y-124335200D03*
%TD*%
%TO.C,KiKit_MB_27_6*%
X8000000Y-132035200D03*
%TD*%
%TO.C,KiKit_MB_10_5*%
X184321000Y-8200000D03*
%TD*%
%TO.C,KiKit_MB_28_3*%
X219785200Y-129035200D03*
%TD*%
%TO.C,KiKit_MB_15_6*%
X43464200Y-67467600D03*
%TD*%
%TO.C,KiKit_MB_6_5*%
X78428400Y-65067600D03*
%TD*%
%TO.C,KiKit_MB_4_3*%
X75428400Y-8200000D03*
%TD*%
%TO.C,KiKit_MB_20_3*%
X219585200Y-93401400D03*
%TD*%
%TO.C,KiKit_MB_6_4*%
X79428400Y-65067600D03*
%TD*%
%TO.C,KiKit_MB_4_1*%
X73428400Y-8200000D03*
%TD*%
%TO.C,KiKit_MB_32_3*%
X224285200Y-124535200D03*
%TD*%
D17*
%TO.C,H4*%
X96958800Y-83201400D03*
%TD*%
D16*
%TO.C,KiKit_MB_19_10*%
X115092600Y-91401400D03*
%TD*%
%TO.C,KiKit_MB_7_6*%
X115092600Y-36133800D03*
%TD*%
%TO.C,KiKit_MB_20_5*%
X219585200Y-95401400D03*
%TD*%
%TO.C,KiKit_MB_19_6*%
X115092600Y-95401400D03*
%TD*%
%TO.C,KiKit_MB_27_4*%
X8000000Y-130035200D03*
%TD*%
%TO.C,KiKit_MB_5_2*%
X46464200Y-65067600D03*
%TD*%
%TO.C,KiKit_MB_30_6*%
X4500000Y-124535200D03*
%TD*%
%TO.C,KiKit_MB_14_5*%
X112692600Y-95401400D03*
%TD*%
%TO.C,KiKit_MB_31_5*%
X226285200Y-8000000D03*
%TD*%
D17*
%TO.C,H2*%
X23933800Y-108601400D03*
%TD*%
D16*
%TO.C,KiKit_MB_17_2*%
X46464200Y-124335200D03*
%TD*%
%TO.C,KiKit_MB_11_8*%
X147356800Y-65067600D03*
%TD*%
%TO.C,KiKit_MB_15_2*%
X39464200Y-67467600D03*
%TD*%
%TO.C,KiKit_MB_17_1*%
X47464200Y-124335200D03*
%TD*%
%TO.C,KiKit_MB_9_6*%
X150356800Y-8200000D03*
%TD*%
%TO.C,KiKit_MB_21_2*%
X146356800Y-67467600D03*
%TD*%
%TO.C,KiKit_MB_18_9*%
X74428400Y-124335200D03*
%TD*%
%TO.C,KiKit_MB_26_3*%
X219785200Y-1500000D03*
%TD*%
%TO.C,KiKit_MB_17_5*%
X43464200Y-124335200D03*
%TD*%
%TO.C,KiKit_MB_32_2*%
X223285200Y-124535200D03*
%TD*%
%TO.C,KiKit_MB_10_9*%
X188321000Y-8200000D03*
%TD*%
%TO.C,KiKit_MB_28_4*%
X219785200Y-130035200D03*
%TD*%
%TO.C,KiKit_MB_6_1*%
X82428400Y-65067600D03*
%TD*%
%TO.C,KiKit_MB_19_8*%
X115092600Y-93401400D03*
%TD*%
%TO.C,KiKit_MB_18_10*%
X73428400Y-124335200D03*
%TD*%
%TO.C,KiKit_MB_13_5*%
X8200000Y-96401400D03*
%TD*%
%TO.C,KiKit_MB_21_3*%
X147356800Y-67467600D03*
%TD*%
%TO.C,KiKit_MB_3_6*%
X43464200Y-8200000D03*
%TD*%
%TO.C,KiKit_MB_15_5*%
X42464200Y-67467600D03*
%TD*%
%TO.C,KiKit_MB_3_4*%
X41464200Y-8200000D03*
%TD*%
%TO.C,KiKit_MB_27_2*%
X8000000Y-128035200D03*
%TD*%
%TO.C,KiKit_MB_31_6*%
X227285200Y-8000000D03*
%TD*%
%TO.C,KiKit_MB_3_7*%
X44464200Y-8200000D03*
%TD*%
%TO.C,KiKit_MB_23_1*%
X154356800Y-124335200D03*
%TD*%
%TO.C,KiKit_MB_13_9*%
X8200000Y-92401400D03*
%TD*%
%TO.C,KiKit_MB_19_2*%
X115092600Y-99401400D03*
%TD*%
%TO.C,KiKit_MB_17_3*%
X45464200Y-124335200D03*
%TD*%
%TO.C,KiKit_MB_8_3*%
X219585200Y-34133800D03*
%TD*%
%TO.C,KiKit_MB_24_3*%
X187321000Y-124335200D03*
%TD*%
%TO.C,KiKit_MB_20_10*%
X219585200Y-100401400D03*
%TD*%
%TO.C,KiKit_MB_6_9*%
X74428400Y-65067600D03*
%TD*%
%TO.C,KiKit_MB_15_10*%
X47464200Y-67467600D03*
%TD*%
%TO.C,KiKit_MB_12_8*%
X182321000Y-65067600D03*
%TD*%
%TO.C,KiKit_MB_3_3*%
X40464200Y-8200000D03*
%TD*%
%TO.C,KiKit_MB_9_9*%
X153356800Y-8200000D03*
%TD*%
%TO.C,KiKit_MB_25_2*%
X8000000Y-500000D03*
%TD*%
%TO.C,KiKit_MB_5_6*%
X42464200Y-65067600D03*
%TD*%
%TO.C,KiKit_MB_8_8*%
X219585200Y-39133800D03*
%TD*%
%TO.C,KiKit_MB_24_5*%
X185321000Y-124335200D03*
%TD*%
%TO.C,KiKit_MB_22_2*%
X181321000Y-67467600D03*
%TD*%
%TO.C,KiKit_MB_14_2*%
X112692600Y-92401400D03*
%TD*%
%TO.C,KiKit_MB_12_4*%
X186321000Y-65067600D03*
%TD*%
%TO.C,KiKit_MB_8_10*%
X219585200Y-41133800D03*
%TD*%
%TO.C,KiKit_MB_12_6*%
X184321000Y-65067600D03*
%TD*%
%TO.C,KiKit_MB_28_5*%
X219785200Y-131035200D03*
%TD*%
%TO.C,KiKit_MB_29_3*%
X1500000Y-8000000D03*
%TD*%
%TO.C,KiKit_MB_9_2*%
X146356800Y-8200000D03*
%TD*%
%TO.C,KiKit_MB_24_2*%
X188321000Y-124335200D03*
%TD*%
%TO.C,KiKit_MB_18_2*%
X81428400Y-124335200D03*
%TD*%
%TO.C,KiKit_MB_11_6*%
X149356800Y-65067600D03*
%TD*%
%TO.C,KiKit_MB_8_9*%
X219585200Y-40133800D03*
%TD*%
%TO.C,KiKit_MB_18_3*%
X80428400Y-124335200D03*
%TD*%
%TO.C,KiKit_MB_29_2*%
X500000Y-8000000D03*
%TD*%
%TO.C,KiKit_MB_9_3*%
X147356800Y-8200000D03*
%TD*%
%TO.C,KiKit_MB_15_4*%
X41464200Y-67467600D03*
%TD*%
%TO.C,KiKit_MB_9_5*%
X149356800Y-8200000D03*
%TD*%
D17*
%TO.C,H3*%
X130826400Y-83201400D03*
%TD*%
D16*
%TO.C,KiKit_MB_4_8*%
X80428400Y-8200000D03*
%TD*%
%TO.C,KiKit_MB_2_6*%
X112692600Y-37133800D03*
%TD*%
%TO.C,KiKit_MB_17_6*%
X42464200Y-124335200D03*
%TD*%
%TO.C,KiKit_MB_21_5*%
X149356800Y-67467600D03*
%TD*%
%TO.C,KiKit_MB_14_9*%
X112692600Y-99401400D03*
%TD*%
%TO.C,KiKit_MB_10_3*%
X182321000Y-8200000D03*
%TD*%
%TO.C,KiKit_MB_32_5*%
X226285200Y-124535200D03*
%TD*%
%TO.C,KiKit_MB_6_3*%
X80428400Y-65067600D03*
%TD*%
%TO.C,KiKit_MB_6_7*%
X76428400Y-65067600D03*
%TD*%
%TO.C,KiKit_MB_21_1*%
X145356800Y-67467600D03*
%TD*%
%TO.C,KiKit_MB_15_3*%
X40464200Y-67467600D03*
%TD*%
D17*
%TO.C,H3*%
X23933800Y-83201400D03*
%TD*%
%TO.C,H3*%
X23933800Y-23933800D03*
%TD*%
D16*
%TO.C,KiKit_MB_17_8*%
X40464200Y-124335200D03*
%TD*%
%TO.C,KiKit_MB_16_7*%
X79428400Y-67467600D03*
%TD*%
D17*
%TO.C,H4*%
X203851400Y-83201400D03*
%TD*%
%TO.C,H1*%
X203851400Y-108601400D03*
%TD*%
D16*
%TO.C,KiKit_MB_5_4*%
X44464200Y-65067600D03*
%TD*%
%TO.C,KiKit_MB_24_1*%
X189321000Y-124335200D03*
%TD*%
%TO.C,KiKit_MB_32_6*%
X227285200Y-124535200D03*
%TD*%
%TO.C,KiKit_MB_7_8*%
X115092600Y-34133800D03*
%TD*%
%TO.C,KiKit_MB_8_1*%
X219585200Y-32133800D03*
%TD*%
%TO.C,KiKit_MB_1_10*%
X8200000Y-32133800D03*
%TD*%
%TO.C,KiKit_MB_20_8*%
X219585200Y-98401400D03*
%TD*%
%TO.C,KiKit_MB_5_1*%
X47464200Y-65067600D03*
%TD*%
%TO.C,KiKit_MB_20_6*%
X219585200Y-96401400D03*
%TD*%
%TO.C,KiKit_MB_29_6*%
X4500000Y-8000000D03*
%TD*%
%TO.C,KiKit_MB_4_7*%
X79428400Y-8200000D03*
%TD*%
%TO.C,KiKit_MB_5_3*%
X45464200Y-65067600D03*
%TD*%
%TO.C,KiKit_MB_9_4*%
X148356800Y-8200000D03*
%TD*%
%TO.C,KiKit_MB_13_7*%
X8200000Y-94401400D03*
%TD*%
%TO.C,KiKit_MB_9_7*%
X151356800Y-8200000D03*
%TD*%
%TO.C,KiKit_MB_11_3*%
X152356800Y-65067600D03*
%TD*%
%TO.C,KiKit_MB_8_6*%
X219585200Y-37133800D03*
%TD*%
%TO.C,KiKit_MB_24_4*%
X186321000Y-124335200D03*
%TD*%
%TO.C,KiKit_MB_2_4*%
X112692600Y-35133800D03*
%TD*%
%TO.C,KiKit_MB_4_9*%
X81428400Y-8200000D03*
%TD*%
%TO.C,KiKit_MB_7_7*%
X115092600Y-35133800D03*
%TD*%
%TO.C,KiKit_MB_6_8*%
X75428400Y-65067600D03*
%TD*%
%TO.C,KiKit_MB_25_3*%
X8000000Y-1500000D03*
%TD*%
%TO.C,KiKit_MB_23_3*%
X152356800Y-124335200D03*
%TD*%
%TO.C,KiKit_MB_16_1*%
X73428400Y-67467600D03*
%TD*%
%TO.C,KiKit_MB_18_5*%
X78428400Y-124335200D03*
%TD*%
%TO.C,KiKit_MB_3_8*%
X45464200Y-8200000D03*
%TD*%
%TO.C,KiKit_MB_7_1*%
X115092600Y-41133800D03*
%TD*%
%TO.C,KiKit_MB_5_10*%
X38464200Y-65067600D03*
%TD*%
%TO.C,KiKit_MB_2_8*%
X112692600Y-39133800D03*
%TD*%
%TO.C,KiKit_MB_16_4*%
X76428400Y-67467600D03*
%TD*%
%TO.C,KiKit_MB_32_4*%
X225285200Y-124535200D03*
%TD*%
%TO.C,KiKit_MB_1_8*%
X8200000Y-34133800D03*
%TD*%
%TO.C,KiKit_MB_30_3*%
X1500000Y-124535200D03*
%TD*%
%TO.C,KiKit_MB_10_6*%
X185321000Y-8200000D03*
%TD*%
%TO.C,KiKit_MB_13_2*%
X8200000Y-99401400D03*
%TD*%
%TO.C,KiKit_MB_9_8*%
X152356800Y-8200000D03*
%TD*%
%TO.C,KiKit_MB_24_10*%
X180321000Y-124335200D03*
%TD*%
%TO.C,KiKit_MB_1_2*%
X8200000Y-40133800D03*
%TD*%
%TO.C,KiKit_MB_22_1*%
X180321000Y-67467600D03*
%TD*%
%TO.C,KiKit_MB_23_5*%
X150356800Y-124335200D03*
%TD*%
%TO.C,KiKit_MB_11_5*%
X150356800Y-65067600D03*
%TD*%
%TO.C,KiKit_MB_16_10*%
X82428400Y-67467600D03*
%TD*%
%TO.C,KiKit_MB_22_9*%
X188321000Y-67467600D03*
%TD*%
%TO.C,KiKit_MB_17_10*%
X38464200Y-124335200D03*
%TD*%
%TO.C,KiKit_MB_23_9*%
X146356800Y-124335200D03*
%TD*%
D18*
%TO.C,D2*%
X95218200Y-57170000D03*
X93343200Y-57170000D03*
%TD*%
D19*
%TO.C,U6*%
X26232000Y-72917600D03*
X26232000Y-71617600D03*
X28432000Y-71617600D03*
X28432000Y-72917600D03*
%TD*%
D20*
%TO.C,J6*%
X60380700Y-115097600D03*
D21*
X60380700Y-85257600D03*
%TD*%
D22*
%TO.C,S2*%
X193453300Y-69387600D03*
X187453300Y-69387600D03*
X193453300Y-73087600D03*
X187453300Y-73087600D03*
%TD*%
%TO.C,S1*%
X141224600Y-73087600D03*
X147224600Y-73087600D03*
X141224600Y-69387600D03*
X147224600Y-69387600D03*
%TD*%
D23*
%TO.C,J5*%
X211630919Y-91957600D03*
D24*
X211630919Y-94497600D03*
X211630919Y-97037600D03*
X211630919Y-99577600D03*
%TD*%
D25*
%TO.C,J4*%
X95800700Y-94527600D03*
X95800700Y-95177600D03*
X95800700Y-95827600D03*
X95800700Y-96477600D03*
X95800700Y-97127600D03*
D26*
X95550700Y-98627600D03*
D27*
X97700700Y-95827600D03*
D26*
X95550700Y-93027600D03*
%TD*%
D20*
%TO.C,J6*%
X60380700Y-55830000D03*
D21*
X60380700Y-25990000D03*
%TD*%
D23*
%TO.C,J3*%
X122266633Y-30090000D03*
D24*
X122266633Y-32630000D03*
X122266633Y-35170000D03*
X122266633Y-37710000D03*
X122266633Y-40250000D03*
X122266633Y-42790000D03*
%TD*%
D22*
%TO.C,S2*%
X86560700Y-10120000D03*
X80560700Y-10120000D03*
X86560700Y-13820000D03*
X80560700Y-13820000D03*
%TD*%
D18*
%TO.C,D2*%
X202110800Y-116437600D03*
X200235800Y-116437600D03*
%TD*%
D25*
%TO.C,J4*%
X202693300Y-94527600D03*
X202693300Y-95177600D03*
X202693300Y-95827600D03*
X202693300Y-96477600D03*
X202693300Y-97127600D03*
D27*
X204593300Y-95827600D03*
D26*
X202443300Y-98627600D03*
X202443300Y-93027600D03*
%TD*%
D23*
%TO.C,J5*%
X104738319Y-32690000D03*
D24*
X104738319Y-35230000D03*
X104738319Y-37770000D03*
X104738319Y-40310000D03*
%TD*%
D23*
%TO.C,J3*%
X122266633Y-89357600D03*
D24*
X122266633Y-91897600D03*
X122266633Y-94437600D03*
X122266633Y-96977600D03*
X122266633Y-99517600D03*
X122266633Y-102057600D03*
%TD*%
D22*
%TO.C,S2*%
X193453300Y-10120000D03*
X187453300Y-10120000D03*
X193453300Y-13820000D03*
X187453300Y-13820000D03*
%TD*%
%TO.C,S2*%
X86560700Y-69387600D03*
X80560700Y-69387600D03*
X86560700Y-73087600D03*
X80560700Y-73087600D03*
%TD*%
D23*
%TO.C,J5*%
X211630919Y-32690000D03*
D24*
X211630919Y-35230000D03*
X211630919Y-37770000D03*
X211630919Y-40310000D03*
%TD*%
D23*
%TO.C,J3*%
X15374033Y-30090000D03*
D24*
X15374033Y-32630000D03*
X15374033Y-35170000D03*
X15374033Y-37710000D03*
X15374033Y-40250000D03*
X15374033Y-42790000D03*
%TD*%
D20*
%TO.C,J6*%
X167273300Y-55830000D03*
D21*
X167273300Y-25990000D03*
%TD*%
D28*
%TO.C,J1*%
X131903300Y-34900000D03*
X131903300Y-36900000D03*
D29*
X129653300Y-32500000D03*
X129653300Y-39300000D03*
%TD*%
D18*
%TO.C,D2*%
X202110800Y-57170000D03*
X200235800Y-57170000D03*
%TD*%
D19*
%TO.C,U6*%
X133124600Y-13650000D03*
X133124600Y-12350000D03*
X135324600Y-12350000D03*
X135324600Y-13650000D03*
%TD*%
D28*
%TO.C,J1*%
X25010700Y-94167600D03*
X25010700Y-96167600D03*
D29*
X22760700Y-91767600D03*
X22760700Y-98567600D03*
%TD*%
D20*
%TO.C,J6*%
X167273300Y-115097600D03*
D21*
X167273300Y-85257600D03*
%TD*%
D23*
%TO.C,J3*%
X15374033Y-89357600D03*
D24*
X15374033Y-91897600D03*
X15374033Y-94437600D03*
X15374033Y-96977600D03*
X15374033Y-99517600D03*
X15374033Y-102057600D03*
%TD*%
D22*
%TO.C,S1*%
X34332000Y-13820000D03*
X40332000Y-13820000D03*
X34332000Y-10120000D03*
X40332000Y-10120000D03*
%TD*%
D25*
%TO.C,J4*%
X202693300Y-35260000D03*
X202693300Y-35910000D03*
X202693300Y-36560000D03*
X202693300Y-37210000D03*
X202693300Y-37860000D03*
D26*
X202443300Y-39360000D03*
D27*
X204593300Y-36560000D03*
D26*
X202443300Y-33760000D03*
%TD*%
D28*
%TO.C,J1*%
X131903300Y-94167600D03*
X131903300Y-96167600D03*
D29*
X129653300Y-91767600D03*
X129653300Y-98567600D03*
%TD*%
D18*
%TO.C,D2*%
X95218200Y-116437600D03*
X93343200Y-116437600D03*
%TD*%
D28*
%TO.C,J1*%
X25010700Y-34900000D03*
X25010700Y-36900000D03*
D29*
X22760700Y-39300000D03*
X22760700Y-32500000D03*
%TD*%
D19*
%TO.C,U6*%
X133124600Y-72917600D03*
X133124600Y-71617600D03*
X135324600Y-71617600D03*
X135324600Y-72917600D03*
%TD*%
D22*
%TO.C,S1*%
X34332000Y-73087600D03*
X40332000Y-73087600D03*
X34332000Y-69387600D03*
X40332000Y-69387600D03*
%TD*%
D19*
%TO.C,U6*%
X26232000Y-13650000D03*
X26232000Y-12350000D03*
X28432000Y-12350000D03*
X28432000Y-13650000D03*
%TD*%
D23*
%TO.C,J5*%
X104738319Y-91957600D03*
D24*
X104738319Y-94497600D03*
X104738319Y-97037600D03*
X104738319Y-99577600D03*
%TD*%
D22*
%TO.C,S1*%
X141224600Y-13820000D03*
X147224600Y-13820000D03*
X141224600Y-10120000D03*
X147224600Y-10120000D03*
%TD*%
D25*
%TO.C,J4*%
X95800700Y-35260000D03*
X95800700Y-35910000D03*
X95800700Y-36560000D03*
X95800700Y-37210000D03*
X95800700Y-37860000D03*
D26*
X95550700Y-33760000D03*
X95550700Y-39360000D03*
D27*
X97700700Y-36560000D03*
%TD*%
M02*
