G04 #@! TF.GenerationSoftware,KiCad,Pcbnew,5.1.7-a382d34a8~87~ubuntu18.04.1*
G04 #@! TF.CreationDate,2020-10-16T10:59:29-04:00*
G04 #@! TF.ProjectId,water_meter,77617465-725f-46d6-9574-65722e6b6963,rev?*
G04 #@! TF.SameCoordinates,Original*
G04 #@! TF.FileFunction,Legend,Top*
G04 #@! TF.FilePolarity,Positive*
%FSLAX46Y46*%
G04 Gerber Fmt 4.6, Leading zero omitted, Abs format (unit mm)*
G04 Created by KiCad (PCBNEW 5.1.7-a382d34a8~87~ubuntu18.04.1) date 2020-10-16 10:59:29*
%MOMM*%
%LPD*%
G01*
G04 APERTURE LIST*
%ADD10C,0.100000*%
%ADD11C,0.150000*%
%ADD12C,0.200000*%
%ADD13C,0.120000*%
%ADD14C,0.152400*%
%ADD15C,0.015000*%
G04 APERTURE END LIST*
D10*
X160052380Y-145733333D02*
X160052380Y-145161904D01*
X161052380Y-145447619D02*
X160052380Y-145447619D01*
X161052380Y-144828571D02*
X160052380Y-144828571D01*
X160766666Y-144495238D01*
X160052380Y-144161904D01*
X161052380Y-144161904D01*
X161004761Y-143733333D02*
X161052380Y-143590476D01*
X161052380Y-143352380D01*
X161004761Y-143257142D01*
X160957142Y-143209523D01*
X160861904Y-143161904D01*
X160766666Y-143161904D01*
X160671428Y-143209523D01*
X160623809Y-143257142D01*
X160576190Y-143352380D01*
X160528571Y-143542857D01*
X160480952Y-143638095D01*
X160433333Y-143685714D01*
X160338095Y-143733333D01*
X160242857Y-143733333D01*
X160147619Y-143685714D01*
X160100000Y-143638095D01*
X160052380Y-143542857D01*
X160052380Y-143304761D01*
X160100000Y-143161904D01*
X157452380Y-145823809D02*
X157452380Y-145252380D01*
X158452380Y-145538095D02*
X157452380Y-145538095D01*
X158452380Y-144919047D02*
X157452380Y-144919047D01*
X157452380Y-144680952D01*
X157500000Y-144538095D01*
X157595238Y-144442857D01*
X157690476Y-144395238D01*
X157880952Y-144347619D01*
X158023809Y-144347619D01*
X158214285Y-144395238D01*
X158309523Y-144442857D01*
X158404761Y-144538095D01*
X158452380Y-144680952D01*
X158452380Y-144919047D01*
X158452380Y-143919047D02*
X157452380Y-143919047D01*
X155052380Y-145709523D02*
X155052380Y-145138095D01*
X156052380Y-145423809D02*
X155052380Y-145423809D01*
X156052380Y-144804761D02*
X155052380Y-144804761D01*
X155052380Y-144566666D01*
X155100000Y-144423809D01*
X155195238Y-144328571D01*
X155290476Y-144280952D01*
X155480952Y-144233333D01*
X155623809Y-144233333D01*
X155814285Y-144280952D01*
X155909523Y-144328571D01*
X156004761Y-144423809D01*
X156052380Y-144566666D01*
X156052380Y-144804761D01*
X155052380Y-143614285D02*
X155052380Y-143423809D01*
X155100000Y-143328571D01*
X155195238Y-143233333D01*
X155385714Y-143185714D01*
X155719047Y-143185714D01*
X155909523Y-143233333D01*
X156004761Y-143328571D01*
X156052380Y-143423809D01*
X156052380Y-143614285D01*
X156004761Y-143709523D01*
X155909523Y-143804761D01*
X155719047Y-143852380D01*
X155385714Y-143852380D01*
X155195238Y-143804761D01*
X155100000Y-143709523D01*
X155052380Y-143614285D01*
X152452380Y-145685714D02*
X152452380Y-145114285D01*
X153452380Y-145400000D02*
X152452380Y-145400000D01*
X153357142Y-144209523D02*
X153404761Y-144257142D01*
X153452380Y-144400000D01*
X153452380Y-144495238D01*
X153404761Y-144638095D01*
X153309523Y-144733333D01*
X153214285Y-144780952D01*
X153023809Y-144828571D01*
X152880952Y-144828571D01*
X152690476Y-144780952D01*
X152595238Y-144733333D01*
X152500000Y-144638095D01*
X152452380Y-144495238D01*
X152452380Y-144400000D01*
X152500000Y-144257142D01*
X152547619Y-144209523D01*
X153452380Y-143780952D02*
X152452380Y-143780952D01*
X153452380Y-143209523D02*
X152880952Y-143638095D01*
X152452380Y-143209523D02*
X153023809Y-143780952D01*
X149790476Y-153252380D02*
X150409523Y-153252380D01*
X150076190Y-153633333D01*
X150219047Y-153633333D01*
X150314285Y-153680952D01*
X150361904Y-153728571D01*
X150409523Y-153823809D01*
X150409523Y-154061904D01*
X150361904Y-154157142D01*
X150314285Y-154204761D01*
X150219047Y-154252380D01*
X149933333Y-154252380D01*
X149838095Y-154204761D01*
X149790476Y-154157142D01*
X150980952Y-153680952D02*
X150885714Y-153633333D01*
X150838095Y-153585714D01*
X150790476Y-153490476D01*
X150790476Y-153442857D01*
X150838095Y-153347619D01*
X150885714Y-153300000D01*
X150980952Y-153252380D01*
X151171428Y-153252380D01*
X151266666Y-153300000D01*
X151314285Y-153347619D01*
X151361904Y-153442857D01*
X151361904Y-153490476D01*
X151314285Y-153585714D01*
X151266666Y-153633333D01*
X151171428Y-153680952D01*
X150980952Y-153680952D01*
X150885714Y-153728571D01*
X150838095Y-153776190D01*
X150790476Y-153871428D01*
X150790476Y-154061904D01*
X150838095Y-154157142D01*
X150885714Y-154204761D01*
X150980952Y-154252380D01*
X151171428Y-154252380D01*
X151266666Y-154204761D01*
X151314285Y-154157142D01*
X151361904Y-154061904D01*
X151361904Y-153871428D01*
X151314285Y-153776190D01*
X151266666Y-153728571D01*
X151171428Y-153680952D01*
X147190476Y-153252380D02*
X147809523Y-153252380D01*
X147476190Y-153633333D01*
X147619047Y-153633333D01*
X147714285Y-153680952D01*
X147761904Y-153728571D01*
X147809523Y-153823809D01*
X147809523Y-154061904D01*
X147761904Y-154157142D01*
X147714285Y-154204761D01*
X147619047Y-154252380D01*
X147333333Y-154252380D01*
X147238095Y-154204761D01*
X147190476Y-154157142D01*
X148142857Y-153252380D02*
X148809523Y-153252380D01*
X148380952Y-154252380D01*
X144590476Y-153252380D02*
X145209523Y-153252380D01*
X144876190Y-153633333D01*
X145019047Y-153633333D01*
X145114285Y-153680952D01*
X145161904Y-153728571D01*
X145209523Y-153823809D01*
X145209523Y-154061904D01*
X145161904Y-154157142D01*
X145114285Y-154204761D01*
X145019047Y-154252380D01*
X144733333Y-154252380D01*
X144638095Y-154204761D01*
X144590476Y-154157142D01*
X146066666Y-153252380D02*
X145876190Y-153252380D01*
X145780952Y-153300000D01*
X145733333Y-153347619D01*
X145638095Y-153490476D01*
X145590476Y-153680952D01*
X145590476Y-154061904D01*
X145638095Y-154157142D01*
X145685714Y-154204761D01*
X145780952Y-154252380D01*
X145971428Y-154252380D01*
X146066666Y-154204761D01*
X146114285Y-154157142D01*
X146161904Y-154061904D01*
X146161904Y-153823809D01*
X146114285Y-153728571D01*
X146066666Y-153680952D01*
X145971428Y-153633333D01*
X145780952Y-153633333D01*
X145685714Y-153680952D01*
X145638095Y-153728571D01*
X145590476Y-153823809D01*
X141990476Y-153252380D02*
X142609523Y-153252380D01*
X142276190Y-153633333D01*
X142419047Y-153633333D01*
X142514285Y-153680952D01*
X142561904Y-153728571D01*
X142609523Y-153823809D01*
X142609523Y-154061904D01*
X142561904Y-154157142D01*
X142514285Y-154204761D01*
X142419047Y-154252380D01*
X142133333Y-154252380D01*
X142038095Y-154204761D01*
X141990476Y-154157142D01*
X143514285Y-153252380D02*
X143038095Y-153252380D01*
X142990476Y-153728571D01*
X143038095Y-153680952D01*
X143133333Y-153633333D01*
X143371428Y-153633333D01*
X143466666Y-153680952D01*
X143514285Y-153728571D01*
X143561904Y-153823809D01*
X143561904Y-154061904D01*
X143514285Y-154157142D01*
X143466666Y-154204761D01*
X143371428Y-154252380D01*
X143133333Y-154252380D01*
X143038095Y-154204761D01*
X142990476Y-154157142D01*
X139590476Y-153252380D02*
X140209523Y-153252380D01*
X139876190Y-153633333D01*
X140019047Y-153633333D01*
X140114285Y-153680952D01*
X140161904Y-153728571D01*
X140209523Y-153823809D01*
X140209523Y-154061904D01*
X140161904Y-154157142D01*
X140114285Y-154204761D01*
X140019047Y-154252380D01*
X139733333Y-154252380D01*
X139638095Y-154204761D01*
X139590476Y-154157142D01*
X141066666Y-153585714D02*
X141066666Y-154252380D01*
X140828571Y-153204761D02*
X140590476Y-153919047D01*
X141209523Y-153919047D01*
X136890476Y-153252380D02*
X137509523Y-153252380D01*
X137176190Y-153633333D01*
X137319047Y-153633333D01*
X137414285Y-153680952D01*
X137461904Y-153728571D01*
X137509523Y-153823809D01*
X137509523Y-154061904D01*
X137461904Y-154157142D01*
X137414285Y-154204761D01*
X137319047Y-154252380D01*
X137033333Y-154252380D01*
X136938095Y-154204761D01*
X136890476Y-154157142D01*
X137842857Y-153252380D02*
X138461904Y-153252380D01*
X138128571Y-153633333D01*
X138271428Y-153633333D01*
X138366666Y-153680952D01*
X138414285Y-153728571D01*
X138461904Y-153823809D01*
X138461904Y-154061904D01*
X138414285Y-154157142D01*
X138366666Y-154204761D01*
X138271428Y-154252380D01*
X137985714Y-154252380D01*
X137890476Y-154204761D01*
X137842857Y-154157142D01*
D11*
X172052380Y-125847619D02*
X171576190Y-126180952D01*
X172052380Y-126419047D02*
X171052380Y-126419047D01*
X171052380Y-126038095D01*
X171100000Y-125942857D01*
X171147619Y-125895238D01*
X171242857Y-125847619D01*
X171385714Y-125847619D01*
X171480952Y-125895238D01*
X171528571Y-125942857D01*
X171576190Y-126038095D01*
X171576190Y-126419047D01*
X172004761Y-125466666D02*
X172052380Y-125323809D01*
X172052380Y-125085714D01*
X172004761Y-124990476D01*
X171957142Y-124942857D01*
X171861904Y-124895238D01*
X171766666Y-124895238D01*
X171671428Y-124942857D01*
X171623809Y-124990476D01*
X171576190Y-125085714D01*
X171528571Y-125276190D01*
X171480952Y-125371428D01*
X171433333Y-125419047D01*
X171338095Y-125466666D01*
X171242857Y-125466666D01*
X171147619Y-125419047D01*
X171100000Y-125371428D01*
X171052380Y-125276190D01*
X171052380Y-125038095D01*
X171100000Y-124895238D01*
X171052380Y-124609523D02*
X171052380Y-124038095D01*
X172052380Y-124323809D02*
X171052380Y-124323809D01*
D10*
X207452380Y-112142857D02*
X206452380Y-112142857D01*
X206452380Y-111904761D01*
X206500000Y-111761904D01*
X206595238Y-111666666D01*
X206690476Y-111619047D01*
X206880952Y-111571428D01*
X207023809Y-111571428D01*
X207214285Y-111619047D01*
X207309523Y-111666666D01*
X207404761Y-111761904D01*
X207452380Y-111904761D01*
X207452380Y-112142857D01*
X206452380Y-111285714D02*
X206452380Y-110714285D01*
X207452380Y-111000000D02*
X206452380Y-111000000D01*
X207452380Y-109809523D02*
X206976190Y-110142857D01*
X207452380Y-110380952D02*
X206452380Y-110380952D01*
X206452380Y-110000000D01*
X206500000Y-109904761D01*
X206547619Y-109857142D01*
X206642857Y-109809523D01*
X206785714Y-109809523D01*
X206880952Y-109857142D01*
X206928571Y-109904761D01*
X206976190Y-110000000D01*
X206976190Y-110380952D01*
X204252380Y-112161903D02*
X204252380Y-111590475D01*
X205252380Y-111876189D02*
X204252380Y-111876189D01*
X204252380Y-111352379D02*
X205252380Y-110685713D01*
X204252380Y-110685713D02*
X205252380Y-111352379D01*
X202852380Y-111566666D02*
X202376190Y-111900000D01*
X202852380Y-112138095D02*
X201852380Y-112138095D01*
X201852380Y-111757142D01*
X201900000Y-111661904D01*
X201947619Y-111614285D01*
X202042857Y-111566666D01*
X202185714Y-111566666D01*
X202280952Y-111614285D01*
X202328571Y-111661904D01*
X202376190Y-111757142D01*
X202376190Y-112138095D01*
X201852380Y-111233333D02*
X202852380Y-110566666D01*
X201852380Y-110566666D02*
X202852380Y-111233333D01*
X199252380Y-112161903D02*
X199252380Y-111542856D01*
X199633333Y-111876189D01*
X199633333Y-111733332D01*
X199680952Y-111638094D01*
X199728571Y-111590475D01*
X199823809Y-111542856D01*
X200061904Y-111542856D01*
X200157142Y-111590475D01*
X200204761Y-111638094D01*
X200252380Y-111733332D01*
X200252380Y-112019046D01*
X200204761Y-112114284D01*
X200157142Y-112161903D01*
X199252380Y-111257141D02*
X200252380Y-110923808D01*
X199252380Y-110590475D01*
X197652380Y-111547619D02*
X197176190Y-111880952D01*
X197652380Y-112119047D02*
X196652380Y-112119047D01*
X196652380Y-111738095D01*
X196700000Y-111642857D01*
X196747619Y-111595238D01*
X196842857Y-111547619D01*
X196985714Y-111547619D01*
X197080952Y-111595238D01*
X197128571Y-111642857D01*
X197176190Y-111738095D01*
X197176190Y-112119047D01*
X196652380Y-111261904D02*
X196652380Y-110690476D01*
X197652380Y-110976190D02*
X196652380Y-110976190D01*
X197604761Y-110404761D02*
X197652380Y-110261904D01*
X197652380Y-110023809D01*
X197604761Y-109928571D01*
X197557142Y-109880952D01*
X197461904Y-109833333D01*
X197366666Y-109833333D01*
X197271428Y-109880952D01*
X197223809Y-109928571D01*
X197176190Y-110023809D01*
X197128571Y-110214285D01*
X197080952Y-110309523D01*
X197033333Y-110357142D01*
X196938095Y-110404761D01*
X196842857Y-110404761D01*
X196747619Y-110357142D01*
X196700000Y-110309523D01*
X196652380Y-110214285D01*
X196652380Y-109976190D01*
X196700000Y-109833333D01*
X193900000Y-112161904D02*
X193852380Y-112257142D01*
X193852380Y-112400000D01*
X193900000Y-112542857D01*
X193995238Y-112638095D01*
X194090476Y-112685714D01*
X194280952Y-112733333D01*
X194423809Y-112733333D01*
X194614285Y-112685714D01*
X194709523Y-112638095D01*
X194804761Y-112542857D01*
X194852380Y-112400000D01*
X194852380Y-112304761D01*
X194804761Y-112161904D01*
X194757142Y-112114285D01*
X194423809Y-112114285D01*
X194423809Y-112304761D01*
X194852380Y-111685714D02*
X193852380Y-111685714D01*
X194852380Y-111114285D01*
X193852380Y-111114285D01*
X194852380Y-110638095D02*
X193852380Y-110638095D01*
X193852380Y-110400000D01*
X193900000Y-110257142D01*
X193995238Y-110161904D01*
X194090476Y-110114285D01*
X194280952Y-110066666D01*
X194423809Y-110066666D01*
X194614285Y-110114285D01*
X194709523Y-110161904D01*
X194804761Y-110257142D01*
X194852380Y-110400000D01*
X194852380Y-110638095D01*
D12*
X162040000Y-122180000D02*
G75*
G03*
X162040000Y-122180000I-100000J0D01*
G01*
D13*
X175340000Y-154560000D02*
X175340000Y-152950000D01*
X183060000Y-148740000D02*
X181000000Y-148740000D01*
X183060000Y-150450000D02*
X183060000Y-148740000D01*
X175340000Y-148740000D02*
X177400000Y-148740000D01*
X175340000Y-150450000D02*
X175340000Y-148740000D01*
X175340000Y-154560000D02*
X183060000Y-154560000D01*
X183060000Y-154560000D02*
X183060000Y-152950000D01*
X177400000Y-148740000D02*
X177400000Y-148150000D01*
X208780000Y-114470000D02*
X208780000Y-117130000D01*
X193420000Y-114470000D02*
X193420000Y-117130000D01*
X208780000Y-117130000D02*
X205670000Y-117130000D01*
X208210000Y-114470000D02*
X208210000Y-112950000D01*
X208780000Y-114470000D02*
X208210000Y-114470000D01*
X193990000Y-117130000D02*
X193420000Y-117130000D01*
X204150000Y-117130000D02*
X200590000Y-117130000D01*
X199070000Y-117130000D02*
X195510000Y-117130000D01*
X206690000Y-114470000D02*
X203130000Y-114470000D01*
X201610000Y-114470000D02*
X198050000Y-114470000D01*
X196530000Y-114470000D02*
X193420000Y-114470000D01*
X161960000Y-148070000D02*
X161960000Y-150730000D01*
X136440000Y-148070000D02*
X136440000Y-150730000D01*
X161960000Y-150730000D02*
X158850000Y-150730000D01*
X161390000Y-148070000D02*
X161390000Y-146550000D01*
X161960000Y-148070000D02*
X161390000Y-148070000D01*
X137010000Y-150730000D02*
X136440000Y-150730000D01*
X157330000Y-150730000D02*
X153770000Y-150730000D01*
X152250000Y-150730000D02*
X148690000Y-150730000D01*
X147170000Y-150730000D02*
X143610000Y-150730000D01*
X142090000Y-150730000D02*
X138530000Y-150730000D01*
X159870000Y-148070000D02*
X156310000Y-148070000D01*
X154790000Y-148070000D02*
X151230000Y-148070000D01*
X149710000Y-148070000D02*
X146150000Y-148070000D01*
X144630000Y-148070000D02*
X141070000Y-148070000D01*
X139550000Y-148070000D02*
X136440000Y-148070000D01*
X145048748Y-135775000D02*
X145571252Y-135775000D01*
X145048748Y-137245000D02*
X145571252Y-137245000D01*
X148275000Y-132921252D02*
X148275000Y-132398748D01*
X149745000Y-132921252D02*
X149745000Y-132398748D01*
D10*
X143960000Y-132665000D02*
X144110000Y-132665000D01*
X143960000Y-132655000D02*
X143960000Y-132505000D01*
X146660000Y-132655000D02*
X146660000Y-132505000D01*
X146660000Y-132655000D02*
X146510000Y-132655000D01*
X146510000Y-129955000D02*
X146660000Y-129955000D01*
X146660000Y-129955000D02*
X146660000Y-130105000D01*
X143960000Y-130105000D02*
X143960000Y-129855000D01*
D13*
X201572936Y-151915000D02*
X202027064Y-151915000D01*
X201572936Y-153385000D02*
X202027064Y-153385000D01*
X195961252Y-153335000D02*
X195438748Y-153335000D01*
X195961252Y-151865000D02*
X195438748Y-151865000D01*
X139522936Y-121765000D02*
X139977064Y-121765000D01*
X139522936Y-123235000D02*
X139977064Y-123235000D01*
X158135000Y-132622936D02*
X158135000Y-133077064D01*
X156665000Y-132622936D02*
X156665000Y-133077064D01*
X154335000Y-132572936D02*
X154335000Y-133027064D01*
X152865000Y-132572936D02*
X152865000Y-133027064D01*
X150535000Y-123138748D02*
X150535000Y-123661252D01*
X149065000Y-123138748D02*
X149065000Y-123661252D01*
X140011252Y-126935000D02*
X139488748Y-126935000D01*
X140011252Y-125465000D02*
X139488748Y-125465000D01*
X122500000Y-124300000D02*
X113500000Y-124300000D01*
X113500000Y-124300000D02*
X113500000Y-115100000D01*
X113500000Y-115100000D02*
X128100000Y-115100000D01*
X128100000Y-115100000D02*
X128100000Y-117900000D01*
X128100000Y-121500000D02*
X128100000Y-124300000D01*
X128100000Y-124300000D02*
X126100000Y-124300000D01*
X126600000Y-114860000D02*
X128340000Y-114860000D01*
X128340000Y-114860000D02*
X128340000Y-116600000D01*
X169197936Y-147490000D02*
X170402064Y-147490000D01*
X169197936Y-149310000D02*
X170402064Y-149310000D01*
X177600000Y-138050000D02*
X179400000Y-138050000D01*
X179450000Y-135900000D02*
X179450000Y-134800000D01*
X177550000Y-135900000D02*
X177550000Y-134800000D01*
X127300000Y-145610000D02*
X121290000Y-145610000D01*
X125050000Y-138790000D02*
X121290000Y-138790000D01*
X121290000Y-145610000D02*
X121290000Y-144350000D01*
X121290000Y-138790000D02*
X121290000Y-140050000D01*
X212970000Y-130690000D02*
X212970000Y-130300000D01*
X213630000Y-148930000D02*
X220050000Y-148930000D01*
X212970000Y-130690000D02*
X220050000Y-130675000D01*
X220050000Y-130675000D02*
X220050000Y-148930000D01*
X189060000Y-148920000D02*
X188800000Y-148920000D01*
X188800000Y-148920000D02*
X188800000Y-147260000D01*
X189160000Y-130680000D02*
X188800000Y-130680000D01*
X188800000Y-130680000D02*
X188800000Y-132340000D01*
X119527064Y-129765000D02*
X119072936Y-129765000D01*
X119527064Y-131235000D02*
X119072936Y-131235000D01*
X187072936Y-129335000D02*
X187527064Y-129335000D01*
X187072936Y-127865000D02*
X187527064Y-127865000D01*
X183127064Y-136265000D02*
X182672936Y-136265000D01*
X183127064Y-137735000D02*
X182672936Y-137735000D01*
X183127064Y-132965000D02*
X182672936Y-132965000D01*
X183127064Y-134435000D02*
X182672936Y-134435000D01*
X195077064Y-123235000D02*
X194622936Y-123235000D01*
X195077064Y-121765000D02*
X194622936Y-121765000D01*
X200577064Y-121865000D02*
X200122936Y-121865000D01*
X200577064Y-123335000D02*
X200122936Y-123335000D01*
X193270000Y-126860000D02*
X194200000Y-126860000D01*
X196430000Y-126860000D02*
X195500000Y-126860000D01*
X196430000Y-126860000D02*
X196430000Y-124700000D01*
X193270000Y-126860000D02*
X193270000Y-125400000D01*
X198770000Y-126960000D02*
X198770000Y-125500000D01*
X201930000Y-126960000D02*
X201930000Y-124800000D01*
X201930000Y-126960000D02*
X201000000Y-126960000D01*
X198770000Y-126960000D02*
X199700000Y-126960000D01*
X123540000Y-131460000D02*
X126400000Y-131460000D01*
X123540000Y-129540000D02*
X123540000Y-131460000D01*
X126400000Y-129540000D02*
X123540000Y-129540000D01*
X161061252Y-126665000D02*
X160538748Y-126665000D01*
X161061252Y-128135000D02*
X160538748Y-128135000D01*
X165938748Y-128135000D02*
X166461252Y-128135000D01*
X165938748Y-126665000D02*
X166461252Y-126665000D01*
X125101248Y-148735000D02*
X125623752Y-148735000D01*
X125101248Y-147265000D02*
X125623752Y-147265000D01*
X125661252Y-135065000D02*
X125138748Y-135065000D01*
X125661252Y-136535000D02*
X125138748Y-136535000D01*
X158735000Y-122861252D02*
X158735000Y-122338748D01*
X157265000Y-122861252D02*
X157265000Y-122338748D01*
X208861252Y-124915000D02*
X208338748Y-124915000D01*
X208861252Y-126385000D02*
X208338748Y-126385000D01*
X208861252Y-127815000D02*
X208338748Y-127815000D01*
X208861252Y-129285000D02*
X208338748Y-129285000D01*
X169138748Y-153135000D02*
X169661252Y-153135000D01*
X169138748Y-151665000D02*
X169661252Y-151665000D01*
X177338748Y-140835000D02*
X177861252Y-140835000D01*
X177338748Y-139365000D02*
X177861252Y-139365000D01*
X177138748Y-131435000D02*
X177661252Y-131435000D01*
X177138748Y-129965000D02*
X177661252Y-129965000D01*
D14*
X144003800Y-124246200D02*
X146696200Y-124246200D01*
X146696200Y-121553800D02*
X144003800Y-121553800D01*
X143076800Y-122100000D02*
G75*
G03*
X143076800Y-122100000I-101600J0D01*
G01*
D15*
X163180855Y-121004932D02*
X163180855Y-121393504D01*
X163203712Y-121439218D01*
X163226570Y-121462075D01*
X163272284Y-121484932D01*
X163363712Y-121484932D01*
X163409427Y-121462075D01*
X163432284Y-121439218D01*
X163455141Y-121393504D01*
X163455141Y-121004932D01*
X163660855Y-121050647D02*
X163683712Y-121027790D01*
X163729427Y-121004932D01*
X163843712Y-121004932D01*
X163889427Y-121027790D01*
X163912284Y-121050647D01*
X163935141Y-121096361D01*
X163935141Y-121142075D01*
X163912284Y-121210647D01*
X163637998Y-121484932D01*
X163935141Y-121484932D01*
D11*
X184852380Y-150833333D02*
X185566666Y-150833333D01*
X185709523Y-150880952D01*
X185804761Y-150976190D01*
X185852380Y-151119047D01*
X185852380Y-151214285D01*
X185185714Y-149928571D02*
X185852380Y-149928571D01*
X184804761Y-150166666D02*
X185519047Y-150404761D01*
X185519047Y-149785714D01*
X209232380Y-116133333D02*
X209946666Y-116133333D01*
X210089523Y-116180952D01*
X210184761Y-116276190D01*
X210232380Y-116419047D01*
X210232380Y-116514285D01*
X209232380Y-115752380D02*
X209232380Y-115133333D01*
X209613333Y-115466666D01*
X209613333Y-115323809D01*
X209660952Y-115228571D01*
X209708571Y-115180952D01*
X209803809Y-115133333D01*
X210041904Y-115133333D01*
X210137142Y-115180952D01*
X210184761Y-115228571D01*
X210232380Y-115323809D01*
X210232380Y-115609523D01*
X210184761Y-115704761D01*
X210137142Y-115752380D01*
X162412380Y-149733333D02*
X163126666Y-149733333D01*
X163269523Y-149780952D01*
X163364761Y-149876190D01*
X163412380Y-150019047D01*
X163412380Y-150114285D01*
X163412380Y-148733333D02*
X163412380Y-149304761D01*
X163412380Y-149019047D02*
X162412380Y-149019047D01*
X162555238Y-149114285D01*
X162650476Y-149209523D01*
X162698095Y-149304761D01*
X144667142Y-135187142D02*
X144619523Y-135234761D01*
X144476666Y-135282380D01*
X144381428Y-135282380D01*
X144238571Y-135234761D01*
X144143333Y-135139523D01*
X144095714Y-135044285D01*
X144048095Y-134853809D01*
X144048095Y-134710952D01*
X144095714Y-134520476D01*
X144143333Y-134425238D01*
X144238571Y-134330000D01*
X144381428Y-134282380D01*
X144476666Y-134282380D01*
X144619523Y-134330000D01*
X144667142Y-134377619D01*
X145619523Y-135282380D02*
X145048095Y-135282380D01*
X145333809Y-135282380D02*
X145333809Y-134282380D01*
X145238571Y-134425238D01*
X145143333Y-134520476D01*
X145048095Y-134568095D01*
X146524285Y-134282380D02*
X146048095Y-134282380D01*
X146000476Y-134758571D01*
X146048095Y-134710952D01*
X146143333Y-134663333D01*
X146381428Y-134663333D01*
X146476666Y-134710952D01*
X146524285Y-134758571D01*
X146571904Y-134853809D01*
X146571904Y-135091904D01*
X146524285Y-135187142D01*
X146476666Y-135234761D01*
X146381428Y-135282380D01*
X146143333Y-135282380D01*
X146048095Y-135234761D01*
X146000476Y-135187142D01*
X151117142Y-132779166D02*
X151164761Y-132826785D01*
X151212380Y-132969642D01*
X151212380Y-133064880D01*
X151164761Y-133207738D01*
X151069523Y-133302976D01*
X150974285Y-133350595D01*
X150783809Y-133398214D01*
X150640952Y-133398214D01*
X150450476Y-133350595D01*
X150355238Y-133302976D01*
X150260000Y-133207738D01*
X150212380Y-133064880D01*
X150212380Y-132969642D01*
X150260000Y-132826785D01*
X150307619Y-132779166D01*
X150545714Y-131922023D02*
X151212380Y-131922023D01*
X150164761Y-132160119D02*
X150879047Y-132398214D01*
X150879047Y-131779166D01*
X142452380Y-131961904D02*
X143261904Y-131961904D01*
X143357142Y-131914285D01*
X143404761Y-131866666D01*
X143452380Y-131771428D01*
X143452380Y-131580952D01*
X143404761Y-131485714D01*
X143357142Y-131438095D01*
X143261904Y-131390476D01*
X142452380Y-131390476D01*
X142452380Y-130485714D02*
X142452380Y-130676190D01*
X142500000Y-130771428D01*
X142547619Y-130819047D01*
X142690476Y-130914285D01*
X142880952Y-130961904D01*
X143261904Y-130961904D01*
X143357142Y-130914285D01*
X143404761Y-130866666D01*
X143452380Y-130771428D01*
X143452380Y-130580952D01*
X143404761Y-130485714D01*
X143357142Y-130438095D01*
X143261904Y-130390476D01*
X143023809Y-130390476D01*
X142928571Y-130438095D01*
X142880952Y-130485714D01*
X142833333Y-130580952D01*
X142833333Y-130771428D01*
X142880952Y-130866666D01*
X142928571Y-130914285D01*
X143023809Y-130961904D01*
X201157142Y-154722380D02*
X200823809Y-154246190D01*
X200585714Y-154722380D02*
X200585714Y-153722380D01*
X200966666Y-153722380D01*
X201061904Y-153770000D01*
X201109523Y-153817619D01*
X201157142Y-153912857D01*
X201157142Y-154055714D01*
X201109523Y-154150952D01*
X201061904Y-154198571D01*
X200966666Y-154246190D01*
X200585714Y-154246190D01*
X202109523Y-154722380D02*
X201538095Y-154722380D01*
X201823809Y-154722380D02*
X201823809Y-153722380D01*
X201728571Y-153865238D01*
X201633333Y-153960476D01*
X201538095Y-154008095D01*
X202728571Y-153722380D02*
X202823809Y-153722380D01*
X202919047Y-153770000D01*
X202966666Y-153817619D01*
X203014285Y-153912857D01*
X203061904Y-154103333D01*
X203061904Y-154341428D01*
X203014285Y-154531904D01*
X202966666Y-154627142D01*
X202919047Y-154674761D01*
X202823809Y-154722380D01*
X202728571Y-154722380D01*
X202633333Y-154674761D01*
X202585714Y-154627142D01*
X202538095Y-154531904D01*
X202490476Y-154341428D01*
X202490476Y-154103333D01*
X202538095Y-153912857D01*
X202585714Y-153817619D01*
X202633333Y-153770000D01*
X202728571Y-153722380D01*
X195533333Y-151357142D02*
X195485714Y-151404761D01*
X195342857Y-151452380D01*
X195247619Y-151452380D01*
X195104761Y-151404761D01*
X195009523Y-151309523D01*
X194961904Y-151214285D01*
X194914285Y-151023809D01*
X194914285Y-150880952D01*
X194961904Y-150690476D01*
X195009523Y-150595238D01*
X195104761Y-150500000D01*
X195247619Y-150452380D01*
X195342857Y-150452380D01*
X195485714Y-150500000D01*
X195533333Y-150547619D01*
X195866666Y-150452380D02*
X196485714Y-150452380D01*
X196152380Y-150833333D01*
X196295238Y-150833333D01*
X196390476Y-150880952D01*
X196438095Y-150928571D01*
X196485714Y-151023809D01*
X196485714Y-151261904D01*
X196438095Y-151357142D01*
X196390476Y-151404761D01*
X196295238Y-151452380D01*
X196009523Y-151452380D01*
X195914285Y-151404761D01*
X195866666Y-151357142D01*
X139583333Y-121302380D02*
X139250000Y-120826190D01*
X139011904Y-121302380D02*
X139011904Y-120302380D01*
X139392857Y-120302380D01*
X139488095Y-120350000D01*
X139535714Y-120397619D01*
X139583333Y-120492857D01*
X139583333Y-120635714D01*
X139535714Y-120730952D01*
X139488095Y-120778571D01*
X139392857Y-120826190D01*
X139011904Y-120826190D01*
X140059523Y-121302380D02*
X140250000Y-121302380D01*
X140345238Y-121254761D01*
X140392857Y-121207142D01*
X140488095Y-121064285D01*
X140535714Y-120873809D01*
X140535714Y-120492857D01*
X140488095Y-120397619D01*
X140440476Y-120350000D01*
X140345238Y-120302380D01*
X140154761Y-120302380D01*
X140059523Y-120350000D01*
X140011904Y-120397619D01*
X139964285Y-120492857D01*
X139964285Y-120730952D01*
X140011904Y-120826190D01*
X140059523Y-120873809D01*
X140154761Y-120921428D01*
X140345238Y-120921428D01*
X140440476Y-120873809D01*
X140488095Y-120826190D01*
X140535714Y-120730952D01*
X159502380Y-133016666D02*
X159026190Y-133350000D01*
X159502380Y-133588095D02*
X158502380Y-133588095D01*
X158502380Y-133207142D01*
X158550000Y-133111904D01*
X158597619Y-133064285D01*
X158692857Y-133016666D01*
X158835714Y-133016666D01*
X158930952Y-133064285D01*
X158978571Y-133111904D01*
X159026190Y-133207142D01*
X159026190Y-133588095D01*
X158930952Y-132445238D02*
X158883333Y-132540476D01*
X158835714Y-132588095D01*
X158740476Y-132635714D01*
X158692857Y-132635714D01*
X158597619Y-132588095D01*
X158550000Y-132540476D01*
X158502380Y-132445238D01*
X158502380Y-132254761D01*
X158550000Y-132159523D01*
X158597619Y-132111904D01*
X158692857Y-132064285D01*
X158740476Y-132064285D01*
X158835714Y-132111904D01*
X158883333Y-132159523D01*
X158930952Y-132254761D01*
X158930952Y-132445238D01*
X158978571Y-132540476D01*
X159026190Y-132588095D01*
X159121428Y-132635714D01*
X159311904Y-132635714D01*
X159407142Y-132588095D01*
X159454761Y-132540476D01*
X159502380Y-132445238D01*
X159502380Y-132254761D01*
X159454761Y-132159523D01*
X159407142Y-132111904D01*
X159311904Y-132064285D01*
X159121428Y-132064285D01*
X159026190Y-132111904D01*
X158978571Y-132159523D01*
X158930952Y-132254761D01*
X155702380Y-132966666D02*
X155226190Y-133300000D01*
X155702380Y-133538095D02*
X154702380Y-133538095D01*
X154702380Y-133157142D01*
X154750000Y-133061904D01*
X154797619Y-133014285D01*
X154892857Y-132966666D01*
X155035714Y-132966666D01*
X155130952Y-133014285D01*
X155178571Y-133061904D01*
X155226190Y-133157142D01*
X155226190Y-133538095D01*
X154702380Y-132633333D02*
X154702380Y-131966666D01*
X155702380Y-132395238D01*
X151957142Y-124042857D02*
X152004761Y-124090476D01*
X152052380Y-124233333D01*
X152052380Y-124328571D01*
X152004761Y-124471428D01*
X151909523Y-124566666D01*
X151814285Y-124614285D01*
X151623809Y-124661904D01*
X151480952Y-124661904D01*
X151290476Y-124614285D01*
X151195238Y-124566666D01*
X151100000Y-124471428D01*
X151052380Y-124328571D01*
X151052380Y-124233333D01*
X151100000Y-124090476D01*
X151147619Y-124042857D01*
X152052380Y-123090476D02*
X152052380Y-123661904D01*
X152052380Y-123376190D02*
X151052380Y-123376190D01*
X151195238Y-123471428D01*
X151290476Y-123566666D01*
X151338095Y-123661904D01*
X151385714Y-122233333D02*
X152052380Y-122233333D01*
X151004761Y-122471428D02*
X151719047Y-122709523D01*
X151719047Y-122090476D01*
X139157142Y-128357142D02*
X139109523Y-128404761D01*
X138966666Y-128452380D01*
X138871428Y-128452380D01*
X138728571Y-128404761D01*
X138633333Y-128309523D01*
X138585714Y-128214285D01*
X138538095Y-128023809D01*
X138538095Y-127880952D01*
X138585714Y-127690476D01*
X138633333Y-127595238D01*
X138728571Y-127500000D01*
X138871428Y-127452380D01*
X138966666Y-127452380D01*
X139109523Y-127500000D01*
X139157142Y-127547619D01*
X140109523Y-128452380D02*
X139538095Y-128452380D01*
X139823809Y-128452380D02*
X139823809Y-127452380D01*
X139728571Y-127595238D01*
X139633333Y-127690476D01*
X139538095Y-127738095D01*
X140442857Y-127452380D02*
X141061904Y-127452380D01*
X140728571Y-127833333D01*
X140871428Y-127833333D01*
X140966666Y-127880952D01*
X141014285Y-127928571D01*
X141061904Y-128023809D01*
X141061904Y-128261904D01*
X141014285Y-128357142D01*
X140966666Y-128404761D01*
X140871428Y-128452380D01*
X140585714Y-128452380D01*
X140490476Y-128404761D01*
X140442857Y-128357142D01*
X118516666Y-124902380D02*
X118516666Y-125616666D01*
X118469047Y-125759523D01*
X118373809Y-125854761D01*
X118230952Y-125902380D01*
X118135714Y-125902380D01*
X119469047Y-124902380D02*
X118992857Y-124902380D01*
X118945238Y-125378571D01*
X118992857Y-125330952D01*
X119088095Y-125283333D01*
X119326190Y-125283333D01*
X119421428Y-125330952D01*
X119469047Y-125378571D01*
X119516666Y-125473809D01*
X119516666Y-125711904D01*
X119469047Y-125807142D01*
X119421428Y-125854761D01*
X119326190Y-125902380D01*
X119088095Y-125902380D01*
X118992857Y-125854761D01*
X118945238Y-125807142D01*
X166428571Y-148633333D02*
X166428571Y-148966666D01*
X166952380Y-148966666D02*
X165952380Y-148966666D01*
X165952380Y-148490476D01*
X166952380Y-147585714D02*
X166952380Y-148157142D01*
X166952380Y-147871428D02*
X165952380Y-147871428D01*
X166095238Y-147966666D01*
X166190476Y-148061904D01*
X166238095Y-148157142D01*
X176526190Y-135826190D02*
X177002380Y-135826190D01*
X176002380Y-136159523D02*
X176526190Y-135826190D01*
X176002380Y-135492857D01*
X177002380Y-134635714D02*
X177002380Y-135207142D01*
X177002380Y-134921428D02*
X176002380Y-134921428D01*
X176145238Y-135016666D01*
X176240476Y-135111904D01*
X176288095Y-135207142D01*
X128102380Y-143011904D02*
X128911904Y-143011904D01*
X129007142Y-142964285D01*
X129054761Y-142916666D01*
X129102380Y-142821428D01*
X129102380Y-142630952D01*
X129054761Y-142535714D01*
X129007142Y-142488095D01*
X128911904Y-142440476D01*
X128102380Y-142440476D01*
X128102380Y-142059523D02*
X128102380Y-141440476D01*
X128483333Y-141773809D01*
X128483333Y-141630952D01*
X128530952Y-141535714D01*
X128578571Y-141488095D01*
X128673809Y-141440476D01*
X128911904Y-141440476D01*
X129007142Y-141488095D01*
X129054761Y-141535714D01*
X129102380Y-141630952D01*
X129102380Y-141916666D01*
X129054761Y-142011904D01*
X129007142Y-142059523D01*
X186702380Y-132261904D02*
X187511904Y-132261904D01*
X187607142Y-132214285D01*
X187654761Y-132166666D01*
X187702380Y-132071428D01*
X187702380Y-131880952D01*
X187654761Y-131785714D01*
X187607142Y-131738095D01*
X187511904Y-131690476D01*
X186702380Y-131690476D01*
X187702380Y-130690476D02*
X187702380Y-131261904D01*
X187702380Y-130976190D02*
X186702380Y-130976190D01*
X186845238Y-131071428D01*
X186940476Y-131166666D01*
X186988095Y-131261904D01*
X181804761Y-124333333D02*
X181852380Y-124190476D01*
X181852380Y-123952380D01*
X181804761Y-123857142D01*
X181757142Y-123809523D01*
X181661904Y-123761904D01*
X181566666Y-123761904D01*
X181471428Y-123809523D01*
X181423809Y-123857142D01*
X181376190Y-123952380D01*
X181328571Y-124142857D01*
X181280952Y-124238095D01*
X181233333Y-124285714D01*
X181138095Y-124333333D01*
X181042857Y-124333333D01*
X180947619Y-124285714D01*
X180900000Y-124238095D01*
X180852380Y-124142857D01*
X180852380Y-123904761D01*
X180900000Y-123761904D01*
X180852380Y-123428571D02*
X181852380Y-123190476D01*
X181138095Y-123000000D01*
X181852380Y-122809523D01*
X180852380Y-122571428D01*
X180947619Y-122238095D02*
X180900000Y-122190476D01*
X180852380Y-122095238D01*
X180852380Y-121857142D01*
X180900000Y-121761904D01*
X180947619Y-121714285D01*
X181042857Y-121666666D01*
X181138095Y-121666666D01*
X181280952Y-121714285D01*
X181852380Y-122285714D01*
X181852380Y-121666666D01*
X172004761Y-122433333D02*
X172052380Y-122290476D01*
X172052380Y-122052380D01*
X172004761Y-121957142D01*
X171957142Y-121909523D01*
X171861904Y-121861904D01*
X171766666Y-121861904D01*
X171671428Y-121909523D01*
X171623809Y-121957142D01*
X171576190Y-122052380D01*
X171528571Y-122242857D01*
X171480952Y-122338095D01*
X171433333Y-122385714D01*
X171338095Y-122433333D01*
X171242857Y-122433333D01*
X171147619Y-122385714D01*
X171100000Y-122338095D01*
X171052380Y-122242857D01*
X171052380Y-122004761D01*
X171100000Y-121861904D01*
X171052380Y-121528571D02*
X172052380Y-121290476D01*
X171338095Y-121100000D01*
X172052380Y-120909523D01*
X171052380Y-120671428D01*
X172052380Y-119766666D02*
X172052380Y-120338095D01*
X172052380Y-120052380D02*
X171052380Y-120052380D01*
X171195238Y-120147619D01*
X171290476Y-120242857D01*
X171338095Y-120338095D01*
X119033333Y-129052380D02*
X118700000Y-128576190D01*
X118461904Y-129052380D02*
X118461904Y-128052380D01*
X118842857Y-128052380D01*
X118938095Y-128100000D01*
X118985714Y-128147619D01*
X119033333Y-128242857D01*
X119033333Y-128385714D01*
X118985714Y-128480952D01*
X118938095Y-128528571D01*
X118842857Y-128576190D01*
X118461904Y-128576190D01*
X119890476Y-128052380D02*
X119700000Y-128052380D01*
X119604761Y-128100000D01*
X119557142Y-128147619D01*
X119461904Y-128290476D01*
X119414285Y-128480952D01*
X119414285Y-128861904D01*
X119461904Y-128957142D01*
X119509523Y-129004761D01*
X119604761Y-129052380D01*
X119795238Y-129052380D01*
X119890476Y-129004761D01*
X119938095Y-128957142D01*
X119985714Y-128861904D01*
X119985714Y-128623809D01*
X119938095Y-128528571D01*
X119890476Y-128480952D01*
X119795238Y-128433333D01*
X119604761Y-128433333D01*
X119509523Y-128480952D01*
X119461904Y-128528571D01*
X119414285Y-128623809D01*
X190133333Y-127852380D02*
X189800000Y-127376190D01*
X189561904Y-127852380D02*
X189561904Y-126852380D01*
X189942857Y-126852380D01*
X190038095Y-126900000D01*
X190085714Y-126947619D01*
X190133333Y-127042857D01*
X190133333Y-127185714D01*
X190085714Y-127280952D01*
X190038095Y-127328571D01*
X189942857Y-127376190D01*
X189561904Y-127376190D01*
X191038095Y-126852380D02*
X190561904Y-126852380D01*
X190514285Y-127328571D01*
X190561904Y-127280952D01*
X190657142Y-127233333D01*
X190895238Y-127233333D01*
X190990476Y-127280952D01*
X191038095Y-127328571D01*
X191085714Y-127423809D01*
X191085714Y-127661904D01*
X191038095Y-127757142D01*
X190990476Y-127804761D01*
X190895238Y-127852380D01*
X190657142Y-127852380D01*
X190561904Y-127804761D01*
X190514285Y-127757142D01*
X182733333Y-139102380D02*
X182400000Y-138626190D01*
X182161904Y-139102380D02*
X182161904Y-138102380D01*
X182542857Y-138102380D01*
X182638095Y-138150000D01*
X182685714Y-138197619D01*
X182733333Y-138292857D01*
X182733333Y-138435714D01*
X182685714Y-138530952D01*
X182638095Y-138578571D01*
X182542857Y-138626190D01*
X182161904Y-138626190D01*
X183590476Y-138435714D02*
X183590476Y-139102380D01*
X183352380Y-138054761D02*
X183114285Y-138769047D01*
X183733333Y-138769047D01*
X182733333Y-132652380D02*
X182400000Y-132176190D01*
X182161904Y-132652380D02*
X182161904Y-131652380D01*
X182542857Y-131652380D01*
X182638095Y-131700000D01*
X182685714Y-131747619D01*
X182733333Y-131842857D01*
X182733333Y-131985714D01*
X182685714Y-132080952D01*
X182638095Y-132128571D01*
X182542857Y-132176190D01*
X182161904Y-132176190D01*
X183066666Y-131652380D02*
X183685714Y-131652380D01*
X183352380Y-132033333D01*
X183495238Y-132033333D01*
X183590476Y-132080952D01*
X183638095Y-132128571D01*
X183685714Y-132223809D01*
X183685714Y-132461904D01*
X183638095Y-132557142D01*
X183590476Y-132604761D01*
X183495238Y-132652380D01*
X183209523Y-132652380D01*
X183114285Y-132604761D01*
X183066666Y-132557142D01*
X194533333Y-121052380D02*
X194200000Y-120576190D01*
X193961904Y-121052380D02*
X193961904Y-120052380D01*
X194342857Y-120052380D01*
X194438095Y-120100000D01*
X194485714Y-120147619D01*
X194533333Y-120242857D01*
X194533333Y-120385714D01*
X194485714Y-120480952D01*
X194438095Y-120528571D01*
X194342857Y-120576190D01*
X193961904Y-120576190D01*
X194914285Y-120147619D02*
X194961904Y-120100000D01*
X195057142Y-120052380D01*
X195295238Y-120052380D01*
X195390476Y-120100000D01*
X195438095Y-120147619D01*
X195485714Y-120242857D01*
X195485714Y-120338095D01*
X195438095Y-120480952D01*
X194866666Y-121052380D01*
X195485714Y-121052380D01*
X200183333Y-121052380D02*
X199850000Y-120576190D01*
X199611904Y-121052380D02*
X199611904Y-120052380D01*
X199992857Y-120052380D01*
X200088095Y-120100000D01*
X200135714Y-120147619D01*
X200183333Y-120242857D01*
X200183333Y-120385714D01*
X200135714Y-120480952D01*
X200088095Y-120528571D01*
X199992857Y-120576190D01*
X199611904Y-120576190D01*
X201135714Y-121052380D02*
X200564285Y-121052380D01*
X200850000Y-121052380D02*
X200850000Y-120052380D01*
X200754761Y-120195238D01*
X200659523Y-120290476D01*
X200564285Y-120338095D01*
X197897619Y-126195238D02*
X197850000Y-126290476D01*
X197754761Y-126385714D01*
X197611904Y-126528571D01*
X197564285Y-126623809D01*
X197564285Y-126719047D01*
X197802380Y-126671428D02*
X197754761Y-126766666D01*
X197659523Y-126861904D01*
X197469047Y-126909523D01*
X197135714Y-126909523D01*
X196945238Y-126861904D01*
X196850000Y-126766666D01*
X196802380Y-126671428D01*
X196802380Y-126480952D01*
X196850000Y-126385714D01*
X196945238Y-126290476D01*
X197135714Y-126242857D01*
X197469047Y-126242857D01*
X197659523Y-126290476D01*
X197754761Y-126385714D01*
X197802380Y-126480952D01*
X197802380Y-126671428D01*
X196897619Y-125861904D02*
X196850000Y-125814285D01*
X196802380Y-125719047D01*
X196802380Y-125480952D01*
X196850000Y-125385714D01*
X196897619Y-125338095D01*
X196992857Y-125290476D01*
X197088095Y-125290476D01*
X197230952Y-125338095D01*
X197802380Y-125909523D01*
X197802380Y-125290476D01*
X203397619Y-126295238D02*
X203350000Y-126390476D01*
X203254761Y-126485714D01*
X203111904Y-126628571D01*
X203064285Y-126723809D01*
X203064285Y-126819047D01*
X203302380Y-126771428D02*
X203254761Y-126866666D01*
X203159523Y-126961904D01*
X202969047Y-127009523D01*
X202635714Y-127009523D01*
X202445238Y-126961904D01*
X202350000Y-126866666D01*
X202302380Y-126771428D01*
X202302380Y-126580952D01*
X202350000Y-126485714D01*
X202445238Y-126390476D01*
X202635714Y-126342857D01*
X202969047Y-126342857D01*
X203159523Y-126390476D01*
X203254761Y-126485714D01*
X203302380Y-126580952D01*
X203302380Y-126771428D01*
X203302380Y-125390476D02*
X203302380Y-125961904D01*
X203302380Y-125676190D02*
X202302380Y-125676190D01*
X202445238Y-125771428D01*
X202540476Y-125866666D01*
X202588095Y-125961904D01*
X124611904Y-129052380D02*
X124611904Y-128052380D01*
X124850000Y-128052380D01*
X124992857Y-128100000D01*
X125088095Y-128195238D01*
X125135714Y-128290476D01*
X125183333Y-128480952D01*
X125183333Y-128623809D01*
X125135714Y-128814285D01*
X125088095Y-128909523D01*
X124992857Y-129004761D01*
X124850000Y-129052380D01*
X124611904Y-129052380D01*
X125564285Y-128147619D02*
X125611904Y-128100000D01*
X125707142Y-128052380D01*
X125945238Y-128052380D01*
X126040476Y-128100000D01*
X126088095Y-128147619D01*
X126135714Y-128242857D01*
X126135714Y-128338095D01*
X126088095Y-128480952D01*
X125516666Y-129052380D01*
X126135714Y-129052380D01*
X159957142Y-125957142D02*
X159909523Y-126004761D01*
X159766666Y-126052380D01*
X159671428Y-126052380D01*
X159528571Y-126004761D01*
X159433333Y-125909523D01*
X159385714Y-125814285D01*
X159338095Y-125623809D01*
X159338095Y-125480952D01*
X159385714Y-125290476D01*
X159433333Y-125195238D01*
X159528571Y-125100000D01*
X159671428Y-125052380D01*
X159766666Y-125052380D01*
X159909523Y-125100000D01*
X159957142Y-125147619D01*
X160909523Y-126052380D02*
X160338095Y-126052380D01*
X160623809Y-126052380D02*
X160623809Y-125052380D01*
X160528571Y-125195238D01*
X160433333Y-125290476D01*
X160338095Y-125338095D01*
X161290476Y-125147619D02*
X161338095Y-125100000D01*
X161433333Y-125052380D01*
X161671428Y-125052380D01*
X161766666Y-125100000D01*
X161814285Y-125147619D01*
X161861904Y-125242857D01*
X161861904Y-125338095D01*
X161814285Y-125480952D01*
X161242857Y-126052380D01*
X161861904Y-126052380D01*
X165357142Y-125957142D02*
X165309523Y-126004761D01*
X165166666Y-126052380D01*
X165071428Y-126052380D01*
X164928571Y-126004761D01*
X164833333Y-125909523D01*
X164785714Y-125814285D01*
X164738095Y-125623809D01*
X164738095Y-125480952D01*
X164785714Y-125290476D01*
X164833333Y-125195238D01*
X164928571Y-125100000D01*
X165071428Y-125052380D01*
X165166666Y-125052380D01*
X165309523Y-125100000D01*
X165357142Y-125147619D01*
X166309523Y-126052380D02*
X165738095Y-126052380D01*
X166023809Y-126052380D02*
X166023809Y-125052380D01*
X165928571Y-125195238D01*
X165833333Y-125290476D01*
X165738095Y-125338095D01*
X167261904Y-126052380D02*
X166690476Y-126052380D01*
X166976190Y-126052380D02*
X166976190Y-125052380D01*
X166880952Y-125195238D01*
X166785714Y-125290476D01*
X166690476Y-125338095D01*
X124719642Y-150357142D02*
X124672023Y-150404761D01*
X124529166Y-150452380D01*
X124433928Y-150452380D01*
X124291071Y-150404761D01*
X124195833Y-150309523D01*
X124148214Y-150214285D01*
X124100595Y-150023809D01*
X124100595Y-149880952D01*
X124148214Y-149690476D01*
X124195833Y-149595238D01*
X124291071Y-149500000D01*
X124433928Y-149452380D01*
X124529166Y-149452380D01*
X124672023Y-149500000D01*
X124719642Y-149547619D01*
X125672023Y-150452380D02*
X125100595Y-150452380D01*
X125386309Y-150452380D02*
X125386309Y-149452380D01*
X125291071Y-149595238D01*
X125195833Y-149690476D01*
X125100595Y-149738095D01*
X126291071Y-149452380D02*
X126386309Y-149452380D01*
X126481547Y-149500000D01*
X126529166Y-149547619D01*
X126576785Y-149642857D01*
X126624404Y-149833333D01*
X126624404Y-150071428D01*
X126576785Y-150261904D01*
X126529166Y-150357142D01*
X126481547Y-150404761D01*
X126386309Y-150452380D01*
X126291071Y-150452380D01*
X126195833Y-150404761D01*
X126148214Y-150357142D01*
X126100595Y-150261904D01*
X126052976Y-150071428D01*
X126052976Y-149833333D01*
X126100595Y-149642857D01*
X126148214Y-149547619D01*
X126195833Y-149500000D01*
X126291071Y-149452380D01*
X125233333Y-134407142D02*
X125185714Y-134454761D01*
X125042857Y-134502380D01*
X124947619Y-134502380D01*
X124804761Y-134454761D01*
X124709523Y-134359523D01*
X124661904Y-134264285D01*
X124614285Y-134073809D01*
X124614285Y-133930952D01*
X124661904Y-133740476D01*
X124709523Y-133645238D01*
X124804761Y-133550000D01*
X124947619Y-133502380D01*
X125042857Y-133502380D01*
X125185714Y-133550000D01*
X125233333Y-133597619D01*
X125709523Y-134502380D02*
X125900000Y-134502380D01*
X125995238Y-134454761D01*
X126042857Y-134407142D01*
X126138095Y-134264285D01*
X126185714Y-134073809D01*
X126185714Y-133692857D01*
X126138095Y-133597619D01*
X126090476Y-133550000D01*
X125995238Y-133502380D01*
X125804761Y-133502380D01*
X125709523Y-133550000D01*
X125661904Y-133597619D01*
X125614285Y-133692857D01*
X125614285Y-133930952D01*
X125661904Y-134026190D01*
X125709523Y-134073809D01*
X125804761Y-134121428D01*
X125995238Y-134121428D01*
X126090476Y-134073809D01*
X126138095Y-134026190D01*
X126185714Y-133930952D01*
X156677142Y-122766666D02*
X156724761Y-122814285D01*
X156772380Y-122957142D01*
X156772380Y-123052380D01*
X156724761Y-123195238D01*
X156629523Y-123290476D01*
X156534285Y-123338095D01*
X156343809Y-123385714D01*
X156200952Y-123385714D01*
X156010476Y-123338095D01*
X155915238Y-123290476D01*
X155820000Y-123195238D01*
X155772380Y-123052380D01*
X155772380Y-122957142D01*
X155820000Y-122814285D01*
X155867619Y-122766666D01*
X156200952Y-122195238D02*
X156153333Y-122290476D01*
X156105714Y-122338095D01*
X156010476Y-122385714D01*
X155962857Y-122385714D01*
X155867619Y-122338095D01*
X155820000Y-122290476D01*
X155772380Y-122195238D01*
X155772380Y-122004761D01*
X155820000Y-121909523D01*
X155867619Y-121861904D01*
X155962857Y-121814285D01*
X156010476Y-121814285D01*
X156105714Y-121861904D01*
X156153333Y-121909523D01*
X156200952Y-122004761D01*
X156200952Y-122195238D01*
X156248571Y-122290476D01*
X156296190Y-122338095D01*
X156391428Y-122385714D01*
X156581904Y-122385714D01*
X156677142Y-122338095D01*
X156724761Y-122290476D01*
X156772380Y-122195238D01*
X156772380Y-122004761D01*
X156724761Y-121909523D01*
X156677142Y-121861904D01*
X156581904Y-121814285D01*
X156391428Y-121814285D01*
X156296190Y-121861904D01*
X156248571Y-121909523D01*
X156200952Y-122004761D01*
X206057142Y-125916666D02*
X206104761Y-125964285D01*
X206152380Y-126107142D01*
X206152380Y-126202380D01*
X206104761Y-126345238D01*
X206009523Y-126440476D01*
X205914285Y-126488095D01*
X205723809Y-126535714D01*
X205580952Y-126535714D01*
X205390476Y-126488095D01*
X205295238Y-126440476D01*
X205200000Y-126345238D01*
X205152380Y-126202380D01*
X205152380Y-126107142D01*
X205200000Y-125964285D01*
X205247619Y-125916666D01*
X205152380Y-125583333D02*
X205152380Y-124916666D01*
X206152380Y-125345238D01*
X205957142Y-128616666D02*
X206004761Y-128664285D01*
X206052380Y-128807142D01*
X206052380Y-128902380D01*
X206004761Y-129045238D01*
X205909523Y-129140476D01*
X205814285Y-129188095D01*
X205623809Y-129235714D01*
X205480952Y-129235714D01*
X205290476Y-129188095D01*
X205195238Y-129140476D01*
X205100000Y-129045238D01*
X205052380Y-128902380D01*
X205052380Y-128807142D01*
X205100000Y-128664285D01*
X205147619Y-128616666D01*
X205052380Y-127759523D02*
X205052380Y-127950000D01*
X205100000Y-128045238D01*
X205147619Y-128092857D01*
X205290476Y-128188095D01*
X205480952Y-128235714D01*
X205861904Y-128235714D01*
X205957142Y-128188095D01*
X206004761Y-128140476D01*
X206052380Y-128045238D01*
X206052380Y-127854761D01*
X206004761Y-127759523D01*
X205957142Y-127711904D01*
X205861904Y-127664285D01*
X205623809Y-127664285D01*
X205528571Y-127711904D01*
X205480952Y-127759523D01*
X205433333Y-127854761D01*
X205433333Y-128045238D01*
X205480952Y-128140476D01*
X205528571Y-128188095D01*
X205623809Y-128235714D01*
X169233333Y-151077142D02*
X169185714Y-151124761D01*
X169042857Y-151172380D01*
X168947619Y-151172380D01*
X168804761Y-151124761D01*
X168709523Y-151029523D01*
X168661904Y-150934285D01*
X168614285Y-150743809D01*
X168614285Y-150600952D01*
X168661904Y-150410476D01*
X168709523Y-150315238D01*
X168804761Y-150220000D01*
X168947619Y-150172380D01*
X169042857Y-150172380D01*
X169185714Y-150220000D01*
X169233333Y-150267619D01*
X170138095Y-150172380D02*
X169661904Y-150172380D01*
X169614285Y-150648571D01*
X169661904Y-150600952D01*
X169757142Y-150553333D01*
X169995238Y-150553333D01*
X170090476Y-150600952D01*
X170138095Y-150648571D01*
X170185714Y-150743809D01*
X170185714Y-150981904D01*
X170138095Y-151077142D01*
X170090476Y-151124761D01*
X169995238Y-151172380D01*
X169757142Y-151172380D01*
X169661904Y-151124761D01*
X169614285Y-151077142D01*
X177433333Y-138777142D02*
X177385714Y-138824761D01*
X177242857Y-138872380D01*
X177147619Y-138872380D01*
X177004761Y-138824761D01*
X176909523Y-138729523D01*
X176861904Y-138634285D01*
X176814285Y-138443809D01*
X176814285Y-138300952D01*
X176861904Y-138110476D01*
X176909523Y-138015238D01*
X177004761Y-137920000D01*
X177147619Y-137872380D01*
X177242857Y-137872380D01*
X177385714Y-137920000D01*
X177433333Y-137967619D01*
X177814285Y-137967619D02*
X177861904Y-137920000D01*
X177957142Y-137872380D01*
X178195238Y-137872380D01*
X178290476Y-137920000D01*
X178338095Y-137967619D01*
X178385714Y-138062857D01*
X178385714Y-138158095D01*
X178338095Y-138300952D01*
X177766666Y-138872380D01*
X178385714Y-138872380D01*
X177233333Y-132557142D02*
X177185714Y-132604761D01*
X177042857Y-132652380D01*
X176947619Y-132652380D01*
X176804761Y-132604761D01*
X176709523Y-132509523D01*
X176661904Y-132414285D01*
X176614285Y-132223809D01*
X176614285Y-132080952D01*
X176661904Y-131890476D01*
X176709523Y-131795238D01*
X176804761Y-131700000D01*
X176947619Y-131652380D01*
X177042857Y-131652380D01*
X177185714Y-131700000D01*
X177233333Y-131747619D01*
X178185714Y-132652380D02*
X177614285Y-132652380D01*
X177900000Y-132652380D02*
X177900000Y-131652380D01*
X177804761Y-131795238D01*
X177709523Y-131890476D01*
X177614285Y-131938095D01*
X144588095Y-120152380D02*
X144588095Y-120961904D01*
X144635714Y-121057142D01*
X144683333Y-121104761D01*
X144778571Y-121152380D01*
X144969047Y-121152380D01*
X145064285Y-121104761D01*
X145111904Y-121057142D01*
X145159523Y-120961904D01*
X145159523Y-120152380D01*
X146064285Y-120485714D02*
X146064285Y-121152380D01*
X145826190Y-120104761D02*
X145588095Y-120819047D01*
X146207142Y-120819047D01*
M02*
