M48
; DRILL file {KiCad 5.1.7-a382d34a8~87~ubuntu18.04.1} date Fri Oct 16 10:59:32 2020
; FORMAT={-:-/ absolute / inch / decimal}
; #@! TF.CreationDate,2020-10-16T10:59:32-04:00
; #@! TF.GenerationSoftware,Kicad,Pcbnew,5.1.7-a382d34a8~87~ubuntu18.04.1
; #@! TF.FileFunction,Plated,1,4,PTH
FMAT,2
INCH
T1C0.0177
T2C0.0630
T3C0.0866
%
G90
G05
T1
X4.6358Y-5.5354
X4.6358Y-5.5984
X4.6358Y-5.6614
X4.6437Y-5.4744
X4.6437Y-5.7283
X4.7067Y-5.4744
X4.7067Y-5.7283
X4.7618Y-5.4744
X4.7618Y-5.7283
X5.0315Y-4.3386
X5.0315Y-4.4016
X5.0787Y-5.1339
X5.0787Y-5.9685
X5.0787Y-6.0315
X5.1024Y-4.3386
X5.1024Y-4.4016
X5.1496Y-5.9685
X5.1496Y-6.0315
X5.2362Y-5.6457
X5.2362Y-5.7087
X5.3071Y-5.6457
X5.3071Y-5.7087
X5.3189Y-4.5827
X5.3189Y-4.6457
X5.378Y-4.8268
X5.3898Y-4.5827
X5.3898Y-4.6457
X5.4252Y-5.2047
X5.4252Y-5.2677
X5.4252Y-5.8406
X5.4961Y-5.2047
X5.4961Y-5.2677
X5.5256Y-5.685
X5.6063Y-5.378
X5.622Y-5.687
X5.6535Y-4.9449
X5.6654Y-4.622
X5.6654Y-4.685
X5.7224Y-5.687
X5.7362Y-4.622
X5.7362Y-4.685
X5.8209Y-5.6516
X5.8622Y-5.7677
X5.8661Y-5.3543
X5.9252Y-5.9134
X5.9311Y-5.9823
X5.9921Y-4.8189
X6.0197Y-5.7677
X6.0472Y-5.1024
X6.0472Y-5.3465
X6.122Y-5.9921
X6.1929Y-5.7677
X6.1969Y-5.3465
X6.2244Y-6.0354
X6.2598Y-5.7677
X6.3228Y-6.0709
X6.3701Y-5.1024
X6.378Y-4.7638
X6.4094Y-5.7677
X6.4252Y-5.252
X6.4252Y-5.315
X6.4619Y-5.7677
X6.4724Y-4.7402
X6.4961Y-5.252
X6.4961Y-5.315
X6.5039Y-5.1024
X6.5144Y-5.7677
X6.5232Y-4.7563
X6.5827Y-4.8189
X6.5827Y-4.874
X6.6535Y-5.4094
X6.6535Y-5.4724
X6.6732Y-4.7677
X6.7244Y-5.4094
X6.7244Y-5.4724
X6.7244Y-5.7677
X6.7769Y-5.7677
X6.8294Y-5.7677
X6.9272Y-5.4134
X6.9311Y-5.2421
X7.0929Y-4.772
X7.1391Y-5.7677
X7.1496Y-5.185
X7.1496Y-5.4685
X7.1916Y-5.7677
X7.2441Y-5.7677
X7.2559Y-5.0433
X7.2966Y-5.7677
X7.3346Y-5.8406
X7.3491Y-5.7677
X7.4409Y-4.5118
X7.4409Y-4.5748
X7.4882Y-5.0945
X7.5118Y-4.5118
X7.5118Y-4.5748
X7.5315Y-5.7717
X7.5512Y-4.7717
X7.5807Y-5.502
X7.5866Y-5.7579
X7.6417Y-4.7598
X7.6457Y-5.7579
X7.6929Y-5.3701
X7.7047Y-5.7579
X7.7559Y-5.3307
X7.7559Y-5.4409
X7.7559Y-5.4882
X7.7638Y-5.7579
X7.8031Y-4.8898
X7.8031Y-5.4409
X7.8031Y-5.4882
X7.811Y-5.2913
X7.8228Y-5.7579
X7.8386Y-4.252
X7.8504Y-5.4409
X7.8504Y-5.4882
X7.8661Y-4.4961
X7.8819Y-5.7559
X7.8898Y-5.0787
X7.939Y-5.752
X7.9508Y-4.252
X8.0Y-5.752
X8.0236Y-4.3386
X8.0472Y-5.063
X8.0484Y-4.8327
X8.0551Y-4.9685
X8.0611Y-6.0033
X8.063Y-4.252
X8.0709Y-4.7402
X8.1063Y-5.9331
X8.1496Y-5.315
X8.189Y-5.2756
X8.2283Y-5.6063
X8.2319Y-4.7512
X8.2982Y-5.7333
X8.2992Y-5.6063
X8.3346Y-4.4961
X8.3346Y-4.5866
X8.3465Y-4.8898
X8.3465Y-4.9449
X8.3465Y-5.0079
X8.3465Y-5.063
X8.3583Y-5.2736
X8.3583Y-5.3553
X8.3583Y-5.437
T2
X4.7756Y-4.7126
X4.8937Y-4.8976
X5.0118Y-4.7126
T3
X4.6063Y-6.0039
X8.2677Y-6.0039
X8.2677Y-4.311
X4.6063Y-4.311
T0
M30
