%TF.GenerationSoftware,KiCad,Pcbnew,6.0.11-2627ca5db0~126~ubuntu20.04.1*%
%TF.CreationDate,2023-09-23T16:44:06-04:00*%
%TF.ProjectId,water_meter,77617465-725f-46d6-9574-65722e6b6963,rev?*%
%TF.SameCoordinates,Original*%
%TF.FileFunction,Copper,L2,Inr*%
%TF.FilePolarity,Positive*%
%FSLAX46Y46*%
G04 Gerber Fmt 4.6, Leading zero omitted, Abs format (unit mm)*
G04 Created by KiCad (PCBNEW 6.0.11-2627ca5db0~126~ubuntu20.04.1) date 2023-09-23 16:44:06*
%MOMM*%
%LPD*%
G01*
G04 APERTURE LIST*
%TA.AperFunction,ComponentPad*%
%ADD10O,1.800000X0.900000*%
%TD*%
%TA.AperFunction,ComponentPad*%
%ADD11C,1.530000*%
%TD*%
%TA.AperFunction,ComponentPad*%
%ADD12C,5.175000*%
%TD*%
%TA.AperFunction,ComponentPad*%
%ADD13R,1.700000X1.700000*%
%TD*%
%TA.AperFunction,ComponentPad*%
%ADD14O,1.700000X1.700000*%
%TD*%
%TA.AperFunction,ViaPad*%
%ADD15C,1.000000*%
%TD*%
G04 APERTURE END LIST*
D10*
%TO.N,GND*%
%TO.C,J4*%
X-2855000Y41480000D03*
X-2855000Y34880000D03*
%TD*%
D11*
%TO.N,Net-(J1-Pad1)*%
%TO.C,J1*%
X68525000Y22900000D03*
%TO.N,GND*%
X68525000Y35600000D03*
D12*
%TO.N,unconnected-(J1-PadMH1)*%
X42105000Y35600000D03*
%TO.N,unconnected-(J1-PadMH2)*%
X42105000Y5750000D03*
%TD*%
D13*
%TO.N,GND*%
%TO.C,J3*%
X2273333Y21250000D03*
D14*
%TO.N,/GPIO0*%
X2273333Y18710000D03*
%TO.N,+3V3*%
X2273333Y16170000D03*
%TO.N,/UART0_RX*%
X2273333Y13630000D03*
%TO.N,/UART0_TX*%
X2273333Y11090000D03*
%TO.N,/EN*%
X2273333Y8550000D03*
%TD*%
D13*
%TO.N,+3V3*%
%TO.C,J5*%
X78810000Y27650000D03*
D14*
%TO.N,/SCL*%
X78810000Y25110000D03*
%TO.N,/SDA*%
X78810000Y22570000D03*
%TO.N,GND*%
X78810000Y20030000D03*
%TD*%
D15*
%TO.N,GND*%
X61280000Y25560000D03*
X79020000Y50370000D03*
X45530000Y33880000D03*
X57800000Y-2220000D03*
X19740000Y10530000D03*
X53350000Y43220000D03*
X64620000Y6340000D03*
X1980000Y34970000D03*
X74670000Y1040000D03*
X3240000Y50800000D03*
X34630000Y44150000D03*
X33420000Y30350000D03*
X9340000Y39520000D03*
X19730000Y12290000D03*
X79250000Y10150000D03*
X44220000Y42990000D03*
X5380000Y29860000D03*
X27920000Y4560000D03*
X38420000Y-2190000D03*
X-2850000Y50570000D03*
X15740000Y4510000D03*
X47760000Y18410000D03*
X73950000Y40370000D03*
X69350000Y13630000D03*
X42700000Y29480000D03*
X57370000Y18420000D03*
X10350000Y1280000D03*
X21822000Y8764000D03*
X56190000Y28020000D03*
X39050000Y2870000D03*
X25360000Y39560000D03*
X20650000Y-2190000D03*
X19050000Y42260000D03*
X41660000Y23770000D03*
X84680000Y33050000D03*
X16650000Y25920000D03*
X19730000Y8790000D03*
X54310000Y18240000D03*
X71840000Y48200000D03*
%TO.N,/MAG*%
X50600000Y30010000D03*
X79980000Y15360000D03*
X86230000Y36130000D03*
X38460000Y31090000D03*
%TO.N,/EN*%
X60000Y46060000D03*
X-2460000Y30290000D03*
%TO.N,+3V3*%
X13300000Y1230000D03*
X21710000Y29710000D03*
X74820000Y50200000D03*
X60720000Y43270000D03*
X48130000Y5760000D03*
X77760000Y36100000D03*
X44000000Y30130000D03*
X70620000Y27760000D03*
X38600000Y22800000D03*
X8730000Y51060000D03*
X18190000Y13760000D03*
X29580000Y-2190000D03*
X37580000Y6890000D03*
X2820000Y42270000D03*
X45210000Y18390000D03*
X25380000Y36010000D03*
X35090000Y6860000D03*
X8350000Y6640000D03*
X2610000Y26760000D03*
X47880000Y-2190000D03*
X64880000Y18140000D03*
X7870000Y26820000D03*
X73870000Y6690000D03*
X85030000Y46110000D03*
X5490000Y16100000D03*
X53700000Y5800000D03*
X79790000Y3310000D03*
X32080000Y44020000D03*
X65600000Y3620000D03*
X20880000Y19250000D03*
X62580000Y27020000D03*
X18510000Y39710000D03*
%TO.N,/SCL*%
X27900000Y10120000D03*
X32560000Y9630000D03*
X46280000Y27490000D03*
X27040000Y27200000D03*
%TO.N,/SDA*%
X33180000Y8350000D03*
X46090000Y28730000D03*
X26540000Y25890000D03*
%TO.N,/SLG_INT1*%
X25170000Y18410000D03*
%TO.N,/SLG_INT2*%
X23770000Y17160000D03*
%TO.N,Net-(C15-Pad1)*%
X14610000Y47860000D03*
%TO.N,/LED_PIN0*%
X15780000Y7080000D03*
X20740000Y34310000D03*
%TO.N,/M_CLK*%
X79810000Y12120000D03*
X87010000Y42150000D03*
X38710000Y25790000D03*
%TO.N,Net-(R11-Pad1)*%
X20890000Y49030000D03*
%TO.N,/LED_PWR*%
X13640000Y34030000D03*
X11100000Y5830000D03*
%TO.N,/VBATT_DIV*%
X30080000Y24280000D03*
X33100000Y27350000D03*
X16580000Y15610000D03*
X19930000Y24350000D03*
X21840000Y3740000D03*
%TO.N,/Sensors/MAG_PWR*%
X45260000Y45940000D03*
X45230000Y40380000D03*
%TO.N,/Sensors/RH1_A*%
X47060000Y24370000D03*
X47610000Y28370000D03*
%TO.N,/Sensors/RH0_A*%
X47700000Y30490000D03*
X43070000Y19380000D03*
%TO.N,/SLG_PIN19*%
X39060000Y28050000D03*
%TD*%
%TA.AperFunction,Conductor*%
%TO.N,GND*%
G36*
X7359508Y58941498D02*
G01*
X7369635Y58934258D01*
X8348365Y58158770D01*
X9524375Y57276256D01*
X9525063Y57275768D01*
X9525080Y57275755D01*
X9927093Y56990269D01*
X10723167Y56424944D01*
X11943911Y55605423D01*
X11944604Y55604984D01*
X13185090Y54818686D01*
X13185116Y54818670D01*
X13185766Y54818258D01*
X14447874Y54063993D01*
X15729364Y53343149D01*
X17029350Y52656222D01*
X17030086Y52655858D01*
X17030085Y52655858D01*
X18346254Y52004025D01*
X18346270Y52004017D01*
X18346935Y52003688D01*
X18347598Y52003381D01*
X18347619Y52003371D01*
X19432019Y51501357D01*
X19681210Y51385996D01*
X19681963Y51385671D01*
X19681979Y51385664D01*
X20248342Y51141330D01*
X21031254Y50803575D01*
X22396133Y50256824D01*
X23774907Y49746123D01*
X23775683Y49745858D01*
X23775707Y49745850D01*
X24494520Y49500877D01*
X25166622Y49271823D01*
X25392076Y49201543D01*
X26569510Y48834505D01*
X26569523Y48834501D01*
X26570319Y48834253D01*
X27334757Y48617821D01*
X27984277Y48433925D01*
X27984300Y48433919D01*
X27985027Y48433713D01*
X29409771Y48070481D01*
X30843566Y47744808D01*
X30844347Y47744652D01*
X30844366Y47744648D01*
X32284575Y47457087D01*
X32284598Y47457083D01*
X32285423Y47456918D01*
X33734347Y47207010D01*
X33735134Y47206896D01*
X33735162Y47206891D01*
X35188455Y46995385D01*
X35188471Y46995383D01*
X35189336Y46995257D01*
X35190178Y46995157D01*
X35190208Y46995153D01*
X36648549Y46821904D01*
X36648582Y46821901D01*
X36649386Y46821805D01*
X36650198Y46821730D01*
X36650199Y46821730D01*
X38112684Y46686847D01*
X38112702Y46686846D01*
X38113489Y46686773D01*
X38114319Y46686718D01*
X38114324Y46686718D01*
X39579783Y46590311D01*
X39579787Y46590311D01*
X39580635Y46590255D01*
X39581449Y46590223D01*
X39581485Y46590221D01*
X40337483Y46560409D01*
X41049810Y46532318D01*
X41050576Y46532308D01*
X41050611Y46532307D01*
X42519163Y46513012D01*
X42520000Y46513001D01*
X42520837Y46513012D01*
X43989389Y46532307D01*
X43989424Y46532308D01*
X43990190Y46532318D01*
X44221782Y46541451D01*
X44290638Y46524149D01*
X44339209Y46472367D01*
X44352074Y46402546D01*
X44337163Y46354850D01*
X44328567Y46339213D01*
X44326706Y46333346D01*
X44326705Y46333344D01*
X44270627Y46156564D01*
X44268765Y46150694D01*
X44246719Y45954149D01*
X44248993Y45927066D01*
X44252485Y45885487D01*
X44263268Y45757066D01*
X44284946Y45681465D01*
X44294594Y45647821D01*
X44317783Y45566950D01*
X44320602Y45561465D01*
X44402530Y45402052D01*
X44408187Y45391044D01*
X44531035Y45236047D01*
X44535728Y45232053D01*
X44535729Y45232052D01*
X44667085Y45120260D01*
X44681650Y45107864D01*
X44854294Y45011376D01*
X45042392Y44950260D01*
X45238777Y44926842D01*
X45244912Y44927314D01*
X45244914Y44927314D01*
X45429830Y44941543D01*
X45429834Y44941544D01*
X45435972Y44942016D01*
X45626463Y44995202D01*
X45631967Y44997982D01*
X45631969Y44997983D01*
X45797495Y45081596D01*
X45797497Y45081597D01*
X45802996Y45084375D01*
X45848594Y45120000D01*
X66500000Y45120000D01*
X66512375Y42273674D01*
X66519913Y40540115D01*
X66520000Y40520000D01*
X66533051Y40519855D01*
X66533052Y40519855D01*
X72284988Y40456046D01*
X72830000Y40450000D01*
X74794571Y42139531D01*
X74849013Y42164149D01*
X85996719Y42164149D01*
X86013268Y41967066D01*
X86033607Y41896136D01*
X86044594Y41857821D01*
X86067783Y41776950D01*
X86158187Y41601044D01*
X86281035Y41446047D01*
X86285728Y41442053D01*
X86285729Y41442052D01*
X86406261Y41339472D01*
X86431650Y41317864D01*
X86604294Y41221376D01*
X86792392Y41160260D01*
X86988777Y41136842D01*
X86994912Y41137314D01*
X86994914Y41137314D01*
X87179830Y41151543D01*
X87179834Y41151544D01*
X87185972Y41152016D01*
X87376463Y41205202D01*
X87381967Y41207982D01*
X87381969Y41207983D01*
X87547495Y41291596D01*
X87547497Y41291597D01*
X87552996Y41294375D01*
X87708847Y41416139D01*
X87838078Y41565855D01*
X87935769Y41737821D01*
X87998197Y41925487D01*
X88022985Y42121705D01*
X88023380Y42150000D01*
X88004080Y42346833D01*
X87946916Y42536169D01*
X87854066Y42710796D01*
X87751036Y42837123D01*
X87732960Y42859287D01*
X87732957Y42859290D01*
X87729065Y42864062D01*
X87722724Y42869308D01*
X87581425Y42986201D01*
X87581421Y42986203D01*
X87576675Y42990130D01*
X87402701Y43084198D01*
X87213768Y43142682D01*
X87207643Y43143326D01*
X87207642Y43143326D01*
X87023204Y43162711D01*
X87023202Y43162711D01*
X87017075Y43163355D01*
X86934576Y43155847D01*
X86826251Y43145989D01*
X86826248Y43145988D01*
X86820112Y43145430D01*
X86814206Y43143692D01*
X86814202Y43143691D01*
X86736469Y43120813D01*
X86630381Y43089590D01*
X86624923Y43086737D01*
X86624919Y43086735D01*
X86546020Y43045487D01*
X86455110Y42997960D01*
X86300975Y42874032D01*
X86173846Y42722526D01*
X86170879Y42717128D01*
X86170875Y42717123D01*
X86092095Y42573820D01*
X86078567Y42549213D01*
X86076706Y42543346D01*
X86076705Y42543344D01*
X86037516Y42419804D01*
X86018765Y42360694D01*
X85996719Y42164149D01*
X74849013Y42164149D01*
X74859261Y42168783D01*
X74876728Y42170000D01*
X76880000Y42170000D01*
X76880000Y43630000D01*
X76866806Y43630146D01*
X76866805Y43630146D01*
X75129288Y43649345D01*
X75061392Y43670098D01*
X75032714Y43696099D01*
X73981392Y44995916D01*
X73981391Y44995917D01*
X73970000Y45010000D01*
X73960380Y45010142D01*
X73960378Y45010142D01*
X69578133Y45074673D01*
X66500000Y45120000D01*
X45848594Y45120000D01*
X45958847Y45206139D01*
X46088078Y45355855D01*
X46185769Y45527821D01*
X46248197Y45715487D01*
X46272985Y45911705D01*
X46273380Y45940000D01*
X46255324Y46124149D01*
X84016719Y46124149D01*
X84017235Y46118005D01*
X84032478Y45936477D01*
X84033268Y45927066D01*
X84046869Y45879635D01*
X84083714Y45751142D01*
X84087783Y45736950D01*
X84090602Y45731465D01*
X84172106Y45572877D01*
X84178187Y45561044D01*
X84301035Y45406047D01*
X84305728Y45402053D01*
X84305729Y45402052D01*
X84360011Y45355855D01*
X84451650Y45277864D01*
X84624294Y45181376D01*
X84812392Y45120260D01*
X85008777Y45096842D01*
X85014912Y45097314D01*
X85014914Y45097314D01*
X85199830Y45111543D01*
X85199834Y45111544D01*
X85205972Y45112016D01*
X85396463Y45165202D01*
X85401967Y45167982D01*
X85401969Y45167983D01*
X85567495Y45251596D01*
X85567497Y45251597D01*
X85572996Y45254375D01*
X85728847Y45376139D01*
X85858078Y45525855D01*
X85955769Y45697821D01*
X86018197Y45885487D01*
X86042985Y46081705D01*
X86043380Y46110000D01*
X86024080Y46306833D01*
X86020024Y46320269D01*
X85980370Y46451608D01*
X85966916Y46496169D01*
X85874066Y46670796D01*
X85781713Y46784032D01*
X85752960Y46819287D01*
X85752957Y46819290D01*
X85749065Y46824062D01*
X85742724Y46829308D01*
X85601425Y46946201D01*
X85601421Y46946203D01*
X85596675Y46950130D01*
X85422701Y47044198D01*
X85233768Y47102682D01*
X85227643Y47103326D01*
X85227642Y47103326D01*
X85043204Y47122711D01*
X85043202Y47122711D01*
X85037075Y47123355D01*
X84954576Y47115847D01*
X84846251Y47105989D01*
X84846248Y47105988D01*
X84840112Y47105430D01*
X84834206Y47103692D01*
X84834202Y47103691D01*
X84731129Y47073355D01*
X84650381Y47049590D01*
X84644923Y47046737D01*
X84644919Y47046735D01*
X84608823Y47027864D01*
X84475110Y46957960D01*
X84320975Y46834032D01*
X84193846Y46682526D01*
X84190879Y46677128D01*
X84190875Y46677123D01*
X84143120Y46590255D01*
X84098567Y46509213D01*
X84096706Y46503346D01*
X84096705Y46503344D01*
X84064730Y46402546D01*
X84038765Y46320694D01*
X84016719Y46124149D01*
X46255324Y46124149D01*
X46254080Y46136833D01*
X46196916Y46326169D01*
X46193101Y46333344D01*
X46127819Y46456124D01*
X46113500Y46525662D01*
X46139048Y46591902D01*
X46196353Y46633815D01*
X46230797Y46641004D01*
X46861954Y46682526D01*
X46925676Y46686718D01*
X46925681Y46686718D01*
X46926511Y46686773D01*
X46927298Y46686846D01*
X46927316Y46686847D01*
X48389801Y46821730D01*
X48389802Y46821730D01*
X48390614Y46821805D01*
X48391418Y46821901D01*
X48391451Y46821904D01*
X49849792Y46995153D01*
X49849822Y46995157D01*
X49850664Y46995257D01*
X49851529Y46995383D01*
X49851545Y46995385D01*
X51304838Y47206891D01*
X51304866Y47206896D01*
X51305653Y47207010D01*
X52754577Y47456918D01*
X52755402Y47457083D01*
X52755425Y47457087D01*
X54195634Y47744648D01*
X54195653Y47744652D01*
X54196434Y47744808D01*
X55630229Y48070481D01*
X57054973Y48433713D01*
X57055700Y48433919D01*
X57055723Y48433925D01*
X57705243Y48617821D01*
X58469681Y48834253D01*
X58470477Y48834501D01*
X58470490Y48834505D01*
X59647924Y49201543D01*
X59873378Y49271823D01*
X60545480Y49500877D01*
X61264293Y49745850D01*
X61264317Y49745858D01*
X61265093Y49746123D01*
X62528654Y50214149D01*
X73806719Y50214149D01*
X73807235Y50208005D01*
X73822712Y50023691D01*
X73823268Y50017066D01*
X73877783Y49826950D01*
X73968187Y49651044D01*
X74091035Y49496047D01*
X74095728Y49492053D01*
X74095729Y49492052D01*
X74184892Y49416169D01*
X74241650Y49367864D01*
X74414294Y49271376D01*
X74602392Y49210260D01*
X74798777Y49186842D01*
X74804912Y49187314D01*
X74804914Y49187314D01*
X74989830Y49201543D01*
X74989834Y49201544D01*
X74995972Y49202016D01*
X75186463Y49255202D01*
X75191967Y49257982D01*
X75191969Y49257983D01*
X75357495Y49341596D01*
X75357497Y49341597D01*
X75362996Y49344375D01*
X75518847Y49466139D01*
X75648078Y49615855D01*
X75745769Y49787821D01*
X75808197Y49975487D01*
X75832985Y50171705D01*
X75833380Y50200000D01*
X75814080Y50396833D01*
X75756916Y50586169D01*
X75664066Y50760796D01*
X75574070Y50871142D01*
X75542960Y50909287D01*
X75542957Y50909290D01*
X75539065Y50914062D01*
X75532724Y50919308D01*
X75391425Y51036201D01*
X75391421Y51036203D01*
X75386675Y51040130D01*
X75212701Y51134198D01*
X75023768Y51192682D01*
X75017643Y51193326D01*
X75017642Y51193326D01*
X74833204Y51212711D01*
X74833202Y51212711D01*
X74827075Y51213355D01*
X74744576Y51205847D01*
X74636251Y51195989D01*
X74636248Y51195988D01*
X74630112Y51195430D01*
X74624206Y51193692D01*
X74624202Y51193691D01*
X74519076Y51162751D01*
X74440381Y51139590D01*
X74434923Y51136737D01*
X74434919Y51136735D01*
X74344147Y51089280D01*
X74265110Y51047960D01*
X74110975Y50924032D01*
X73983846Y50772526D01*
X73980879Y50767128D01*
X73980875Y50767123D01*
X73933785Y50681465D01*
X73888567Y50599213D01*
X73886706Y50593346D01*
X73886705Y50593344D01*
X73830627Y50416564D01*
X73828765Y50410694D01*
X73806719Y50214149D01*
X62528654Y50214149D01*
X62643867Y50256824D01*
X64008746Y50803575D01*
X64791658Y51141330D01*
X65358021Y51385664D01*
X65358037Y51385671D01*
X65358790Y51385996D01*
X65607981Y51501357D01*
X66692381Y52003371D01*
X66692402Y52003381D01*
X66693065Y52003688D01*
X66693730Y52004017D01*
X66693746Y52004025D01*
X68009915Y52655858D01*
X68009914Y52655858D01*
X68010650Y52656222D01*
X69310636Y53343149D01*
X70592126Y54063993D01*
X71854234Y54818258D01*
X71854884Y54818670D01*
X71854910Y54818686D01*
X71948530Y54878028D01*
X81507724Y54878028D01*
X81507990Y54874687D01*
X81507990Y54874682D01*
X81522829Y54688223D01*
X81537384Y54505320D01*
X81538004Y54502025D01*
X81538004Y54502022D01*
X81573286Y54314404D01*
X81606482Y54137874D01*
X81714234Y53779851D01*
X81859422Y53435306D01*
X82040400Y53108139D01*
X82042321Y53105401D01*
X82042327Y53105391D01*
X82253197Y52804798D01*
X82255120Y52802057D01*
X82501149Y52520524D01*
X82775702Y52266730D01*
X83075670Y52043548D01*
X83078557Y52041844D01*
X83394764Y51855211D01*
X83394769Y51855208D01*
X83397655Y51853505D01*
X83738013Y51698754D01*
X83919521Y51638550D01*
X84089696Y51582105D01*
X84089703Y51582103D01*
X84092887Y51581047D01*
X84096172Y51580334D01*
X84096171Y51580334D01*
X84454981Y51502428D01*
X84454984Y51502428D01*
X84458261Y51501716D01*
X84653587Y51480669D01*
X84827477Y51461932D01*
X84827485Y51461931D01*
X84829995Y51461661D01*
X84832515Y51461593D01*
X84832527Y51461592D01*
X84834515Y51461539D01*
X84835945Y51461500D01*
X85113461Y51461500D01*
X85115127Y51461589D01*
X85115136Y51461589D01*
X85390022Y51476236D01*
X85390028Y51476237D01*
X85393357Y51476414D01*
X85396649Y51476944D01*
X85396656Y51476945D01*
X85759170Y51535335D01*
X85759171Y51535335D01*
X85762485Y51535869D01*
X85765725Y51536752D01*
X85765728Y51536753D01*
X86119960Y51633328D01*
X86119961Y51633328D01*
X86123206Y51634213D01*
X86471434Y51770331D01*
X86474416Y51771880D01*
X86800256Y51941140D01*
X86800259Y51941142D01*
X86803226Y51942683D01*
X87114824Y52149317D01*
X87402700Y52387892D01*
X87663595Y52655708D01*
X87776574Y52799536D01*
X87892481Y52947093D01*
X87892482Y52947095D01*
X87894553Y52949731D01*
X88092959Y53266631D01*
X88256566Y53602821D01*
X88383523Y53954493D01*
X88472390Y54317664D01*
X88522163Y54688223D01*
X88532276Y55061972D01*
X88532010Y55065318D01*
X88502883Y55431331D01*
X88502882Y55431340D01*
X88502616Y55434680D01*
X88501996Y55437978D01*
X88434136Y55798842D01*
X88434134Y55798850D01*
X88433518Y55802126D01*
X88325766Y56160149D01*
X88249872Y56340253D01*
X88181878Y56501610D01*
X88181875Y56501617D01*
X88180578Y56504694D01*
X87999600Y56831861D01*
X87997679Y56834599D01*
X87997673Y56834609D01*
X87786803Y57135202D01*
X87786802Y57135204D01*
X87784880Y57137943D01*
X87538851Y57419476D01*
X87264298Y57673270D01*
X86964330Y57896452D01*
X86845526Y57966573D01*
X86645236Y58084789D01*
X86645231Y58084792D01*
X86642345Y58086495D01*
X86301987Y58241246D01*
X86104735Y58306672D01*
X85950304Y58357895D01*
X85950297Y58357897D01*
X85947113Y58358953D01*
X85803319Y58390174D01*
X85585019Y58437572D01*
X85585016Y58437572D01*
X85581739Y58438284D01*
X85345270Y58463764D01*
X85212523Y58478068D01*
X85212515Y58478069D01*
X85210005Y58478339D01*
X85207485Y58478407D01*
X85207473Y58478408D01*
X85205485Y58478461D01*
X85204055Y58478500D01*
X84926539Y58478500D01*
X84924873Y58478411D01*
X84924864Y58478411D01*
X84649978Y58463764D01*
X84649972Y58463763D01*
X84646643Y58463586D01*
X84643351Y58463056D01*
X84643344Y58463055D01*
X84280830Y58404665D01*
X84277515Y58404131D01*
X84274275Y58403248D01*
X84274272Y58403247D01*
X83920040Y58306672D01*
X83916794Y58305787D01*
X83568566Y58169669D01*
X83565584Y58168120D01*
X83400678Y58082458D01*
X83236774Y57997317D01*
X82925176Y57790683D01*
X82637300Y57552108D01*
X82376405Y57284292D01*
X82374338Y57281660D01*
X82374334Y57281656D01*
X82261446Y57137943D01*
X82145447Y56990269D01*
X81947041Y56673369D01*
X81783434Y56337179D01*
X81656477Y55985507D01*
X81567610Y55622336D01*
X81517837Y55251777D01*
X81507724Y54878028D01*
X71948530Y54878028D01*
X73095396Y55604984D01*
X73096089Y55605423D01*
X74316833Y56424944D01*
X75112907Y56990269D01*
X75514920Y57275755D01*
X75514937Y57275768D01*
X75515625Y57276256D01*
X76691635Y58158770D01*
X77670365Y58934257D01*
X77736179Y58960885D01*
X77748614Y58961500D01*
X85970633Y58961500D01*
X85990018Y58960000D01*
X86004851Y58957690D01*
X86004855Y58957690D01*
X86013724Y58956309D01*
X86032436Y58958756D01*
X86055366Y58959647D01*
X86326103Y58945458D01*
X86339209Y58944081D01*
X86554134Y58910040D01*
X86635445Y58897162D01*
X86648345Y58894420D01*
X86793196Y58855608D01*
X86938052Y58816793D01*
X86950586Y58812721D01*
X87230587Y58705238D01*
X87242635Y58699874D01*
X87509870Y58563711D01*
X87521286Y58557120D01*
X87772832Y58393764D01*
X87783492Y58386018D01*
X87882569Y58305787D01*
X88016573Y58197273D01*
X88026374Y58188448D01*
X88238448Y57976374D01*
X88247273Y57966573D01*
X88436016Y57733495D01*
X88443764Y57722832D01*
X88607117Y57471291D01*
X88613711Y57459870D01*
X88749874Y57192635D01*
X88755237Y57180588D01*
X88829386Y56987427D01*
X88862719Y56900591D01*
X88866793Y56888052D01*
X88881850Y56831861D01*
X88944420Y56598345D01*
X88947162Y56585445D01*
X88972654Y56424497D01*
X88994080Y56289215D01*
X88995458Y56276098D01*
X89009262Y56012701D01*
X89007935Y55986724D01*
X89007691Y55985154D01*
X89007691Y55985150D01*
X89006309Y55976276D01*
X89007473Y55967374D01*
X89007473Y55967372D01*
X89010436Y55944717D01*
X89011500Y55928379D01*
X89011500Y-980633D01*
X89010000Y-1000018D01*
X89007690Y-1014851D01*
X89007690Y-1014855D01*
X89006309Y-1023724D01*
X89008135Y-1037683D01*
X89008756Y-1042433D01*
X89009647Y-1065366D01*
X89002732Y-1197318D01*
X88995458Y-1336099D01*
X88994080Y-1349215D01*
X88947162Y-1645445D01*
X88944420Y-1658345D01*
X88923555Y-1736214D01*
X88881114Y-1894609D01*
X88866795Y-1948047D01*
X88862721Y-1960586D01*
X88770640Y-2200464D01*
X88755238Y-2240587D01*
X88749874Y-2252635D01*
X88613711Y-2519870D01*
X88607120Y-2531286D01*
X88443764Y-2782832D01*
X88436018Y-2793492D01*
X88334224Y-2919197D01*
X88247273Y-3026573D01*
X88238448Y-3036374D01*
X88026374Y-3248448D01*
X88016573Y-3257273D01*
X87816035Y-3419666D01*
X87783495Y-3446016D01*
X87772832Y-3453764D01*
X87521286Y-3617120D01*
X87509870Y-3623711D01*
X87242635Y-3759874D01*
X87230588Y-3765237D01*
X86950586Y-3872721D01*
X86938052Y-3876793D01*
X86793196Y-3915607D01*
X86648345Y-3954420D01*
X86635445Y-3957162D01*
X86554134Y-3970040D01*
X86339209Y-4004081D01*
X86326101Y-4005458D01*
X86250937Y-4009397D01*
X86062701Y-4019262D01*
X86036724Y-4017935D01*
X86035154Y-4017691D01*
X86035150Y-4017691D01*
X86026276Y-4016309D01*
X86017374Y-4017473D01*
X86017372Y-4017473D01*
X86002323Y-4019441D01*
X85994714Y-4020436D01*
X85978379Y-4021500D01*
X-930633Y-4021500D01*
X-950018Y-4020000D01*
X-964851Y-4017690D01*
X-964855Y-4017690D01*
X-973724Y-4016309D01*
X-992436Y-4018756D01*
X-1015366Y-4019647D01*
X-1286103Y-4005458D01*
X-1299209Y-4004081D01*
X-1514134Y-3970040D01*
X-1595445Y-3957162D01*
X-1608345Y-3954420D01*
X-1753196Y-3915607D01*
X-1898052Y-3876793D01*
X-1910586Y-3872721D01*
X-2190588Y-3765237D01*
X-2202635Y-3759874D01*
X-2469870Y-3623711D01*
X-2481286Y-3617120D01*
X-2732832Y-3453764D01*
X-2743495Y-3446016D01*
X-2776034Y-3419666D01*
X-2976573Y-3257273D01*
X-2986374Y-3248448D01*
X-3198448Y-3036374D01*
X-3207273Y-3026573D01*
X-3294224Y-2919197D01*
X-3396018Y-2793492D01*
X-3403764Y-2782832D01*
X-3567120Y-2531286D01*
X-3573711Y-2519870D01*
X-3709874Y-2252635D01*
X-3715238Y-2240587D01*
X-3730640Y-2200464D01*
X-3822721Y-1960586D01*
X-3826795Y-1948047D01*
X-3841113Y-1894609D01*
X-3883555Y-1736214D01*
X-3904420Y-1658345D01*
X-3907162Y-1645445D01*
X-3954080Y-1349215D01*
X-3955458Y-1336098D01*
X-3969068Y-1076410D01*
X-3967495Y-1048915D01*
X-3966424Y-1042552D01*
X-3966271Y-1030000D01*
X-3970227Y-1002376D01*
X-3971500Y-984514D01*
X-3971500Y-121972D01*
X-3492276Y-121972D01*
X-3492010Y-125313D01*
X-3492010Y-125318D01*
X-3477171Y-311777D01*
X-3462616Y-494680D01*
X-3461996Y-497975D01*
X-3461996Y-497978D01*
X-3426714Y-685596D01*
X-3393518Y-862126D01*
X-3285766Y-1220149D01*
X-3234402Y-1342040D01*
X-3183808Y-1462104D01*
X-3140578Y-1564694D01*
X-2959600Y-1891861D01*
X-2957679Y-1894599D01*
X-2957673Y-1894609D01*
X-2793841Y-2128150D01*
X-2744880Y-2197943D01*
X-2742678Y-2200463D01*
X-2742677Y-2200464D01*
X-2707614Y-2240587D01*
X-2498851Y-2479476D01*
X-2496390Y-2481751D01*
X-2496387Y-2481754D01*
X-2372443Y-2596326D01*
X-2224298Y-2733270D01*
X-1924330Y-2956452D01*
X-1921443Y-2958156D01*
X-1605236Y-3144789D01*
X-1605231Y-3144792D01*
X-1602345Y-3146495D01*
X-1261987Y-3301246D01*
X-1080479Y-3361450D01*
X-910304Y-3417895D01*
X-910297Y-3417897D01*
X-907113Y-3418953D01*
X-903828Y-3419666D01*
X-903829Y-3419666D01*
X-545019Y-3497572D01*
X-545016Y-3497572D01*
X-541739Y-3498284D01*
X-346413Y-3519331D01*
X-172523Y-3538068D01*
X-172515Y-3538069D01*
X-170005Y-3538339D01*
X-167485Y-3538407D01*
X-167473Y-3538408D01*
X-165485Y-3538461D01*
X-164055Y-3538500D01*
X113461Y-3538500D01*
X115127Y-3538411D01*
X115136Y-3538411D01*
X390022Y-3523764D01*
X390028Y-3523763D01*
X393357Y-3523586D01*
X396649Y-3523056D01*
X396656Y-3523055D01*
X759170Y-3464665D01*
X759171Y-3464665D01*
X762485Y-3464131D01*
X765725Y-3463248D01*
X765728Y-3463247D01*
X1119960Y-3366672D01*
X1119961Y-3366672D01*
X1123206Y-3365787D01*
X1471434Y-3229669D01*
X1566148Y-3180469D01*
X1800256Y-3058860D01*
X1800259Y-3058858D01*
X1803226Y-3057317D01*
X1959025Y-2954000D01*
X2112036Y-2852532D01*
X2112038Y-2852531D01*
X2114824Y-2850683D01*
X2402700Y-2612108D01*
X2663595Y-2344292D01*
X2735593Y-2252635D01*
X2795907Y-2175851D01*
X28566719Y-2175851D01*
X28567235Y-2181995D01*
X28580642Y-2341656D01*
X28583268Y-2372934D01*
X28584967Y-2378858D01*
X28613094Y-2476948D01*
X28637783Y-2563050D01*
X28728187Y-2738956D01*
X28851035Y-2893953D01*
X28855728Y-2897947D01*
X28855729Y-2897948D01*
X28926474Y-2958156D01*
X29001650Y-3022136D01*
X29174294Y-3118624D01*
X29362392Y-3179740D01*
X29558777Y-3203158D01*
X29564912Y-3202686D01*
X29564914Y-3202686D01*
X29749830Y-3188457D01*
X29749834Y-3188456D01*
X29755972Y-3187984D01*
X29946463Y-3134798D01*
X29951967Y-3132018D01*
X29951969Y-3132017D01*
X30117495Y-3048404D01*
X30117497Y-3048403D01*
X30122996Y-3045625D01*
X30278847Y-2923861D01*
X30408078Y-2774145D01*
X30505769Y-2602179D01*
X30568197Y-2414513D01*
X30592985Y-2218295D01*
X30593269Y-2197943D01*
X30593331Y-2193523D01*
X30593331Y-2193520D01*
X30593380Y-2190000D01*
X30591993Y-2175851D01*
X46866719Y-2175851D01*
X46867235Y-2181995D01*
X46880642Y-2341656D01*
X46883268Y-2372934D01*
X46884967Y-2378858D01*
X46913094Y-2476948D01*
X46937783Y-2563050D01*
X47028187Y-2738956D01*
X47151035Y-2893953D01*
X47155728Y-2897947D01*
X47155729Y-2897948D01*
X47226474Y-2958156D01*
X47301650Y-3022136D01*
X47474294Y-3118624D01*
X47662392Y-3179740D01*
X47858777Y-3203158D01*
X47864912Y-3202686D01*
X47864914Y-3202686D01*
X48049830Y-3188457D01*
X48049834Y-3188456D01*
X48055972Y-3187984D01*
X48246463Y-3134798D01*
X48251967Y-3132018D01*
X48251969Y-3132017D01*
X48417495Y-3048404D01*
X48417497Y-3048403D01*
X48422996Y-3045625D01*
X48578847Y-2923861D01*
X48708078Y-2774145D01*
X48805769Y-2602179D01*
X48868197Y-2414513D01*
X48892985Y-2218295D01*
X48893269Y-2197943D01*
X48893331Y-2193523D01*
X48893331Y-2193520D01*
X48893380Y-2190000D01*
X48874080Y-1993167D01*
X48860458Y-1948047D01*
X48850162Y-1913947D01*
X48816916Y-1803831D01*
X48724066Y-1629204D01*
X48653709Y-1542938D01*
X48602960Y-1480713D01*
X48602957Y-1480710D01*
X48599065Y-1475938D01*
X48592724Y-1470692D01*
X48451425Y-1353799D01*
X48451421Y-1353797D01*
X48446675Y-1349870D01*
X48272701Y-1255802D01*
X48083768Y-1197318D01*
X48077643Y-1196674D01*
X48077642Y-1196674D01*
X47893204Y-1177289D01*
X47893202Y-1177289D01*
X47887075Y-1176645D01*
X47804576Y-1184153D01*
X47696251Y-1194011D01*
X47696248Y-1194012D01*
X47690112Y-1194570D01*
X47684206Y-1196308D01*
X47684202Y-1196309D01*
X47592705Y-1223238D01*
X47500381Y-1250410D01*
X47494923Y-1253263D01*
X47494919Y-1253265D01*
X47404147Y-1300720D01*
X47325110Y-1342040D01*
X47170975Y-1465968D01*
X47043846Y-1617474D01*
X47040879Y-1622872D01*
X47040875Y-1622877D01*
X46962095Y-1766180D01*
X46948567Y-1790787D01*
X46946706Y-1796654D01*
X46946705Y-1796656D01*
X46898681Y-1948047D01*
X46888765Y-1979306D01*
X46866719Y-2175851D01*
X30591993Y-2175851D01*
X30574080Y-1993167D01*
X30560458Y-1948047D01*
X30550162Y-1913947D01*
X30516916Y-1803831D01*
X30424066Y-1629204D01*
X30353709Y-1542938D01*
X30302960Y-1480713D01*
X30302957Y-1480710D01*
X30299065Y-1475938D01*
X30292724Y-1470692D01*
X30151425Y-1353799D01*
X30151421Y-1353797D01*
X30146675Y-1349870D01*
X29972701Y-1255802D01*
X29783768Y-1197318D01*
X29777643Y-1196674D01*
X29777642Y-1196674D01*
X29593204Y-1177289D01*
X29593202Y-1177289D01*
X29587075Y-1176645D01*
X29504576Y-1184153D01*
X29396251Y-1194011D01*
X29396248Y-1194012D01*
X29390112Y-1194570D01*
X29384206Y-1196308D01*
X29384202Y-1196309D01*
X29292705Y-1223238D01*
X29200381Y-1250410D01*
X29194923Y-1253263D01*
X29194919Y-1253265D01*
X29104147Y-1300720D01*
X29025110Y-1342040D01*
X28870975Y-1465968D01*
X28743846Y-1617474D01*
X28740879Y-1622872D01*
X28740875Y-1622877D01*
X28662095Y-1766180D01*
X28648567Y-1790787D01*
X28646706Y-1796654D01*
X28646705Y-1796656D01*
X28598681Y-1948047D01*
X28588765Y-1979306D01*
X28566719Y-2175851D01*
X2795907Y-2175851D01*
X2892481Y-2052907D01*
X2892482Y-2052905D01*
X2894553Y-2050269D01*
X3092959Y-1733369D01*
X3256566Y-1397179D01*
X3383523Y-1045507D01*
X3472390Y-682336D01*
X3522163Y-311777D01*
X3527299Y-121972D01*
X81507724Y-121972D01*
X81507990Y-125313D01*
X81507990Y-125318D01*
X81522829Y-311777D01*
X81537384Y-494680D01*
X81538004Y-497975D01*
X81538004Y-497978D01*
X81573286Y-685596D01*
X81606482Y-862126D01*
X81714234Y-1220149D01*
X81765598Y-1342040D01*
X81816192Y-1462104D01*
X81859422Y-1564694D01*
X82040400Y-1891861D01*
X82042321Y-1894599D01*
X82042327Y-1894609D01*
X82206159Y-2128150D01*
X82255120Y-2197943D01*
X82257322Y-2200463D01*
X82257323Y-2200464D01*
X82292386Y-2240587D01*
X82501149Y-2479476D01*
X82503610Y-2481751D01*
X82503613Y-2481754D01*
X82627557Y-2596326D01*
X82775702Y-2733270D01*
X83075670Y-2956452D01*
X83078557Y-2958156D01*
X83394764Y-3144789D01*
X83394769Y-3144792D01*
X83397655Y-3146495D01*
X83738013Y-3301246D01*
X83919521Y-3361450D01*
X84089696Y-3417895D01*
X84089703Y-3417897D01*
X84092887Y-3418953D01*
X84096172Y-3419666D01*
X84096171Y-3419666D01*
X84454981Y-3497572D01*
X84454984Y-3497572D01*
X84458261Y-3498284D01*
X84653587Y-3519331D01*
X84827477Y-3538068D01*
X84827485Y-3538069D01*
X84829995Y-3538339D01*
X84832515Y-3538407D01*
X84832527Y-3538408D01*
X84834515Y-3538461D01*
X84835945Y-3538500D01*
X85113461Y-3538500D01*
X85115127Y-3538411D01*
X85115136Y-3538411D01*
X85390022Y-3523764D01*
X85390028Y-3523763D01*
X85393357Y-3523586D01*
X85396649Y-3523056D01*
X85396656Y-3523055D01*
X85759170Y-3464665D01*
X85759171Y-3464665D01*
X85762485Y-3464131D01*
X85765725Y-3463248D01*
X85765728Y-3463247D01*
X86119960Y-3366672D01*
X86119961Y-3366672D01*
X86123206Y-3365787D01*
X86471434Y-3229669D01*
X86566148Y-3180469D01*
X86800256Y-3058860D01*
X86800259Y-3058858D01*
X86803226Y-3057317D01*
X86959025Y-2954000D01*
X87112036Y-2852532D01*
X87112038Y-2852531D01*
X87114824Y-2850683D01*
X87402700Y-2612108D01*
X87663595Y-2344292D01*
X87735593Y-2252635D01*
X87892481Y-2052907D01*
X87892482Y-2052905D01*
X87894553Y-2050269D01*
X88092959Y-1733369D01*
X88256566Y-1397179D01*
X88383523Y-1045507D01*
X88472390Y-682336D01*
X88522163Y-311777D01*
X88532276Y61972D01*
X88532010Y65318D01*
X88502883Y431331D01*
X88502882Y431340D01*
X88502616Y434680D01*
X88486186Y522052D01*
X88434136Y798842D01*
X88434134Y798850D01*
X88433518Y802126D01*
X88325766Y1160149D01*
X88213388Y1426833D01*
X88181878Y1501610D01*
X88181875Y1501617D01*
X88180578Y1504694D01*
X87999600Y1831861D01*
X87997679Y1834599D01*
X87997673Y1834609D01*
X87786803Y2135202D01*
X87786802Y2135204D01*
X87784880Y2137943D01*
X87538851Y2419476D01*
X87501098Y2454375D01*
X87319744Y2622016D01*
X87264298Y2673270D01*
X86964330Y2896452D01*
X86922947Y2920877D01*
X86645236Y3084789D01*
X86645231Y3084792D01*
X86642345Y3086495D01*
X86301987Y3241246D01*
X86057142Y3322458D01*
X85950304Y3357895D01*
X85950297Y3357897D01*
X85947113Y3358953D01*
X85736578Y3404665D01*
X85585019Y3437572D01*
X85585016Y3437572D01*
X85581739Y3438284D01*
X85345270Y3463764D01*
X85212523Y3478068D01*
X85212515Y3478069D01*
X85210005Y3478339D01*
X85207485Y3478407D01*
X85207473Y3478408D01*
X85205485Y3478461D01*
X85204055Y3478500D01*
X84926539Y3478500D01*
X84924873Y3478411D01*
X84924864Y3478411D01*
X84649978Y3463764D01*
X84649972Y3463763D01*
X84646643Y3463586D01*
X84643351Y3463056D01*
X84643344Y3463055D01*
X84280830Y3404665D01*
X84277515Y3404131D01*
X84274275Y3403248D01*
X84274272Y3403247D01*
X83984145Y3324149D01*
X83916794Y3305787D01*
X83568566Y3169669D01*
X83565584Y3168120D01*
X83262736Y3010803D01*
X83236774Y2997317D01*
X83233986Y2995468D01*
X82931991Y2795202D01*
X82925176Y2790683D01*
X82637300Y2552108D01*
X82376405Y2284292D01*
X82374338Y2281660D01*
X82374334Y2281656D01*
X82205092Y2066201D01*
X82145447Y1990269D01*
X81947041Y1673369D01*
X81919205Y1616169D01*
X81833810Y1440694D01*
X81783434Y1337179D01*
X81656477Y985507D01*
X81567610Y622336D01*
X81567164Y619017D01*
X81567164Y619016D01*
X81522104Y283543D01*
X81517837Y251777D01*
X81507724Y-121972D01*
X3527299Y-121972D01*
X3532276Y61972D01*
X3532010Y65318D01*
X3502883Y431331D01*
X3502882Y431340D01*
X3502616Y434680D01*
X3486186Y522052D01*
X3434136Y798842D01*
X3434134Y798850D01*
X3433518Y802126D01*
X3325766Y1160149D01*
X3290369Y1244149D01*
X12286719Y1244149D01*
X12303268Y1047066D01*
X12357783Y856950D01*
X12448187Y681044D01*
X12571035Y526047D01*
X12721650Y397864D01*
X12894294Y301376D01*
X13082392Y240260D01*
X13278777Y216842D01*
X13284912Y217314D01*
X13284914Y217314D01*
X13469830Y231543D01*
X13469834Y231544D01*
X13475972Y232016D01*
X13666463Y285202D01*
X13671967Y287982D01*
X13671969Y287983D01*
X13837495Y371596D01*
X13837497Y371597D01*
X13842996Y374375D01*
X13998847Y496139D01*
X14128078Y645855D01*
X14225769Y817821D01*
X14288197Y1005487D01*
X14312985Y1201705D01*
X14313380Y1230000D01*
X14294080Y1426833D01*
X14236916Y1616169D01*
X14144066Y1790796D01*
X14073709Y1877062D01*
X14022960Y1939287D01*
X14022957Y1939290D01*
X14019065Y1944062D01*
X14012724Y1949308D01*
X13871425Y2066201D01*
X13871421Y2066203D01*
X13866675Y2070130D01*
X13692701Y2164198D01*
X13503768Y2222682D01*
X13497643Y2223326D01*
X13497642Y2223326D01*
X13313204Y2242711D01*
X13313202Y2242711D01*
X13307075Y2243355D01*
X13224576Y2235847D01*
X13116251Y2225989D01*
X13116248Y2225988D01*
X13110112Y2225430D01*
X13104206Y2223692D01*
X13104202Y2223691D01*
X12999076Y2192751D01*
X12920381Y2169590D01*
X12914923Y2166737D01*
X12914919Y2166735D01*
X12864668Y2140464D01*
X12745110Y2077960D01*
X12590975Y1954032D01*
X12463846Y1802526D01*
X12460879Y1797128D01*
X12460875Y1797123D01*
X12457397Y1790796D01*
X12368567Y1629213D01*
X12366706Y1623346D01*
X12366705Y1623344D01*
X12329997Y1507626D01*
X12308765Y1440694D01*
X12286719Y1244149D01*
X3290369Y1244149D01*
X3213388Y1426833D01*
X3181878Y1501610D01*
X3181875Y1501617D01*
X3180578Y1504694D01*
X2999600Y1831861D01*
X2997679Y1834599D01*
X2997673Y1834609D01*
X2786803Y2135202D01*
X2786802Y2135204D01*
X2784880Y2137943D01*
X2538851Y2419476D01*
X2501098Y2454375D01*
X2319744Y2622016D01*
X2264298Y2673270D01*
X1964330Y2896452D01*
X1922947Y2920877D01*
X1645236Y3084789D01*
X1645231Y3084792D01*
X1642345Y3086495D01*
X1301987Y3241246D01*
X1057142Y3322458D01*
X950304Y3357895D01*
X950297Y3357897D01*
X947113Y3358953D01*
X736578Y3404665D01*
X585019Y3437572D01*
X585016Y3437572D01*
X581739Y3438284D01*
X345270Y3463764D01*
X212523Y3478068D01*
X212515Y3478069D01*
X210005Y3478339D01*
X207485Y3478407D01*
X207473Y3478408D01*
X205485Y3478461D01*
X204055Y3478500D01*
X-73461Y3478500D01*
X-75127Y3478411D01*
X-75136Y3478411D01*
X-350022Y3463764D01*
X-350028Y3463763D01*
X-353357Y3463586D01*
X-356649Y3463056D01*
X-356656Y3463055D01*
X-719170Y3404665D01*
X-722485Y3404131D01*
X-725725Y3403248D01*
X-725728Y3403247D01*
X-1015855Y3324149D01*
X-1083206Y3305787D01*
X-1431434Y3169669D01*
X-1434416Y3168120D01*
X-1737264Y3010803D01*
X-1763226Y2997317D01*
X-1766014Y2995468D01*
X-2068009Y2795202D01*
X-2074824Y2790683D01*
X-2362700Y2552108D01*
X-2623595Y2284292D01*
X-2625662Y2281660D01*
X-2625666Y2281656D01*
X-2794908Y2066201D01*
X-2854553Y1990269D01*
X-3052959Y1673369D01*
X-3080795Y1616169D01*
X-3166190Y1440694D01*
X-3216566Y1337179D01*
X-3343523Y985507D01*
X-3432390Y622336D01*
X-3432836Y619017D01*
X-3432836Y619016D01*
X-3477896Y283543D01*
X-3482163Y251777D01*
X-3492276Y-121972D01*
X-3971500Y-121972D01*
X-3971500Y3754149D01*
X20826719Y3754149D01*
X20827235Y3748005D01*
X20840654Y3588201D01*
X20843268Y3557066D01*
X20857672Y3506833D01*
X20877678Y3437066D01*
X20897783Y3366950D01*
X20901893Y3358953D01*
X20962387Y3241246D01*
X20988187Y3191044D01*
X21111035Y3036047D01*
X21115728Y3032053D01*
X21115729Y3032052D01*
X21241740Y2924809D01*
X21261650Y2907864D01*
X21434294Y2811376D01*
X21622392Y2750260D01*
X21818777Y2726842D01*
X21824912Y2727314D01*
X21824914Y2727314D01*
X22009830Y2741543D01*
X22009834Y2741544D01*
X22015972Y2742016D01*
X22206463Y2795202D01*
X22211967Y2797982D01*
X22211969Y2797983D01*
X22377495Y2881596D01*
X22377497Y2881597D01*
X22382996Y2884375D01*
X22538847Y3006139D01*
X22668078Y3155855D01*
X22765769Y3327821D01*
X22828197Y3515487D01*
X22852985Y3711705D01*
X22853380Y3740000D01*
X22834080Y3936833D01*
X22776916Y4126169D01*
X22684066Y4300796D01*
X22565467Y4446213D01*
X22562960Y4449287D01*
X22562957Y4449290D01*
X22559065Y4454062D01*
X22548187Y4463061D01*
X22411425Y4576201D01*
X22411421Y4576203D01*
X22406675Y4580130D01*
X22232701Y4674198D01*
X22043768Y4732682D01*
X22037643Y4733326D01*
X22037642Y4733326D01*
X21853204Y4752711D01*
X21853202Y4752711D01*
X21847075Y4753355D01*
X21775509Y4746842D01*
X21656251Y4735989D01*
X21656248Y4735988D01*
X21650112Y4735430D01*
X21644206Y4733692D01*
X21644202Y4733691D01*
X21539076Y4702751D01*
X21460381Y4679590D01*
X21454923Y4676737D01*
X21454919Y4676735D01*
X21395441Y4645640D01*
X21285110Y4587960D01*
X21130975Y4464032D01*
X21127011Y4459308D01*
X21118602Y4449287D01*
X21003846Y4312526D01*
X21000879Y4307128D01*
X21000875Y4307123D01*
X20934053Y4185572D01*
X20908567Y4139213D01*
X20906706Y4133346D01*
X20906705Y4133344D01*
X20868639Y4013344D01*
X20848765Y3950694D01*
X20826719Y3754149D01*
X-3971500Y3754149D01*
X-3971500Y6654149D01*
X7336719Y6654149D01*
X7337235Y6648005D01*
X7352242Y6469287D01*
X7353268Y6457066D01*
X7363436Y6421607D01*
X7405230Y6275855D01*
X7407783Y6266950D01*
X7410602Y6261465D01*
X7480151Y6126139D01*
X7498187Y6091044D01*
X7621035Y5936047D01*
X7625728Y5932053D01*
X7625729Y5932052D01*
X7740500Y5834375D01*
X7771650Y5807864D01*
X7944294Y5711376D01*
X8132392Y5650260D01*
X8328777Y5626842D01*
X8334912Y5627314D01*
X8334914Y5627314D01*
X8519830Y5641543D01*
X8519834Y5641544D01*
X8525972Y5642016D01*
X8716463Y5695202D01*
X8721967Y5697982D01*
X8721969Y5697983D01*
X8887495Y5781596D01*
X8887497Y5781597D01*
X8892996Y5784375D01*
X8969503Y5844149D01*
X10086719Y5844149D01*
X10087235Y5838005D01*
X10101712Y5665602D01*
X10103268Y5647066D01*
X10157783Y5456950D01*
X10164472Y5443934D01*
X10230742Y5314989D01*
X10248187Y5281044D01*
X10371035Y5126047D01*
X10375728Y5122053D01*
X10375729Y5122052D01*
X10482947Y5030803D01*
X10521650Y4997864D01*
X10694294Y4901376D01*
X10882392Y4840260D01*
X11078777Y4816842D01*
X11084912Y4817314D01*
X11084914Y4817314D01*
X11269830Y4831543D01*
X11269834Y4831544D01*
X11275972Y4832016D01*
X11466463Y4885202D01*
X11471967Y4887982D01*
X11471969Y4887983D01*
X11637495Y4971596D01*
X11637497Y4971597D01*
X11642996Y4974375D01*
X11798847Y5096139D01*
X11892489Y5204624D01*
X11924049Y5241187D01*
X11924050Y5241189D01*
X11928078Y5245855D01*
X12025769Y5417821D01*
X12088197Y5605487D01*
X12111923Y5793295D01*
X39004424Y5793295D01*
X39018921Y5447407D01*
X39071884Y5105291D01*
X39072806Y5101899D01*
X39072806Y5101897D01*
X39075401Y5092345D01*
X39162651Y4771211D01*
X39290093Y4449330D01*
X39291748Y4446218D01*
X39291750Y4446213D01*
X39362833Y4312526D01*
X39452620Y4143661D01*
X39454612Y4140752D01*
X39646215Y3860921D01*
X39646220Y3860915D01*
X39648206Y3858014D01*
X39874415Y3595949D01*
X39876985Y3593569D01*
X39876989Y3593565D01*
X39970483Y3506989D01*
X40128426Y3360732D01*
X40131248Y3358651D01*
X40131251Y3358649D01*
X40192483Y3313505D01*
X40407073Y3155296D01*
X40410110Y3153542D01*
X40410114Y3153540D01*
X40522869Y3088441D01*
X40706884Y2982200D01*
X40710105Y2980793D01*
X41020899Y2845010D01*
X41020909Y2845006D01*
X41024121Y2843603D01*
X41027478Y2842564D01*
X41027483Y2842562D01*
X41195077Y2790683D01*
X41354830Y2741231D01*
X41358286Y2740572D01*
X41358285Y2740572D01*
X41691438Y2677020D01*
X41691443Y2677019D01*
X41694889Y2676362D01*
X41876364Y2662398D01*
X42036563Y2650071D01*
X42036565Y2650071D01*
X42040060Y2649802D01*
X42256564Y2657363D01*
X42382526Y2661761D01*
X42382531Y2661761D01*
X42386041Y2661884D01*
X42585759Y2691376D01*
X42725039Y2711943D01*
X42725044Y2711944D01*
X42728518Y2712457D01*
X42731910Y2713353D01*
X42731914Y2713354D01*
X43059833Y2799994D01*
X43059834Y2799994D01*
X43063224Y2800890D01*
X43385986Y2926081D01*
X43692782Y3086470D01*
X43881370Y3213674D01*
X43976872Y3278091D01*
X43976874Y3278092D01*
X43979788Y3280058D01*
X44011060Y3306672D01*
X44240753Y3502156D01*
X44240754Y3502157D01*
X44243426Y3504431D01*
X44245821Y3506981D01*
X44245829Y3506989D01*
X44365240Y3634149D01*
X64586719Y3634149D01*
X64587235Y3628005D01*
X64601086Y3463055D01*
X64603268Y3437066D01*
X64624472Y3363118D01*
X64646807Y3285229D01*
X64657783Y3246950D01*
X64661426Y3239861D01*
X64705790Y3153540D01*
X64748187Y3071044D01*
X64871035Y2916047D01*
X64875728Y2912053D01*
X64875729Y2912052D01*
X65004855Y2802158D01*
X65021650Y2787864D01*
X65194294Y2691376D01*
X65382392Y2630260D01*
X65578777Y2606842D01*
X65584912Y2607314D01*
X65584914Y2607314D01*
X65769830Y2621543D01*
X65769834Y2621544D01*
X65775972Y2622016D01*
X65966463Y2675202D01*
X65971967Y2677982D01*
X65971969Y2677983D01*
X66137495Y2761596D01*
X66137497Y2761597D01*
X66142996Y2764375D01*
X66298847Y2886139D01*
X66428078Y3035855D01*
X66525769Y3207821D01*
X66564466Y3324149D01*
X78776719Y3324149D01*
X78777235Y3318005D01*
X78791243Y3151187D01*
X78793268Y3127066D01*
X78794967Y3121142D01*
X78834808Y2982200D01*
X78847783Y2936950D01*
X78872852Y2888171D01*
X78922955Y2790683D01*
X78938187Y2761044D01*
X79061035Y2606047D01*
X79065728Y2602053D01*
X79065729Y2602052D01*
X79127229Y2549712D01*
X79211650Y2477864D01*
X79384294Y2381376D01*
X79572392Y2320260D01*
X79768777Y2296842D01*
X79774912Y2297314D01*
X79774914Y2297314D01*
X79959830Y2311543D01*
X79959834Y2311544D01*
X79965972Y2312016D01*
X80156463Y2365202D01*
X80161967Y2367982D01*
X80161969Y2367983D01*
X80327495Y2451596D01*
X80327497Y2451597D01*
X80332996Y2454375D01*
X80488847Y2576139D01*
X80606513Y2712457D01*
X80614049Y2721187D01*
X80614050Y2721189D01*
X80618078Y2725855D01*
X80715769Y2897821D01*
X80778197Y3085487D01*
X80802985Y3281705D01*
X80803380Y3310000D01*
X80784080Y3506833D01*
X80779620Y3521607D01*
X80749913Y3620000D01*
X80726916Y3696169D01*
X80634066Y3870796D01*
X80563709Y3957062D01*
X80512960Y4019287D01*
X80512957Y4019290D01*
X80509065Y4024062D01*
X80497052Y4034000D01*
X80361425Y4146201D01*
X80361421Y4146203D01*
X80356675Y4150130D01*
X80182701Y4244198D01*
X79993768Y4302682D01*
X79987643Y4303326D01*
X79987642Y4303326D01*
X79803204Y4322711D01*
X79803202Y4322711D01*
X79797075Y4323355D01*
X79714576Y4315847D01*
X79606251Y4305989D01*
X79606248Y4305988D01*
X79600112Y4305430D01*
X79594206Y4303692D01*
X79594202Y4303691D01*
X79489076Y4272751D01*
X79410381Y4249590D01*
X79404923Y4246737D01*
X79404919Y4246735D01*
X79314147Y4199280D01*
X79235110Y4157960D01*
X79080975Y4034032D01*
X78953846Y3882526D01*
X78950879Y3877128D01*
X78950875Y3877123D01*
X78884725Y3756794D01*
X78858567Y3709213D01*
X78856706Y3703346D01*
X78856705Y3703344D01*
X78812251Y3563207D01*
X78798765Y3520694D01*
X78776719Y3324149D01*
X66564466Y3324149D01*
X66588197Y3395487D01*
X66612985Y3591705D01*
X66613380Y3620000D01*
X66594080Y3816833D01*
X66536916Y4006169D01*
X66444066Y4180796D01*
X66341036Y4307123D01*
X66322960Y4329287D01*
X66322957Y4329290D01*
X66319065Y4334062D01*
X66312724Y4339308D01*
X66171425Y4456201D01*
X66171421Y4456203D01*
X66166675Y4460130D01*
X65992701Y4554198D01*
X65803768Y4612682D01*
X65797643Y4613326D01*
X65797642Y4613326D01*
X65613204Y4632711D01*
X65613202Y4632711D01*
X65607075Y4633355D01*
X65524576Y4625847D01*
X65416251Y4615989D01*
X65416248Y4615988D01*
X65410112Y4615430D01*
X65404206Y4613692D01*
X65404202Y4613691D01*
X65326469Y4590813D01*
X65220381Y4559590D01*
X65214923Y4556737D01*
X65214919Y4556735D01*
X65124147Y4509280D01*
X65045110Y4467960D01*
X64890975Y4344032D01*
X64887011Y4339308D01*
X64871929Y4321334D01*
X64763846Y4192526D01*
X64760879Y4187128D01*
X64760875Y4187123D01*
X64682095Y4043820D01*
X64668567Y4019213D01*
X64666706Y4013346D01*
X64666705Y4013344D01*
X64626707Y3887253D01*
X64608765Y3830694D01*
X64586719Y3634149D01*
X44365240Y3634149D01*
X44477999Y3754226D01*
X44478003Y3754231D01*
X44480410Y3756794D01*
X44482515Y3759608D01*
X44482521Y3759615D01*
X44685678Y4031181D01*
X44687787Y4034000D01*
X44738401Y4120269D01*
X44861190Y4329557D01*
X44861193Y4329562D01*
X44862972Y4332595D01*
X44864404Y4335811D01*
X45002348Y4645640D01*
X45002350Y4645644D01*
X45003780Y4648857D01*
X45108458Y4978843D01*
X45111630Y4994859D01*
X45160403Y5241187D01*
X45175700Y5318441D01*
X45197799Y5581607D01*
X45204486Y5661236D01*
X45204486Y5661243D01*
X45204669Y5663418D01*
X45204699Y5665588D01*
X45204700Y5665602D01*
X45205848Y5747823D01*
X45205848Y5747834D01*
X45205878Y5750000D01*
X45205349Y5759472D01*
X45204528Y5774149D01*
X47116719Y5774149D01*
X47117235Y5768005D01*
X47130407Y5611142D01*
X47133268Y5577066D01*
X47134967Y5571142D01*
X47185855Y5393674D01*
X47187783Y5386950D01*
X47190602Y5381465D01*
X47262696Y5241187D01*
X47278187Y5211044D01*
X47401035Y5056047D01*
X47405728Y5052053D01*
X47405729Y5052052D01*
X47532250Y4944375D01*
X47551650Y4927864D01*
X47724294Y4831376D01*
X47912392Y4770260D01*
X48108777Y4746842D01*
X48114912Y4747314D01*
X48114914Y4747314D01*
X48299830Y4761543D01*
X48299834Y4761544D01*
X48305972Y4762016D01*
X48496463Y4815202D01*
X48501967Y4817982D01*
X48501969Y4817983D01*
X48667495Y4901596D01*
X48667497Y4901597D01*
X48672996Y4904375D01*
X48828847Y5026139D01*
X48958078Y5175855D01*
X49055769Y5347821D01*
X49118197Y5535487D01*
X49142985Y5731705D01*
X49143380Y5760000D01*
X49138071Y5814149D01*
X52686719Y5814149D01*
X52687235Y5808005D01*
X52701213Y5641543D01*
X52703268Y5617066D01*
X52712977Y5583207D01*
X52752913Y5443934D01*
X52757783Y5426950D01*
X52760602Y5421465D01*
X52815324Y5314989D01*
X52848187Y5251044D01*
X52971035Y5096047D01*
X52975728Y5092053D01*
X52975729Y5092052D01*
X53114000Y4974375D01*
X53121650Y4967864D01*
X53294294Y4871376D01*
X53482392Y4810260D01*
X53678777Y4786842D01*
X53684912Y4787314D01*
X53684914Y4787314D01*
X53869830Y4801543D01*
X53869834Y4801544D01*
X53875972Y4802016D01*
X54066463Y4855202D01*
X54071967Y4857982D01*
X54071969Y4857983D01*
X54237495Y4941596D01*
X54237497Y4941597D01*
X54242996Y4944375D01*
X54398847Y5066139D01*
X54519759Y5206217D01*
X54524049Y5211187D01*
X54524050Y5211189D01*
X54528078Y5215855D01*
X54625769Y5387821D01*
X54688197Y5575487D01*
X54712985Y5771705D01*
X54713237Y5789768D01*
X54713331Y5796477D01*
X54713331Y5796480D01*
X54713380Y5800000D01*
X54694080Y5996833D01*
X54686875Y6020699D01*
X54670162Y6076053D01*
X54636916Y6186169D01*
X54544066Y6360796D01*
X54463455Y6459635D01*
X54422960Y6509287D01*
X54422957Y6509290D01*
X54419065Y6514062D01*
X54412724Y6519308D01*
X54271425Y6636201D01*
X54271421Y6636203D01*
X54266675Y6640130D01*
X54148275Y6704149D01*
X72856719Y6704149D01*
X72858679Y6680813D01*
X72872681Y6514062D01*
X72873268Y6507066D01*
X72886869Y6459635D01*
X72925311Y6325572D01*
X72927783Y6316950D01*
X72930602Y6311465D01*
X73013856Y6149472D01*
X73018187Y6141044D01*
X73141035Y5986047D01*
X73145728Y5982053D01*
X73145729Y5982052D01*
X73277085Y5870260D01*
X73291650Y5857864D01*
X73464294Y5761376D01*
X73652392Y5700260D01*
X73848777Y5676842D01*
X73854912Y5677314D01*
X73854914Y5677314D01*
X74039830Y5691543D01*
X74039834Y5691544D01*
X74045972Y5692016D01*
X74236463Y5745202D01*
X74241967Y5747982D01*
X74241969Y5747983D01*
X74407495Y5831596D01*
X74407497Y5831597D01*
X74412996Y5834375D01*
X74568847Y5956139D01*
X74686238Y6092138D01*
X74694049Y6101187D01*
X74694050Y6101189D01*
X74698078Y6105855D01*
X74795769Y6277821D01*
X74858197Y6465487D01*
X74882985Y6661705D01*
X74883380Y6690000D01*
X74864080Y6886833D01*
X74860991Y6897066D01*
X74820370Y7031608D01*
X74806916Y7076169D01*
X74714066Y7250796D01*
X74621713Y7364032D01*
X74592960Y7399287D01*
X74592957Y7399290D01*
X74589065Y7404062D01*
X74582724Y7409308D01*
X74441425Y7526201D01*
X74441421Y7526203D01*
X74436675Y7530130D01*
X74262701Y7624198D01*
X74073768Y7682682D01*
X74067643Y7683326D01*
X74067642Y7683326D01*
X73883204Y7702711D01*
X73883202Y7702711D01*
X73877075Y7703355D01*
X73798466Y7696201D01*
X73686251Y7685989D01*
X73686248Y7685988D01*
X73680112Y7685430D01*
X73674206Y7683692D01*
X73674202Y7683691D01*
X73584373Y7657253D01*
X73490381Y7629590D01*
X73484923Y7626737D01*
X73484919Y7626735D01*
X73432417Y7599287D01*
X73315110Y7537960D01*
X73160975Y7414032D01*
X73033846Y7262526D01*
X73030879Y7257128D01*
X73030875Y7257123D01*
X72993115Y7188436D01*
X72938567Y7089213D01*
X72936706Y7083346D01*
X72936705Y7083344D01*
X72881804Y6910274D01*
X72878765Y6900694D01*
X72856719Y6704149D01*
X54148275Y6704149D01*
X54092701Y6734198D01*
X53903768Y6792682D01*
X53897643Y6793326D01*
X53897642Y6793326D01*
X53713204Y6812711D01*
X53713202Y6812711D01*
X53707075Y6813355D01*
X53639377Y6807194D01*
X53516251Y6795989D01*
X53516248Y6795988D01*
X53510112Y6795430D01*
X53504206Y6793692D01*
X53504202Y6793691D01*
X53435106Y6773355D01*
X53320381Y6739590D01*
X53314923Y6736737D01*
X53314919Y6736735D01*
X53240837Y6698005D01*
X53145110Y6647960D01*
X52990975Y6524032D01*
X52863846Y6372526D01*
X52860879Y6367128D01*
X52860875Y6367123D01*
X52808135Y6271187D01*
X52768567Y6199213D01*
X52766706Y6193346D01*
X52766705Y6193344D01*
X52714212Y6027864D01*
X52708765Y6010694D01*
X52686719Y5814149D01*
X49138071Y5814149D01*
X49124080Y5956833D01*
X49113802Y5990877D01*
X49085784Y6083674D01*
X49066916Y6146169D01*
X48974066Y6320796D01*
X48879296Y6436995D01*
X48852960Y6469287D01*
X48852957Y6469290D01*
X48849065Y6474062D01*
X48844316Y6477991D01*
X48701425Y6596201D01*
X48701421Y6596203D01*
X48696675Y6600130D01*
X48522701Y6694198D01*
X48333768Y6752682D01*
X48327643Y6753326D01*
X48327642Y6753326D01*
X48143204Y6772711D01*
X48143202Y6772711D01*
X48137075Y6773355D01*
X48056477Y6766020D01*
X47946251Y6755989D01*
X47946248Y6755988D01*
X47940112Y6755430D01*
X47934206Y6753692D01*
X47934202Y6753691D01*
X47858015Y6731268D01*
X47750381Y6699590D01*
X47744923Y6696737D01*
X47744919Y6696735D01*
X47663461Y6654149D01*
X47575110Y6607960D01*
X47420975Y6484032D01*
X47293846Y6332526D01*
X47290879Y6327128D01*
X47290875Y6327123D01*
X47226635Y6210269D01*
X47198567Y6159213D01*
X47196706Y6153346D01*
X47196705Y6153344D01*
X47153316Y6016564D01*
X47138765Y5970694D01*
X47116719Y5774149D01*
X45204528Y5774149D01*
X45192078Y5996833D01*
X45186553Y6095652D01*
X45184828Y6105855D01*
X45129408Y6433514D01*
X45129407Y6433518D01*
X45128819Y6436995D01*
X45108727Y6507066D01*
X45079796Y6607960D01*
X45033396Y6769775D01*
X44930150Y7020269D01*
X44902811Y7086600D01*
X44902807Y7086608D01*
X44901473Y7089845D01*
X44734694Y7393215D01*
X44727409Y7403543D01*
X44537169Y7673224D01*
X44537168Y7673225D01*
X44535138Y7676103D01*
X44305292Y7934985D01*
X44295642Y7943674D01*
X44050640Y8164275D01*
X44050637Y8164277D01*
X44048022Y8166632D01*
X44045172Y8168673D01*
X44045165Y8168678D01*
X43769388Y8366115D01*
X43769385Y8366117D01*
X43766534Y8368158D01*
X43464335Y8537051D01*
X43145194Y8671205D01*
X43141825Y8672196D01*
X43141821Y8672198D01*
X42995282Y8715326D01*
X42813088Y8768949D01*
X42472156Y8829065D01*
X42468647Y8829286D01*
X42468645Y8829286D01*
X42130166Y8850581D01*
X42130160Y8850581D01*
X42126648Y8850802D01*
X42027703Y8845963D01*
X41784377Y8834063D01*
X41784368Y8834062D01*
X41780870Y8833891D01*
X41777402Y8833329D01*
X41777399Y8833329D01*
X41442607Y8779105D01*
X41442604Y8779104D01*
X41439132Y8778542D01*
X41435745Y8777596D01*
X41435739Y8777595D01*
X41109088Y8686392D01*
X41105693Y8685444D01*
X41102430Y8684126D01*
X41102428Y8684125D01*
X40852891Y8583305D01*
X40784710Y8555758D01*
X40781625Y8554090D01*
X40781623Y8554089D01*
X40767837Y8546635D01*
X40480184Y8391101D01*
X40195909Y8193525D01*
X40193267Y8191212D01*
X40193263Y8191209D01*
X39987718Y8011268D01*
X39935429Y7965493D01*
X39933053Y7962891D01*
X39933051Y7962889D01*
X39912307Y7940171D01*
X39701992Y7709846D01*
X39699926Y7707003D01*
X39699924Y7707000D01*
X39628947Y7609308D01*
X39498506Y7429771D01*
X39496764Y7426705D01*
X39496763Y7426703D01*
X39463356Y7367896D01*
X39327507Y7128759D01*
X39292980Y7048201D01*
X39196755Y6823691D01*
X39191128Y6810563D01*
X39173957Y6753691D01*
X39097709Y6501142D01*
X39091068Y6479147D01*
X39070223Y6365572D01*
X39030561Y6149472D01*
X39028573Y6138643D01*
X39028327Y6135127D01*
X39028327Y6135126D01*
X39016272Y5962736D01*
X39004424Y5793295D01*
X12111923Y5793295D01*
X12112985Y5801705D01*
X12113380Y5830000D01*
X12094080Y6026833D01*
X12085619Y6054859D01*
X12064098Y6126139D01*
X12036916Y6216169D01*
X11944066Y6390796D01*
X11854070Y6501142D01*
X11822960Y6539287D01*
X11822957Y6539290D01*
X11819065Y6544062D01*
X11812724Y6549308D01*
X11671425Y6666201D01*
X11671421Y6666203D01*
X11666675Y6670130D01*
X11492701Y6764198D01*
X11303768Y6822682D01*
X11297643Y6823326D01*
X11297642Y6823326D01*
X11113204Y6842711D01*
X11113202Y6842711D01*
X11107075Y6843355D01*
X11035410Y6836833D01*
X10916251Y6825989D01*
X10916248Y6825988D01*
X10910112Y6825430D01*
X10904206Y6823692D01*
X10904202Y6823691D01*
X10808179Y6795430D01*
X10720381Y6769590D01*
X10714923Y6766737D01*
X10714919Y6766735D01*
X10647078Y6731268D01*
X10545110Y6677960D01*
X10390975Y6554032D01*
X10263846Y6402526D01*
X10260879Y6397128D01*
X10260875Y6397123D01*
X10210900Y6306217D01*
X10168567Y6229213D01*
X10166706Y6223346D01*
X10166705Y6223344D01*
X10127302Y6099131D01*
X10108765Y6040694D01*
X10086719Y5844149D01*
X8969503Y5844149D01*
X9048847Y5906139D01*
X9162814Y6038171D01*
X9174049Y6051187D01*
X9174050Y6051189D01*
X9178078Y6055855D01*
X9275769Y6227821D01*
X9338197Y6415487D01*
X9362985Y6611705D01*
X9363380Y6640000D01*
X9344080Y6836833D01*
X9337086Y6860000D01*
X9288697Y7020269D01*
X9286916Y7026169D01*
X9250771Y7094149D01*
X14766719Y7094149D01*
X14783268Y6897066D01*
X14803015Y6828201D01*
X14835989Y6713207D01*
X14837783Y6706950D01*
X14840602Y6701465D01*
X14923951Y6539287D01*
X14928187Y6531044D01*
X15051035Y6376047D01*
X15055728Y6372053D01*
X15055729Y6372052D01*
X15168761Y6275855D01*
X15201650Y6247864D01*
X15374294Y6151376D01*
X15562392Y6090260D01*
X15758777Y6066842D01*
X15764912Y6067314D01*
X15764914Y6067314D01*
X15949830Y6081543D01*
X15949834Y6081544D01*
X15955972Y6082016D01*
X16146463Y6135202D01*
X16151967Y6137982D01*
X16151969Y6137983D01*
X16317495Y6221596D01*
X16317497Y6221597D01*
X16322996Y6224375D01*
X16478847Y6346139D01*
X16597873Y6484032D01*
X16604049Y6491187D01*
X16604050Y6491189D01*
X16608078Y6495855D01*
X16705769Y6667821D01*
X16768197Y6855487D01*
X16770555Y6874149D01*
X34076719Y6874149D01*
X34077235Y6868005D01*
X34092478Y6686477D01*
X34093268Y6677066D01*
X34103019Y6643061D01*
X34145230Y6495855D01*
X34147783Y6486950D01*
X34151793Y6479147D01*
X34232106Y6322877D01*
X34238187Y6311044D01*
X34361035Y6156047D01*
X34365728Y6152053D01*
X34365729Y6152052D01*
X34504000Y6034375D01*
X34511650Y6027864D01*
X34684294Y5931376D01*
X34872392Y5870260D01*
X35068777Y5846842D01*
X35074912Y5847314D01*
X35074914Y5847314D01*
X35259830Y5861543D01*
X35259834Y5861544D01*
X35265972Y5862016D01*
X35456463Y5915202D01*
X35461967Y5917982D01*
X35461969Y5917983D01*
X35627495Y6001596D01*
X35627497Y6001597D01*
X35632996Y6004375D01*
X35788847Y6126139D01*
X35905657Y6261465D01*
X35914049Y6271187D01*
X35914050Y6271189D01*
X35918078Y6275855D01*
X36015769Y6447821D01*
X36078197Y6635487D01*
X36102985Y6831705D01*
X36103380Y6860000D01*
X36099051Y6904149D01*
X36566719Y6904149D01*
X36567235Y6898005D01*
X36581236Y6731268D01*
X36583268Y6707066D01*
X36596869Y6659635D01*
X36635126Y6526217D01*
X36637783Y6516950D01*
X36657211Y6479147D01*
X36723172Y6350803D01*
X36728187Y6341044D01*
X36851035Y6186047D01*
X36855728Y6182053D01*
X36855729Y6182052D01*
X36962664Y6091044D01*
X37001650Y6057864D01*
X37174294Y5961376D01*
X37362392Y5900260D01*
X37558777Y5876842D01*
X37564912Y5877314D01*
X37564914Y5877314D01*
X37749830Y5891543D01*
X37749834Y5891544D01*
X37755972Y5892016D01*
X37946463Y5945202D01*
X37951967Y5947982D01*
X37951969Y5947983D01*
X38117495Y6031596D01*
X38117497Y6031597D01*
X38122996Y6034375D01*
X38278847Y6156139D01*
X38374496Y6266950D01*
X38404049Y6301187D01*
X38404050Y6301189D01*
X38408078Y6305855D01*
X38505769Y6477821D01*
X38568197Y6665487D01*
X38592985Y6861705D01*
X38593380Y6890000D01*
X38574080Y7086833D01*
X38516916Y7276169D01*
X38424066Y7450796D01*
X38327427Y7569287D01*
X38302960Y7599287D01*
X38302957Y7599290D01*
X38299065Y7604062D01*
X38289053Y7612345D01*
X38151425Y7726201D01*
X38151421Y7726203D01*
X38146675Y7730130D01*
X37972701Y7824198D01*
X37783768Y7882682D01*
X37777643Y7883326D01*
X37777642Y7883326D01*
X37593204Y7902711D01*
X37593202Y7902711D01*
X37587075Y7903355D01*
X37504576Y7895847D01*
X37396251Y7885989D01*
X37396248Y7885988D01*
X37390112Y7885430D01*
X37384206Y7883692D01*
X37384202Y7883691D01*
X37288179Y7855430D01*
X37200381Y7829590D01*
X37194923Y7826737D01*
X37194919Y7826735D01*
X37127078Y7791268D01*
X37025110Y7737960D01*
X36870975Y7614032D01*
X36743846Y7462526D01*
X36740879Y7457128D01*
X36740875Y7457123D01*
X36674751Y7336842D01*
X36648567Y7289213D01*
X36646706Y7283346D01*
X36646705Y7283344D01*
X36598640Y7131825D01*
X36588765Y7100694D01*
X36566719Y6904149D01*
X36099051Y6904149D01*
X36084080Y7056833D01*
X36080024Y7070269D01*
X36044404Y7188247D01*
X36026916Y7246169D01*
X35934066Y7420796D01*
X35863709Y7507062D01*
X35812960Y7569287D01*
X35812957Y7569290D01*
X35809065Y7574062D01*
X35801925Y7579969D01*
X35661425Y7696201D01*
X35661421Y7696203D01*
X35656675Y7700130D01*
X35482701Y7794198D01*
X35293768Y7852682D01*
X35287643Y7853326D01*
X35287642Y7853326D01*
X35103204Y7872711D01*
X35103202Y7872711D01*
X35097075Y7873355D01*
X35014576Y7865847D01*
X34906251Y7855989D01*
X34906248Y7855988D01*
X34900112Y7855430D01*
X34894206Y7853692D01*
X34894202Y7853691D01*
X34860334Y7843723D01*
X34710381Y7799590D01*
X34704923Y7796737D01*
X34704919Y7796735D01*
X34645852Y7765855D01*
X34535110Y7707960D01*
X34380975Y7584032D01*
X34253846Y7432526D01*
X34250879Y7427128D01*
X34250875Y7427123D01*
X34191335Y7318819D01*
X34158567Y7259213D01*
X34156706Y7253346D01*
X34156705Y7253344D01*
X34105757Y7092736D01*
X34098765Y7070694D01*
X34076719Y6874149D01*
X16770555Y6874149D01*
X16792985Y7051705D01*
X16793380Y7080000D01*
X16774080Y7276833D01*
X16772187Y7283105D01*
X16743890Y7376827D01*
X16716916Y7466169D01*
X16624066Y7640796D01*
X16535563Y7749311D01*
X16502960Y7789287D01*
X16502957Y7789290D01*
X16499065Y7794062D01*
X16492383Y7799590D01*
X16351425Y7916201D01*
X16351421Y7916203D01*
X16346675Y7920130D01*
X16172701Y8014198D01*
X15983768Y8072682D01*
X15977643Y8073326D01*
X15977642Y8073326D01*
X15793204Y8092711D01*
X15793202Y8092711D01*
X15787075Y8093355D01*
X15704576Y8085847D01*
X15596251Y8075989D01*
X15596248Y8075988D01*
X15590112Y8075430D01*
X15584206Y8073692D01*
X15584202Y8073691D01*
X15481781Y8043547D01*
X15400381Y8019590D01*
X15394923Y8016737D01*
X15394919Y8016735D01*
X15330156Y7982877D01*
X15225110Y7927960D01*
X15070975Y7804032D01*
X14943846Y7652526D01*
X14940879Y7647128D01*
X14940875Y7647123D01*
X14869815Y7517864D01*
X14848567Y7479213D01*
X14846706Y7473346D01*
X14846705Y7473344D01*
X14807352Y7349287D01*
X14788765Y7290694D01*
X14783395Y7242815D01*
X14768112Y7106564D01*
X14766719Y7094149D01*
X9250771Y7094149D01*
X9194066Y7200796D01*
X9097809Y7318819D01*
X9072960Y7349287D01*
X9072957Y7349290D01*
X9069065Y7354062D01*
X9061573Y7360260D01*
X8921425Y7476201D01*
X8921421Y7476203D01*
X8916675Y7480130D01*
X8742701Y7574198D01*
X8553768Y7632682D01*
X8547643Y7633326D01*
X8547642Y7633326D01*
X8363204Y7652711D01*
X8363202Y7652711D01*
X8357075Y7653355D01*
X8274576Y7645847D01*
X8166251Y7635989D01*
X8166248Y7635988D01*
X8160112Y7635430D01*
X8154206Y7633692D01*
X8154202Y7633691D01*
X8066881Y7607991D01*
X7970381Y7579590D01*
X7964923Y7576737D01*
X7964919Y7576735D01*
X7883361Y7534097D01*
X7795110Y7487960D01*
X7640975Y7364032D01*
X7513846Y7212526D01*
X7510879Y7207128D01*
X7510875Y7207123D01*
X7442828Y7083344D01*
X7418567Y7039213D01*
X7416706Y7033346D01*
X7416705Y7033344D01*
X7371596Y6891142D01*
X7358765Y6850694D01*
X7336719Y6654149D01*
X-3971500Y6654149D01*
X-3971500Y8583305D01*
X910584Y8583305D01*
X910881Y8578152D01*
X910881Y8578149D01*
X916344Y8483410D01*
X923443Y8360285D01*
X924580Y8355239D01*
X924581Y8355233D01*
X932927Y8318201D01*
X972555Y8142361D01*
X1056599Y7935384D01*
X1088500Y7883326D01*
X1163347Y7761187D01*
X1173320Y7744912D01*
X1319583Y7576062D01*
X1491459Y7433368D01*
X1684333Y7320662D01*
X1893025Y7240970D01*
X1898093Y7239939D01*
X1898096Y7239938D01*
X2005350Y7218117D01*
X2111930Y7196433D01*
X2117105Y7196243D01*
X2117107Y7196243D01*
X2330006Y7188436D01*
X2330010Y7188436D01*
X2335170Y7188247D01*
X2340290Y7188903D01*
X2340292Y7188903D01*
X2551621Y7215975D01*
X2551622Y7215975D01*
X2556749Y7216632D01*
X2561699Y7218117D01*
X2765762Y7279339D01*
X2765767Y7279341D01*
X2770717Y7280826D01*
X2971327Y7379104D01*
X3153193Y7508827D01*
X3178552Y7534097D01*
X3276125Y7631330D01*
X3311429Y7666511D01*
X3370927Y7749311D01*
X3438768Y7843723D01*
X3441786Y7847923D01*
X3444457Y7853326D01*
X3538469Y8043547D01*
X3538470Y8043549D01*
X3540763Y8048189D01*
X3577370Y8168678D01*
X3604198Y8256977D01*
X3604198Y8256979D01*
X3605703Y8261931D01*
X3634862Y8483410D01*
X3636489Y8550000D01*
X3618185Y8772639D01*
X3563764Y8989298D01*
X3474687Y9194160D01*
X3353347Y9381723D01*
X3203003Y9546949D01*
X3198952Y9550148D01*
X3198948Y9550152D01*
X3031747Y9682200D01*
X3031743Y9682202D01*
X3027692Y9685402D01*
X2986386Y9708204D01*
X2936417Y9758636D01*
X2921645Y9828079D01*
X2946761Y9894484D01*
X2974113Y9921091D01*
X3017936Y9952350D01*
X3153193Y10048827D01*
X3199758Y10095229D01*
X3238814Y10134149D01*
X26886719Y10134149D01*
X26887235Y10128005D01*
X26900220Y9973368D01*
X26903268Y9937066D01*
X26904967Y9931142D01*
X26944475Y9793362D01*
X26957783Y9746950D01*
X26960602Y9741465D01*
X27017888Y9630000D01*
X27048187Y9571044D01*
X27171035Y9416047D01*
X27321650Y9287864D01*
X27494294Y9191376D01*
X27682392Y9130260D01*
X27878777Y9106842D01*
X27884912Y9107314D01*
X27884914Y9107314D01*
X28069830Y9121543D01*
X28069834Y9121544D01*
X28075972Y9122016D01*
X28266463Y9175202D01*
X28271967Y9177982D01*
X28271969Y9177983D01*
X28437495Y9261596D01*
X28437497Y9261597D01*
X28442996Y9264375D01*
X28598847Y9386139D01*
X28728078Y9535855D01*
X28789598Y9644149D01*
X31546719Y9644149D01*
X31547235Y9638005D01*
X31555202Y9543130D01*
X31563268Y9447066D01*
X31582005Y9381723D01*
X31615740Y9264076D01*
X31617783Y9256950D01*
X31635067Y9223320D01*
X31694929Y9106842D01*
X31708187Y9081044D01*
X31831035Y8926047D01*
X31835728Y8922053D01*
X31835729Y8922052D01*
X31945706Y8828455D01*
X31981650Y8797864D01*
X31987027Y8794859D01*
X32131777Y8713960D01*
X32181482Y8663266D01*
X32195890Y8593747D01*
X32191737Y8572632D01*
X32191909Y8572595D01*
X32190627Y8566565D01*
X32188765Y8560694D01*
X32166719Y8364149D01*
X32167235Y8358005D01*
X32181241Y8191209D01*
X32183268Y8167066D01*
X32193436Y8131607D01*
X32218687Y8043547D01*
X32237783Y7976950D01*
X32240602Y7971465D01*
X32324666Y7807896D01*
X32328187Y7801044D01*
X32451035Y7646047D01*
X32455728Y7642053D01*
X32455729Y7642052D01*
X32583794Y7533061D01*
X32601650Y7517864D01*
X32774294Y7421376D01*
X32962392Y7360260D01*
X33158777Y7336842D01*
X33164912Y7337314D01*
X33164914Y7337314D01*
X33349830Y7351543D01*
X33349834Y7351544D01*
X33355972Y7352016D01*
X33546463Y7405202D01*
X33551967Y7407982D01*
X33551969Y7407983D01*
X33717495Y7491596D01*
X33717497Y7491597D01*
X33722996Y7494375D01*
X33878847Y7616139D01*
X33984000Y7737960D01*
X34004049Y7761187D01*
X34004050Y7761189D01*
X34008078Y7765855D01*
X34105769Y7937821D01*
X34168197Y8125487D01*
X34192985Y8321705D01*
X34193380Y8350000D01*
X34174080Y8546833D01*
X34171890Y8554089D01*
X34132231Y8685444D01*
X34116916Y8736169D01*
X34024066Y8910796D01*
X33938506Y9015703D01*
X33902960Y9059287D01*
X33902957Y9059290D01*
X33899065Y9064062D01*
X33884372Y9076217D01*
X33751425Y9186201D01*
X33751421Y9186203D01*
X33746675Y9190130D01*
X33609914Y9264077D01*
X33559506Y9314071D01*
X33544129Y9383382D01*
X33546711Y9401020D01*
X33548197Y9405487D01*
X33572985Y9601705D01*
X33573380Y9630000D01*
X33554080Y9826833D01*
X33543867Y9860662D01*
X33519078Y9942765D01*
X33496916Y10016169D01*
X33404066Y10190796D01*
X33323719Y10289311D01*
X33282960Y10339287D01*
X33282957Y10339290D01*
X33279065Y10344062D01*
X33272724Y10349308D01*
X33131425Y10466201D01*
X33131421Y10466203D01*
X33126675Y10470130D01*
X32952701Y10564198D01*
X32763768Y10622682D01*
X32757643Y10623326D01*
X32757642Y10623326D01*
X32573204Y10642711D01*
X32573202Y10642711D01*
X32567075Y10643355D01*
X32484576Y10635847D01*
X32376251Y10625989D01*
X32376248Y10625988D01*
X32370112Y10625430D01*
X32364206Y10623692D01*
X32364202Y10623691D01*
X32260408Y10593143D01*
X32180381Y10569590D01*
X32174923Y10566737D01*
X32174919Y10566735D01*
X32094339Y10524608D01*
X32005110Y10477960D01*
X31850975Y10354032D01*
X31723846Y10202526D01*
X31720879Y10197128D01*
X31720875Y10197123D01*
X31682878Y10128005D01*
X31628567Y10029213D01*
X31626706Y10023346D01*
X31626705Y10023344D01*
X31593638Y9919104D01*
X31568765Y9840694D01*
X31546719Y9644149D01*
X28789598Y9644149D01*
X28825769Y9707821D01*
X28888197Y9895487D01*
X28912985Y10091705D01*
X28913380Y10120000D01*
X28894080Y10316833D01*
X28836916Y10506169D01*
X28744066Y10680796D01*
X28649311Y10796977D01*
X28622960Y10829287D01*
X28622957Y10829290D01*
X28619065Y10834062D01*
X28612724Y10839308D01*
X28471425Y10956201D01*
X28471421Y10956203D01*
X28466675Y10960130D01*
X28292701Y11054198D01*
X28103768Y11112682D01*
X28097643Y11113326D01*
X28097642Y11113326D01*
X27913204Y11132711D01*
X27913202Y11132711D01*
X27907075Y11133355D01*
X27824576Y11125847D01*
X27716251Y11115989D01*
X27716248Y11115988D01*
X27710112Y11115430D01*
X27704206Y11113692D01*
X27704202Y11113691D01*
X27635103Y11093354D01*
X27520381Y11059590D01*
X27514923Y11056737D01*
X27514919Y11056735D01*
X27457583Y11026760D01*
X27345110Y10967960D01*
X27190975Y10844032D01*
X27063846Y10692526D01*
X27060879Y10687128D01*
X27060875Y10687123D01*
X26991687Y10561268D01*
X26968567Y10519213D01*
X26966706Y10513346D01*
X26966705Y10513344D01*
X26928391Y10392562D01*
X26908765Y10330694D01*
X26886719Y10134149D01*
X3238814Y10134149D01*
X3295659Y10190796D01*
X3311429Y10206511D01*
X3370927Y10289311D01*
X3438768Y10383723D01*
X3441786Y10387923D01*
X3500227Y10506169D01*
X3538469Y10583547D01*
X3538470Y10583549D01*
X3540763Y10588189D01*
X3605703Y10801931D01*
X3634862Y11023410D01*
X3636489Y11090000D01*
X3618185Y11312639D01*
X3563764Y11529298D01*
X3474687Y11734160D01*
X3353347Y11921723D01*
X3203003Y12086949D01*
X3198952Y12090148D01*
X3198948Y12090152D01*
X3031747Y12222200D01*
X3031743Y12222202D01*
X3027692Y12225402D01*
X2986386Y12248204D01*
X2936417Y12298636D01*
X2921645Y12368079D01*
X2946761Y12434484D01*
X2974113Y12461091D01*
X3017936Y12492350D01*
X3153193Y12588827D01*
X3311429Y12746511D01*
X3322571Y12762016D01*
X3438768Y12923723D01*
X3441786Y12927923D01*
X3461574Y12967960D01*
X3538469Y13123547D01*
X3538470Y13123549D01*
X3540763Y13128189D01*
X3605703Y13341931D01*
X3634862Y13563410D01*
X3636489Y13630000D01*
X3624638Y13774149D01*
X17176719Y13774149D01*
X17177235Y13768005D01*
X17189106Y13626635D01*
X17193268Y13577066D01*
X17247783Y13386950D01*
X17338187Y13211044D01*
X17461035Y13056047D01*
X17465728Y13052053D01*
X17465729Y13052052D01*
X17570294Y12963061D01*
X17611650Y12927864D01*
X17784294Y12831376D01*
X17972392Y12770260D01*
X18168777Y12746842D01*
X18174912Y12747314D01*
X18174914Y12747314D01*
X18359830Y12761543D01*
X18359834Y12761544D01*
X18365972Y12762016D01*
X18537832Y12810000D01*
X29720000Y12810000D01*
X29733568Y12809951D01*
X29733569Y12809951D01*
X35236056Y12790158D01*
X35304105Y12769911D01*
X35314313Y12762549D01*
X35324722Y12754222D01*
X35334789Y12745244D01*
X38170000Y9930000D01*
X58740000Y9930000D01*
X59113587Y10324575D01*
X59617545Y10856845D01*
X59617545Y10856846D01*
X59630000Y10870000D01*
X59630000Y12134149D01*
X78796719Y12134149D01*
X78797235Y12128005D01*
X78812048Y11951599D01*
X78813268Y11937066D01*
X78867783Y11746950D01*
X78958187Y11571044D01*
X79081035Y11416047D01*
X79085728Y11412053D01*
X79085729Y11412052D01*
X79208604Y11307478D01*
X79231650Y11287864D01*
X79404294Y11191376D01*
X79592392Y11130260D01*
X79788777Y11106842D01*
X79794912Y11107314D01*
X79794914Y11107314D01*
X79979830Y11121543D01*
X79979834Y11121544D01*
X79985972Y11122016D01*
X80176463Y11175202D01*
X80181967Y11177982D01*
X80181969Y11177983D01*
X80347495Y11261596D01*
X80347497Y11261597D01*
X80352996Y11264375D01*
X80508847Y11386139D01*
X80638078Y11535855D01*
X80735769Y11707821D01*
X80798197Y11895487D01*
X80822985Y12091705D01*
X80823380Y12120000D01*
X80804080Y12316833D01*
X80746916Y12506169D01*
X80654066Y12680796D01*
X80565001Y12790000D01*
X80532960Y12829287D01*
X80532957Y12829290D01*
X80529065Y12834062D01*
X80522724Y12839308D01*
X80381425Y12956201D01*
X80381421Y12956203D01*
X80376675Y12960130D01*
X80202701Y13054198D01*
X80013768Y13112682D01*
X80007643Y13113326D01*
X80007642Y13113326D01*
X79823204Y13132711D01*
X79823202Y13132711D01*
X79817075Y13133355D01*
X79734576Y13125847D01*
X79626251Y13115989D01*
X79626248Y13115988D01*
X79620112Y13115430D01*
X79614206Y13113692D01*
X79614202Y13113691D01*
X79509076Y13082751D01*
X79430381Y13059590D01*
X79424923Y13056737D01*
X79424919Y13056735D01*
X79359138Y13022345D01*
X79255110Y12967960D01*
X79100975Y12844032D01*
X78973846Y12692526D01*
X78970879Y12687128D01*
X78970875Y12687123D01*
X78916837Y12588827D01*
X78878567Y12519213D01*
X78876706Y12513346D01*
X78876705Y12513344D01*
X78859499Y12459104D01*
X78818765Y12330694D01*
X78796719Y12134149D01*
X59630000Y12134149D01*
X59630000Y15374149D01*
X78966719Y15374149D01*
X78967235Y15368005D01*
X78981976Y15192458D01*
X78983268Y15177066D01*
X78996869Y15129635D01*
X79034298Y14999104D01*
X79037783Y14986950D01*
X79040602Y14981465D01*
X79114007Y14838636D01*
X79128187Y14811044D01*
X79251035Y14656047D01*
X79255728Y14652053D01*
X79255729Y14652052D01*
X79313294Y14603061D01*
X79401650Y14527864D01*
X79574294Y14431376D01*
X79762392Y14370260D01*
X79958777Y14346842D01*
X79964912Y14347314D01*
X79964914Y14347314D01*
X80149830Y14361543D01*
X80149834Y14361544D01*
X80155972Y14362016D01*
X80346463Y14415202D01*
X80351967Y14417982D01*
X80351969Y14417983D01*
X80517495Y14501596D01*
X80517497Y14501597D01*
X80522996Y14504375D01*
X80678847Y14626139D01*
X80792814Y14758171D01*
X80804049Y14771187D01*
X80804050Y14771189D01*
X80808078Y14775855D01*
X80905769Y14947821D01*
X80968197Y15135487D01*
X80992985Y15331705D01*
X80993380Y15360000D01*
X80974080Y15556833D01*
X80916916Y15746169D01*
X80824066Y15920796D01*
X80747555Y16014608D01*
X80702960Y16069287D01*
X80702957Y16069290D01*
X80699065Y16074062D01*
X80692724Y16079308D01*
X80551425Y16196201D01*
X80551421Y16196203D01*
X80546675Y16200130D01*
X80372701Y16294198D01*
X80183768Y16352682D01*
X80177643Y16353326D01*
X80177642Y16353326D01*
X79993204Y16372711D01*
X79993202Y16372711D01*
X79987075Y16373355D01*
X79904576Y16365847D01*
X79796251Y16355989D01*
X79796248Y16355988D01*
X79790112Y16355430D01*
X79784206Y16353692D01*
X79784202Y16353691D01*
X79696881Y16327991D01*
X79600381Y16299590D01*
X79594923Y16296737D01*
X79594919Y16296735D01*
X79504147Y16249280D01*
X79425110Y16207960D01*
X79270975Y16084032D01*
X79143846Y15932526D01*
X79140879Y15927128D01*
X79140875Y15927123D01*
X79085593Y15826564D01*
X79048567Y15759213D01*
X79046706Y15753346D01*
X79046705Y15753344D01*
X79001234Y15610000D01*
X78988765Y15570694D01*
X78966719Y15374149D01*
X59630000Y15374149D01*
X59630000Y16560000D01*
X35380000Y16580000D01*
X33996905Y15196905D01*
X33934593Y15162879D01*
X33907810Y15160000D01*
X29730000Y15160000D01*
X29727887Y14663543D01*
X29720502Y12927864D01*
X29720000Y12810000D01*
X18537832Y12810000D01*
X18556463Y12815202D01*
X18561967Y12817982D01*
X18561969Y12817983D01*
X18727495Y12901596D01*
X18727497Y12901597D01*
X18732996Y12904375D01*
X18888847Y13026139D01*
X19018078Y13175855D01*
X19115769Y13347821D01*
X19178197Y13535487D01*
X19202985Y13731705D01*
X19203380Y13760000D01*
X19184080Y13956833D01*
X19126916Y14146169D01*
X19034066Y14320796D01*
X18943879Y14431376D01*
X18912960Y14469287D01*
X18912957Y14469290D01*
X18909065Y14474062D01*
X18897549Y14483589D01*
X18761425Y14596201D01*
X18761421Y14596203D01*
X18756675Y14600130D01*
X18582701Y14694198D01*
X18393768Y14752682D01*
X18387643Y14753326D01*
X18387642Y14753326D01*
X18203204Y14772711D01*
X18203202Y14772711D01*
X18197075Y14773355D01*
X18137091Y14767896D01*
X18006251Y14755989D01*
X18006248Y14755988D01*
X18000112Y14755430D01*
X17994206Y14753692D01*
X17994202Y14753691D01*
X17889076Y14722751D01*
X17810381Y14699590D01*
X17804923Y14696737D01*
X17804919Y14696735D01*
X17744603Y14665202D01*
X17635110Y14607960D01*
X17480975Y14484032D01*
X17353846Y14332526D01*
X17350879Y14327128D01*
X17350875Y14327123D01*
X17272095Y14183820D01*
X17258567Y14159213D01*
X17256706Y14153346D01*
X17256705Y14153344D01*
X17241493Y14105390D01*
X17198765Y13970694D01*
X17176719Y13774149D01*
X3624638Y13774149D01*
X3618185Y13852639D01*
X3563764Y14069298D01*
X3474687Y14274160D01*
X3374211Y14429472D01*
X3356155Y14457383D01*
X3356153Y14457386D01*
X3353347Y14461723D01*
X3203003Y14626949D01*
X3198952Y14630148D01*
X3198948Y14630152D01*
X3031747Y14762200D01*
X3031743Y14762202D01*
X3027692Y14765402D01*
X2986386Y14788204D01*
X2936417Y14838636D01*
X2921645Y14908079D01*
X2946761Y14974484D01*
X2974113Y15001091D01*
X3017936Y15032350D01*
X3153193Y15128827D01*
X3159877Y15135487D01*
X3256190Y15231465D01*
X3311429Y15286511D01*
X3366755Y15363505D01*
X3438768Y15463723D01*
X3441786Y15467923D01*
X3463169Y15511187D01*
X3538469Y15663547D01*
X3538470Y15663549D01*
X3540763Y15668189D01*
X3605703Y15881931D01*
X3634862Y16103410D01*
X3634974Y16108005D01*
X3635124Y16114149D01*
X4476719Y16114149D01*
X4477613Y16103505D01*
X4492554Y15925572D01*
X4493268Y15917066D01*
X4505191Y15875487D01*
X4543964Y15740269D01*
X4547783Y15726950D01*
X4550602Y15721465D01*
X4607888Y15610000D01*
X4638187Y15551044D01*
X4761035Y15396047D01*
X4765728Y15392053D01*
X4765729Y15392052D01*
X4797619Y15364912D01*
X4911650Y15267864D01*
X5084294Y15171376D01*
X5272392Y15110260D01*
X5468777Y15086842D01*
X5474912Y15087314D01*
X5474914Y15087314D01*
X5659830Y15101543D01*
X5659834Y15101544D01*
X5665972Y15102016D01*
X5856463Y15155202D01*
X5861967Y15157982D01*
X5861969Y15157983D01*
X6027495Y15241596D01*
X6027497Y15241597D01*
X6032996Y15244375D01*
X6176480Y15356477D01*
X6183991Y15362345D01*
X6188847Y15366139D01*
X6318078Y15515855D01*
X6379598Y15624149D01*
X15566719Y15624149D01*
X15567235Y15618005D01*
X15579448Y15472562D01*
X15583268Y15427066D01*
X15602209Y15361010D01*
X15635654Y15244375D01*
X15637783Y15236950D01*
X15640602Y15231465D01*
X15714929Y15086842D01*
X15728187Y15061044D01*
X15851035Y14906047D01*
X15855728Y14902053D01*
X15855729Y14902052D01*
X15989502Y14788203D01*
X16001650Y14777864D01*
X16174294Y14681376D01*
X16362392Y14620260D01*
X16558777Y14596842D01*
X16564912Y14597314D01*
X16564914Y14597314D01*
X16749830Y14611543D01*
X16749834Y14611544D01*
X16755972Y14612016D01*
X16946463Y14665202D01*
X16951967Y14667982D01*
X16951969Y14667983D01*
X17117495Y14751596D01*
X17117497Y14751597D01*
X17122996Y14754375D01*
X17278847Y14876139D01*
X17408078Y15025855D01*
X17505769Y15197821D01*
X17568197Y15385487D01*
X17592985Y15581705D01*
X17593380Y15610000D01*
X17574080Y15806833D01*
X17516916Y15996169D01*
X17424066Y16170796D01*
X17353709Y16257062D01*
X17302960Y16319287D01*
X17302957Y16319290D01*
X17299065Y16324062D01*
X17292724Y16329308D01*
X17151425Y16446201D01*
X17151421Y16446203D01*
X17146675Y16450130D01*
X16972701Y16544198D01*
X16783768Y16602682D01*
X16777643Y16603326D01*
X16777642Y16603326D01*
X16593204Y16622711D01*
X16593202Y16622711D01*
X16587075Y16623355D01*
X16512004Y16616523D01*
X16396251Y16605989D01*
X16396248Y16605988D01*
X16390112Y16605430D01*
X16384206Y16603692D01*
X16384202Y16603691D01*
X16303707Y16580000D01*
X16200381Y16549590D01*
X16194923Y16546737D01*
X16194919Y16546735D01*
X16114339Y16504608D01*
X16025110Y16457960D01*
X15870975Y16334032D01*
X15743846Y16182526D01*
X15740879Y16177128D01*
X15740875Y16177123D01*
X15700404Y16103505D01*
X15648567Y16009213D01*
X15646706Y16003346D01*
X15646705Y16003344D01*
X15608088Y15881607D01*
X15588765Y15820694D01*
X15566719Y15624149D01*
X6379598Y15624149D01*
X6415769Y15687821D01*
X6478197Y15875487D01*
X6502985Y16071705D01*
X6503380Y16100000D01*
X6484080Y16296833D01*
X6475619Y16324859D01*
X6446805Y16420293D01*
X6426916Y16486169D01*
X6334066Y16660796D01*
X6231177Y16786950D01*
X6212960Y16809287D01*
X6212957Y16809290D01*
X6209065Y16814062D01*
X6202724Y16819308D01*
X6061425Y16936201D01*
X6061421Y16936203D01*
X6056675Y16940130D01*
X5882701Y17034198D01*
X5693768Y17092682D01*
X5687643Y17093326D01*
X5687642Y17093326D01*
X5503204Y17112711D01*
X5503202Y17112711D01*
X5497075Y17113355D01*
X5414576Y17105847D01*
X5306251Y17095989D01*
X5306248Y17095988D01*
X5300112Y17095430D01*
X5294206Y17093692D01*
X5294202Y17093691D01*
X5189076Y17062751D01*
X5110381Y17039590D01*
X5104923Y17036737D01*
X5104919Y17036735D01*
X5029647Y16997383D01*
X4935110Y16947960D01*
X4780975Y16824032D01*
X4653846Y16672526D01*
X4650879Y16667128D01*
X4650875Y16667123D01*
X4582026Y16541885D01*
X4558567Y16499213D01*
X4556706Y16493346D01*
X4556705Y16493344D01*
X4512289Y16353326D01*
X4498765Y16310694D01*
X4476719Y16114149D01*
X3635124Y16114149D01*
X3636407Y16166635D01*
X3636407Y16166639D01*
X3636489Y16170000D01*
X3618185Y16392639D01*
X3563764Y16609298D01*
X3474687Y16814160D01*
X3373131Y16971142D01*
X3356155Y16997383D01*
X3356153Y16997386D01*
X3353347Y17001723D01*
X3203003Y17166949D01*
X3198952Y17170148D01*
X3198948Y17170152D01*
X3193887Y17174149D01*
X22756719Y17174149D01*
X22757235Y17168005D01*
X22771198Y17001723D01*
X22773268Y16977066D01*
X22774967Y16971142D01*
X22821343Y16809410D01*
X22827783Y16786950D01*
X22918187Y16611044D01*
X23041035Y16456047D01*
X23045728Y16452053D01*
X23045729Y16452052D01*
X23184403Y16334032D01*
X23191650Y16327864D01*
X23364294Y16231376D01*
X23552392Y16170260D01*
X23748777Y16146842D01*
X23754912Y16147314D01*
X23754914Y16147314D01*
X23939830Y16161543D01*
X23939834Y16161544D01*
X23945972Y16162016D01*
X24136463Y16215202D01*
X24141967Y16217982D01*
X24141969Y16217983D01*
X24307495Y16301596D01*
X24307497Y16301597D01*
X24312996Y16304375D01*
X24444146Y16406840D01*
X24463991Y16422345D01*
X24468847Y16426139D01*
X24568756Y16541885D01*
X24594049Y16571187D01*
X24594050Y16571189D01*
X24598078Y16575855D01*
X24695769Y16747821D01*
X24758197Y16935487D01*
X24782985Y17131705D01*
X24783380Y17160000D01*
X24770249Y17293917D01*
X24783508Y17363665D01*
X24832371Y17415172D01*
X24901323Y17432085D01*
X24934583Y17426046D01*
X24946016Y17422332D01*
X24952392Y17420260D01*
X25148777Y17396842D01*
X25154912Y17397314D01*
X25154914Y17397314D01*
X25339830Y17411543D01*
X25339834Y17411544D01*
X25345972Y17412016D01*
X25536463Y17465202D01*
X25541967Y17467982D01*
X25541969Y17467983D01*
X25707495Y17551596D01*
X25707497Y17551597D01*
X25712996Y17554375D01*
X25868847Y17676139D01*
X25998078Y17825855D01*
X26095769Y17997821D01*
X26158197Y18185487D01*
X26182985Y18381705D01*
X26183380Y18410000D01*
X26164080Y18606833D01*
X26154039Y18640092D01*
X26137354Y18695355D01*
X26106916Y18796169D01*
X26014066Y18970796D01*
X25932123Y19071268D01*
X25892960Y19119287D01*
X25892957Y19119290D01*
X25889065Y19124062D01*
X25880848Y19130860D01*
X25741425Y19246201D01*
X25741421Y19246203D01*
X25736675Y19250130D01*
X25562701Y19344198D01*
X25401334Y19394149D01*
X42056719Y19394149D01*
X42060461Y19349590D01*
X42070822Y19226201D01*
X42073268Y19197066D01*
X42079394Y19175703D01*
X42124146Y19019635D01*
X42127783Y19006950D01*
X42130602Y19001465D01*
X42199248Y18867896D01*
X42218187Y18831044D01*
X42341035Y18676047D01*
X42345728Y18672053D01*
X42345729Y18672052D01*
X42436765Y18594575D01*
X42491650Y18547864D01*
X42664294Y18451376D01*
X42852392Y18390260D01*
X43048777Y18366842D01*
X43054912Y18367314D01*
X43054914Y18367314D01*
X43239830Y18381543D01*
X43239834Y18381544D01*
X43245972Y18382016D01*
X43325244Y18404149D01*
X44196719Y18404149D01*
X44198203Y18386477D01*
X44211589Y18227066D01*
X44213268Y18207066D01*
X44267783Y18016950D01*
X44358187Y17841044D01*
X44481035Y17686047D01*
X44485728Y17682053D01*
X44485729Y17682052D01*
X44593000Y17590758D01*
X44631650Y17557864D01*
X44804294Y17461376D01*
X44992392Y17400260D01*
X45188777Y17376842D01*
X45194912Y17377314D01*
X45194914Y17377314D01*
X45379830Y17391543D01*
X45379834Y17391544D01*
X45385972Y17392016D01*
X45576463Y17445202D01*
X45581967Y17447982D01*
X45581969Y17447983D01*
X45747495Y17531596D01*
X45747497Y17531597D01*
X45752996Y17534375D01*
X45908847Y17656139D01*
X46038078Y17805855D01*
X46135769Y17977821D01*
X46194425Y18154149D01*
X63866719Y18154149D01*
X63867907Y18140000D01*
X63881976Y17972458D01*
X63883268Y17957066D01*
X63884967Y17951142D01*
X63927966Y17801187D01*
X63937783Y17766950D01*
X63940602Y17761465D01*
X63992336Y17660803D01*
X64028187Y17591044D01*
X64151035Y17436047D01*
X64155728Y17432053D01*
X64155729Y17432052D01*
X64277752Y17328203D01*
X64301650Y17307864D01*
X64474294Y17211376D01*
X64662392Y17150260D01*
X64858777Y17126842D01*
X64864912Y17127314D01*
X64864914Y17127314D01*
X65049830Y17141543D01*
X65049834Y17141544D01*
X65055972Y17142016D01*
X65246463Y17195202D01*
X65251967Y17197982D01*
X65251969Y17197983D01*
X65417495Y17281596D01*
X65417497Y17281597D01*
X65422996Y17284375D01*
X65567552Y17397314D01*
X65573991Y17402345D01*
X65578847Y17406139D01*
X65695334Y17541091D01*
X65704049Y17551187D01*
X65704050Y17551189D01*
X65708078Y17555855D01*
X65805769Y17727821D01*
X65868197Y17915487D01*
X65892985Y18111705D01*
X65893380Y18140000D01*
X65874080Y18336833D01*
X65860439Y18382016D01*
X65847718Y18424149D01*
X65816916Y18526169D01*
X65724066Y18700796D01*
X65646538Y18795855D01*
X65602960Y18849287D01*
X65602957Y18849290D01*
X65599065Y18854062D01*
X65588822Y18862536D01*
X65451425Y18976201D01*
X65451421Y18976203D01*
X65446675Y18980130D01*
X65272701Y19074198D01*
X65083768Y19132682D01*
X65077643Y19133326D01*
X65077642Y19133326D01*
X64893204Y19152711D01*
X64893202Y19152711D01*
X64887075Y19153355D01*
X64804576Y19145847D01*
X64696251Y19135989D01*
X64696248Y19135988D01*
X64690112Y19135430D01*
X64684206Y19133692D01*
X64684202Y19133691D01*
X64596881Y19107991D01*
X64500381Y19079590D01*
X64494923Y19076737D01*
X64494919Y19076735D01*
X64404147Y19029280D01*
X64325110Y18987960D01*
X64170975Y18864032D01*
X64043846Y18712526D01*
X64040879Y18707128D01*
X64040875Y18707123D01*
X64005849Y18643410D01*
X63948567Y18539213D01*
X63946706Y18533346D01*
X63946705Y18533344D01*
X63901920Y18392164D01*
X63888765Y18350694D01*
X63866719Y18154149D01*
X46194425Y18154149D01*
X46198197Y18165487D01*
X46222985Y18361705D01*
X46223292Y18383674D01*
X46223331Y18386477D01*
X46223331Y18386480D01*
X46223380Y18390000D01*
X46204080Y18586833D01*
X46196260Y18612736D01*
X46169598Y18701044D01*
X46146916Y18776169D01*
X46054066Y18950796D01*
X45964070Y19061142D01*
X45932960Y19099287D01*
X45932957Y19099290D01*
X45929065Y19104062D01*
X45922724Y19109308D01*
X45781425Y19226201D01*
X45781421Y19226203D01*
X45776675Y19230130D01*
X45602701Y19324198D01*
X45413768Y19382682D01*
X45407643Y19383326D01*
X45407642Y19383326D01*
X45223204Y19402711D01*
X45223202Y19402711D01*
X45217075Y19403355D01*
X45134576Y19395847D01*
X45026251Y19385989D01*
X45026248Y19385988D01*
X45020112Y19385430D01*
X45014206Y19383692D01*
X45014202Y19383691D01*
X44928637Y19358508D01*
X44830381Y19329590D01*
X44824923Y19326737D01*
X44824919Y19326735D01*
X44734147Y19279280D01*
X44655110Y19237960D01*
X44500975Y19114032D01*
X44373846Y18962526D01*
X44370879Y18957128D01*
X44370875Y18957123D01*
X44323785Y18871465D01*
X44278567Y18789213D01*
X44276706Y18783346D01*
X44276705Y18783344D01*
X44231263Y18640092D01*
X44218765Y18600694D01*
X44196719Y18404149D01*
X43325244Y18404149D01*
X43436463Y18435202D01*
X43441967Y18437982D01*
X43441969Y18437983D01*
X43607495Y18521596D01*
X43607497Y18521597D01*
X43612996Y18524375D01*
X43768847Y18646139D01*
X43881086Y18776169D01*
X43894049Y18791187D01*
X43894050Y18791189D01*
X43898078Y18795855D01*
X43995769Y18967821D01*
X44058197Y19155487D01*
X44082985Y19351705D01*
X44083380Y19380000D01*
X44064080Y19576833D01*
X44008164Y19762034D01*
X77478257Y19762034D01*
X77508565Y19627554D01*
X77511645Y19617725D01*
X77591770Y19420397D01*
X77596413Y19411206D01*
X77707694Y19229612D01*
X77713777Y19221301D01*
X77853213Y19060333D01*
X77860580Y19053117D01*
X78024434Y18917084D01*
X78032881Y18911169D01*
X78216756Y18803721D01*
X78226042Y18799271D01*
X78425001Y18723297D01*
X78434899Y18720421D01*
X78538250Y18699394D01*
X78552299Y18700590D01*
X78556000Y18710935D01*
X78556000Y18711483D01*
X79064000Y18711483D01*
X79068064Y18697641D01*
X79081478Y18695607D01*
X79088184Y18696466D01*
X79098262Y18698608D01*
X79302255Y18759809D01*
X79311842Y18763567D01*
X79503095Y18857261D01*
X79511945Y18862536D01*
X79685328Y18986208D01*
X79693200Y18992861D01*
X79844052Y19143188D01*
X79850730Y19151035D01*
X79975003Y19323980D01*
X79980313Y19332817D01*
X80074670Y19523733D01*
X80078469Y19533328D01*
X80140377Y19737090D01*
X80142555Y19747163D01*
X80143986Y19758038D01*
X80141775Y19772222D01*
X80128617Y19776000D01*
X79082115Y19776000D01*
X79066876Y19771525D01*
X79065671Y19770135D01*
X79064000Y19762452D01*
X79064000Y18711483D01*
X78556000Y18711483D01*
X78556000Y19757885D01*
X78551525Y19773124D01*
X78550135Y19774329D01*
X78542452Y19776000D01*
X77493225Y19776000D01*
X77479694Y19772027D01*
X77478257Y19762034D01*
X44008164Y19762034D01*
X44006916Y19766169D01*
X43914066Y19940796D01*
X43811050Y20067106D01*
X43792960Y20089287D01*
X43792957Y20089290D01*
X43789065Y20094062D01*
X43782724Y20099308D01*
X43641425Y20216201D01*
X43641421Y20216203D01*
X43636675Y20220130D01*
X43462701Y20314198D01*
X43273768Y20372682D01*
X43267643Y20373326D01*
X43267642Y20373326D01*
X43083204Y20392711D01*
X43083202Y20392711D01*
X43077075Y20393355D01*
X42994576Y20385847D01*
X42886251Y20375989D01*
X42886248Y20375988D01*
X42880112Y20375430D01*
X42874206Y20373692D01*
X42874202Y20373691D01*
X42811820Y20355331D01*
X42690381Y20319590D01*
X42684923Y20316737D01*
X42684919Y20316735D01*
X42628794Y20287393D01*
X42515110Y20227960D01*
X42360975Y20104032D01*
X42357011Y20099308D01*
X42352609Y20094062D01*
X42233846Y19952526D01*
X42230879Y19947128D01*
X42230875Y19947123D01*
X42174954Y19845402D01*
X42138567Y19779213D01*
X42136706Y19773346D01*
X42136705Y19773344D01*
X42091319Y19630269D01*
X42078765Y19590694D01*
X42056719Y19394149D01*
X25401334Y19394149D01*
X25373768Y19402682D01*
X25367643Y19403326D01*
X25367642Y19403326D01*
X25183204Y19422711D01*
X25183202Y19422711D01*
X25177075Y19423355D01*
X25094576Y19415847D01*
X24986251Y19405989D01*
X24986248Y19405988D01*
X24980112Y19405430D01*
X24974206Y19403692D01*
X24974202Y19403691D01*
X24869076Y19372751D01*
X24790381Y19349590D01*
X24784923Y19346737D01*
X24784919Y19346735D01*
X24736206Y19321268D01*
X24615110Y19257960D01*
X24460975Y19134032D01*
X24333846Y18982526D01*
X24330879Y18977128D01*
X24330875Y18977123D01*
X24303583Y18927478D01*
X24238567Y18809213D01*
X24236706Y18803346D01*
X24236705Y18803344D01*
X24193091Y18665855D01*
X24178765Y18620694D01*
X24156719Y18424149D01*
X24161962Y18361705D01*
X24169374Y18273440D01*
X24155142Y18203885D01*
X24105565Y18153065D01*
X24036383Y18137116D01*
X24006560Y18142531D01*
X23973768Y18152682D01*
X23967643Y18153326D01*
X23967642Y18153326D01*
X23783204Y18172711D01*
X23783202Y18172711D01*
X23777075Y18173355D01*
X23694576Y18165847D01*
X23586251Y18155989D01*
X23586248Y18155988D01*
X23580112Y18155430D01*
X23574206Y18153692D01*
X23574202Y18153691D01*
X23517885Y18137116D01*
X23390381Y18099590D01*
X23384923Y18096737D01*
X23384919Y18096735D01*
X23320498Y18063056D01*
X23215110Y18007960D01*
X23060975Y17884032D01*
X22933846Y17732526D01*
X22930879Y17727128D01*
X22930875Y17727123D01*
X22900761Y17672345D01*
X22838567Y17559213D01*
X22836706Y17553346D01*
X22836705Y17553344D01*
X22780865Y17377314D01*
X22778765Y17370694D01*
X22756719Y17174149D01*
X3193887Y17174149D01*
X3031747Y17302200D01*
X3031743Y17302202D01*
X3027692Y17305402D01*
X2986386Y17328204D01*
X2936417Y17378636D01*
X2921645Y17448079D01*
X2946761Y17514484D01*
X2974113Y17541091D01*
X3037377Y17586217D01*
X3153193Y17668827D01*
X3166465Y17682052D01*
X3307768Y17822863D01*
X3311429Y17826511D01*
X3318404Y17836217D01*
X3438768Y18003723D01*
X3441786Y18007923D01*
X3446248Y18016950D01*
X3538469Y18203547D01*
X3538470Y18203549D01*
X3540763Y18208189D01*
X3582200Y18344575D01*
X3604198Y18416977D01*
X3604198Y18416979D01*
X3605703Y18421931D01*
X3634862Y18643410D01*
X3635043Y18650803D01*
X3636407Y18706635D01*
X3636407Y18706639D01*
X3636489Y18710000D01*
X3618185Y18932639D01*
X3563764Y19149298D01*
X3513825Y19264149D01*
X19866719Y19264149D01*
X19867235Y19258005D01*
X19879832Y19107991D01*
X19883268Y19067066D01*
X19900506Y19006950D01*
X19926275Y18917084D01*
X19937783Y18876950D01*
X19940602Y18871465D01*
X20025314Y18706635D01*
X20028187Y18701044D01*
X20151035Y18546047D01*
X20155728Y18542053D01*
X20155729Y18542052D01*
X20290844Y18427061D01*
X20301650Y18417864D01*
X20474294Y18321376D01*
X20662392Y18260260D01*
X20858777Y18236842D01*
X20864912Y18237314D01*
X20864914Y18237314D01*
X21049830Y18251543D01*
X21049834Y18251544D01*
X21055972Y18252016D01*
X21246463Y18305202D01*
X21251967Y18307982D01*
X21251969Y18307983D01*
X21417495Y18391596D01*
X21417497Y18391597D01*
X21422996Y18394375D01*
X21578847Y18516139D01*
X21708078Y18665855D01*
X21805769Y18837821D01*
X21868197Y19025487D01*
X21892985Y19221705D01*
X21893380Y19250000D01*
X21874080Y19446833D01*
X21816916Y19636169D01*
X21724066Y19810796D01*
X21622478Y19935355D01*
X21602960Y19959287D01*
X21602957Y19959290D01*
X21599065Y19964062D01*
X21592724Y19969308D01*
X21451425Y20086201D01*
X21451421Y20086203D01*
X21446675Y20090130D01*
X21272701Y20184198D01*
X21083768Y20242682D01*
X21077643Y20243326D01*
X21077642Y20243326D01*
X20893204Y20262711D01*
X20893202Y20262711D01*
X20887075Y20263355D01*
X20804576Y20255847D01*
X20696251Y20245989D01*
X20696248Y20245988D01*
X20690112Y20245430D01*
X20684206Y20243692D01*
X20684202Y20243691D01*
X20590799Y20216201D01*
X20500381Y20189590D01*
X20494923Y20186737D01*
X20494919Y20186735D01*
X20447503Y20161946D01*
X20325110Y20097960D01*
X20170975Y19974032D01*
X20043846Y19822526D01*
X20040879Y19817128D01*
X20040875Y19817123D01*
X19980307Y19706949D01*
X19948567Y19649213D01*
X19946706Y19643346D01*
X19946705Y19643344D01*
X19923946Y19571599D01*
X19888765Y19460694D01*
X19866719Y19264149D01*
X3513825Y19264149D01*
X3474687Y19354160D01*
X3401970Y19466564D01*
X3356155Y19537383D01*
X3356153Y19537386D01*
X3353347Y19541723D01*
X3349873Y19545541D01*
X3349866Y19545550D01*
X3205768Y19703912D01*
X3174716Y19767758D01*
X3183112Y19838256D01*
X3228289Y19893024D01*
X3254733Y19906693D01*
X3361385Y19946675D01*
X3376982Y19955214D01*
X3479057Y20031715D01*
X3491618Y20044276D01*
X3568119Y20146351D01*
X3576657Y20161946D01*
X3621811Y20282394D01*
X3625438Y20297649D01*
X3630964Y20348514D01*
X3631333Y20355328D01*
X3631333Y20977885D01*
X3626858Y20993124D01*
X3625468Y20994329D01*
X3617785Y20996000D01*
X933449Y20996000D01*
X918210Y20991525D01*
X917005Y20990135D01*
X915334Y20982452D01*
X915334Y20355331D01*
X915704Y20348510D01*
X921228Y20297648D01*
X924854Y20282396D01*
X970009Y20161946D01*
X978547Y20146351D01*
X1055048Y20044276D01*
X1067609Y20031715D01*
X1169684Y19955214D01*
X1185279Y19946676D01*
X1294160Y19905858D01*
X1350924Y19863216D01*
X1375624Y19796655D01*
X1360416Y19727306D01*
X1341024Y19700825D01*
X1271005Y19627554D01*
X1213962Y19567862D01*
X1211048Y19563590D01*
X1211047Y19563589D01*
X1183859Y19523733D01*
X1088076Y19383320D01*
X1059273Y19321268D01*
X1004471Y19203207D01*
X994021Y19180695D01*
X934322Y18965430D01*
X910584Y18743305D01*
X910881Y18738152D01*
X910881Y18738149D01*
X919606Y18586833D01*
X923443Y18520285D01*
X924580Y18515239D01*
X924581Y18515233D01*
X942991Y18433543D01*
X972555Y18302361D01*
X1025200Y18172711D01*
X1054185Y18101330D01*
X1056599Y18095384D01*
X1059298Y18090980D01*
X1170426Y17909635D01*
X1173320Y17904912D01*
X1319583Y17736062D01*
X1491459Y17593368D01*
X1503697Y17586217D01*
X1564778Y17550524D01*
X1613502Y17498886D01*
X1626573Y17429103D01*
X1599842Y17363331D01*
X1559388Y17329973D01*
X1546940Y17323493D01*
X1542807Y17320390D01*
X1542804Y17320388D01*
X1372433Y17192470D01*
X1368298Y17189365D01*
X1332748Y17152164D01*
X1225170Y17039590D01*
X1213962Y17027862D01*
X1211048Y17023590D01*
X1211047Y17023589D01*
X1156821Y16944097D01*
X1088076Y16843320D01*
X1064661Y16792877D01*
X1003352Y16660796D01*
X994021Y16640695D01*
X934322Y16425430D01*
X910584Y16203305D01*
X910881Y16198152D01*
X910881Y16198149D01*
X917238Y16087896D01*
X923443Y15980285D01*
X924580Y15975239D01*
X924581Y15975233D01*
X937690Y15917066D01*
X972555Y15762361D01*
X1010794Y15668189D01*
X1053614Y15562736D01*
X1056599Y15555384D01*
X1059298Y15550980D01*
X1167660Y15374149D01*
X1173320Y15364912D01*
X1319583Y15196062D01*
X1491459Y15053368D01*
X1561928Y15012189D01*
X1564778Y15010524D01*
X1613502Y14958886D01*
X1626573Y14889103D01*
X1599842Y14823331D01*
X1559388Y14789973D01*
X1546940Y14783493D01*
X1542807Y14780390D01*
X1542804Y14780388D01*
X1372433Y14652470D01*
X1368298Y14649365D01*
X1364726Y14645627D01*
X1227087Y14501596D01*
X1213962Y14487862D01*
X1088076Y14303320D01*
X1072336Y14269410D01*
X1012391Y14140269D01*
X994021Y14100695D01*
X934322Y13885430D01*
X910584Y13663305D01*
X910881Y13658152D01*
X910881Y13658149D01*
X916344Y13563410D01*
X923443Y13440285D01*
X924580Y13435239D01*
X924581Y13435233D01*
X936699Y13381465D01*
X972555Y13222361D01*
X1008958Y13132711D01*
X1040099Y13056020D01*
X1056599Y13015384D01*
X1090459Y12960130D01*
X1170526Y12829472D01*
X1173320Y12824912D01*
X1319583Y12656062D01*
X1491459Y12513368D01*
X1561928Y12472189D01*
X1564778Y12470524D01*
X1613502Y12418886D01*
X1626573Y12349103D01*
X1599842Y12283331D01*
X1559388Y12249973D01*
X1546940Y12243493D01*
X1542807Y12240390D01*
X1542804Y12240388D01*
X1377770Y12116477D01*
X1368298Y12109365D01*
X1213962Y11947862D01*
X1211048Y11943590D01*
X1211047Y11943589D01*
X1206597Y11937066D01*
X1088076Y11763320D01*
X994021Y11560695D01*
X934322Y11345430D01*
X910584Y11123305D01*
X910881Y11118152D01*
X910881Y11118149D01*
X916344Y11023410D01*
X923443Y10900285D01*
X924580Y10895239D01*
X924581Y10895233D01*
X936120Y10844032D01*
X972555Y10682361D01*
X1034006Y10531024D01*
X1054395Y10480813D01*
X1056599Y10475384D01*
X1107352Y10392562D01*
X1150142Y10322736D01*
X1173320Y10284912D01*
X1319583Y10116062D01*
X1491459Y9973368D01*
X1543074Y9943207D01*
X1564778Y9930524D01*
X1613502Y9878886D01*
X1626573Y9809103D01*
X1599842Y9743331D01*
X1559388Y9709973D01*
X1546940Y9703493D01*
X1542807Y9700390D01*
X1542804Y9700388D01*
X1372433Y9572470D01*
X1368298Y9569365D01*
X1213962Y9407862D01*
X1211048Y9403590D01*
X1211047Y9403589D01*
X1198737Y9385543D01*
X1088076Y9223320D01*
X994021Y9020695D01*
X934322Y8805430D01*
X910584Y8583305D01*
X-3971500Y8583305D01*
X-3971500Y21522115D01*
X915333Y21522115D01*
X919808Y21506876D01*
X921198Y21505671D01*
X928881Y21504000D01*
X2001218Y21504000D01*
X2016457Y21508475D01*
X2017662Y21509865D01*
X2019333Y21517548D01*
X2019333Y21522115D01*
X2527333Y21522115D01*
X2531808Y21506876D01*
X2533198Y21505671D01*
X2540881Y21504000D01*
X3613217Y21504000D01*
X3628456Y21508475D01*
X3629661Y21509865D01*
X3631332Y21517548D01*
X3631332Y22144669D01*
X3630962Y22151490D01*
X3625438Y22202352D01*
X3621812Y22217604D01*
X3576657Y22338054D01*
X3568119Y22353649D01*
X3491618Y22455724D01*
X3479057Y22468285D01*
X3376982Y22544786D01*
X3361387Y22553324D01*
X3240939Y22598478D01*
X3225684Y22602105D01*
X3174819Y22607631D01*
X3168005Y22608000D01*
X2545448Y22608000D01*
X2530209Y22603525D01*
X2529004Y22602135D01*
X2527333Y22594452D01*
X2527333Y21522115D01*
X2019333Y21522115D01*
X2019333Y22589884D01*
X2014858Y22605123D01*
X2013468Y22606328D01*
X2005785Y22607999D01*
X1378664Y22607999D01*
X1371843Y22607629D01*
X1320981Y22602105D01*
X1305729Y22598479D01*
X1185279Y22553324D01*
X1169684Y22544786D01*
X1067609Y22468285D01*
X1055048Y22455724D01*
X978547Y22353649D01*
X970009Y22338054D01*
X924855Y22217606D01*
X921228Y22202351D01*
X915702Y22151486D01*
X915333Y22144672D01*
X915333Y21522115D01*
X-3971500Y21522115D01*
X-3971500Y22814149D01*
X37586719Y22814149D01*
X37603268Y22617066D01*
X37657783Y22426950D01*
X37748187Y22251044D01*
X37871035Y22096047D01*
X38021650Y21967864D01*
X38194294Y21871376D01*
X38382392Y21810260D01*
X38578777Y21786842D01*
X38584912Y21787314D01*
X38584914Y21787314D01*
X38769830Y21801543D01*
X38769834Y21801544D01*
X38775972Y21802016D01*
X38966463Y21855202D01*
X38971967Y21857982D01*
X38971969Y21857983D01*
X39137495Y21941596D01*
X39137497Y21941597D01*
X39142996Y21944375D01*
X39298847Y22066139D01*
X39428078Y22215855D01*
X39525769Y22387821D01*
X39588197Y22575487D01*
X39612985Y22771705D01*
X39613380Y22800000D01*
X39603575Y22900000D01*
X67246635Y22900000D01*
X67266056Y22678014D01*
X67323730Y22462773D01*
X67326052Y22457792D01*
X67326053Y22457791D01*
X67415577Y22265805D01*
X67415580Y22265800D01*
X67417903Y22260818D01*
X67421060Y22256310D01*
X67536075Y22092052D01*
X67545716Y22078283D01*
X67703283Y21920716D01*
X67885817Y21792903D01*
X67890799Y21790580D01*
X67890804Y21790577D01*
X68082791Y21701053D01*
X68087773Y21698730D01*
X68093081Y21697308D01*
X68093083Y21697307D01*
X68146989Y21682863D01*
X68303014Y21641056D01*
X68525000Y21621635D01*
X68746986Y21641056D01*
X68903011Y21682863D01*
X68956917Y21697307D01*
X68956919Y21697308D01*
X68962227Y21698730D01*
X68967209Y21701053D01*
X69159196Y21790577D01*
X69159201Y21790580D01*
X69164183Y21792903D01*
X69346717Y21920716D01*
X69504284Y22078283D01*
X69513926Y22092052D01*
X69628940Y22256310D01*
X69632097Y22260818D01*
X69634420Y22265800D01*
X69634423Y22265805D01*
X69723947Y22457791D01*
X69723948Y22457792D01*
X69726270Y22462773D01*
X69763926Y22603305D01*
X77447251Y22603305D01*
X77447548Y22598152D01*
X77447548Y22598149D01*
X77453011Y22503410D01*
X77460110Y22380285D01*
X77461247Y22375239D01*
X77461248Y22375233D01*
X77469627Y22338054D01*
X77509222Y22162361D01*
X77549346Y22063547D01*
X77589419Y21964859D01*
X77593266Y21955384D01*
X77614511Y21920716D01*
X77696102Y21787571D01*
X77709987Y21764912D01*
X77856250Y21596062D01*
X78028126Y21453368D01*
X78101955Y21410226D01*
X78150679Y21358588D01*
X78163750Y21288805D01*
X78137019Y21223033D01*
X78096562Y21189673D01*
X78088457Y21185454D01*
X78079738Y21179964D01*
X77909433Y21052095D01*
X77901726Y21045252D01*
X77754590Y20891283D01*
X77748104Y20883273D01*
X77628098Y20707351D01*
X77623000Y20698377D01*
X77533338Y20505217D01*
X77529775Y20495530D01*
X77474389Y20295817D01*
X77475912Y20287393D01*
X77488292Y20284000D01*
X80128344Y20284000D01*
X80141875Y20287973D01*
X80143180Y20297053D01*
X80101214Y20464125D01*
X80097894Y20473876D01*
X80012972Y20669186D01*
X80008105Y20678261D01*
X79892426Y20857074D01*
X79886136Y20865243D01*
X79742806Y21022760D01*
X79735273Y21029785D01*
X79568139Y21161778D01*
X79559556Y21167480D01*
X79522602Y21187880D01*
X79472631Y21238313D01*
X79457859Y21307755D01*
X79482975Y21374161D01*
X79510327Y21400768D01*
X79533797Y21417509D01*
X79689860Y21528827D01*
X79848096Y21686511D01*
X79858546Y21701053D01*
X79975435Y21863723D01*
X79978453Y21867923D01*
X80002984Y21917557D01*
X80075136Y22063547D01*
X80075137Y22063549D01*
X80077430Y22068189D01*
X80134586Y22256310D01*
X80140865Y22276977D01*
X80140865Y22276979D01*
X80142370Y22281931D01*
X80171529Y22503410D01*
X80173156Y22570000D01*
X80154852Y22792639D01*
X80100431Y23009298D01*
X80011354Y23214160D01*
X79934122Y23333543D01*
X79892822Y23397383D01*
X79892820Y23397386D01*
X79890014Y23401723D01*
X79739670Y23566949D01*
X79735619Y23570148D01*
X79735615Y23570152D01*
X79568414Y23702200D01*
X79568410Y23702202D01*
X79564359Y23705402D01*
X79523053Y23728204D01*
X79473084Y23778636D01*
X79458312Y23848079D01*
X79483428Y23914484D01*
X79510780Y23941091D01*
X79569362Y23982877D01*
X79689860Y24068827D01*
X79720086Y24098947D01*
X79844435Y24222863D01*
X79848096Y24226511D01*
X79907594Y24309311D01*
X79975435Y24403723D01*
X79978453Y24407923D01*
X80050933Y24554575D01*
X80075136Y24603547D01*
X80075137Y24603549D01*
X80077430Y24608189D01*
X80142370Y24821931D01*
X80171529Y25043410D01*
X80172618Y25087991D01*
X80173074Y25106635D01*
X80173074Y25106639D01*
X80173156Y25110000D01*
X80154852Y25332639D01*
X80100431Y25549298D01*
X80011354Y25754160D01*
X79934122Y25873543D01*
X79892822Y25937383D01*
X79892820Y25937386D01*
X79890014Y25941723D01*
X79871931Y25961596D01*
X79742798Y26103512D01*
X79711746Y26167358D01*
X79720141Y26237857D01*
X79765317Y26292625D01*
X79791761Y26306294D01*
X79898297Y26346233D01*
X79906705Y26349385D01*
X80023261Y26436739D01*
X80110615Y26553295D01*
X80161745Y26689684D01*
X80168500Y26751866D01*
X80168500Y28548134D01*
X80161745Y28610316D01*
X80110615Y28746705D01*
X80023261Y28863261D01*
X79906705Y28950615D01*
X79770316Y29001745D01*
X79708134Y29008500D01*
X77911866Y29008500D01*
X77849684Y29001745D01*
X77713295Y28950615D01*
X77596739Y28863261D01*
X77509385Y28746705D01*
X77458255Y28610316D01*
X77451500Y28548134D01*
X77451500Y26751866D01*
X77458255Y26689684D01*
X77509385Y26553295D01*
X77596739Y26436739D01*
X77713295Y26349385D01*
X77721704Y26346233D01*
X77721705Y26346232D01*
X77830451Y26305465D01*
X77887216Y26262824D01*
X77911916Y26196262D01*
X77896709Y26126913D01*
X77877316Y26100432D01*
X77868662Y26091376D01*
X77776157Y25994575D01*
X77750629Y25967862D01*
X77747715Y25963590D01*
X77747714Y25963589D01*
X77678214Y25861705D01*
X77624743Y25783320D01*
X77609003Y25749410D01*
X77545780Y25613207D01*
X77530688Y25580695D01*
X77470989Y25365430D01*
X77447251Y25143305D01*
X77447548Y25138152D01*
X77447548Y25138149D01*
X77458513Y24947983D01*
X77460110Y24920285D01*
X77461247Y24915239D01*
X77461248Y24915233D01*
X77477031Y24845202D01*
X77509222Y24702361D01*
X77593266Y24495384D01*
X77595965Y24490980D01*
X77701844Y24318201D01*
X77709987Y24304912D01*
X77856250Y24136062D01*
X78028126Y23993368D01*
X78088958Y23957821D01*
X78101445Y23950524D01*
X78150169Y23898886D01*
X78163240Y23829103D01*
X78136509Y23763331D01*
X78096055Y23729973D01*
X78083607Y23723493D01*
X78079474Y23720390D01*
X78079471Y23720388D01*
X77909100Y23592470D01*
X77904965Y23589365D01*
X77750629Y23427862D01*
X77747715Y23423590D01*
X77747714Y23423589D01*
X77744906Y23419472D01*
X77624743Y23243320D01*
X77530688Y23040695D01*
X77470989Y22825430D01*
X77447251Y22603305D01*
X69763926Y22603305D01*
X69783944Y22678014D01*
X69803365Y22900000D01*
X69783944Y23121986D01*
X69726270Y23337227D01*
X69719672Y23351376D01*
X69634423Y23534195D01*
X69634420Y23534200D01*
X69632097Y23539182D01*
X69539883Y23670877D01*
X69507443Y23717206D01*
X69507441Y23717209D01*
X69504284Y23721717D01*
X69346717Y23879284D01*
X69307207Y23906950D01*
X69242215Y23952458D01*
X69164183Y24007097D01*
X69159201Y24009420D01*
X69159196Y24009423D01*
X68967209Y24098947D01*
X68967208Y24098947D01*
X68962227Y24101270D01*
X68956919Y24102692D01*
X68956917Y24102693D01*
X68832382Y24136062D01*
X68746986Y24158944D01*
X68525000Y24178365D01*
X68303014Y24158944D01*
X68217618Y24136062D01*
X68093083Y24102693D01*
X68093081Y24102692D01*
X68087773Y24101270D01*
X68082792Y24098948D01*
X68082791Y24098947D01*
X67890805Y24009423D01*
X67890800Y24009420D01*
X67885818Y24007097D01*
X67823804Y23963674D01*
X67734961Y23901465D01*
X67703283Y23879284D01*
X67545716Y23721717D01*
X67542559Y23717209D01*
X67542557Y23717206D01*
X67510117Y23670877D01*
X67417903Y23539182D01*
X67415580Y23534200D01*
X67415577Y23534195D01*
X67330328Y23351376D01*
X67323730Y23337227D01*
X67266056Y23121986D01*
X67246635Y22900000D01*
X39603575Y22900000D01*
X39594080Y22996833D01*
X39582345Y23035703D01*
X39570162Y23076053D01*
X39536916Y23186169D01*
X39444066Y23360796D01*
X39337388Y23491596D01*
X39322960Y23509287D01*
X39322957Y23509290D01*
X39319065Y23514062D01*
X39312724Y23519308D01*
X39171425Y23636201D01*
X39171421Y23636203D01*
X39166675Y23640130D01*
X38992701Y23734198D01*
X38803768Y23792682D01*
X38797643Y23793326D01*
X38797642Y23793326D01*
X38613204Y23812711D01*
X38613202Y23812711D01*
X38607075Y23813355D01*
X38532004Y23806523D01*
X38416251Y23795989D01*
X38416248Y23795988D01*
X38410112Y23795430D01*
X38404206Y23793692D01*
X38404202Y23793691D01*
X38309623Y23765855D01*
X38220381Y23739590D01*
X38214923Y23736737D01*
X38214919Y23736735D01*
X38148861Y23702200D01*
X38045110Y23647960D01*
X37890975Y23524032D01*
X37763846Y23372526D01*
X37760879Y23367128D01*
X37760875Y23367123D01*
X37705746Y23266842D01*
X37668567Y23199213D01*
X37666706Y23193346D01*
X37666705Y23193344D01*
X37645754Y23127299D01*
X37608765Y23010694D01*
X37586719Y22814149D01*
X-3971500Y22814149D01*
X-3971500Y24364149D01*
X18916719Y24364149D01*
X18917235Y24358005D01*
X18931589Y24187066D01*
X18933268Y24167066D01*
X18937701Y24151607D01*
X18983824Y23990758D01*
X18987783Y23976950D01*
X18990602Y23971465D01*
X19063767Y23829103D01*
X19078187Y23801044D01*
X19201035Y23646047D01*
X19205728Y23642053D01*
X19205729Y23642052D01*
X19344403Y23524032D01*
X19351650Y23517864D01*
X19524294Y23421376D01*
X19712392Y23360260D01*
X19908777Y23336842D01*
X19914912Y23337314D01*
X19914914Y23337314D01*
X20099830Y23351543D01*
X20099834Y23351544D01*
X20105972Y23352016D01*
X20296463Y23405202D01*
X20301967Y23407982D01*
X20301969Y23407983D01*
X20467495Y23491596D01*
X20467497Y23491597D01*
X20472996Y23494375D01*
X20628847Y23616139D01*
X20723574Y23725882D01*
X20754049Y23761187D01*
X20754050Y23761189D01*
X20758078Y23765855D01*
X20855769Y23937821D01*
X20918197Y24125487D01*
X20939504Y24294149D01*
X29066719Y24294149D01*
X29067235Y24288005D01*
X29080368Y24131607D01*
X29083268Y24097066D01*
X29092225Y24065829D01*
X29135623Y23914484D01*
X29137783Y23906950D01*
X29154004Y23875387D01*
X29212696Y23761187D01*
X29228187Y23731044D01*
X29351035Y23576047D01*
X29355728Y23572053D01*
X29355729Y23572052D01*
X29447000Y23494375D01*
X29501650Y23447864D01*
X29674294Y23351376D01*
X29862392Y23290260D01*
X30058777Y23266842D01*
X30064912Y23267314D01*
X30064914Y23267314D01*
X30249830Y23281543D01*
X30249834Y23281544D01*
X30255972Y23282016D01*
X30446463Y23335202D01*
X30451967Y23337982D01*
X30451969Y23337983D01*
X30617495Y23421596D01*
X30617497Y23421597D01*
X30622996Y23424375D01*
X30764409Y23534859D01*
X30773991Y23542345D01*
X30778847Y23546139D01*
X30908078Y23695855D01*
X31005769Y23867821D01*
X31068197Y24055487D01*
X31092985Y24251705D01*
X31093380Y24280000D01*
X31083168Y24384149D01*
X46046719Y24384149D01*
X46049882Y24346477D01*
X46058135Y24248201D01*
X46063268Y24187066D01*
X46067242Y24173207D01*
X46115779Y24003940D01*
X46117783Y23996950D01*
X46120602Y23991465D01*
X46178256Y23879284D01*
X46208187Y23821044D01*
X46331035Y23666047D01*
X46335728Y23662053D01*
X46335729Y23662052D01*
X46466447Y23550803D01*
X46481650Y23537864D01*
X46654294Y23441376D01*
X46842392Y23380260D01*
X47038777Y23356842D01*
X47044912Y23357314D01*
X47044914Y23357314D01*
X47229830Y23371543D01*
X47229834Y23371544D01*
X47235972Y23372016D01*
X47426463Y23425202D01*
X47431967Y23427982D01*
X47431969Y23427983D01*
X47597495Y23511596D01*
X47597497Y23511597D01*
X47602996Y23514375D01*
X47758847Y23636139D01*
X47888078Y23785855D01*
X47985769Y23957821D01*
X48048197Y24145487D01*
X48072985Y24341705D01*
X48073380Y24370000D01*
X48054080Y24566833D01*
X48042996Y24603547D01*
X48024089Y24666169D01*
X47996916Y24756169D01*
X47904066Y24930796D01*
X47804933Y25052345D01*
X47782960Y25079287D01*
X47782957Y25079290D01*
X47779065Y25084062D01*
X47770827Y25090877D01*
X47631425Y25206201D01*
X47631421Y25206203D01*
X47626675Y25210130D01*
X47452701Y25304198D01*
X47263768Y25362682D01*
X47257643Y25363326D01*
X47257642Y25363326D01*
X47073204Y25382711D01*
X47073202Y25382711D01*
X47067075Y25383355D01*
X46984576Y25375847D01*
X46876251Y25365989D01*
X46876248Y25365988D01*
X46870112Y25365430D01*
X46864206Y25363692D01*
X46864202Y25363691D01*
X46787254Y25341044D01*
X46680381Y25309590D01*
X46674923Y25306737D01*
X46674919Y25306735D01*
X46609783Y25272682D01*
X46505110Y25217960D01*
X46350975Y25094032D01*
X46223846Y24942526D01*
X46220879Y24937128D01*
X46220875Y24937123D01*
X46160369Y24827061D01*
X46128567Y24769213D01*
X46126706Y24763346D01*
X46126705Y24763344D01*
X46100017Y24679213D01*
X46068765Y24580694D01*
X46046719Y24384149D01*
X31083168Y24384149D01*
X31074080Y24476833D01*
X31051164Y24552736D01*
X31034421Y24608189D01*
X31016916Y24666169D01*
X30924066Y24840796D01*
X30846768Y24935572D01*
X30802960Y24989287D01*
X30802957Y24989290D01*
X30799065Y24994062D01*
X30792724Y24999308D01*
X30651425Y25116201D01*
X30651421Y25116203D01*
X30646675Y25120130D01*
X30472701Y25214198D01*
X30283768Y25272682D01*
X30277643Y25273326D01*
X30277642Y25273326D01*
X30093204Y25292711D01*
X30093202Y25292711D01*
X30087075Y25293355D01*
X30006477Y25286020D01*
X29896251Y25275989D01*
X29896248Y25275988D01*
X29890112Y25275430D01*
X29884206Y25273692D01*
X29884202Y25273691D01*
X29791893Y25246523D01*
X29700381Y25219590D01*
X29694923Y25216737D01*
X29694919Y25216735D01*
X29628578Y25182052D01*
X29525110Y25127960D01*
X29370975Y25004032D01*
X29243846Y24852526D01*
X29240879Y24847128D01*
X29240875Y24847123D01*
X29176635Y24730269D01*
X29148567Y24679213D01*
X29146706Y24673346D01*
X29146705Y24673344D01*
X29091771Y24500171D01*
X29088765Y24490694D01*
X29066719Y24294149D01*
X20939504Y24294149D01*
X20942985Y24321705D01*
X20943264Y24341705D01*
X20943331Y24346477D01*
X20943331Y24346480D01*
X20943380Y24350000D01*
X20924080Y24546833D01*
X20916260Y24572736D01*
X20900162Y24626053D01*
X20866916Y24736169D01*
X20774066Y24910796D01*
X20675544Y25031596D01*
X20652960Y25059287D01*
X20652957Y25059290D01*
X20649065Y25064062D01*
X20642724Y25069308D01*
X20501425Y25186201D01*
X20501421Y25186203D01*
X20496675Y25190130D01*
X20322701Y25284198D01*
X20133768Y25342682D01*
X20127643Y25343326D01*
X20127642Y25343326D01*
X19943204Y25362711D01*
X19943202Y25362711D01*
X19937075Y25363355D01*
X19854576Y25355847D01*
X19746251Y25345989D01*
X19746248Y25345988D01*
X19740112Y25345430D01*
X19734206Y25343692D01*
X19734202Y25343691D01*
X19679115Y25327478D01*
X19550381Y25289590D01*
X19544923Y25286737D01*
X19544919Y25286735D01*
X19468002Y25246523D01*
X19375110Y25197960D01*
X19220975Y25074032D01*
X19217011Y25069308D01*
X19208602Y25059287D01*
X19093846Y24922526D01*
X19090879Y24917128D01*
X19090875Y24917123D01*
X19041364Y24827061D01*
X18998567Y24749213D01*
X18996706Y24743346D01*
X18996705Y24743344D01*
X18974500Y24673344D01*
X18938765Y24560694D01*
X18916719Y24364149D01*
X-3971500Y24364149D01*
X-3971500Y26774149D01*
X1596719Y26774149D01*
X1600461Y26729590D01*
X1612213Y26589635D01*
X1613268Y26577066D01*
X1622145Y26546109D01*
X1661752Y26407983D01*
X1667783Y26386950D01*
X1670602Y26381465D01*
X1742681Y26241216D01*
X1758187Y26211044D01*
X1881035Y26056047D01*
X1885728Y26052053D01*
X1885729Y26052052D01*
X2015366Y25941723D01*
X2031650Y25927864D01*
X2204294Y25831376D01*
X2392392Y25770260D01*
X2588777Y25746842D01*
X2594912Y25747314D01*
X2594914Y25747314D01*
X2779830Y25761543D01*
X2779834Y25761544D01*
X2785972Y25762016D01*
X2976463Y25815202D01*
X2981967Y25817982D01*
X2981969Y25817983D01*
X3147495Y25901596D01*
X3147497Y25901597D01*
X3152996Y25904375D01*
X3308847Y26026139D01*
X3430744Y26167358D01*
X3434049Y26171187D01*
X3434050Y26171189D01*
X3438078Y26175855D01*
X3535769Y26347821D01*
X3598197Y26535487D01*
X3622985Y26731705D01*
X3623203Y26747314D01*
X3623331Y26756477D01*
X3623331Y26756480D01*
X3623380Y26760000D01*
X3616109Y26834149D01*
X6856719Y26834149D01*
X6858203Y26816477D01*
X6871522Y26657864D01*
X6873268Y26637066D01*
X6881654Y26607821D01*
X6924866Y26457123D01*
X6927783Y26446950D01*
X6940926Y26421376D01*
X7011866Y26283344D01*
X7018187Y26271044D01*
X7141035Y26116047D01*
X7145728Y26112053D01*
X7145729Y26112052D01*
X7283765Y25994575D01*
X7291650Y25987864D01*
X7464294Y25891376D01*
X7652392Y25830260D01*
X7848777Y25806842D01*
X7854912Y25807314D01*
X7854914Y25807314D01*
X8039830Y25821543D01*
X8039834Y25821544D01*
X8045972Y25822016D01*
X8236463Y25875202D01*
X8241967Y25877982D01*
X8241969Y25877983D01*
X8293769Y25904149D01*
X25526719Y25904149D01*
X25527235Y25898005D01*
X25539314Y25754160D01*
X25543268Y25707066D01*
X25597783Y25516950D01*
X25600602Y25511465D01*
X25677067Y25362682D01*
X25688187Y25341044D01*
X25811035Y25186047D01*
X25815728Y25182053D01*
X25815729Y25182052D01*
X25942653Y25074032D01*
X25961650Y25057864D01*
X26134294Y24961376D01*
X26322392Y24900260D01*
X26518777Y24876842D01*
X26524912Y24877314D01*
X26524914Y24877314D01*
X26709830Y24891543D01*
X26709834Y24891544D01*
X26715972Y24892016D01*
X26906463Y24945202D01*
X26911967Y24947982D01*
X26911969Y24947983D01*
X27077495Y25031596D01*
X27077497Y25031597D01*
X27082996Y25034375D01*
X27238847Y25156139D01*
X27341816Y25275430D01*
X27364049Y25301187D01*
X27364050Y25301189D01*
X27368078Y25305855D01*
X27465769Y25477821D01*
X27528197Y25665487D01*
X27545714Y25804149D01*
X37696719Y25804149D01*
X37697235Y25798005D01*
X37707849Y25671607D01*
X37713268Y25607066D01*
X37767783Y25416950D01*
X37770602Y25411465D01*
X37842864Y25270860D01*
X37858187Y25241044D01*
X37981035Y25086047D01*
X37985728Y25082053D01*
X37985729Y25082052D01*
X38077403Y25004032D01*
X38131650Y24957864D01*
X38304294Y24861376D01*
X38492392Y24800260D01*
X38688777Y24776842D01*
X38694912Y24777314D01*
X38694914Y24777314D01*
X38879830Y24791543D01*
X38879834Y24791544D01*
X38885972Y24792016D01*
X39076463Y24845202D01*
X39081967Y24847982D01*
X39081969Y24847983D01*
X39247495Y24931596D01*
X39247497Y24931597D01*
X39252996Y24934375D01*
X39408847Y25056139D01*
X39524505Y25190130D01*
X39534049Y25201187D01*
X39534050Y25201189D01*
X39538078Y25205855D01*
X39635769Y25377821D01*
X39698197Y25565487D01*
X39722985Y25761705D01*
X39723380Y25790000D01*
X39704080Y25986833D01*
X39697897Y26007314D01*
X39673091Y26089472D01*
X39646916Y26176169D01*
X39554066Y26350796D01*
X39462941Y26462526D01*
X39432960Y26499287D01*
X39432957Y26499290D01*
X39429065Y26504062D01*
X39422724Y26509308D01*
X39281425Y26626201D01*
X39281421Y26626203D01*
X39276675Y26630130D01*
X39102701Y26724198D01*
X38913768Y26782682D01*
X38907643Y26783326D01*
X38907642Y26783326D01*
X38723204Y26802711D01*
X38723202Y26802711D01*
X38717075Y26803355D01*
X38634576Y26795847D01*
X38526251Y26785989D01*
X38526248Y26785988D01*
X38520112Y26785430D01*
X38514206Y26783692D01*
X38514202Y26783691D01*
X38420588Y26756139D01*
X38330381Y26729590D01*
X38324923Y26726737D01*
X38324919Y26726735D01*
X38269075Y26697540D01*
X38155110Y26637960D01*
X38000975Y26514032D01*
X37997011Y26509308D01*
X37989419Y26500260D01*
X37873846Y26362526D01*
X37870879Y26357128D01*
X37870875Y26357123D01*
X37816732Y26258635D01*
X37778567Y26189213D01*
X37776706Y26183346D01*
X37776705Y26183344D01*
X37720865Y26007314D01*
X37718765Y26000694D01*
X37696719Y25804149D01*
X27545714Y25804149D01*
X27552985Y25861705D01*
X27553380Y25890000D01*
X27534080Y26086833D01*
X27523802Y26120877D01*
X27509768Y26167358D01*
X27503644Y26187642D01*
X27503103Y26258635D01*
X27541030Y26318652D01*
X27567454Y26336524D01*
X27577494Y26341596D01*
X27582996Y26344375D01*
X27738847Y26466139D01*
X27850497Y26595487D01*
X27864049Y26611187D01*
X27864050Y26611189D01*
X27868078Y26615855D01*
X27965769Y26787821D01*
X28028197Y26975487D01*
X28052985Y27171705D01*
X28053263Y27191596D01*
X28053331Y27196477D01*
X28053331Y27196480D01*
X28053380Y27200000D01*
X28037285Y27364149D01*
X32086719Y27364149D01*
X32088977Y27337253D01*
X32102583Y27175229D01*
X32103268Y27167066D01*
X32117639Y27116950D01*
X32154557Y26988201D01*
X32157783Y26976950D01*
X32160602Y26971465D01*
X32236644Y26823505D01*
X32248187Y26801044D01*
X32371035Y26646047D01*
X32375728Y26642053D01*
X32375729Y26642052D01*
X32480019Y26553295D01*
X32521650Y26517864D01*
X32694294Y26421376D01*
X32882392Y26360260D01*
X33078777Y26336842D01*
X33084912Y26337314D01*
X33084914Y26337314D01*
X33269830Y26351543D01*
X33269834Y26351544D01*
X33275972Y26352016D01*
X33466463Y26405202D01*
X33471967Y26407982D01*
X33471969Y26407983D01*
X33637495Y26491596D01*
X33637497Y26491597D01*
X33642996Y26494375D01*
X33781336Y26602458D01*
X33793991Y26612345D01*
X33798847Y26616139D01*
X33898601Y26731705D01*
X33924049Y26761187D01*
X33924050Y26761189D01*
X33928078Y26765855D01*
X34025769Y26937821D01*
X34088197Y27125487D01*
X34112985Y27321705D01*
X34113380Y27350000D01*
X34094080Y27546833D01*
X34080285Y27592526D01*
X34061060Y27656201D01*
X34036916Y27736169D01*
X33944066Y27910796D01*
X33860970Y28012682D01*
X33822960Y28059287D01*
X33822957Y28059290D01*
X33819065Y28064062D01*
X33818960Y28064149D01*
X38046719Y28064149D01*
X38047235Y28058005D01*
X38059723Y27909287D01*
X38063268Y27867066D01*
X38079385Y27810860D01*
X38112315Y27696020D01*
X38117783Y27676950D01*
X38120602Y27671465D01*
X38190486Y27535487D01*
X38208187Y27501044D01*
X38331035Y27346047D01*
X38335728Y27342053D01*
X38335729Y27342052D01*
X38473765Y27224575D01*
X38481650Y27217864D01*
X38654294Y27121376D01*
X38842392Y27060260D01*
X39038777Y27036842D01*
X39044912Y27037314D01*
X39044914Y27037314D01*
X39229830Y27051543D01*
X39229834Y27051544D01*
X39235972Y27052016D01*
X39426463Y27105202D01*
X39431967Y27107982D01*
X39431969Y27107983D01*
X39597495Y27191596D01*
X39597497Y27191597D01*
X39602996Y27194375D01*
X39758847Y27316139D01*
X39888078Y27465855D01*
X39985769Y27637821D01*
X40048197Y27825487D01*
X40072985Y28021705D01*
X40073380Y28050000D01*
X40054080Y28246833D01*
X40043684Y28281268D01*
X40026494Y28338201D01*
X39996916Y28436169D01*
X39904066Y28610796D01*
X39800317Y28738005D01*
X39795306Y28744149D01*
X45076719Y28744149D01*
X45080461Y28699590D01*
X45088617Y28602460D01*
X45093268Y28547066D01*
X45147783Y28356950D01*
X45150602Y28351465D01*
X45231479Y28194097D01*
X45238187Y28181044D01*
X45342051Y28050000D01*
X45346092Y28044901D01*
X45372729Y27979091D01*
X45357761Y27905937D01*
X45348567Y27889213D01*
X45346703Y27883338D01*
X45346702Y27883335D01*
X45304808Y27751268D01*
X45288765Y27700694D01*
X45266719Y27504149D01*
X45269245Y27474062D01*
X45282115Y27320803D01*
X45283268Y27307066D01*
X45291837Y27277184D01*
X45335652Y27124382D01*
X45337783Y27116950D01*
X45343821Y27105202D01*
X45420073Y26956833D01*
X45428187Y26941044D01*
X45551035Y26786047D01*
X45555728Y26782053D01*
X45555729Y26782052D01*
X45664262Y26689684D01*
X45701650Y26657864D01*
X45874294Y26561376D01*
X46062392Y26500260D01*
X46258777Y26476842D01*
X46264912Y26477314D01*
X46264914Y26477314D01*
X46449830Y26491543D01*
X46449834Y26491544D01*
X46455972Y26492016D01*
X46646463Y26545202D01*
X46651967Y26547982D01*
X46651969Y26547983D01*
X46817495Y26631596D01*
X46817497Y26631597D01*
X46822996Y26634375D01*
X46967552Y26747314D01*
X46973991Y26752345D01*
X46978847Y26756139D01*
X47072489Y26864624D01*
X47104049Y26901187D01*
X47104050Y26901189D01*
X47108078Y26905855D01*
X47180960Y27034149D01*
X61566719Y27034149D01*
X61568173Y27016833D01*
X61577042Y26911216D01*
X61583268Y26837066D01*
X61604313Y26763674D01*
X61623277Y26697540D01*
X61637783Y26646950D01*
X61657893Y26607821D01*
X61724965Y26477314D01*
X61728187Y26471044D01*
X61851035Y26316047D01*
X61855728Y26312053D01*
X61855729Y26312052D01*
X61974414Y26211044D01*
X62001650Y26187864D01*
X62174294Y26091376D01*
X62362392Y26030260D01*
X62558777Y26006842D01*
X62564912Y26007314D01*
X62564914Y26007314D01*
X62749830Y26021543D01*
X62749834Y26021544D01*
X62755972Y26022016D01*
X62946463Y26075202D01*
X62951967Y26077982D01*
X62951969Y26077983D01*
X63117495Y26161596D01*
X63117497Y26161597D01*
X63122996Y26164375D01*
X63278847Y26286139D01*
X63408078Y26435855D01*
X63505769Y26607821D01*
X63568197Y26795487D01*
X63592985Y26991705D01*
X63593380Y27020000D01*
X63574080Y27216833D01*
X63559391Y27265487D01*
X63542692Y27320796D01*
X63516916Y27406169D01*
X63424066Y27580796D01*
X63333967Y27691268D01*
X63302960Y27729287D01*
X63302957Y27729290D01*
X63299065Y27734062D01*
X63292724Y27739308D01*
X63250609Y27774149D01*
X69606719Y27774149D01*
X69607235Y27768005D01*
X69622554Y27585572D01*
X69623268Y27577066D01*
X69640156Y27518171D01*
X69674829Y27397253D01*
X69677783Y27386950D01*
X69768187Y27211044D01*
X69891035Y27056047D01*
X69895728Y27052053D01*
X69895729Y27052052D01*
X70029951Y26937821D01*
X70041650Y26927864D01*
X70214294Y26831376D01*
X70402392Y26770260D01*
X70598777Y26746842D01*
X70604912Y26747314D01*
X70604914Y26747314D01*
X70789830Y26761543D01*
X70789834Y26761544D01*
X70795972Y26762016D01*
X70986463Y26815202D01*
X70991967Y26817982D01*
X70991969Y26817983D01*
X71157495Y26901596D01*
X71157497Y26901597D01*
X71162996Y26904375D01*
X71307234Y27017066D01*
X71313991Y27022345D01*
X71318847Y27026139D01*
X71440492Y27167066D01*
X71444049Y27171187D01*
X71444050Y27171189D01*
X71448078Y27175855D01*
X71545769Y27347821D01*
X71608197Y27535487D01*
X71632985Y27731705D01*
X71633324Y27755989D01*
X71633331Y27756477D01*
X71633331Y27756480D01*
X71633380Y27760000D01*
X71614080Y27956833D01*
X71596389Y28015430D01*
X71558902Y28139590D01*
X71556916Y28146169D01*
X71464066Y28320796D01*
X71364118Y28443344D01*
X71342960Y28469287D01*
X71342957Y28469290D01*
X71339065Y28474062D01*
X71332724Y28479308D01*
X71191425Y28596201D01*
X71191421Y28596203D01*
X71186675Y28600130D01*
X71012701Y28694198D01*
X70823768Y28752682D01*
X70817643Y28753326D01*
X70817642Y28753326D01*
X70633204Y28772711D01*
X70633202Y28772711D01*
X70627075Y28773355D01*
X70568047Y28767983D01*
X70436251Y28755989D01*
X70436248Y28755988D01*
X70430112Y28755430D01*
X70424206Y28753692D01*
X70424202Y28753691D01*
X70319076Y28722751D01*
X70240381Y28699590D01*
X70234923Y28696737D01*
X70234919Y28696735D01*
X70144147Y28649280D01*
X70065110Y28607960D01*
X69910975Y28484032D01*
X69783846Y28332526D01*
X69780879Y28327128D01*
X69780875Y28327123D01*
X69707521Y28193691D01*
X69688567Y28159213D01*
X69686706Y28153346D01*
X69686705Y28153344D01*
X69642289Y28013326D01*
X69628765Y27970694D01*
X69606719Y27774149D01*
X63250609Y27774149D01*
X63151425Y27856201D01*
X63151421Y27856203D01*
X63146675Y27860130D01*
X62972701Y27954198D01*
X62783768Y28012682D01*
X62777643Y28013326D01*
X62777642Y28013326D01*
X62593204Y28032711D01*
X62593202Y28032711D01*
X62587075Y28033355D01*
X62504576Y28025847D01*
X62396251Y28015989D01*
X62396248Y28015988D01*
X62390112Y28015430D01*
X62384206Y28013692D01*
X62384202Y28013691D01*
X62302555Y27989661D01*
X62200381Y27959590D01*
X62194923Y27956737D01*
X62194919Y27956735D01*
X62116183Y27915572D01*
X62025110Y27867960D01*
X61870975Y27744032D01*
X61743846Y27592526D01*
X61740879Y27587128D01*
X61740875Y27587123D01*
X61684201Y27484032D01*
X61648567Y27419213D01*
X61646706Y27413346D01*
X61646705Y27413344D01*
X61599802Y27265487D01*
X61588765Y27230694D01*
X61566719Y27034149D01*
X47180960Y27034149D01*
X47205769Y27077821D01*
X47268197Y27265487D01*
X47268970Y27271607D01*
X47270334Y27277610D01*
X47272207Y27277184D01*
X47297025Y27334087D01*
X47356086Y27373488D01*
X47408567Y27378331D01*
X47465493Y27371543D01*
X47588777Y27356842D01*
X47594912Y27357314D01*
X47594914Y27357314D01*
X47779830Y27371543D01*
X47779834Y27371544D01*
X47785972Y27372016D01*
X47976463Y27425202D01*
X47981967Y27427982D01*
X47981969Y27427983D01*
X48147495Y27511596D01*
X48147497Y27511597D01*
X48152996Y27514375D01*
X48308847Y27636139D01*
X48410315Y27753691D01*
X48434049Y27781187D01*
X48434050Y27781189D01*
X48438078Y27785855D01*
X48535769Y27957821D01*
X48598197Y28145487D01*
X48622985Y28341705D01*
X48623278Y28362711D01*
X48623331Y28366477D01*
X48623331Y28366480D01*
X48623380Y28370000D01*
X48604080Y28566833D01*
X48546916Y28756169D01*
X48454066Y28930796D01*
X48360117Y29045989D01*
X48332960Y29079287D01*
X48332957Y29079290D01*
X48329065Y29084062D01*
X48289441Y29116842D01*
X48181425Y29206201D01*
X48181421Y29206203D01*
X48176675Y29210130D01*
X48004800Y29303063D01*
X47954391Y29353058D01*
X47939014Y29422369D01*
X47963550Y29488991D01*
X48020210Y29531772D01*
X48030844Y29535257D01*
X48060522Y29543543D01*
X48060524Y29543544D01*
X48066463Y29545202D01*
X48071967Y29547982D01*
X48071969Y29547983D01*
X48237495Y29631596D01*
X48237497Y29631597D01*
X48242996Y29634375D01*
X48398847Y29756139D01*
X48522709Y29899635D01*
X48524049Y29901187D01*
X48524050Y29901189D01*
X48528078Y29905855D01*
X48595279Y30024149D01*
X49586719Y30024149D01*
X49587235Y30018005D01*
X49598515Y29883674D01*
X49603268Y29827066D01*
X49623606Y29756139D01*
X49652648Y29654859D01*
X49657783Y29636950D01*
X49660602Y29631465D01*
X49728033Y29500260D01*
X49748187Y29461044D01*
X49871035Y29306047D01*
X49875728Y29302053D01*
X49875729Y29302052D01*
X49996261Y29199472D01*
X50021650Y29177864D01*
X50194294Y29081376D01*
X50382392Y29020260D01*
X50578777Y28996842D01*
X50584912Y28997314D01*
X50584914Y28997314D01*
X50769830Y29011543D01*
X50769834Y29011544D01*
X50775972Y29012016D01*
X50966463Y29065202D01*
X50971967Y29067982D01*
X50971969Y29067983D01*
X51137495Y29151596D01*
X51137497Y29151597D01*
X51142996Y29154375D01*
X51298847Y29276139D01*
X51428078Y29425855D01*
X51525769Y29597821D01*
X51588197Y29785487D01*
X51612985Y29981705D01*
X51613380Y30010000D01*
X51594080Y30206833D01*
X51584619Y30238171D01*
X51567912Y30293505D01*
X51536916Y30396169D01*
X51444066Y30570796D01*
X51358126Y30676169D01*
X51322960Y30719287D01*
X51322957Y30719290D01*
X51319065Y30724062D01*
X51312724Y30729308D01*
X51171425Y30846201D01*
X51171421Y30846203D01*
X51166675Y30850130D01*
X50992701Y30944198D01*
X50803768Y31002682D01*
X50797643Y31003326D01*
X50797642Y31003326D01*
X50613204Y31022711D01*
X50613202Y31022711D01*
X50607075Y31023355D01*
X50547091Y31017896D01*
X50416251Y31005989D01*
X50416248Y31005988D01*
X50410112Y31005430D01*
X50404206Y31003692D01*
X50404202Y31003691D01*
X50326469Y30980813D01*
X50220381Y30949590D01*
X50214923Y30946737D01*
X50214919Y30946735D01*
X50127709Y30901142D01*
X50045110Y30857960D01*
X49890975Y30734032D01*
X49887011Y30729308D01*
X49878602Y30719287D01*
X49763846Y30582526D01*
X49760879Y30577128D01*
X49760875Y30577123D01*
X49682211Y30434032D01*
X49668567Y30409213D01*
X49666706Y30403346D01*
X49666705Y30403344D01*
X49621118Y30259635D01*
X49608765Y30220694D01*
X49586719Y30024149D01*
X48595279Y30024149D01*
X48625769Y30077821D01*
X48688197Y30265487D01*
X48712985Y30461705D01*
X48713380Y30490000D01*
X48694080Y30686833D01*
X48689101Y30703326D01*
X48648051Y30839287D01*
X48636916Y30876169D01*
X48544066Y31050796D01*
X48469102Y31142711D01*
X48422960Y31199287D01*
X48422957Y31199290D01*
X48419065Y31204062D01*
X48412724Y31209308D01*
X48271425Y31326201D01*
X48271421Y31326203D01*
X48266675Y31330130D01*
X48092701Y31424198D01*
X47903768Y31482682D01*
X47897643Y31483326D01*
X47897642Y31483326D01*
X47713204Y31502711D01*
X47713202Y31502711D01*
X47707075Y31503355D01*
X47624576Y31495847D01*
X47516251Y31485989D01*
X47516248Y31485988D01*
X47510112Y31485430D01*
X47504206Y31483692D01*
X47504202Y31483691D01*
X47399076Y31452751D01*
X47320381Y31429590D01*
X47314923Y31426737D01*
X47314919Y31426735D01*
X47224147Y31379280D01*
X47145110Y31337960D01*
X46990975Y31214032D01*
X46863846Y31062526D01*
X46860879Y31057128D01*
X46860875Y31057123D01*
X46813051Y30970130D01*
X46768567Y30889213D01*
X46766706Y30883346D01*
X46766705Y30883344D01*
X46715802Y30722877D01*
X46708765Y30700694D01*
X46686719Y30504149D01*
X46687235Y30498005D01*
X46698756Y30360803D01*
X46703268Y30307066D01*
X46718238Y30254859D01*
X46751746Y30138005D01*
X46757783Y30116950D01*
X46848187Y29941044D01*
X46971035Y29786047D01*
X46975728Y29782053D01*
X46975729Y29782052D01*
X47114208Y29664198D01*
X47121650Y29657864D01*
X47127027Y29654859D01*
X47285661Y29566201D01*
X47294294Y29561376D01*
X47297362Y29560379D01*
X47350998Y29515430D01*
X47372120Y29447648D01*
X47353243Y29379207D01*
X47300362Y29331836D01*
X47281711Y29324697D01*
X47236296Y29311331D01*
X47236295Y29311330D01*
X47230381Y29309590D01*
X47224920Y29306735D01*
X47224915Y29306733D01*
X47101192Y29242052D01*
X47031557Y29228218D01*
X46965496Y29254228D01*
X46937871Y29283984D01*
X46936955Y29285363D01*
X46934066Y29290796D01*
X46928337Y29297821D01*
X46812960Y29439287D01*
X46812957Y29439290D01*
X46809065Y29444062D01*
X46802724Y29449308D01*
X46661425Y29566201D01*
X46661421Y29566203D01*
X46656675Y29570130D01*
X46482701Y29664198D01*
X46293768Y29722682D01*
X46287643Y29723326D01*
X46287642Y29723326D01*
X46103204Y29742711D01*
X46103202Y29742711D01*
X46097075Y29743355D01*
X46014576Y29735847D01*
X45906251Y29725989D01*
X45906248Y29725988D01*
X45900112Y29725430D01*
X45894206Y29723692D01*
X45894202Y29723691D01*
X45817740Y29701187D01*
X45710381Y29669590D01*
X45704923Y29666737D01*
X45704919Y29666735D01*
X45637455Y29631465D01*
X45535110Y29577960D01*
X45380975Y29454032D01*
X45253846Y29302526D01*
X45250879Y29297128D01*
X45250875Y29297123D01*
X45197192Y29199472D01*
X45158567Y29129213D01*
X45156706Y29123346D01*
X45156705Y29123344D01*
X45116726Y28997314D01*
X45098765Y28940694D01*
X45076719Y28744149D01*
X39795306Y28744149D01*
X39782960Y28759287D01*
X39782957Y28759290D01*
X39779065Y28764062D01*
X39772724Y28769308D01*
X39631425Y28886201D01*
X39631421Y28886203D01*
X39626675Y28890130D01*
X39452701Y28984198D01*
X39263768Y29042682D01*
X39257643Y29043326D01*
X39257642Y29043326D01*
X39073204Y29062711D01*
X39073202Y29062711D01*
X39067075Y29063355D01*
X38984576Y29055847D01*
X38876251Y29045989D01*
X38876248Y29045988D01*
X38870112Y29045430D01*
X38864206Y29043692D01*
X38864202Y29043691D01*
X38784590Y29020260D01*
X38680381Y28989590D01*
X38674923Y28986737D01*
X38674919Y28986735D01*
X38611858Y28953767D01*
X38505110Y28897960D01*
X38350975Y28774032D01*
X38223846Y28622526D01*
X38220879Y28617128D01*
X38220875Y28617123D01*
X38181070Y28544717D01*
X38128567Y28449213D01*
X38126706Y28443346D01*
X38126705Y28443344D01*
X38078483Y28291330D01*
X38068765Y28260694D01*
X38046719Y28064149D01*
X33818960Y28064149D01*
X33811556Y28070274D01*
X33671425Y28186201D01*
X33671421Y28186203D01*
X33666675Y28190130D01*
X33492701Y28284198D01*
X33303768Y28342682D01*
X33297643Y28343326D01*
X33297642Y28343326D01*
X33113204Y28362711D01*
X33113202Y28362711D01*
X33107075Y28363355D01*
X33036696Y28356950D01*
X32916251Y28345989D01*
X32916248Y28345988D01*
X32910112Y28345430D01*
X32904206Y28343692D01*
X32904202Y28343691D01*
X32807924Y28315355D01*
X32720381Y28289590D01*
X32714923Y28286737D01*
X32714919Y28286735D01*
X32665108Y28260694D01*
X32545110Y28197960D01*
X32390975Y28074032D01*
X32263846Y27922526D01*
X32260879Y27917128D01*
X32260875Y27917123D01*
X32191658Y27791216D01*
X32168567Y27749213D01*
X32166706Y27743346D01*
X32166705Y27743344D01*
X32113416Y27575355D01*
X32108765Y27560694D01*
X32086719Y27364149D01*
X28037285Y27364149D01*
X28034080Y27396833D01*
X28031262Y27406169D01*
X28001679Y27504149D01*
X27976916Y27586169D01*
X27884066Y27760796D01*
X27792386Y27873207D01*
X27762960Y27909287D01*
X27762957Y27909290D01*
X27759065Y27914062D01*
X27748834Y27922526D01*
X27611425Y28036201D01*
X27611421Y28036203D01*
X27606675Y28040130D01*
X27432701Y28134198D01*
X27243768Y28192682D01*
X27237643Y28193326D01*
X27237642Y28193326D01*
X27053204Y28212711D01*
X27053202Y28212711D01*
X27047075Y28213355D01*
X26964576Y28205847D01*
X26856251Y28195989D01*
X26856248Y28195988D01*
X26850112Y28195430D01*
X26844206Y28193692D01*
X26844202Y28193691D01*
X26745386Y28164608D01*
X26660381Y28139590D01*
X26654923Y28136737D01*
X26654919Y28136735D01*
X26564147Y28089280D01*
X26485110Y28047960D01*
X26330975Y27924032D01*
X26203846Y27772526D01*
X26200879Y27767128D01*
X26200875Y27767123D01*
X26142056Y27660130D01*
X26108567Y27599213D01*
X26106706Y27593346D01*
X26106705Y27593344D01*
X26067964Y27471216D01*
X26048765Y27410694D01*
X26026719Y27214149D01*
X26027907Y27200000D01*
X26042124Y27030694D01*
X26043268Y27017066D01*
X26063496Y26946523D01*
X26076960Y26899568D01*
X26076509Y26828573D01*
X26037747Y26769092D01*
X26014217Y26753177D01*
X25990574Y26740817D01*
X25990571Y26740815D01*
X25985110Y26737960D01*
X25980305Y26734097D01*
X25980304Y26734096D01*
X25964349Y26721268D01*
X25830975Y26614032D01*
X25703846Y26462526D01*
X25700879Y26457128D01*
X25700875Y26457123D01*
X25634751Y26336842D01*
X25608567Y26289213D01*
X25606706Y26283346D01*
X25606705Y26283344D01*
X25570170Y26168171D01*
X25548765Y26100694D01*
X25526719Y25904149D01*
X8293769Y25904149D01*
X8407495Y25961596D01*
X8407497Y25961597D01*
X8412996Y25964375D01*
X8568847Y26086139D01*
X8698078Y26235855D01*
X8795769Y26407821D01*
X8858197Y26595487D01*
X8882985Y26791705D01*
X8883380Y26820000D01*
X8864080Y27016833D01*
X8861271Y27026139D01*
X8833042Y27119635D01*
X8806916Y27206169D01*
X8714066Y27380796D01*
X8619931Y27496217D01*
X8592960Y27529287D01*
X8592957Y27529290D01*
X8589065Y27534062D01*
X8582724Y27539308D01*
X8441425Y27656201D01*
X8441421Y27656203D01*
X8436675Y27660130D01*
X8262701Y27754198D01*
X8073768Y27812682D01*
X8067643Y27813326D01*
X8067642Y27813326D01*
X7883204Y27832711D01*
X7883202Y27832711D01*
X7877075Y27833355D01*
X7794576Y27825847D01*
X7686251Y27815989D01*
X7686248Y27815988D01*
X7680112Y27815430D01*
X7674206Y27813692D01*
X7674202Y27813691D01*
X7579623Y27785855D01*
X7490381Y27759590D01*
X7484923Y27756737D01*
X7484919Y27756735D01*
X7394147Y27709280D01*
X7315110Y27667960D01*
X7160975Y27544032D01*
X7033846Y27392526D01*
X7030879Y27387128D01*
X7030875Y27387123D01*
X6964006Y27265487D01*
X6938567Y27219213D01*
X6936706Y27213346D01*
X6936705Y27213344D01*
X6880865Y27037314D01*
X6878765Y27030694D01*
X6856719Y26834149D01*
X3616109Y26834149D01*
X3604080Y26956833D01*
X3599663Y26971465D01*
X3575485Y27051543D01*
X3546916Y27146169D01*
X3454066Y27320796D01*
X3373799Y27419213D01*
X3332960Y27469287D01*
X3332957Y27469290D01*
X3329065Y27474062D01*
X3322724Y27479308D01*
X3181425Y27596201D01*
X3181421Y27596203D01*
X3176675Y27600130D01*
X3002701Y27694198D01*
X2813768Y27752682D01*
X2807643Y27753326D01*
X2807642Y27753326D01*
X2623204Y27772711D01*
X2623202Y27772711D01*
X2617075Y27773355D01*
X2548597Y27767123D01*
X2426251Y27755989D01*
X2426248Y27755988D01*
X2420112Y27755430D01*
X2414206Y27753692D01*
X2414202Y27753691D01*
X2339500Y27731705D01*
X2230381Y27699590D01*
X2224923Y27696737D01*
X2224919Y27696735D01*
X2160508Y27663061D01*
X2055110Y27607960D01*
X1900975Y27484032D01*
X1773846Y27332526D01*
X1770879Y27327128D01*
X1770875Y27327123D01*
X1700990Y27200000D01*
X1678567Y27159213D01*
X1676706Y27153346D01*
X1676705Y27153344D01*
X1620627Y26976564D01*
X1618765Y26970694D01*
X1596719Y26774149D01*
X-3971500Y26774149D01*
X-3971500Y30304149D01*
X-3473281Y30304149D01*
X-3472765Y30298005D01*
X-3457365Y30114608D01*
X-3456732Y30107066D01*
X-3450024Y30083674D01*
X-3419780Y29978201D01*
X-3402217Y29916950D01*
X-3311813Y29741044D01*
X-3188965Y29586047D01*
X-3184272Y29582053D01*
X-3184271Y29582052D01*
X-3048524Y29466523D01*
X-3038350Y29457864D01*
X-2865706Y29361376D01*
X-2677608Y29300260D01*
X-2481223Y29276842D01*
X-2475088Y29277314D01*
X-2475086Y29277314D01*
X-2290170Y29291543D01*
X-2290166Y29291544D01*
X-2284028Y29292016D01*
X-2093537Y29345202D01*
X-2088033Y29347982D01*
X-2088031Y29347983D01*
X-1922505Y29431596D01*
X-1922503Y29431597D01*
X-1917004Y29434375D01*
X-1761153Y29556139D01*
X-1631922Y29705855D01*
X-1621529Y29724149D01*
X20696719Y29724149D01*
X20697235Y29718005D01*
X20711512Y29547983D01*
X20713268Y29527066D01*
X20731966Y29461857D01*
X20765417Y29345202D01*
X20767783Y29336950D01*
X20786639Y29300260D01*
X20849543Y29177864D01*
X20858187Y29161044D01*
X20981035Y29006047D01*
X20985728Y29002053D01*
X20985729Y29002052D01*
X21113794Y28893061D01*
X21131650Y28877864D01*
X21304294Y28781376D01*
X21492392Y28720260D01*
X21688777Y28696842D01*
X21694912Y28697314D01*
X21694914Y28697314D01*
X21879830Y28711543D01*
X21879834Y28711544D01*
X21885972Y28712016D01*
X22076463Y28765202D01*
X22081967Y28767982D01*
X22081969Y28767983D01*
X22247495Y28851596D01*
X22247497Y28851597D01*
X22252996Y28854375D01*
X22408847Y28976139D01*
X22530706Y29117314D01*
X22534049Y29121187D01*
X22534050Y29121189D01*
X22538078Y29125855D01*
X22635769Y29297821D01*
X22698197Y29485487D01*
X22722985Y29681705D01*
X22723380Y29710000D01*
X22704080Y29906833D01*
X22701026Y29916950D01*
X22656179Y30065487D01*
X22646916Y30096169D01*
X22554066Y30270796D01*
X22463328Y30382052D01*
X22432960Y30419287D01*
X22432957Y30419290D01*
X22429065Y30424062D01*
X22422724Y30429308D01*
X22281425Y30546201D01*
X22281421Y30546203D01*
X22276675Y30550130D01*
X22102701Y30644198D01*
X21913768Y30702682D01*
X21907643Y30703326D01*
X21907642Y30703326D01*
X21723204Y30722711D01*
X21723202Y30722711D01*
X21717075Y30723355D01*
X21646696Y30716950D01*
X21526251Y30705989D01*
X21526248Y30705988D01*
X21520112Y30705430D01*
X21514206Y30703692D01*
X21514202Y30703691D01*
X21436082Y30680699D01*
X21330381Y30649590D01*
X21324923Y30646737D01*
X21324919Y30646735D01*
X21234147Y30599280D01*
X21155110Y30557960D01*
X21000975Y30434032D01*
X20873846Y30282526D01*
X20870879Y30277128D01*
X20870875Y30277123D01*
X20808896Y30164382D01*
X20778567Y30109213D01*
X20776706Y30103346D01*
X20776705Y30103344D01*
X20725220Y29941044D01*
X20718765Y29920694D01*
X20696719Y29724149D01*
X-1621529Y29724149D01*
X-1534231Y29877821D01*
X-1471803Y30065487D01*
X-1447015Y30261705D01*
X-1446620Y30290000D01*
X-1465920Y30486833D01*
X-1483941Y30546523D01*
X-1493180Y30577123D01*
X-1523084Y30676169D01*
X-1615934Y30850796D01*
X-1694180Y30946735D01*
X-1737040Y30999287D01*
X-1737043Y30999290D01*
X-1740935Y31004062D01*
X-1747276Y31009308D01*
X-1861919Y31104149D01*
X37446719Y31104149D01*
X37447235Y31098005D01*
X37457973Y30970130D01*
X37463268Y30907066D01*
X37474684Y30867253D01*
X37515744Y30724062D01*
X37517783Y30716950D01*
X37520602Y30711465D01*
X37601479Y30554097D01*
X37608187Y30541044D01*
X37731035Y30386047D01*
X37735728Y30382053D01*
X37735729Y30382052D01*
X37859021Y30277123D01*
X37881650Y30257864D01*
X38054294Y30161376D01*
X38242392Y30100260D01*
X38438777Y30076842D01*
X38444912Y30077314D01*
X38444914Y30077314D01*
X38629830Y30091543D01*
X38629834Y30091544D01*
X38635972Y30092016D01*
X38822692Y30144149D01*
X42986719Y30144149D01*
X42987235Y30138005D01*
X43000654Y29978201D01*
X43003268Y29947066D01*
X43013548Y29911216D01*
X43049440Y29786047D01*
X43057783Y29756950D01*
X43076331Y29720860D01*
X43118828Y29638171D01*
X43148187Y29581044D01*
X43271035Y29426047D01*
X43275728Y29422053D01*
X43275729Y29422052D01*
X43416598Y29302164D01*
X43421650Y29297864D01*
X43594294Y29201376D01*
X43782392Y29140260D01*
X43978777Y29116842D01*
X43984912Y29117314D01*
X43984914Y29117314D01*
X44169830Y29131543D01*
X44169834Y29131544D01*
X44175972Y29132016D01*
X44366463Y29185202D01*
X44371967Y29187982D01*
X44371969Y29187983D01*
X44537495Y29271596D01*
X44537497Y29271597D01*
X44542996Y29274375D01*
X44698847Y29396139D01*
X44801816Y29515430D01*
X44824049Y29541187D01*
X44824050Y29541189D01*
X44828078Y29545855D01*
X44925769Y29717821D01*
X44988197Y29905487D01*
X45012985Y30101705D01*
X45013380Y30130000D01*
X44994080Y30326833D01*
X44986378Y30352345D01*
X44964725Y30424062D01*
X44936916Y30516169D01*
X44844066Y30690796D01*
X44773709Y30777062D01*
X44722960Y30839287D01*
X44722957Y30839290D01*
X44719065Y30844062D01*
X44708187Y30853061D01*
X44571425Y30966201D01*
X44571421Y30966203D01*
X44566675Y30970130D01*
X44392701Y31064198D01*
X44203768Y31122682D01*
X44197643Y31123326D01*
X44197642Y31123326D01*
X44013204Y31142711D01*
X44013202Y31142711D01*
X44007075Y31143355D01*
X43924576Y31135847D01*
X43816251Y31125989D01*
X43816248Y31125988D01*
X43810112Y31125430D01*
X43804206Y31123692D01*
X43804202Y31123691D01*
X43737804Y31104149D01*
X43620381Y31069590D01*
X43614923Y31066737D01*
X43614919Y31066735D01*
X43531942Y31023355D01*
X43445110Y30977960D01*
X43290975Y30854032D01*
X43163846Y30702526D01*
X43160879Y30697128D01*
X43160875Y30697123D01*
X43094053Y30575572D01*
X43068567Y30529213D01*
X43066706Y30523346D01*
X43066705Y30523344D01*
X43015144Y30360803D01*
X43008765Y30340694D01*
X42986719Y30144149D01*
X38822692Y30144149D01*
X38826463Y30145202D01*
X38831967Y30147982D01*
X38831969Y30147983D01*
X38997495Y30231596D01*
X38997497Y30231597D01*
X39002996Y30234375D01*
X39158847Y30356139D01*
X39266364Y30480699D01*
X39284049Y30501187D01*
X39284050Y30501189D01*
X39288078Y30505855D01*
X39385769Y30677821D01*
X39448197Y30865487D01*
X39472985Y31061705D01*
X39473380Y31090000D01*
X39454080Y31286833D01*
X39449261Y31302796D01*
X39430162Y31366053D01*
X39396916Y31476169D01*
X39304066Y31650796D01*
X39233709Y31737062D01*
X39182960Y31799287D01*
X39182957Y31799290D01*
X39179065Y31804062D01*
X39172724Y31809308D01*
X39031425Y31926201D01*
X39031421Y31926203D01*
X39026675Y31930130D01*
X38852701Y32024198D01*
X38663768Y32082682D01*
X38657643Y32083326D01*
X38657642Y32083326D01*
X38473204Y32102711D01*
X38473202Y32102711D01*
X38467075Y32103355D01*
X38384576Y32095847D01*
X38276251Y32085989D01*
X38276248Y32085988D01*
X38270112Y32085430D01*
X38264206Y32083692D01*
X38264202Y32083691D01*
X38159076Y32052751D01*
X38080381Y32029590D01*
X38074923Y32026737D01*
X38074919Y32026735D01*
X37984147Y31979280D01*
X37905110Y31937960D01*
X37750975Y31814032D01*
X37623846Y31662526D01*
X37620879Y31657128D01*
X37620875Y31657123D01*
X37617397Y31650796D01*
X37528567Y31489213D01*
X37526706Y31483346D01*
X37526705Y31483344D01*
X37479361Y31334097D01*
X37468765Y31300694D01*
X37446719Y31104149D01*
X-1861919Y31104149D01*
X-1888575Y31126201D01*
X-1888579Y31126203D01*
X-1893325Y31130130D01*
X-2067299Y31224198D01*
X-2256232Y31282682D01*
X-2262357Y31283326D01*
X-2262358Y31283326D01*
X-2446796Y31302711D01*
X-2446798Y31302711D01*
X-2452925Y31303355D01*
X-2535424Y31295847D01*
X-2643749Y31285989D01*
X-2643752Y31285988D01*
X-2649888Y31285430D01*
X-2655794Y31283692D01*
X-2655798Y31283691D01*
X-2760924Y31252751D01*
X-2839619Y31229590D01*
X-2845077Y31226737D01*
X-2845081Y31226735D01*
X-2897583Y31199287D01*
X-3014890Y31137960D01*
X-3169025Y31014032D01*
X-3296154Y30862526D01*
X-3299121Y30857128D01*
X-3299125Y30857123D01*
X-3366794Y30734032D01*
X-3391433Y30689213D01*
X-3393294Y30683346D01*
X-3393295Y30683344D01*
X-3440477Y30534608D01*
X-3451235Y30500694D01*
X-3473281Y30304149D01*
X-3971500Y30304149D01*
X-3971500Y33935349D01*
X-3951498Y34003470D01*
X-3897842Y34049963D01*
X-3827568Y34060067D01*
X-3784026Y34045335D01*
X-3768922Y34036893D01*
X-3602020Y33964668D01*
X-3589917Y33960829D01*
X-3410400Y33923325D01*
X-3400848Y33922085D01*
X-3397616Y33922000D01*
X-3127115Y33922000D01*
X-3111876Y33926475D01*
X-3110671Y33927865D01*
X-3109000Y33935548D01*
X-3109000Y34000699D01*
X-3088998Y34068820D01*
X-3035342Y34115313D01*
X-2965068Y34125417D01*
X-2957023Y34123858D01*
X-2954843Y34123526D01*
X-2949390Y34122192D01*
X-2943788Y34121844D01*
X-2943785Y34121844D01*
X-2940175Y34121620D01*
X-2940165Y34121620D01*
X-2938236Y34121500D01*
X-2810707Y34121500D01*
X-2741591Y34129558D01*
X-2671612Y34117579D01*
X-2619219Y34069669D01*
X-2601000Y34004406D01*
X-2601000Y33940115D01*
X-2596525Y33924876D01*
X-2595135Y33923671D01*
X-2587452Y33922000D01*
X-2359553Y33922000D01*
X-2353178Y33922323D01*
X-2217723Y33936082D01*
X-2205283Y33938636D01*
X-2031756Y33993016D01*
X-2020068Y33998025D01*
X-1936859Y34044149D01*
X12626719Y34044149D01*
X12627235Y34038005D01*
X12640167Y33884000D01*
X12643268Y33847066D01*
X12644967Y33841142D01*
X12683906Y33705346D01*
X12697783Y33656950D01*
X12700602Y33651465D01*
X12736918Y33580803D01*
X12788187Y33481044D01*
X12911035Y33326047D01*
X12915728Y33322053D01*
X12915729Y33322052D01*
X13048978Y33208649D01*
X13061650Y33197864D01*
X13234294Y33101376D01*
X13422392Y33040260D01*
X13618777Y33016842D01*
X13624912Y33017314D01*
X13624914Y33017314D01*
X13809830Y33031543D01*
X13809834Y33031544D01*
X13815972Y33032016D01*
X14006463Y33085202D01*
X14011967Y33087982D01*
X14011969Y33087983D01*
X14177495Y33171596D01*
X14177497Y33171597D01*
X14182996Y33174375D01*
X14338847Y33296139D01*
X14468078Y33445855D01*
X14565769Y33617821D01*
X14628197Y33805487D01*
X14652985Y34001705D01*
X14653380Y34030000D01*
X14634080Y34226833D01*
X14604699Y34324149D01*
X19726719Y34324149D01*
X19727235Y34318005D01*
X19737382Y34197167D01*
X19743268Y34127066D01*
X19746638Y34115313D01*
X19790936Y33960829D01*
X19797783Y33936950D01*
X19888187Y33761044D01*
X20011035Y33606047D01*
X20015728Y33602053D01*
X20015729Y33602052D01*
X20151476Y33486523D01*
X20161650Y33477864D01*
X20334294Y33381376D01*
X20522392Y33320260D01*
X20718777Y33296842D01*
X20724912Y33297314D01*
X20724914Y33297314D01*
X20909830Y33311543D01*
X20909834Y33311544D01*
X20915972Y33312016D01*
X21106463Y33365202D01*
X21111967Y33367982D01*
X21111969Y33367983D01*
X21277495Y33451596D01*
X21277497Y33451597D01*
X21282996Y33454375D01*
X21438847Y33576139D01*
X21552678Y33708014D01*
X21564049Y33721187D01*
X21564050Y33721189D01*
X21568078Y33725855D01*
X21665769Y33897821D01*
X21728197Y34085487D01*
X21752985Y34281705D01*
X21753380Y34310000D01*
X21734080Y34506833D01*
X21724482Y34538625D01*
X21706820Y34597123D01*
X21676916Y34696169D01*
X21584066Y34870796D01*
X21505820Y34966735D01*
X21462960Y35019287D01*
X21462957Y35019290D01*
X21459065Y35024062D01*
X21452724Y35029308D01*
X21311425Y35146201D01*
X21311421Y35146203D01*
X21306675Y35150130D01*
X21132701Y35244198D01*
X20943768Y35302682D01*
X20937643Y35303326D01*
X20937642Y35303326D01*
X20753204Y35322711D01*
X20753202Y35322711D01*
X20747075Y35323355D01*
X20664576Y35315847D01*
X20556251Y35305989D01*
X20556248Y35305988D01*
X20550112Y35305430D01*
X20544206Y35303692D01*
X20544202Y35303691D01*
X20439076Y35272751D01*
X20360381Y35249590D01*
X20354923Y35246737D01*
X20354919Y35246735D01*
X20268157Y35201376D01*
X20185110Y35157960D01*
X20030975Y35034032D01*
X20027011Y35029308D01*
X20019922Y35020860D01*
X19903846Y34882526D01*
X19900879Y34877128D01*
X19900875Y34877123D01*
X19833206Y34754032D01*
X19808567Y34709213D01*
X19806706Y34703346D01*
X19806705Y34703344D01*
X19758329Y34550843D01*
X19748765Y34520694D01*
X19726719Y34324149D01*
X14604699Y34324149D01*
X14576916Y34416169D01*
X14484066Y34590796D01*
X14392274Y34703344D01*
X14362960Y34739287D01*
X14362957Y34739290D01*
X14359065Y34744062D01*
X14352724Y34749308D01*
X14211425Y34866201D01*
X14211421Y34866203D01*
X14206675Y34870130D01*
X14032701Y34964198D01*
X13843768Y35022682D01*
X13837643Y35023326D01*
X13837642Y35023326D01*
X13653204Y35042711D01*
X13653202Y35042711D01*
X13647075Y35043355D01*
X13587091Y35037896D01*
X13456251Y35025989D01*
X13456248Y35025988D01*
X13450112Y35025430D01*
X13444206Y35023692D01*
X13444202Y35023691D01*
X13352977Y34996842D01*
X13260381Y34969590D01*
X13254923Y34966737D01*
X13254919Y34966735D01*
X13181810Y34928514D01*
X13085110Y34877960D01*
X12930975Y34754032D01*
X12803846Y34602526D01*
X12800879Y34597128D01*
X12800875Y34597123D01*
X12745085Y34495640D01*
X12708567Y34429213D01*
X12706706Y34423346D01*
X12706705Y34423344D01*
X12660663Y34278201D01*
X12648765Y34240694D01*
X12626719Y34044149D01*
X-1936859Y34044149D01*
X-1861021Y34086187D01*
X-1850588Y34093438D01*
X-1712509Y34211785D01*
X-1703756Y34220976D01*
X-1592289Y34364680D01*
X-1585565Y34375440D01*
X-1505268Y34538625D01*
X-1500845Y34550519D01*
X-1485749Y34608470D01*
X-1486183Y34622564D01*
X-1494364Y34626000D01*
X-1976714Y34626000D01*
X-2044835Y34646002D01*
X-2091328Y34699658D01*
X-2102472Y34759802D01*
X-2095871Y34866201D01*
X-2092453Y34921298D01*
X-2103685Y34986663D01*
X-2095508Y35057185D01*
X-2050502Y35112094D01*
X-1979505Y35134000D01*
X-1495771Y35134000D01*
X-1482240Y35137973D01*
X-1481363Y35144075D01*
X-1537310Y35296136D01*
X-1542877Y35307549D01*
X-1638708Y35462108D01*
X-1646460Y35472174D01*
X-1771408Y35604303D01*
X-1781026Y35612605D01*
X-1929987Y35716908D01*
X-1941081Y35723108D01*
X-2107980Y35795332D01*
X-2120083Y35799171D01*
X-2299600Y35836675D01*
X-2309152Y35837915D01*
X-2312384Y35838000D01*
X-2582885Y35838000D01*
X-2598124Y35833525D01*
X-2599329Y35832135D01*
X-2601000Y35824452D01*
X-2601000Y35759301D01*
X-2621002Y35691180D01*
X-2674658Y35644687D01*
X-2744932Y35634583D01*
X-2752977Y35636142D01*
X-2755157Y35636474D01*
X-2760610Y35637808D01*
X-2766212Y35638156D01*
X-2766215Y35638156D01*
X-2769825Y35638380D01*
X-2769835Y35638380D01*
X-2771764Y35638500D01*
X-2899293Y35638500D01*
X-2968409Y35630442D01*
X-3038388Y35642421D01*
X-3090781Y35690331D01*
X-3109000Y35755594D01*
X-3109000Y35819885D01*
X-3113475Y35835124D01*
X-3114865Y35836329D01*
X-3122548Y35838000D01*
X-3350447Y35838000D01*
X-3356822Y35837677D01*
X-3492277Y35823918D01*
X-3504717Y35821364D01*
X-3678244Y35766984D01*
X-3689927Y35761977D01*
X-3784413Y35709602D01*
X-3853690Y35694070D01*
X-3920367Y35718458D01*
X-3963274Y35775022D01*
X-3971500Y35819804D01*
X-3971500Y36024149D01*
X24366719Y36024149D01*
X24367235Y36018005D01*
X24382726Y35833525D01*
X24383268Y35827066D01*
X24403762Y35755594D01*
X24435964Y35643295D01*
X24437783Y35636950D01*
X24528187Y35461044D01*
X24651035Y35306047D01*
X24655728Y35302053D01*
X24655729Y35302052D01*
X24776261Y35199472D01*
X24801650Y35177864D01*
X24974294Y35081376D01*
X25162392Y35020260D01*
X25358777Y34996842D01*
X25364912Y34997314D01*
X25364914Y34997314D01*
X25549830Y35011543D01*
X25549834Y35011544D01*
X25555972Y35012016D01*
X25746463Y35065202D01*
X25751967Y35067982D01*
X25751969Y35067983D01*
X25917495Y35151596D01*
X25917497Y35151597D01*
X25922996Y35154375D01*
X26064409Y35264859D01*
X26073991Y35272345D01*
X26078847Y35276139D01*
X26208078Y35425855D01*
X26305769Y35597821D01*
X26320896Y35643295D01*
X39004424Y35643295D01*
X39018921Y35297407D01*
X39049243Y35101543D01*
X39067028Y34986661D01*
X39071884Y34955291D01*
X39162651Y34621211D01*
X39290093Y34299330D01*
X39291748Y34296218D01*
X39291750Y34296213D01*
X39331902Y34220699D01*
X39452620Y33993661D01*
X39487392Y33942877D01*
X39646215Y33710921D01*
X39646220Y33710915D01*
X39648206Y33708014D01*
X39874415Y33445949D01*
X39876985Y33443569D01*
X39876989Y33443565D01*
X39961614Y33365202D01*
X40128426Y33210732D01*
X40131248Y33208651D01*
X40131251Y33208649D01*
X40181509Y33171596D01*
X40407073Y33005296D01*
X40706884Y32832200D01*
X40710105Y32830793D01*
X41020899Y32695010D01*
X41020909Y32695006D01*
X41024121Y32693603D01*
X41027478Y32692564D01*
X41027483Y32692562D01*
X41162104Y32650890D01*
X41354830Y32591231D01*
X41358286Y32590572D01*
X41358285Y32590572D01*
X41691438Y32527020D01*
X41691443Y32527019D01*
X41694889Y32526362D01*
X41876364Y32512398D01*
X42036563Y32500071D01*
X42036565Y32500071D01*
X42040060Y32499802D01*
X42256564Y32507363D01*
X42382526Y32511761D01*
X42382531Y32511761D01*
X42386041Y32511884D01*
X42557279Y32537170D01*
X42725039Y32561943D01*
X42725044Y32561944D01*
X42728518Y32562457D01*
X42731910Y32563353D01*
X42731914Y32563354D01*
X43059833Y32649994D01*
X43059834Y32649994D01*
X43063224Y32650890D01*
X43385986Y32776081D01*
X43692782Y32936470D01*
X43917409Y33087983D01*
X43976872Y33128091D01*
X43976874Y33128092D01*
X43979788Y33130058D01*
X44031861Y33174375D01*
X44240753Y33352156D01*
X44240754Y33352157D01*
X44243426Y33354431D01*
X44245821Y33356981D01*
X44245829Y33356989D01*
X44477999Y33604226D01*
X44478003Y33604231D01*
X44480410Y33606794D01*
X44482515Y33609608D01*
X44482521Y33609615D01*
X44685678Y33881181D01*
X44687787Y33884000D01*
X44689568Y33887035D01*
X44861190Y34179557D01*
X44861193Y34179562D01*
X44862972Y34182595D01*
X44905538Y34278201D01*
X45002348Y34495640D01*
X45002350Y34495644D01*
X45003780Y34498857D01*
X45016536Y34539068D01*
X67828623Y34539068D01*
X67837916Y34527055D01*
X67881569Y34496488D01*
X67891047Y34491016D01*
X68082962Y34401525D01*
X68093255Y34397779D01*
X68297786Y34342975D01*
X68308581Y34341072D01*
X68519525Y34322616D01*
X68530475Y34322616D01*
X68741419Y34341072D01*
X68752214Y34342975D01*
X68956745Y34397779D01*
X68967038Y34401525D01*
X69158953Y34491016D01*
X69168431Y34496488D01*
X69212920Y34527641D01*
X69221294Y34538117D01*
X69214226Y34551564D01*
X68537812Y35227978D01*
X68523868Y35235592D01*
X68522035Y35235461D01*
X68515420Y35231210D01*
X67835053Y34550843D01*
X67828623Y34539068D01*
X45016536Y34539068D01*
X45108458Y34828843D01*
X45117214Y34873061D01*
X45146839Y35022682D01*
X45175700Y35168441D01*
X45193766Y35383581D01*
X45204486Y35511236D01*
X45204486Y35511243D01*
X45204669Y35513418D01*
X45204699Y35515588D01*
X45204700Y35515602D01*
X45205802Y35594525D01*
X67247616Y35594525D01*
X67266072Y35383581D01*
X67267975Y35372786D01*
X67322779Y35168255D01*
X67326525Y35157963D01*
X67416012Y34966056D01*
X67421495Y34956561D01*
X67452640Y34912081D01*
X67463117Y34903706D01*
X67476564Y34910774D01*
X68152978Y35587188D01*
X68159356Y35598868D01*
X68889408Y35598868D01*
X68889539Y35597035D01*
X68893790Y35590420D01*
X69574157Y34910053D01*
X69585932Y34903623D01*
X69597947Y34912919D01*
X69628505Y34956561D01*
X69633988Y34966056D01*
X69723475Y35157963D01*
X69727221Y35168255D01*
X69782025Y35372786D01*
X69783928Y35383581D01*
X69802384Y35594525D01*
X69802384Y35605475D01*
X69783928Y35816419D01*
X69782025Y35827214D01*
X69727221Y36031745D01*
X69723475Y36042037D01*
X69689849Y36114149D01*
X76746719Y36114149D01*
X76747235Y36108005D01*
X76761163Y35942138D01*
X76763268Y35917066D01*
X76773436Y35881607D01*
X76809181Y35756950D01*
X76817783Y35726950D01*
X76820602Y35721465D01*
X76865254Y35634583D01*
X76908187Y35551044D01*
X77031035Y35396047D01*
X77035728Y35392053D01*
X77035729Y35392052D01*
X77174000Y35274375D01*
X77181650Y35267864D01*
X77354294Y35171376D01*
X77542392Y35110260D01*
X77738777Y35086842D01*
X77744912Y35087314D01*
X77744914Y35087314D01*
X77929830Y35101543D01*
X77929834Y35101544D01*
X77935972Y35102016D01*
X78126463Y35155202D01*
X78131967Y35157982D01*
X78131969Y35157983D01*
X78297495Y35241596D01*
X78297497Y35241597D01*
X78302996Y35244375D01*
X78458847Y35366139D01*
X78588078Y35515855D01*
X78685769Y35687821D01*
X78748197Y35875487D01*
X78772985Y36071705D01*
X78773380Y36100000D01*
X78769051Y36144149D01*
X85216719Y36144149D01*
X85217235Y36138005D01*
X85231812Y35964408D01*
X85233268Y35947066D01*
X85243436Y35911607D01*
X85284906Y35766984D01*
X85287783Y35756950D01*
X85290602Y35751465D01*
X85367329Y35602172D01*
X85378187Y35581044D01*
X85501035Y35426047D01*
X85505728Y35422053D01*
X85505729Y35422052D01*
X85563617Y35372786D01*
X85651650Y35297864D01*
X85824294Y35201376D01*
X86012392Y35140260D01*
X86208777Y35116842D01*
X86214912Y35117314D01*
X86214914Y35117314D01*
X86399830Y35131543D01*
X86399834Y35131544D01*
X86405972Y35132016D01*
X86596463Y35185202D01*
X86601967Y35187982D01*
X86601969Y35187983D01*
X86767495Y35271596D01*
X86767497Y35271597D01*
X86772996Y35274375D01*
X86904146Y35376840D01*
X86923991Y35392345D01*
X86928847Y35396139D01*
X87022489Y35504624D01*
X87054049Y35541187D01*
X87054050Y35541189D01*
X87058078Y35545855D01*
X87155769Y35717821D01*
X87218197Y35905487D01*
X87242985Y36101705D01*
X87243380Y36130000D01*
X87224080Y36326833D01*
X87166916Y36516169D01*
X87074066Y36690796D01*
X87046935Y36724062D01*
X86952960Y36839287D01*
X86952957Y36839290D01*
X86949065Y36844062D01*
X86938187Y36853061D01*
X86801425Y36966201D01*
X86801421Y36966203D01*
X86796675Y36970130D01*
X86622701Y37064198D01*
X86433768Y37122682D01*
X86427643Y37123326D01*
X86427642Y37123326D01*
X86243204Y37142711D01*
X86243202Y37142711D01*
X86237075Y37143355D01*
X86154576Y37135847D01*
X86046251Y37125989D01*
X86046248Y37125988D01*
X86040112Y37125430D01*
X86034206Y37123692D01*
X86034202Y37123691D01*
X85938179Y37095430D01*
X85850381Y37069590D01*
X85844923Y37066737D01*
X85844919Y37066735D01*
X85777078Y37031268D01*
X85675110Y36977960D01*
X85520975Y36854032D01*
X85393846Y36702526D01*
X85390879Y36697128D01*
X85390875Y36697123D01*
X85324053Y36575572D01*
X85298567Y36529213D01*
X85296706Y36523346D01*
X85296705Y36523344D01*
X85258639Y36403344D01*
X85238765Y36340694D01*
X85216719Y36144149D01*
X78769051Y36144149D01*
X78754080Y36296833D01*
X78746875Y36320699D01*
X78724089Y36396169D01*
X78696916Y36486169D01*
X78604066Y36660796D01*
X78533709Y36747062D01*
X78482960Y36809287D01*
X78482957Y36809290D01*
X78479065Y36814062D01*
X78472724Y36819308D01*
X78331425Y36936201D01*
X78331421Y36936203D01*
X78326675Y36940130D01*
X78152701Y37034198D01*
X77963768Y37092682D01*
X77957643Y37093326D01*
X77957642Y37093326D01*
X77773204Y37112711D01*
X77773202Y37112711D01*
X77767075Y37113355D01*
X77684576Y37105847D01*
X77576251Y37095989D01*
X77576248Y37095988D01*
X77570112Y37095430D01*
X77564206Y37093692D01*
X77564202Y37093691D01*
X77488226Y37071330D01*
X77380381Y37039590D01*
X77374923Y37036737D01*
X77374919Y37036735D01*
X77309783Y37002682D01*
X77205110Y36947960D01*
X77050975Y36824032D01*
X76923846Y36672526D01*
X76920879Y36667128D01*
X76920875Y36667123D01*
X76848025Y36534608D01*
X76828567Y36499213D01*
X76826706Y36493346D01*
X76826705Y36493344D01*
X76775757Y36332736D01*
X76768765Y36310694D01*
X76746719Y36114149D01*
X69689849Y36114149D01*
X69633988Y36233944D01*
X69628505Y36243439D01*
X69597360Y36287919D01*
X69586883Y36296294D01*
X69573436Y36289226D01*
X68897022Y35612812D01*
X68889408Y35598868D01*
X68159356Y35598868D01*
X68160592Y35601132D01*
X68160461Y35602965D01*
X68156210Y35609580D01*
X67475843Y36289947D01*
X67464068Y36296377D01*
X67452053Y36287081D01*
X67421495Y36243439D01*
X67416012Y36233944D01*
X67326525Y36042037D01*
X67322779Y36031745D01*
X67267975Y35827214D01*
X67266072Y35816419D01*
X67247616Y35605475D01*
X67247616Y35594525D01*
X45205802Y35594525D01*
X45205848Y35597823D01*
X45205848Y35597834D01*
X45205878Y35600000D01*
X45205713Y35602965D01*
X45194957Y35795332D01*
X45186553Y35945652D01*
X45185276Y35953207D01*
X45129408Y36283514D01*
X45129407Y36283518D01*
X45128819Y36286995D01*
X45033396Y36619775D01*
X45016040Y36661883D01*
X67828706Y36661883D01*
X67835774Y36648436D01*
X68512188Y35972022D01*
X68526132Y35964408D01*
X68527965Y35964539D01*
X68534580Y35968790D01*
X69214947Y36649157D01*
X69221377Y36660932D01*
X69212084Y36672945D01*
X69168431Y36703512D01*
X69158953Y36708984D01*
X68967038Y36798475D01*
X68956745Y36802221D01*
X68752214Y36857025D01*
X68741419Y36858928D01*
X68530475Y36877384D01*
X68519525Y36877384D01*
X68308581Y36858928D01*
X68297786Y36857025D01*
X68093255Y36802221D01*
X68082963Y36798475D01*
X67891056Y36708988D01*
X67881561Y36703505D01*
X67837081Y36672360D01*
X67828706Y36661883D01*
X45016040Y36661883D01*
X44984710Y36737896D01*
X44902811Y36936600D01*
X44902807Y36936608D01*
X44901473Y36939845D01*
X44734694Y37243215D01*
X44535138Y37526103D01*
X44305292Y37784985D01*
X44302681Y37787336D01*
X44050640Y38014275D01*
X44050637Y38014277D01*
X44048022Y38016632D01*
X44045172Y38018673D01*
X44045165Y38018678D01*
X43769388Y38216115D01*
X43769385Y38216117D01*
X43766534Y38218158D01*
X43464335Y38387051D01*
X43145194Y38521205D01*
X43141825Y38522196D01*
X43141821Y38522198D01*
X42995282Y38565326D01*
X42813088Y38618949D01*
X42472156Y38679065D01*
X42468647Y38679286D01*
X42468645Y38679286D01*
X42130166Y38700581D01*
X42130160Y38700581D01*
X42126648Y38700802D01*
X42027703Y38695963D01*
X41784377Y38684063D01*
X41784368Y38684062D01*
X41780870Y38683891D01*
X41777402Y38683329D01*
X41777399Y38683329D01*
X41442607Y38629105D01*
X41442604Y38629104D01*
X41439132Y38628542D01*
X41435745Y38627596D01*
X41435739Y38627595D01*
X41109088Y38536392D01*
X41105693Y38535444D01*
X41102430Y38534126D01*
X41102428Y38534125D01*
X40787967Y38407074D01*
X40784710Y38405758D01*
X40480184Y38241101D01*
X40195909Y38043525D01*
X40193267Y38041212D01*
X40193263Y38041209D01*
X39949073Y37827437D01*
X39935429Y37815493D01*
X39701992Y37559846D01*
X39699926Y37557003D01*
X39699924Y37557000D01*
X39626388Y37455786D01*
X39498506Y37279771D01*
X39327507Y36978759D01*
X39275705Y36857896D01*
X39193940Y36667123D01*
X39191128Y36660563D01*
X39167567Y36582526D01*
X39092152Y36332736D01*
X39091068Y36329147D01*
X39088759Y36316564D01*
X39048365Y36096477D01*
X39028573Y35988643D01*
X39028327Y35985127D01*
X39028327Y35985126D01*
X39009260Y35712458D01*
X39004424Y35643295D01*
X26320896Y35643295D01*
X26368197Y35785487D01*
X26392985Y35981705D01*
X26393380Y36010000D01*
X26374080Y36206833D01*
X26316916Y36396169D01*
X26224066Y36570796D01*
X26146768Y36665572D01*
X26102960Y36719287D01*
X26102957Y36719290D01*
X26099065Y36724062D01*
X26092724Y36729308D01*
X25951425Y36846201D01*
X25951421Y36846203D01*
X25946675Y36850130D01*
X25772701Y36944198D01*
X25583768Y37002682D01*
X25577643Y37003326D01*
X25577642Y37003326D01*
X25393204Y37022711D01*
X25393202Y37022711D01*
X25387075Y37023355D01*
X25304576Y37015847D01*
X25196251Y37005989D01*
X25196248Y37005988D01*
X25190112Y37005430D01*
X25184206Y37003692D01*
X25184202Y37003691D01*
X25106469Y36980813D01*
X25000381Y36949590D01*
X24994923Y36946737D01*
X24994919Y36946735D01*
X24974770Y36936201D01*
X24825110Y36857960D01*
X24670975Y36734032D01*
X24543846Y36582526D01*
X24540879Y36577128D01*
X24540875Y36577123D01*
X24487630Y36480269D01*
X24448567Y36409213D01*
X24446706Y36403346D01*
X24446705Y36403344D01*
X24419177Y36316564D01*
X24388765Y36220694D01*
X24366719Y36024149D01*
X-3971500Y36024149D01*
X-3971500Y39724149D01*
X17496719Y39724149D01*
X17497235Y39718005D01*
X17511522Y39547864D01*
X17513268Y39527066D01*
X17514967Y39521142D01*
X17559212Y39366842D01*
X17567783Y39336950D01*
X17658187Y39161044D01*
X17781035Y39006047D01*
X17931650Y38877864D01*
X18104294Y38781376D01*
X18292392Y38720260D01*
X18488777Y38696842D01*
X18494912Y38697314D01*
X18494914Y38697314D01*
X18679830Y38711543D01*
X18679834Y38711544D01*
X18685972Y38712016D01*
X18876463Y38765202D01*
X18881967Y38767982D01*
X18881969Y38767983D01*
X19047495Y38851596D01*
X19047497Y38851597D01*
X19052996Y38854375D01*
X19208847Y38976139D01*
X19338078Y39125855D01*
X19435769Y39297821D01*
X19498197Y39485487D01*
X19522985Y39681705D01*
X19523380Y39710000D01*
X19504080Y39906833D01*
X19483900Y39973674D01*
X19448697Y40090269D01*
X19446916Y40096169D01*
X19354066Y40270796D01*
X19283709Y40357062D01*
X19253462Y40394149D01*
X44216719Y40394149D01*
X44217235Y40388005D01*
X44226546Y40277123D01*
X44233268Y40197066D01*
X44234967Y40191142D01*
X44263892Y40090269D01*
X44287783Y40006950D01*
X44378187Y39831044D01*
X44501035Y39676047D01*
X44651650Y39547864D01*
X44824294Y39451376D01*
X45012392Y39390260D01*
X45208777Y39366842D01*
X45214912Y39367314D01*
X45214914Y39367314D01*
X45399830Y39381543D01*
X45399834Y39381544D01*
X45405972Y39382016D01*
X45596463Y39435202D01*
X45601967Y39437982D01*
X45601969Y39437983D01*
X45767495Y39521596D01*
X45767497Y39521597D01*
X45772996Y39524375D01*
X45928847Y39646139D01*
X46058078Y39795855D01*
X46155769Y39967821D01*
X46218197Y40155487D01*
X46242985Y40351705D01*
X46243380Y40380000D01*
X46224080Y40576833D01*
X46216875Y40600699D01*
X46180366Y40721620D01*
X46166916Y40766169D01*
X46074066Y40940796D01*
X46003709Y41027062D01*
X45952960Y41089287D01*
X45952957Y41089290D01*
X45949065Y41094062D01*
X45939910Y41101636D01*
X45801425Y41216201D01*
X45801421Y41216203D01*
X45796675Y41220130D01*
X45622701Y41314198D01*
X45433768Y41372682D01*
X45427643Y41373326D01*
X45427642Y41373326D01*
X45243204Y41392711D01*
X45243202Y41392711D01*
X45237075Y41393355D01*
X45154576Y41385847D01*
X45046251Y41375989D01*
X45046248Y41375988D01*
X45040112Y41375430D01*
X45034206Y41373692D01*
X45034202Y41373691D01*
X44935926Y41344767D01*
X44850381Y41319590D01*
X44844923Y41316737D01*
X44844919Y41316735D01*
X44762552Y41273674D01*
X44675110Y41227960D01*
X44520975Y41104032D01*
X44393846Y40952526D01*
X44390879Y40947128D01*
X44390875Y40947123D01*
X44387397Y40940796D01*
X44298567Y40779213D01*
X44296706Y40773346D01*
X44296705Y40773344D01*
X44240627Y40596564D01*
X44238765Y40590694D01*
X44216719Y40394149D01*
X19253462Y40394149D01*
X19232960Y40419287D01*
X19232957Y40419290D01*
X19229065Y40424062D01*
X19222724Y40429308D01*
X19081425Y40546201D01*
X19081421Y40546203D01*
X19076675Y40550130D01*
X18902701Y40644198D01*
X18713768Y40702682D01*
X18707643Y40703326D01*
X18707642Y40703326D01*
X18523204Y40722711D01*
X18523202Y40722711D01*
X18517075Y40723355D01*
X18434576Y40715847D01*
X18326251Y40705989D01*
X18326248Y40705988D01*
X18320112Y40705430D01*
X18314206Y40703692D01*
X18314202Y40703691D01*
X18209076Y40672751D01*
X18130381Y40649590D01*
X18124923Y40646737D01*
X18124919Y40646735D01*
X18043952Y40604406D01*
X17955110Y40557960D01*
X17800975Y40434032D01*
X17673846Y40282526D01*
X17670879Y40277128D01*
X17670875Y40277123D01*
X17607371Y40161607D01*
X17578567Y40109213D01*
X17576706Y40103346D01*
X17576705Y40103344D01*
X17548007Y40012877D01*
X17518765Y39920694D01*
X17496719Y39724149D01*
X-3971500Y39724149D01*
X-3971500Y40535349D01*
X-3951498Y40603470D01*
X-3897842Y40649963D01*
X-3827568Y40660067D01*
X-3784026Y40645335D01*
X-3768922Y40636893D01*
X-3602020Y40564668D01*
X-3589917Y40560829D01*
X-3410400Y40523325D01*
X-3400848Y40522085D01*
X-3397616Y40522000D01*
X-3127115Y40522000D01*
X-3111876Y40526475D01*
X-3110671Y40527865D01*
X-3109000Y40535548D01*
X-3109000Y40600699D01*
X-3088998Y40668820D01*
X-3035342Y40715313D01*
X-2965068Y40725417D01*
X-2957023Y40723858D01*
X-2954843Y40723526D01*
X-2949390Y40722192D01*
X-2943788Y40721844D01*
X-2943785Y40721844D01*
X-2940175Y40721620D01*
X-2940165Y40721620D01*
X-2938236Y40721500D01*
X-2810707Y40721500D01*
X-2741591Y40729558D01*
X-2671612Y40717579D01*
X-2619219Y40669669D01*
X-2601000Y40604406D01*
X-2601000Y40540115D01*
X-2596525Y40524876D01*
X-2595135Y40523671D01*
X-2587452Y40522000D01*
X-2359553Y40522000D01*
X-2353178Y40522323D01*
X-2217723Y40536082D01*
X-2205283Y40538636D01*
X-2031756Y40593016D01*
X-2020068Y40598025D01*
X-1861021Y40686187D01*
X-1850588Y40693438D01*
X-1712509Y40811785D01*
X-1703756Y40820976D01*
X-1592289Y40964680D01*
X-1585565Y40975440D01*
X-1505268Y41138625D01*
X-1500845Y41150519D01*
X-1485749Y41208470D01*
X-1486183Y41222564D01*
X-1494364Y41226000D01*
X-1976714Y41226000D01*
X-2044835Y41246002D01*
X-2091328Y41299658D01*
X-2102472Y41359802D01*
X-2097382Y41441857D01*
X-2092453Y41521298D01*
X-2103685Y41586663D01*
X-2095508Y41657185D01*
X-2050502Y41712094D01*
X-1979505Y41734000D01*
X-1495771Y41734000D01*
X-1482240Y41737973D01*
X-1481363Y41744075D01*
X-1537310Y41896136D01*
X-1542877Y41907549D01*
X-1638708Y42062108D01*
X-1646460Y42072174D01*
X-1771408Y42204303D01*
X-1781026Y42212605D01*
X-1883202Y42284149D01*
X1806719Y42284149D01*
X1807235Y42278005D01*
X1820654Y42118201D01*
X1823268Y42087066D01*
X1824967Y42081142D01*
X1874744Y41907549D01*
X1877783Y41896950D01*
X1880602Y41891465D01*
X1959487Y41737973D01*
X1968187Y41721044D01*
X2091035Y41566047D01*
X2241650Y41437864D01*
X2414294Y41341376D01*
X2602392Y41280260D01*
X2798777Y41256842D01*
X2804912Y41257314D01*
X2804914Y41257314D01*
X2989830Y41271543D01*
X2989834Y41271544D01*
X2995972Y41272016D01*
X3186463Y41325202D01*
X3191967Y41327982D01*
X3191969Y41327983D01*
X3357495Y41411596D01*
X3357497Y41411597D01*
X3362996Y41414375D01*
X3499851Y41521298D01*
X3513991Y41532345D01*
X3518847Y41536139D01*
X3648078Y41685855D01*
X3745769Y41857821D01*
X3808197Y42045487D01*
X3832985Y42241705D01*
X3833203Y42257314D01*
X3833331Y42266477D01*
X3833331Y42266480D01*
X3833380Y42270000D01*
X3814080Y42466833D01*
X3756916Y42656169D01*
X3664066Y42830796D01*
X3593709Y42917062D01*
X3542960Y42979287D01*
X3542957Y42979290D01*
X3539065Y42984062D01*
X3528187Y42993061D01*
X3391425Y43106201D01*
X3391421Y43106203D01*
X3386675Y43110130D01*
X3212701Y43204198D01*
X3023768Y43262682D01*
X3017643Y43263326D01*
X3017642Y43263326D01*
X2833204Y43282711D01*
X2833202Y43282711D01*
X2827075Y43283355D01*
X2744576Y43275847D01*
X2636251Y43265989D01*
X2636248Y43265988D01*
X2630112Y43265430D01*
X2624206Y43263692D01*
X2624202Y43263691D01*
X2549500Y43241705D01*
X2440381Y43209590D01*
X2434923Y43206737D01*
X2434919Y43206735D01*
X2398823Y43187864D01*
X2265110Y43117960D01*
X2110975Y42994032D01*
X1983846Y42842526D01*
X1980879Y42837128D01*
X1980875Y42837123D01*
X1914407Y42716217D01*
X1888567Y42669213D01*
X1886706Y42663346D01*
X1886705Y42663344D01*
X1848639Y42543344D01*
X1828765Y42480694D01*
X1806719Y42284149D01*
X-1883202Y42284149D01*
X-1929987Y42316908D01*
X-1941081Y42323108D01*
X-2107980Y42395332D01*
X-2120083Y42399171D01*
X-2299600Y42436675D01*
X-2309152Y42437915D01*
X-2312384Y42438000D01*
X-2582885Y42438000D01*
X-2598124Y42433525D01*
X-2599329Y42432135D01*
X-2601000Y42424452D01*
X-2601000Y42359301D01*
X-2621002Y42291180D01*
X-2674658Y42244687D01*
X-2744932Y42234583D01*
X-2752977Y42236142D01*
X-2755157Y42236474D01*
X-2760610Y42237808D01*
X-2766212Y42238156D01*
X-2766215Y42238156D01*
X-2769825Y42238380D01*
X-2769835Y42238380D01*
X-2771764Y42238500D01*
X-2899293Y42238500D01*
X-2968409Y42230442D01*
X-3038388Y42242421D01*
X-3090781Y42290331D01*
X-3109000Y42355594D01*
X-3109000Y42419885D01*
X-3113475Y42435124D01*
X-3114865Y42436329D01*
X-3122548Y42438000D01*
X-3350447Y42438000D01*
X-3356822Y42437677D01*
X-3492277Y42423918D01*
X-3504717Y42421364D01*
X-3678244Y42366984D01*
X-3689927Y42361977D01*
X-3784413Y42309602D01*
X-3853690Y42294070D01*
X-3920367Y42318458D01*
X-3963274Y42375022D01*
X-3971500Y42419804D01*
X-3971500Y44034149D01*
X31066719Y44034149D01*
X31067235Y44028005D01*
X31082413Y43847253D01*
X31083268Y43837066D01*
X31084967Y43831142D01*
X31133580Y43661608D01*
X31137783Y43646950D01*
X31140602Y43641465D01*
X31223228Y43480694D01*
X31228187Y43471044D01*
X31351035Y43316047D01*
X31355728Y43312053D01*
X31355729Y43312052D01*
X31482458Y43204198D01*
X31501650Y43187864D01*
X31674294Y43091376D01*
X31862392Y43030260D01*
X32058777Y43006842D01*
X32064912Y43007314D01*
X32064914Y43007314D01*
X32249830Y43021543D01*
X32249834Y43021544D01*
X32255972Y43022016D01*
X32446463Y43075202D01*
X32451967Y43077982D01*
X32451969Y43077983D01*
X32617495Y43161596D01*
X32617497Y43161597D01*
X32622996Y43164375D01*
X32776300Y43284149D01*
X59706719Y43284149D01*
X59707235Y43278005D01*
X59722654Y43094382D01*
X59723268Y43087066D01*
X59745906Y43008119D01*
X59750224Y42993061D01*
X59777783Y42896950D01*
X59868187Y42721044D01*
X59991035Y42566047D01*
X59995728Y42562053D01*
X59995729Y42562052D01*
X60098515Y42474575D01*
X60141650Y42437864D01*
X60314294Y42341376D01*
X60502392Y42280260D01*
X60698777Y42256842D01*
X60704912Y42257314D01*
X60704914Y42257314D01*
X60889830Y42271543D01*
X60889834Y42271544D01*
X60895972Y42272016D01*
X61086463Y42325202D01*
X61091967Y42327982D01*
X61091969Y42327983D01*
X61257495Y42411596D01*
X61257497Y42411597D01*
X61262996Y42414375D01*
X61418847Y42536139D01*
X61548078Y42685855D01*
X61645769Y42857821D01*
X61708197Y43045487D01*
X61732985Y43241705D01*
X61733380Y43270000D01*
X61714080Y43466833D01*
X61711155Y43476523D01*
X61658976Y43649345D01*
X61656916Y43656169D01*
X61564066Y43830796D01*
X61493709Y43917062D01*
X61442960Y43979287D01*
X61442957Y43979290D01*
X61439065Y43984062D01*
X61432724Y43989308D01*
X61291425Y44106201D01*
X61291421Y44106203D01*
X61286675Y44110130D01*
X61112701Y44204198D01*
X60923768Y44262682D01*
X60917643Y44263326D01*
X60917642Y44263326D01*
X60733204Y44282711D01*
X60733202Y44282711D01*
X60727075Y44283355D01*
X60644576Y44275847D01*
X60536251Y44265989D01*
X60536248Y44265988D01*
X60530112Y44265430D01*
X60524206Y44263692D01*
X60524202Y44263691D01*
X60432032Y44236564D01*
X60340381Y44209590D01*
X60334923Y44206737D01*
X60334919Y44206735D01*
X60244147Y44159280D01*
X60165110Y44117960D01*
X60010975Y43994032D01*
X59883846Y43842526D01*
X59880879Y43837128D01*
X59880875Y43837123D01*
X59857986Y43795487D01*
X59788567Y43669213D01*
X59786706Y43663346D01*
X59786705Y43663344D01*
X59770949Y43613674D01*
X59728765Y43480694D01*
X59706719Y43284149D01*
X32776300Y43284149D01*
X32778847Y43286139D01*
X32908078Y43435855D01*
X33005769Y43607821D01*
X33068197Y43795487D01*
X33092985Y43991705D01*
X33093380Y44020000D01*
X33074080Y44216833D01*
X33060788Y44260860D01*
X33018697Y44400269D01*
X33016916Y44406169D01*
X32924066Y44580796D01*
X32853709Y44667062D01*
X32802960Y44729287D01*
X32802957Y44729290D01*
X32799065Y44734062D01*
X32792724Y44739308D01*
X32651425Y44856201D01*
X32651421Y44856203D01*
X32646675Y44860130D01*
X32472701Y44954198D01*
X32283768Y45012682D01*
X32277643Y45013326D01*
X32277642Y45013326D01*
X32093204Y45032711D01*
X32093202Y45032711D01*
X32087075Y45033355D01*
X32004576Y45025847D01*
X31896251Y45015989D01*
X31896248Y45015988D01*
X31890112Y45015430D01*
X31884206Y45013692D01*
X31884202Y45013691D01*
X31830831Y44997983D01*
X31700381Y44959590D01*
X31694923Y44956737D01*
X31694919Y44956735D01*
X31638643Y44927314D01*
X31525110Y44867960D01*
X31370975Y44744032D01*
X31243846Y44592526D01*
X31240879Y44587128D01*
X31240875Y44587123D01*
X31237397Y44580796D01*
X31148567Y44419213D01*
X31146706Y44413346D01*
X31146705Y44413344D01*
X31098912Y44262682D01*
X31088765Y44230694D01*
X31066719Y44034149D01*
X-3971500Y44034149D01*
X-3971500Y46074149D01*
X-953281Y46074149D01*
X-952765Y46068005D01*
X-939346Y45908201D01*
X-936732Y45877066D01*
X-935033Y45871142D01*
X-885334Y45697821D01*
X-882217Y45686950D01*
X-791813Y45511044D01*
X-668965Y45356047D01*
X-664272Y45352053D01*
X-664271Y45352052D01*
X-549500Y45254375D01*
X-518350Y45227864D01*
X-345706Y45131376D01*
X-157608Y45070260D01*
X38777Y45046842D01*
X44912Y45047314D01*
X44914Y45047314D01*
X229830Y45061543D01*
X229834Y45061544D01*
X235972Y45062016D01*
X426463Y45115202D01*
X431967Y45117982D01*
X431969Y45117983D01*
X597495Y45201596D01*
X597497Y45201597D01*
X602996Y45204375D01*
X758847Y45326139D01*
X888078Y45475855D01*
X985769Y45647821D01*
X1048197Y45835487D01*
X1072985Y46031705D01*
X1073380Y46060000D01*
X1054080Y46256833D01*
X996916Y46446169D01*
X904066Y46620796D01*
X833709Y46707062D01*
X782960Y46769287D01*
X782957Y46769290D01*
X779065Y46774062D01*
X772724Y46779308D01*
X631425Y46896201D01*
X631421Y46896203D01*
X626675Y46900130D01*
X452701Y46994198D01*
X263768Y47052682D01*
X257643Y47053326D01*
X257642Y47053326D01*
X73204Y47072711D01*
X73202Y47072711D01*
X67075Y47073355D01*
X-15424Y47065847D01*
X-123749Y47055989D01*
X-123752Y47055988D01*
X-129888Y47055430D01*
X-135794Y47053692D01*
X-135798Y47053691D01*
X-223551Y47027864D01*
X-319619Y46999590D01*
X-325077Y46996737D01*
X-325081Y46996735D01*
X-406639Y46954097D01*
X-494890Y46907960D01*
X-649025Y46784032D01*
X-776154Y46632526D01*
X-779121Y46627128D01*
X-779125Y46627123D01*
X-847172Y46503344D01*
X-871433Y46459213D01*
X-873294Y46453346D01*
X-873295Y46453344D01*
X-919771Y46306833D01*
X-931235Y46270694D01*
X-953281Y46074149D01*
X-3971500Y46074149D01*
X-3971500Y47874149D01*
X13596719Y47874149D01*
X13613268Y47677066D01*
X13667783Y47486950D01*
X13758187Y47311044D01*
X13881035Y47156047D01*
X13885728Y47152053D01*
X13885729Y47152052D01*
X14012458Y47044198D01*
X14031650Y47027864D01*
X14204294Y46931376D01*
X14392392Y46870260D01*
X14588777Y46846842D01*
X14594912Y46847314D01*
X14594914Y46847314D01*
X14779830Y46861543D01*
X14779834Y46861544D01*
X14785972Y46862016D01*
X14976463Y46915202D01*
X14981967Y46917982D01*
X14981969Y46917983D01*
X15147495Y47001596D01*
X15147497Y47001597D01*
X15152996Y47004375D01*
X15308847Y47126139D01*
X15438078Y47275855D01*
X15535769Y47447821D01*
X15598197Y47635487D01*
X15622985Y47831705D01*
X15623380Y47860000D01*
X15604080Y48056833D01*
X15600017Y48070292D01*
X15561500Y48197864D01*
X15546916Y48246169D01*
X15454066Y48420796D01*
X15383709Y48507062D01*
X15332960Y48569287D01*
X15332957Y48569290D01*
X15329065Y48574062D01*
X15322724Y48579308D01*
X15181425Y48696201D01*
X15181421Y48696203D01*
X15176675Y48700130D01*
X15002701Y48794198D01*
X14813768Y48852682D01*
X14807643Y48853326D01*
X14807642Y48853326D01*
X14623204Y48872711D01*
X14623202Y48872711D01*
X14617075Y48873355D01*
X14534576Y48865847D01*
X14426251Y48855989D01*
X14426248Y48855988D01*
X14420112Y48855430D01*
X14414206Y48853692D01*
X14414202Y48853691D01*
X14309076Y48822751D01*
X14230381Y48799590D01*
X14224923Y48796737D01*
X14224919Y48796735D01*
X14134147Y48749280D01*
X14055110Y48707960D01*
X13900975Y48584032D01*
X13773846Y48432526D01*
X13770879Y48427128D01*
X13770875Y48427123D01*
X13767397Y48420796D01*
X13678567Y48259213D01*
X13676706Y48253346D01*
X13676705Y48253344D01*
X13628498Y48101376D01*
X13618765Y48070694D01*
X13596719Y47874149D01*
X-3971500Y47874149D01*
X-3971500Y49044149D01*
X19876719Y49044149D01*
X19877235Y49038005D01*
X19892712Y48853691D01*
X19893268Y48847066D01*
X19947783Y48656950D01*
X20038187Y48481044D01*
X20161035Y48326047D01*
X20165728Y48322053D01*
X20165729Y48322052D01*
X20254892Y48246169D01*
X20311650Y48197864D01*
X20484294Y48101376D01*
X20672392Y48040260D01*
X20868777Y48016842D01*
X20874912Y48017314D01*
X20874914Y48017314D01*
X21059830Y48031543D01*
X21059834Y48031544D01*
X21065972Y48032016D01*
X21256463Y48085202D01*
X21261967Y48087982D01*
X21261969Y48087983D01*
X21427495Y48171596D01*
X21427497Y48171597D01*
X21432996Y48174375D01*
X21588847Y48296139D01*
X21707430Y48433519D01*
X21714049Y48441187D01*
X21714050Y48441189D01*
X21718078Y48445855D01*
X21815769Y48617821D01*
X21878197Y48805487D01*
X21902985Y49001705D01*
X21903380Y49030000D01*
X21884080Y49226833D01*
X21826916Y49416169D01*
X21734066Y49590796D01*
X21663709Y49677062D01*
X21612960Y49739287D01*
X21612957Y49739290D01*
X21609065Y49744062D01*
X21602724Y49749308D01*
X21461425Y49866201D01*
X21461421Y49866203D01*
X21456675Y49870130D01*
X21282701Y49964198D01*
X21093768Y50022682D01*
X21087643Y50023326D01*
X21087642Y50023326D01*
X20903204Y50042711D01*
X20903202Y50042711D01*
X20897075Y50043355D01*
X20814576Y50035847D01*
X20706251Y50025989D01*
X20706248Y50025988D01*
X20700112Y50025430D01*
X20694206Y50023692D01*
X20694202Y50023691D01*
X20589076Y49992751D01*
X20510381Y49969590D01*
X20504923Y49966737D01*
X20504919Y49966735D01*
X20414147Y49919280D01*
X20335110Y49877960D01*
X20180975Y49754032D01*
X20177011Y49749308D01*
X20174109Y49745850D01*
X20053846Y49602526D01*
X20050879Y49597128D01*
X20050875Y49597123D01*
X20047397Y49590796D01*
X19958567Y49429213D01*
X19956706Y49423346D01*
X19956705Y49423344D01*
X19908727Y49272099D01*
X19898765Y49240694D01*
X19876719Y49044149D01*
X-3971500Y49044149D01*
X-3971500Y51074149D01*
X7716719Y51074149D01*
X7717235Y51068005D01*
X7729832Y50917991D01*
X7733268Y50877066D01*
X7787783Y50686950D01*
X7878187Y50511044D01*
X8001035Y50356047D01*
X8005728Y50352053D01*
X8005729Y50352052D01*
X8133539Y50243278D01*
X8151650Y50227864D01*
X8324294Y50131376D01*
X8512392Y50070260D01*
X8708777Y50046842D01*
X8714912Y50047314D01*
X8714914Y50047314D01*
X8899830Y50061543D01*
X8899834Y50061544D01*
X8905972Y50062016D01*
X9096463Y50115202D01*
X9101967Y50117982D01*
X9101969Y50117983D01*
X9267495Y50201596D01*
X9267497Y50201597D01*
X9272996Y50204375D01*
X9428847Y50326139D01*
X9558078Y50475855D01*
X9655769Y50647821D01*
X9718197Y50835487D01*
X9742985Y51031705D01*
X9743380Y51060000D01*
X9724080Y51256833D01*
X9666916Y51446169D01*
X9574066Y51620796D01*
X9471089Y51747058D01*
X9452960Y51769287D01*
X9452957Y51769290D01*
X9449065Y51774062D01*
X9442724Y51779308D01*
X9301425Y51896201D01*
X9301421Y51896203D01*
X9296675Y51900130D01*
X9122701Y51994198D01*
X8933768Y52052682D01*
X8927643Y52053326D01*
X8927642Y52053326D01*
X8743204Y52072711D01*
X8743202Y52072711D01*
X8737075Y52073355D01*
X8654576Y52065847D01*
X8546251Y52055989D01*
X8546248Y52055988D01*
X8540112Y52055430D01*
X8534206Y52053692D01*
X8534202Y52053691D01*
X8429076Y52022751D01*
X8350381Y51999590D01*
X8344923Y51996737D01*
X8344919Y51996735D01*
X8254147Y51949280D01*
X8175110Y51907960D01*
X8020975Y51784032D01*
X7893846Y51632526D01*
X7890879Y51627128D01*
X7890875Y51627123D01*
X7840415Y51535335D01*
X7798567Y51459213D01*
X7796706Y51453346D01*
X7796705Y51453344D01*
X7775450Y51386340D01*
X7738765Y51270694D01*
X7716719Y51074149D01*
X-3971500Y51074149D01*
X-3971500Y54878028D01*
X-3492276Y54878028D01*
X-3492010Y54874687D01*
X-3492010Y54874682D01*
X-3477171Y54688223D01*
X-3462616Y54505320D01*
X-3461996Y54502025D01*
X-3461996Y54502022D01*
X-3426714Y54314404D01*
X-3393518Y54137874D01*
X-3285766Y53779851D01*
X-3140578Y53435306D01*
X-2959600Y53108139D01*
X-2957679Y53105401D01*
X-2957673Y53105391D01*
X-2746803Y52804798D01*
X-2744880Y52802057D01*
X-2498851Y52520524D01*
X-2224298Y52266730D01*
X-1924330Y52043548D01*
X-1921443Y52041844D01*
X-1605236Y51855211D01*
X-1605231Y51855208D01*
X-1602345Y51853505D01*
X-1261987Y51698754D01*
X-1080479Y51638550D01*
X-910304Y51582105D01*
X-910297Y51582103D01*
X-907113Y51581047D01*
X-903828Y51580334D01*
X-903829Y51580334D01*
X-545019Y51502428D01*
X-545016Y51502428D01*
X-541739Y51501716D01*
X-346413Y51480669D01*
X-172523Y51461932D01*
X-172515Y51461931D01*
X-170005Y51461661D01*
X-167485Y51461593D01*
X-167473Y51461592D01*
X-165485Y51461539D01*
X-164055Y51461500D01*
X113461Y51461500D01*
X115127Y51461589D01*
X115136Y51461589D01*
X390022Y51476236D01*
X390028Y51476237D01*
X393357Y51476414D01*
X396649Y51476944D01*
X396656Y51476945D01*
X759170Y51535335D01*
X759171Y51535335D01*
X762485Y51535869D01*
X765725Y51536752D01*
X765728Y51536753D01*
X1119960Y51633328D01*
X1119961Y51633328D01*
X1123206Y51634213D01*
X1471434Y51770331D01*
X1474416Y51771880D01*
X1800256Y51941140D01*
X1800259Y51941142D01*
X1803226Y51942683D01*
X2114824Y52149317D01*
X2402700Y52387892D01*
X2663595Y52655708D01*
X2776574Y52799536D01*
X2892481Y52947093D01*
X2892482Y52947095D01*
X2894553Y52949731D01*
X3092959Y53266631D01*
X3256566Y53602821D01*
X3383523Y53954493D01*
X3472390Y54317664D01*
X3522163Y54688223D01*
X3532276Y55061972D01*
X3532010Y55065318D01*
X3502883Y55431331D01*
X3502882Y55431340D01*
X3502616Y55434680D01*
X3501996Y55437978D01*
X3434136Y55798842D01*
X3434134Y55798850D01*
X3433518Y55802126D01*
X3325766Y56160149D01*
X3249872Y56340253D01*
X3181878Y56501610D01*
X3181875Y56501617D01*
X3180578Y56504694D01*
X2999600Y56831861D01*
X2997679Y56834599D01*
X2997673Y56834609D01*
X2786803Y57135202D01*
X2786802Y57135204D01*
X2784880Y57137943D01*
X2538851Y57419476D01*
X2264298Y57673270D01*
X1964330Y57896452D01*
X1845526Y57966573D01*
X1645236Y58084789D01*
X1645231Y58084792D01*
X1642345Y58086495D01*
X1301987Y58241246D01*
X1104735Y58306672D01*
X950304Y58357895D01*
X950297Y58357897D01*
X947113Y58358953D01*
X803319Y58390174D01*
X585019Y58437572D01*
X585016Y58437572D01*
X581739Y58438284D01*
X345270Y58463764D01*
X212523Y58478068D01*
X212515Y58478069D01*
X210005Y58478339D01*
X207485Y58478407D01*
X207473Y58478408D01*
X205485Y58478461D01*
X204055Y58478500D01*
X-73461Y58478500D01*
X-75127Y58478411D01*
X-75136Y58478411D01*
X-350022Y58463764D01*
X-350028Y58463763D01*
X-353357Y58463586D01*
X-356649Y58463056D01*
X-356656Y58463055D01*
X-719170Y58404665D01*
X-722485Y58404131D01*
X-725725Y58403248D01*
X-725728Y58403247D01*
X-1079960Y58306672D01*
X-1083206Y58305787D01*
X-1431434Y58169669D01*
X-1434416Y58168120D01*
X-1599322Y58082458D01*
X-1763226Y57997317D01*
X-2074824Y57790683D01*
X-2362700Y57552108D01*
X-2623595Y57284292D01*
X-2625662Y57281660D01*
X-2625666Y57281656D01*
X-2738554Y57137943D01*
X-2854553Y56990269D01*
X-3052959Y56673369D01*
X-3216566Y56337179D01*
X-3343523Y55985507D01*
X-3432390Y55622336D01*
X-3482163Y55251777D01*
X-3492276Y54878028D01*
X-3971500Y54878028D01*
X-3971500Y55916750D01*
X-3969754Y55937655D01*
X-3967230Y55952656D01*
X-3967230Y55952659D01*
X-3966424Y55957448D01*
X-3966271Y55970000D01*
X-3966961Y55974820D01*
X-3968356Y55984563D01*
X-3969455Y56009017D01*
X-3955458Y56276098D01*
X-3954080Y56289215D01*
X-3932653Y56424497D01*
X-3907162Y56585445D01*
X-3904420Y56598345D01*
X-3841850Y56831861D01*
X-3826793Y56888052D01*
X-3822719Y56900591D01*
X-3789385Y56987427D01*
X-3715237Y57180588D01*
X-3709874Y57192635D01*
X-3573711Y57459870D01*
X-3567117Y57471291D01*
X-3403764Y57722832D01*
X-3396016Y57733495D01*
X-3207273Y57966573D01*
X-3198448Y57976374D01*
X-2986374Y58188448D01*
X-2976573Y58197273D01*
X-2842569Y58305787D01*
X-2743492Y58386018D01*
X-2732832Y58393764D01*
X-2481286Y58557120D01*
X-2469870Y58563711D01*
X-2202635Y58699874D01*
X-2190587Y58705238D01*
X-1910586Y58812721D01*
X-1898052Y58816793D01*
X-1753196Y58855608D01*
X-1608345Y58894420D01*
X-1595445Y58897162D01*
X-1514134Y58910040D01*
X-1299209Y58944081D01*
X-1286101Y58945458D01*
X-1210937Y58949397D01*
X-1022701Y58959262D01*
X-996724Y58957935D01*
X-995154Y58957691D01*
X-995150Y58957691D01*
X-986276Y58956309D01*
X-977374Y58957473D01*
X-977372Y58957473D01*
X-962323Y58959441D01*
X-954714Y58960436D01*
X-938379Y58961500D01*
X7291387Y58961500D01*
X7359508Y58941498D01*
G37*
%TD.AperFunction*%
%TD*%
M02*
