%TF.GenerationSoftware,KiCad,Pcbnew,6.0.11-2627ca5db0~126~ubuntu20.04.1*%
%TF.CreationDate,2023-09-23T16:44:06-04:00*%
%TF.ProjectId,water_meter,77617465-725f-46d6-9574-65722e6b6963,rev?*%
%TF.SameCoordinates,Original*%
%TF.FileFunction,Soldermask,Top*%
%TF.FilePolarity,Negative*%
%FSLAX46Y46*%
G04 Gerber Fmt 4.6, Leading zero omitted, Abs format (unit mm)*
G04 Created by KiCad (PCBNEW 6.0.11-2627ca5db0~126~ubuntu20.04.1) date 2023-09-23 16:44:06*
%MOMM*%
%LPD*%
G01*
G04 APERTURE LIST*
G04 Aperture macros list*
%AMRoundRect*
0 Rectangle with rounded corners*
0 $1 Rounding radius*
0 $2 $3 $4 $5 $6 $7 $8 $9 X,Y pos of 4 corners*
0 Add a 4 corners polygon primitive as box body*
4,1,4,$2,$3,$4,$5,$6,$7,$8,$9,$2,$3,0*
0 Add four circle primitives for the rounded corners*
1,1,$1+$1,$2,$3*
1,1,$1+$1,$4,$5*
1,1,$1+$1,$6,$7*
1,1,$1+$1,$8,$9*
0 Add four rect primitives between the rounded corners*
20,1,$1+$1,$2,$3,$4,$5,0*
20,1,$1+$1,$4,$5,$6,$7,0*
20,1,$1+$1,$6,$7,$8,$9,0*
20,1,$1+$1,$8,$9,$2,$3,0*%
G04 Aperture macros list end*
%ADD10RoundRect,0.250000X0.475000X-0.250000X0.475000X0.250000X-0.475000X0.250000X-0.475000X-0.250000X0*%
%ADD11RoundRect,0.250000X0.250000X0.475000X-0.250000X0.475000X-0.250000X-0.475000X0.250000X-0.475000X0*%
%ADD12C,6.000000*%
%ADD13RoundRect,0.250000X-0.262500X-0.450000X0.262500X-0.450000X0.262500X0.450000X-0.262500X0.450000X0*%
%ADD14RoundRect,0.243750X-0.243750X-0.456250X0.243750X-0.456250X0.243750X0.456250X-0.243750X0.456250X0*%
%ADD15RoundRect,0.012800X-0.357200X-0.147200X0.357200X-0.147200X0.357200X0.147200X-0.357200X0.147200X0*%
%ADD16R,1.300000X2.000000*%
%ADD17C,0.500000*%
%ADD18R,1.350000X0.400000*%
%ADD19R,1.400000X1.600000*%
%ADD20R,1.900000X1.900000*%
%ADD21O,1.800000X0.900000*%
%ADD22RoundRect,0.102000X0.127000X0.165100X-0.127000X0.165100X-0.127000X-0.165100X0.127000X-0.165100X0*%
%ADD23RoundRect,0.102000X0.127000X0.254000X-0.127000X0.254000X-0.127000X-0.254000X0.127000X-0.254000X0*%
%ADD24RoundRect,0.102000X0.127000X0.177800X-0.127000X0.177800X-0.127000X-0.177800X0.127000X-0.177800X0*%
%ADD25RoundRect,0.102000X0.215900X-0.127000X0.215900X0.127000X-0.215900X0.127000X-0.215900X-0.127000X0*%
%ADD26RoundRect,0.102000X0.254000X-0.127000X0.254000X0.127000X-0.254000X0.127000X-0.254000X-0.127000X0*%
%ADD27RoundRect,0.250000X-0.250000X-0.475000X0.250000X-0.475000X0.250000X0.475000X-0.250000X0.475000X0*%
%ADD28RoundRect,0.250000X0.262500X0.450000X-0.262500X0.450000X-0.262500X-0.450000X0.262500X-0.450000X0*%
%ADD29RoundRect,0.250000X0.450000X-0.262500X0.450000X0.262500X-0.450000X0.262500X-0.450000X-0.262500X0*%
%ADD30RoundRect,0.250000X-0.475000X0.250000X-0.475000X-0.250000X0.475000X-0.250000X0.475000X0.250000X0*%
%ADD31R,1.900000X1.100000*%
%ADD32RoundRect,0.250000X-0.450000X0.262500X-0.450000X-0.262500X0.450000X-0.262500X0.450000X0.262500X0*%
%ADD33R,1.500000X0.900000*%
%ADD34R,0.900000X1.500000*%
%ADD35R,0.900000X0.900000*%
%ADD36RoundRect,0.250000X-0.625000X0.375000X-0.625000X-0.375000X0.625000X-0.375000X0.625000X0.375000X0*%
%ADD37R,0.650000X1.560000*%
%ADD38R,1.500000X1.000000*%
%ADD39RoundRect,0.150000X-0.825000X-0.150000X0.825000X-0.150000X0.825000X0.150000X-0.825000X0.150000X0*%
%ADD40R,0.765000X0.210000*%
%ADD41RoundRect,0.100000X-0.712500X-0.100000X0.712500X-0.100000X0.712500X0.100000X-0.712500X0.100000X0*%
%ADD42RoundRect,0.150000X0.150000X-0.587500X0.150000X0.587500X-0.150000X0.587500X-0.150000X-0.587500X0*%
%ADD43C,1.000000*%
%ADD44R,1.000000X0.700000*%
%ADD45C,1.530000*%
%ADD46C,5.175000*%
%ADD47R,1.700000X1.700000*%
%ADD48O,1.700000X1.700000*%
G04 APERTURE END LIST*
D10*
%TO.C,C10*%
X75530000Y9260000D03*
X75530000Y11160000D03*
%TD*%
D11*
%TO.C,C9*%
X71260000Y15510000D03*
X69360000Y15510000D03*
%TD*%
D12*
%TO.C,H2*%
X20000Y-30000D03*
%TD*%
%TO.C,H3*%
X85020000Y54970000D03*
%TD*%
D13*
%TO.C,R6*%
X69297500Y1080000D03*
X71122500Y1080000D03*
%TD*%
D14*
%TO.C,D2*%
X69322500Y4400000D03*
X71197500Y4400000D03*
%TD*%
D15*
%TO.C,U3*%
X41275000Y45942500D03*
X41275000Y45292500D03*
X41275000Y44642500D03*
X43765000Y44642500D03*
X43765000Y45292500D03*
X43765000Y45942500D03*
D16*
X42520000Y45292500D03*
%TD*%
D12*
%TO.C,H4*%
X85020000Y-30000D03*
%TD*%
%TO.C,H1*%
X20000Y54970000D03*
%TD*%
D17*
%TO.C,J4*%
X-2855000Y34880000D03*
X-2855000Y41480000D03*
D18*
X-180000Y39480000D03*
X-180000Y38830000D03*
X-180000Y38180000D03*
X-180000Y37530000D03*
X-180000Y36880000D03*
D19*
X-405000Y41380000D03*
X-405000Y34980000D03*
D20*
X-2855000Y36980000D03*
X-2855000Y39380000D03*
D21*
X-2855000Y41480000D03*
X-2855000Y34880000D03*
%TD*%
D22*
%TO.C,U4*%
X41084472Y24955640D03*
D23*
X41465472Y25031840D03*
D24*
X41871872Y24955640D03*
X42278272Y24955640D03*
X42684672Y24955640D03*
D22*
X43065672Y24955640D03*
D25*
X43472070Y25387444D03*
D26*
X43421270Y25768444D03*
X43421270Y26174844D03*
X43421270Y26581244D03*
X43421270Y26987644D03*
D25*
X43472070Y27368644D03*
D22*
X43065672Y27800440D03*
D24*
X42684672Y27800440D03*
X42278272Y27800440D03*
X41871872Y27800440D03*
X41465472Y27800440D03*
D22*
X41084472Y27800440D03*
D25*
X40678070Y27368644D03*
D26*
X40728870Y26987644D03*
X40728870Y26581244D03*
X40728870Y26174844D03*
X40728870Y25768444D03*
D25*
X40678070Y25387444D03*
%TD*%
D27*
%TO.C,C3*%
X6412500Y1290000D03*
X8312500Y1290000D03*
%TD*%
D28*
%TO.C,R7*%
X74832500Y27740000D03*
X73007500Y27740000D03*
%TD*%
D29*
%TO.C,R9*%
X8590000Y16077500D03*
X8590000Y17902500D03*
%TD*%
D30*
%TO.C,C4*%
X33580000Y4740000D03*
X33580000Y2840000D03*
%TD*%
%TO.C,C6*%
X36580000Y4740000D03*
X36580000Y2840000D03*
%TD*%
D13*
%TO.C,R2*%
X47357500Y11400000D03*
X49182500Y11400000D03*
%TD*%
%TO.C,R1*%
X6450000Y4370000D03*
X8275000Y4370000D03*
%TD*%
%TO.C,R3*%
X47267500Y14750000D03*
X49092500Y14750000D03*
%TD*%
D31*
%TO.C,Y1*%
X52157500Y14817500D03*
X52157500Y12317500D03*
%TD*%
D11*
%TO.C,C2*%
X57307500Y15272500D03*
X55407500Y15272500D03*
%TD*%
D32*
%TO.C,R5*%
X82870000Y25532500D03*
X82870000Y23707500D03*
%TD*%
D11*
%TO.C,C1*%
X57307500Y11942500D03*
X55407500Y11942500D03*
%TD*%
D33*
%TO.C,U2*%
X30480000Y4540000D03*
X30480000Y5810000D03*
X30480000Y7080000D03*
X30480000Y8350000D03*
X30480000Y9620000D03*
X30480000Y10890000D03*
X30480000Y12160000D03*
X30480000Y13430000D03*
X30480000Y14700000D03*
X30480000Y15970000D03*
X30480000Y17240000D03*
X30480000Y18510000D03*
X30480000Y19780000D03*
X30480000Y21050000D03*
D34*
X28715000Y22300000D03*
X27445000Y22300000D03*
X26175000Y22300000D03*
X24905000Y22300000D03*
X23635000Y22300000D03*
X22365000Y22300000D03*
X21095000Y22300000D03*
X19825000Y22300000D03*
X18555000Y22300000D03*
X17285000Y22300000D03*
X16015000Y22300000D03*
X14745000Y22300000D03*
D33*
X12980000Y21050000D03*
X12980000Y19780000D03*
X12980000Y18510000D03*
X12980000Y17240000D03*
X12980000Y15970000D03*
X12980000Y14700000D03*
X12980000Y13430000D03*
X12980000Y12160000D03*
X12980000Y10890000D03*
X12980000Y9620000D03*
X12980000Y8350000D03*
X12980000Y7080000D03*
X12980000Y5810000D03*
X12980000Y4540000D03*
D35*
X23230000Y12260000D03*
X23230000Y13660000D03*
X21830000Y13660000D03*
X21830000Y10860000D03*
X23230000Y10860000D03*
X24630000Y12260000D03*
X24630000Y13660000D03*
X21830000Y12260000D03*
X24630000Y10860000D03*
%TD*%
D13*
%TO.C,R4*%
X40147500Y17570000D03*
X41972500Y17570000D03*
%TD*%
D10*
%TO.C,C5*%
X9320000Y41500000D03*
X9320000Y43400000D03*
%TD*%
D36*
%TO.C,F1*%
X6570000Y43380000D03*
X6570000Y40580000D03*
%TD*%
D37*
%TO.C,U1*%
X71260000Y11560000D03*
X70310000Y11560000D03*
X69360000Y11560000D03*
X69360000Y8860000D03*
X71260000Y8860000D03*
%TD*%
D38*
%TO.C,J2*%
X40960000Y21410000D03*
X40960000Y20110000D03*
%TD*%
D10*
%TO.C,C17*%
X6450000Y45820000D03*
X6450000Y47720000D03*
%TD*%
D30*
%TO.C,C14*%
X80630000Y48210000D03*
X80630000Y46310000D03*
%TD*%
%TO.C,C8*%
X77410000Y48210000D03*
X77410000Y46310000D03*
%TD*%
D39*
%TO.C,U8*%
X19195000Y29735000D03*
X19195000Y28465000D03*
X19195000Y27195000D03*
X19195000Y25925000D03*
X24145000Y25925000D03*
X24145000Y27195000D03*
X24145000Y28465000D03*
X24145000Y29735000D03*
%TD*%
D29*
%TO.C,R8*%
X85060000Y42517500D03*
X85060000Y44342500D03*
%TD*%
%TO.C,R16*%
X49430000Y37247500D03*
X49430000Y39072500D03*
%TD*%
D27*
%TO.C,C19*%
X62830000Y15520000D03*
X64730000Y15520000D03*
%TD*%
D28*
%TO.C,R10*%
X64664500Y11492000D03*
X62839500Y11492000D03*
%TD*%
D32*
%TO.C,R15*%
X35980000Y33632500D03*
X35980000Y31807500D03*
%TD*%
D30*
%TO.C,C16*%
X33350000Y33630000D03*
X33350000Y31730000D03*
%TD*%
D10*
%TO.C,C13*%
X71880000Y39450000D03*
X71880000Y41350000D03*
%TD*%
D32*
%TO.C,R11*%
X20920000Y46192500D03*
X20920000Y44367500D03*
%TD*%
D40*
%TO.C,U9*%
X57302000Y26990000D03*
X57302000Y26590000D03*
X57302000Y26190000D03*
X57302000Y25790000D03*
X57302000Y25390000D03*
X58838000Y25390000D03*
X58838000Y25790000D03*
X58838000Y26190000D03*
X58838000Y26590000D03*
X58838000Y26990000D03*
%TD*%
D32*
%TO.C,R12*%
X16220000Y41580000D03*
X16220000Y39755000D03*
%TD*%
D41*
%TO.C,U5*%
X75957500Y43175000D03*
X75957500Y42525000D03*
X75957500Y41875000D03*
X75957500Y41225000D03*
X80182500Y41225000D03*
X80182500Y41875000D03*
X80182500Y42525000D03*
X80182500Y43175000D03*
%TD*%
D11*
%TO.C,C12*%
X39320000Y44180000D03*
X37420000Y44180000D03*
%TD*%
D42*
%TO.C,Q3*%
X69320000Y18392500D03*
X71220000Y18392500D03*
X70270000Y20267500D03*
%TD*%
D30*
%TO.C,C7*%
X71870000Y46000000D03*
X71870000Y44100000D03*
%TD*%
D11*
%TO.C,C18*%
X45510000Y31910000D03*
X43610000Y31910000D03*
%TD*%
D29*
%TO.C,R13*%
X13670000Y39755000D03*
X13670000Y41580000D03*
%TD*%
D31*
%TO.C,Y2*%
X67730000Y41585000D03*
X67730000Y44085000D03*
%TD*%
D29*
%TO.C,R17*%
X46980000Y37297500D03*
X46980000Y39122500D03*
%TD*%
D13*
%TO.C,R14*%
X62819500Y8510000D03*
X64644500Y8510000D03*
%TD*%
D42*
%TO.C,Q2*%
X13670000Y44392500D03*
X15570000Y44392500D03*
X14620000Y46267500D03*
%TD*%
D29*
%TO.C,R19*%
X52250000Y18237500D03*
X52250000Y20062500D03*
%TD*%
D27*
%TO.C,C11*%
X49480000Y43170000D03*
X51380000Y43170000D03*
%TD*%
D28*
%TO.C,R18*%
X52522500Y27700000D03*
X50697500Y27700000D03*
%TD*%
D43*
%TO.C,TP1*%
X53810000Y30020000D03*
%TD*%
D44*
%TO.C,S1*%
X3220000Y44430000D03*
X-2780000Y44430000D03*
X3220000Y48130000D03*
X-2780000Y48130000D03*
%TD*%
D30*
%TO.C,C15*%
X18270000Y46230000D03*
X18270000Y44330000D03*
%TD*%
D45*
%TO.C,J1*%
X68525000Y22900000D03*
X68525000Y35600000D03*
D46*
X42105000Y35600000D03*
X42105000Y5750000D03*
%TD*%
D47*
%TO.C,J3*%
X2273333Y21250000D03*
D48*
X2273333Y18710000D03*
X2273333Y16170000D03*
X2273333Y13630000D03*
X2273333Y11090000D03*
X2273333Y8550000D03*
%TD*%
D47*
%TO.C,J5*%
X78810000Y27650000D03*
D48*
X78810000Y25110000D03*
X78810000Y22570000D03*
X78810000Y20030000D03*
%TD*%
M02*
