G04 #@! TF.GenerationSoftware,KiCad,Pcbnew,6.0.11-2627ca5db0~126~ubuntu20.04.1*
G04 #@! TF.CreationDate,2023-04-04T17:10:52-04:00*
G04 #@! TF.ProjectId,water_meter,77617465-725f-46d6-9574-65722e6b6963,rev?*
G04 #@! TF.SameCoordinates,Original*
G04 #@! TF.FileFunction,Copper,L4,Bot*
G04 #@! TF.FilePolarity,Positive*
%FSLAX46Y46*%
G04 Gerber Fmt 4.6, Leading zero omitted, Abs format (unit mm)*
G04 Created by KiCad (PCBNEW 6.0.11-2627ca5db0~126~ubuntu20.04.1) date 2023-04-04 17:10:52*
%MOMM*%
%LPD*%
G01*
G04 APERTURE LIST*
G04 #@! TA.AperFunction,ComponentPad*
%ADD10C,1.530000*%
G04 #@! TD*
G04 #@! TA.AperFunction,ComponentPad*
%ADD11C,5.175000*%
G04 #@! TD*
G04 #@! TA.AperFunction,ComponentPad*
%ADD12C,5.000000*%
G04 #@! TD*
G04 #@! TA.AperFunction,ComponentPad*
%ADD13O,1.800000X0.900000*%
G04 #@! TD*
G04 #@! TA.AperFunction,ComponentPad*
%ADD14R,1.700000X1.700000*%
G04 #@! TD*
G04 #@! TA.AperFunction,ComponentPad*
%ADD15O,1.700000X1.700000*%
G04 #@! TD*
G04 #@! TA.AperFunction,ViaPad*
%ADD16C,1.000000*%
G04 #@! TD*
G04 #@! TA.AperFunction,Conductor*
%ADD17C,0.400000*%
G04 #@! TD*
G04 #@! TA.AperFunction,Conductor*
%ADD18C,0.700000*%
G04 #@! TD*
G04 #@! TA.AperFunction,Conductor*
%ADD19C,2.000000*%
G04 #@! TD*
G04 #@! TA.AperFunction,Conductor*
%ADD20C,0.500000*%
G04 #@! TD*
G04 APERTURE END LIST*
D10*
X183355000Y-120230000D03*
X183355000Y-107530000D03*
D11*
X156935000Y-107530000D03*
X156935000Y-137380000D03*
D12*
X114850000Y-143160000D03*
X199850000Y-88160000D03*
X199850000Y-143160000D03*
X114850000Y-88160000D03*
D13*
X112062500Y-103405750D03*
X112062500Y-110005750D03*
D14*
X117103333Y-121880000D03*
D15*
X117103333Y-124420000D03*
X117103333Y-126960000D03*
X117103333Y-129500000D03*
X117103333Y-132040000D03*
X117103333Y-134580000D03*
D14*
X193690000Y-117980000D03*
D15*
X193690000Y-120520000D03*
D16*
X132900000Y-103200000D03*
X141900000Y-133100000D03*
X127100000Y-113300000D03*
X137600000Y-134500000D03*
X125300000Y-114900000D03*
X197000000Y-137950000D03*
X181550000Y-131620000D03*
X170900000Y-133900000D03*
X181520000Y-129530000D03*
X157480000Y-102870000D03*
X140208000Y-115824000D03*
X134794000Y-108030000D03*
X133096000Y-114300000D03*
X130556000Y-124206000D03*
X139650000Y-101050000D03*
X171600000Y-139350000D03*
X192050000Y-129500000D03*
X195650000Y-98450000D03*
X192800000Y-107750000D03*
X128800000Y-92800000D03*
X140100000Y-124790000D03*
X112210000Y-113650000D03*
X177450000Y-96950000D03*
X166895000Y-123770000D03*
X173450000Y-96950000D03*
X114000000Y-99200000D03*
X175200000Y-105800000D03*
X121850000Y-103750000D03*
X112440000Y-138790000D03*
X119430000Y-145510000D03*
X153670000Y-115062000D03*
X181300000Y-142200000D03*
X127200000Y-141200000D03*
X163322000Y-115062000D03*
X181300000Y-139950000D03*
X144890000Y-141830000D03*
X146950000Y-141850000D03*
X169400000Y-105900000D03*
X151130000Y-108458000D03*
X138235000Y-124790000D03*
X166800000Y-110250000D03*
X125400000Y-137650000D03*
X161650000Y-139300000D03*
X166615000Y-139250000D03*
X136370000Y-124790000D03*
X192800000Y-113100000D03*
X173570000Y-112410000D03*
X160782000Y-109728000D03*
X147900000Y-100850000D03*
X142480000Y-135990000D03*
X164690000Y-116580000D03*
X176600000Y-126860000D03*
X172530000Y-123040000D03*
X182730000Y-125200000D03*
X189040000Y-140120000D03*
X199760000Y-115080000D03*
X189040000Y-141610000D03*
X162400000Y-123720000D03*
X148690000Y-108030000D03*
X199780000Y-126320000D03*
X166570000Y-103290000D03*
X142570000Y-137900000D03*
X189040000Y-142970000D03*
X125380000Y-139440000D03*
X148800000Y-132620000D03*
X178140000Y-119700000D03*
X178240000Y-123310000D03*
X149720000Y-134780000D03*
X132740000Y-131590000D03*
X135850000Y-115790000D03*
X182960000Y-116360000D03*
X177040000Y-116630000D03*
X154480000Y-98900000D03*
X162320000Y-116990000D03*
X189740000Y-100365000D03*
X189720000Y-115870000D03*
X142080000Y-130580000D03*
X189690000Y-127550000D03*
D17*
X132900000Y-103200000D02*
X132900000Y-106136000D01*
X132900000Y-106136000D02*
X134794000Y-108030000D01*
X128300000Y-133500000D02*
X127100000Y-132300000D01*
X127100000Y-132300000D02*
X127100000Y-113300000D01*
X134400000Y-133500000D02*
X128300000Y-133500000D01*
X141900000Y-133100000D02*
X134800000Y-133100000D01*
X134800000Y-133100000D02*
X134400000Y-133500000D01*
X127000000Y-134500000D02*
X137600000Y-134500000D01*
X126900000Y-134400000D02*
X127000000Y-134500000D01*
X125300000Y-114900000D02*
X125300000Y-132800000D01*
X125300000Y-132800000D02*
X126900000Y-134400000D01*
D18*
X160274000Y-102870000D02*
X157480000Y-102870000D01*
X166570000Y-103290000D02*
X160694000Y-103290000D01*
X160694000Y-103290000D02*
X160274000Y-102870000D01*
D17*
X162320000Y-116990000D02*
X157840000Y-116990000D01*
X154480000Y-101298000D02*
X154480000Y-98900000D01*
X157840000Y-116990000D02*
X155956000Y-115106000D01*
X155956000Y-115106000D02*
X155956000Y-112776000D01*
X155956000Y-112776000D02*
X152782396Y-109602396D01*
X152782396Y-109602396D02*
X152782396Y-102995604D01*
X152782396Y-102995604D02*
X154480000Y-101298000D01*
D19*
X134794000Y-108030000D02*
X138002000Y-108030000D01*
X138002000Y-108030000D02*
X140820000Y-108030000D01*
D17*
X140208000Y-115824000D02*
X140208000Y-110236000D01*
X140208000Y-110236000D02*
X138002000Y-108030000D01*
D19*
X122110000Y-108030000D02*
X134794000Y-108030000D01*
D17*
X132588000Y-114808000D02*
X133096000Y-114300000D01*
X130556000Y-124206000D02*
X130556000Y-116840000D01*
X130556000Y-116840000D02*
X132588000Y-114808000D01*
D20*
X118513333Y-135990000D02*
X117103333Y-134580000D01*
X142480000Y-135990000D02*
X118513333Y-135990000D01*
D17*
X181070000Y-126860000D02*
X182730000Y-125200000D01*
X170710000Y-116640000D02*
X172530000Y-118460000D01*
X172530000Y-118460000D02*
X172530000Y-123040000D01*
X164690000Y-116580000D02*
X164750000Y-116640000D01*
X176600000Y-126860000D02*
X181070000Y-126860000D01*
X164750000Y-116640000D02*
X170710000Y-116640000D01*
D19*
X189040000Y-140120000D02*
X189060000Y-140140000D01*
D20*
X115120000Y-126960000D02*
X112990000Y-124830000D01*
D17*
X162400000Y-123720000D02*
X159440000Y-120760000D01*
D20*
X141740000Y-108030000D02*
X140820000Y-108030000D01*
X140320000Y-145180000D02*
X137910000Y-145180000D01*
X117103333Y-126960000D02*
X115120000Y-126960000D01*
D19*
X112990000Y-124830000D02*
X112990000Y-121893333D01*
D17*
X152000000Y-118290000D02*
X141740000Y-108030000D01*
D19*
X112980000Y-121883333D02*
X112980000Y-117160000D01*
X187240000Y-145180000D02*
X137910000Y-145180000D01*
X189060000Y-140140000D02*
X189060000Y-143570000D01*
D17*
X154470000Y-120760000D02*
X152000000Y-118290000D01*
D20*
X125380000Y-143010000D02*
X127700000Y-145330000D01*
X199780000Y-115100000D02*
X199760000Y-115080000D01*
D19*
X112980000Y-117160000D02*
X122110000Y-108030000D01*
D20*
X142570000Y-137900000D02*
X142570000Y-142930000D01*
D19*
X140820000Y-108030000D02*
X148690000Y-108030000D01*
X112990000Y-121893333D02*
X112980000Y-121883333D01*
X123550000Y-145130000D02*
X112990000Y-134570000D01*
X189060000Y-143570000D02*
X187450000Y-145180000D01*
X112990000Y-134570000D02*
X112990000Y-124830000D01*
X187450000Y-145180000D02*
X187390000Y-145180000D01*
X137910000Y-145180000D02*
X123840000Y-145180000D01*
D20*
X125380000Y-139440000D02*
X125380000Y-143010000D01*
D17*
X159440000Y-120760000D02*
X154470000Y-120760000D01*
D20*
X199780000Y-126320000D02*
X199780000Y-115100000D01*
X142570000Y-142930000D02*
X140320000Y-145180000D01*
D17*
X149020000Y-132400000D02*
X164530000Y-132400000D01*
X148800000Y-132620000D02*
X149020000Y-132400000D01*
X165440000Y-132400000D02*
X178140000Y-119700000D01*
X164530000Y-132400000D02*
X165440000Y-132400000D01*
X193690000Y-117980000D02*
X179860000Y-117980000D01*
X179860000Y-117980000D02*
X178140000Y-119700000D01*
X150880000Y-133620000D02*
X164300000Y-133620000D01*
X149720000Y-134780000D02*
X150880000Y-133620000D01*
X186330000Y-123310000D02*
X178240000Y-123310000D01*
X164300000Y-133620000D02*
X165830000Y-133620000D01*
X193690000Y-120520000D02*
X189120000Y-120520000D01*
X165830000Y-133620000D02*
X176140000Y-123310000D01*
X189120000Y-120520000D02*
X186330000Y-123310000D01*
X178240000Y-123310000D02*
X176140000Y-123310000D01*
X132740000Y-118900000D02*
X132740000Y-131590000D01*
X135850000Y-115790000D02*
X132740000Y-118900000D01*
X182960000Y-116360000D02*
X177310000Y-116360000D01*
X177310000Y-116360000D02*
X177040000Y-116630000D01*
X189690000Y-127550000D02*
X175370000Y-141870000D01*
X153370000Y-141870000D02*
X142080000Y-130580000D01*
X189740000Y-100365000D02*
X189740000Y-115850000D01*
X175370000Y-141870000D02*
X153370000Y-141870000D01*
X189740000Y-115850000D02*
X189720000Y-115870000D01*
G04 #@! TA.AperFunction,Conductor*
G36*
X122189508Y-84188502D02*
G01*
X122199635Y-84195742D01*
X123178365Y-84971230D01*
X123179026Y-84971726D01*
X124157242Y-85705809D01*
X124354375Y-85853744D01*
X124355063Y-85854232D01*
X124355080Y-85854245D01*
X124799617Y-86169929D01*
X125553167Y-86705056D01*
X126773911Y-87524577D01*
X126774604Y-87525016D01*
X128015090Y-88311314D01*
X128015116Y-88311330D01*
X128015766Y-88311742D01*
X128016463Y-88312159D01*
X128016480Y-88312169D01*
X128183813Y-88412171D01*
X129277874Y-89066007D01*
X130559364Y-89786851D01*
X131859350Y-90473778D01*
X131860086Y-90474142D01*
X131860085Y-90474142D01*
X133176254Y-91125975D01*
X133176270Y-91125983D01*
X133176935Y-91126312D01*
X133177598Y-91126619D01*
X133177619Y-91126629D01*
X134391537Y-91688602D01*
X134511210Y-91744004D01*
X134511963Y-91744329D01*
X134511979Y-91744336D01*
X134918489Y-91919708D01*
X135861254Y-92326425D01*
X137226133Y-92873176D01*
X138604907Y-93383877D01*
X138605683Y-93384142D01*
X138605707Y-93384150D01*
X139372784Y-93645571D01*
X139996622Y-93858177D01*
X139997434Y-93858430D01*
X141399510Y-94295495D01*
X141399523Y-94295499D01*
X141400319Y-94295747D01*
X142238434Y-94533039D01*
X142814277Y-94696075D01*
X142814300Y-94696081D01*
X142815027Y-94696287D01*
X144239771Y-95059519D01*
X145673566Y-95385192D01*
X145674347Y-95385348D01*
X145674366Y-95385352D01*
X147114575Y-95672913D01*
X147114598Y-95672917D01*
X147115423Y-95673082D01*
X148564347Y-95922990D01*
X148565134Y-95923104D01*
X148565162Y-95923109D01*
X150018455Y-96134615D01*
X150018471Y-96134617D01*
X150019336Y-96134743D01*
X150020178Y-96134843D01*
X150020208Y-96134847D01*
X151478549Y-96308096D01*
X151478582Y-96308099D01*
X151479386Y-96308195D01*
X151480198Y-96308270D01*
X151480199Y-96308270D01*
X152942684Y-96443153D01*
X152942702Y-96443154D01*
X152943489Y-96443227D01*
X152944319Y-96443282D01*
X152944324Y-96443282D01*
X154409783Y-96539689D01*
X154409787Y-96539689D01*
X154410635Y-96539745D01*
X154411449Y-96539777D01*
X154411485Y-96539779D01*
X155167483Y-96569591D01*
X155879810Y-96597682D01*
X155880576Y-96597692D01*
X155880611Y-96597693D01*
X157349163Y-96616988D01*
X157350000Y-96616999D01*
X157350837Y-96616988D01*
X158819389Y-96597693D01*
X158819424Y-96597692D01*
X158820190Y-96597682D01*
X159532517Y-96569591D01*
X160288515Y-96539779D01*
X160288551Y-96539777D01*
X160289365Y-96539745D01*
X160290213Y-96539689D01*
X160290217Y-96539689D01*
X161755676Y-96443282D01*
X161755681Y-96443282D01*
X161756511Y-96443227D01*
X161757298Y-96443154D01*
X161757316Y-96443153D01*
X163219801Y-96308270D01*
X163219802Y-96308270D01*
X163220614Y-96308195D01*
X163221418Y-96308099D01*
X163221451Y-96308096D01*
X164679792Y-96134847D01*
X164679822Y-96134843D01*
X164680664Y-96134743D01*
X164681529Y-96134617D01*
X164681545Y-96134615D01*
X166134838Y-95923109D01*
X166134866Y-95923104D01*
X166135653Y-95922990D01*
X167584577Y-95673082D01*
X167585402Y-95672917D01*
X167585425Y-95672913D01*
X169025634Y-95385352D01*
X169025653Y-95385348D01*
X169026434Y-95385192D01*
X170460229Y-95059519D01*
X171884973Y-94696287D01*
X171885700Y-94696081D01*
X171885723Y-94696075D01*
X172461566Y-94533039D01*
X173299681Y-94295747D01*
X173300477Y-94295499D01*
X173300490Y-94295495D01*
X174702566Y-93858430D01*
X174703378Y-93858177D01*
X175327216Y-93645571D01*
X176094293Y-93384150D01*
X176094317Y-93384142D01*
X176095093Y-93383877D01*
X177473867Y-92873176D01*
X178838746Y-92326425D01*
X179781511Y-91919708D01*
X180188021Y-91744336D01*
X180188037Y-91744329D01*
X180188790Y-91744004D01*
X180308463Y-91688602D01*
X181522381Y-91126629D01*
X181522402Y-91126619D01*
X181523065Y-91126312D01*
X181523730Y-91125983D01*
X181523746Y-91125975D01*
X182839915Y-90474142D01*
X182839914Y-90474142D01*
X182840650Y-90473778D01*
X184140636Y-89786851D01*
X185422126Y-89066007D01*
X186516187Y-88412171D01*
X186683520Y-88312169D01*
X186683537Y-88312159D01*
X186684234Y-88311742D01*
X186684884Y-88311330D01*
X186684910Y-88311314D01*
X187072964Y-88065341D01*
X196837888Y-88065341D01*
X196837983Y-88068971D01*
X196837983Y-88068972D01*
X196840367Y-88160000D01*
X196846970Y-88412171D01*
X196895856Y-88755660D01*
X196983897Y-89091253D01*
X197109927Y-89414503D01*
X197111624Y-89417708D01*
X197245113Y-89669825D01*
X197272275Y-89721126D01*
X197274325Y-89724109D01*
X197274327Y-89724112D01*
X197466733Y-90004064D01*
X197466739Y-90004071D01*
X197468790Y-90007056D01*
X197696866Y-90268505D01*
X197699551Y-90270948D01*
X197909268Y-90461775D01*
X197953481Y-90502006D01*
X198235233Y-90704466D01*
X198538388Y-90873200D01*
X198858928Y-91005972D01*
X198862422Y-91006967D01*
X198862424Y-91006968D01*
X199189103Y-91100025D01*
X199189108Y-91100026D01*
X199192604Y-91101022D01*
X199348978Y-91126629D01*
X199531412Y-91156504D01*
X199531419Y-91156505D01*
X199534993Y-91157090D01*
X199708276Y-91165262D01*
X199877931Y-91173263D01*
X199877932Y-91173263D01*
X199881558Y-91173434D01*
X199890415Y-91172830D01*
X200224073Y-91150084D01*
X200224081Y-91150083D01*
X200227704Y-91149836D01*
X200231279Y-91149173D01*
X200231282Y-91149173D01*
X200565279Y-91087270D01*
X200565283Y-91087269D01*
X200568844Y-91086609D01*
X200900456Y-90984592D01*
X201218145Y-90845136D01*
X201462511Y-90702341D01*
X201514560Y-90671926D01*
X201514562Y-90671925D01*
X201517700Y-90670091D01*
X201520609Y-90667907D01*
X201792244Y-90463958D01*
X201792248Y-90463955D01*
X201795151Y-90461775D01*
X202046819Y-90222950D01*
X202269370Y-89956783D01*
X202459853Y-89666799D01*
X202588446Y-89411121D01*
X202614117Y-89360080D01*
X202614120Y-89360072D01*
X202615744Y-89356844D01*
X202734977Y-89031026D01*
X202735822Y-89027504D01*
X202735825Y-89027496D01*
X202815124Y-88697191D01*
X202815125Y-88697187D01*
X202815971Y-88693662D01*
X202850035Y-88412171D01*
X202857316Y-88352004D01*
X202857316Y-88351997D01*
X202857652Y-88349225D01*
X202858844Y-88311314D01*
X202863511Y-88162797D01*
X202863599Y-88160000D01*
X202863438Y-88157204D01*
X202843836Y-87817246D01*
X202843835Y-87817241D01*
X202843627Y-87813626D01*
X202826626Y-87716214D01*
X202784600Y-87475415D01*
X202784598Y-87475408D01*
X202783976Y-87471842D01*
X202685437Y-87139180D01*
X202681676Y-87130362D01*
X202550740Y-86823386D01*
X202550738Y-86823383D01*
X202549316Y-86820048D01*
X202499569Y-86732831D01*
X202379208Y-86521816D01*
X202377417Y-86518676D01*
X202172018Y-86239060D01*
X202168781Y-86235576D01*
X202053930Y-86111982D01*
X201935842Y-85984904D01*
X201672019Y-85759578D01*
X201384047Y-85566069D01*
X201075741Y-85406940D01*
X200751189Y-85284302D01*
X200747668Y-85283418D01*
X200747663Y-85283416D01*
X200586378Y-85242904D01*
X200414692Y-85199780D01*
X200392476Y-85196855D01*
X200074315Y-85154968D01*
X200074307Y-85154967D01*
X200070711Y-85154494D01*
X199926045Y-85152221D01*
X199727446Y-85149101D01*
X199727442Y-85149101D01*
X199723804Y-85149044D01*
X199720190Y-85149405D01*
X199720184Y-85149405D01*
X199476843Y-85173694D01*
X199378569Y-85183503D01*
X199039583Y-85257414D01*
X199036156Y-85258587D01*
X199036150Y-85258589D01*
X198957296Y-85285587D01*
X198711339Y-85369797D01*
X198398188Y-85519163D01*
X198104279Y-85703532D01*
X198101443Y-85705804D01*
X198101436Y-85705809D01*
X197917425Y-85853230D01*
X197833509Y-85920459D01*
X197589466Y-86167071D01*
X197587225Y-86169929D01*
X197389065Y-86422653D01*
X197375386Y-86440098D01*
X197373493Y-86443187D01*
X197373491Y-86443190D01*
X197327233Y-86518676D01*
X197194105Y-86735921D01*
X197192580Y-86739206D01*
X197192578Y-86739210D01*
X197153505Y-86823386D01*
X197048027Y-87050620D01*
X196939087Y-87380023D01*
X196868730Y-87719764D01*
X196837888Y-88065341D01*
X187072964Y-88065341D01*
X187925396Y-87525016D01*
X187926089Y-87524577D01*
X189146833Y-86705056D01*
X189900383Y-86169929D01*
X190344920Y-85854245D01*
X190344937Y-85854232D01*
X190345625Y-85853744D01*
X190542759Y-85705809D01*
X191520974Y-84971726D01*
X191521635Y-84971230D01*
X192500365Y-84195743D01*
X192566179Y-84169115D01*
X192578614Y-84168500D01*
X200800633Y-84168500D01*
X200820018Y-84170000D01*
X200834851Y-84172310D01*
X200834855Y-84172310D01*
X200843724Y-84173691D01*
X200862436Y-84171244D01*
X200885366Y-84170353D01*
X201156103Y-84184542D01*
X201169209Y-84185919D01*
X201384134Y-84219960D01*
X201465445Y-84232838D01*
X201478345Y-84235580D01*
X201623196Y-84274392D01*
X201768052Y-84313207D01*
X201780586Y-84317279D01*
X202060587Y-84424762D01*
X202072635Y-84430126D01*
X202339870Y-84566289D01*
X202351286Y-84572880D01*
X202602832Y-84736236D01*
X202613495Y-84743984D01*
X202846573Y-84932727D01*
X202856374Y-84941552D01*
X203068448Y-85153626D01*
X203077273Y-85163427D01*
X203266016Y-85396505D01*
X203273764Y-85407168D01*
X203378267Y-85568088D01*
X203437117Y-85658709D01*
X203443711Y-85670130D01*
X203572574Y-85923037D01*
X203579874Y-85937365D01*
X203585237Y-85949412D01*
X203669887Y-86169929D01*
X203692719Y-86229409D01*
X203696793Y-86241948D01*
X203735608Y-86386804D01*
X203774420Y-86531655D01*
X203777162Y-86544555D01*
X203820796Y-86820048D01*
X203824080Y-86840785D01*
X203825458Y-86853902D01*
X203839262Y-87117299D01*
X203837935Y-87143276D01*
X203837691Y-87144846D01*
X203837691Y-87144850D01*
X203836309Y-87153724D01*
X203837473Y-87162626D01*
X203837473Y-87162628D01*
X203840436Y-87185283D01*
X203841500Y-87201621D01*
X203841500Y-144110633D01*
X203840000Y-144130018D01*
X203837690Y-144144851D01*
X203837690Y-144144855D01*
X203836309Y-144153724D01*
X203838756Y-144172433D01*
X203839647Y-144195366D01*
X203827804Y-144421345D01*
X203825458Y-144466099D01*
X203824080Y-144479215D01*
X203777162Y-144775445D01*
X203774420Y-144788345D01*
X203715084Y-145009793D01*
X203696795Y-145078047D01*
X203692721Y-145090586D01*
X203628399Y-145258150D01*
X203585238Y-145370587D01*
X203579874Y-145382635D01*
X203443711Y-145649870D01*
X203437120Y-145661286D01*
X203273764Y-145912832D01*
X203266018Y-145923492D01*
X203123065Y-146100025D01*
X203077273Y-146156573D01*
X203068448Y-146166374D01*
X202856374Y-146378448D01*
X202846573Y-146387273D01*
X202639906Y-146554629D01*
X202613495Y-146576016D01*
X202602832Y-146583764D01*
X202351286Y-146747120D01*
X202339870Y-146753711D01*
X202072635Y-146889874D01*
X202060588Y-146895237D01*
X201780586Y-147002721D01*
X201768052Y-147006793D01*
X201623196Y-147045607D01*
X201478345Y-147084420D01*
X201465445Y-147087162D01*
X201384134Y-147100040D01*
X201169209Y-147134081D01*
X201156101Y-147135458D01*
X201080937Y-147139397D01*
X200892701Y-147149262D01*
X200866724Y-147147935D01*
X200865154Y-147147691D01*
X200865150Y-147147691D01*
X200856276Y-147146309D01*
X200847374Y-147147473D01*
X200847372Y-147147473D01*
X200832323Y-147149441D01*
X200824714Y-147150436D01*
X200808379Y-147151500D01*
X113899367Y-147151500D01*
X113879982Y-147150000D01*
X113865149Y-147147690D01*
X113865145Y-147147690D01*
X113856276Y-147146309D01*
X113837564Y-147148756D01*
X113814634Y-147149647D01*
X113543897Y-147135458D01*
X113530791Y-147134081D01*
X113315866Y-147100040D01*
X113234555Y-147087162D01*
X113221655Y-147084420D01*
X113076804Y-147045607D01*
X112931948Y-147006793D01*
X112919414Y-147002721D01*
X112639412Y-146895237D01*
X112627365Y-146889874D01*
X112360130Y-146753711D01*
X112348714Y-146747120D01*
X112097168Y-146583764D01*
X112086505Y-146576016D01*
X112060095Y-146554629D01*
X111853427Y-146387273D01*
X111843626Y-146378448D01*
X111631552Y-146166374D01*
X111622727Y-146156573D01*
X111576935Y-146100025D01*
X111433982Y-145923492D01*
X111426236Y-145912832D01*
X111262880Y-145661286D01*
X111256289Y-145649870D01*
X111120126Y-145382635D01*
X111114762Y-145370587D01*
X111071601Y-145258150D01*
X111007279Y-145090586D01*
X111003205Y-145078047D01*
X110984917Y-145009793D01*
X110925580Y-144788345D01*
X110922838Y-144775445D01*
X110875920Y-144479215D01*
X110874542Y-144466098D01*
X110866764Y-144317677D01*
X110860932Y-144206409D01*
X110862505Y-144178915D01*
X110863576Y-144172552D01*
X110863729Y-144160000D01*
X110859773Y-144132376D01*
X110858500Y-144114514D01*
X110858500Y-117186413D01*
X111466822Y-117186413D01*
X111467316Y-117191448D01*
X111470899Y-117227992D01*
X111471500Y-117240288D01*
X111471500Y-121859317D01*
X111471451Y-121862835D01*
X111469978Y-121915585D01*
X111468666Y-121962538D01*
X111469335Y-121967552D01*
X111479058Y-122040419D01*
X111479759Y-122046982D01*
X111481094Y-122063579D01*
X111481500Y-122073681D01*
X111481500Y-134545984D01*
X111481451Y-134549502D01*
X111478833Y-134643238D01*
X111478666Y-134649205D01*
X111488715Y-134724513D01*
X111489058Y-134727086D01*
X111489758Y-134733639D01*
X111496060Y-134811965D01*
X111503681Y-134842991D01*
X111503897Y-134843870D01*
X111506426Y-134857258D01*
X111510771Y-134889820D01*
X111512232Y-134894661D01*
X111512233Y-134894663D01*
X111533478Y-134965029D01*
X111535219Y-134971390D01*
X111553963Y-135047706D01*
X111555941Y-135052366D01*
X111566801Y-135077951D01*
X111571438Y-135090761D01*
X111580933Y-135122208D01*
X111583151Y-135126756D01*
X111583154Y-135126763D01*
X111615371Y-135192818D01*
X111618107Y-135198820D01*
X111622216Y-135208500D01*
X111648812Y-135271156D01*
X111654831Y-135280713D01*
X111666319Y-135298956D01*
X111672945Y-135310860D01*
X111687346Y-135340388D01*
X111690265Y-135344525D01*
X111690265Y-135344526D01*
X111732641Y-135404597D01*
X111736301Y-135410086D01*
X111751767Y-135434645D01*
X111778167Y-135476567D01*
X111781508Y-135480356D01*
X111781512Y-135480362D01*
X111799898Y-135501217D01*
X111808344Y-135511912D01*
X111827274Y-135538747D01*
X111846909Y-135560250D01*
X111886625Y-135599966D01*
X111892044Y-135605736D01*
X111935350Y-135654858D01*
X111935353Y-135654861D01*
X111938698Y-135658655D01*
X111942612Y-135661870D01*
X111942613Y-135661871D01*
X111970987Y-135685178D01*
X111980107Y-135693448D01*
X116968948Y-140682290D01*
X117002974Y-140744602D01*
X116997909Y-140815417D01*
X116955362Y-140872253D01*
X116888842Y-140897064D01*
X116819468Y-140881973D01*
X116798030Y-140867202D01*
X116672019Y-140759578D01*
X116384047Y-140566069D01*
X116075741Y-140406940D01*
X115751189Y-140284302D01*
X115747668Y-140283418D01*
X115747663Y-140283416D01*
X115586378Y-140242904D01*
X115414692Y-140199780D01*
X115371928Y-140194150D01*
X115074315Y-140154968D01*
X115074307Y-140154967D01*
X115070711Y-140154494D01*
X114926045Y-140152221D01*
X114727446Y-140149101D01*
X114727442Y-140149101D01*
X114723804Y-140149044D01*
X114720190Y-140149405D01*
X114720184Y-140149405D01*
X114476843Y-140173694D01*
X114378569Y-140183503D01*
X114039583Y-140257414D01*
X114036156Y-140258587D01*
X114036150Y-140258589D01*
X113830176Y-140329110D01*
X113711339Y-140369797D01*
X113398188Y-140519163D01*
X113104279Y-140703532D01*
X113101443Y-140705804D01*
X113101436Y-140705809D01*
X112862711Y-140897064D01*
X112833509Y-140920459D01*
X112830958Y-140923037D01*
X112614773Y-141141498D01*
X112589466Y-141167071D01*
X112587225Y-141169929D01*
X112530732Y-141241978D01*
X112375386Y-141440098D01*
X112373493Y-141443187D01*
X112373491Y-141443190D01*
X112327233Y-141518676D01*
X112194105Y-141735921D01*
X112192580Y-141739206D01*
X112192578Y-141739210D01*
X112153505Y-141823386D01*
X112048027Y-142050620D01*
X112017586Y-142142666D01*
X111946770Y-142356793D01*
X111939087Y-142380023D01*
X111938351Y-142383578D01*
X111938350Y-142383581D01*
X111897984Y-142578500D01*
X111868730Y-142719764D01*
X111849623Y-142933854D01*
X111842893Y-143009266D01*
X111837888Y-143065341D01*
X111837983Y-143068971D01*
X111837983Y-143068972D01*
X111840357Y-143159637D01*
X111846970Y-143412171D01*
X111895856Y-143755660D01*
X111983897Y-144091253D01*
X112109927Y-144414503D01*
X112111624Y-144417708D01*
X112245113Y-144669825D01*
X112272275Y-144721126D01*
X112274325Y-144724109D01*
X112274327Y-144724112D01*
X112466733Y-145004064D01*
X112466739Y-145004071D01*
X112468790Y-145007056D01*
X112696866Y-145268505D01*
X112699551Y-145270948D01*
X112909268Y-145461775D01*
X112953481Y-145502006D01*
X113235233Y-145704466D01*
X113538388Y-145873200D01*
X113858928Y-146005972D01*
X113862422Y-146006967D01*
X113862424Y-146006968D01*
X114189103Y-146100025D01*
X114189108Y-146100026D01*
X114192604Y-146101022D01*
X114389304Y-146133233D01*
X114531412Y-146156504D01*
X114531419Y-146156505D01*
X114534993Y-146157090D01*
X114708275Y-146165262D01*
X114877931Y-146173263D01*
X114877932Y-146173263D01*
X114881558Y-146173434D01*
X114890415Y-146172830D01*
X115224073Y-146150084D01*
X115224081Y-146150083D01*
X115227704Y-146149836D01*
X115231279Y-146149173D01*
X115231282Y-146149173D01*
X115565279Y-146087270D01*
X115565283Y-146087269D01*
X115568844Y-146086609D01*
X115900456Y-145984592D01*
X116218145Y-145845136D01*
X116462511Y-145702341D01*
X116514560Y-145671926D01*
X116514562Y-145671925D01*
X116517700Y-145670091D01*
X116529421Y-145661291D01*
X116792244Y-145463958D01*
X116792248Y-145463955D01*
X116795151Y-145461775D01*
X117046819Y-145222950D01*
X117269370Y-144956783D01*
X117459853Y-144666799D01*
X117580371Y-144427176D01*
X117614117Y-144360080D01*
X117614120Y-144360072D01*
X117615744Y-144356844D01*
X117654124Y-144251966D01*
X117733729Y-144034437D01*
X117733730Y-144034433D01*
X117734977Y-144031026D01*
X117735822Y-144027504D01*
X117735825Y-144027496D01*
X117815124Y-143697191D01*
X117815125Y-143697187D01*
X117815971Y-143693662D01*
X117816408Y-143690052D01*
X117857316Y-143352004D01*
X117857316Y-143351997D01*
X117857652Y-143349225D01*
X117857875Y-143342148D01*
X117863511Y-143162797D01*
X117863599Y-143160000D01*
X117859992Y-143097437D01*
X117843836Y-142817246D01*
X117843835Y-142817241D01*
X117843627Y-142813626D01*
X117813958Y-142643629D01*
X117784600Y-142475415D01*
X117784598Y-142475408D01*
X117783976Y-142471842D01*
X117775555Y-142443411D01*
X117743482Y-142335137D01*
X117685437Y-142139180D01*
X117549316Y-141820048D01*
X117499569Y-141732831D01*
X117379208Y-141521816D01*
X117377417Y-141518676D01*
X117317597Y-141437241D01*
X117173763Y-141241435D01*
X117149555Y-141174693D01*
X117165273Y-141105458D01*
X117215927Y-141055712D01*
X117285435Y-141041248D01*
X117351728Y-141066660D01*
X117364401Y-141077742D01*
X122526463Y-146239805D01*
X122571291Y-146277956D01*
X122647396Y-146342726D01*
X122664720Y-146357470D01*
X122669042Y-146360087D01*
X122669044Y-146360089D01*
X122721460Y-146391833D01*
X122872357Y-146483220D01*
X123097429Y-146574155D01*
X123334144Y-146627935D01*
X123339189Y-146628252D01*
X123339193Y-146628253D01*
X123395609Y-146631802D01*
X123411873Y-146632825D01*
X123444984Y-146639441D01*
X123463631Y-146645862D01*
X123468614Y-146646723D01*
X123468619Y-146646724D01*
X123698926Y-146686504D01*
X123698932Y-146686505D01*
X123702836Y-146687179D01*
X123706797Y-146687359D01*
X123706798Y-146687359D01*
X123730506Y-146688436D01*
X123730525Y-146688436D01*
X123731925Y-146688500D01*
X187425984Y-146688500D01*
X187429502Y-146688549D01*
X187524150Y-146691193D01*
X187524153Y-146691193D01*
X187529205Y-146691334D01*
X187607098Y-146680941D01*
X187613639Y-146680242D01*
X187642332Y-146677933D01*
X187686923Y-146674346D01*
X187686927Y-146674345D01*
X187691965Y-146673940D01*
X187723878Y-146666101D01*
X187737258Y-146663574D01*
X187769820Y-146659229D01*
X187774661Y-146657768D01*
X187774663Y-146657767D01*
X187845029Y-146636522D01*
X187851392Y-146634781D01*
X187877970Y-146628253D01*
X187927706Y-146616037D01*
X187957952Y-146603199D01*
X187970763Y-146598561D01*
X187997362Y-146590530D01*
X188002208Y-146589067D01*
X188006756Y-146586849D01*
X188006763Y-146586846D01*
X188072818Y-146554629D01*
X188078820Y-146551893D01*
X188123504Y-146532925D01*
X188151156Y-146521188D01*
X188178956Y-146503681D01*
X188190860Y-146497055D01*
X188220388Y-146482654D01*
X188284600Y-146437357D01*
X188290086Y-146433699D01*
X188352286Y-146394529D01*
X188352287Y-146394528D01*
X188356567Y-146391833D01*
X188360356Y-146388492D01*
X188360362Y-146388488D01*
X188381217Y-146370102D01*
X188391912Y-146361656D01*
X188402493Y-146354192D01*
X188418747Y-146342726D01*
X188440250Y-146323091D01*
X188479966Y-146283375D01*
X188485736Y-146277956D01*
X188534858Y-146234650D01*
X188534861Y-146234647D01*
X188538655Y-146231302D01*
X188565179Y-146199011D01*
X188573449Y-146189892D01*
X190109666Y-144653675D01*
X190112188Y-144651221D01*
X190181012Y-144586138D01*
X190181014Y-144586135D01*
X190184681Y-144582668D01*
X190232411Y-144520239D01*
X190236552Y-144515108D01*
X190284191Y-144459133D01*
X190284192Y-144459132D01*
X190287470Y-144455280D01*
X190290089Y-144450955D01*
X190290093Y-144450950D01*
X190304491Y-144427176D01*
X190312163Y-144415929D01*
X190332120Y-144389826D01*
X190369243Y-144320592D01*
X190372507Y-144314868D01*
X190410602Y-144251966D01*
X190413221Y-144247642D01*
X190425528Y-144217181D01*
X190431308Y-144204841D01*
X190437885Y-144192575D01*
X190446831Y-144175891D01*
X190449658Y-144167683D01*
X190472412Y-144101599D01*
X190474722Y-144095421D01*
X190502258Y-144027266D01*
X190504155Y-144022571D01*
X190511432Y-143990539D01*
X190515163Y-143977441D01*
X190525862Y-143946369D01*
X190539243Y-143868900D01*
X190540526Y-143862482D01*
X190556815Y-143790786D01*
X190556815Y-143790785D01*
X190557935Y-143785856D01*
X190559999Y-143753047D01*
X190561585Y-143739547D01*
X190567179Y-143707164D01*
X190568500Y-143678075D01*
X190568500Y-143621892D01*
X190568749Y-143613980D01*
X190572860Y-143548641D01*
X190573178Y-143543587D01*
X190569101Y-143502008D01*
X190568500Y-143489712D01*
X190568500Y-143065341D01*
X196837888Y-143065341D01*
X196837983Y-143068971D01*
X196837983Y-143068972D01*
X196840357Y-143159637D01*
X196846970Y-143412171D01*
X196895856Y-143755660D01*
X196983897Y-144091253D01*
X197109927Y-144414503D01*
X197111624Y-144417708D01*
X197245113Y-144669825D01*
X197272275Y-144721126D01*
X197274325Y-144724109D01*
X197274327Y-144724112D01*
X197466733Y-145004064D01*
X197466739Y-145004071D01*
X197468790Y-145007056D01*
X197696866Y-145268505D01*
X197699551Y-145270948D01*
X197909268Y-145461775D01*
X197953481Y-145502006D01*
X198235233Y-145704466D01*
X198538388Y-145873200D01*
X198858928Y-146005972D01*
X198862422Y-146006967D01*
X198862424Y-146006968D01*
X199189103Y-146100025D01*
X199189108Y-146100026D01*
X199192604Y-146101022D01*
X199389304Y-146133233D01*
X199531412Y-146156504D01*
X199531419Y-146156505D01*
X199534993Y-146157090D01*
X199708275Y-146165262D01*
X199877931Y-146173263D01*
X199877932Y-146173263D01*
X199881558Y-146173434D01*
X199890415Y-146172830D01*
X200224073Y-146150084D01*
X200224081Y-146150083D01*
X200227704Y-146149836D01*
X200231279Y-146149173D01*
X200231282Y-146149173D01*
X200565279Y-146087270D01*
X200565283Y-146087269D01*
X200568844Y-146086609D01*
X200900456Y-145984592D01*
X201218145Y-145845136D01*
X201462511Y-145702341D01*
X201514560Y-145671926D01*
X201514562Y-145671925D01*
X201517700Y-145670091D01*
X201529421Y-145661291D01*
X201792244Y-145463958D01*
X201792248Y-145463955D01*
X201795151Y-145461775D01*
X202046819Y-145222950D01*
X202269370Y-144956783D01*
X202459853Y-144666799D01*
X202580371Y-144427176D01*
X202614117Y-144360080D01*
X202614120Y-144360072D01*
X202615744Y-144356844D01*
X202654124Y-144251966D01*
X202733729Y-144034437D01*
X202733730Y-144034433D01*
X202734977Y-144031026D01*
X202735822Y-144027504D01*
X202735825Y-144027496D01*
X202815124Y-143697191D01*
X202815125Y-143697187D01*
X202815971Y-143693662D01*
X202816408Y-143690052D01*
X202857316Y-143352004D01*
X202857316Y-143351997D01*
X202857652Y-143349225D01*
X202857875Y-143342148D01*
X202863511Y-143162797D01*
X202863599Y-143160000D01*
X202859992Y-143097437D01*
X202843836Y-142817246D01*
X202843835Y-142817241D01*
X202843627Y-142813626D01*
X202813958Y-142643629D01*
X202784600Y-142475415D01*
X202784598Y-142475408D01*
X202783976Y-142471842D01*
X202775555Y-142443411D01*
X202743482Y-142335137D01*
X202685437Y-142139180D01*
X202549316Y-141820048D01*
X202499569Y-141732831D01*
X202379208Y-141521816D01*
X202377417Y-141518676D01*
X202172018Y-141239060D01*
X201935842Y-140984904D01*
X201672019Y-140759578D01*
X201384047Y-140566069D01*
X201075741Y-140406940D01*
X200751189Y-140284302D01*
X200747668Y-140283418D01*
X200747663Y-140283416D01*
X200586378Y-140242904D01*
X200414692Y-140199780D01*
X200371928Y-140194150D01*
X200074315Y-140154968D01*
X200074307Y-140154967D01*
X200070711Y-140154494D01*
X199926045Y-140152221D01*
X199727446Y-140149101D01*
X199727442Y-140149101D01*
X199723804Y-140149044D01*
X199720190Y-140149405D01*
X199720184Y-140149405D01*
X199476843Y-140173694D01*
X199378569Y-140183503D01*
X199039583Y-140257414D01*
X199036156Y-140258587D01*
X199036150Y-140258589D01*
X198830176Y-140329110D01*
X198711339Y-140369797D01*
X198398188Y-140519163D01*
X198104279Y-140703532D01*
X198101443Y-140705804D01*
X198101436Y-140705809D01*
X197862711Y-140897064D01*
X197833509Y-140920459D01*
X197830958Y-140923037D01*
X197614773Y-141141498D01*
X197589466Y-141167071D01*
X197587225Y-141169929D01*
X197530732Y-141241978D01*
X197375386Y-141440098D01*
X197373493Y-141443187D01*
X197373491Y-141443190D01*
X197327233Y-141518676D01*
X197194105Y-141735921D01*
X197192580Y-141739206D01*
X197192578Y-141739210D01*
X197153505Y-141823386D01*
X197048027Y-142050620D01*
X197017586Y-142142666D01*
X196946770Y-142356793D01*
X196939087Y-142380023D01*
X196938351Y-142383578D01*
X196938350Y-142383581D01*
X196897984Y-142578500D01*
X196868730Y-142719764D01*
X196849623Y-142933854D01*
X196842893Y-143009266D01*
X196837888Y-143065341D01*
X190568500Y-143065341D01*
X190568500Y-140164002D01*
X190568549Y-140160483D01*
X190571193Y-140065850D01*
X190571193Y-140065847D01*
X190571334Y-140060795D01*
X190560941Y-139982902D01*
X190560241Y-139976353D01*
X190560109Y-139974704D01*
X190553940Y-139898035D01*
X190546101Y-139866122D01*
X190543573Y-139852738D01*
X190543499Y-139852179D01*
X190539229Y-139820180D01*
X190537767Y-139815337D01*
X190516522Y-139744971D01*
X190514781Y-139738608D01*
X190497244Y-139667209D01*
X190496037Y-139662294D01*
X190483199Y-139632048D01*
X190478561Y-139619237D01*
X190470530Y-139592638D01*
X190469067Y-139587792D01*
X190466849Y-139583244D01*
X190466846Y-139583237D01*
X190434629Y-139517182D01*
X190431893Y-139511180D01*
X190403162Y-139443495D01*
X190401188Y-139438844D01*
X190383681Y-139411044D01*
X190377052Y-139399134D01*
X190365659Y-139375774D01*
X190362654Y-139369612D01*
X190317357Y-139305400D01*
X190313699Y-139299914D01*
X190274529Y-139237714D01*
X190274528Y-139237713D01*
X190271833Y-139233433D01*
X190268492Y-139229644D01*
X190268488Y-139229638D01*
X190250102Y-139208783D01*
X190241656Y-139198088D01*
X190225009Y-139174490D01*
X190222726Y-139171253D01*
X190203091Y-139149750D01*
X190163375Y-139110034D01*
X190157956Y-139104264D01*
X190114650Y-139055142D01*
X190114647Y-139055139D01*
X190111302Y-139051345D01*
X190105594Y-139046656D01*
X190079011Y-139024821D01*
X190069892Y-139016551D01*
X190063536Y-139010195D01*
X190061626Y-139008569D01*
X190061619Y-139008563D01*
X189929132Y-138895808D01*
X189929130Y-138895806D01*
X189925280Y-138892530D01*
X189717642Y-138766779D01*
X189492571Y-138675845D01*
X189447727Y-138665657D01*
X189260787Y-138623185D01*
X189260784Y-138623184D01*
X189255856Y-138622065D01*
X189250809Y-138621747D01*
X189250806Y-138621747D01*
X189030350Y-138607877D01*
X189013587Y-138606822D01*
X188825524Y-138625263D01*
X188777025Y-138630018D01*
X188777024Y-138630018D01*
X188771998Y-138630511D01*
X188537304Y-138692519D01*
X188532687Y-138694575D01*
X188532686Y-138694575D01*
X188451520Y-138730713D01*
X188315544Y-138791254D01*
X188112422Y-138924174D01*
X188020004Y-139008563D01*
X187970429Y-139053831D01*
X187933164Y-139087858D01*
X187856105Y-139185083D01*
X187785527Y-139274129D01*
X187785523Y-139274135D01*
X187782382Y-139278098D01*
X187663955Y-139489998D01*
X187628361Y-139587792D01*
X187602664Y-139658393D01*
X187580930Y-139718105D01*
X187579982Y-139723074D01*
X187579981Y-139723078D01*
X187554331Y-139857542D01*
X187535444Y-139956553D01*
X187532969Y-140045162D01*
X187529105Y-140183503D01*
X187528666Y-140199205D01*
X187529335Y-140204219D01*
X187550393Y-140362040D01*
X187551500Y-140378704D01*
X187551500Y-142892969D01*
X187531498Y-142961090D01*
X187514595Y-142982064D01*
X186862064Y-143634595D01*
X186799752Y-143668621D01*
X186772969Y-143671500D01*
X143207731Y-143671500D01*
X143139610Y-143651498D01*
X143093117Y-143597842D01*
X143083013Y-143527568D01*
X143111707Y-143463920D01*
X143125036Y-143448231D01*
X143131965Y-143440716D01*
X143137661Y-143435020D01*
X143139924Y-143432159D01*
X143139929Y-143432154D01*
X143155293Y-143412734D01*
X143158082Y-143409333D01*
X143200592Y-143359296D01*
X143200594Y-143359294D01*
X143205333Y-143353715D01*
X143208662Y-143347195D01*
X143212028Y-143342148D01*
X143215193Y-143337024D01*
X143219735Y-143331283D01*
X143250637Y-143265164D01*
X143252565Y-143261218D01*
X143282442Y-143202708D01*
X143282443Y-143202706D01*
X143285769Y-143196192D01*
X143287508Y-143189086D01*
X143289609Y-143183436D01*
X143291524Y-143177679D01*
X143294622Y-143171050D01*
X143309491Y-143099565D01*
X143310461Y-143095282D01*
X143327808Y-143024390D01*
X143328500Y-143013236D01*
X143328535Y-143013238D01*
X143328775Y-143009266D01*
X143329152Y-143005045D01*
X143330641Y-142997885D01*
X143328546Y-142920458D01*
X143328500Y-142917050D01*
X143328500Y-138611610D01*
X143348502Y-138543489D01*
X143359119Y-138529279D01*
X143379384Y-138505802D01*
X143398078Y-138484145D01*
X143495769Y-138312179D01*
X143558197Y-138124513D01*
X143582985Y-137928295D01*
X143583380Y-137900000D01*
X143564080Y-137703167D01*
X143557869Y-137682593D01*
X143508697Y-137519731D01*
X143506916Y-137513831D01*
X143414066Y-137339204D01*
X143343709Y-137252938D01*
X143292960Y-137190713D01*
X143292957Y-137190710D01*
X143289065Y-137185938D01*
X143282724Y-137180692D01*
X143141425Y-137063799D01*
X143141421Y-137063797D01*
X143136675Y-137059870D01*
X143131255Y-137056940D01*
X143131250Y-137056936D01*
X143076803Y-137027497D01*
X143026394Y-136977502D01*
X143011016Y-136908191D01*
X143035552Y-136841569D01*
X143059158Y-136817372D01*
X143173991Y-136727655D01*
X143178847Y-136723861D01*
X143308078Y-136574145D01*
X143405769Y-136402179D01*
X143468197Y-136214513D01*
X143492985Y-136018295D01*
X143493380Y-135990000D01*
X143474080Y-135793167D01*
X143468996Y-135776326D01*
X143425369Y-135631829D01*
X143416916Y-135603831D01*
X143324066Y-135429204D01*
X143217838Y-135298956D01*
X143202960Y-135280713D01*
X143202957Y-135280710D01*
X143199065Y-135275938D01*
X143193285Y-135271156D01*
X143051425Y-135153799D01*
X143051421Y-135153797D01*
X143046675Y-135149870D01*
X142872701Y-135055802D01*
X142683768Y-134997318D01*
X142677643Y-134996674D01*
X142677642Y-134996674D01*
X142493204Y-134977289D01*
X142493202Y-134977289D01*
X142487075Y-134976645D01*
X142410971Y-134983571D01*
X142296251Y-134994011D01*
X142296248Y-134994012D01*
X142290112Y-134994570D01*
X142284206Y-134996308D01*
X142284202Y-134996309D01*
X142194635Y-135022670D01*
X142100381Y-135050410D01*
X142094923Y-135053263D01*
X142094919Y-135053265D01*
X142023193Y-135090763D01*
X141925110Y-135142040D01*
X141920312Y-135145898D01*
X141920310Y-135145899D01*
X141848424Y-135203697D01*
X141782802Y-135230793D01*
X141769472Y-135231500D01*
X138560858Y-135231500D01*
X138492737Y-135211498D01*
X138446244Y-135157842D01*
X138436140Y-135087568D01*
X138451302Y-135043263D01*
X138451571Y-135042791D01*
X138479282Y-134994011D01*
X138522723Y-134917542D01*
X138522725Y-134917537D01*
X138525769Y-134912179D01*
X138588197Y-134724513D01*
X138612985Y-134528295D01*
X138613380Y-134500000D01*
X138594080Y-134303167D01*
X138585596Y-134275065D01*
X138566820Y-134212877D01*
X138536916Y-134113831D01*
X138506150Y-134055968D01*
X138473017Y-133993653D01*
X138458698Y-133924115D01*
X138484246Y-133857875D01*
X138541551Y-133815962D01*
X138584269Y-133808500D01*
X141130019Y-133808500D01*
X141198140Y-133828502D01*
X141211682Y-133838546D01*
X141234394Y-133857875D01*
X141321650Y-133932136D01*
X141494294Y-134028624D01*
X141682392Y-134089740D01*
X141878777Y-134113158D01*
X141884912Y-134112686D01*
X141884914Y-134112686D01*
X142069830Y-134098457D01*
X142069834Y-134098456D01*
X142075972Y-134097984D01*
X142266463Y-134044798D01*
X142271967Y-134042018D01*
X142271969Y-134042017D01*
X142437495Y-133958404D01*
X142437497Y-133958403D01*
X142442996Y-133955625D01*
X142592692Y-133838670D01*
X142593991Y-133837655D01*
X142598847Y-133833861D01*
X142728078Y-133684145D01*
X142825769Y-133512179D01*
X142888197Y-133324513D01*
X142912985Y-133128295D01*
X142913380Y-133100000D01*
X142894080Y-132903167D01*
X142836916Y-132713831D01*
X142806998Y-132657563D01*
X142792679Y-132588026D01*
X142818227Y-132521785D01*
X142875532Y-132479872D01*
X142946399Y-132475595D01*
X143007345Y-132509315D01*
X147962427Y-137464398D01*
X152848557Y-142350528D01*
X152854411Y-142356793D01*
X152871671Y-142376578D01*
X152892439Y-142400385D01*
X152944729Y-142437136D01*
X152949971Y-142441028D01*
X153000282Y-142480476D01*
X153007201Y-142483600D01*
X153009493Y-142484988D01*
X153024165Y-142493357D01*
X153026525Y-142494622D01*
X153032739Y-142498990D01*
X153039818Y-142501750D01*
X153039820Y-142501751D01*
X153092275Y-142522202D01*
X153098344Y-142524753D01*
X153156573Y-142551045D01*
X153164046Y-142552430D01*
X153166612Y-142553234D01*
X153182835Y-142557855D01*
X153185427Y-142558520D01*
X153192509Y-142561282D01*
X153200044Y-142562274D01*
X153255861Y-142569622D01*
X153262377Y-142570654D01*
X153300770Y-142577770D01*
X153325186Y-142582295D01*
X153332766Y-142581858D01*
X153332767Y-142581858D01*
X153387380Y-142578709D01*
X153394633Y-142578500D01*
X175341088Y-142578500D01*
X175349658Y-142578792D01*
X175399776Y-142582209D01*
X175399780Y-142582209D01*
X175407352Y-142582725D01*
X175414829Y-142581420D01*
X175414830Y-142581420D01*
X175441308Y-142576799D01*
X175470303Y-142571738D01*
X175476821Y-142570777D01*
X175540242Y-142563102D01*
X175547343Y-142560419D01*
X175549952Y-142559778D01*
X175566262Y-142555315D01*
X175568798Y-142554550D01*
X175576284Y-142553243D01*
X175634800Y-142527556D01*
X175640904Y-142525065D01*
X175693548Y-142505173D01*
X175693549Y-142505172D01*
X175700656Y-142502487D01*
X175706919Y-142498183D01*
X175709285Y-142496946D01*
X175724097Y-142488701D01*
X175726351Y-142487368D01*
X175733305Y-142484315D01*
X175784002Y-142445413D01*
X175789332Y-142441541D01*
X175835720Y-142409661D01*
X175835725Y-142409656D01*
X175841981Y-142405357D01*
X175883436Y-142358829D01*
X175888416Y-142353554D01*
X189646692Y-128595279D01*
X189709004Y-128561253D01*
X189726116Y-128558746D01*
X189778786Y-128554693D01*
X189859830Y-128548457D01*
X189859834Y-128548456D01*
X189865972Y-128547984D01*
X190056463Y-128494798D01*
X190061967Y-128492018D01*
X190061969Y-128492017D01*
X190227495Y-128408404D01*
X190227497Y-128408403D01*
X190232996Y-128405625D01*
X190388847Y-128283861D01*
X190518078Y-128134145D01*
X190615769Y-127962179D01*
X190678197Y-127774513D01*
X190702985Y-127578295D01*
X190703380Y-127550000D01*
X190684080Y-127353167D01*
X190677897Y-127332686D01*
X190653091Y-127250528D01*
X190626916Y-127163831D01*
X190534066Y-126989204D01*
X190435994Y-126868956D01*
X190412960Y-126840713D01*
X190412957Y-126840710D01*
X190409065Y-126835938D01*
X190402724Y-126830692D01*
X190261425Y-126713799D01*
X190261421Y-126713797D01*
X190256675Y-126709870D01*
X190082701Y-126615802D01*
X189893768Y-126557318D01*
X189887643Y-126556674D01*
X189887642Y-126556674D01*
X189703204Y-126537289D01*
X189703202Y-126537289D01*
X189697075Y-126536645D01*
X189614576Y-126544153D01*
X189506251Y-126554011D01*
X189506248Y-126554012D01*
X189500112Y-126554570D01*
X189494206Y-126556308D01*
X189494202Y-126556309D01*
X189389076Y-126587249D01*
X189310381Y-126610410D01*
X189304923Y-126613263D01*
X189304919Y-126613265D01*
X189247208Y-126643436D01*
X189135110Y-126702040D01*
X188980975Y-126825968D01*
X188853846Y-126977474D01*
X188850879Y-126982872D01*
X188850875Y-126982877D01*
X188814416Y-127049197D01*
X188758567Y-127150787D01*
X188756706Y-127156654D01*
X188756705Y-127156656D01*
X188700865Y-127332686D01*
X188698765Y-127339306D01*
X188682892Y-127480818D01*
X188678421Y-127520679D01*
X188650950Y-127586146D01*
X188642301Y-127595729D01*
X175113435Y-141124595D01*
X175051123Y-141158621D01*
X175024340Y-141161500D01*
X153715660Y-141161500D01*
X153647539Y-141141498D01*
X153626565Y-141124595D01*
X145107821Y-132605851D01*
X147786719Y-132605851D01*
X147787235Y-132611995D01*
X147801314Y-132779658D01*
X147803268Y-132802934D01*
X147825906Y-132881881D01*
X147849081Y-132962702D01*
X147857783Y-132993050D01*
X147860602Y-132998535D01*
X147943195Y-133159242D01*
X147948187Y-133168956D01*
X148071035Y-133323953D01*
X148075728Y-133327947D01*
X148075729Y-133327948D01*
X148186002Y-133421797D01*
X148221650Y-133452136D01*
X148394294Y-133548624D01*
X148582392Y-133609740D01*
X148778777Y-133633158D01*
X148784912Y-133632686D01*
X148784914Y-133632686D01*
X148969830Y-133618457D01*
X148969834Y-133618456D01*
X148975972Y-133617984D01*
X149166463Y-133564798D01*
X149171967Y-133562018D01*
X149171969Y-133562017D01*
X149337495Y-133478404D01*
X149337497Y-133478403D01*
X149342996Y-133475625D01*
X149498847Y-133353861D01*
X149628078Y-133204145D01*
X149646190Y-133172262D01*
X149697230Y-133122912D01*
X149755746Y-133108500D01*
X150085340Y-133108500D01*
X150153461Y-133128502D01*
X150199954Y-133182158D01*
X150210058Y-133252432D01*
X150180564Y-133317012D01*
X150174435Y-133323595D01*
X149764069Y-133733961D01*
X149701757Y-133767987D01*
X149686394Y-133770347D01*
X149536251Y-133784011D01*
X149536248Y-133784012D01*
X149530112Y-133784570D01*
X149524206Y-133786308D01*
X149524202Y-133786309D01*
X149423449Y-133815962D01*
X149340381Y-133840410D01*
X149334923Y-133843263D01*
X149334919Y-133843265D01*
X149244147Y-133890720D01*
X149165110Y-133932040D01*
X149010975Y-134055968D01*
X148883846Y-134207474D01*
X148880879Y-134212872D01*
X148880875Y-134212877D01*
X148815273Y-134332209D01*
X148788567Y-134380787D01*
X148786706Y-134386654D01*
X148786705Y-134386656D01*
X148740663Y-134531799D01*
X148728765Y-134569306D01*
X148706719Y-134765851D01*
X148710168Y-134806923D01*
X148721241Y-134938791D01*
X148723268Y-134962934D01*
X148733436Y-134998393D01*
X148776031Y-135146939D01*
X148777783Y-135153050D01*
X148868187Y-135328956D01*
X148991035Y-135483953D01*
X148995728Y-135487947D01*
X148995729Y-135487948D01*
X149131892Y-135603831D01*
X149141650Y-135612136D01*
X149314294Y-135708624D01*
X149502392Y-135769740D01*
X149698777Y-135793158D01*
X149704912Y-135792686D01*
X149704914Y-135792686D01*
X149889830Y-135778457D01*
X149889834Y-135778456D01*
X149895972Y-135777984D01*
X150086463Y-135724798D01*
X150091967Y-135722018D01*
X150091969Y-135722017D01*
X150257495Y-135638404D01*
X150257497Y-135638403D01*
X150262996Y-135635625D01*
X150418847Y-135513861D01*
X150548078Y-135364145D01*
X150645769Y-135192179D01*
X150708197Y-135004513D01*
X150732985Y-134808295D01*
X150734221Y-134808451D01*
X150757140Y-134746685D01*
X150769040Y-134732930D01*
X151136565Y-134365405D01*
X151198877Y-134331379D01*
X151225660Y-134328500D01*
X155574729Y-134328500D01*
X155642850Y-134348502D01*
X155689343Y-134402158D01*
X155699447Y-134472432D01*
X155669953Y-134537012D01*
X155621929Y-134571325D01*
X155614710Y-134574242D01*
X155611625Y-134575910D01*
X155611623Y-134575911D01*
X155580112Y-134592949D01*
X155310184Y-134738899D01*
X155025909Y-134936475D01*
X155023267Y-134938788D01*
X155023263Y-134938791D01*
X154818329Y-135118197D01*
X154765429Y-135164507D01*
X154763053Y-135167109D01*
X154763051Y-135167111D01*
X154735264Y-135197542D01*
X154531992Y-135420154D01*
X154529926Y-135422997D01*
X154529924Y-135423000D01*
X154456388Y-135524214D01*
X154328506Y-135700229D01*
X154326764Y-135703295D01*
X154326763Y-135703297D01*
X154323737Y-135708624D01*
X154157507Y-136001241D01*
X154089287Y-136160410D01*
X154068722Y-136208393D01*
X154021128Y-136319437D01*
X154007793Y-136363605D01*
X153923491Y-136642829D01*
X153921068Y-136650853D01*
X153858573Y-136991357D01*
X153834424Y-137336705D01*
X153848921Y-137682593D01*
X153901884Y-138024709D01*
X153992651Y-138358789D01*
X154120093Y-138680670D01*
X154121748Y-138683782D01*
X154121750Y-138683787D01*
X154180364Y-138794024D01*
X154282620Y-138986339D01*
X154303307Y-139016551D01*
X154476215Y-139269079D01*
X154476220Y-139269085D01*
X154478206Y-139271986D01*
X154704415Y-139534051D01*
X154958426Y-139769268D01*
X154961248Y-139771349D01*
X154961251Y-139771351D01*
X155025250Y-139818535D01*
X155237073Y-139974704D01*
X155240110Y-139976458D01*
X155240114Y-139976460D01*
X155313422Y-140018784D01*
X155536884Y-140147800D01*
X155569929Y-140162237D01*
X155850899Y-140284990D01*
X155850909Y-140284994D01*
X155854121Y-140286397D01*
X155857478Y-140287436D01*
X155857483Y-140287438D01*
X155992104Y-140329110D01*
X156184830Y-140388769D01*
X156188286Y-140389428D01*
X156188285Y-140389428D01*
X156521438Y-140452980D01*
X156521443Y-140452981D01*
X156524889Y-140453638D01*
X156706364Y-140467602D01*
X156866563Y-140479929D01*
X156866565Y-140479929D01*
X156870060Y-140480198D01*
X157086564Y-140472637D01*
X157212526Y-140468239D01*
X157212531Y-140468239D01*
X157216041Y-140468116D01*
X157387279Y-140442830D01*
X157555039Y-140418057D01*
X157555044Y-140418056D01*
X157558518Y-140417543D01*
X157561910Y-140416647D01*
X157561914Y-140416646D01*
X157889833Y-140330006D01*
X157889834Y-140330006D01*
X157893224Y-140329110D01*
X158215986Y-140203919D01*
X158522782Y-140043530D01*
X158809788Y-139849942D01*
X158907384Y-139766882D01*
X159070753Y-139627844D01*
X159070754Y-139627843D01*
X159073426Y-139625569D01*
X159075821Y-139623019D01*
X159075829Y-139623011D01*
X159307999Y-139375774D01*
X159308003Y-139375769D01*
X159310410Y-139373206D01*
X159312515Y-139370392D01*
X159312521Y-139370385D01*
X159515678Y-139098819D01*
X159517787Y-139096000D01*
X159519568Y-139092965D01*
X159691190Y-138800443D01*
X159691193Y-138800438D01*
X159692972Y-138797405D01*
X159696626Y-138789198D01*
X159832348Y-138484360D01*
X159832350Y-138484356D01*
X159833780Y-138481143D01*
X159938458Y-138151157D01*
X159944946Y-138118393D01*
X159983283Y-137924771D01*
X160005700Y-137811559D01*
X160034669Y-137466582D01*
X160034699Y-137464412D01*
X160034700Y-137464398D01*
X160035848Y-137382177D01*
X160035848Y-137382166D01*
X160035878Y-137380000D01*
X160033902Y-137344645D01*
X160025028Y-137185938D01*
X160016553Y-137034348D01*
X160015395Y-137027497D01*
X159959408Y-136696486D01*
X159959407Y-136696482D01*
X159958819Y-136693005D01*
X159863396Y-136360225D01*
X159735970Y-136051065D01*
X159732811Y-136043400D01*
X159732807Y-136043392D01*
X159731473Y-136040155D01*
X159564694Y-135736785D01*
X159557409Y-135726457D01*
X159367169Y-135456776D01*
X159367168Y-135456775D01*
X159365138Y-135453897D01*
X159135292Y-135195015D01*
X159119777Y-135181045D01*
X158880640Y-134965725D01*
X158880637Y-134965723D01*
X158878022Y-134963368D01*
X158875172Y-134961327D01*
X158875165Y-134961322D01*
X158599388Y-134763885D01*
X158599385Y-134763883D01*
X158596534Y-134761842D01*
X158294335Y-134592949D01*
X158291090Y-134591585D01*
X158291086Y-134591583D01*
X158241300Y-134570655D01*
X158186252Y-134525818D01*
X158164184Y-134458338D01*
X158182102Y-134389640D01*
X158234316Y-134341534D01*
X158290126Y-134328500D01*
X165801088Y-134328500D01*
X165809658Y-134328792D01*
X165859776Y-134332209D01*
X165859780Y-134332209D01*
X165867352Y-134332725D01*
X165874829Y-134331420D01*
X165874830Y-134331420D01*
X165901308Y-134326799D01*
X165930303Y-134321738D01*
X165936821Y-134320777D01*
X166000242Y-134313102D01*
X166007343Y-134310419D01*
X166009952Y-134309778D01*
X166026262Y-134305315D01*
X166028798Y-134304550D01*
X166036284Y-134303243D01*
X166094800Y-134277556D01*
X166100904Y-134275065D01*
X166153548Y-134255173D01*
X166153549Y-134255172D01*
X166160656Y-134252487D01*
X166166919Y-134248183D01*
X166169285Y-134246946D01*
X166184097Y-134238701D01*
X166186351Y-134237368D01*
X166193305Y-134234315D01*
X166244002Y-134195413D01*
X166249332Y-134191541D01*
X166295720Y-134159661D01*
X166295725Y-134159656D01*
X166301981Y-134155357D01*
X166310568Y-134145720D01*
X166343435Y-134108830D01*
X166348416Y-134103554D01*
X167255065Y-133196905D01*
X167317377Y-133162879D01*
X167344160Y-133160000D01*
X168450000Y-133160000D01*
X168445343Y-132059351D01*
X168465057Y-131991146D01*
X168482247Y-131969723D01*
X176396565Y-124055405D01*
X176458877Y-124021379D01*
X176485660Y-124018500D01*
X177470019Y-124018500D01*
X177538140Y-124038502D01*
X177551682Y-124048546D01*
X177649951Y-124132179D01*
X177661650Y-124142136D01*
X177834294Y-124238624D01*
X178022392Y-124299740D01*
X178218777Y-124323158D01*
X178224912Y-124322686D01*
X178224914Y-124322686D01*
X178409830Y-124308457D01*
X178409834Y-124308456D01*
X178415972Y-124307984D01*
X178606463Y-124254798D01*
X178611967Y-124252018D01*
X178611969Y-124252017D01*
X178777495Y-124168404D01*
X178777497Y-124168403D01*
X178782996Y-124165625D01*
X178937119Y-124045211D01*
X179003113Y-124019033D01*
X179014692Y-124018500D01*
X182302519Y-124018500D01*
X182370640Y-124038502D01*
X182417133Y-124092158D01*
X182427237Y-124162432D01*
X182397743Y-124227012D01*
X182351435Y-124260100D01*
X182350381Y-124260410D01*
X182344928Y-124263261D01*
X182344925Y-124263262D01*
X182278792Y-124297836D01*
X182175110Y-124352040D01*
X182020975Y-124475968D01*
X181893846Y-124627474D01*
X181890879Y-124632872D01*
X181890875Y-124632877D01*
X181835746Y-124733158D01*
X181798567Y-124800787D01*
X181796706Y-124806654D01*
X181796705Y-124806656D01*
X181763937Y-124909953D01*
X181738765Y-124989306D01*
X181724393Y-125117438D01*
X181718421Y-125170677D01*
X181690950Y-125236144D01*
X181682302Y-125245727D01*
X180813435Y-126114595D01*
X180751122Y-126148620D01*
X180724339Y-126151500D01*
X177371151Y-126151500D01*
X177303030Y-126131498D01*
X177290836Y-126122585D01*
X177171425Y-126023799D01*
X177171421Y-126023797D01*
X177166675Y-126019870D01*
X176992701Y-125925802D01*
X176803768Y-125867318D01*
X176797643Y-125866674D01*
X176797642Y-125866674D01*
X176613204Y-125847289D01*
X176613202Y-125847289D01*
X176607075Y-125846645D01*
X176524576Y-125854153D01*
X176416251Y-125864011D01*
X176416248Y-125864012D01*
X176410112Y-125864570D01*
X176404206Y-125866308D01*
X176404202Y-125866309D01*
X176299076Y-125897249D01*
X176220381Y-125920410D01*
X176214923Y-125923263D01*
X176214919Y-125923265D01*
X176138817Y-125963051D01*
X176045110Y-126012040D01*
X175890975Y-126135968D01*
X175763846Y-126287474D01*
X175760879Y-126292872D01*
X175760875Y-126292877D01*
X175728483Y-126351799D01*
X175668567Y-126460787D01*
X175666706Y-126466654D01*
X175666705Y-126466656D01*
X175620198Y-126613265D01*
X175608765Y-126649306D01*
X175586719Y-126845851D01*
X175587235Y-126851995D01*
X175602010Y-127027948D01*
X175603268Y-127042934D01*
X175607489Y-127057655D01*
X175641317Y-127175625D01*
X175657783Y-127233050D01*
X175660602Y-127238535D01*
X175715896Y-127346124D01*
X175748187Y-127408956D01*
X175871035Y-127563953D01*
X175875728Y-127567947D01*
X175875729Y-127567948D01*
X175991266Y-127666277D01*
X176021650Y-127692136D01*
X176194294Y-127788624D01*
X176382392Y-127849740D01*
X176578777Y-127873158D01*
X176584912Y-127872686D01*
X176584914Y-127872686D01*
X176769830Y-127858457D01*
X176769834Y-127858456D01*
X176775972Y-127857984D01*
X176966463Y-127804798D01*
X176971967Y-127802018D01*
X176971969Y-127802017D01*
X177137495Y-127718404D01*
X177137497Y-127718403D01*
X177142996Y-127715625D01*
X177297119Y-127595211D01*
X177363113Y-127569033D01*
X177374692Y-127568500D01*
X181041088Y-127568500D01*
X181049658Y-127568792D01*
X181099776Y-127572209D01*
X181099780Y-127572209D01*
X181107352Y-127572725D01*
X181114829Y-127571420D01*
X181114830Y-127571420D01*
X181141308Y-127566799D01*
X181170303Y-127561738D01*
X181176821Y-127560777D01*
X181240242Y-127553102D01*
X181247343Y-127550419D01*
X181249952Y-127549778D01*
X181266262Y-127545315D01*
X181268798Y-127544550D01*
X181276284Y-127543243D01*
X181334800Y-127517556D01*
X181340904Y-127515065D01*
X181393548Y-127495173D01*
X181393549Y-127495172D01*
X181400656Y-127492487D01*
X181406919Y-127488183D01*
X181409285Y-127486946D01*
X181424097Y-127478701D01*
X181426351Y-127477368D01*
X181433305Y-127474315D01*
X181484002Y-127435413D01*
X181489332Y-127431541D01*
X181535720Y-127399661D01*
X181535725Y-127399656D01*
X181541981Y-127395357D01*
X181583436Y-127348829D01*
X181588416Y-127343554D01*
X182686691Y-126245279D01*
X182749003Y-126211253D01*
X182766115Y-126208746D01*
X182820929Y-126204528D01*
X182899830Y-126198457D01*
X182899834Y-126198456D01*
X182905972Y-126197984D01*
X183096463Y-126144798D01*
X183101967Y-126142018D01*
X183101969Y-126142017D01*
X183267495Y-126058404D01*
X183267497Y-126058403D01*
X183272996Y-126055625D01*
X183428847Y-125933861D01*
X183558078Y-125784145D01*
X183655769Y-125612179D01*
X183718197Y-125424513D01*
X183742985Y-125228295D01*
X183743318Y-125204457D01*
X183743331Y-125203523D01*
X183743331Y-125203520D01*
X183743380Y-125200000D01*
X183724080Y-125003167D01*
X183666916Y-124813831D01*
X183574066Y-124639204D01*
X183499798Y-124548143D01*
X183452960Y-124490713D01*
X183452957Y-124490710D01*
X183449065Y-124485938D01*
X183442724Y-124480692D01*
X183301425Y-124363799D01*
X183301421Y-124363797D01*
X183296675Y-124359870D01*
X183122701Y-124265802D01*
X183116813Y-124263979D01*
X183111136Y-124261593D01*
X183111922Y-124259722D01*
X183060515Y-124225614D01*
X183031967Y-124160610D01*
X183043095Y-124090491D01*
X183090366Y-124037519D01*
X183156933Y-124018500D01*
X186301088Y-124018500D01*
X186309658Y-124018792D01*
X186359776Y-124022209D01*
X186359780Y-124022209D01*
X186367352Y-124022725D01*
X186374829Y-124021420D01*
X186374830Y-124021420D01*
X186409890Y-124015301D01*
X186430303Y-124011738D01*
X186436821Y-124010777D01*
X186500242Y-124003102D01*
X186507343Y-124000419D01*
X186509952Y-123999778D01*
X186526262Y-123995315D01*
X186528798Y-123994550D01*
X186536284Y-123993243D01*
X186594800Y-123967556D01*
X186600904Y-123965065D01*
X186653548Y-123945173D01*
X186653549Y-123945172D01*
X186660656Y-123942487D01*
X186666919Y-123938183D01*
X186669285Y-123936946D01*
X186684097Y-123928701D01*
X186686351Y-123927368D01*
X186693305Y-123924315D01*
X186744002Y-123885413D01*
X186749332Y-123881541D01*
X186795720Y-123849661D01*
X186795725Y-123849656D01*
X186801981Y-123845357D01*
X186843436Y-123798829D01*
X186848416Y-123793554D01*
X189376565Y-121265405D01*
X189438877Y-121231379D01*
X189465660Y-121228500D01*
X192460234Y-121228500D01*
X192528355Y-121248502D01*
X192567667Y-121288665D01*
X192589987Y-121325088D01*
X192736250Y-121493938D01*
X192836164Y-121576888D01*
X192891856Y-121623124D01*
X192908126Y-121636632D01*
X193101000Y-121749338D01*
X193309692Y-121829030D01*
X193314760Y-121830061D01*
X193314763Y-121830062D01*
X193422017Y-121851883D01*
X193528597Y-121873567D01*
X193533772Y-121873757D01*
X193533774Y-121873757D01*
X193746673Y-121881564D01*
X193746677Y-121881564D01*
X193751837Y-121881753D01*
X193756957Y-121881097D01*
X193756959Y-121881097D01*
X193968288Y-121854025D01*
X193968289Y-121854025D01*
X193973416Y-121853368D01*
X193978366Y-121851883D01*
X194182429Y-121790661D01*
X194182434Y-121790659D01*
X194187384Y-121789174D01*
X194387994Y-121690896D01*
X194569860Y-121561173D01*
X194728096Y-121403489D01*
X194858453Y-121222077D01*
X194863215Y-121212443D01*
X194955136Y-121026453D01*
X194955137Y-121026451D01*
X194957430Y-121021811D01*
X195022370Y-120808069D01*
X195051529Y-120586590D01*
X195051873Y-120572514D01*
X195053074Y-120523365D01*
X195053074Y-120523361D01*
X195053156Y-120520000D01*
X195034852Y-120297361D01*
X194980431Y-120080702D01*
X194891354Y-119875840D01*
X194814152Y-119756504D01*
X194772822Y-119692617D01*
X194772820Y-119692614D01*
X194770014Y-119688277D01*
X194750367Y-119666685D01*
X194622798Y-119526488D01*
X194591746Y-119462642D01*
X194600141Y-119392143D01*
X194645317Y-119337375D01*
X194671761Y-119323706D01*
X194778297Y-119283767D01*
X194786705Y-119280615D01*
X194903261Y-119193261D01*
X194990615Y-119076705D01*
X195041745Y-118940316D01*
X195048500Y-118878134D01*
X195048500Y-117081866D01*
X195041745Y-117019684D01*
X194990615Y-116883295D01*
X194903261Y-116766739D01*
X194786705Y-116679385D01*
X194650316Y-116628255D01*
X194588134Y-116621500D01*
X192791866Y-116621500D01*
X192729684Y-116628255D01*
X192593295Y-116679385D01*
X192476739Y-116766739D01*
X192389385Y-116883295D01*
X192338255Y-117019684D01*
X192331500Y-117081866D01*
X192331500Y-117145500D01*
X192311498Y-117213621D01*
X192257842Y-117260114D01*
X192205500Y-117271500D01*
X183780721Y-117271500D01*
X183712600Y-117251498D01*
X183666107Y-117197842D01*
X183656003Y-117127568D01*
X183685338Y-117063170D01*
X183788078Y-116944145D01*
X183885769Y-116772179D01*
X183948197Y-116584513D01*
X183972985Y-116388295D01*
X183973380Y-116360000D01*
X183954080Y-116163167D01*
X183950511Y-116151344D01*
X183922169Y-116057474D01*
X183896916Y-115973831D01*
X183834185Y-115855851D01*
X188706719Y-115855851D01*
X188707235Y-115861995D01*
X188721696Y-116034209D01*
X188723268Y-116052934D01*
X188730340Y-116077596D01*
X188775950Y-116236656D01*
X188777783Y-116243050D01*
X188780602Y-116248535D01*
X188837888Y-116360000D01*
X188868187Y-116418956D01*
X188991035Y-116573953D01*
X188995728Y-116577947D01*
X188995729Y-116577948D01*
X189115200Y-116679625D01*
X189141650Y-116702136D01*
X189314294Y-116798624D01*
X189502392Y-116859740D01*
X189698777Y-116883158D01*
X189704912Y-116882686D01*
X189704914Y-116882686D01*
X189889830Y-116868457D01*
X189889834Y-116868456D01*
X189895972Y-116867984D01*
X190086463Y-116814798D01*
X190091967Y-116812018D01*
X190091969Y-116812017D01*
X190257495Y-116728404D01*
X190257497Y-116728403D01*
X190262996Y-116725625D01*
X190398641Y-116619648D01*
X190413991Y-116607655D01*
X190418847Y-116603861D01*
X190534149Y-116470282D01*
X190544049Y-116458813D01*
X190544050Y-116458811D01*
X190548078Y-116454145D01*
X190645769Y-116282179D01*
X190708197Y-116094513D01*
X190732985Y-115898295D01*
X190733380Y-115870000D01*
X190714080Y-115673167D01*
X190709739Y-115658787D01*
X190666912Y-115516939D01*
X190656916Y-115483831D01*
X190564066Y-115309204D01*
X190476857Y-115202275D01*
X190449303Y-115136843D01*
X190448500Y-115122639D01*
X190448500Y-115065851D01*
X198746719Y-115065851D01*
X198748203Y-115083523D01*
X198762306Y-115251474D01*
X198763268Y-115262934D01*
X198775166Y-115304428D01*
X198815111Y-115443731D01*
X198817783Y-115453050D01*
X198820602Y-115458535D01*
X198904961Y-115622678D01*
X198908187Y-115628956D01*
X198932242Y-115659306D01*
X198994246Y-115737537D01*
X199020883Y-115803347D01*
X199021500Y-115815801D01*
X199021500Y-125609071D01*
X199001498Y-125677192D01*
X198992030Y-125690051D01*
X198943846Y-125747474D01*
X198940879Y-125752872D01*
X198940875Y-125752877D01*
X198876960Y-125869140D01*
X198848567Y-125920787D01*
X198846706Y-125926654D01*
X198846705Y-125926656D01*
X198806998Y-126051829D01*
X198788765Y-126109306D01*
X198766719Y-126305851D01*
X198767235Y-126311995D01*
X198780222Y-126466656D01*
X198783268Y-126502934D01*
X198799385Y-126559140D01*
X198825240Y-126649306D01*
X198837783Y-126693050D01*
X198860556Y-126737361D01*
X198916313Y-126845851D01*
X198928187Y-126868956D01*
X199051035Y-127023953D01*
X199201650Y-127152136D01*
X199374294Y-127248624D01*
X199562392Y-127309740D01*
X199758777Y-127333158D01*
X199764912Y-127332686D01*
X199764914Y-127332686D01*
X199949830Y-127318457D01*
X199949834Y-127318456D01*
X199955972Y-127317984D01*
X200146463Y-127264798D01*
X200151967Y-127262018D01*
X200151969Y-127262017D01*
X200317495Y-127178404D01*
X200317497Y-127178403D01*
X200322996Y-127175625D01*
X200478847Y-127053861D01*
X200608078Y-126904145D01*
X200705769Y-126732179D01*
X200768197Y-126544513D01*
X200792985Y-126348295D01*
X200793380Y-126320000D01*
X200774080Y-126123167D01*
X200716916Y-125933831D01*
X200624066Y-125759204D01*
X200566857Y-125689059D01*
X200539303Y-125623627D01*
X200538500Y-125609423D01*
X200538500Y-115768441D01*
X200558502Y-115700320D01*
X200569119Y-115686109D01*
X200584053Y-115668808D01*
X200588078Y-115664145D01*
X200595262Y-115651500D01*
X200632295Y-115586309D01*
X200685769Y-115492179D01*
X200748197Y-115304513D01*
X200772985Y-115108295D01*
X200773380Y-115080000D01*
X200754080Y-114883167D01*
X200696916Y-114693831D01*
X200604066Y-114519204D01*
X200518113Y-114413815D01*
X200482960Y-114370713D01*
X200482957Y-114370710D01*
X200479065Y-114365938D01*
X200472724Y-114360692D01*
X200331425Y-114243799D01*
X200331421Y-114243797D01*
X200326675Y-114239870D01*
X200152701Y-114145802D01*
X199963768Y-114087318D01*
X199957643Y-114086674D01*
X199957642Y-114086674D01*
X199773204Y-114067289D01*
X199773202Y-114067289D01*
X199767075Y-114066645D01*
X199690092Y-114073651D01*
X199576251Y-114084011D01*
X199576248Y-114084012D01*
X199570112Y-114084570D01*
X199564206Y-114086308D01*
X199564202Y-114086309D01*
X199486082Y-114109301D01*
X199380381Y-114140410D01*
X199374923Y-114143263D01*
X199374919Y-114143265D01*
X199319756Y-114172104D01*
X199205110Y-114232040D01*
X199050975Y-114355968D01*
X198923846Y-114507474D01*
X198920879Y-114512872D01*
X198920875Y-114512877D01*
X198842095Y-114656180D01*
X198828567Y-114680787D01*
X198826706Y-114686654D01*
X198826705Y-114686656D01*
X198773627Y-114853980D01*
X198768765Y-114869306D01*
X198759288Y-114953799D01*
X198748260Y-115052117D01*
X198746719Y-115065851D01*
X190448500Y-115065851D01*
X190448500Y-101134538D01*
X190468502Y-101066417D01*
X190479118Y-101052207D01*
X190564054Y-100953807D01*
X190564055Y-100953806D01*
X190568078Y-100949145D01*
X190665769Y-100777179D01*
X190728197Y-100589513D01*
X190752985Y-100393295D01*
X190753380Y-100365000D01*
X190734080Y-100168167D01*
X190676916Y-99978831D01*
X190584066Y-99804204D01*
X190513709Y-99717938D01*
X190462960Y-99655713D01*
X190462957Y-99655710D01*
X190459065Y-99650938D01*
X190452724Y-99645692D01*
X190311425Y-99528799D01*
X190311421Y-99528797D01*
X190306675Y-99524870D01*
X190132701Y-99430802D01*
X189943768Y-99372318D01*
X189937643Y-99371674D01*
X189937642Y-99371674D01*
X189753204Y-99352289D01*
X189753202Y-99352289D01*
X189747075Y-99351645D01*
X189664576Y-99359153D01*
X189556251Y-99369011D01*
X189556248Y-99369012D01*
X189550112Y-99369570D01*
X189544206Y-99371308D01*
X189544202Y-99371309D01*
X189439076Y-99402249D01*
X189360381Y-99425410D01*
X189354923Y-99428263D01*
X189354919Y-99428265D01*
X189264147Y-99475720D01*
X189185110Y-99517040D01*
X189030975Y-99640968D01*
X188903846Y-99792474D01*
X188900879Y-99797872D01*
X188900875Y-99797877D01*
X188897397Y-99804204D01*
X188808567Y-99965787D01*
X188806706Y-99971654D01*
X188806705Y-99971656D01*
X188750627Y-100148436D01*
X188748765Y-100154306D01*
X188726719Y-100350851D01*
X188743268Y-100547934D01*
X188797783Y-100738050D01*
X188888187Y-100913956D01*
X188997763Y-101052207D01*
X189004246Y-101060387D01*
X189030883Y-101126197D01*
X189031500Y-101138651D01*
X189031500Y-115075648D01*
X189011498Y-115143769D01*
X189002021Y-115156638D01*
X188883846Y-115297474D01*
X188880879Y-115302872D01*
X188880875Y-115302877D01*
X188811687Y-115428732D01*
X188788567Y-115470787D01*
X188786706Y-115476654D01*
X188786705Y-115476656D01*
X188733627Y-115643980D01*
X188728765Y-115659306D01*
X188706719Y-115855851D01*
X183834185Y-115855851D01*
X183804066Y-115799204D01*
X183715336Y-115690410D01*
X183682960Y-115650713D01*
X183682957Y-115650710D01*
X183679065Y-115645938D01*
X183670848Y-115639140D01*
X183531425Y-115523799D01*
X183531421Y-115523797D01*
X183526675Y-115519870D01*
X183352701Y-115425802D01*
X183163768Y-115367318D01*
X183157643Y-115366674D01*
X183157642Y-115366674D01*
X182973204Y-115347289D01*
X182973202Y-115347289D01*
X182967075Y-115346645D01*
X182884576Y-115354153D01*
X182776251Y-115364011D01*
X182776248Y-115364012D01*
X182770112Y-115364570D01*
X182764206Y-115366308D01*
X182764202Y-115366309D01*
X182681033Y-115390787D01*
X182580381Y-115420410D01*
X182574923Y-115423263D01*
X182574919Y-115423265D01*
X182513666Y-115455288D01*
X182405110Y-115512040D01*
X182266236Y-115623698D01*
X182200616Y-115650793D01*
X182187286Y-115651500D01*
X177338927Y-115651500D01*
X177330357Y-115651208D01*
X177291514Y-115648560D01*
X177262826Y-115643217D01*
X177249656Y-115639140D01*
X177249650Y-115639139D01*
X177243768Y-115637318D01*
X177237643Y-115636674D01*
X177237642Y-115636674D01*
X177053204Y-115617289D01*
X177053202Y-115617289D01*
X177047075Y-115616645D01*
X176964576Y-115624153D01*
X176856251Y-115634011D01*
X176856248Y-115634012D01*
X176850112Y-115634570D01*
X176844206Y-115636308D01*
X176844202Y-115636309D01*
X176767828Y-115658787D01*
X176660381Y-115690410D01*
X176654923Y-115693263D01*
X176654919Y-115693265D01*
X176573361Y-115735903D01*
X176485110Y-115782040D01*
X176330975Y-115905968D01*
X176203846Y-116057474D01*
X176200879Y-116062872D01*
X176200875Y-116062877D01*
X176132828Y-116186656D01*
X176108567Y-116230787D01*
X176106706Y-116236654D01*
X176106705Y-116236656D01*
X176064626Y-116369306D01*
X176048765Y-116419306D01*
X176026719Y-116615851D01*
X176028035Y-116631518D01*
X176042377Y-116802321D01*
X176043268Y-116812934D01*
X176058096Y-116864646D01*
X176092247Y-116983742D01*
X176097783Y-117003050D01*
X176188187Y-117178956D01*
X176311035Y-117333953D01*
X176315728Y-117337947D01*
X176315729Y-117337948D01*
X176436039Y-117440339D01*
X176461650Y-117462136D01*
X176634294Y-117558624D01*
X176822392Y-117619740D01*
X177018777Y-117643158D01*
X177024912Y-117642686D01*
X177024914Y-117642686D01*
X177209830Y-117628457D01*
X177209834Y-117628456D01*
X177215972Y-117627984D01*
X177406463Y-117574798D01*
X177411967Y-117572018D01*
X177411969Y-117572017D01*
X177577495Y-117488404D01*
X177577497Y-117488403D01*
X177582996Y-117485625D01*
X177738847Y-117363861D01*
X177868078Y-117214145D01*
X177907074Y-117145500D01*
X177914594Y-117132263D01*
X177965634Y-117082912D01*
X178024150Y-117068500D01*
X179573192Y-117068500D01*
X179641313Y-117088502D01*
X179687806Y-117142158D01*
X179697910Y-117212432D01*
X179668416Y-117277012D01*
X179623836Y-117309874D01*
X179595211Y-117322439D01*
X179589105Y-117324931D01*
X179554657Y-117337948D01*
X179529344Y-117347513D01*
X179523083Y-117351816D01*
X179520717Y-117353053D01*
X179505937Y-117361280D01*
X179503652Y-117362631D01*
X179496695Y-117365685D01*
X179490675Y-117370305D01*
X179490669Y-117370308D01*
X179459542Y-117394194D01*
X179445998Y-117404587D01*
X179440668Y-117408459D01*
X179394280Y-117440339D01*
X179394275Y-117440344D01*
X179388019Y-117444643D01*
X179382968Y-117450313D01*
X179382966Y-117450314D01*
X179346565Y-117491170D01*
X179341584Y-117496446D01*
X178184069Y-118653961D01*
X178121757Y-118687987D01*
X178106394Y-118690347D01*
X177956251Y-118704011D01*
X177956248Y-118704012D01*
X177950112Y-118704570D01*
X177944206Y-118706308D01*
X177944202Y-118706309D01*
X177879323Y-118725404D01*
X177760381Y-118760410D01*
X177754923Y-118763263D01*
X177754919Y-118763265D01*
X177699251Y-118792368D01*
X177585110Y-118852040D01*
X177430975Y-118975968D01*
X177303846Y-119127474D01*
X177300879Y-119132872D01*
X177300875Y-119132877D01*
X177233951Y-119254613D01*
X177208567Y-119300787D01*
X177206706Y-119306654D01*
X177206705Y-119306656D01*
X177187719Y-119366507D01*
X177148765Y-119489306D01*
X177130412Y-119652929D01*
X177128421Y-119670679D01*
X177100950Y-119736146D01*
X177092301Y-119745729D01*
X173754602Y-123083428D01*
X173692290Y-123117454D01*
X173621475Y-123112389D01*
X173564639Y-123069842D01*
X173540108Y-123006629D01*
X173536986Y-122974791D01*
X173524080Y-122843167D01*
X173520815Y-122832351D01*
X173483326Y-122708185D01*
X173466916Y-122653831D01*
X173374066Y-122479204D01*
X173266857Y-122347753D01*
X173239303Y-122282321D01*
X173238500Y-122268117D01*
X173238500Y-118488927D01*
X173238792Y-118480358D01*
X173242210Y-118430225D01*
X173242210Y-118430221D01*
X173242726Y-118422648D01*
X173231736Y-118359681D01*
X173230775Y-118353165D01*
X173224014Y-118297298D01*
X173223102Y-118289758D01*
X173220419Y-118282657D01*
X173219778Y-118280048D01*
X173215313Y-118263728D01*
X173214548Y-118261195D01*
X173213243Y-118253717D01*
X173187552Y-118195190D01*
X173185067Y-118189102D01*
X173165172Y-118136449D01*
X173165171Y-118136447D01*
X173162487Y-118129344D01*
X173158186Y-118123085D01*
X173156949Y-118120720D01*
X173148727Y-118105948D01*
X173147372Y-118103656D01*
X173144316Y-118096695D01*
X173139691Y-118090668D01*
X173139689Y-118090664D01*
X173105407Y-118045987D01*
X173101529Y-118040650D01*
X173069659Y-117994278D01*
X173069658Y-117994277D01*
X173065357Y-117988019D01*
X173018838Y-117946572D01*
X173013563Y-117941592D01*
X172123896Y-117051925D01*
X171231442Y-116159472D01*
X171225588Y-116153206D01*
X171192556Y-116115340D01*
X171192553Y-116115337D01*
X171187561Y-116109615D01*
X171135280Y-116072871D01*
X171129986Y-116068939D01*
X171109574Y-116052934D01*
X171079718Y-116029524D01*
X171072802Y-116026401D01*
X171070516Y-116025017D01*
X171055835Y-116016643D01*
X171053475Y-116015378D01*
X171047261Y-116011010D01*
X171040182Y-116008250D01*
X171040180Y-116008249D01*
X170987725Y-115987798D01*
X170981656Y-115985247D01*
X170923427Y-115958955D01*
X170915960Y-115957571D01*
X170913405Y-115956770D01*
X170897152Y-115952141D01*
X170894572Y-115951478D01*
X170887491Y-115948718D01*
X170879960Y-115947727D01*
X170879958Y-115947726D01*
X170850339Y-115943827D01*
X170824139Y-115940378D01*
X170817641Y-115939348D01*
X170754814Y-115927704D01*
X170747234Y-115928141D01*
X170747233Y-115928141D01*
X170692608Y-115931291D01*
X170685354Y-115931500D01*
X165522365Y-115931500D01*
X165454244Y-115911498D01*
X165424721Y-115885134D01*
X165412963Y-115870716D01*
X165412956Y-115870709D01*
X165409065Y-115865938D01*
X165402724Y-115860692D01*
X165261425Y-115743799D01*
X165261421Y-115743797D01*
X165256675Y-115739870D01*
X165082701Y-115645802D01*
X164893768Y-115587318D01*
X164887643Y-115586674D01*
X164887642Y-115586674D01*
X164703204Y-115567289D01*
X164703202Y-115567289D01*
X164697075Y-115566645D01*
X164614576Y-115574153D01*
X164506251Y-115584011D01*
X164506248Y-115584012D01*
X164500112Y-115584570D01*
X164494206Y-115586308D01*
X164494202Y-115586309D01*
X164402474Y-115613306D01*
X164310381Y-115640410D01*
X164304923Y-115643263D01*
X164304919Y-115643265D01*
X164247723Y-115673167D01*
X164135110Y-115732040D01*
X163980975Y-115855968D01*
X163853846Y-116007474D01*
X163850879Y-116012872D01*
X163850875Y-116012877D01*
X163777747Y-116145898D01*
X163758567Y-116180787D01*
X163756706Y-116186654D01*
X163756705Y-116186656D01*
X163728383Y-116275938D01*
X163698765Y-116369306D01*
X163676719Y-116565851D01*
X163677235Y-116571995D01*
X163692398Y-116752570D01*
X163693268Y-116762934D01*
X163708140Y-116814798D01*
X163745230Y-116944145D01*
X163747783Y-116953050D01*
X163750602Y-116958535D01*
X163829505Y-117112062D01*
X163838187Y-117128956D01*
X163961035Y-117283953D01*
X163965728Y-117287947D01*
X163965729Y-117287948D01*
X164102771Y-117404579D01*
X164111650Y-117412136D01*
X164284294Y-117508624D01*
X164472392Y-117569740D01*
X164668777Y-117593158D01*
X164674912Y-117592686D01*
X164674914Y-117592686D01*
X164859830Y-117578457D01*
X164859834Y-117578456D01*
X164865972Y-117577984D01*
X165056463Y-117524798D01*
X165061967Y-117522018D01*
X165061969Y-117522017D01*
X165227495Y-117438404D01*
X165227497Y-117438403D01*
X165232996Y-117435625D01*
X165310324Y-117375210D01*
X165376316Y-117349033D01*
X165387895Y-117348500D01*
X170364340Y-117348500D01*
X170432461Y-117368502D01*
X170453435Y-117385405D01*
X171784595Y-118716565D01*
X171818621Y-118778877D01*
X171821500Y-118805660D01*
X171821500Y-122269483D01*
X171801498Y-122337604D01*
X171792021Y-122350473D01*
X171693846Y-122467474D01*
X171690879Y-122472872D01*
X171690875Y-122472877D01*
X171636061Y-122572585D01*
X171598567Y-122640787D01*
X171596706Y-122646654D01*
X171596705Y-122646656D01*
X171556097Y-122774669D01*
X171538765Y-122829306D01*
X171516719Y-123025851D01*
X171520283Y-123068295D01*
X171529381Y-123176638D01*
X171533268Y-123222934D01*
X171587783Y-123413050D01*
X171678187Y-123588956D01*
X171801035Y-123743953D01*
X171805728Y-123747947D01*
X171805729Y-123747948D01*
X171920185Y-123845357D01*
X171951650Y-123872136D01*
X172124294Y-123968624D01*
X172312392Y-124029740D01*
X172349693Y-124034188D01*
X172497797Y-124051849D01*
X172563070Y-124079777D01*
X172602882Y-124138560D01*
X172604594Y-124209536D01*
X172571972Y-124266058D01*
X168643708Y-128194322D01*
X168581396Y-128228348D01*
X168510581Y-128223283D01*
X168453745Y-128180736D01*
X168428934Y-128114216D01*
X168428614Y-128105760D01*
X168420077Y-126088115D01*
X168420077Y-126088114D01*
X168420000Y-126070000D01*
X152980000Y-126070000D01*
X152980000Y-127360000D01*
X152994661Y-129060702D01*
X153016245Y-131564414D01*
X152996831Y-131632704D01*
X152943578Y-131679658D01*
X152890250Y-131691500D01*
X149230110Y-131691500D01*
X149193237Y-131684071D01*
X149192701Y-131685802D01*
X149003768Y-131627318D01*
X148997643Y-131626674D01*
X148997642Y-131626674D01*
X148813204Y-131607289D01*
X148813202Y-131607289D01*
X148807075Y-131606645D01*
X148724576Y-131614153D01*
X148616251Y-131624011D01*
X148616248Y-131624012D01*
X148610112Y-131624570D01*
X148604206Y-131626308D01*
X148604202Y-131626309D01*
X148499076Y-131657249D01*
X148420381Y-131680410D01*
X148414923Y-131683263D01*
X148414919Y-131683265D01*
X148324147Y-131730720D01*
X148245110Y-131772040D01*
X148090975Y-131895968D01*
X147963846Y-132047474D01*
X147960879Y-132052872D01*
X147960875Y-132052877D01*
X147910900Y-132143783D01*
X147868567Y-132220787D01*
X147866706Y-132226654D01*
X147866705Y-132226656D01*
X147811622Y-132400299D01*
X147808765Y-132409306D01*
X147786719Y-132605851D01*
X145107821Y-132605851D01*
X143126522Y-130624552D01*
X143092496Y-130562240D01*
X143090218Y-130547753D01*
X143089573Y-130541173D01*
X143074080Y-130383167D01*
X143016916Y-130193831D01*
X142924066Y-130019204D01*
X142828963Y-129902596D01*
X142802960Y-129870713D01*
X142802957Y-129870710D01*
X142799065Y-129865938D01*
X142792724Y-129860692D01*
X142651425Y-129743799D01*
X142651421Y-129743797D01*
X142646675Y-129739870D01*
X142472701Y-129645802D01*
X142283768Y-129587318D01*
X142277643Y-129586674D01*
X142277642Y-129586674D01*
X142093204Y-129567289D01*
X142093202Y-129567289D01*
X142087075Y-129566645D01*
X142004576Y-129574153D01*
X141896251Y-129584011D01*
X141896248Y-129584012D01*
X141890112Y-129584570D01*
X141884206Y-129586308D01*
X141884202Y-129586309D01*
X141779076Y-129617249D01*
X141700381Y-129640410D01*
X141694923Y-129643263D01*
X141694919Y-129643265D01*
X141615955Y-129684547D01*
X141525110Y-129732040D01*
X141370975Y-129855968D01*
X141243846Y-130007474D01*
X141240879Y-130012872D01*
X141240875Y-130012877D01*
X141182523Y-130119020D01*
X141148567Y-130180787D01*
X141146706Y-130186654D01*
X141146705Y-130186656D01*
X141141813Y-130202077D01*
X141088765Y-130369306D01*
X141066719Y-130565851D01*
X141067235Y-130571995D01*
X141078917Y-130711114D01*
X141083268Y-130762934D01*
X141099092Y-130818117D01*
X141124808Y-130907800D01*
X141137783Y-130953050D01*
X141140602Y-130958535D01*
X141184038Y-131043051D01*
X141228187Y-131128956D01*
X141351035Y-131283953D01*
X141355728Y-131287947D01*
X141355729Y-131287948D01*
X141470265Y-131385425D01*
X141501650Y-131412136D01*
X141674294Y-131508624D01*
X141862392Y-131569740D01*
X142002901Y-131586495D01*
X142052253Y-131592380D01*
X142117526Y-131620308D01*
X142126429Y-131628399D01*
X142490007Y-131991977D01*
X142524033Y-132054289D01*
X142518968Y-132125104D01*
X142476421Y-132181940D01*
X142409901Y-132206751D01*
X142340983Y-132191908D01*
X142316764Y-132178813D01*
X142292701Y-132165802D01*
X142103768Y-132107318D01*
X142097643Y-132106674D01*
X142097642Y-132106674D01*
X141913204Y-132087289D01*
X141913202Y-132087289D01*
X141907075Y-132086645D01*
X141824576Y-132094153D01*
X141716251Y-132104011D01*
X141716248Y-132104012D01*
X141710112Y-132104570D01*
X141704206Y-132106308D01*
X141704202Y-132106309D01*
X141640342Y-132125104D01*
X141520381Y-132160410D01*
X141514923Y-132163263D01*
X141514919Y-132163265D01*
X141479198Y-132181940D01*
X141345110Y-132252040D01*
X141206236Y-132363698D01*
X141140616Y-132390793D01*
X141127286Y-132391500D01*
X134828911Y-132391500D01*
X134820342Y-132391208D01*
X134770223Y-132387791D01*
X134770219Y-132387791D01*
X134762647Y-132387275D01*
X134699685Y-132398264D01*
X134693195Y-132399221D01*
X134629758Y-132406898D01*
X134622649Y-132409584D01*
X134620078Y-132410216D01*
X134603772Y-132414676D01*
X134601204Y-132415451D01*
X134593716Y-132416758D01*
X134574619Y-132425141D01*
X134535212Y-132442439D01*
X134529105Y-132444931D01*
X134509273Y-132452425D01*
X134469344Y-132467513D01*
X134463083Y-132471816D01*
X134460717Y-132473053D01*
X134445937Y-132481280D01*
X134443652Y-132482631D01*
X134436695Y-132485685D01*
X134430675Y-132490305D01*
X134430669Y-132490308D01*
X134405900Y-132509315D01*
X134385998Y-132524587D01*
X134380668Y-132528459D01*
X134334280Y-132560339D01*
X134334275Y-132560344D01*
X134328019Y-132564643D01*
X134322968Y-132570313D01*
X134322966Y-132570314D01*
X134286565Y-132611170D01*
X134281584Y-132616446D01*
X134143435Y-132754595D01*
X134081123Y-132788621D01*
X134054340Y-132791500D01*
X133106881Y-132791500D01*
X133038760Y-132771498D01*
X132992267Y-132717842D01*
X132982163Y-132647568D01*
X133011657Y-132582988D01*
X133072997Y-132544142D01*
X133100519Y-132536458D01*
X133100523Y-132536457D01*
X133106463Y-132534798D01*
X133111967Y-132532018D01*
X133111969Y-132532017D01*
X133277495Y-132448404D01*
X133277497Y-132448403D01*
X133282996Y-132445625D01*
X133438847Y-132323861D01*
X133539933Y-132206751D01*
X133564049Y-132178813D01*
X133564050Y-132178811D01*
X133568078Y-132174145D01*
X133665769Y-132002179D01*
X133728197Y-131814513D01*
X133752985Y-131618295D01*
X133753380Y-131590000D01*
X133734080Y-131393167D01*
X133676916Y-131203831D01*
X133584066Y-131029204D01*
X133476857Y-130897753D01*
X133449303Y-130832321D01*
X133448500Y-130818117D01*
X133448500Y-119245660D01*
X133468502Y-119177539D01*
X133485405Y-119156565D01*
X135806691Y-116835279D01*
X135869003Y-116801253D01*
X135886115Y-116798746D01*
X135940929Y-116794528D01*
X136019830Y-116788457D01*
X136019834Y-116788456D01*
X136025972Y-116787984D01*
X136216463Y-116734798D01*
X136221967Y-116732018D01*
X136221969Y-116732017D01*
X136387495Y-116648404D01*
X136387497Y-116648403D01*
X136392996Y-116645625D01*
X136538496Y-116531948D01*
X136543991Y-116527655D01*
X136548847Y-116523861D01*
X136678078Y-116374145D01*
X136775769Y-116202179D01*
X136838197Y-116014513D01*
X136862985Y-115818295D01*
X136863380Y-115790000D01*
X136844080Y-115593167D01*
X136842010Y-115586309D01*
X136811069Y-115483831D01*
X136786916Y-115403831D01*
X136694066Y-115229204D01*
X136608682Y-115124513D01*
X136572960Y-115080713D01*
X136572957Y-115080710D01*
X136569065Y-115075938D01*
X136557440Y-115066321D01*
X136421425Y-114953799D01*
X136421421Y-114953797D01*
X136416675Y-114949870D01*
X136242701Y-114855802D01*
X136053768Y-114797318D01*
X136047643Y-114796674D01*
X136047642Y-114796674D01*
X135863204Y-114777289D01*
X135863202Y-114777289D01*
X135857075Y-114776645D01*
X135774576Y-114784153D01*
X135666251Y-114794011D01*
X135666248Y-114794012D01*
X135660112Y-114794570D01*
X135654206Y-114796308D01*
X135654202Y-114796309D01*
X135599088Y-114812530D01*
X135470381Y-114850410D01*
X135464923Y-114853263D01*
X135464919Y-114853265D01*
X135414305Y-114879726D01*
X135295110Y-114942040D01*
X135140975Y-115065968D01*
X135013846Y-115217474D01*
X135010879Y-115222872D01*
X135010875Y-115222877D01*
X134963417Y-115309204D01*
X134918567Y-115390787D01*
X134916706Y-115396654D01*
X134916705Y-115396656D01*
X134888952Y-115484145D01*
X134858765Y-115579306D01*
X134845191Y-115700320D01*
X134838421Y-115760679D01*
X134810950Y-115826146D01*
X134802301Y-115835729D01*
X132259480Y-118378550D01*
X132253215Y-118384404D01*
X132209615Y-118422439D01*
X132205248Y-118428653D01*
X132172872Y-118474719D01*
X132168939Y-118480014D01*
X132129524Y-118530282D01*
X132126401Y-118537198D01*
X132125017Y-118539484D01*
X132116643Y-118554165D01*
X132115378Y-118556525D01*
X132111010Y-118562739D01*
X132108250Y-118569818D01*
X132108249Y-118569820D01*
X132087798Y-118622275D01*
X132085247Y-118628344D01*
X132058955Y-118686573D01*
X132057571Y-118694040D01*
X132056770Y-118696595D01*
X132052141Y-118712848D01*
X132051478Y-118715428D01*
X132048718Y-118722509D01*
X132047727Y-118730040D01*
X132047726Y-118730042D01*
X132040379Y-118785852D01*
X132039348Y-118792359D01*
X132027704Y-118855186D01*
X132028141Y-118862766D01*
X132028141Y-118862767D01*
X132031291Y-118917392D01*
X132031500Y-118924646D01*
X132031500Y-130819483D01*
X132011498Y-130887604D01*
X132002021Y-130900473D01*
X131903846Y-131017474D01*
X131900879Y-131022872D01*
X131900875Y-131022877D01*
X131839905Y-131133783D01*
X131808567Y-131190787D01*
X131806706Y-131196654D01*
X131806705Y-131196656D01*
X131754128Y-131362401D01*
X131748765Y-131379306D01*
X131726719Y-131575851D01*
X131727235Y-131581995D01*
X131735952Y-131685802D01*
X131743268Y-131772934D01*
X131744967Y-131778858D01*
X131778548Y-131895968D01*
X131797783Y-131963050D01*
X131812650Y-131991977D01*
X131872864Y-132109140D01*
X131888187Y-132138956D01*
X132011035Y-132293953D01*
X132015728Y-132297947D01*
X132015729Y-132297948D01*
X132153765Y-132415425D01*
X132161650Y-132422136D01*
X132334294Y-132518624D01*
X132410656Y-132543435D01*
X132417525Y-132545667D01*
X132476131Y-132585740D01*
X132503768Y-132651137D01*
X132491661Y-132721093D01*
X132443656Y-132773400D01*
X132378589Y-132791500D01*
X128645660Y-132791500D01*
X128577539Y-132771498D01*
X128556565Y-132754595D01*
X127845405Y-132043435D01*
X127811379Y-131981123D01*
X127808500Y-131954340D01*
X127808500Y-124191851D01*
X129542719Y-124191851D01*
X129543235Y-124197995D01*
X129556828Y-124359870D01*
X129559268Y-124388934D01*
X129581906Y-124467881D01*
X129606066Y-124552136D01*
X129613783Y-124579050D01*
X129616602Y-124584535D01*
X129692610Y-124732429D01*
X129704187Y-124754956D01*
X129827035Y-124909953D01*
X129831728Y-124913947D01*
X129831729Y-124913948D01*
X129927465Y-124995425D01*
X129977650Y-125038136D01*
X130150294Y-125134624D01*
X130338392Y-125195740D01*
X130534777Y-125219158D01*
X130540912Y-125218686D01*
X130540914Y-125218686D01*
X130725830Y-125204457D01*
X130725834Y-125204456D01*
X130731972Y-125203984D01*
X130922463Y-125150798D01*
X130927967Y-125148018D01*
X130927969Y-125148017D01*
X131093495Y-125064404D01*
X131093497Y-125064403D01*
X131098996Y-125061625D01*
X131254847Y-124939861D01*
X131384078Y-124790145D01*
X131481769Y-124618179D01*
X131544197Y-124430513D01*
X131568985Y-124234295D01*
X131569380Y-124206000D01*
X131550080Y-124009167D01*
X131547779Y-124001544D01*
X131500623Y-123845357D01*
X131492916Y-123819831D01*
X131400066Y-123645204D01*
X131292857Y-123513753D01*
X131265303Y-123448321D01*
X131264500Y-123434117D01*
X131264500Y-117185660D01*
X131284502Y-117117539D01*
X131301405Y-117096565D01*
X133052691Y-115345279D01*
X133115003Y-115311253D01*
X133132115Y-115308746D01*
X133188226Y-115304428D01*
X133265830Y-115298457D01*
X133265834Y-115298456D01*
X133271972Y-115297984D01*
X133462463Y-115244798D01*
X133467967Y-115242018D01*
X133467969Y-115242017D01*
X133633495Y-115158404D01*
X133633497Y-115158403D01*
X133638996Y-115155625D01*
X133794847Y-115033861D01*
X133888489Y-114925376D01*
X133920049Y-114888813D01*
X133920050Y-114888811D01*
X133924078Y-114884145D01*
X134021769Y-114712179D01*
X134084197Y-114524513D01*
X134108985Y-114328295D01*
X134109380Y-114300000D01*
X134090080Y-114103167D01*
X134085101Y-114086674D01*
X134057539Y-113995387D01*
X134032916Y-113913831D01*
X133940066Y-113739204D01*
X133869709Y-113652938D01*
X133818960Y-113590713D01*
X133818957Y-113590710D01*
X133815065Y-113585938D01*
X133808724Y-113580692D01*
X133667425Y-113463799D01*
X133667421Y-113463797D01*
X133662675Y-113459870D01*
X133488701Y-113365802D01*
X133299768Y-113307318D01*
X133293643Y-113306674D01*
X133293642Y-113306674D01*
X133109204Y-113287289D01*
X133109202Y-113287289D01*
X133103075Y-113286645D01*
X133020576Y-113294153D01*
X132912251Y-113304011D01*
X132912248Y-113304012D01*
X132906112Y-113304570D01*
X132900206Y-113306308D01*
X132900202Y-113306309D01*
X132825500Y-113328295D01*
X132716381Y-113360410D01*
X132710923Y-113363263D01*
X132710919Y-113363265D01*
X132620147Y-113410720D01*
X132541110Y-113452040D01*
X132386975Y-113575968D01*
X132259846Y-113727474D01*
X132256879Y-113732872D01*
X132256875Y-113732877D01*
X132250406Y-113744645D01*
X132164567Y-113900787D01*
X132162706Y-113906654D01*
X132162705Y-113906656D01*
X132111776Y-114067204D01*
X132104765Y-114089306D01*
X132087877Y-114239870D01*
X132084421Y-114270679D01*
X132056950Y-114336146D01*
X132048301Y-114345729D01*
X130075480Y-116318550D01*
X130069215Y-116324404D01*
X130025615Y-116362439D01*
X129997260Y-116402784D01*
X129988872Y-116414719D01*
X129984939Y-116420014D01*
X129945524Y-116470282D01*
X129942401Y-116477198D01*
X129941017Y-116479484D01*
X129932643Y-116494165D01*
X129931378Y-116496525D01*
X129927010Y-116502739D01*
X129924250Y-116509818D01*
X129924249Y-116509820D01*
X129903798Y-116562275D01*
X129901247Y-116568344D01*
X129874955Y-116626573D01*
X129873571Y-116634040D01*
X129872770Y-116636595D01*
X129868141Y-116652848D01*
X129867478Y-116655428D01*
X129864718Y-116662509D01*
X129863727Y-116670040D01*
X129863726Y-116670042D01*
X129862099Y-116682404D01*
X129856909Y-116721829D01*
X129856379Y-116725852D01*
X129855348Y-116732359D01*
X129843704Y-116795186D01*
X129844141Y-116802766D01*
X129844141Y-116802767D01*
X129847291Y-116857392D01*
X129847500Y-116864646D01*
X129847500Y-123435483D01*
X129827498Y-123503604D01*
X129818021Y-123516473D01*
X129719846Y-123633474D01*
X129716879Y-123638872D01*
X129716875Y-123638877D01*
X129643970Y-123771492D01*
X129624567Y-123806787D01*
X129622706Y-123812654D01*
X129622705Y-123812656D01*
X129580847Y-123944610D01*
X129564765Y-123995306D01*
X129542719Y-124191851D01*
X127808500Y-124191851D01*
X127808500Y-114069538D01*
X127828502Y-114001417D01*
X127839118Y-113987207D01*
X127924054Y-113888807D01*
X127924055Y-113888806D01*
X127928078Y-113884145D01*
X128025769Y-113712179D01*
X128088197Y-113524513D01*
X128112985Y-113328295D01*
X128113380Y-113300000D01*
X128094080Y-113103167D01*
X128036916Y-112913831D01*
X127944066Y-112739204D01*
X127873709Y-112652938D01*
X127822960Y-112590713D01*
X127822957Y-112590710D01*
X127819065Y-112585938D01*
X127812724Y-112580692D01*
X127671425Y-112463799D01*
X127671421Y-112463797D01*
X127666675Y-112459870D01*
X127492701Y-112365802D01*
X127303768Y-112307318D01*
X127297643Y-112306674D01*
X127297642Y-112306674D01*
X127113204Y-112287289D01*
X127113202Y-112287289D01*
X127107075Y-112286645D01*
X127024576Y-112294153D01*
X126916251Y-112304011D01*
X126916248Y-112304012D01*
X126910112Y-112304570D01*
X126904206Y-112306308D01*
X126904202Y-112306309D01*
X126799076Y-112337249D01*
X126720381Y-112360410D01*
X126714923Y-112363263D01*
X126714919Y-112363265D01*
X126649515Y-112397458D01*
X126545110Y-112452040D01*
X126390975Y-112575968D01*
X126263846Y-112727474D01*
X126260879Y-112732872D01*
X126260875Y-112732877D01*
X126251433Y-112750053D01*
X126168567Y-112900787D01*
X126166706Y-112906654D01*
X126166705Y-112906656D01*
X126157115Y-112936887D01*
X126108765Y-113089306D01*
X126086719Y-113285851D01*
X126087235Y-113291995D01*
X126099926Y-113443131D01*
X126103268Y-113482934D01*
X126104967Y-113488858D01*
X126156070Y-113667075D01*
X126157783Y-113673050D01*
X126248187Y-113848956D01*
X126357763Y-113987207D01*
X126364246Y-113995387D01*
X126390883Y-114061197D01*
X126391500Y-114073651D01*
X126391500Y-114299201D01*
X126371498Y-114367322D01*
X126317842Y-114413815D01*
X126247568Y-114423919D01*
X126182988Y-114394425D01*
X126154248Y-114358353D01*
X126146962Y-114344649D01*
X126146958Y-114344642D01*
X126144066Y-114339204D01*
X126054338Y-114229187D01*
X126022960Y-114190713D01*
X126022957Y-114190710D01*
X126019065Y-114185938D01*
X126012724Y-114180692D01*
X125871425Y-114063799D01*
X125871421Y-114063797D01*
X125866675Y-114059870D01*
X125692701Y-113965802D01*
X125503768Y-113907318D01*
X125497643Y-113906674D01*
X125497642Y-113906674D01*
X125313204Y-113887289D01*
X125313202Y-113887289D01*
X125307075Y-113886645D01*
X125224576Y-113894153D01*
X125116251Y-113904011D01*
X125116248Y-113904012D01*
X125110112Y-113904570D01*
X125104206Y-113906308D01*
X125104202Y-113906309D01*
X124999076Y-113937249D01*
X124920381Y-113960410D01*
X124914923Y-113963263D01*
X124914919Y-113963265D01*
X124841942Y-114001417D01*
X124745110Y-114052040D01*
X124590975Y-114175968D01*
X124463846Y-114327474D01*
X124460879Y-114332872D01*
X124460875Y-114332877D01*
X124416380Y-114413815D01*
X124368567Y-114500787D01*
X124366706Y-114506654D01*
X124366705Y-114506656D01*
X124360999Y-114524645D01*
X124308765Y-114689306D01*
X124286719Y-114885851D01*
X124287235Y-114891995D01*
X124302681Y-115075938D01*
X124303268Y-115082934D01*
X124314653Y-115122639D01*
X124354960Y-115263204D01*
X124357783Y-115273050D01*
X124360602Y-115278535D01*
X124441866Y-115436656D01*
X124448187Y-115448956D01*
X124559295Y-115589140D01*
X124564246Y-115595387D01*
X124590883Y-115661197D01*
X124591500Y-115673651D01*
X124591500Y-132771088D01*
X124591208Y-132779658D01*
X124587275Y-132837352D01*
X124588580Y-132844829D01*
X124588580Y-132844830D01*
X124598261Y-132900299D01*
X124599223Y-132906821D01*
X124606898Y-132970242D01*
X124609581Y-132977343D01*
X124610222Y-132979952D01*
X124614685Y-132996262D01*
X124615450Y-132998798D01*
X124616757Y-133006284D01*
X124619811Y-133013241D01*
X124642442Y-133064795D01*
X124644933Y-133070899D01*
X124667513Y-133130656D01*
X124671817Y-133136919D01*
X124673054Y-133139285D01*
X124681299Y-133154097D01*
X124682632Y-133156351D01*
X124685685Y-133163305D01*
X124720606Y-133208813D01*
X124724579Y-133213991D01*
X124728459Y-133219332D01*
X124760339Y-133265720D01*
X124760344Y-133265725D01*
X124764643Y-133271981D01*
X124770313Y-133277032D01*
X124770314Y-133277034D01*
X124811170Y-133313435D01*
X124816446Y-133318416D01*
X126365989Y-134867959D01*
X126478563Y-134980534D01*
X126484416Y-134986799D01*
X126511323Y-135017642D01*
X126515709Y-135022670D01*
X126545418Y-135087151D01*
X126535549Y-135157459D01*
X126489236Y-135211270D01*
X126420761Y-135231500D01*
X118879704Y-135231500D01*
X118811583Y-135211498D01*
X118790609Y-135194595D01*
X118482942Y-134886928D01*
X118448916Y-134824616D01*
X118447115Y-134781389D01*
X118464862Y-134646590D01*
X118466489Y-134580000D01*
X118448185Y-134357361D01*
X118393764Y-134140702D01*
X118304687Y-133935840D01*
X118235247Y-133828502D01*
X118186155Y-133752617D01*
X118186153Y-133752614D01*
X118183347Y-133748277D01*
X118033003Y-133583051D01*
X118028952Y-133579852D01*
X118028948Y-133579848D01*
X117861747Y-133447800D01*
X117861743Y-133447798D01*
X117857692Y-133444598D01*
X117816386Y-133421796D01*
X117766417Y-133371364D01*
X117751645Y-133301921D01*
X117776761Y-133235516D01*
X117804113Y-133208909D01*
X117855490Y-133172262D01*
X117983193Y-133081173D01*
X117999629Y-133064795D01*
X118137768Y-132927137D01*
X118141429Y-132923489D01*
X118160274Y-132897264D01*
X118268768Y-132746277D01*
X118271786Y-132742077D01*
X118310718Y-132663305D01*
X118368469Y-132546453D01*
X118368470Y-132546451D01*
X118370763Y-132541811D01*
X118435703Y-132328069D01*
X118464862Y-132106590D01*
X118466140Y-132054289D01*
X118466407Y-132043365D01*
X118466407Y-132043361D01*
X118466489Y-132040000D01*
X118448185Y-131817361D01*
X118393764Y-131600702D01*
X118304687Y-131395840D01*
X118232304Y-131283953D01*
X118186155Y-131212617D01*
X118186153Y-131212614D01*
X118183347Y-131208277D01*
X118033003Y-131043051D01*
X118028952Y-131039852D01*
X118028948Y-131039848D01*
X117861747Y-130907800D01*
X117861743Y-130907798D01*
X117857692Y-130904598D01*
X117816386Y-130881796D01*
X117766417Y-130831364D01*
X117751645Y-130761921D01*
X117776761Y-130695516D01*
X117804113Y-130668909D01*
X117866299Y-130624552D01*
X117983193Y-130541173D01*
X118141429Y-130383489D01*
X118151621Y-130369306D01*
X118268768Y-130206277D01*
X118271786Y-130202077D01*
X118275862Y-130193831D01*
X118368469Y-130006453D01*
X118368470Y-130006451D01*
X118370763Y-130001811D01*
X118435703Y-129788069D01*
X118464862Y-129566590D01*
X118466489Y-129500000D01*
X118448185Y-129277361D01*
X118393764Y-129060702D01*
X118304687Y-128855840D01*
X118183347Y-128668277D01*
X118033003Y-128503051D01*
X118028952Y-128499852D01*
X118028948Y-128499848D01*
X117861747Y-128367800D01*
X117861743Y-128367798D01*
X117857692Y-128364598D01*
X117816386Y-128341796D01*
X117766417Y-128291364D01*
X117751645Y-128221921D01*
X117776761Y-128155516D01*
X117804113Y-128128909D01*
X117847936Y-128097650D01*
X117983193Y-128001173D01*
X118141429Y-127843489D01*
X118171230Y-127802017D01*
X118268768Y-127666277D01*
X118271786Y-127662077D01*
X118281432Y-127642561D01*
X118368469Y-127466453D01*
X118368470Y-127466451D01*
X118370763Y-127461811D01*
X118435703Y-127248069D01*
X118464862Y-127026590D01*
X118464944Y-127023240D01*
X118466407Y-126963365D01*
X118466407Y-126963361D01*
X118466489Y-126960000D01*
X118448185Y-126737361D01*
X118393764Y-126520702D01*
X118304687Y-126315840D01*
X118230717Y-126201500D01*
X118186155Y-126132617D01*
X118186153Y-126132614D01*
X118183347Y-126128277D01*
X118033003Y-125963051D01*
X118028952Y-125959852D01*
X118028948Y-125959848D01*
X117861747Y-125827800D01*
X117861743Y-125827798D01*
X117857692Y-125824598D01*
X117816386Y-125801796D01*
X117766417Y-125751364D01*
X117751645Y-125681921D01*
X117776761Y-125615516D01*
X117804113Y-125588909D01*
X117847936Y-125557650D01*
X117983193Y-125461173D01*
X118141429Y-125303489D01*
X118168498Y-125265819D01*
X118268768Y-125126277D01*
X118271786Y-125122077D01*
X118315246Y-125034143D01*
X118368469Y-124926453D01*
X118368470Y-124926451D01*
X118370763Y-124921811D01*
X118435703Y-124708069D01*
X118464862Y-124486590D01*
X118466382Y-124424393D01*
X118466407Y-124423365D01*
X118466407Y-124423361D01*
X118466489Y-124420000D01*
X118448185Y-124197361D01*
X118393764Y-123980702D01*
X118304687Y-123775840D01*
X118183347Y-123588277D01*
X118179873Y-123584459D01*
X118179866Y-123584450D01*
X118035768Y-123426088D01*
X118004716Y-123362242D01*
X118013112Y-123291744D01*
X118058289Y-123236976D01*
X118084733Y-123223307D01*
X118191385Y-123183325D01*
X118206982Y-123174786D01*
X118309057Y-123098285D01*
X118321618Y-123085724D01*
X118398119Y-122983649D01*
X118406657Y-122968054D01*
X118451811Y-122847606D01*
X118455438Y-122832351D01*
X118460964Y-122781486D01*
X118461333Y-122774672D01*
X118461333Y-122152115D01*
X118456858Y-122136876D01*
X118455468Y-122135671D01*
X118447785Y-122134000D01*
X115763449Y-122134000D01*
X115748210Y-122138475D01*
X115747005Y-122139865D01*
X115745334Y-122147548D01*
X115745334Y-122774669D01*
X115745704Y-122781490D01*
X115751228Y-122832352D01*
X115754854Y-122847604D01*
X115800009Y-122968054D01*
X115808547Y-122983649D01*
X115885048Y-123085724D01*
X115897609Y-123098285D01*
X115999684Y-123174786D01*
X116015279Y-123183324D01*
X116124160Y-123224142D01*
X116180924Y-123266784D01*
X116205624Y-123333345D01*
X116190416Y-123402694D01*
X116171024Y-123429175D01*
X116075342Y-123529301D01*
X116043962Y-123562138D01*
X116041048Y-123566410D01*
X116041047Y-123566411D01*
X116028742Y-123584450D01*
X115918076Y-123746680D01*
X115887451Y-123812656D01*
X115827186Y-123942487D01*
X115824021Y-123949305D01*
X115764322Y-124164570D01*
X115740584Y-124386695D01*
X115740881Y-124391848D01*
X115740881Y-124391851D01*
X115751333Y-124573123D01*
X115753443Y-124609715D01*
X115754580Y-124614761D01*
X115754581Y-124614767D01*
X115774452Y-124702939D01*
X115802555Y-124827639D01*
X115886599Y-125034616D01*
X115889298Y-125039020D01*
X115985336Y-125195740D01*
X116003320Y-125225088D01*
X116149583Y-125393938D01*
X116321459Y-125536632D01*
X116391928Y-125577811D01*
X116394778Y-125579476D01*
X116443502Y-125631114D01*
X116456573Y-125700897D01*
X116429842Y-125766669D01*
X116389388Y-125800027D01*
X116376940Y-125806507D01*
X116372807Y-125809610D01*
X116372804Y-125809612D01*
X116216916Y-125926656D01*
X116198298Y-125940635D01*
X116043962Y-126102138D01*
X116013696Y-126146507D01*
X115958788Y-126191507D01*
X115909610Y-126201500D01*
X115486371Y-126201500D01*
X115418250Y-126181498D01*
X115397276Y-126164595D01*
X114535405Y-125302724D01*
X114501379Y-125240412D01*
X114498500Y-125213629D01*
X114498500Y-121917349D01*
X114498549Y-121913831D01*
X114501193Y-121819183D01*
X114501193Y-121819180D01*
X114501334Y-121814128D01*
X114490941Y-121736235D01*
X114490241Y-121729684D01*
X114488906Y-121713087D01*
X114488500Y-121702985D01*
X114488500Y-121607885D01*
X115745333Y-121607885D01*
X115749808Y-121623124D01*
X115751198Y-121624329D01*
X115758881Y-121626000D01*
X116831218Y-121626000D01*
X116846457Y-121621525D01*
X116847662Y-121620135D01*
X116849333Y-121612452D01*
X116849333Y-121607885D01*
X117357333Y-121607885D01*
X117361808Y-121623124D01*
X117363198Y-121624329D01*
X117370881Y-121626000D01*
X118443217Y-121626000D01*
X118458456Y-121621525D01*
X118459661Y-121620135D01*
X118461332Y-121612452D01*
X118461332Y-120985331D01*
X118460962Y-120978510D01*
X118455438Y-120927648D01*
X118451812Y-120912396D01*
X118406657Y-120791946D01*
X118398119Y-120776351D01*
X118321618Y-120674276D01*
X118309057Y-120661715D01*
X118206982Y-120585214D01*
X118191387Y-120576676D01*
X118070939Y-120531522D01*
X118055684Y-120527895D01*
X118004819Y-120522369D01*
X117998005Y-120522000D01*
X117375448Y-120522000D01*
X117360209Y-120526475D01*
X117359004Y-120527865D01*
X117357333Y-120535548D01*
X117357333Y-121607885D01*
X116849333Y-121607885D01*
X116849333Y-120540116D01*
X116844858Y-120524877D01*
X116843468Y-120523672D01*
X116835785Y-120522001D01*
X116208664Y-120522001D01*
X116201843Y-120522371D01*
X116150981Y-120527895D01*
X116135729Y-120531521D01*
X116015279Y-120576676D01*
X115999684Y-120585214D01*
X115897609Y-120661715D01*
X115885048Y-120674276D01*
X115808547Y-120776351D01*
X115800009Y-120791946D01*
X115754855Y-120912394D01*
X115751228Y-120927649D01*
X115745702Y-120978514D01*
X115745333Y-120985328D01*
X115745333Y-121607885D01*
X114488500Y-121607885D01*
X114488500Y-117837031D01*
X114508502Y-117768910D01*
X114525405Y-117747936D01*
X122697936Y-109575405D01*
X122760248Y-109541379D01*
X122787031Y-109538500D01*
X138456340Y-109538500D01*
X138524461Y-109558502D01*
X138545431Y-109575401D01*
X139462597Y-110492568D01*
X139496621Y-110554878D01*
X139499500Y-110581661D01*
X139499500Y-115053483D01*
X139479498Y-115121604D01*
X139470021Y-115134473D01*
X139371846Y-115251474D01*
X139368879Y-115256872D01*
X139368875Y-115256877D01*
X139292032Y-115396656D01*
X139276567Y-115424787D01*
X139274706Y-115430654D01*
X139274705Y-115430656D01*
X139227971Y-115577981D01*
X139216765Y-115613306D01*
X139194719Y-115809851D01*
X139195235Y-115815995D01*
X139210614Y-115999140D01*
X139211268Y-116006934D01*
X139231166Y-116076325D01*
X139262803Y-116186656D01*
X139265783Y-116197050D01*
X139268602Y-116202535D01*
X139323141Y-116308655D01*
X139356187Y-116372956D01*
X139479035Y-116527953D01*
X139483728Y-116531947D01*
X139483729Y-116531948D01*
X139617300Y-116645625D01*
X139629650Y-116656136D01*
X139802294Y-116752624D01*
X139990392Y-116813740D01*
X140186777Y-116837158D01*
X140192912Y-116836686D01*
X140192914Y-116836686D01*
X140377830Y-116822457D01*
X140377834Y-116822456D01*
X140383972Y-116821984D01*
X140574463Y-116768798D01*
X140579967Y-116766018D01*
X140579969Y-116766017D01*
X140745495Y-116682404D01*
X140745497Y-116682403D01*
X140750996Y-116679625D01*
X140906847Y-116557861D01*
X141013204Y-116434645D01*
X141032049Y-116412813D01*
X141032050Y-116412811D01*
X141036078Y-116408145D01*
X141133769Y-116236179D01*
X141196197Y-116048513D01*
X141220985Y-115852295D01*
X141221380Y-115824000D01*
X141202080Y-115627167D01*
X141189855Y-115586674D01*
X141162944Y-115497542D01*
X141144916Y-115437831D01*
X141052066Y-115263204D01*
X140944857Y-115131753D01*
X140917303Y-115066321D01*
X140916500Y-115052117D01*
X140916500Y-110264912D01*
X140916792Y-110256342D01*
X140920209Y-110206224D01*
X140920209Y-110206220D01*
X140920725Y-110198648D01*
X140909738Y-110135697D01*
X140908776Y-110129175D01*
X140901102Y-110065758D01*
X140898419Y-110058657D01*
X140897778Y-110056048D01*
X140893315Y-110039738D01*
X140892550Y-110037202D01*
X140891243Y-110029716D01*
X140865556Y-109971200D01*
X140863065Y-109965096D01*
X140856801Y-109948517D01*
X140848271Y-109925944D01*
X140843173Y-109912452D01*
X140843172Y-109912451D01*
X140840487Y-109905344D01*
X140836183Y-109899081D01*
X140834946Y-109896715D01*
X140826701Y-109881903D01*
X140825368Y-109879649D01*
X140822315Y-109872695D01*
X140783413Y-109821998D01*
X140779541Y-109816668D01*
X140747661Y-109770280D01*
X140747656Y-109770275D01*
X140743357Y-109764019D01*
X140737246Y-109758574D01*
X140737018Y-109758209D01*
X140732663Y-109753269D01*
X140733487Y-109752543D01*
X140699692Y-109698325D01*
X140700673Y-109627335D01*
X140739878Y-109568145D01*
X140804859Y-109539547D01*
X140821067Y-109538500D01*
X142194340Y-109538500D01*
X142262461Y-109558502D01*
X142283435Y-109575405D01*
X151529422Y-118821393D01*
X151529425Y-118821396D01*
X151529432Y-118821402D01*
X153948557Y-121240528D01*
X153954411Y-121246793D01*
X153992439Y-121290385D01*
X154044729Y-121327136D01*
X154049971Y-121331028D01*
X154100282Y-121370476D01*
X154107201Y-121373600D01*
X154109493Y-121374988D01*
X154124165Y-121383357D01*
X154126525Y-121384622D01*
X154132739Y-121388990D01*
X154139818Y-121391750D01*
X154139820Y-121391751D01*
X154192275Y-121412202D01*
X154198344Y-121414753D01*
X154256573Y-121441045D01*
X154264046Y-121442430D01*
X154266612Y-121443234D01*
X154282835Y-121447855D01*
X154285427Y-121448520D01*
X154292509Y-121451282D01*
X154300044Y-121452274D01*
X154355861Y-121459622D01*
X154362377Y-121460654D01*
X154400770Y-121467770D01*
X154425186Y-121472295D01*
X154432766Y-121471858D01*
X154432767Y-121471858D01*
X154487380Y-121468709D01*
X154494633Y-121468500D01*
X159094340Y-121468500D01*
X159162461Y-121488502D01*
X159183435Y-121505405D01*
X161354374Y-123676345D01*
X161388400Y-123738657D01*
X161390837Y-123754897D01*
X161401629Y-123883411D01*
X161403268Y-123902934D01*
X161421799Y-123967558D01*
X161445969Y-124051849D01*
X161457783Y-124093050D01*
X161460602Y-124098535D01*
X161530374Y-124234295D01*
X161548187Y-124268956D01*
X161671035Y-124423953D01*
X161675728Y-124427947D01*
X161675729Y-124427948D01*
X161732153Y-124475968D01*
X161821650Y-124552136D01*
X161994294Y-124648624D01*
X162182392Y-124709740D01*
X162378777Y-124733158D01*
X162384912Y-124732686D01*
X162384914Y-124732686D01*
X162569830Y-124718457D01*
X162569834Y-124718456D01*
X162575972Y-124717984D01*
X162766463Y-124664798D01*
X162771967Y-124662018D01*
X162771969Y-124662017D01*
X162937495Y-124578404D01*
X162937497Y-124578403D01*
X162942996Y-124575625D01*
X163098847Y-124453861D01*
X163192489Y-124345376D01*
X163224049Y-124308813D01*
X163224050Y-124308811D01*
X163228078Y-124304145D01*
X163325769Y-124132179D01*
X163388197Y-123944513D01*
X163412985Y-123748295D01*
X163413380Y-123720000D01*
X163394080Y-123523167D01*
X163384652Y-123491938D01*
X163338697Y-123339731D01*
X163336916Y-123333831D01*
X163244066Y-123159204D01*
X163163292Y-123060165D01*
X163122960Y-123010713D01*
X163122957Y-123010710D01*
X163119065Y-123005938D01*
X163114316Y-123002009D01*
X162971425Y-122883799D01*
X162971421Y-122883797D01*
X162966675Y-122879870D01*
X162792701Y-122785802D01*
X162603768Y-122727318D01*
X162597643Y-122726674D01*
X162597642Y-122726674D01*
X162534084Y-122719994D01*
X162430820Y-122709141D01*
X162365164Y-122682128D01*
X162354896Y-122672926D01*
X161583883Y-121901913D01*
X161549857Y-121839601D01*
X161554922Y-121768786D01*
X161597469Y-121711950D01*
X161634042Y-121692985D01*
X161707500Y-121669117D01*
X161707499Y-121669117D01*
X161713785Y-121667075D01*
X161761994Y-121639242D01*
X161869994Y-121576888D01*
X161875715Y-121573585D01*
X161880623Y-121569166D01*
X162009766Y-121452885D01*
X162009767Y-121452883D01*
X162014669Y-121448470D01*
X162097880Y-121333940D01*
X162120692Y-121302542D01*
X162120693Y-121302541D01*
X162124573Y-121297200D01*
X162127608Y-121290385D01*
X162197940Y-121132416D01*
X162197940Y-121132414D01*
X162200625Y-121126385D01*
X162232056Y-120978514D01*
X162238128Y-120949947D01*
X162238128Y-120949943D01*
X162239500Y-120943490D01*
X162239500Y-120756510D01*
X162230108Y-120712321D01*
X162215164Y-120642017D01*
X162200625Y-120573615D01*
X162185710Y-120540116D01*
X162127258Y-120408830D01*
X162127257Y-120408828D01*
X162124573Y-120402800D01*
X162014669Y-120251530D01*
X161906584Y-120154209D01*
X161880623Y-120130834D01*
X161880622Y-120130833D01*
X161875715Y-120126415D01*
X161798928Y-120082082D01*
X161719508Y-120036229D01*
X161719507Y-120036228D01*
X161713785Y-120032925D01*
X161620765Y-120002701D01*
X161542235Y-119977185D01*
X161542234Y-119977185D01*
X161535956Y-119975145D01*
X161529393Y-119974455D01*
X161529392Y-119974455D01*
X161506803Y-119972081D01*
X161396620Y-119960500D01*
X161303380Y-119960500D01*
X161193197Y-119972081D01*
X161170608Y-119974455D01*
X161170607Y-119974455D01*
X161164044Y-119975145D01*
X161157766Y-119977185D01*
X161157765Y-119977185D01*
X161079235Y-120002701D01*
X160986215Y-120032925D01*
X160980493Y-120036228D01*
X160980492Y-120036229D01*
X160901072Y-120082082D01*
X160824285Y-120126415D01*
X160819378Y-120130833D01*
X160819377Y-120130834D01*
X160793417Y-120154209D01*
X160685331Y-120251530D01*
X160575427Y-120402800D01*
X160572743Y-120408828D01*
X160572742Y-120408830D01*
X160518116Y-120531522D01*
X160499375Y-120573615D01*
X160496902Y-120572514D01*
X160463619Y-120621208D01*
X160398227Y-120648857D01*
X160328268Y-120636764D01*
X160294746Y-120612776D01*
X159961450Y-120279480D01*
X159955596Y-120273215D01*
X159922673Y-120235475D01*
X159917561Y-120229615D01*
X159865280Y-120192871D01*
X159859986Y-120188939D01*
X159815693Y-120154209D01*
X159809718Y-120149524D01*
X159802802Y-120146401D01*
X159800516Y-120145017D01*
X159785835Y-120136643D01*
X159783475Y-120135378D01*
X159777261Y-120131010D01*
X159770182Y-120128250D01*
X159770180Y-120128249D01*
X159717725Y-120107798D01*
X159711656Y-120105247D01*
X159653427Y-120078955D01*
X159645960Y-120077571D01*
X159643405Y-120076770D01*
X159627152Y-120072141D01*
X159624572Y-120071478D01*
X159617491Y-120068718D01*
X159609960Y-120067727D01*
X159609958Y-120067726D01*
X159580339Y-120063827D01*
X159554139Y-120060378D01*
X159547641Y-120059348D01*
X159484814Y-120047704D01*
X159477234Y-120048141D01*
X159477233Y-120048141D01*
X159422608Y-120051291D01*
X159415354Y-120051500D01*
X154815660Y-120051500D01*
X154747539Y-120031498D01*
X154726565Y-120014595D01*
X147655460Y-112943490D01*
X152460500Y-112943490D01*
X152499375Y-113126385D01*
X152502060Y-113132414D01*
X152502060Y-113132416D01*
X152570728Y-113286645D01*
X152575427Y-113297200D01*
X152579307Y-113302541D01*
X152579308Y-113302542D01*
X152621352Y-113360410D01*
X152685331Y-113448470D01*
X152690233Y-113452883D01*
X152690234Y-113452885D01*
X152723607Y-113482934D01*
X152824285Y-113573585D01*
X152986215Y-113667075D01*
X153060278Y-113691139D01*
X153157765Y-113722815D01*
X153157766Y-113722815D01*
X153164044Y-113724855D01*
X153170607Y-113725545D01*
X153170608Y-113725545D01*
X153188962Y-113727474D01*
X153303380Y-113739500D01*
X153396620Y-113739500D01*
X153511038Y-113727474D01*
X153529392Y-113725545D01*
X153529393Y-113725545D01*
X153535956Y-113724855D01*
X153542234Y-113722815D01*
X153542235Y-113722815D01*
X153639722Y-113691139D01*
X153713785Y-113667075D01*
X153875715Y-113573585D01*
X153976393Y-113482934D01*
X154009766Y-113452885D01*
X154009767Y-113452883D01*
X154014669Y-113448470D01*
X154078648Y-113360410D01*
X154120692Y-113302542D01*
X154120693Y-113302541D01*
X154124573Y-113297200D01*
X154129273Y-113286645D01*
X154197940Y-113132416D01*
X154197940Y-113132414D01*
X154200625Y-113126385D01*
X154239500Y-112943490D01*
X154239500Y-112756510D01*
X154235704Y-112738648D01*
X154220062Y-112665062D01*
X154200625Y-112573615D01*
X154151732Y-112463799D01*
X154127258Y-112408830D01*
X154127257Y-112408828D01*
X154124573Y-112402800D01*
X154097693Y-112365802D01*
X154018548Y-112256869D01*
X154014669Y-112251530D01*
X153875715Y-112126415D01*
X153713785Y-112032925D01*
X153639722Y-112008861D01*
X153542235Y-111977185D01*
X153542234Y-111977185D01*
X153535956Y-111975145D01*
X153529393Y-111974455D01*
X153529392Y-111974455D01*
X153506803Y-111972081D01*
X153396620Y-111960500D01*
X153303380Y-111960500D01*
X153193197Y-111972081D01*
X153170608Y-111974455D01*
X153170607Y-111974455D01*
X153164044Y-111975145D01*
X153157766Y-111977185D01*
X153157765Y-111977185D01*
X153060278Y-112008861D01*
X152986215Y-112032925D01*
X152824285Y-112126415D01*
X152685331Y-112251530D01*
X152681452Y-112256869D01*
X152602308Y-112365802D01*
X152575427Y-112402800D01*
X152572743Y-112408828D01*
X152572742Y-112408830D01*
X152548268Y-112463799D01*
X152499375Y-112573615D01*
X152479938Y-112665062D01*
X152464297Y-112738648D01*
X152460500Y-112756510D01*
X152460500Y-112943490D01*
X147655460Y-112943490D01*
X144465565Y-109753595D01*
X144431539Y-109691283D01*
X144435225Y-109639748D01*
X152069671Y-109639748D01*
X152070976Y-109647225D01*
X152070976Y-109647226D01*
X152080657Y-109702695D01*
X152081619Y-109709217D01*
X152089294Y-109772638D01*
X152091977Y-109779739D01*
X152092618Y-109782348D01*
X152097081Y-109798658D01*
X152097846Y-109801194D01*
X152099153Y-109808680D01*
X152102207Y-109815637D01*
X152124838Y-109867191D01*
X152127329Y-109873295D01*
X152136179Y-109896715D01*
X152145488Y-109921351D01*
X152149909Y-109933052D01*
X152154213Y-109939315D01*
X152155450Y-109941681D01*
X152163695Y-109956493D01*
X152165028Y-109958747D01*
X152168081Y-109965701D01*
X152172703Y-109971724D01*
X152206975Y-110016387D01*
X152210855Y-110021728D01*
X152242735Y-110068116D01*
X152242740Y-110068121D01*
X152247039Y-110074377D01*
X152252709Y-110079428D01*
X152252710Y-110079430D01*
X152293566Y-110115831D01*
X152298842Y-110120812D01*
X155210595Y-113032565D01*
X155244621Y-113094877D01*
X155247500Y-113121660D01*
X155247500Y-115077088D01*
X155247208Y-115085658D01*
X155244066Y-115131753D01*
X155243275Y-115143352D01*
X155244580Y-115150829D01*
X155244580Y-115150830D01*
X155254261Y-115206299D01*
X155255223Y-115212821D01*
X155262898Y-115276242D01*
X155265581Y-115283343D01*
X155266222Y-115285952D01*
X155270685Y-115302262D01*
X155271450Y-115304798D01*
X155272757Y-115312284D01*
X155275811Y-115319241D01*
X155298442Y-115370795D01*
X155300933Y-115376899D01*
X155306181Y-115390787D01*
X155316990Y-115419392D01*
X155323513Y-115436656D01*
X155327817Y-115442919D01*
X155329054Y-115445285D01*
X155337299Y-115460097D01*
X155338632Y-115462351D01*
X155341685Y-115469305D01*
X155374478Y-115512040D01*
X155380579Y-115519991D01*
X155384459Y-115525332D01*
X155416339Y-115571720D01*
X155416344Y-115571725D01*
X155420643Y-115577981D01*
X155426313Y-115583032D01*
X155426314Y-115583034D01*
X155467170Y-115619435D01*
X155472446Y-115624416D01*
X157318557Y-117470528D01*
X157324411Y-117476793D01*
X157341556Y-117496446D01*
X157362439Y-117520385D01*
X157414729Y-117557136D01*
X157419971Y-117561028D01*
X157470282Y-117600476D01*
X157477201Y-117603600D01*
X157479493Y-117604988D01*
X157494165Y-117613357D01*
X157496525Y-117614622D01*
X157502739Y-117618990D01*
X157509818Y-117621750D01*
X157509820Y-117621751D01*
X157562275Y-117642202D01*
X157568344Y-117644753D01*
X157626573Y-117671045D01*
X157634046Y-117672430D01*
X157636612Y-117673234D01*
X157652835Y-117677855D01*
X157655427Y-117678520D01*
X157662509Y-117681282D01*
X157670044Y-117682274D01*
X157725861Y-117689622D01*
X157732377Y-117690654D01*
X157770770Y-117697770D01*
X157795186Y-117702295D01*
X157802766Y-117701858D01*
X157802767Y-117701858D01*
X157857380Y-117698709D01*
X157864633Y-117698500D01*
X161550019Y-117698500D01*
X161618140Y-117718502D01*
X161631682Y-117728546D01*
X161679110Y-117768910D01*
X161741650Y-117822136D01*
X161914294Y-117918624D01*
X162102392Y-117979740D01*
X162298777Y-118003158D01*
X162304912Y-118002686D01*
X162304914Y-118002686D01*
X162489830Y-117988457D01*
X162489834Y-117988456D01*
X162495972Y-117987984D01*
X162686463Y-117934798D01*
X162691967Y-117932018D01*
X162691969Y-117932017D01*
X162857495Y-117848404D01*
X162857497Y-117848403D01*
X162862996Y-117845625D01*
X162994146Y-117743160D01*
X163013991Y-117727655D01*
X163018847Y-117723861D01*
X163129392Y-117595793D01*
X163144049Y-117578813D01*
X163144050Y-117578811D01*
X163148078Y-117574145D01*
X163245769Y-117402179D01*
X163308197Y-117214513D01*
X163332985Y-117018295D01*
X163333380Y-116990000D01*
X163314080Y-116793167D01*
X163307744Y-116772179D01*
X163286596Y-116702136D01*
X163256916Y-116603831D01*
X163164066Y-116429204D01*
X163073819Y-116318550D01*
X163042960Y-116280713D01*
X163042957Y-116280710D01*
X163039065Y-116275938D01*
X163034316Y-116272009D01*
X162891425Y-116153799D01*
X162891421Y-116153797D01*
X162886675Y-116149870D01*
X162712701Y-116055802D01*
X162523768Y-115997318D01*
X162517643Y-115996674D01*
X162517642Y-115996674D01*
X162333204Y-115977289D01*
X162333202Y-115977289D01*
X162327075Y-115976645D01*
X162244576Y-115984153D01*
X162136251Y-115994011D01*
X162136248Y-115994012D01*
X162130112Y-115994570D01*
X162124206Y-115996308D01*
X162124202Y-115996309D01*
X162037581Y-116021803D01*
X161940381Y-116050410D01*
X161934923Y-116053263D01*
X161934919Y-116053265D01*
X161856020Y-116094513D01*
X161765110Y-116142040D01*
X161626236Y-116253698D01*
X161560616Y-116280793D01*
X161547286Y-116281500D01*
X158185660Y-116281500D01*
X158117539Y-116261498D01*
X158096565Y-116244595D01*
X156701405Y-114849435D01*
X156667379Y-114787123D01*
X156664500Y-114760340D01*
X156664500Y-112804927D01*
X156664792Y-112796358D01*
X156668210Y-112746225D01*
X156668210Y-112746221D01*
X156668726Y-112738648D01*
X156657736Y-112675681D01*
X156656775Y-112669165D01*
X156650014Y-112613298D01*
X156649102Y-112605758D01*
X156646419Y-112598657D01*
X156645778Y-112596048D01*
X156641309Y-112579715D01*
X156640548Y-112577195D01*
X156639243Y-112569717D01*
X156636191Y-112562764D01*
X156613559Y-112511204D01*
X156611068Y-112505099D01*
X156591175Y-112452456D01*
X156591173Y-112452452D01*
X156588487Y-112445344D01*
X156584184Y-112439083D01*
X156582947Y-112436717D01*
X156574720Y-112421937D01*
X156573369Y-112419652D01*
X156570315Y-112412695D01*
X156565695Y-112406675D01*
X156565692Y-112406669D01*
X156534332Y-112365802D01*
X156531413Y-112361998D01*
X156527541Y-112356668D01*
X156495661Y-112310280D01*
X156495656Y-112310275D01*
X156491357Y-112304019D01*
X156444829Y-112262564D01*
X156439554Y-112257584D01*
X153527801Y-109345831D01*
X153493775Y-109283519D01*
X153490896Y-109256736D01*
X153490896Y-107486705D01*
X153834424Y-107486705D01*
X153848921Y-107832593D01*
X153901884Y-108174709D01*
X153992651Y-108508789D01*
X154120093Y-108830670D01*
X154282620Y-109136339D01*
X154323073Y-109195419D01*
X154476215Y-109419079D01*
X154476220Y-109419085D01*
X154478206Y-109421986D01*
X154704415Y-109684051D01*
X154706985Y-109686431D01*
X154706989Y-109686435D01*
X154803245Y-109775569D01*
X154958426Y-109919268D01*
X154961248Y-109921349D01*
X154961251Y-109921351D01*
X155055133Y-109990567D01*
X155237073Y-110124704D01*
X155536884Y-110297800D01*
X155540105Y-110299207D01*
X155850899Y-110434990D01*
X155850909Y-110434994D01*
X155854121Y-110436397D01*
X155857478Y-110437436D01*
X155857483Y-110437438D01*
X155992104Y-110479110D01*
X156184830Y-110538769D01*
X156188286Y-110539428D01*
X156188285Y-110539428D01*
X156521438Y-110602980D01*
X156521443Y-110602981D01*
X156524889Y-110603638D01*
X156706364Y-110617602D01*
X156866563Y-110629929D01*
X156866565Y-110629929D01*
X156870060Y-110630198D01*
X157086564Y-110622637D01*
X157212526Y-110618239D01*
X157212531Y-110618239D01*
X157216041Y-110618116D01*
X157395565Y-110591606D01*
X157555039Y-110568057D01*
X157555044Y-110568056D01*
X157558518Y-110567543D01*
X157561910Y-110566647D01*
X157561914Y-110566646D01*
X157889833Y-110480006D01*
X157889834Y-110480006D01*
X157893224Y-110479110D01*
X158215986Y-110353919D01*
X158522782Y-110193530D01*
X158636098Y-110117097D01*
X158806872Y-110001909D01*
X158806874Y-110001908D01*
X158809788Y-109999942D01*
X158859968Y-109957236D01*
X159070753Y-109777844D01*
X159070754Y-109777843D01*
X159073426Y-109775569D01*
X159075821Y-109773019D01*
X159075829Y-109773011D01*
X159307999Y-109525774D01*
X159308003Y-109525769D01*
X159310410Y-109523206D01*
X159312515Y-109520392D01*
X159312521Y-109520385D01*
X159497480Y-109273145D01*
X159517787Y-109246000D01*
X159519568Y-109242965D01*
X159691190Y-108950443D01*
X159691193Y-108950438D01*
X159692972Y-108947405D01*
X159743558Y-108833787D01*
X159832348Y-108634360D01*
X159832350Y-108634356D01*
X159833780Y-108631143D01*
X159846536Y-108590932D01*
X182658623Y-108590932D01*
X182667916Y-108602945D01*
X182711569Y-108633512D01*
X182721047Y-108638984D01*
X182912962Y-108728475D01*
X182923255Y-108732221D01*
X183127786Y-108787025D01*
X183138581Y-108788928D01*
X183349525Y-108807384D01*
X183360475Y-108807384D01*
X183571419Y-108788928D01*
X183582214Y-108787025D01*
X183786745Y-108732221D01*
X183797038Y-108728475D01*
X183988953Y-108638984D01*
X183998431Y-108633512D01*
X184042920Y-108602359D01*
X184051294Y-108591883D01*
X184044226Y-108578436D01*
X183367812Y-107902022D01*
X183353868Y-107894408D01*
X183352035Y-107894539D01*
X183345420Y-107898790D01*
X182665053Y-108579157D01*
X182658623Y-108590932D01*
X159846536Y-108590932D01*
X159938458Y-108301157D01*
X159955106Y-108217081D01*
X159965627Y-108163944D01*
X160005700Y-107961559D01*
X160034669Y-107616582D01*
X160034699Y-107614412D01*
X160034700Y-107614398D01*
X160035802Y-107535475D01*
X182077616Y-107535475D01*
X182096072Y-107746419D01*
X182097975Y-107757214D01*
X182152779Y-107961745D01*
X182156525Y-107972037D01*
X182246012Y-108163944D01*
X182251495Y-108173439D01*
X182282640Y-108217919D01*
X182293117Y-108226294D01*
X182306564Y-108219226D01*
X182982978Y-107542812D01*
X182989356Y-107531132D01*
X183719408Y-107531132D01*
X183719539Y-107532965D01*
X183723790Y-107539580D01*
X184404157Y-108219947D01*
X184415932Y-108226377D01*
X184427947Y-108217081D01*
X184458505Y-108173439D01*
X184463988Y-108163944D01*
X184553475Y-107972037D01*
X184557221Y-107961745D01*
X184612025Y-107757214D01*
X184613928Y-107746419D01*
X184632384Y-107535475D01*
X184632384Y-107524525D01*
X184613928Y-107313581D01*
X184612025Y-107302786D01*
X184557221Y-107098255D01*
X184553475Y-107087963D01*
X184463988Y-106896056D01*
X184458505Y-106886561D01*
X184427360Y-106842081D01*
X184416883Y-106833706D01*
X184403436Y-106840774D01*
X183727022Y-107517188D01*
X183719408Y-107531132D01*
X182989356Y-107531132D01*
X182990592Y-107528868D01*
X182990461Y-107527035D01*
X182986210Y-107520420D01*
X182305843Y-106840053D01*
X182294068Y-106833623D01*
X182282053Y-106842919D01*
X182251495Y-106886561D01*
X182246012Y-106896056D01*
X182156525Y-107087963D01*
X182152779Y-107098255D01*
X182097975Y-107302786D01*
X182096072Y-107313581D01*
X182077616Y-107524525D01*
X182077616Y-107535475D01*
X160035802Y-107535475D01*
X160035848Y-107532177D01*
X160035848Y-107532166D01*
X160035878Y-107530000D01*
X160035713Y-107527035D01*
X160022295Y-107287046D01*
X160016553Y-107184348D01*
X160013359Y-107165461D01*
X159959408Y-106846486D01*
X159959407Y-106846482D01*
X159958819Y-106843005D01*
X159863396Y-106510225D01*
X159846040Y-106468117D01*
X182658706Y-106468117D01*
X182665774Y-106481564D01*
X183342188Y-107157978D01*
X183356132Y-107165592D01*
X183357965Y-107165461D01*
X183364580Y-107161210D01*
X184044947Y-106480843D01*
X184051377Y-106469068D01*
X184042084Y-106457055D01*
X183998431Y-106426488D01*
X183988953Y-106421016D01*
X183797038Y-106331525D01*
X183786745Y-106327779D01*
X183582214Y-106272975D01*
X183571419Y-106271072D01*
X183360475Y-106252616D01*
X183349525Y-106252616D01*
X183138581Y-106271072D01*
X183127786Y-106272975D01*
X182923255Y-106327779D01*
X182912963Y-106331525D01*
X182721056Y-106421012D01*
X182711561Y-106426495D01*
X182667081Y-106457640D01*
X182658706Y-106468117D01*
X159846040Y-106468117D01*
X159816896Y-106397408D01*
X159732811Y-106193400D01*
X159732807Y-106193392D01*
X159731473Y-106190155D01*
X159564694Y-105886785D01*
X159533476Y-105842530D01*
X159367169Y-105606776D01*
X159367168Y-105606775D01*
X159365138Y-105603897D01*
X159135292Y-105345015D01*
X159132681Y-105342664D01*
X158880640Y-105115725D01*
X158880637Y-105115723D01*
X158878022Y-105113368D01*
X158875172Y-105111327D01*
X158875165Y-105111322D01*
X158599388Y-104913885D01*
X158599385Y-104913883D01*
X158596534Y-104911842D01*
X158294335Y-104742949D01*
X157975194Y-104608795D01*
X157971825Y-104607804D01*
X157971821Y-104607802D01*
X157825282Y-104564674D01*
X157643088Y-104511051D01*
X157302156Y-104450935D01*
X157298647Y-104450714D01*
X157298645Y-104450714D01*
X156960166Y-104429419D01*
X156960160Y-104429419D01*
X156956648Y-104429198D01*
X156857703Y-104434037D01*
X156614377Y-104445937D01*
X156614368Y-104445938D01*
X156610870Y-104446109D01*
X156607402Y-104446671D01*
X156607399Y-104446671D01*
X156272607Y-104500895D01*
X156272604Y-104500896D01*
X156269132Y-104501458D01*
X156265745Y-104502404D01*
X156265739Y-104502405D01*
X155939088Y-104593608D01*
X155935693Y-104594556D01*
X155932430Y-104595874D01*
X155932428Y-104595875D01*
X155617967Y-104722926D01*
X155614710Y-104724242D01*
X155310184Y-104888899D01*
X155025909Y-105086475D01*
X155023267Y-105088788D01*
X155023263Y-105088791D01*
X154779073Y-105302563D01*
X154765429Y-105314507D01*
X154531992Y-105570154D01*
X154529926Y-105572997D01*
X154529924Y-105573000D01*
X154456388Y-105674214D01*
X154328506Y-105850229D01*
X154157507Y-106151241D01*
X154021128Y-106469437D01*
X153996774Y-106550102D01*
X153928481Y-106776301D01*
X153921068Y-106800853D01*
X153920434Y-106804308D01*
X153869524Y-107081693D01*
X153858573Y-107141357D01*
X153834424Y-107486705D01*
X153490896Y-107486705D01*
X153490896Y-103341264D01*
X153510898Y-103273143D01*
X153527801Y-103252169D01*
X153924119Y-102855851D01*
X156466719Y-102855851D01*
X156467235Y-102861995D01*
X156481123Y-103027386D01*
X156483268Y-103052934D01*
X156484967Y-103058858D01*
X156534557Y-103231799D01*
X156537783Y-103243050D01*
X156540602Y-103248535D01*
X156600176Y-103364452D01*
X156628187Y-103418956D01*
X156751035Y-103573953D01*
X156755728Y-103577947D01*
X156755729Y-103577948D01*
X156795951Y-103612179D01*
X156901650Y-103702136D01*
X157074294Y-103798624D01*
X157262392Y-103859740D01*
X157458777Y-103883158D01*
X157464912Y-103882686D01*
X157464914Y-103882686D01*
X157649830Y-103868457D01*
X157649834Y-103868456D01*
X157655972Y-103867984D01*
X157846463Y-103814798D01*
X157990511Y-103742034D01*
X158047322Y-103728500D01*
X159866207Y-103728500D01*
X159934328Y-103748502D01*
X159955302Y-103765405D01*
X160057679Y-103867782D01*
X160064822Y-103875549D01*
X160094064Y-103910153D01*
X160094068Y-103910157D01*
X160098471Y-103915367D01*
X160103895Y-103919514D01*
X160103896Y-103919515D01*
X160162962Y-103964674D01*
X160165379Y-103966568D01*
X160228738Y-104017510D01*
X160234857Y-104020547D01*
X160237652Y-104022335D01*
X160238013Y-104022588D01*
X160238380Y-104022790D01*
X160241238Y-104024521D01*
X160246652Y-104028660D01*
X160320262Y-104062985D01*
X160323033Y-104064319D01*
X160395814Y-104100447D01*
X160402435Y-104102098D01*
X160405563Y-104103249D01*
X160405957Y-104103413D01*
X160406361Y-104103532D01*
X160409524Y-104104609D01*
X160415704Y-104107490D01*
X160478465Y-104121519D01*
X160494955Y-104125205D01*
X160497914Y-104125904D01*
X160576802Y-104145573D01*
X160583623Y-104145763D01*
X160586926Y-104146216D01*
X160587808Y-104146375D01*
X160592701Y-104147054D01*
X160597740Y-104148180D01*
X160603463Y-104148500D01*
X160679829Y-104148500D01*
X160683347Y-104148549D01*
X160756437Y-104150591D01*
X160756442Y-104150591D01*
X160763257Y-104150781D01*
X160769958Y-104149503D01*
X160776762Y-104148955D01*
X160776804Y-104149475D01*
X160787125Y-104148500D01*
X166006002Y-104148500D01*
X166067473Y-104164512D01*
X166158916Y-104215619D01*
X166158922Y-104215621D01*
X166164294Y-104218624D01*
X166352392Y-104279740D01*
X166548777Y-104303158D01*
X166554912Y-104302686D01*
X166554914Y-104302686D01*
X166739830Y-104288457D01*
X166739834Y-104288456D01*
X166745972Y-104287984D01*
X166936463Y-104234798D01*
X166941967Y-104232018D01*
X166941969Y-104232017D01*
X167107495Y-104148404D01*
X167107497Y-104148403D01*
X167112996Y-104145625D01*
X167268847Y-104023861D01*
X167374538Y-103901417D01*
X167394049Y-103878813D01*
X167394050Y-103878811D01*
X167398078Y-103874145D01*
X167495769Y-103702179D01*
X167558197Y-103514513D01*
X167582985Y-103318295D01*
X167583380Y-103290000D01*
X167564080Y-103093167D01*
X167553722Y-103058858D01*
X167529370Y-102978201D01*
X167506916Y-102903831D01*
X167414066Y-102729204D01*
X167336768Y-102634428D01*
X167292960Y-102580713D01*
X167292957Y-102580710D01*
X167289065Y-102575938D01*
X167282278Y-102570323D01*
X167141425Y-102453799D01*
X167141421Y-102453797D01*
X167136675Y-102449870D01*
X166962701Y-102355802D01*
X166773768Y-102297318D01*
X166767643Y-102296674D01*
X166767642Y-102296674D01*
X166583204Y-102277289D01*
X166583202Y-102277289D01*
X166577075Y-102276645D01*
X166494576Y-102284153D01*
X166386251Y-102294011D01*
X166386248Y-102294012D01*
X166380112Y-102294570D01*
X166374206Y-102296308D01*
X166374202Y-102296309D01*
X166269076Y-102327249D01*
X166190381Y-102350410D01*
X166184923Y-102353263D01*
X166184919Y-102353265D01*
X166062697Y-102417162D01*
X166004321Y-102431500D01*
X161101793Y-102431500D01*
X161033672Y-102411498D01*
X161012698Y-102394595D01*
X160910320Y-102292217D01*
X160903177Y-102284450D01*
X160869529Y-102244633D01*
X160805031Y-102195321D01*
X160802615Y-102193427D01*
X160744583Y-102146768D01*
X160744582Y-102146767D01*
X160739262Y-102142490D01*
X160733143Y-102139453D01*
X160730348Y-102137665D01*
X160729987Y-102137412D01*
X160729620Y-102137210D01*
X160726762Y-102135479D01*
X160721348Y-102131340D01*
X160647736Y-102097014D01*
X160644964Y-102095680D01*
X160578296Y-102062586D01*
X160572186Y-102059553D01*
X160565565Y-102057902D01*
X160562437Y-102056751D01*
X160562044Y-102056587D01*
X160561639Y-102056468D01*
X160558475Y-102055391D01*
X160552296Y-102052510D01*
X160473000Y-102034785D01*
X160470002Y-102034076D01*
X160397821Y-102016079D01*
X160397820Y-102016079D01*
X160391199Y-102014428D01*
X160384378Y-102014237D01*
X160381075Y-102013785D01*
X160380191Y-102013626D01*
X160375308Y-102012948D01*
X160370260Y-102011820D01*
X160364537Y-102011500D01*
X160288156Y-102011500D01*
X160284637Y-102011451D01*
X160204743Y-102009219D01*
X160198039Y-102010498D01*
X160191238Y-102011045D01*
X160191196Y-102010525D01*
X160180875Y-102011500D01*
X158044585Y-102011500D01*
X157984656Y-101996336D01*
X157971528Y-101989238D01*
X157872701Y-101935802D01*
X157683768Y-101877318D01*
X157677643Y-101876674D01*
X157677642Y-101876674D01*
X157493204Y-101857289D01*
X157493202Y-101857289D01*
X157487075Y-101856645D01*
X157404576Y-101864153D01*
X157296251Y-101874011D01*
X157296248Y-101874012D01*
X157290112Y-101874570D01*
X157284206Y-101876308D01*
X157284202Y-101876309D01*
X157179076Y-101907249D01*
X157100381Y-101930410D01*
X157094923Y-101933263D01*
X157094919Y-101933265D01*
X157004147Y-101980720D01*
X156925110Y-102022040D01*
X156770975Y-102145968D01*
X156643846Y-102297474D01*
X156640879Y-102302872D01*
X156640875Y-102302877D01*
X156581161Y-102411498D01*
X156548567Y-102470787D01*
X156546706Y-102476654D01*
X156546705Y-102476656D01*
X156492370Y-102647942D01*
X156488765Y-102659306D01*
X156466719Y-102855851D01*
X153924119Y-102855851D01*
X154960520Y-101819450D01*
X154966785Y-101813596D01*
X155004660Y-101780555D01*
X155010385Y-101775561D01*
X155047114Y-101723300D01*
X155051046Y-101718005D01*
X155085791Y-101673694D01*
X155090477Y-101667718D01*
X155093602Y-101660796D01*
X155094964Y-101658548D01*
X155103368Y-101643815D01*
X155104622Y-101641476D01*
X155108990Y-101635261D01*
X155111749Y-101628185D01*
X155111751Y-101628181D01*
X155132202Y-101575726D01*
X155134758Y-101569646D01*
X155157918Y-101518351D01*
X155161045Y-101511426D01*
X155162429Y-101503955D01*
X155163230Y-101501401D01*
X155167867Y-101485122D01*
X155168523Y-101482567D01*
X155171282Y-101475491D01*
X155179621Y-101412149D01*
X155180653Y-101405633D01*
X155190912Y-101350280D01*
X155192296Y-101342813D01*
X155188709Y-101280602D01*
X155188500Y-101273349D01*
X155188500Y-99669538D01*
X155208502Y-99601417D01*
X155219118Y-99587207D01*
X155304054Y-99488807D01*
X155304055Y-99488806D01*
X155308078Y-99484145D01*
X155339823Y-99428265D01*
X155402722Y-99317542D01*
X155405769Y-99312179D01*
X155468197Y-99124513D01*
X155492985Y-98928295D01*
X155493380Y-98900000D01*
X155474080Y-98703167D01*
X155416916Y-98513831D01*
X155324066Y-98339204D01*
X155253709Y-98252938D01*
X155202960Y-98190713D01*
X155202957Y-98190710D01*
X155199065Y-98185938D01*
X155192724Y-98180692D01*
X155051425Y-98063799D01*
X155051421Y-98063797D01*
X155046675Y-98059870D01*
X154872701Y-97965802D01*
X154683768Y-97907318D01*
X154677643Y-97906674D01*
X154677642Y-97906674D01*
X154493204Y-97887289D01*
X154493202Y-97887289D01*
X154487075Y-97886645D01*
X154404576Y-97894153D01*
X154296251Y-97904011D01*
X154296248Y-97904012D01*
X154290112Y-97904570D01*
X154284206Y-97906308D01*
X154284202Y-97906309D01*
X154179076Y-97937249D01*
X154100381Y-97960410D01*
X154094923Y-97963263D01*
X154094919Y-97963265D01*
X154004147Y-98010720D01*
X153925110Y-98052040D01*
X153770975Y-98175968D01*
X153643846Y-98327474D01*
X153640879Y-98332872D01*
X153640875Y-98332877D01*
X153637397Y-98339204D01*
X153548567Y-98500787D01*
X153546706Y-98506654D01*
X153546705Y-98506656D01*
X153490627Y-98683436D01*
X153488765Y-98689306D01*
X153466719Y-98885851D01*
X153483268Y-99082934D01*
X153537783Y-99273050D01*
X153540602Y-99278535D01*
X153589737Y-99374140D01*
X153628187Y-99448956D01*
X153737763Y-99587207D01*
X153744246Y-99595387D01*
X153770883Y-99661197D01*
X153771500Y-99673651D01*
X153771500Y-100952339D01*
X153751498Y-101020460D01*
X153734595Y-101041434D01*
X152301868Y-102474162D01*
X152295602Y-102480016D01*
X152257736Y-102513048D01*
X152257733Y-102513051D01*
X152252011Y-102518043D01*
X152247644Y-102524257D01*
X152215268Y-102570323D01*
X152211335Y-102575618D01*
X152171920Y-102625886D01*
X152168797Y-102632802D01*
X152167413Y-102635088D01*
X152159039Y-102649769D01*
X152157774Y-102652129D01*
X152153406Y-102658343D01*
X152150646Y-102665422D01*
X152150645Y-102665424D01*
X152130194Y-102717879D01*
X152127643Y-102723948D01*
X152101351Y-102782177D01*
X152099967Y-102789644D01*
X152099166Y-102792199D01*
X152094537Y-102808452D01*
X152093874Y-102811032D01*
X152091114Y-102818113D01*
X152090123Y-102825644D01*
X152090122Y-102825646D01*
X152082775Y-102881456D01*
X152081744Y-102887963D01*
X152070100Y-102950790D01*
X152070537Y-102958370D01*
X152070537Y-102958371D01*
X152073687Y-103012996D01*
X152073896Y-103020250D01*
X152073896Y-109573484D01*
X152073604Y-109582054D01*
X152070514Y-109627386D01*
X152069671Y-109639748D01*
X144435225Y-109639748D01*
X144436604Y-109620468D01*
X144479151Y-109563632D01*
X144545671Y-109538821D01*
X144554660Y-109538500D01*
X148751001Y-109538500D01*
X148753509Y-109538298D01*
X148753514Y-109538298D01*
X148926924Y-109524346D01*
X148926929Y-109524345D01*
X148931965Y-109523940D01*
X148936873Y-109522734D01*
X148936876Y-109522734D01*
X149162792Y-109467244D01*
X149167706Y-109466037D01*
X149172358Y-109464062D01*
X149172362Y-109464061D01*
X149386498Y-109373165D01*
X149391156Y-109371188D01*
X149530371Y-109283519D01*
X149592288Y-109244528D01*
X149592291Y-109244526D01*
X149596567Y-109241833D01*
X149712928Y-109139248D01*
X149774858Y-109084650D01*
X149774861Y-109084647D01*
X149778655Y-109081302D01*
X149794648Y-109061832D01*
X149929526Y-108897628D01*
X149929528Y-108897625D01*
X149932734Y-108893722D01*
X150026730Y-108732221D01*
X150052299Y-108688290D01*
X150052300Y-108688288D01*
X150054841Y-108683922D01*
X150073866Y-108634360D01*
X150140020Y-108462022D01*
X150140021Y-108462018D01*
X150141833Y-108457298D01*
X150190075Y-108226377D01*
X150190440Y-108224631D01*
X150190440Y-108224627D01*
X150191474Y-108219680D01*
X150202486Y-107977183D01*
X150200700Y-107961745D01*
X150175167Y-107741071D01*
X150175166Y-107741067D01*
X150174585Y-107736044D01*
X150108490Y-107502468D01*
X150106356Y-107497892D01*
X150106354Y-107497886D01*
X150008038Y-107287046D01*
X150008036Y-107287042D01*
X150005901Y-107282464D01*
X149869456Y-107081693D01*
X149702668Y-106905319D01*
X149677319Y-106885938D01*
X149513846Y-106760953D01*
X149513842Y-106760950D01*
X149509826Y-106757880D01*
X149420445Y-106709954D01*
X149300352Y-106645561D01*
X149295891Y-106643169D01*
X149066369Y-106564138D01*
X148949184Y-106543897D01*
X148831074Y-106523496D01*
X148831068Y-106523495D01*
X148827164Y-106522821D01*
X148823203Y-106522641D01*
X148823202Y-106522641D01*
X148799494Y-106521564D01*
X148799475Y-106521564D01*
X148798075Y-106521500D01*
X134339660Y-106521500D01*
X134271539Y-106501498D01*
X134250565Y-106484595D01*
X133645405Y-105879435D01*
X133611379Y-105817123D01*
X133608500Y-105790340D01*
X133608500Y-103969538D01*
X133628502Y-103901417D01*
X133639118Y-103887207D01*
X133724054Y-103788807D01*
X133724055Y-103788806D01*
X133728078Y-103784145D01*
X133749109Y-103747125D01*
X133772959Y-103705141D01*
X133825769Y-103612179D01*
X133888197Y-103424513D01*
X133912985Y-103228295D01*
X133913380Y-103200000D01*
X133894080Y-103003167D01*
X133878267Y-102950790D01*
X133864089Y-102903831D01*
X133836916Y-102813831D01*
X133744066Y-102639204D01*
X133673709Y-102552938D01*
X133622960Y-102490713D01*
X133622957Y-102490710D01*
X133619065Y-102485938D01*
X133607845Y-102476656D01*
X133471425Y-102363799D01*
X133471421Y-102363797D01*
X133466675Y-102359870D01*
X133292701Y-102265802D01*
X133103768Y-102207318D01*
X133097643Y-102206674D01*
X133097642Y-102206674D01*
X132913204Y-102187289D01*
X132913202Y-102187289D01*
X132907075Y-102186645D01*
X132832553Y-102193427D01*
X132716251Y-102204011D01*
X132716248Y-102204012D01*
X132710112Y-102204570D01*
X132704206Y-102206308D01*
X132704202Y-102206309D01*
X132599076Y-102237249D01*
X132520381Y-102260410D01*
X132514923Y-102263263D01*
X132514919Y-102263265D01*
X132424147Y-102310720D01*
X132345110Y-102352040D01*
X132190975Y-102475968D01*
X132063846Y-102627474D01*
X132060879Y-102632872D01*
X132060875Y-102632877D01*
X131985263Y-102770417D01*
X131968567Y-102800787D01*
X131966706Y-102806654D01*
X131966705Y-102806656D01*
X131940910Y-102887972D01*
X131908765Y-102989306D01*
X131886719Y-103185851D01*
X131887235Y-103191995D01*
X131898135Y-103321799D01*
X131903268Y-103382934D01*
X131904967Y-103388858D01*
X131944277Y-103525948D01*
X131957783Y-103573050D01*
X131960602Y-103578535D01*
X132044630Y-103742034D01*
X132048187Y-103748956D01*
X132157763Y-103887207D01*
X132164246Y-103895387D01*
X132190883Y-103961197D01*
X132191500Y-103973651D01*
X132191500Y-106107088D01*
X132191208Y-106115658D01*
X132188562Y-106154480D01*
X132187275Y-106173352D01*
X132188580Y-106180829D01*
X132188580Y-106180830D01*
X132198261Y-106236299D01*
X132199223Y-106242821D01*
X132206898Y-106306242D01*
X132209581Y-106313343D01*
X132210222Y-106315952D01*
X132214685Y-106332262D01*
X132215450Y-106334797D01*
X132216757Y-106342284D01*
X132219811Y-106349242D01*
X132222006Y-106356511D01*
X132219485Y-106357272D01*
X132226950Y-106415276D01*
X132196504Y-106479413D01*
X132136217Y-106516908D01*
X132102512Y-106521500D01*
X122134016Y-106521500D01*
X122130498Y-106521451D01*
X122035850Y-106518807D01*
X122035847Y-106518807D01*
X122030795Y-106518666D01*
X121952902Y-106529059D01*
X121946361Y-106529758D01*
X121917668Y-106532067D01*
X121873077Y-106535654D01*
X121873073Y-106535655D01*
X121868035Y-106536060D01*
X121836122Y-106543899D01*
X121822742Y-106546426D01*
X121790180Y-106550771D01*
X121785339Y-106552232D01*
X121785337Y-106552233D01*
X121714971Y-106573478D01*
X121708610Y-106575219D01*
X121632294Y-106593963D01*
X121627634Y-106595941D01*
X121602049Y-106606801D01*
X121589239Y-106611438D01*
X121557792Y-106620933D01*
X121553244Y-106623151D01*
X121553237Y-106623154D01*
X121487182Y-106655371D01*
X121481180Y-106658107D01*
X121436496Y-106677074D01*
X121408844Y-106688812D01*
X121384532Y-106704123D01*
X121381044Y-106706319D01*
X121369140Y-106712945D01*
X121339612Y-106727346D01*
X121291972Y-106760953D01*
X121275403Y-106772641D01*
X121269914Y-106776301D01*
X121207714Y-106815471D01*
X121203433Y-106818167D01*
X121199644Y-106821508D01*
X121199638Y-106821512D01*
X121178783Y-106839898D01*
X121168088Y-106848344D01*
X121141253Y-106867274D01*
X121119750Y-106886909D01*
X121080034Y-106926625D01*
X121074264Y-106932044D01*
X121025142Y-106975350D01*
X121025139Y-106975353D01*
X121021345Y-106978698D01*
X121018135Y-106982606D01*
X121018134Y-106982607D01*
X120994821Y-107010989D01*
X120986551Y-107020108D01*
X111930334Y-116076325D01*
X111927812Y-116078779D01*
X111889150Y-116115340D01*
X111855319Y-116147332D01*
X111809285Y-116207542D01*
X111807592Y-116209757D01*
X111803448Y-116214892D01*
X111759979Y-116265968D01*
X111752530Y-116274720D01*
X111749911Y-116279045D01*
X111749907Y-116279050D01*
X111735509Y-116302824D01*
X111727837Y-116314071D01*
X111707880Y-116340174D01*
X111705490Y-116344632D01*
X111705489Y-116344633D01*
X111670761Y-116409401D01*
X111667496Y-116415126D01*
X111626779Y-116482358D01*
X111624884Y-116487049D01*
X111614473Y-116512817D01*
X111608693Y-116525158D01*
X111593169Y-116554109D01*
X111591523Y-116558890D01*
X111591521Y-116558894D01*
X111567588Y-116628401D01*
X111565278Y-116634579D01*
X111553994Y-116662509D01*
X111535845Y-116707429D01*
X111531711Y-116725625D01*
X111528568Y-116739460D01*
X111524837Y-116752559D01*
X111514138Y-116783631D01*
X111500757Y-116861100D01*
X111499477Y-116867504D01*
X111482065Y-116944144D01*
X111480001Y-116976953D01*
X111478415Y-116990453D01*
X111472821Y-117022836D01*
X111471500Y-117051925D01*
X111471500Y-117108108D01*
X111471251Y-117116019D01*
X111466822Y-117186413D01*
X110858500Y-117186413D01*
X110858500Y-110889352D01*
X110878502Y-110821231D01*
X110932158Y-110774738D01*
X111002432Y-110764634D01*
X111056771Y-110786139D01*
X111137492Y-110842660D01*
X111148581Y-110848858D01*
X111315480Y-110921082D01*
X111327583Y-110924921D01*
X111507100Y-110962425D01*
X111516652Y-110963665D01*
X111519884Y-110963750D01*
X111790385Y-110963750D01*
X111805624Y-110959275D01*
X111806829Y-110957885D01*
X111808500Y-110950202D01*
X111808500Y-110885051D01*
X111828502Y-110816930D01*
X111882158Y-110770437D01*
X111952432Y-110760333D01*
X111960477Y-110761892D01*
X111962657Y-110762224D01*
X111968110Y-110763558D01*
X111973712Y-110763906D01*
X111973715Y-110763906D01*
X111977325Y-110764130D01*
X111977335Y-110764130D01*
X111979264Y-110764250D01*
X112106793Y-110764250D01*
X112175909Y-110756192D01*
X112245888Y-110768171D01*
X112298281Y-110816081D01*
X112316500Y-110881344D01*
X112316500Y-110945635D01*
X112320975Y-110960874D01*
X112322365Y-110962079D01*
X112330048Y-110963750D01*
X112557947Y-110963750D01*
X112564322Y-110963427D01*
X112699777Y-110949668D01*
X112712217Y-110947114D01*
X112885744Y-110892734D01*
X112897432Y-110887725D01*
X113056479Y-110799563D01*
X113066912Y-110792312D01*
X113204991Y-110673965D01*
X113213744Y-110664774D01*
X113325211Y-110521070D01*
X113331935Y-110510310D01*
X113412232Y-110347125D01*
X113416655Y-110335231D01*
X113431751Y-110277280D01*
X113431317Y-110263186D01*
X113423136Y-110259750D01*
X112940786Y-110259750D01*
X112872665Y-110239748D01*
X112826172Y-110186092D01*
X112815028Y-110125948D01*
X112820998Y-110029716D01*
X112825047Y-109964452D01*
X112813815Y-109899087D01*
X112821992Y-109828565D01*
X112866998Y-109773656D01*
X112937995Y-109751750D01*
X113421729Y-109751750D01*
X113435260Y-109747777D01*
X113436137Y-109741675D01*
X113380190Y-109589614D01*
X113374623Y-109578201D01*
X113278792Y-109423642D01*
X113271040Y-109413576D01*
X113146092Y-109281447D01*
X113136474Y-109273145D01*
X112987513Y-109168842D01*
X112976419Y-109162642D01*
X112809520Y-109090418D01*
X112797417Y-109086579D01*
X112617900Y-109049075D01*
X112608348Y-109047835D01*
X112605116Y-109047750D01*
X112334615Y-109047750D01*
X112319376Y-109052225D01*
X112318171Y-109053615D01*
X112316500Y-109061298D01*
X112316500Y-109126449D01*
X112296498Y-109194570D01*
X112242842Y-109241063D01*
X112172568Y-109251167D01*
X112164523Y-109249608D01*
X112162343Y-109249276D01*
X112156890Y-109247942D01*
X112151288Y-109247594D01*
X112151285Y-109247594D01*
X112147675Y-109247370D01*
X112147665Y-109247370D01*
X112145736Y-109247250D01*
X112018207Y-109247250D01*
X111949091Y-109255308D01*
X111879112Y-109243329D01*
X111826719Y-109195419D01*
X111808500Y-109130156D01*
X111808500Y-109065865D01*
X111804025Y-109050626D01*
X111802635Y-109049421D01*
X111794952Y-109047750D01*
X111567053Y-109047750D01*
X111560678Y-109048073D01*
X111425223Y-109061832D01*
X111412783Y-109064386D01*
X111239256Y-109118766D01*
X111227568Y-109123775D01*
X111068524Y-109211935D01*
X111056413Y-109220353D01*
X110989061Y-109242807D01*
X110920261Y-109225284D01*
X110871856Y-109173347D01*
X110858500Y-109116890D01*
X110858500Y-104289352D01*
X110878502Y-104221231D01*
X110932158Y-104174738D01*
X111002432Y-104164634D01*
X111056771Y-104186139D01*
X111137492Y-104242660D01*
X111148581Y-104248858D01*
X111315480Y-104321082D01*
X111327583Y-104324921D01*
X111507100Y-104362425D01*
X111516652Y-104363665D01*
X111519884Y-104363750D01*
X111790385Y-104363750D01*
X111805624Y-104359275D01*
X111806829Y-104357885D01*
X111808500Y-104350202D01*
X111808500Y-104285051D01*
X111828502Y-104216930D01*
X111882158Y-104170437D01*
X111952432Y-104160333D01*
X111960477Y-104161892D01*
X111962657Y-104162224D01*
X111968110Y-104163558D01*
X111973712Y-104163906D01*
X111973715Y-104163906D01*
X111977325Y-104164130D01*
X111977335Y-104164130D01*
X111979264Y-104164250D01*
X112106793Y-104164250D01*
X112175909Y-104156192D01*
X112245888Y-104168171D01*
X112298281Y-104216081D01*
X112316500Y-104281344D01*
X112316500Y-104345635D01*
X112320975Y-104360874D01*
X112322365Y-104362079D01*
X112330048Y-104363750D01*
X112557947Y-104363750D01*
X112564322Y-104363427D01*
X112699777Y-104349668D01*
X112712217Y-104347114D01*
X112885744Y-104292734D01*
X112897432Y-104287725D01*
X113056479Y-104199563D01*
X113066912Y-104192312D01*
X113204991Y-104073965D01*
X113213744Y-104064774D01*
X113325211Y-103921070D01*
X113331935Y-103910310D01*
X113412232Y-103747125D01*
X113416655Y-103735231D01*
X113431751Y-103677280D01*
X113431317Y-103663186D01*
X113423136Y-103659750D01*
X112940786Y-103659750D01*
X112872665Y-103639748D01*
X112826172Y-103586092D01*
X112815028Y-103525948D01*
X112821366Y-103423783D01*
X112825047Y-103364452D01*
X112813815Y-103299087D01*
X112821992Y-103228565D01*
X112866998Y-103173656D01*
X112937995Y-103151750D01*
X113421729Y-103151750D01*
X113435260Y-103147777D01*
X113436137Y-103141675D01*
X113380190Y-102989614D01*
X113374623Y-102978201D01*
X113278792Y-102823642D01*
X113271040Y-102813576D01*
X113146092Y-102681447D01*
X113136474Y-102673145D01*
X112987513Y-102568842D01*
X112976419Y-102562642D01*
X112809520Y-102490418D01*
X112797417Y-102486579D01*
X112617900Y-102449075D01*
X112608348Y-102447835D01*
X112605116Y-102447750D01*
X112334615Y-102447750D01*
X112319376Y-102452225D01*
X112318171Y-102453615D01*
X112316500Y-102461298D01*
X112316500Y-102526449D01*
X112296498Y-102594570D01*
X112242842Y-102641063D01*
X112172568Y-102651167D01*
X112164523Y-102649608D01*
X112162343Y-102649276D01*
X112156890Y-102647942D01*
X112151288Y-102647594D01*
X112151285Y-102647594D01*
X112147675Y-102647370D01*
X112147665Y-102647370D01*
X112145736Y-102647250D01*
X112018207Y-102647250D01*
X111949091Y-102655308D01*
X111879112Y-102643329D01*
X111826719Y-102595419D01*
X111808500Y-102530156D01*
X111808500Y-102465865D01*
X111804025Y-102450626D01*
X111802635Y-102449421D01*
X111794952Y-102447750D01*
X111567053Y-102447750D01*
X111560678Y-102448073D01*
X111425223Y-102461832D01*
X111412783Y-102464386D01*
X111239256Y-102518766D01*
X111227568Y-102523775D01*
X111068524Y-102611935D01*
X111056413Y-102620353D01*
X110989061Y-102642807D01*
X110920261Y-102625284D01*
X110871856Y-102573347D01*
X110858500Y-102516890D01*
X110858500Y-88065341D01*
X111837888Y-88065341D01*
X111837983Y-88068971D01*
X111837983Y-88068972D01*
X111840367Y-88160000D01*
X111846970Y-88412171D01*
X111895856Y-88755660D01*
X111983897Y-89091253D01*
X112109927Y-89414503D01*
X112111624Y-89417708D01*
X112245113Y-89669825D01*
X112272275Y-89721126D01*
X112274325Y-89724109D01*
X112274327Y-89724112D01*
X112466733Y-90004064D01*
X112466739Y-90004071D01*
X112468790Y-90007056D01*
X112696866Y-90268505D01*
X112699551Y-90270948D01*
X112909268Y-90461775D01*
X112953481Y-90502006D01*
X113235233Y-90704466D01*
X113538388Y-90873200D01*
X113858928Y-91005972D01*
X113862422Y-91006967D01*
X113862424Y-91006968D01*
X114189103Y-91100025D01*
X114189108Y-91100026D01*
X114192604Y-91101022D01*
X114348978Y-91126629D01*
X114531412Y-91156504D01*
X114531419Y-91156505D01*
X114534993Y-91157090D01*
X114708276Y-91165262D01*
X114877931Y-91173263D01*
X114877932Y-91173263D01*
X114881558Y-91173434D01*
X114890415Y-91172830D01*
X115224073Y-91150084D01*
X115224081Y-91150083D01*
X115227704Y-91149836D01*
X115231279Y-91149173D01*
X115231282Y-91149173D01*
X115565279Y-91087270D01*
X115565283Y-91087269D01*
X115568844Y-91086609D01*
X115900456Y-90984592D01*
X116218145Y-90845136D01*
X116462511Y-90702341D01*
X116514560Y-90671926D01*
X116514562Y-90671925D01*
X116517700Y-90670091D01*
X116520609Y-90667907D01*
X116792244Y-90463958D01*
X116792248Y-90463955D01*
X116795151Y-90461775D01*
X117046819Y-90222950D01*
X117269370Y-89956783D01*
X117459853Y-89666799D01*
X117588446Y-89411121D01*
X117614117Y-89360080D01*
X117614120Y-89360072D01*
X117615744Y-89356844D01*
X117734977Y-89031026D01*
X117735822Y-89027504D01*
X117735825Y-89027496D01*
X117815124Y-88697191D01*
X117815125Y-88697187D01*
X117815971Y-88693662D01*
X117850035Y-88412171D01*
X117857316Y-88352004D01*
X117857316Y-88351997D01*
X117857652Y-88349225D01*
X117858844Y-88311314D01*
X117863511Y-88162797D01*
X117863599Y-88160000D01*
X117863438Y-88157204D01*
X117843836Y-87817246D01*
X117843835Y-87817241D01*
X117843627Y-87813626D01*
X117826626Y-87716214D01*
X117784600Y-87475415D01*
X117784598Y-87475408D01*
X117783976Y-87471842D01*
X117685437Y-87139180D01*
X117681676Y-87130362D01*
X117550740Y-86823386D01*
X117550738Y-86823383D01*
X117549316Y-86820048D01*
X117499569Y-86732831D01*
X117379208Y-86521816D01*
X117377417Y-86518676D01*
X117172018Y-86239060D01*
X117168781Y-86235576D01*
X117053930Y-86111982D01*
X116935842Y-85984904D01*
X116672019Y-85759578D01*
X116384047Y-85566069D01*
X116075741Y-85406940D01*
X115751189Y-85284302D01*
X115747668Y-85283418D01*
X115747663Y-85283416D01*
X115586378Y-85242904D01*
X115414692Y-85199780D01*
X115392476Y-85196855D01*
X115074315Y-85154968D01*
X115074307Y-85154967D01*
X115070711Y-85154494D01*
X114926045Y-85152221D01*
X114727446Y-85149101D01*
X114727442Y-85149101D01*
X114723804Y-85149044D01*
X114720190Y-85149405D01*
X114720184Y-85149405D01*
X114476843Y-85173694D01*
X114378569Y-85183503D01*
X114039583Y-85257414D01*
X114036156Y-85258587D01*
X114036150Y-85258589D01*
X113957296Y-85285587D01*
X113711339Y-85369797D01*
X113398188Y-85519163D01*
X113104279Y-85703532D01*
X113101443Y-85705804D01*
X113101436Y-85705809D01*
X112917425Y-85853230D01*
X112833509Y-85920459D01*
X112589466Y-86167071D01*
X112587225Y-86169929D01*
X112389065Y-86422653D01*
X112375386Y-86440098D01*
X112373493Y-86443187D01*
X112373491Y-86443190D01*
X112327233Y-86518676D01*
X112194105Y-86735921D01*
X112192580Y-86739206D01*
X112192578Y-86739210D01*
X112153505Y-86823386D01*
X112048027Y-87050620D01*
X111939087Y-87380023D01*
X111868730Y-87719764D01*
X111837888Y-88065341D01*
X110858500Y-88065341D01*
X110858500Y-87213250D01*
X110860246Y-87192345D01*
X110862770Y-87177344D01*
X110862770Y-87177341D01*
X110863576Y-87172552D01*
X110863729Y-87160000D01*
X110863039Y-87155180D01*
X110861644Y-87145437D01*
X110860545Y-87120983D01*
X110874542Y-86853902D01*
X110875920Y-86840785D01*
X110879205Y-86820048D01*
X110922838Y-86544555D01*
X110925580Y-86531655D01*
X110964392Y-86386804D01*
X111003207Y-86241948D01*
X111007281Y-86229409D01*
X111030114Y-86169929D01*
X111114763Y-85949412D01*
X111120126Y-85937365D01*
X111127427Y-85923037D01*
X111256289Y-85670130D01*
X111262883Y-85658709D01*
X111321733Y-85568088D01*
X111426236Y-85407168D01*
X111433984Y-85396505D01*
X111622727Y-85163427D01*
X111631552Y-85153626D01*
X111843626Y-84941552D01*
X111853427Y-84932727D01*
X112086505Y-84743984D01*
X112097168Y-84736236D01*
X112348714Y-84572880D01*
X112360130Y-84566289D01*
X112627365Y-84430126D01*
X112639413Y-84424762D01*
X112919414Y-84317279D01*
X112931948Y-84313207D01*
X113076804Y-84274392D01*
X113221655Y-84235580D01*
X113234555Y-84232838D01*
X113315866Y-84219960D01*
X113530791Y-84185919D01*
X113543899Y-84184542D01*
X113619063Y-84180603D01*
X113807299Y-84170738D01*
X113833276Y-84172065D01*
X113834846Y-84172309D01*
X113834850Y-84172309D01*
X113843724Y-84173691D01*
X113852626Y-84172527D01*
X113852628Y-84172527D01*
X113867677Y-84170559D01*
X113875286Y-84169564D01*
X113891621Y-84168500D01*
X122121387Y-84168500D01*
X122189508Y-84188502D01*
G37*
G04 #@! TD.AperFunction*
G04 #@! TA.AperFunction,Conductor*
G36*
X116780929Y-135900811D02*
G01*
X116941930Y-135933567D01*
X116947105Y-135933757D01*
X116947107Y-135933757D01*
X117160006Y-135941564D01*
X117160010Y-135941564D01*
X117165170Y-135941753D01*
X117305241Y-135923809D01*
X117375350Y-135934993D01*
X117410345Y-135959693D01*
X117929563Y-136478911D01*
X117941949Y-136493323D01*
X117950482Y-136504918D01*
X117950487Y-136504923D01*
X117954825Y-136510818D01*
X117960403Y-136515557D01*
X117960406Y-136515560D01*
X117995101Y-136545035D01*
X118002617Y-136551965D01*
X118008312Y-136557660D01*
X118011194Y-136559940D01*
X118030584Y-136575281D01*
X118033988Y-136578072D01*
X118084036Y-136620591D01*
X118089618Y-136625333D01*
X118096134Y-136628661D01*
X118101183Y-136632028D01*
X118106312Y-136635195D01*
X118112049Y-136639734D01*
X118178208Y-136670655D01*
X118182102Y-136672558D01*
X118247141Y-136705769D01*
X118254249Y-136707508D01*
X118259892Y-136709607D01*
X118265655Y-136711524D01*
X118272283Y-136714622D01*
X118279445Y-136716112D01*
X118279446Y-136716112D01*
X118343745Y-136729486D01*
X118348029Y-136730456D01*
X118418943Y-136747808D01*
X118424545Y-136748156D01*
X118424548Y-136748156D01*
X118430097Y-136748500D01*
X118430095Y-136748536D01*
X118434088Y-136748775D01*
X118438280Y-136749149D01*
X118445448Y-136750640D01*
X118522853Y-136748546D01*
X118526261Y-136748500D01*
X141768769Y-136748500D01*
X141836890Y-136768502D01*
X141850431Y-136778546D01*
X141901650Y-136822136D01*
X141907026Y-136825141D01*
X141907031Y-136825144D01*
X141974207Y-136862687D01*
X142023913Y-136913380D01*
X142038321Y-136982899D01*
X142012858Y-137049172D01*
X141991689Y-137070871D01*
X141860975Y-137175968D01*
X141733846Y-137327474D01*
X141730879Y-137332872D01*
X141730875Y-137332877D01*
X141703773Y-137382177D01*
X141638567Y-137500787D01*
X141636706Y-137506654D01*
X141636705Y-137506656D01*
X141582010Y-137679076D01*
X141578765Y-137689306D01*
X141556719Y-137885851D01*
X141573268Y-138082934D01*
X141627783Y-138273050D01*
X141630602Y-138278535D01*
X141707052Y-138427289D01*
X141718187Y-138448956D01*
X141722010Y-138453780D01*
X141722013Y-138453784D01*
X141784246Y-138532303D01*
X141810883Y-138598113D01*
X141811500Y-138610567D01*
X141811500Y-142563629D01*
X141791498Y-142631750D01*
X141774595Y-142652724D01*
X140792724Y-143634595D01*
X140730412Y-143668621D01*
X140703629Y-143671500D01*
X127166371Y-143671500D01*
X127098250Y-143651498D01*
X127077276Y-143634595D01*
X126175405Y-142732724D01*
X126141379Y-142670412D01*
X126138500Y-142643629D01*
X126138500Y-140151610D01*
X126158502Y-140083489D01*
X126169119Y-140069279D01*
X126172079Y-140065850D01*
X126208078Y-140024145D01*
X126305769Y-139852179D01*
X126368197Y-139664513D01*
X126392985Y-139468295D01*
X126393380Y-139440000D01*
X126374080Y-139243167D01*
X126369996Y-139229638D01*
X126333038Y-139107229D01*
X126316916Y-139053831D01*
X126224066Y-138879204D01*
X126130829Y-138764884D01*
X126102960Y-138730713D01*
X126102957Y-138730710D01*
X126099065Y-138725938D01*
X126092724Y-138720692D01*
X125951425Y-138603799D01*
X125951421Y-138603797D01*
X125946675Y-138599870D01*
X125772701Y-138505802D01*
X125583768Y-138447318D01*
X125577643Y-138446674D01*
X125577642Y-138446674D01*
X125393204Y-138427289D01*
X125393202Y-138427289D01*
X125387075Y-138426645D01*
X125304576Y-138434153D01*
X125196251Y-138444011D01*
X125196248Y-138444012D01*
X125190112Y-138444570D01*
X125184206Y-138446308D01*
X125184202Y-138446309D01*
X125079076Y-138477249D01*
X125000381Y-138500410D01*
X124994923Y-138503263D01*
X124994919Y-138503265D01*
X124917979Y-138543489D01*
X124825110Y-138592040D01*
X124670975Y-138715968D01*
X124543846Y-138867474D01*
X124540879Y-138872872D01*
X124540875Y-138872877D01*
X124466282Y-139008563D01*
X124448567Y-139040787D01*
X124446706Y-139046654D01*
X124446705Y-139046656D01*
X124406154Y-139174490D01*
X124388765Y-139229306D01*
X124366719Y-139425851D01*
X124367235Y-139431995D01*
X124379935Y-139583237D01*
X124383268Y-139622934D01*
X124384967Y-139628858D01*
X124425229Y-139769268D01*
X124437783Y-139813050D01*
X124528187Y-139988956D01*
X124532010Y-139993780D01*
X124532013Y-139993784D01*
X124594246Y-140072303D01*
X124620883Y-140138113D01*
X124621500Y-140150567D01*
X124621500Y-142942930D01*
X124620067Y-142961880D01*
X124616801Y-142983349D01*
X124617394Y-142990641D01*
X124617394Y-142990644D01*
X124621085Y-143036018D01*
X124621500Y-143046233D01*
X124621500Y-143054293D01*
X124621925Y-143057937D01*
X124624789Y-143082507D01*
X124625222Y-143086882D01*
X124626081Y-143097437D01*
X124631140Y-143159637D01*
X124633396Y-143166601D01*
X124634587Y-143172560D01*
X124635971Y-143178415D01*
X124636818Y-143185681D01*
X124661735Y-143254327D01*
X124663152Y-143258455D01*
X124685649Y-143327899D01*
X124689445Y-143334154D01*
X124691951Y-143339628D01*
X124694670Y-143345058D01*
X124697167Y-143351937D01*
X124701180Y-143358057D01*
X124701180Y-143358058D01*
X124737186Y-143412976D01*
X124739523Y-143416680D01*
X124777405Y-143479106D01*
X124775391Y-143480328D01*
X124796193Y-143537580D01*
X124780512Y-143606823D01*
X124729885Y-143656597D01*
X124670442Y-143671500D01*
X124277031Y-143671500D01*
X124208910Y-143651498D01*
X124187936Y-143634595D01*
X116666718Y-136113377D01*
X116632692Y-136051065D01*
X116637757Y-135980250D01*
X116680304Y-135923414D01*
X116746824Y-135898603D01*
X116780929Y-135900811D01*
G37*
G04 #@! TD.AperFunction*
M02*
