M48
; DRILL file {KiCad 6.0.11-2627ca5db0~126~ubuntu20.04.1} date Tue 04 Apr 2023 05:07:00 PM EDT
; FORMAT={-:-/ absolute / metric / decimal}
; #@! TF.CreationDate,2023-04-04T17:07:00-04:00
; #@! TF.GenerationSoftware,Kicad,Pcbnew,6.0.11-2627ca5db0~126~ubuntu20.04.1
; #@! TF.FileFunction,Plated,1,4,PTH
FMAT,2
METRIC
; #@! TA.AperFunction,Plated,PTH,ViaDrill
T1C0.500
; #@! TA.AperFunction,Plated,PTH,ComponentDrill
T2C0.500
; #@! TA.AperFunction,Plated,PTH,ComponentDrill
T3C1.000
; #@! TA.AperFunction,Plated,PTH,ComponentDrill
T4C1.020
; #@! TA.AperFunction,Plated,PTH,ComponentDrill
T5C2.500
; #@! TA.AperFunction,Plated,PTH,ComponentDrill
T6C3.450
%
G90
G05
T1
X112.21Y-113.65
X112.44Y-138.79
X114.0Y-99.2
X119.43Y-145.51
X121.85Y-103.75
X125.3Y-114.9
X125.38Y-139.44
X125.4Y-137.65
X127.1Y-113.3
X127.2Y-141.2
X128.8Y-92.8
X130.556Y-124.206
X132.74Y-131.59
X132.9Y-103.2
X133.096Y-114.3
X134.794Y-108.03
X135.85Y-115.79
X136.37Y-124.79
X137.6Y-134.5
X138.235Y-124.79
X139.65Y-101.05
X140.1Y-124.79
X140.208Y-115.824
X141.9Y-133.1
X142.08Y-130.58
X142.48Y-135.99
X142.57Y-137.9
X144.89Y-141.83
X146.95Y-141.85
X147.9Y-100.85
X148.69Y-108.03
X148.8Y-132.62
X149.72Y-134.78
X151.13Y-108.458
X153.67Y-115.062
X154.48Y-98.9
X157.48Y-102.87
X160.782Y-109.728
X161.65Y-139.3
X162.32Y-116.99
X162.4Y-123.72
X163.322Y-115.062
X164.69Y-116.58
X166.57Y-103.29
X166.615Y-139.25
X166.8Y-110.25
X166.895Y-123.77
X169.4Y-105.9
X170.9Y-133.9
X171.6Y-139.35
X172.53Y-123.04
X173.45Y-96.95
X173.57Y-112.41
X175.2Y-105.8
X176.6Y-126.86
X177.04Y-116.63
X177.45Y-96.95
X178.14Y-119.7
X178.24Y-123.31
X181.3Y-139.95
X181.3Y-142.2
X181.52Y-129.53
X181.55Y-131.62
X182.73Y-125.2
X182.96Y-116.36
X189.04Y-140.12
X189.04Y-141.61
X189.04Y-142.97
X189.69Y-127.55
X189.72Y-115.87
X189.74Y-100.365
X192.05Y-129.5
X192.8Y-107.75
X192.8Y-113.1
X195.65Y-98.45
X197.0Y-137.95
X199.76Y-115.08
X199.78Y-126.32
T3
X117.103Y-121.88
X117.103Y-124.42
X117.103Y-126.96
X117.103Y-129.5
X117.103Y-132.04
X117.103Y-134.58
X193.69Y-117.98
X193.69Y-120.52
T4
X183.355Y-107.53
X183.355Y-120.23
T5
X114.85Y-88.16
X114.85Y-143.16
X199.85Y-88.16
X199.85Y-143.16
T6
X156.935Y-107.53
X156.935Y-137.38
T2
X112.412Y-103.406G85X111.712Y-103.406
G05
X112.412Y-110.006G85X111.712Y-110.006
G05
T0
M30
