M48
; DRILL file {KiCad 6.0.11-2627ca5db0~126~ubuntu20.04.1} date Mon 06 Mar 2023 12:09:40 PM EST
; FORMAT={-:-/ absolute / metric / decimal}
; #@! TF.CreationDate,2023-03-06T12:09:40-05:00
; #@! TF.GenerationSoftware,Kicad,Pcbnew,6.0.11-2627ca5db0~126~ubuntu20.04.1
; #@! TF.FileFunction,MixedPlating,1,4
FMAT,2
METRIC
; #@! TA.AperFunction,Plated,PTH,ComponentDrill
T1C0.500
; #@! TA.AperFunction,Plated,PTH,ComponentDrill
T2C0.900
; #@! TA.AperFunction,Plated,PTH,ViaDrill
T3C1.000
; #@! TA.AperFunction,Plated,PTH,ComponentDrill
T4C3.450
; #@! TA.AperFunction,NonPlated,NPTH,ComponentDrill
T5C0.500
; #@! TA.AperFunction,NonPlated,NPTH,ComponentDrill
T6C2.500
%
G90
G05
T1
X197.22Y-127.14
X197.22Y-129.04
T2
X121.44Y-146.16
X121.44Y-148.7
X121.44Y-151.24
X121.44Y-153.78
X121.44Y-156.32
X121.44Y-158.86
X189.965Y-129.53
X189.965Y-142.23
X197.125Y-143.61
X197.125Y-146.15
X197.235Y-135.53
X197.235Y-138.07
T3
X147.37Y-165.47
X160.04Y-124.04
X161.82Y-146.5
X168.59Y-163.8
X171.41Y-135.28
X177.48Y-135.26
X185.29Y-138.55
X187.37Y-156.74
T4
X163.545Y-129.53
X163.545Y-159.38
T5
X114.983Y-125.766
X114.983Y-132.366
T6
X118.0Y-110.5
X118.0Y-165.5
X203.0Y-110.5
X203.0Y-165.5
T1
G00X115.332Y-125.766
M15
G01X114.632Y-125.766
M16
G05
G00X115.332Y-132.366
M15
G01X114.632Y-132.366
M16
G05
T0
M30
