%TF.GenerationSoftware,KiCad,Pcbnew,6.0.11-2627ca5db0~126~ubuntu20.04.1*%
%TF.CreationDate,2023-09-23T16:44:06-04:00*%
%TF.ProjectId,water_meter,77617465-725f-46d6-9574-65722e6b6963,rev?*%
%TF.SameCoordinates,Original*%
%TF.FileFunction,Soldermask,Bot*%
%TF.FilePolarity,Negative*%
%FSLAX46Y46*%
G04 Gerber Fmt 4.6, Leading zero omitted, Abs format (unit mm)*
G04 Created by KiCad (PCBNEW 6.0.11-2627ca5db0~126~ubuntu20.04.1) date 2023-09-23 16:44:06*
%MOMM*%
%LPD*%
G01*
G04 APERTURE LIST*
G04 Aperture macros list*
%AMRoundRect*
0 Rectangle with rounded corners*
0 $1 Rounding radius*
0 $2 $3 $4 $5 $6 $7 $8 $9 X,Y pos of 4 corners*
0 Add a 4 corners polygon primitive as box body*
4,1,4,$2,$3,$4,$5,$6,$7,$8,$9,$2,$3,0*
0 Add four circle primitives for the rounded corners*
1,1,$1+$1,$2,$3*
1,1,$1+$1,$4,$5*
1,1,$1+$1,$6,$7*
1,1,$1+$1,$8,$9*
0 Add four rect primitives between the rounded corners*
20,1,$1+$1,$2,$3,$4,$5,0*
20,1,$1+$1,$4,$5,$6,$7,0*
20,1,$1+$1,$6,$7,$8,$9,0*
20,1,$1+$1,$8,$9,$2,$3,0*%
G04 Aperture macros list end*
%ADD10C,6.000000*%
%ADD11C,0.500000*%
%ADD12O,1.800000X0.900000*%
%ADD13C,1.530000*%
%ADD14C,5.175000*%
%ADD15R,1.700000X1.700000*%
%ADD16O,1.700000X1.700000*%
%ADD17R,1.000000X0.600000*%
%ADD18RoundRect,0.150000X-0.625000X0.150000X-0.625000X-0.150000X0.625000X-0.150000X0.625000X0.150000X0*%
%ADD19RoundRect,0.250000X-0.650000X0.350000X-0.650000X-0.350000X0.650000X-0.350000X0.650000X0.350000X0*%
G04 APERTURE END LIST*
D10*
%TO.C,H2*%
X20000Y-30000D03*
%TD*%
%TO.C,H3*%
X85020000Y54970000D03*
%TD*%
%TO.C,H4*%
X85020000Y-30000D03*
%TD*%
%TO.C,H1*%
X20000Y54970000D03*
%TD*%
D11*
%TO.C,J4*%
X-2855000Y34880000D03*
X-2855000Y41480000D03*
D12*
X-2855000Y41480000D03*
X-2855000Y34880000D03*
%TD*%
D13*
%TO.C,J1*%
X68525000Y22900000D03*
X68525000Y35600000D03*
D14*
X42105000Y35600000D03*
X42105000Y5750000D03*
%TD*%
D15*
%TO.C,J3*%
X2273333Y21250000D03*
D16*
X2273333Y18710000D03*
X2273333Y16170000D03*
X2273333Y13630000D03*
X2273333Y11090000D03*
X2273333Y8550000D03*
%TD*%
D17*
%TO.C,U6*%
X-1180000Y47780000D03*
X-1180000Y49080000D03*
X1020000Y49080000D03*
X1020000Y47780000D03*
%TD*%
D18*
%TO.C,J7*%
X84130000Y38120000D03*
X84130000Y37120000D03*
X84130000Y36120000D03*
X84130000Y35120000D03*
D19*
X88005000Y39420000D03*
X88005000Y33820000D03*
%TD*%
D18*
%TO.C,J6*%
X84130000Y18130000D03*
X84130000Y17130000D03*
X84130000Y16130000D03*
X84130000Y15130000D03*
X84130000Y14130000D03*
X84130000Y13130000D03*
X84130000Y12130000D03*
X84130000Y11130000D03*
D19*
X88005000Y9830000D03*
X88005000Y19430000D03*
%TD*%
D15*
%TO.C,J5*%
X78810000Y27650000D03*
D16*
X78810000Y25110000D03*
X78810000Y22570000D03*
X78810000Y20030000D03*
%TD*%
M02*
