G04 #@! TF.GenerationSoftware,KiCad,Pcbnew,6.0.11-2627ca5db0~126~ubuntu20.04.1*
G04 #@! TF.CreationDate,2023-04-04T17:10:53-04:00*
G04 #@! TF.ProjectId,water_meter,77617465-725f-46d6-9574-65722e6b6963,rev?*
G04 #@! TF.SameCoordinates,Original*
G04 #@! TF.FileFunction,Soldermask,Top*
G04 #@! TF.FilePolarity,Negative*
%FSLAX46Y46*%
G04 Gerber Fmt 4.6, Leading zero omitted, Abs format (unit mm)*
G04 Created by KiCad (PCBNEW 6.0.11-2627ca5db0~126~ubuntu20.04.1) date 2023-04-04 17:10:53*
%MOMM*%
%LPD*%
G01*
G04 APERTURE LIST*
G04 Aperture macros list*
%AMRoundRect*
0 Rectangle with rounded corners*
0 $1 Rounding radius*
0 $2 $3 $4 $5 $6 $7 $8 $9 X,Y pos of 4 corners*
0 Add a 4 corners polygon primitive as box body*
4,1,4,$2,$3,$4,$5,$6,$7,$8,$9,$2,$3,0*
0 Add four circle primitives for the rounded corners*
1,1,$1+$1,$2,$3*
1,1,$1+$1,$4,$5*
1,1,$1+$1,$6,$7*
1,1,$1+$1,$8,$9*
0 Add four rect primitives between the rounded corners*
20,1,$1+$1,$2,$3,$4,$5,0*
20,1,$1+$1,$4,$5,$6,$7,0*
20,1,$1+$1,$6,$7,$8,$9,0*
20,1,$1+$1,$8,$9,$2,$3,0*%
G04 Aperture macros list end*
%ADD10C,1.530000*%
%ADD11C,5.175000*%
%ADD12RoundRect,0.150000X-0.150000X0.825000X-0.150000X-0.825000X0.150000X-0.825000X0.150000X0.825000X0*%
%ADD13R,1.500000X0.900000*%
%ADD14R,0.900000X1.500000*%
%ADD15R,0.900000X0.900000*%
%ADD16RoundRect,0.020500X-0.719500X-0.184500X0.719500X-0.184500X0.719500X0.184500X-0.719500X0.184500X0*%
%ADD17RoundRect,0.250000X-0.625000X0.375000X-0.625000X-0.375000X0.625000X-0.375000X0.625000X0.375000X0*%
%ADD18RoundRect,0.243750X-0.243750X-0.456250X0.243750X-0.456250X0.243750X0.456250X-0.243750X0.456250X0*%
%ADD19R,1.900000X1.100000*%
%ADD20RoundRect,0.250000X-0.262500X-0.450000X0.262500X-0.450000X0.262500X0.450000X-0.262500X0.450000X0*%
%ADD21RoundRect,0.250000X0.262500X0.450000X-0.262500X0.450000X-0.262500X-0.450000X0.262500X-0.450000X0*%
%ADD22RoundRect,0.250000X0.450000X-0.262500X0.450000X0.262500X-0.450000X0.262500X-0.450000X-0.262500X0*%
%ADD23RoundRect,0.250000X-0.450000X0.262500X-0.450000X-0.262500X0.450000X-0.262500X0.450000X0.262500X0*%
%ADD24RoundRect,0.250000X-0.475000X0.250000X-0.475000X-0.250000X0.475000X-0.250000X0.475000X0.250000X0*%
%ADD25RoundRect,0.250000X0.475000X-0.250000X0.475000X0.250000X-0.475000X0.250000X-0.475000X-0.250000X0*%
%ADD26RoundRect,0.250000X0.159099X-0.512652X0.512652X-0.159099X-0.159099X0.512652X-0.512652X0.159099X0*%
%ADD27RoundRect,0.250000X0.250000X0.475000X-0.250000X0.475000X-0.250000X-0.475000X0.250000X-0.475000X0*%
%ADD28RoundRect,0.250000X-0.250000X-0.475000X0.250000X-0.475000X0.250000X0.475000X-0.250000X0.475000X0*%
%ADD29C,1.100000*%
%ADD30R,1.000000X0.600000*%
%ADD31RoundRect,0.150000X-0.587500X-0.150000X0.587500X-0.150000X0.587500X0.150000X-0.587500X0.150000X0*%
%ADD32C,5.000000*%
%ADD33RoundRect,0.012800X0.357200X0.147200X-0.357200X0.147200X-0.357200X-0.147200X0.357200X-0.147200X0*%
%ADD34R,1.300000X2.000000*%
%ADD35R,1.000000X1.500000*%
%ADD36C,0.500000*%
%ADD37R,1.350000X0.400000*%
%ADD38R,1.400000X1.600000*%
%ADD39R,1.900000X1.900000*%
%ADD40O,1.800000X0.900000*%
%ADD41R,1.700000X1.700000*%
%ADD42O,1.700000X1.700000*%
%ADD43R,0.650000X1.560000*%
%ADD44RoundRect,0.150000X0.587500X0.150000X-0.587500X0.150000X-0.587500X-0.150000X0.587500X-0.150000X0*%
%ADD45RoundRect,0.100000X0.712500X0.100000X-0.712500X0.100000X-0.712500X-0.100000X0.712500X-0.100000X0*%
%ADD46C,1.000000*%
G04 APERTURE END LIST*
D10*
X183355000Y-120230000D03*
X183355000Y-107530000D03*
D11*
X156935000Y-107530000D03*
X156935000Y-137380000D03*
D12*
X132905000Y-96025000D03*
X131635000Y-96025000D03*
X130365000Y-96025000D03*
X129095000Y-96025000D03*
X129095000Y-100975000D03*
X130365000Y-100975000D03*
X131635000Y-100975000D03*
X132905000Y-100975000D03*
D13*
X145310000Y-138590000D03*
X145310000Y-137320000D03*
X145310000Y-136050000D03*
X145310000Y-134780000D03*
X145310000Y-133510000D03*
X145310000Y-132240000D03*
X145310000Y-130970000D03*
X145310000Y-129700000D03*
X145310000Y-128430000D03*
X145310000Y-127160000D03*
X145310000Y-125890000D03*
X145310000Y-124620000D03*
X145310000Y-123350000D03*
X145310000Y-122080000D03*
D14*
X143545000Y-120830000D03*
X142275000Y-120830000D03*
X141005000Y-120830000D03*
X139735000Y-120830000D03*
X138465000Y-120830000D03*
X137195000Y-120830000D03*
X135925000Y-120830000D03*
X134655000Y-120830000D03*
X133385000Y-120830000D03*
X132115000Y-120830000D03*
X130845000Y-120830000D03*
X129575000Y-120830000D03*
D13*
X127810000Y-122080000D03*
X127810000Y-123350000D03*
X127810000Y-124620000D03*
X127810000Y-125890000D03*
X127810000Y-127160000D03*
X127810000Y-128430000D03*
X127810000Y-129700000D03*
X127810000Y-130970000D03*
X127810000Y-132240000D03*
X127810000Y-133510000D03*
X127810000Y-134780000D03*
X127810000Y-136050000D03*
X127810000Y-137320000D03*
X127810000Y-138590000D03*
D15*
X139460000Y-130870000D03*
X138060000Y-129470000D03*
X138060000Y-132270000D03*
X139460000Y-132270000D03*
X136660000Y-129470000D03*
X136660000Y-130870000D03*
X136660000Y-132270000D03*
X139460000Y-129470000D03*
X138060000Y-130870000D03*
D16*
X168685000Y-115225000D03*
X168685000Y-115875000D03*
X168685000Y-116525000D03*
X168685000Y-117175000D03*
X168685000Y-117825000D03*
X168685000Y-118475000D03*
X168685000Y-119125000D03*
X168685000Y-119775000D03*
X168685000Y-120425000D03*
X168685000Y-121075000D03*
X174415000Y-121075000D03*
X174415000Y-120425000D03*
X174415000Y-119775000D03*
X174415000Y-119125000D03*
X174415000Y-118475000D03*
X174415000Y-117825000D03*
X174415000Y-117175000D03*
X174415000Y-116525000D03*
X174415000Y-115875000D03*
X174415000Y-115225000D03*
D17*
X118225750Y-99060000D03*
X118225750Y-101860000D03*
D18*
X184152500Y-138730000D03*
X186027500Y-138730000D03*
D19*
X161742500Y-128365000D03*
X161742500Y-130865000D03*
X196940000Y-100825000D03*
X196940000Y-103325000D03*
D20*
X138279500Y-113030000D03*
X140104500Y-113030000D03*
D21*
X140104500Y-109474000D03*
X138279500Y-109474000D03*
X151026500Y-111252000D03*
X149201500Y-111252000D03*
D22*
X176140000Y-138162500D03*
X176140000Y-136337500D03*
X123420000Y-127052500D03*
X123420000Y-125227500D03*
D23*
X179730000Y-101302500D03*
X179730000Y-103127500D03*
D20*
X197907500Y-120600000D03*
X199732500Y-120600000D03*
X184127500Y-142050000D03*
X185952500Y-142050000D03*
X197927500Y-117990000D03*
X199752500Y-117990000D03*
X155957500Y-124710000D03*
X157782500Y-124710000D03*
X156030000Y-127965000D03*
X157855000Y-127965000D03*
X156130000Y-131265000D03*
X157955000Y-131265000D03*
X121280000Y-138760000D03*
X123105000Y-138760000D03*
D24*
X175200000Y-108060000D03*
X175200000Y-109960000D03*
D25*
X150114000Y-116520000D03*
X150114000Y-114620000D03*
D24*
X176590000Y-101265000D03*
X176590000Y-103165000D03*
X192790000Y-98690000D03*
X192790000Y-100590000D03*
D26*
X161678249Y-101061751D03*
X163021751Y-99718249D03*
D27*
X152420000Y-99210000D03*
X150520000Y-99210000D03*
D25*
X190360000Y-133870000D03*
X190360000Y-131970000D03*
D27*
X186090000Y-127620000D03*
X184190000Y-127620000D03*
D24*
X173370000Y-101265000D03*
X173370000Y-103165000D03*
D25*
X192800000Y-105240000D03*
X192800000Y-103340000D03*
D24*
X152590000Y-139220000D03*
X152590000Y-141120000D03*
D25*
X121850000Y-100940000D03*
X121850000Y-99040000D03*
D24*
X149590000Y-139220000D03*
X149590000Y-141120000D03*
D28*
X121242500Y-141840000D03*
X123142500Y-141840000D03*
D27*
X166892500Y-127910000D03*
X164992500Y-127910000D03*
X166892500Y-131240000D03*
X164992500Y-131240000D03*
D29*
X153350000Y-112850000D03*
X161350000Y-120850000D03*
D30*
X156250000Y-117500000D03*
X156250000Y-116200000D03*
X158450000Y-116200000D03*
X158450000Y-117500000D03*
D31*
X143080500Y-113096000D03*
X143080500Y-114996000D03*
X144955500Y-114046000D03*
D32*
X114850000Y-143160000D03*
X199850000Y-88160000D03*
D33*
X158595000Y-98890000D03*
X158595000Y-98240000D03*
X158595000Y-97590000D03*
X156105000Y-97590000D03*
X156105000Y-98240000D03*
X156105000Y-98890000D03*
D34*
X157350000Y-98240000D03*
D35*
X170567500Y-110090000D03*
X171867500Y-110090000D03*
D32*
X199850000Y-143160000D03*
X114850000Y-88160000D03*
D36*
X112062500Y-110005750D03*
X112062500Y-103405750D03*
D37*
X114737500Y-105405750D03*
X114737500Y-106055750D03*
X114737500Y-106705750D03*
X114737500Y-107355750D03*
X114737500Y-108005750D03*
D38*
X114512500Y-103505750D03*
X114512500Y-109905750D03*
D39*
X112062500Y-107905750D03*
X112062500Y-105505750D03*
D40*
X112062500Y-103405750D03*
X112062500Y-110005750D03*
D41*
X117103333Y-121880000D03*
D42*
X117103333Y-124420000D03*
X117103333Y-126960000D03*
X117103333Y-129500000D03*
X117103333Y-132040000D03*
X117103333Y-134580000D03*
D43*
X186090000Y-131570000D03*
X185140000Y-131570000D03*
X184190000Y-131570000D03*
X184190000Y-134270000D03*
X186090000Y-134270000D03*
D41*
X193690000Y-117980000D03*
D42*
X193690000Y-120520000D03*
D44*
X174292500Y-132270000D03*
X176167500Y-131320000D03*
X176167500Y-133220000D03*
D45*
X187402500Y-102360000D03*
X187402500Y-101710000D03*
X187402500Y-101060000D03*
X187402500Y-100410000D03*
X183177500Y-100410000D03*
X183177500Y-101060000D03*
X183177500Y-101710000D03*
X183177500Y-102360000D03*
D46*
X132900000Y-103200000D03*
X141900000Y-133100000D03*
X127100000Y-113300000D03*
X137600000Y-134500000D03*
X125300000Y-114900000D03*
X197000000Y-137950000D03*
X181550000Y-131620000D03*
X170900000Y-133900000D03*
X181520000Y-129530000D03*
X157480000Y-102870000D03*
X140208000Y-115824000D03*
X134794000Y-108030000D03*
X133096000Y-114300000D03*
X130556000Y-124206000D03*
X139650000Y-101050000D03*
X171600000Y-139350000D03*
X192050000Y-129500000D03*
X195650000Y-98450000D03*
X192800000Y-107750000D03*
X128800000Y-92800000D03*
X140100000Y-124790000D03*
X112210000Y-113650000D03*
X177450000Y-96950000D03*
X166895000Y-123770000D03*
X173450000Y-96950000D03*
X114000000Y-99200000D03*
X175200000Y-105800000D03*
X121850000Y-103750000D03*
X112440000Y-138790000D03*
X119430000Y-145510000D03*
X153670000Y-115062000D03*
X181300000Y-142200000D03*
X127200000Y-141200000D03*
X163322000Y-115062000D03*
X181300000Y-139950000D03*
X144890000Y-141830000D03*
X146950000Y-141850000D03*
X169400000Y-105900000D03*
X151130000Y-108458000D03*
X138235000Y-124790000D03*
X166800000Y-110250000D03*
X125400000Y-137650000D03*
X161650000Y-139300000D03*
X166615000Y-139250000D03*
X136370000Y-124790000D03*
X192800000Y-113100000D03*
X173570000Y-112410000D03*
X160782000Y-109728000D03*
X147900000Y-100850000D03*
X142480000Y-135990000D03*
X164690000Y-116580000D03*
X176600000Y-126860000D03*
X172530000Y-123040000D03*
X182730000Y-125200000D03*
X189040000Y-140120000D03*
X199760000Y-115080000D03*
X189040000Y-141610000D03*
X162400000Y-123720000D03*
X148690000Y-108030000D03*
X199780000Y-126320000D03*
X166570000Y-103290000D03*
X142570000Y-137900000D03*
X189040000Y-142970000D03*
X125380000Y-139440000D03*
X148800000Y-132620000D03*
X178140000Y-119700000D03*
X178240000Y-123310000D03*
X149720000Y-134780000D03*
X132740000Y-131590000D03*
X135850000Y-115790000D03*
X182960000Y-116360000D03*
X177040000Y-116630000D03*
X154480000Y-98900000D03*
X162320000Y-116990000D03*
X189740000Y-100365000D03*
X189720000Y-115870000D03*
X142080000Y-130580000D03*
X189690000Y-127550000D03*
M02*
