%TF.GenerationSoftware,KiCad,Pcbnew,6.0.11-2627ca5db0~126~ubuntu20.04.1*%
%TF.CreationDate,2023-09-23T16:44:06-04:00*%
%TF.ProjectId,water_meter,77617465-725f-46d6-9574-65722e6b6963,rev?*%
%TF.SameCoordinates,Original*%
%TF.FileFunction,Legend,Top*%
%TF.FilePolarity,Positive*%
%FSLAX46Y46*%
G04 Gerber Fmt 4.6, Leading zero omitted, Abs format (unit mm)*
G04 Created by KiCad (PCBNEW 6.0.11-2627ca5db0~126~ubuntu20.04.1) date 2023-09-23 16:44:06*
%MOMM*%
%LPD*%
G01*
G04 APERTURE LIST*
G04 Aperture macros list*
%AMRoundRect*
0 Rectangle with rounded corners*
0 $1 Rounding radius*
0 $2 $3 $4 $5 $6 $7 $8 $9 X,Y pos of 4 corners*
0 Add a 4 corners polygon primitive as box body*
4,1,4,$2,$3,$4,$5,$6,$7,$8,$9,$2,$3,0*
0 Add four circle primitives for the rounded corners*
1,1,$1+$1,$2,$3*
1,1,$1+$1,$4,$5*
1,1,$1+$1,$6,$7*
1,1,$1+$1,$8,$9*
0 Add four rect primitives between the rounded corners*
20,1,$1+$1,$2,$3,$4,$5,0*
20,1,$1+$1,$4,$5,$6,$7,0*
20,1,$1+$1,$6,$7,$8,$9,0*
20,1,$1+$1,$8,$9,$2,$3,0*%
G04 Aperture macros list end*
%ADD10C,0.150000*%
%ADD11C,0.254000*%
%ADD12C,0.120000*%
%ADD13C,0.127000*%
%ADD14C,0.200000*%
%ADD15C,0.249988*%
%ADD16C,0.100000*%
%ADD17RoundRect,0.250000X0.475000X-0.250000X0.475000X0.250000X-0.475000X0.250000X-0.475000X-0.250000X0*%
%ADD18RoundRect,0.250000X0.250000X0.475000X-0.250000X0.475000X-0.250000X-0.475000X0.250000X-0.475000X0*%
%ADD19C,6.000000*%
%ADD20RoundRect,0.250000X-0.262500X-0.450000X0.262500X-0.450000X0.262500X0.450000X-0.262500X0.450000X0*%
%ADD21RoundRect,0.243750X-0.243750X-0.456250X0.243750X-0.456250X0.243750X0.456250X-0.243750X0.456250X0*%
%ADD22RoundRect,0.012800X-0.357200X-0.147200X0.357200X-0.147200X0.357200X0.147200X-0.357200X0.147200X0*%
%ADD23R,1.300000X2.000000*%
%ADD24C,0.500000*%
%ADD25R,1.350000X0.400000*%
%ADD26R,1.400000X1.600000*%
%ADD27R,1.900000X1.900000*%
%ADD28O,1.800000X0.900000*%
%ADD29RoundRect,0.102000X0.127000X0.165100X-0.127000X0.165100X-0.127000X-0.165100X0.127000X-0.165100X0*%
%ADD30RoundRect,0.102000X0.127000X0.254000X-0.127000X0.254000X-0.127000X-0.254000X0.127000X-0.254000X0*%
%ADD31RoundRect,0.102000X0.127000X0.177800X-0.127000X0.177800X-0.127000X-0.177800X0.127000X-0.177800X0*%
%ADD32RoundRect,0.102000X0.215900X-0.127000X0.215900X0.127000X-0.215900X0.127000X-0.215900X-0.127000X0*%
%ADD33RoundRect,0.102000X0.254000X-0.127000X0.254000X0.127000X-0.254000X0.127000X-0.254000X-0.127000X0*%
%ADD34RoundRect,0.250000X-0.250000X-0.475000X0.250000X-0.475000X0.250000X0.475000X-0.250000X0.475000X0*%
%ADD35RoundRect,0.250000X0.262500X0.450000X-0.262500X0.450000X-0.262500X-0.450000X0.262500X-0.450000X0*%
%ADD36RoundRect,0.250000X0.450000X-0.262500X0.450000X0.262500X-0.450000X0.262500X-0.450000X-0.262500X0*%
%ADD37RoundRect,0.250000X-0.475000X0.250000X-0.475000X-0.250000X0.475000X-0.250000X0.475000X0.250000X0*%
%ADD38R,1.900000X1.100000*%
%ADD39RoundRect,0.250000X-0.450000X0.262500X-0.450000X-0.262500X0.450000X-0.262500X0.450000X0.262500X0*%
%ADD40R,1.500000X0.900000*%
%ADD41R,0.900000X1.500000*%
%ADD42R,0.900000X0.900000*%
%ADD43RoundRect,0.250000X-0.625000X0.375000X-0.625000X-0.375000X0.625000X-0.375000X0.625000X0.375000X0*%
%ADD44R,0.650000X1.560000*%
%ADD45R,1.500000X1.000000*%
%ADD46RoundRect,0.150000X-0.825000X-0.150000X0.825000X-0.150000X0.825000X0.150000X-0.825000X0.150000X0*%
%ADD47R,0.765000X0.210000*%
%ADD48RoundRect,0.100000X-0.712500X-0.100000X0.712500X-0.100000X0.712500X0.100000X-0.712500X0.100000X0*%
%ADD49RoundRect,0.150000X0.150000X-0.587500X0.150000X0.587500X-0.150000X0.587500X-0.150000X-0.587500X0*%
%ADD50C,1.000000*%
%ADD51R,1.000000X0.700000*%
%ADD52C,1.530000*%
%ADD53C,5.175000*%
%ADD54R,1.700000X1.700000*%
%ADD55O,1.700000X1.700000*%
G04 APERTURE END LIST*
D10*
%TO.C,C10*%
X77647142Y9627143D02*
X77694761Y9579524D01*
X77742380Y9436667D01*
X77742380Y9341429D01*
X77694761Y9198572D01*
X77599523Y9103334D01*
X77504285Y9055715D01*
X77313809Y9008096D01*
X77170952Y9008096D01*
X76980476Y9055715D01*
X76885238Y9103334D01*
X76790000Y9198572D01*
X76742380Y9341429D01*
X76742380Y9436667D01*
X76790000Y9579524D01*
X76837619Y9627143D01*
X77742380Y10579524D02*
X77742380Y10008096D01*
X77742380Y10293810D02*
X76742380Y10293810D01*
X76885238Y10198572D01*
X76980476Y10103334D01*
X77028095Y10008096D01*
X76742380Y11198572D02*
X76742380Y11293810D01*
X76790000Y11389048D01*
X76837619Y11436667D01*
X76932857Y11484286D01*
X77123333Y11531905D01*
X77361428Y11531905D01*
X77551904Y11484286D01*
X77647142Y11436667D01*
X77694761Y11389048D01*
X77742380Y11293810D01*
X77742380Y11198572D01*
X77694761Y11103334D01*
X77647142Y11055715D01*
X77551904Y11008096D01*
X77361428Y10960477D01*
X77123333Y10960477D01*
X76932857Y11008096D01*
X76837619Y11055715D01*
X76790000Y11103334D01*
X76742380Y11198572D01*
%TO.C,C9*%
X66883333Y15202858D02*
X66835714Y15155239D01*
X66692857Y15107620D01*
X66597619Y15107620D01*
X66454761Y15155239D01*
X66359523Y15250477D01*
X66311904Y15345715D01*
X66264285Y15536191D01*
X66264285Y15679048D01*
X66311904Y15869524D01*
X66359523Y15964762D01*
X66454761Y16060000D01*
X66597619Y16107620D01*
X66692857Y16107620D01*
X66835714Y16060000D01*
X66883333Y16012381D01*
X67359523Y15107620D02*
X67550000Y15107620D01*
X67645238Y15155239D01*
X67692857Y15202858D01*
X67788095Y15345715D01*
X67835714Y15536191D01*
X67835714Y15917143D01*
X67788095Y16012381D01*
X67740476Y16060000D01*
X67645238Y16107620D01*
X67454761Y16107620D01*
X67359523Y16060000D01*
X67311904Y16012381D01*
X67264285Y15917143D01*
X67264285Y15679048D01*
X67311904Y15583810D01*
X67359523Y15536191D01*
X67454761Y15488572D01*
X67645238Y15488572D01*
X67740476Y15536191D01*
X67788095Y15583810D01*
X67835714Y15679048D01*
%TO.C,R6*%
X70043333Y2277620D02*
X69710000Y2753810D01*
X69471904Y2277620D02*
X69471904Y3277620D01*
X69852857Y3277620D01*
X69948095Y3230000D01*
X69995714Y3182381D01*
X70043333Y3087143D01*
X70043333Y2944286D01*
X69995714Y2849048D01*
X69948095Y2801429D01*
X69852857Y2753810D01*
X69471904Y2753810D01*
X70900476Y3277620D02*
X70710000Y3277620D01*
X70614761Y3230000D01*
X70567142Y3182381D01*
X70471904Y3039524D01*
X70424285Y2849048D01*
X70424285Y2468096D01*
X70471904Y2372858D01*
X70519523Y2325239D01*
X70614761Y2277620D01*
X70805238Y2277620D01*
X70900476Y2325239D01*
X70948095Y2372858D01*
X70995714Y2468096D01*
X70995714Y2706191D01*
X70948095Y2801429D01*
X70900476Y2849048D01*
X70805238Y2896667D01*
X70614761Y2896667D01*
X70519523Y2849048D01*
X70471904Y2801429D01*
X70424285Y2706191D01*
%TO.C,D2*%
X69521904Y5597620D02*
X69521904Y6597620D01*
X69760000Y6597620D01*
X69902857Y6550000D01*
X69998095Y6454762D01*
X70045714Y6359524D01*
X70093333Y6169048D01*
X70093333Y6026191D01*
X70045714Y5835715D01*
X69998095Y5740477D01*
X69902857Y5645239D01*
X69760000Y5597620D01*
X69521904Y5597620D01*
X70474285Y6502381D02*
X70521904Y6550000D01*
X70617142Y6597620D01*
X70855238Y6597620D01*
X70950476Y6550000D01*
X70998095Y6502381D01*
X71045714Y6407143D01*
X71045714Y6311905D01*
X70998095Y6169048D01*
X70426666Y5597620D01*
X71045714Y5597620D01*
%TO.C,U3*%
X42132380Y43380477D02*
X42132380Y42862381D01*
X42162857Y42801429D01*
X42193333Y42770953D01*
X42254285Y42740477D01*
X42376190Y42740477D01*
X42437142Y42770953D01*
X42467619Y42801429D01*
X42498095Y42862381D01*
X42498095Y43380477D01*
X42741904Y43380477D02*
X43138095Y43380477D01*
X42924761Y43136667D01*
X43016190Y43136667D01*
X43077142Y43106191D01*
X43107619Y43075715D01*
X43138095Y43014762D01*
X43138095Y42862381D01*
X43107619Y42801429D01*
X43077142Y42770953D01*
X43016190Y42740477D01*
X42833333Y42740477D01*
X42772380Y42770953D01*
X42741904Y42801429D01*
%TO.C,J4*%
X-3227620Y32546667D02*
X-2513334Y32546667D01*
X-2370477Y32499048D01*
X-2275239Y32403810D01*
X-2227620Y32260953D01*
X-2227620Y32165715D01*
X-2894286Y33451429D02*
X-2227620Y33451429D01*
X-3275239Y33213334D02*
X-2560953Y32975239D01*
X-2560953Y33594286D01*
%TO.C,U4*%
X40735880Y30016191D02*
X40735880Y28720953D01*
X40812070Y28568572D01*
X40888261Y28492381D01*
X41040642Y28416191D01*
X41345404Y28416191D01*
X41497785Y28492381D01*
X41573975Y28568572D01*
X41650166Y28720953D01*
X41650166Y30016191D01*
X43097785Y29482858D02*
X43097785Y28416191D01*
X42716832Y30092381D02*
X42335880Y28949524D01*
X43326356Y28949524D01*
%TO.C,C3*%
X7293333Y-917142D02*
X7245714Y-964761D01*
X7102857Y-1012380D01*
X7007619Y-1012380D01*
X6864761Y-964761D01*
X6769523Y-869523D01*
X6721904Y-774285D01*
X6674285Y-583809D01*
X6674285Y-440952D01*
X6721904Y-250476D01*
X6769523Y-155238D01*
X6864761Y-60000D01*
X7007619Y-12380D01*
X7102857Y-12380D01*
X7245714Y-60000D01*
X7293333Y-107619D01*
X7626666Y-12380D02*
X8245714Y-12380D01*
X7912380Y-393333D01*
X8055238Y-393333D01*
X8150476Y-440952D01*
X8198095Y-488571D01*
X8245714Y-583809D01*
X8245714Y-821904D01*
X8198095Y-917142D01*
X8150476Y-964761D01*
X8055238Y-1012380D01*
X7769523Y-1012380D01*
X7674285Y-964761D01*
X7626666Y-917142D01*
%TO.C,R7*%
X73723333Y29037620D02*
X73390000Y29513810D01*
X73151904Y29037620D02*
X73151904Y30037620D01*
X73532857Y30037620D01*
X73628095Y29990000D01*
X73675714Y29942381D01*
X73723333Y29847143D01*
X73723333Y29704286D01*
X73675714Y29609048D01*
X73628095Y29561429D01*
X73532857Y29513810D01*
X73151904Y29513810D01*
X74056666Y30037620D02*
X74723333Y30037620D01*
X74294761Y29037620D01*
%TO.C,R9*%
X7382380Y17343334D02*
X6906190Y17010000D01*
X7382380Y16771905D02*
X6382380Y16771905D01*
X6382380Y17152858D01*
X6430000Y17248096D01*
X6477619Y17295715D01*
X6572857Y17343334D01*
X6715714Y17343334D01*
X6810952Y17295715D01*
X6858571Y17248096D01*
X6906190Y17152858D01*
X6906190Y16771905D01*
X7382380Y17819524D02*
X7382380Y18010000D01*
X7334761Y18105239D01*
X7287142Y18152858D01*
X7144285Y18248096D01*
X6953809Y18295715D01*
X6572857Y18295715D01*
X6477619Y18248096D01*
X6430000Y18200477D01*
X6382380Y18105239D01*
X6382380Y17914762D01*
X6430000Y17819524D01*
X6477619Y17771905D01*
X6572857Y17724286D01*
X6810952Y17724286D01*
X6906190Y17771905D01*
X6953809Y17819524D01*
X7001428Y17914762D01*
X7001428Y18105239D01*
X6953809Y18200477D01*
X6906190Y18248096D01*
X6810952Y18295715D01*
%TO.C,C4*%
X35617142Y3623334D02*
X35664761Y3575715D01*
X35712380Y3432858D01*
X35712380Y3337620D01*
X35664761Y3194762D01*
X35569523Y3099524D01*
X35474285Y3051905D01*
X35283809Y3004286D01*
X35140952Y3004286D01*
X34950476Y3051905D01*
X34855238Y3099524D01*
X34760000Y3194762D01*
X34712380Y3337620D01*
X34712380Y3432858D01*
X34760000Y3575715D01*
X34807619Y3623334D01*
X35045714Y4480477D02*
X35712380Y4480477D01*
X34664761Y4242381D02*
X35379047Y4004286D01*
X35379047Y4623334D01*
%TO.C,C6*%
X38617142Y3623334D02*
X38664761Y3575715D01*
X38712380Y3432858D01*
X38712380Y3337620D01*
X38664761Y3194762D01*
X38569523Y3099524D01*
X38474285Y3051905D01*
X38283809Y3004286D01*
X38140952Y3004286D01*
X37950476Y3051905D01*
X37855238Y3099524D01*
X37760000Y3194762D01*
X37712380Y3337620D01*
X37712380Y3432858D01*
X37760000Y3575715D01*
X37807619Y3623334D01*
X37712380Y4480477D02*
X37712380Y4290000D01*
X37760000Y4194762D01*
X37807619Y4147143D01*
X37950476Y4051905D01*
X38140952Y4004286D01*
X38521904Y4004286D01*
X38617142Y4051905D01*
X38664761Y4099524D01*
X38712380Y4194762D01*
X38712380Y4385239D01*
X38664761Y4480477D01*
X38617142Y4528096D01*
X38521904Y4575715D01*
X38283809Y4575715D01*
X38188571Y4528096D01*
X38140952Y4480477D01*
X38093333Y4385239D01*
X38093333Y4194762D01*
X38140952Y4099524D01*
X38188571Y4051905D01*
X38283809Y4004286D01*
%TO.C,R2*%
X48103333Y12597620D02*
X47770000Y13073810D01*
X47531904Y12597620D02*
X47531904Y13597620D01*
X47912857Y13597620D01*
X48008095Y13550000D01*
X48055714Y13502381D01*
X48103333Y13407143D01*
X48103333Y13264286D01*
X48055714Y13169048D01*
X48008095Y13121429D01*
X47912857Y13073810D01*
X47531904Y13073810D01*
X48484285Y13502381D02*
X48531904Y13550000D01*
X48627142Y13597620D01*
X48865238Y13597620D01*
X48960476Y13550000D01*
X49008095Y13502381D01*
X49055714Y13407143D01*
X49055714Y13311905D01*
X49008095Y13169048D01*
X48436666Y12597620D01*
X49055714Y12597620D01*
%TO.C,R1*%
X7195833Y5567620D02*
X6862500Y6043810D01*
X6624404Y5567620D02*
X6624404Y6567620D01*
X7005357Y6567620D01*
X7100595Y6520000D01*
X7148214Y6472381D01*
X7195833Y6377143D01*
X7195833Y6234286D01*
X7148214Y6139048D01*
X7100595Y6091429D01*
X7005357Y6043810D01*
X6624404Y6043810D01*
X8148214Y5567620D02*
X7576785Y5567620D01*
X7862500Y5567620D02*
X7862500Y6567620D01*
X7767261Y6424762D01*
X7672023Y6329524D01*
X7576785Y6281905D01*
%TO.C,R3*%
X48013333Y15947620D02*
X47680000Y16423810D01*
X47441904Y15947620D02*
X47441904Y16947620D01*
X47822857Y16947620D01*
X47918095Y16900000D01*
X47965714Y16852381D01*
X48013333Y16757143D01*
X48013333Y16614286D01*
X47965714Y16519048D01*
X47918095Y16471429D01*
X47822857Y16423810D01*
X47441904Y16423810D01*
X48346666Y16947620D02*
X48965714Y16947620D01*
X48632380Y16566667D01*
X48775238Y16566667D01*
X48870476Y16519048D01*
X48918095Y16471429D01*
X48965714Y16376191D01*
X48965714Y16138096D01*
X48918095Y16042858D01*
X48870476Y15995239D01*
X48775238Y15947620D01*
X48489523Y15947620D01*
X48394285Y15995239D01*
X48346666Y16042858D01*
%TO.C,Y1*%
X53998661Y13280739D02*
X54303423Y13280739D01*
X53663423Y13067405D02*
X53998661Y13280739D01*
X53663423Y13494072D01*
X54303423Y14042643D02*
X54303423Y13676929D01*
X54303423Y13859786D02*
X53663423Y13859786D01*
X53754852Y13798834D01*
X53815804Y13737881D01*
X53846280Y13676929D01*
%TO.C,C2*%
X56190833Y13235358D02*
X56143214Y13187739D01*
X56000357Y13140120D01*
X55905119Y13140120D01*
X55762261Y13187739D01*
X55667023Y13282977D01*
X55619404Y13378215D01*
X55571785Y13568691D01*
X55571785Y13711548D01*
X55619404Y13902024D01*
X55667023Y13997262D01*
X55762261Y14092500D01*
X55905119Y14140120D01*
X56000357Y14140120D01*
X56143214Y14092500D01*
X56190833Y14044881D01*
X56571785Y14044881D02*
X56619404Y14092500D01*
X56714642Y14140120D01*
X56952738Y14140120D01*
X57047976Y14092500D01*
X57095595Y14044881D01*
X57143214Y13949643D01*
X57143214Y13854405D01*
X57095595Y13711548D01*
X56524166Y13140120D01*
X57143214Y13140120D01*
%TO.C,R5*%
X84972380Y24453334D02*
X84496190Y24120000D01*
X84972380Y23881905D02*
X83972380Y23881905D01*
X83972380Y24262858D01*
X84020000Y24358096D01*
X84067619Y24405715D01*
X84162857Y24453334D01*
X84305714Y24453334D01*
X84400952Y24405715D01*
X84448571Y24358096D01*
X84496190Y24262858D01*
X84496190Y23881905D01*
X83972380Y25358096D02*
X83972380Y24881905D01*
X84448571Y24834286D01*
X84400952Y24881905D01*
X84353333Y24977143D01*
X84353333Y25215239D01*
X84400952Y25310477D01*
X84448571Y25358096D01*
X84543809Y25405715D01*
X84781904Y25405715D01*
X84877142Y25358096D01*
X84924761Y25310477D01*
X84972380Y25215239D01*
X84972380Y24977143D01*
X84924761Y24881905D01*
X84877142Y24834286D01*
%TO.C,C1*%
X56190833Y9905358D02*
X56143214Y9857739D01*
X56000357Y9810120D01*
X55905119Y9810120D01*
X55762261Y9857739D01*
X55667023Y9952977D01*
X55619404Y10048215D01*
X55571785Y10238691D01*
X55571785Y10381548D01*
X55619404Y10572024D01*
X55667023Y10667262D01*
X55762261Y10762500D01*
X55905119Y10810120D01*
X56000357Y10810120D01*
X56143214Y10762500D01*
X56190833Y10714881D01*
X57143214Y9810120D02*
X56571785Y9810120D01*
X56857500Y9810120D02*
X56857500Y10810120D01*
X56762261Y10667262D01*
X56667023Y10572024D01*
X56571785Y10524405D01*
%TO.C,U2*%
X20968095Y2397620D02*
X20968095Y1588096D01*
X21015714Y1492858D01*
X21063333Y1445239D01*
X21158571Y1397620D01*
X21349047Y1397620D01*
X21444285Y1445239D01*
X21491904Y1492858D01*
X21539523Y1588096D01*
X21539523Y2397620D01*
X21968095Y2302381D02*
X22015714Y2350000D01*
X22110952Y2397620D01*
X22349047Y2397620D01*
X22444285Y2350000D01*
X22491904Y2302381D01*
X22539523Y2207143D01*
X22539523Y2111905D01*
X22491904Y1969048D01*
X21920476Y1397620D01*
X22539523Y1397620D01*
%TO.C,R4*%
X40883333Y15427620D02*
X40550000Y15903810D01*
X40311904Y15427620D02*
X40311904Y16427620D01*
X40692857Y16427620D01*
X40788095Y16380000D01*
X40835714Y16332381D01*
X40883333Y16237143D01*
X40883333Y16094286D01*
X40835714Y15999048D01*
X40788095Y15951429D01*
X40692857Y15903810D01*
X40311904Y15903810D01*
X41740476Y16094286D02*
X41740476Y15427620D01*
X41502380Y16475239D02*
X41264285Y15760953D01*
X41883333Y15760953D01*
%TO.C,C5*%
X11457142Y42293334D02*
X11504761Y42245715D01*
X11552380Y42102858D01*
X11552380Y42007620D01*
X11504761Y41864762D01*
X11409523Y41769524D01*
X11314285Y41721905D01*
X11123809Y41674286D01*
X10980952Y41674286D01*
X10790476Y41721905D01*
X10695238Y41769524D01*
X10600000Y41864762D01*
X10552380Y42007620D01*
X10552380Y42102858D01*
X10600000Y42245715D01*
X10647619Y42293334D01*
X10552380Y43198096D02*
X10552380Y42721905D01*
X11028571Y42674286D01*
X10980952Y42721905D01*
X10933333Y42817143D01*
X10933333Y43055239D01*
X10980952Y43150477D01*
X11028571Y43198096D01*
X11123809Y43245715D01*
X11361904Y43245715D01*
X11457142Y43198096D01*
X11504761Y43150477D01*
X11552380Y43055239D01*
X11552380Y42817143D01*
X11504761Y42721905D01*
X11457142Y42674286D01*
%TO.C,F1*%
X4682821Y41636667D02*
X4682821Y41303334D01*
X5206630Y41303334D02*
X4206630Y41303334D01*
X4206630Y41779524D01*
X5206630Y42684286D02*
X5206630Y42112858D01*
X5206630Y42398572D02*
X4206630Y42398572D01*
X4349488Y42303334D01*
X4444726Y42208096D01*
X4492345Y42112858D01*
%TO.C,U1*%
X66658095Y10547620D02*
X66658095Y9738096D01*
X66705714Y9642858D01*
X66753333Y9595239D01*
X66848571Y9547620D01*
X67039047Y9547620D01*
X67134285Y9595239D01*
X67181904Y9642858D01*
X67229523Y9738096D01*
X67229523Y10547620D01*
X68229523Y9547620D02*
X67658095Y9547620D01*
X67943809Y9547620D02*
X67943809Y10547620D01*
X67848571Y10404762D01*
X67753333Y10309524D01*
X67658095Y10261905D01*
%TO.C,J2*%
X38462380Y20476667D02*
X39176666Y20476667D01*
X39319523Y20429048D01*
X39414761Y20333810D01*
X39462380Y20190953D01*
X39462380Y20095715D01*
X38557619Y20905239D02*
X38510000Y20952858D01*
X38462380Y21048096D01*
X38462380Y21286191D01*
X38510000Y21381429D01*
X38557619Y21429048D01*
X38652857Y21476667D01*
X38748095Y21476667D01*
X38890952Y21429048D01*
X39462380Y20857620D01*
X39462380Y21476667D01*
%TO.C,C17*%
X5127142Y46127143D02*
X5174761Y46079524D01*
X5222380Y45936667D01*
X5222380Y45841429D01*
X5174761Y45698572D01*
X5079523Y45603334D01*
X4984285Y45555715D01*
X4793809Y45508096D01*
X4650952Y45508096D01*
X4460476Y45555715D01*
X4365238Y45603334D01*
X4270000Y45698572D01*
X4222380Y45841429D01*
X4222380Y45936667D01*
X4270000Y46079524D01*
X4317619Y46127143D01*
X5222380Y47079524D02*
X5222380Y46508096D01*
X5222380Y46793810D02*
X4222380Y46793810D01*
X4365238Y46698572D01*
X4460476Y46603334D01*
X4508095Y46508096D01*
X4222380Y47412858D02*
X4222380Y48079524D01*
X5222380Y47650953D01*
%TO.C,C14*%
X81007142Y49812143D02*
X81054761Y49764524D01*
X81102380Y49621667D01*
X81102380Y49526429D01*
X81054761Y49383572D01*
X80959523Y49288334D01*
X80864285Y49240715D01*
X80673809Y49193096D01*
X80530952Y49193096D01*
X80340476Y49240715D01*
X80245238Y49288334D01*
X80150000Y49383572D01*
X80102380Y49526429D01*
X80102380Y49621667D01*
X80150000Y49764524D01*
X80197619Y49812143D01*
X81102380Y50764524D02*
X81102380Y50193096D01*
X81102380Y50478810D02*
X80102380Y50478810D01*
X80245238Y50383572D01*
X80340476Y50288334D01*
X80388095Y50193096D01*
X80435714Y51621667D02*
X81102380Y51621667D01*
X80054761Y51383572D02*
X80769047Y51145477D01*
X80769047Y51764524D01*
%TO.C,C8*%
X77817142Y49878334D02*
X77864761Y49830715D01*
X77912380Y49687858D01*
X77912380Y49592620D01*
X77864761Y49449762D01*
X77769523Y49354524D01*
X77674285Y49306905D01*
X77483809Y49259286D01*
X77340952Y49259286D01*
X77150476Y49306905D01*
X77055238Y49354524D01*
X76960000Y49449762D01*
X76912380Y49592620D01*
X76912380Y49687858D01*
X76960000Y49830715D01*
X77007619Y49878334D01*
X77340952Y50449762D02*
X77293333Y50354524D01*
X77245714Y50306905D01*
X77150476Y50259286D01*
X77102857Y50259286D01*
X77007619Y50306905D01*
X76960000Y50354524D01*
X76912380Y50449762D01*
X76912380Y50640239D01*
X76960000Y50735477D01*
X77007619Y50783096D01*
X77102857Y50830715D01*
X77150476Y50830715D01*
X77245714Y50783096D01*
X77293333Y50735477D01*
X77340952Y50640239D01*
X77340952Y50449762D01*
X77388571Y50354524D01*
X77436190Y50306905D01*
X77531428Y50259286D01*
X77721904Y50259286D01*
X77817142Y50306905D01*
X77864761Y50354524D01*
X77912380Y50449762D01*
X77912380Y50640239D01*
X77864761Y50735477D01*
X77817142Y50783096D01*
X77721904Y50830715D01*
X77531428Y50830715D01*
X77436190Y50783096D01*
X77388571Y50735477D01*
X77340952Y50640239D01*
%TO.C,U8*%
X20908095Y31777620D02*
X20908095Y30968096D01*
X20955714Y30872858D01*
X21003333Y30825239D01*
X21098571Y30777620D01*
X21289047Y30777620D01*
X21384285Y30825239D01*
X21431904Y30872858D01*
X21479523Y30968096D01*
X21479523Y31777620D01*
X22098571Y31349048D02*
X22003333Y31396667D01*
X21955714Y31444286D01*
X21908095Y31539524D01*
X21908095Y31587143D01*
X21955714Y31682381D01*
X22003333Y31730000D01*
X22098571Y31777620D01*
X22289047Y31777620D01*
X22384285Y31730000D01*
X22431904Y31682381D01*
X22479523Y31587143D01*
X22479523Y31539524D01*
X22431904Y31444286D01*
X22384285Y31396667D01*
X22289047Y31349048D01*
X22098571Y31349048D01*
X22003333Y31301429D01*
X21955714Y31253810D01*
X21908095Y31158572D01*
X21908095Y30968096D01*
X21955714Y30872858D01*
X22003333Y30825239D01*
X22098571Y30777620D01*
X22289047Y30777620D01*
X22384285Y30825239D01*
X22431904Y30872858D01*
X22479523Y30968096D01*
X22479523Y31158572D01*
X22431904Y31253810D01*
X22384285Y31301429D01*
X22289047Y31349048D01*
%TO.C,R8*%
X85422380Y40558334D02*
X84946190Y40225000D01*
X85422380Y39986905D02*
X84422380Y39986905D01*
X84422380Y40367858D01*
X84470000Y40463096D01*
X84517619Y40510715D01*
X84612857Y40558334D01*
X84755714Y40558334D01*
X84850952Y40510715D01*
X84898571Y40463096D01*
X84946190Y40367858D01*
X84946190Y39986905D01*
X84850952Y41129762D02*
X84803333Y41034524D01*
X84755714Y40986905D01*
X84660476Y40939286D01*
X84612857Y40939286D01*
X84517619Y40986905D01*
X84470000Y41034524D01*
X84422380Y41129762D01*
X84422380Y41320239D01*
X84470000Y41415477D01*
X84517619Y41463096D01*
X84612857Y41510715D01*
X84660476Y41510715D01*
X84755714Y41463096D01*
X84803333Y41415477D01*
X84850952Y41320239D01*
X84850952Y41129762D01*
X84898571Y41034524D01*
X84946190Y40986905D01*
X85041428Y40939286D01*
X85231904Y40939286D01*
X85327142Y40986905D01*
X85374761Y41034524D01*
X85422380Y41129762D01*
X85422380Y41320239D01*
X85374761Y41415477D01*
X85327142Y41463096D01*
X85231904Y41510715D01*
X85041428Y41510715D01*
X84946190Y41463096D01*
X84898571Y41415477D01*
X84850952Y41320239D01*
%TO.C,R16*%
X51782380Y37607143D02*
X51306190Y37273810D01*
X51782380Y37035715D02*
X50782380Y37035715D01*
X50782380Y37416667D01*
X50830000Y37511905D01*
X50877619Y37559524D01*
X50972857Y37607143D01*
X51115714Y37607143D01*
X51210952Y37559524D01*
X51258571Y37511905D01*
X51306190Y37416667D01*
X51306190Y37035715D01*
X51782380Y38559524D02*
X51782380Y37988096D01*
X51782380Y38273810D02*
X50782380Y38273810D01*
X50925238Y38178572D01*
X51020476Y38083334D01*
X51068095Y37988096D01*
X50782380Y39416667D02*
X50782380Y39226191D01*
X50830000Y39130953D01*
X50877619Y39083334D01*
X51020476Y38988096D01*
X51210952Y38940477D01*
X51591904Y38940477D01*
X51687142Y38988096D01*
X51734761Y39035715D01*
X51782380Y39130953D01*
X51782380Y39321429D01*
X51734761Y39416667D01*
X51687142Y39464286D01*
X51591904Y39511905D01*
X51353809Y39511905D01*
X51258571Y39464286D01*
X51210952Y39416667D01*
X51163333Y39321429D01*
X51163333Y39130953D01*
X51210952Y39035715D01*
X51258571Y38988096D01*
X51353809Y38940477D01*
%TO.C,C19*%
X63137142Y16842858D02*
X63089523Y16795239D01*
X62946666Y16747620D01*
X62851428Y16747620D01*
X62708571Y16795239D01*
X62613333Y16890477D01*
X62565714Y16985715D01*
X62518095Y17176191D01*
X62518095Y17319048D01*
X62565714Y17509524D01*
X62613333Y17604762D01*
X62708571Y17700000D01*
X62851428Y17747620D01*
X62946666Y17747620D01*
X63089523Y17700000D01*
X63137142Y17652381D01*
X64089523Y16747620D02*
X63518095Y16747620D01*
X63803809Y16747620D02*
X63803809Y17747620D01*
X63708571Y17604762D01*
X63613333Y17509524D01*
X63518095Y17461905D01*
X64565714Y16747620D02*
X64756190Y16747620D01*
X64851428Y16795239D01*
X64899047Y16842858D01*
X64994285Y16985715D01*
X65041904Y17176191D01*
X65041904Y17557143D01*
X64994285Y17652381D01*
X64946666Y17700000D01*
X64851428Y17747620D01*
X64660952Y17747620D01*
X64565714Y17700000D01*
X64518095Y17652381D01*
X64470476Y17557143D01*
X64470476Y17319048D01*
X64518095Y17223810D01*
X64565714Y17176191D01*
X64660952Y17128572D01*
X64851428Y17128572D01*
X64946666Y17176191D01*
X64994285Y17223810D01*
X65041904Y17319048D01*
%TO.C,R10*%
X63097142Y12947620D02*
X62763809Y13423810D01*
X62525714Y12947620D02*
X62525714Y13947620D01*
X62906666Y13947620D01*
X63001904Y13900000D01*
X63049523Y13852381D01*
X63097142Y13757143D01*
X63097142Y13614286D01*
X63049523Y13519048D01*
X63001904Y13471429D01*
X62906666Y13423810D01*
X62525714Y13423810D01*
X64049523Y12947620D02*
X63478095Y12947620D01*
X63763809Y12947620D02*
X63763809Y13947620D01*
X63668571Y13804762D01*
X63573333Y13709524D01*
X63478095Y13661905D01*
X64668571Y13947620D02*
X64763809Y13947620D01*
X64859047Y13900000D01*
X64906666Y13852381D01*
X64954285Y13757143D01*
X65001904Y13566667D01*
X65001904Y13328572D01*
X64954285Y13138096D01*
X64906666Y13042858D01*
X64859047Y12995239D01*
X64763809Y12947620D01*
X64668571Y12947620D01*
X64573333Y12995239D01*
X64525714Y13042858D01*
X64478095Y13138096D01*
X64430476Y13328572D01*
X64430476Y13566667D01*
X64478095Y13757143D01*
X64525714Y13852381D01*
X64573333Y13900000D01*
X64668571Y13947620D01*
%TO.C,R15*%
X36432380Y35377143D02*
X35956190Y35043810D01*
X36432380Y34805715D02*
X35432380Y34805715D01*
X35432380Y35186667D01*
X35480000Y35281905D01*
X35527619Y35329524D01*
X35622857Y35377143D01*
X35765714Y35377143D01*
X35860952Y35329524D01*
X35908571Y35281905D01*
X35956190Y35186667D01*
X35956190Y34805715D01*
X36432380Y36329524D02*
X36432380Y35758096D01*
X36432380Y36043810D02*
X35432380Y36043810D01*
X35575238Y35948572D01*
X35670476Y35853334D01*
X35718095Y35758096D01*
X35432380Y37234286D02*
X35432380Y36758096D01*
X35908571Y36710477D01*
X35860952Y36758096D01*
X35813333Y36853334D01*
X35813333Y37091429D01*
X35860952Y37186667D01*
X35908571Y37234286D01*
X36003809Y37281905D01*
X36241904Y37281905D01*
X36337142Y37234286D01*
X36384761Y37186667D01*
X36432380Y37091429D01*
X36432380Y36853334D01*
X36384761Y36758096D01*
X36337142Y36710477D01*
%TO.C,C16*%
X33727142Y35334643D02*
X33774761Y35287024D01*
X33822380Y35144167D01*
X33822380Y35048929D01*
X33774761Y34906072D01*
X33679523Y34810834D01*
X33584285Y34763215D01*
X33393809Y34715596D01*
X33250952Y34715596D01*
X33060476Y34763215D01*
X32965238Y34810834D01*
X32870000Y34906072D01*
X32822380Y35048929D01*
X32822380Y35144167D01*
X32870000Y35287024D01*
X32917619Y35334643D01*
X33822380Y36287024D02*
X33822380Y35715596D01*
X33822380Y36001310D02*
X32822380Y36001310D01*
X32965238Y35906072D01*
X33060476Y35810834D01*
X33108095Y35715596D01*
X32822380Y37144167D02*
X32822380Y36953691D01*
X32870000Y36858453D01*
X32917619Y36810834D01*
X33060476Y36715596D01*
X33250952Y36667977D01*
X33631904Y36667977D01*
X33727142Y36715596D01*
X33774761Y36763215D01*
X33822380Y36858453D01*
X33822380Y37048929D01*
X33774761Y37144167D01*
X33727142Y37191786D01*
X33631904Y37239405D01*
X33393809Y37239405D01*
X33298571Y37191786D01*
X33250952Y37144167D01*
X33203333Y37048929D01*
X33203333Y36858453D01*
X33250952Y36763215D01*
X33298571Y36715596D01*
X33393809Y36667977D01*
%TO.C,C13*%
X73957142Y39077143D02*
X74004761Y39029524D01*
X74052380Y38886667D01*
X74052380Y38791429D01*
X74004761Y38648572D01*
X73909523Y38553334D01*
X73814285Y38505715D01*
X73623809Y38458096D01*
X73480952Y38458096D01*
X73290476Y38505715D01*
X73195238Y38553334D01*
X73100000Y38648572D01*
X73052380Y38791429D01*
X73052380Y38886667D01*
X73100000Y39029524D01*
X73147619Y39077143D01*
X74052380Y40029524D02*
X74052380Y39458096D01*
X74052380Y39743810D02*
X73052380Y39743810D01*
X73195238Y39648572D01*
X73290476Y39553334D01*
X73338095Y39458096D01*
X73052380Y40362858D02*
X73052380Y40981905D01*
X73433333Y40648572D01*
X73433333Y40791429D01*
X73480952Y40886667D01*
X73528571Y40934286D01*
X73623809Y40981905D01*
X73861904Y40981905D01*
X73957142Y40934286D01*
X74004761Y40886667D01*
X74052380Y40791429D01*
X74052380Y40505715D01*
X74004761Y40410477D01*
X73957142Y40362858D01*
%TO.C,R11*%
X21472380Y47837143D02*
X20996190Y47503810D01*
X21472380Y47265715D02*
X20472380Y47265715D01*
X20472380Y47646667D01*
X20520000Y47741905D01*
X20567619Y47789524D01*
X20662857Y47837143D01*
X20805714Y47837143D01*
X20900952Y47789524D01*
X20948571Y47741905D01*
X20996190Y47646667D01*
X20996190Y47265715D01*
X21472380Y48789524D02*
X21472380Y48218096D01*
X21472380Y48503810D02*
X20472380Y48503810D01*
X20615238Y48408572D01*
X20710476Y48313334D01*
X20758095Y48218096D01*
X21472380Y49741905D02*
X21472380Y49170477D01*
X21472380Y49456191D02*
X20472380Y49456191D01*
X20615238Y49360953D01*
X20710476Y49265715D01*
X20758095Y49170477D01*
%TO.C,U9*%
X57308095Y28537620D02*
X57308095Y27728096D01*
X57355714Y27632858D01*
X57403333Y27585239D01*
X57498571Y27537620D01*
X57689047Y27537620D01*
X57784285Y27585239D01*
X57831904Y27632858D01*
X57879523Y27728096D01*
X57879523Y28537620D01*
X58403333Y27537620D02*
X58593809Y27537620D01*
X58689047Y27585239D01*
X58736666Y27632858D01*
X58831904Y27775715D01*
X58879523Y27966191D01*
X58879523Y28347143D01*
X58831904Y28442381D01*
X58784285Y28490000D01*
X58689047Y28537620D01*
X58498571Y28537620D01*
X58403333Y28490000D01*
X58355714Y28442381D01*
X58308095Y28347143D01*
X58308095Y28109048D01*
X58355714Y28013810D01*
X58403333Y27966191D01*
X58498571Y27918572D01*
X58689047Y27918572D01*
X58784285Y27966191D01*
X58831904Y28013810D01*
X58879523Y28109048D01*
%TO.C,R12*%
X16672380Y36787143D02*
X16196190Y36453810D01*
X16672380Y36215715D02*
X15672380Y36215715D01*
X15672380Y36596667D01*
X15720000Y36691905D01*
X15767619Y36739524D01*
X15862857Y36787143D01*
X16005714Y36787143D01*
X16100952Y36739524D01*
X16148571Y36691905D01*
X16196190Y36596667D01*
X16196190Y36215715D01*
X16672380Y37739524D02*
X16672380Y37168096D01*
X16672380Y37453810D02*
X15672380Y37453810D01*
X15815238Y37358572D01*
X15910476Y37263334D01*
X15958095Y37168096D01*
X15767619Y38120477D02*
X15720000Y38168096D01*
X15672380Y38263334D01*
X15672380Y38501429D01*
X15720000Y38596667D01*
X15767619Y38644286D01*
X15862857Y38691905D01*
X15958095Y38691905D01*
X16100952Y38644286D01*
X16672380Y38072858D01*
X16672380Y38691905D01*
%TO.C,U5*%
X78868095Y40242620D02*
X78868095Y39433096D01*
X78915714Y39337858D01*
X78963333Y39290239D01*
X79058571Y39242620D01*
X79249047Y39242620D01*
X79344285Y39290239D01*
X79391904Y39337858D01*
X79439523Y39433096D01*
X79439523Y40242620D01*
X80391904Y40242620D02*
X79915714Y40242620D01*
X79868095Y39766429D01*
X79915714Y39814048D01*
X80010952Y39861667D01*
X80249047Y39861667D01*
X80344285Y39814048D01*
X80391904Y39766429D01*
X80439523Y39671191D01*
X80439523Y39433096D01*
X80391904Y39337858D01*
X80344285Y39290239D01*
X80249047Y39242620D01*
X80010952Y39242620D01*
X79915714Y39290239D01*
X79868095Y39337858D01*
%TO.C,C12*%
X37727142Y42142858D02*
X37679523Y42095239D01*
X37536666Y42047620D01*
X37441428Y42047620D01*
X37298571Y42095239D01*
X37203333Y42190477D01*
X37155714Y42285715D01*
X37108095Y42476191D01*
X37108095Y42619048D01*
X37155714Y42809524D01*
X37203333Y42904762D01*
X37298571Y43000000D01*
X37441428Y43047620D01*
X37536666Y43047620D01*
X37679523Y43000000D01*
X37727142Y42952381D01*
X38679523Y42047620D02*
X38108095Y42047620D01*
X38393809Y42047620D02*
X38393809Y43047620D01*
X38298571Y42904762D01*
X38203333Y42809524D01*
X38108095Y42761905D01*
X39060476Y42952381D02*
X39108095Y43000000D01*
X39203333Y43047620D01*
X39441428Y43047620D01*
X39536666Y43000000D01*
X39584285Y42952381D01*
X39631904Y42857143D01*
X39631904Y42761905D01*
X39584285Y42619048D01*
X39012857Y42047620D01*
X39631904Y42047620D01*
%TO.C,Q3*%
X68417619Y19234762D02*
X68370000Y19139524D01*
X68274761Y19044286D01*
X68131904Y18901429D01*
X68084285Y18806191D01*
X68084285Y18710953D01*
X68322380Y18758572D02*
X68274761Y18663334D01*
X68179523Y18568096D01*
X67989047Y18520477D01*
X67655714Y18520477D01*
X67465238Y18568096D01*
X67370000Y18663334D01*
X67322380Y18758572D01*
X67322380Y18949048D01*
X67370000Y19044286D01*
X67465238Y19139524D01*
X67655714Y19187143D01*
X67989047Y19187143D01*
X68179523Y19139524D01*
X68274761Y19044286D01*
X68322380Y18949048D01*
X68322380Y18758572D01*
X67322380Y19520477D02*
X67322380Y20139524D01*
X67703333Y19806191D01*
X67703333Y19949048D01*
X67750952Y20044286D01*
X67798571Y20091905D01*
X67893809Y20139524D01*
X68131904Y20139524D01*
X68227142Y20091905D01*
X68274761Y20044286D01*
X68322380Y19949048D01*
X68322380Y19663334D01*
X68274761Y19568096D01*
X68227142Y19520477D01*
%TO.C,C7*%
X73917142Y45023334D02*
X73964761Y44975715D01*
X74012380Y44832858D01*
X74012380Y44737620D01*
X73964761Y44594762D01*
X73869523Y44499524D01*
X73774285Y44451905D01*
X73583809Y44404286D01*
X73440952Y44404286D01*
X73250476Y44451905D01*
X73155238Y44499524D01*
X73060000Y44594762D01*
X73012380Y44737620D01*
X73012380Y44832858D01*
X73060000Y44975715D01*
X73107619Y45023334D01*
X73012380Y45356667D02*
X73012380Y46023334D01*
X74012380Y45594762D01*
%TO.C,C18*%
X46987142Y31692858D02*
X46939523Y31645239D01*
X46796666Y31597620D01*
X46701428Y31597620D01*
X46558571Y31645239D01*
X46463333Y31740477D01*
X46415714Y31835715D01*
X46368095Y32026191D01*
X46368095Y32169048D01*
X46415714Y32359524D01*
X46463333Y32454762D01*
X46558571Y32550000D01*
X46701428Y32597620D01*
X46796666Y32597620D01*
X46939523Y32550000D01*
X46987142Y32502381D01*
X47939523Y31597620D02*
X47368095Y31597620D01*
X47653809Y31597620D02*
X47653809Y32597620D01*
X47558571Y32454762D01*
X47463333Y32359524D01*
X47368095Y32311905D01*
X48510952Y32169048D02*
X48415714Y32216667D01*
X48368095Y32264286D01*
X48320476Y32359524D01*
X48320476Y32407143D01*
X48368095Y32502381D01*
X48415714Y32550000D01*
X48510952Y32597620D01*
X48701428Y32597620D01*
X48796666Y32550000D01*
X48844285Y32502381D01*
X48891904Y32407143D01*
X48891904Y32359524D01*
X48844285Y32264286D01*
X48796666Y32216667D01*
X48701428Y32169048D01*
X48510952Y32169048D01*
X48415714Y32121429D01*
X48368095Y32073810D01*
X48320476Y31978572D01*
X48320476Y31788096D01*
X48368095Y31692858D01*
X48415714Y31645239D01*
X48510952Y31597620D01*
X48701428Y31597620D01*
X48796666Y31645239D01*
X48844285Y31692858D01*
X48891904Y31788096D01*
X48891904Y31978572D01*
X48844285Y32073810D01*
X48796666Y32121429D01*
X48701428Y32169048D01*
%TO.C,R13*%
X14172380Y36787143D02*
X13696190Y36453810D01*
X14172380Y36215715D02*
X13172380Y36215715D01*
X13172380Y36596667D01*
X13220000Y36691905D01*
X13267619Y36739524D01*
X13362857Y36787143D01*
X13505714Y36787143D01*
X13600952Y36739524D01*
X13648571Y36691905D01*
X13696190Y36596667D01*
X13696190Y36215715D01*
X14172380Y37739524D02*
X14172380Y37168096D01*
X14172380Y37453810D02*
X13172380Y37453810D01*
X13315238Y37358572D01*
X13410476Y37263334D01*
X13458095Y37168096D01*
X13172380Y38072858D02*
X13172380Y38691905D01*
X13553333Y38358572D01*
X13553333Y38501429D01*
X13600952Y38596667D01*
X13648571Y38644286D01*
X13743809Y38691905D01*
X13981904Y38691905D01*
X14077142Y38644286D01*
X14124761Y38596667D01*
X14172380Y38501429D01*
X14172380Y38215715D01*
X14124761Y38120477D01*
X14077142Y38072858D01*
%TO.C,Y2*%
X65858361Y42512239D02*
X66163123Y42512239D01*
X65523123Y42298905D02*
X65858361Y42512239D01*
X65523123Y42725572D01*
X65584076Y42908429D02*
X65553600Y42938905D01*
X65523123Y42999858D01*
X65523123Y43152239D01*
X65553600Y43213191D01*
X65584076Y43243667D01*
X65645028Y43274143D01*
X65705980Y43274143D01*
X65797409Y43243667D01*
X66163123Y42877953D01*
X66163123Y43274143D01*
%TO.C,R17*%
X45792380Y37587143D02*
X45316190Y37253810D01*
X45792380Y37015715D02*
X44792380Y37015715D01*
X44792380Y37396667D01*
X44840000Y37491905D01*
X44887619Y37539524D01*
X44982857Y37587143D01*
X45125714Y37587143D01*
X45220952Y37539524D01*
X45268571Y37491905D01*
X45316190Y37396667D01*
X45316190Y37015715D01*
X45792380Y38539524D02*
X45792380Y37968096D01*
X45792380Y38253810D02*
X44792380Y38253810D01*
X44935238Y38158572D01*
X45030476Y38063334D01*
X45078095Y37968096D01*
X44792380Y38872858D02*
X44792380Y39539524D01*
X45792380Y39110953D01*
%TO.C,R14*%
X59787142Y8097620D02*
X59453809Y8573810D01*
X59215714Y8097620D02*
X59215714Y9097620D01*
X59596666Y9097620D01*
X59691904Y9050000D01*
X59739523Y9002381D01*
X59787142Y8907143D01*
X59787142Y8764286D01*
X59739523Y8669048D01*
X59691904Y8621429D01*
X59596666Y8573810D01*
X59215714Y8573810D01*
X60739523Y8097620D02*
X60168095Y8097620D01*
X60453809Y8097620D02*
X60453809Y9097620D01*
X60358571Y8954762D01*
X60263333Y8859524D01*
X60168095Y8811905D01*
X61596666Y8764286D02*
X61596666Y8097620D01*
X61358571Y9145239D02*
X61120476Y8430953D01*
X61739523Y8430953D01*
%TO.C,Q2*%
X12767619Y45234762D02*
X12720000Y45139524D01*
X12624761Y45044286D01*
X12481904Y44901429D01*
X12434285Y44806191D01*
X12434285Y44710953D01*
X12672380Y44758572D02*
X12624761Y44663334D01*
X12529523Y44568096D01*
X12339047Y44520477D01*
X12005714Y44520477D01*
X11815238Y44568096D01*
X11720000Y44663334D01*
X11672380Y44758572D01*
X11672380Y44949048D01*
X11720000Y45044286D01*
X11815238Y45139524D01*
X12005714Y45187143D01*
X12339047Y45187143D01*
X12529523Y45139524D01*
X12624761Y45044286D01*
X12672380Y44949048D01*
X12672380Y44758572D01*
X11767619Y45568096D02*
X11720000Y45615715D01*
X11672380Y45710953D01*
X11672380Y45949048D01*
X11720000Y46044286D01*
X11767619Y46091905D01*
X11862857Y46139524D01*
X11958095Y46139524D01*
X12100952Y46091905D01*
X12672380Y45520477D01*
X12672380Y46139524D01*
%TO.C,R19*%
X50762380Y18637143D02*
X50286190Y18303810D01*
X50762380Y18065715D02*
X49762380Y18065715D01*
X49762380Y18446667D01*
X49810000Y18541905D01*
X49857619Y18589524D01*
X49952857Y18637143D01*
X50095714Y18637143D01*
X50190952Y18589524D01*
X50238571Y18541905D01*
X50286190Y18446667D01*
X50286190Y18065715D01*
X50762380Y19589524D02*
X50762380Y19018096D01*
X50762380Y19303810D02*
X49762380Y19303810D01*
X49905238Y19208572D01*
X50000476Y19113334D01*
X50048095Y19018096D01*
X50762380Y20065715D02*
X50762380Y20256191D01*
X50714761Y20351429D01*
X50667142Y20399048D01*
X50524285Y20494286D01*
X50333809Y20541905D01*
X49952857Y20541905D01*
X49857619Y20494286D01*
X49810000Y20446667D01*
X49762380Y20351429D01*
X49762380Y20160953D01*
X49810000Y20065715D01*
X49857619Y20018096D01*
X49952857Y19970477D01*
X50190952Y19970477D01*
X50286190Y20018096D01*
X50333809Y20065715D01*
X50381428Y20160953D01*
X50381428Y20351429D01*
X50333809Y20446667D01*
X50286190Y20494286D01*
X50190952Y20541905D01*
%TO.C,C11*%
X49787142Y44492858D02*
X49739523Y44445239D01*
X49596666Y44397620D01*
X49501428Y44397620D01*
X49358571Y44445239D01*
X49263333Y44540477D01*
X49215714Y44635715D01*
X49168095Y44826191D01*
X49168095Y44969048D01*
X49215714Y45159524D01*
X49263333Y45254762D01*
X49358571Y45350000D01*
X49501428Y45397620D01*
X49596666Y45397620D01*
X49739523Y45350000D01*
X49787142Y45302381D01*
X50739523Y44397620D02*
X50168095Y44397620D01*
X50453809Y44397620D02*
X50453809Y45397620D01*
X50358571Y45254762D01*
X50263333Y45159524D01*
X50168095Y45111905D01*
X51691904Y44397620D02*
X51120476Y44397620D01*
X51406190Y44397620D02*
X51406190Y45397620D01*
X51310952Y45254762D01*
X51215714Y45159524D01*
X51120476Y45111905D01*
%TO.C,R18*%
X50977142Y25467620D02*
X50643809Y25943810D01*
X50405714Y25467620D02*
X50405714Y26467620D01*
X50786666Y26467620D01*
X50881904Y26420000D01*
X50929523Y26372381D01*
X50977142Y26277143D01*
X50977142Y26134286D01*
X50929523Y26039048D01*
X50881904Y25991429D01*
X50786666Y25943810D01*
X50405714Y25943810D01*
X51929523Y25467620D02*
X51358095Y25467620D01*
X51643809Y25467620D02*
X51643809Y26467620D01*
X51548571Y26324762D01*
X51453333Y26229524D01*
X51358095Y26181905D01*
X52500952Y26039048D02*
X52405714Y26086667D01*
X52358095Y26134286D01*
X52310476Y26229524D01*
X52310476Y26277143D01*
X52358095Y26372381D01*
X52405714Y26420000D01*
X52500952Y26467620D01*
X52691428Y26467620D01*
X52786666Y26420000D01*
X52834285Y26372381D01*
X52881904Y26277143D01*
X52881904Y26229524D01*
X52834285Y26134286D01*
X52786666Y26086667D01*
X52691428Y26039048D01*
X52500952Y26039048D01*
X52405714Y25991429D01*
X52358095Y25943810D01*
X52310476Y25848572D01*
X52310476Y25658096D01*
X52358095Y25562858D01*
X52405714Y25515239D01*
X52500952Y25467620D01*
X52691428Y25467620D01*
X52786666Y25515239D01*
X52834285Y25562858D01*
X52881904Y25658096D01*
X52881904Y25848572D01*
X52834285Y25943810D01*
X52786666Y25991429D01*
X52691428Y26039048D01*
%TO.C,TP1*%
X52548095Y32015620D02*
X53119523Y32015620D01*
X52833809Y31015620D02*
X52833809Y32015620D01*
X53452857Y31015620D02*
X53452857Y32015620D01*
X53833809Y32015620D01*
X53929047Y31968000D01*
X53976666Y31920381D01*
X54024285Y31825143D01*
X54024285Y31682286D01*
X53976666Y31587048D01*
X53929047Y31539429D01*
X53833809Y31491810D01*
X53452857Y31491810D01*
X54976666Y31015620D02*
X54405238Y31015620D01*
X54690952Y31015620D02*
X54690952Y32015620D01*
X54595714Y31872762D01*
X54500476Y31777524D01*
X54405238Y31729905D01*
D11*
%TO.C,S1*%
X-497620Y45765953D02*
X-316191Y45705477D01*
X-13810Y45705477D01*
X107142Y45765953D01*
X167619Y45826429D01*
X228095Y45947381D01*
X228095Y46068334D01*
X167619Y46189286D01*
X107142Y46249762D01*
X-13810Y46310239D01*
X-255715Y46370715D01*
X-376667Y46431191D01*
X-437143Y46491667D01*
X-497620Y46612620D01*
X-497620Y46733572D01*
X-437143Y46854524D01*
X-376667Y46915000D01*
X-255715Y46975477D01*
X46666Y46975477D01*
X228095Y46915000D01*
X1437619Y45705477D02*
X711904Y45705477D01*
X1074761Y45705477D02*
X1074761Y46975477D01*
X953809Y46794048D01*
X832857Y46673096D01*
X711904Y46612620D01*
D10*
%TO.C,C15*%
X18727142Y47887143D02*
X18774761Y47839524D01*
X18822380Y47696667D01*
X18822380Y47601429D01*
X18774761Y47458572D01*
X18679523Y47363334D01*
X18584285Y47315715D01*
X18393809Y47268096D01*
X18250952Y47268096D01*
X18060476Y47315715D01*
X17965238Y47363334D01*
X17870000Y47458572D01*
X17822380Y47601429D01*
X17822380Y47696667D01*
X17870000Y47839524D01*
X17917619Y47887143D01*
X18822380Y48839524D02*
X18822380Y48268096D01*
X18822380Y48553810D02*
X17822380Y48553810D01*
X17965238Y48458572D01*
X18060476Y48363334D01*
X18108095Y48268096D01*
X17822380Y49744286D02*
X17822380Y49268096D01*
X18298571Y49220477D01*
X18250952Y49268096D01*
X18203333Y49363334D01*
X18203333Y49601429D01*
X18250952Y49696667D01*
X18298571Y49744286D01*
X18393809Y49791905D01*
X18631904Y49791905D01*
X18727142Y49744286D01*
X18774761Y49696667D01*
X18822380Y49601429D01*
X18822380Y49363334D01*
X18774761Y49268096D01*
X18727142Y49220477D01*
D12*
%TO.C,C10*%
X74795000Y9948748D02*
X74795000Y10471252D01*
X76265000Y9948748D02*
X76265000Y10471252D01*
%TO.C,C9*%
X70571252Y14775000D02*
X70048748Y14775000D01*
X70571252Y16245000D02*
X70048748Y16245000D01*
%TO.C,R6*%
X69982936Y1815000D02*
X70437064Y1815000D01*
X69982936Y345000D02*
X70437064Y345000D01*
%TO.C,D2*%
X68575000Y5360000D02*
X68575000Y3440000D01*
X71260000Y5360000D02*
X68575000Y5360000D01*
X68575000Y3440000D02*
X71260000Y3440000D01*
D13*
%TO.C,U3*%
X41270000Y46612500D02*
X43770000Y46612500D01*
X41270000Y43972500D02*
X43770000Y43972500D01*
D14*
X40320000Y46592500D02*
G75*
G03*
X40320000Y46592500I-100000J0D01*
G01*
D13*
%TO.C,J4*%
X-3955000Y41980000D02*
X-4255000Y41980000D01*
X-1755000Y34380000D02*
X-1355000Y34380000D01*
X-1355000Y41980000D02*
X-1755000Y41980000D01*
X-4305000Y41980000D02*
X-4305000Y34380000D01*
X-3955000Y34380000D02*
X-4255000Y34380000D01*
D14*
X745000Y40180000D02*
G75*
G03*
X745000Y40180000I-100000J0D01*
G01*
D15*
%TO.C,U4*%
X40246270Y24422240D02*
G75*
G03*
X40246270Y24422240I-127000J0D01*
G01*
D12*
%TO.C,C3*%
X7101248Y2025000D02*
X7623752Y2025000D01*
X7101248Y555000D02*
X7623752Y555000D01*
%TO.C,R7*%
X74147064Y28475000D02*
X73692936Y28475000D01*
X74147064Y27005000D02*
X73692936Y27005000D01*
%TO.C,R9*%
X7855000Y16762936D02*
X7855000Y17217064D01*
X9325000Y16762936D02*
X9325000Y17217064D01*
%TO.C,C4*%
X34315000Y4051252D02*
X34315000Y3528748D01*
X32845000Y4051252D02*
X32845000Y3528748D01*
%TO.C,C6*%
X35845000Y4051252D02*
X35845000Y3528748D01*
X37315000Y4051252D02*
X37315000Y3528748D01*
%TO.C,R2*%
X48042936Y12135000D02*
X48497064Y12135000D01*
X48042936Y10665000D02*
X48497064Y10665000D01*
%TO.C,R1*%
X7135436Y3635000D02*
X7589564Y3635000D01*
X7135436Y5105000D02*
X7589564Y5105000D01*
%TO.C,R3*%
X47952936Y15485000D02*
X48407064Y15485000D01*
X47952936Y14015000D02*
X48407064Y14015000D01*
D13*
%TO.C,Y1*%
X51407500Y13947500D02*
X51407500Y13187500D01*
X52907500Y13947500D02*
X52907500Y13187500D01*
D12*
%TO.C,C2*%
X56618752Y16007500D02*
X56096248Y16007500D01*
X56618752Y14537500D02*
X56096248Y14537500D01*
%TO.C,R5*%
X82135000Y24847064D02*
X82135000Y24392936D01*
X83605000Y24847064D02*
X83605000Y24392936D01*
%TO.C,C1*%
X56618752Y11207500D02*
X56096248Y11207500D01*
X56618752Y12677500D02*
X56096248Y12677500D01*
%TO.C,U2*%
X30730000Y22550000D02*
X29430000Y22550000D01*
X12580000Y22700000D02*
X13580000Y22700000D01*
X12580000Y21800000D02*
X12580000Y22700000D01*
X30880000Y22700000D02*
X29880000Y22700000D01*
X12580000Y3200000D02*
X13580000Y3200000D01*
X12730000Y3350000D02*
X12730000Y3850000D01*
X30930000Y3200000D02*
X29830000Y3200000D01*
X12730000Y21800000D02*
X12730000Y22550000D01*
X30730000Y3350000D02*
X30730000Y3850000D01*
X12730000Y22550000D02*
X14080000Y22550000D01*
X12730000Y3350000D02*
X30730000Y3350000D01*
X30880000Y22700000D02*
X30880000Y21700000D01*
X12580000Y3850000D02*
X12580000Y3200000D01*
X30730000Y21700000D02*
X30730000Y22550000D01*
%TO.C,R4*%
X40832936Y16835000D02*
X41287064Y16835000D01*
X40832936Y18305000D02*
X41287064Y18305000D01*
%TO.C,C5*%
X8585000Y42188748D02*
X8585000Y42711252D01*
X10055000Y42188748D02*
X10055000Y42711252D01*
%TO.C,F1*%
X5660000Y42582064D02*
X5660000Y41377936D01*
X7480000Y42582064D02*
X7480000Y41377936D01*
%TO.C,U1*%
X68700000Y11110000D02*
X68700000Y9310000D01*
X71920000Y9310000D02*
X71920000Y11760000D01*
%TO.C,J2*%
X39960000Y19360000D02*
X39960000Y22160000D01*
X41960000Y22160000D02*
X41960000Y19360000D01*
X39960000Y22160000D02*
X41960000Y22160000D01*
X41960000Y19360000D02*
X39960000Y19360000D01*
%TO.C,C17*%
X7185000Y46508748D02*
X7185000Y47031252D01*
X5715000Y46508748D02*
X5715000Y47031252D01*
%TO.C,C14*%
X81365000Y47521252D02*
X81365000Y46998748D01*
X79895000Y47521252D02*
X79895000Y46998748D01*
%TO.C,C8*%
X76675000Y47521252D02*
X76675000Y46998748D01*
X78145000Y47521252D02*
X78145000Y46998748D01*
%TO.C,U8*%
X21670000Y30390000D02*
X18220000Y30390000D01*
X21670000Y30390000D02*
X23620000Y30390000D01*
X21670000Y25270000D02*
X23620000Y25270000D01*
X21670000Y25270000D02*
X19720000Y25270000D01*
%TO.C,R8*%
X84325000Y43202936D02*
X84325000Y43657064D01*
X85795000Y43202936D02*
X85795000Y43657064D01*
%TO.C,R16*%
X48695000Y37932936D02*
X48695000Y38387064D01*
X50165000Y37932936D02*
X50165000Y38387064D01*
%TO.C,C19*%
X63518748Y16255000D02*
X64041252Y16255000D01*
X63518748Y14785000D02*
X64041252Y14785000D01*
%TO.C,R10*%
X63979064Y12227000D02*
X63524936Y12227000D01*
X63979064Y10757000D02*
X63524936Y10757000D01*
%TO.C,R15*%
X35245000Y32947064D02*
X35245000Y32492936D01*
X36715000Y32947064D02*
X36715000Y32492936D01*
%TO.C,C16*%
X32615000Y32941252D02*
X32615000Y32418748D01*
X34085000Y32941252D02*
X34085000Y32418748D01*
%TO.C,C13*%
X72615000Y40138748D02*
X72615000Y40661252D01*
X71145000Y40138748D02*
X71145000Y40661252D01*
%TO.C,R11*%
X20185000Y45507064D02*
X20185000Y45052936D01*
X21655000Y45507064D02*
X21655000Y45052936D01*
%TO.C,R12*%
X15485000Y40894564D02*
X15485000Y40440436D01*
X16955000Y40894564D02*
X16955000Y40440436D01*
%TO.C,U5*%
X78070000Y40590000D02*
X76570000Y40590000D01*
X78070000Y43810000D02*
X75145000Y43810000D01*
X78070000Y40590000D02*
X79570000Y40590000D01*
X78070000Y43810000D02*
X79570000Y43810000D01*
%TO.C,C12*%
X38631252Y43445000D02*
X38108748Y43445000D01*
X38631252Y44915000D02*
X38108748Y44915000D01*
%TO.C,Q3*%
X71830000Y19330000D02*
X71830000Y19980000D01*
X68710000Y19330000D02*
X68710000Y17655000D01*
X71830000Y19330000D02*
X71830000Y18680000D01*
X68710000Y19330000D02*
X68710000Y19980000D01*
%TO.C,C7*%
X71135000Y45311252D02*
X71135000Y44788748D01*
X72605000Y45311252D02*
X72605000Y44788748D01*
%TO.C,C18*%
X44821252Y31175000D02*
X44298748Y31175000D01*
X44821252Y32645000D02*
X44298748Y32645000D01*
%TO.C,R13*%
X12935000Y40440436D02*
X12935000Y40894564D01*
X14405000Y40440436D02*
X14405000Y40894564D01*
D13*
%TO.C,Y2*%
X68480000Y42455000D02*
X68480000Y43215000D01*
X66980000Y42455000D02*
X66980000Y43215000D01*
D12*
%TO.C,R17*%
X47715000Y37982936D02*
X47715000Y38437064D01*
X46245000Y37982936D02*
X46245000Y38437064D01*
%TO.C,R14*%
X63504936Y7775000D02*
X63959064Y7775000D01*
X63504936Y9245000D02*
X63959064Y9245000D01*
%TO.C,Q2*%
X16180000Y45330000D02*
X16180000Y45980000D01*
X16180000Y45330000D02*
X16180000Y44680000D01*
X13060000Y45330000D02*
X13060000Y43655000D01*
X13060000Y45330000D02*
X13060000Y45980000D01*
%TO.C,R19*%
X52985000Y18922936D02*
X52985000Y19377064D01*
X51515000Y18922936D02*
X51515000Y19377064D01*
%TO.C,C11*%
X50168748Y42435000D02*
X50691252Y42435000D01*
X50168748Y43905000D02*
X50691252Y43905000D01*
%TO.C,R18*%
X51837064Y28435000D02*
X51382936Y28435000D01*
X51837064Y26965000D02*
X51382936Y26965000D01*
%TO.C,TP1*%
X54510000Y30020000D02*
G75*
G03*
X54510000Y30020000I-700000J0D01*
G01*
D16*
%TO.C,S1*%
X2820000Y48880000D02*
X-2380000Y48880000D01*
X2820000Y43880000D02*
X2820000Y43680000D01*
X-2380000Y48880000D02*
X-2380000Y48680000D01*
X-2380000Y43680000D02*
X-2380000Y43880000D01*
X2820000Y43680000D02*
X-2380000Y43680000D01*
X-2380000Y47580000D02*
X-2380000Y44980000D01*
X2820000Y47580000D02*
X2820000Y44980000D01*
X2820000Y48680000D02*
X2820000Y48880000D01*
D14*
X4220000Y44380000D02*
X4220000Y44380000D01*
X4020000Y44380000D02*
X4020000Y44380000D01*
X4220000Y44380000D02*
G75*
G03*
X4020000Y44380000I-100000J0D01*
G01*
X4020000Y44380000D02*
G75*
G03*
X4220000Y44380000I100000J0D01*
G01*
D12*
%TO.C,C15*%
X17535000Y45541252D02*
X17535000Y45018748D01*
X19005000Y45541252D02*
X19005000Y45018748D01*
%TD*%
%LPC*%
D17*
%TO.C,C10*%
X75530000Y9260000D03*
X75530000Y11160000D03*
%TD*%
D18*
%TO.C,C9*%
X71260000Y15510000D03*
X69360000Y15510000D03*
%TD*%
D19*
%TO.C,H2*%
X20000Y-30000D03*
%TD*%
%TO.C,H3*%
X85020000Y54970000D03*
%TD*%
D20*
%TO.C,R6*%
X69297500Y1080000D03*
X71122500Y1080000D03*
%TD*%
D21*
%TO.C,D2*%
X69322500Y4400000D03*
X71197500Y4400000D03*
%TD*%
D22*
%TO.C,U3*%
X41275000Y45942500D03*
X41275000Y45292500D03*
X41275000Y44642500D03*
X43765000Y44642500D03*
X43765000Y45292500D03*
X43765000Y45942500D03*
D23*
X42520000Y45292500D03*
%TD*%
D19*
%TO.C,H4*%
X85020000Y-30000D03*
%TD*%
%TO.C,H1*%
X20000Y54970000D03*
%TD*%
D24*
%TO.C,J4*%
X-2855000Y34880000D03*
X-2855000Y41480000D03*
D25*
X-180000Y39480000D03*
X-180000Y38830000D03*
X-180000Y38180000D03*
X-180000Y37530000D03*
X-180000Y36880000D03*
D26*
X-405000Y41380000D03*
X-405000Y34980000D03*
D27*
X-2855000Y36980000D03*
X-2855000Y39380000D03*
D28*
X-2855000Y41480000D03*
X-2855000Y34880000D03*
%TD*%
D29*
%TO.C,U4*%
X41084472Y24955640D03*
D30*
X41465472Y25031840D03*
D31*
X41871872Y24955640D03*
X42278272Y24955640D03*
X42684672Y24955640D03*
D29*
X43065672Y24955640D03*
D32*
X43472070Y25387444D03*
D33*
X43421270Y25768444D03*
X43421270Y26174844D03*
X43421270Y26581244D03*
X43421270Y26987644D03*
D32*
X43472070Y27368644D03*
D29*
X43065672Y27800440D03*
D31*
X42684672Y27800440D03*
X42278272Y27800440D03*
X41871872Y27800440D03*
X41465472Y27800440D03*
D29*
X41084472Y27800440D03*
D32*
X40678070Y27368644D03*
D33*
X40728870Y26987644D03*
X40728870Y26581244D03*
X40728870Y26174844D03*
X40728870Y25768444D03*
D32*
X40678070Y25387444D03*
%TD*%
D34*
%TO.C,C3*%
X6412500Y1290000D03*
X8312500Y1290000D03*
%TD*%
D35*
%TO.C,R7*%
X74832500Y27740000D03*
X73007500Y27740000D03*
%TD*%
D36*
%TO.C,R9*%
X8590000Y16077500D03*
X8590000Y17902500D03*
%TD*%
D37*
%TO.C,C4*%
X33580000Y4740000D03*
X33580000Y2840000D03*
%TD*%
%TO.C,C6*%
X36580000Y4740000D03*
X36580000Y2840000D03*
%TD*%
D20*
%TO.C,R2*%
X47357500Y11400000D03*
X49182500Y11400000D03*
%TD*%
%TO.C,R1*%
X6450000Y4370000D03*
X8275000Y4370000D03*
%TD*%
%TO.C,R3*%
X47267500Y14750000D03*
X49092500Y14750000D03*
%TD*%
D38*
%TO.C,Y1*%
X52157500Y14817500D03*
X52157500Y12317500D03*
%TD*%
D18*
%TO.C,C2*%
X57307500Y15272500D03*
X55407500Y15272500D03*
%TD*%
D39*
%TO.C,R5*%
X82870000Y25532500D03*
X82870000Y23707500D03*
%TD*%
D18*
%TO.C,C1*%
X57307500Y11942500D03*
X55407500Y11942500D03*
%TD*%
D40*
%TO.C,U2*%
X30480000Y4540000D03*
X30480000Y5810000D03*
X30480000Y7080000D03*
X30480000Y8350000D03*
X30480000Y9620000D03*
X30480000Y10890000D03*
X30480000Y12160000D03*
X30480000Y13430000D03*
X30480000Y14700000D03*
X30480000Y15970000D03*
X30480000Y17240000D03*
X30480000Y18510000D03*
X30480000Y19780000D03*
X30480000Y21050000D03*
D41*
X28715000Y22300000D03*
X27445000Y22300000D03*
X26175000Y22300000D03*
X24905000Y22300000D03*
X23635000Y22300000D03*
X22365000Y22300000D03*
X21095000Y22300000D03*
X19825000Y22300000D03*
X18555000Y22300000D03*
X17285000Y22300000D03*
X16015000Y22300000D03*
X14745000Y22300000D03*
D40*
X12980000Y21050000D03*
X12980000Y19780000D03*
X12980000Y18510000D03*
X12980000Y17240000D03*
X12980000Y15970000D03*
X12980000Y14700000D03*
X12980000Y13430000D03*
X12980000Y12160000D03*
X12980000Y10890000D03*
X12980000Y9620000D03*
X12980000Y8350000D03*
X12980000Y7080000D03*
X12980000Y5810000D03*
X12980000Y4540000D03*
D42*
X23230000Y12260000D03*
X23230000Y13660000D03*
X21830000Y13660000D03*
X21830000Y10860000D03*
X23230000Y10860000D03*
X24630000Y12260000D03*
X24630000Y13660000D03*
X21830000Y12260000D03*
X24630000Y10860000D03*
%TD*%
D20*
%TO.C,R4*%
X40147500Y17570000D03*
X41972500Y17570000D03*
%TD*%
D17*
%TO.C,C5*%
X9320000Y41500000D03*
X9320000Y43400000D03*
%TD*%
D43*
%TO.C,F1*%
X6570000Y43380000D03*
X6570000Y40580000D03*
%TD*%
D44*
%TO.C,U1*%
X71260000Y11560000D03*
X70310000Y11560000D03*
X69360000Y11560000D03*
X69360000Y8860000D03*
X71260000Y8860000D03*
%TD*%
D45*
%TO.C,J2*%
X40960000Y21410000D03*
X40960000Y20110000D03*
%TD*%
D17*
%TO.C,C17*%
X6450000Y45820000D03*
X6450000Y47720000D03*
%TD*%
D37*
%TO.C,C14*%
X80630000Y48210000D03*
X80630000Y46310000D03*
%TD*%
%TO.C,C8*%
X77410000Y48210000D03*
X77410000Y46310000D03*
%TD*%
D46*
%TO.C,U8*%
X19195000Y29735000D03*
X19195000Y28465000D03*
X19195000Y27195000D03*
X19195000Y25925000D03*
X24145000Y25925000D03*
X24145000Y27195000D03*
X24145000Y28465000D03*
X24145000Y29735000D03*
%TD*%
D36*
%TO.C,R8*%
X85060000Y42517500D03*
X85060000Y44342500D03*
%TD*%
%TO.C,R16*%
X49430000Y37247500D03*
X49430000Y39072500D03*
%TD*%
D34*
%TO.C,C19*%
X62830000Y15520000D03*
X64730000Y15520000D03*
%TD*%
D35*
%TO.C,R10*%
X64664500Y11492000D03*
X62839500Y11492000D03*
%TD*%
D39*
%TO.C,R15*%
X35980000Y33632500D03*
X35980000Y31807500D03*
%TD*%
D37*
%TO.C,C16*%
X33350000Y33630000D03*
X33350000Y31730000D03*
%TD*%
D17*
%TO.C,C13*%
X71880000Y39450000D03*
X71880000Y41350000D03*
%TD*%
D39*
%TO.C,R11*%
X20920000Y46192500D03*
X20920000Y44367500D03*
%TD*%
D47*
%TO.C,U9*%
X57302000Y26990000D03*
X57302000Y26590000D03*
X57302000Y26190000D03*
X57302000Y25790000D03*
X57302000Y25390000D03*
X58838000Y25390000D03*
X58838000Y25790000D03*
X58838000Y26190000D03*
X58838000Y26590000D03*
X58838000Y26990000D03*
%TD*%
D39*
%TO.C,R12*%
X16220000Y41580000D03*
X16220000Y39755000D03*
%TD*%
D48*
%TO.C,U5*%
X75957500Y43175000D03*
X75957500Y42525000D03*
X75957500Y41875000D03*
X75957500Y41225000D03*
X80182500Y41225000D03*
X80182500Y41875000D03*
X80182500Y42525000D03*
X80182500Y43175000D03*
%TD*%
D18*
%TO.C,C12*%
X39320000Y44180000D03*
X37420000Y44180000D03*
%TD*%
D49*
%TO.C,Q3*%
X69320000Y18392500D03*
X71220000Y18392500D03*
X70270000Y20267500D03*
%TD*%
D37*
%TO.C,C7*%
X71870000Y46000000D03*
X71870000Y44100000D03*
%TD*%
D18*
%TO.C,C18*%
X45510000Y31910000D03*
X43610000Y31910000D03*
%TD*%
D36*
%TO.C,R13*%
X13670000Y39755000D03*
X13670000Y41580000D03*
%TD*%
D38*
%TO.C,Y2*%
X67730000Y41585000D03*
X67730000Y44085000D03*
%TD*%
D36*
%TO.C,R17*%
X46980000Y37297500D03*
X46980000Y39122500D03*
%TD*%
D20*
%TO.C,R14*%
X62819500Y8510000D03*
X64644500Y8510000D03*
%TD*%
D49*
%TO.C,Q2*%
X13670000Y44392500D03*
X15570000Y44392500D03*
X14620000Y46267500D03*
%TD*%
D36*
%TO.C,R19*%
X52250000Y18237500D03*
X52250000Y20062500D03*
%TD*%
D34*
%TO.C,C11*%
X49480000Y43170000D03*
X51380000Y43170000D03*
%TD*%
D35*
%TO.C,R18*%
X52522500Y27700000D03*
X50697500Y27700000D03*
%TD*%
D50*
%TO.C,TP1*%
X53810000Y30020000D03*
%TD*%
D51*
%TO.C,S1*%
X3220000Y44430000D03*
X-2780000Y44430000D03*
X3220000Y48130000D03*
X-2780000Y48130000D03*
%TD*%
D37*
%TO.C,C15*%
X18270000Y46230000D03*
X18270000Y44330000D03*
%TD*%
D52*
%TO.C,J1*%
X68525000Y22900000D03*
X68525000Y35600000D03*
D53*
X42105000Y35600000D03*
X42105000Y5750000D03*
%TD*%
D54*
%TO.C,J3*%
X2273333Y21250000D03*
D55*
X2273333Y18710000D03*
X2273333Y16170000D03*
X2273333Y13630000D03*
X2273333Y11090000D03*
X2273333Y8550000D03*
%TD*%
D54*
%TO.C,J5*%
X78810000Y27650000D03*
D55*
X78810000Y25110000D03*
X78810000Y22570000D03*
X78810000Y20030000D03*
%TD*%
M02*
