G04 #@! TF.GenerationSoftware,KiCad,Pcbnew,6.0.11-2627ca5db0~126~ubuntu20.04.1*
G04 #@! TF.CreationDate,2023-04-04T17:10:52-04:00*
G04 #@! TF.ProjectId,water_meter,77617465-725f-46d6-9574-65722e6b6963,rev?*
G04 #@! TF.SameCoordinates,Original*
G04 #@! TF.FileFunction,Paste,Top*
G04 #@! TF.FilePolarity,Positive*
%FSLAX46Y46*%
G04 Gerber Fmt 4.6, Leading zero omitted, Abs format (unit mm)*
G04 Created by KiCad (PCBNEW 6.0.11-2627ca5db0~126~ubuntu20.04.1) date 2023-04-04 17:10:52*
%MOMM*%
%LPD*%
G01*
G04 APERTURE LIST*
G04 Aperture macros list*
%AMRoundRect*
0 Rectangle with rounded corners*
0 $1 Rounding radius*
0 $2 $3 $4 $5 $6 $7 $8 $9 X,Y pos of 4 corners*
0 Add a 4 corners polygon primitive as box body*
4,1,4,$2,$3,$4,$5,$6,$7,$8,$9,$2,$3,0*
0 Add four circle primitives for the rounded corners*
1,1,$1+$1,$2,$3*
1,1,$1+$1,$4,$5*
1,1,$1+$1,$6,$7*
1,1,$1+$1,$8,$9*
0 Add four rect primitives between the rounded corners*
20,1,$1+$1,$2,$3,$4,$5,0*
20,1,$1+$1,$4,$5,$6,$7,0*
20,1,$1+$1,$6,$7,$8,$9,0*
20,1,$1+$1,$8,$9,$2,$3,0*%
G04 Aperture macros list end*
%ADD10C,0.010000*%
%ADD11RoundRect,0.150000X-0.150000X0.825000X-0.150000X-0.825000X0.150000X-0.825000X0.150000X0.825000X0*%
%ADD12R,1.500000X0.900000*%
%ADD13R,0.900000X1.500000*%
%ADD14R,0.900000X0.900000*%
%ADD15RoundRect,0.020500X-0.719500X-0.184500X0.719500X-0.184500X0.719500X0.184500X-0.719500X0.184500X0*%
%ADD16RoundRect,0.250000X-0.625000X0.375000X-0.625000X-0.375000X0.625000X-0.375000X0.625000X0.375000X0*%
%ADD17RoundRect,0.243750X-0.243750X-0.456250X0.243750X-0.456250X0.243750X0.456250X-0.243750X0.456250X0*%
%ADD18R,1.900000X1.100000*%
%ADD19RoundRect,0.250000X-0.262500X-0.450000X0.262500X-0.450000X0.262500X0.450000X-0.262500X0.450000X0*%
%ADD20RoundRect,0.250000X0.262500X0.450000X-0.262500X0.450000X-0.262500X-0.450000X0.262500X-0.450000X0*%
%ADD21RoundRect,0.250000X0.450000X-0.262500X0.450000X0.262500X-0.450000X0.262500X-0.450000X-0.262500X0*%
%ADD22RoundRect,0.250000X-0.450000X0.262500X-0.450000X-0.262500X0.450000X-0.262500X0.450000X0.262500X0*%
%ADD23RoundRect,0.250000X-0.475000X0.250000X-0.475000X-0.250000X0.475000X-0.250000X0.475000X0.250000X0*%
%ADD24RoundRect,0.250000X0.475000X-0.250000X0.475000X0.250000X-0.475000X0.250000X-0.475000X-0.250000X0*%
%ADD25RoundRect,0.250000X0.159099X-0.512652X0.512652X-0.159099X-0.159099X0.512652X-0.512652X0.159099X0*%
%ADD26RoundRect,0.250000X0.250000X0.475000X-0.250000X0.475000X-0.250000X-0.475000X0.250000X-0.475000X0*%
%ADD27RoundRect,0.250000X-0.250000X-0.475000X0.250000X-0.475000X0.250000X0.475000X-0.250000X0.475000X0*%
%ADD28R,1.000000X0.600000*%
%ADD29RoundRect,0.150000X-0.587500X-0.150000X0.587500X-0.150000X0.587500X0.150000X-0.587500X0.150000X0*%
%ADD30RoundRect,0.012800X0.357200X0.147200X-0.357200X0.147200X-0.357200X-0.147200X0.357200X-0.147200X0*%
%ADD31R,1.350000X0.400000*%
%ADD32R,1.400000X1.600000*%
%ADD33R,1.900000X1.900000*%
%ADD34R,0.650000X1.560000*%
%ADD35RoundRect,0.150000X0.587500X0.150000X-0.587500X0.150000X-0.587500X-0.150000X0.587500X-0.150000X0*%
%ADD36RoundRect,0.100000X0.712500X0.100000X-0.712500X0.100000X-0.712500X-0.100000X0.712500X-0.100000X0*%
G04 APERTURE END LIST*
G36*
X157760000Y-98870000D02*
G01*
X156940000Y-98870000D01*
X156940000Y-97610000D01*
X157760000Y-97610000D01*
X157760000Y-98870000D01*
G37*
D10*
X157760000Y-98870000D02*
X156940000Y-98870000D01*
X156940000Y-97610000D01*
X157760000Y-97610000D01*
X157760000Y-98870000D01*
D11*
X132905000Y-96025000D03*
X131635000Y-96025000D03*
X130365000Y-96025000D03*
X129095000Y-96025000D03*
X129095000Y-100975000D03*
X130365000Y-100975000D03*
X131635000Y-100975000D03*
X132905000Y-100975000D03*
D12*
X145310000Y-138590000D03*
X145310000Y-137320000D03*
X145310000Y-136050000D03*
X145310000Y-134780000D03*
X145310000Y-133510000D03*
X145310000Y-132240000D03*
X145310000Y-130970000D03*
X145310000Y-129700000D03*
X145310000Y-128430000D03*
X145310000Y-127160000D03*
X145310000Y-125890000D03*
X145310000Y-124620000D03*
X145310000Y-123350000D03*
X145310000Y-122080000D03*
D13*
X143545000Y-120830000D03*
X142275000Y-120830000D03*
X141005000Y-120830000D03*
X139735000Y-120830000D03*
X138465000Y-120830000D03*
X137195000Y-120830000D03*
X135925000Y-120830000D03*
X134655000Y-120830000D03*
X133385000Y-120830000D03*
X132115000Y-120830000D03*
X130845000Y-120830000D03*
X129575000Y-120830000D03*
D12*
X127810000Y-122080000D03*
X127810000Y-123350000D03*
X127810000Y-124620000D03*
X127810000Y-125890000D03*
X127810000Y-127160000D03*
X127810000Y-128430000D03*
X127810000Y-129700000D03*
X127810000Y-130970000D03*
X127810000Y-132240000D03*
X127810000Y-133510000D03*
X127810000Y-134780000D03*
X127810000Y-136050000D03*
X127810000Y-137320000D03*
X127810000Y-138590000D03*
D14*
X139460000Y-130870000D03*
X138060000Y-129470000D03*
X138060000Y-132270000D03*
X139460000Y-132270000D03*
X136660000Y-129470000D03*
X136660000Y-130870000D03*
X136660000Y-132270000D03*
X139460000Y-129470000D03*
X138060000Y-130870000D03*
D15*
X168685000Y-115225000D03*
X168685000Y-115875000D03*
X168685000Y-116525000D03*
X168685000Y-117175000D03*
X168685000Y-117825000D03*
X168685000Y-118475000D03*
X168685000Y-119125000D03*
X168685000Y-119775000D03*
X168685000Y-120425000D03*
X168685000Y-121075000D03*
X174415000Y-121075000D03*
X174415000Y-120425000D03*
X174415000Y-119775000D03*
X174415000Y-119125000D03*
X174415000Y-118475000D03*
X174415000Y-117825000D03*
X174415000Y-117175000D03*
X174415000Y-116525000D03*
X174415000Y-115875000D03*
X174415000Y-115225000D03*
D16*
X118225750Y-99060000D03*
X118225750Y-101860000D03*
D17*
X184152500Y-138730000D03*
X186027500Y-138730000D03*
D18*
X161742500Y-128365000D03*
X161742500Y-130865000D03*
X196940000Y-100825000D03*
X196940000Y-103325000D03*
D19*
X138279500Y-113030000D03*
X140104500Y-113030000D03*
D20*
X140104500Y-109474000D03*
X138279500Y-109474000D03*
X151026500Y-111252000D03*
X149201500Y-111252000D03*
D21*
X176140000Y-138162500D03*
X176140000Y-136337500D03*
X123420000Y-127052500D03*
X123420000Y-125227500D03*
D22*
X179730000Y-101302500D03*
X179730000Y-103127500D03*
D19*
X197907500Y-120600000D03*
X199732500Y-120600000D03*
X184127500Y-142050000D03*
X185952500Y-142050000D03*
X197927500Y-117990000D03*
X199752500Y-117990000D03*
X155957500Y-124710000D03*
X157782500Y-124710000D03*
X156030000Y-127965000D03*
X157855000Y-127965000D03*
X156130000Y-131265000D03*
X157955000Y-131265000D03*
X121280000Y-138760000D03*
X123105000Y-138760000D03*
D23*
X175200000Y-108060000D03*
X175200000Y-109960000D03*
D24*
X150114000Y-116520000D03*
X150114000Y-114620000D03*
D23*
X176590000Y-101265000D03*
X176590000Y-103165000D03*
X192790000Y-98690000D03*
X192790000Y-100590000D03*
D25*
X161678249Y-101061751D03*
X163021751Y-99718249D03*
D26*
X152420000Y-99210000D03*
X150520000Y-99210000D03*
D24*
X190360000Y-133870000D03*
X190360000Y-131970000D03*
D26*
X186090000Y-127620000D03*
X184190000Y-127620000D03*
D23*
X173370000Y-101265000D03*
X173370000Y-103165000D03*
D24*
X192800000Y-105240000D03*
X192800000Y-103340000D03*
D23*
X152590000Y-139220000D03*
X152590000Y-141120000D03*
D24*
X121850000Y-100940000D03*
X121850000Y-99040000D03*
D23*
X149590000Y-139220000D03*
X149590000Y-141120000D03*
D27*
X121242500Y-141840000D03*
X123142500Y-141840000D03*
D26*
X166892500Y-127910000D03*
X164992500Y-127910000D03*
X166892500Y-131240000D03*
X164992500Y-131240000D03*
D28*
X156250000Y-117500000D03*
X156250000Y-116200000D03*
X158450000Y-116200000D03*
X158450000Y-117500000D03*
D29*
X143080500Y-113096000D03*
X143080500Y-114996000D03*
X144955500Y-114046000D03*
D30*
X158595000Y-98890000D03*
X158595000Y-98240000D03*
X158595000Y-97590000D03*
X156105000Y-97590000D03*
X156105000Y-98240000D03*
X156105000Y-98890000D03*
D31*
X114737500Y-105405750D03*
X114737500Y-106055750D03*
X114737500Y-106705750D03*
X114737500Y-107355750D03*
X114737500Y-108005750D03*
D32*
X114512500Y-103505750D03*
X114512500Y-109905750D03*
D33*
X112062500Y-107905750D03*
X112062500Y-105505750D03*
D34*
X186090000Y-131570000D03*
X185140000Y-131570000D03*
X184190000Y-131570000D03*
X184190000Y-134270000D03*
X186090000Y-134270000D03*
D35*
X174292500Y-132270000D03*
X176167500Y-131320000D03*
X176167500Y-133220000D03*
D36*
X187402500Y-102360000D03*
X187402500Y-101710000D03*
X187402500Y-101060000D03*
X187402500Y-100410000D03*
X183177500Y-100410000D03*
X183177500Y-101060000D03*
X183177500Y-101710000D03*
X183177500Y-102360000D03*
M02*
