G04 #@! TF.GenerationSoftware,KiCad,Pcbnew,6.0.11-2627ca5db0~126~ubuntu20.04.1*
G04 #@! TF.CreationDate,2023-04-04T17:10:53-04:00*
G04 #@! TF.ProjectId,water_meter,77617465-725f-46d6-9574-65722e6b6963,rev?*
G04 #@! TF.SameCoordinates,Original*
G04 #@! TF.FileFunction,Legend,Bot*
G04 #@! TF.FilePolarity,Positive*
%FSLAX46Y46*%
G04 Gerber Fmt 4.6, Leading zero omitted, Abs format (unit mm)*
G04 Created by KiCad (PCBNEW 6.0.11-2627ca5db0~126~ubuntu20.04.1) date 2023-04-04 17:10:53*
%MOMM*%
%LPD*%
G01*
G04 APERTURE LIST*
%ADD10C,0.254000*%
%ADD11C,0.100000*%
%ADD12C,0.200000*%
%ADD13C,1.530000*%
%ADD14C,5.175000*%
%ADD15C,1.100000*%
%ADD16C,5.000000*%
%ADD17C,0.500000*%
%ADD18O,1.800000X0.900000*%
%ADD19R,1.700000X1.700000*%
%ADD20O,1.700000X1.700000*%
%ADD21C,1.000000*%
G04 APERTURE END LIST*
D10*
X157503333Y-122174523D02*
X157503333Y-123081666D01*
X157563809Y-123263095D01*
X157684761Y-123384047D01*
X157866190Y-123444523D01*
X157987142Y-123444523D01*
X156233333Y-123444523D02*
X156959047Y-123444523D01*
X156596190Y-123444523D02*
X156596190Y-122174523D01*
X156717142Y-122355952D01*
X156838095Y-122476904D01*
X156959047Y-122537380D01*
D11*
X127955000Y-146225000D02*
X185945000Y-146225000D01*
D12*
X186645000Y-120180000D02*
X186645000Y-120180000D01*
D11*
X127955000Y-97935000D02*
X127955000Y-146225000D01*
X185945000Y-97935000D02*
X127955000Y-97935000D01*
D12*
X186645000Y-120380000D02*
X186645000Y-120380000D01*
D11*
X185945000Y-146225000D02*
X185945000Y-97935000D01*
D12*
X186645000Y-120180000D02*
G75*
G03*
X186645000Y-120380000I0J-100000D01*
G01*
X186645000Y-120380000D02*
G75*
G03*
X186645000Y-120180000I0J100000D01*
G01*
%LPC*%
D13*
X183355000Y-120230000D03*
X183355000Y-107530000D03*
D14*
X156935000Y-107530000D03*
X156935000Y-137380000D03*
D15*
X153350000Y-112850000D03*
X161350000Y-120850000D03*
D16*
X114850000Y-143160000D03*
X199850000Y-88160000D03*
X199850000Y-143160000D03*
X114850000Y-88160000D03*
D17*
X112062500Y-110005750D03*
X112062500Y-103405750D03*
D18*
X112062500Y-103405750D03*
X112062500Y-110005750D03*
D19*
X117103333Y-121880000D03*
D20*
X117103333Y-124420000D03*
X117103333Y-126960000D03*
X117103333Y-129500000D03*
X117103333Y-132040000D03*
X117103333Y-134580000D03*
D19*
X193690000Y-117980000D03*
D20*
X193690000Y-120520000D03*
D21*
X132900000Y-103200000D03*
X141900000Y-133100000D03*
X127100000Y-113300000D03*
X137600000Y-134500000D03*
X125300000Y-114900000D03*
X197000000Y-137950000D03*
X181550000Y-131620000D03*
X170900000Y-133900000D03*
X181520000Y-129530000D03*
X157480000Y-102870000D03*
X140208000Y-115824000D03*
X134794000Y-108030000D03*
X133096000Y-114300000D03*
X130556000Y-124206000D03*
X139650000Y-101050000D03*
X171600000Y-139350000D03*
X192050000Y-129500000D03*
X195650000Y-98450000D03*
X192800000Y-107750000D03*
X128800000Y-92800000D03*
X140100000Y-124790000D03*
X112210000Y-113650000D03*
X177450000Y-96950000D03*
X166895000Y-123770000D03*
X173450000Y-96950000D03*
X114000000Y-99200000D03*
X175200000Y-105800000D03*
X121850000Y-103750000D03*
X112440000Y-138790000D03*
X119430000Y-145510000D03*
X153670000Y-115062000D03*
X181300000Y-142200000D03*
X127200000Y-141200000D03*
X163322000Y-115062000D03*
X181300000Y-139950000D03*
X144890000Y-141830000D03*
X146950000Y-141850000D03*
X169400000Y-105900000D03*
X151130000Y-108458000D03*
X138235000Y-124790000D03*
X166800000Y-110250000D03*
X125400000Y-137650000D03*
X161650000Y-139300000D03*
X166615000Y-139250000D03*
X136370000Y-124790000D03*
X192800000Y-113100000D03*
X173570000Y-112410000D03*
X160782000Y-109728000D03*
X147900000Y-100850000D03*
X142480000Y-135990000D03*
X164690000Y-116580000D03*
X176600000Y-126860000D03*
X172530000Y-123040000D03*
X182730000Y-125200000D03*
X189040000Y-140120000D03*
X199760000Y-115080000D03*
X189040000Y-141610000D03*
X162400000Y-123720000D03*
X148690000Y-108030000D03*
X199780000Y-126320000D03*
X166570000Y-103290000D03*
X142570000Y-137900000D03*
X189040000Y-142970000D03*
X125380000Y-139440000D03*
X148800000Y-132620000D03*
X178140000Y-119700000D03*
X178240000Y-123310000D03*
X149720000Y-134780000D03*
X132740000Y-131590000D03*
X135850000Y-115790000D03*
X182960000Y-116360000D03*
X177040000Y-116630000D03*
X154480000Y-98900000D03*
X162320000Y-116990000D03*
X189740000Y-100365000D03*
X189720000Y-115870000D03*
X142080000Y-130580000D03*
X189690000Y-127550000D03*
M02*
