G04 #@! TF.GenerationSoftware,KiCad,Pcbnew,5.1.7-a382d34a8~87~ubuntu18.04.1*
G04 #@! TF.CreationDate,2020-10-16T10:59:29-04:00*
G04 #@! TF.ProjectId,water_meter,77617465-725f-46d6-9574-65722e6b6963,rev?*
G04 #@! TF.SameCoordinates,Original*
G04 #@! TF.FileFunction,Legend,Bot*
G04 #@! TF.FilePolarity,Positive*
%FSLAX46Y46*%
G04 Gerber Fmt 4.6, Leading zero omitted, Abs format (unit mm)*
G04 Created by KiCad (PCBNEW 5.1.7-a382d34a8~87~ubuntu18.04.1) date 2020-10-16 10:59:29*
%MOMM*%
%LPD*%
G01*
G04 APERTURE LIST*
%ADD10C,0.150000*%
G04 APERTURE END LIST*
D10*
X145309523Y-149942380D02*
X144976190Y-150942380D01*
X144642857Y-149942380D01*
X143785714Y-150942380D02*
X144357142Y-150942380D01*
X144071428Y-150942380D02*
X144071428Y-149942380D01*
X144166666Y-150085238D01*
X144261904Y-150180476D01*
X144357142Y-150228095D01*
X144880952Y-152282380D02*
X144880952Y-152996666D01*
X144928571Y-153139523D01*
X145023809Y-153234761D01*
X145166666Y-153282380D01*
X145261905Y-153282380D01*
X143928571Y-153282380D02*
X144404762Y-153282380D01*
X144404762Y-152282380D01*
X143023809Y-153187142D02*
X143071428Y-153234761D01*
X143214285Y-153282380D01*
X143309524Y-153282380D01*
X143452381Y-153234761D01*
X143547619Y-153139523D01*
X143595238Y-153044285D01*
X143642857Y-152853809D01*
X143642857Y-152710952D01*
X143595238Y-152520476D01*
X143547619Y-152425238D01*
X143452381Y-152330000D01*
X143309524Y-152282380D01*
X143214285Y-152282380D01*
X143071428Y-152330000D01*
X143023809Y-152377619D01*
X142309524Y-152282380D02*
X142309524Y-152996666D01*
X142357143Y-153139523D01*
X142452381Y-153234761D01*
X142595238Y-153282380D01*
X142690476Y-153282380D01*
X141357143Y-153282380D02*
X141833333Y-153282380D01*
X141833333Y-152282380D01*
X140452381Y-153187142D02*
X140500000Y-153234761D01*
X140642857Y-153282380D01*
X140738095Y-153282380D01*
X140880952Y-153234761D01*
X140976190Y-153139523D01*
X141023809Y-153044285D01*
X141071428Y-152853809D01*
X141071428Y-152710952D01*
X141023809Y-152520476D01*
X140976190Y-152425238D01*
X140880952Y-152330000D01*
X140738095Y-152282380D01*
X140642857Y-152282380D01*
X140500000Y-152330000D01*
X140452381Y-152377619D01*
X139738095Y-152282380D02*
X139738095Y-152996666D01*
X139785714Y-153139523D01*
X139880952Y-153234761D01*
X140023809Y-153282380D01*
X140119047Y-153282380D01*
X138785714Y-153282380D02*
X139261905Y-153282380D01*
X139261905Y-152282380D01*
X137880952Y-153187142D02*
X137928571Y-153234761D01*
X138071428Y-153282380D01*
X138166666Y-153282380D01*
X138309524Y-153234761D01*
X138404762Y-153139523D01*
X138452381Y-153044285D01*
X138500000Y-152853809D01*
X138500000Y-152710952D01*
X138452381Y-152520476D01*
X138404762Y-152425238D01*
X138309524Y-152330000D01*
X138166666Y-152282380D01*
X138071428Y-152282380D01*
X137928571Y-152330000D01*
X137880952Y-152377619D01*
X137166666Y-152282380D02*
X137166666Y-152996666D01*
X137214285Y-153139523D01*
X137309524Y-153234761D01*
X137452381Y-153282380D01*
X137547619Y-153282380D01*
X136214285Y-153282380D02*
X136690476Y-153282380D01*
X136690476Y-152282380D01*
X135309524Y-153187142D02*
X135357143Y-153234761D01*
X135500000Y-153282380D01*
X135595238Y-153282380D01*
X135738095Y-153234761D01*
X135833333Y-153139523D01*
X135880952Y-153044285D01*
X135928571Y-152853809D01*
X135928571Y-152710952D01*
X135880952Y-152520476D01*
X135833333Y-152425238D01*
X135738095Y-152330000D01*
X135595238Y-152282380D01*
X135500000Y-152282380D01*
X135357143Y-152330000D01*
X135309524Y-152377619D01*
M02*
