%TF.GenerationSoftware,KiCad,Pcbnew,6.0.11-2627ca5db0~126~ubuntu20.04.1*%
%TF.CreationDate,2023-09-23T16:44:06-04:00*%
%TF.ProjectId,water_meter,77617465-725f-46d6-9574-65722e6b6963,rev?*%
%TF.SameCoordinates,Original*%
%TF.FileFunction,Legend,Bot*%
%TF.FilePolarity,Positive*%
%FSLAX46Y46*%
G04 Gerber Fmt 4.6, Leading zero omitted, Abs format (unit mm)*
G04 Created by KiCad (PCBNEW 6.0.11-2627ca5db0~126~ubuntu20.04.1) date 2023-09-23 16:44:06*
%MOMM*%
%LPD*%
G01*
G04 APERTURE LIST*
G04 Aperture macros list*
%AMRoundRect*
0 Rectangle with rounded corners*
0 $1 Rounding radius*
0 $2 $3 $4 $5 $6 $7 $8 $9 X,Y pos of 4 corners*
0 Add a 4 corners polygon primitive as box body*
4,1,4,$2,$3,$4,$5,$6,$7,$8,$9,$2,$3,0*
0 Add four circle primitives for the rounded corners*
1,1,$1+$1,$2,$3*
1,1,$1+$1,$4,$5*
1,1,$1+$1,$6,$7*
1,1,$1+$1,$8,$9*
0 Add four rect primitives between the rounded corners*
20,1,$1+$1,$2,$3,$4,$5,0*
20,1,$1+$1,$4,$5,$6,$7,0*
20,1,$1+$1,$6,$7,$8,$9,0*
20,1,$1+$1,$8,$9,$2,$3,0*%
G04 Aperture macros list end*
%ADD10C,0.150000*%
%ADD11C,0.300000*%
%ADD12C,0.254000*%
%ADD13C,0.100000*%
%ADD14C,0.200000*%
%ADD15C,0.120000*%
%ADD16C,6.000000*%
%ADD17C,0.500000*%
%ADD18O,1.800000X0.900000*%
%ADD19C,1.530000*%
%ADD20C,5.175000*%
%ADD21R,1.700000X1.700000*%
%ADD22O,1.700000X1.700000*%
%ADD23R,1.000000X0.600000*%
%ADD24RoundRect,0.150000X-0.625000X0.150000X-0.625000X-0.150000X0.625000X-0.150000X0.625000X0.150000X0*%
%ADD25RoundRect,0.250000X-0.650000X0.350000X-0.650000X-0.350000X0.650000X-0.350000X0.650000X0.350000X0*%
G04 APERTURE END LIST*
D10*
X-521905Y16507620D02*
X-1140953Y16507620D01*
X-807620Y16126667D01*
X-950477Y16126667D01*
X-1045715Y16079048D01*
X-1093334Y16031429D01*
X-1140953Y15936191D01*
X-1140953Y15698096D01*
X-1093334Y15602858D01*
X-1045715Y15555239D01*
X-950477Y15507620D01*
X-664762Y15507620D01*
X-569524Y15555239D01*
X-521905Y15602858D01*
X-1426667Y16507620D02*
X-1760000Y15507620D01*
X-2093334Y16507620D01*
X-2331429Y16507620D02*
X-2950477Y16507620D01*
X-2617143Y16126667D01*
X-2760000Y16126667D01*
X-2855239Y16079048D01*
X-2902858Y16031429D01*
X-2950477Y15936191D01*
X-2950477Y15698096D01*
X-2902858Y15602858D01*
X-2855239Y15555239D01*
X-2760000Y15507620D01*
X-2474286Y15507620D01*
X-2379048Y15555239D01*
X-2331429Y15602858D01*
X-474286Y11447620D02*
X-1045714Y11447620D01*
X-760000Y10447620D02*
X-760000Y11447620D01*
X-1283810Y11447620D02*
X-1950476Y10447620D01*
X-1950476Y11447620D02*
X-1283810Y10447620D01*
X-617143Y8097620D02*
X-617143Y9097620D01*
X-855239Y9097620D01*
X-998096Y9050000D01*
X-1093334Y8954762D01*
X-1140953Y8859524D01*
X-1188572Y8669048D01*
X-1188572Y8526191D01*
X-1140953Y8335715D01*
X-1093334Y8240477D01*
X-998096Y8145239D01*
X-855239Y8097620D01*
X-617143Y8097620D01*
X-1474286Y9097620D02*
X-2045715Y9097620D01*
X-1760000Y8097620D02*
X-1760000Y9097620D01*
X-2950477Y8097620D02*
X-2617143Y8573810D01*
X-2379048Y8097620D02*
X-2379048Y9097620D01*
X-2760000Y9097620D01*
X-2855239Y9050000D01*
X-2902858Y9002381D01*
X-2950477Y8907143D01*
X-2950477Y8764286D01*
X-2902858Y8669048D01*
X-2855239Y8621429D01*
X-2760000Y8573810D01*
X-2379048Y8573810D01*
X-1188572Y13047620D02*
X-855238Y13523810D01*
X-617143Y13047620D02*
X-617143Y14047620D01*
X-998096Y14047620D01*
X-1093334Y14000000D01*
X-1140953Y13952381D01*
X-1188572Y13857143D01*
X-1188572Y13714286D01*
X-1140953Y13619048D01*
X-1093334Y13571429D01*
X-998096Y13523810D01*
X-617143Y13523810D01*
X-1521905Y14047620D02*
X-2188572Y13047620D01*
X-2188572Y14047620D02*
X-1521905Y13047620D01*
X-1188571Y18147620D02*
X-855238Y18623810D01*
X-617143Y18147620D02*
X-617143Y19147620D01*
X-998095Y19147620D01*
X-1093333Y19100000D01*
X-1140952Y19052381D01*
X-1188571Y18957143D01*
X-1188571Y18814286D01*
X-1140952Y18719048D01*
X-1093333Y18671429D01*
X-998095Y18623810D01*
X-617143Y18623810D01*
X-1474286Y19147620D02*
X-2045714Y19147620D01*
X-1760000Y18147620D02*
X-1760000Y19147620D01*
X-2331429Y18195239D02*
X-2474286Y18147620D01*
X-2712381Y18147620D01*
X-2807619Y18195239D01*
X-2855238Y18242858D01*
X-2902857Y18338096D01*
X-2902857Y18433334D01*
X-2855238Y18528572D01*
X-2807619Y18576191D01*
X-2712381Y18623810D01*
X-2521905Y18671429D01*
X-2426667Y18719048D01*
X-2379048Y18766667D01*
X-2331429Y18861905D01*
X-2331429Y18957143D01*
X-2379048Y19052381D01*
X-2426667Y19100000D01*
X-2521905Y19147620D01*
X-2760000Y19147620D01*
X-2902857Y19100000D01*
X-1140953Y21670000D02*
X-1045715Y21717620D01*
X-902857Y21717620D01*
X-760000Y21670000D01*
X-664762Y21574762D01*
X-617143Y21479524D01*
X-569524Y21289048D01*
X-569524Y21146191D01*
X-617143Y20955715D01*
X-664762Y20860477D01*
X-760000Y20765239D01*
X-902857Y20717620D01*
X-998096Y20717620D01*
X-1140953Y20765239D01*
X-1188572Y20812858D01*
X-1188572Y21146191D01*
X-998096Y21146191D01*
X-1617143Y20717620D02*
X-1617143Y21717620D01*
X-2188572Y20717620D01*
X-2188572Y21717620D01*
X-2664762Y20717620D02*
X-2664762Y21717620D01*
X-2902857Y21717620D01*
X-3045715Y21670000D01*
X-3140953Y21574762D01*
X-3188572Y21479524D01*
X-3236191Y21289048D01*
X-3236191Y21146191D01*
X-3188572Y20955715D01*
X-3140953Y20860477D01*
X-3045715Y20765239D01*
X-2902857Y20717620D01*
X-2664762Y20717620D01*
X76613333Y28087620D02*
X75994285Y28087620D01*
X76327618Y27706667D01*
X76184761Y27706667D01*
X76089523Y27659048D01*
X76041904Y27611429D01*
X75994285Y27516191D01*
X75994285Y27278096D01*
X76041904Y27182858D01*
X76089523Y27135239D01*
X76184761Y27087620D01*
X76470476Y27087620D01*
X76565714Y27135239D01*
X76613333Y27182858D01*
X75708571Y28087620D02*
X75375238Y27087620D01*
X75041904Y28087620D01*
X74803809Y28087620D02*
X74184761Y28087620D01*
X74518095Y27706667D01*
X74375238Y27706667D01*
X74279999Y27659048D01*
X74232380Y27611429D01*
X74184761Y27516191D01*
X74184761Y27278096D01*
X74232380Y27182858D01*
X74279999Y27135239D01*
X74375238Y27087620D01*
X74660952Y27087620D01*
X74756190Y27135239D01*
X74803809Y27182858D01*
X75994285Y20410000D02*
X76089523Y20457620D01*
X76232381Y20457620D01*
X76375238Y20410000D01*
X76470476Y20314762D01*
X76518095Y20219524D01*
X76565714Y20029048D01*
X76565714Y19886191D01*
X76518095Y19695715D01*
X76470476Y19600477D01*
X76375238Y19505239D01*
X76232381Y19457620D01*
X76137142Y19457620D01*
X75994285Y19505239D01*
X75946666Y19552858D01*
X75946666Y19886191D01*
X76137142Y19886191D01*
X75518095Y19457620D02*
X75518095Y20457620D01*
X74946666Y19457620D01*
X74946666Y20457620D01*
X74470476Y19457620D02*
X74470476Y20457620D01*
X74232381Y20457620D01*
X74089523Y20410000D01*
X73994285Y20314762D01*
X73946666Y20219524D01*
X73899047Y20029048D01*
X73899047Y19886191D01*
X73946666Y19695715D01*
X73994285Y19600477D01*
X74089523Y19505239D01*
X74232381Y19457620D01*
X74470476Y19457620D01*
X76565714Y24695239D02*
X76422857Y24647620D01*
X76184761Y24647620D01*
X76089523Y24695239D01*
X76041904Y24742858D01*
X75994285Y24838096D01*
X75994285Y24933334D01*
X76041904Y25028572D01*
X76089523Y25076191D01*
X76184761Y25123810D01*
X76375238Y25171429D01*
X76470476Y25219048D01*
X76518095Y25266667D01*
X76565714Y25361905D01*
X76565714Y25457143D01*
X76518095Y25552381D01*
X76470476Y25600000D01*
X76375238Y25647620D01*
X76137142Y25647620D01*
X75994285Y25600000D01*
X74994285Y24742858D02*
X75041904Y24695239D01*
X75184761Y24647620D01*
X75279999Y24647620D01*
X75422857Y24695239D01*
X75518095Y24790477D01*
X75565714Y24885715D01*
X75613333Y25076191D01*
X75613333Y25219048D01*
X75565714Y25409524D01*
X75518095Y25504762D01*
X75422857Y25600000D01*
X75279999Y25647620D01*
X75184761Y25647620D01*
X75041904Y25600000D01*
X74994285Y25552381D01*
X74089523Y24647620D02*
X74565714Y24647620D01*
X74565714Y25647620D01*
D11*
X72607142Y-1358571D02*
X72250000Y-2858571D01*
X71964285Y-1787142D01*
X71678571Y-2858571D01*
X71321428Y-1358571D01*
X70107142Y-2858571D02*
X70107142Y-2072857D01*
X70178571Y-1930000D01*
X70321428Y-1858571D01*
X70607142Y-1858571D01*
X70750000Y-1930000D01*
X70107142Y-2787142D02*
X70250000Y-2858571D01*
X70607142Y-2858571D01*
X70750000Y-2787142D01*
X70821428Y-2644285D01*
X70821428Y-2501428D01*
X70750000Y-2358571D01*
X70607142Y-2287142D01*
X70250000Y-2287142D01*
X70107142Y-2215714D01*
X69535714Y-1858571D02*
X69178571Y-2858571D01*
X68821428Y-1858571D02*
X69178571Y-2858571D01*
X69321428Y-3215714D01*
X69392857Y-3287142D01*
X69535714Y-3358571D01*
X68392857Y-1358571D02*
X68035714Y-2858571D01*
X67750000Y-1787142D01*
X67464285Y-2858571D01*
X67107142Y-1358571D01*
X65892857Y-2858571D02*
X65892857Y-2072857D01*
X65964285Y-1930000D01*
X66107142Y-1858571D01*
X66392857Y-1858571D01*
X66535714Y-1930000D01*
X65892857Y-2787142D02*
X66035714Y-2858571D01*
X66392857Y-2858571D01*
X66535714Y-2787142D01*
X66607142Y-2644285D01*
X66607142Y-2501428D01*
X66535714Y-2358571D01*
X66392857Y-2287142D01*
X66035714Y-2287142D01*
X65892857Y-2215714D01*
X65321428Y-1858571D02*
X64964285Y-2858571D01*
X64607142Y-1858571D02*
X64964285Y-2858571D01*
X65107142Y-3215714D01*
X65178571Y-3287142D01*
X65321428Y-3358571D01*
X64178571Y-1358571D02*
X63821428Y-2858571D01*
X63535714Y-1787142D01*
X63250000Y-2858571D01*
X62892857Y-1358571D01*
X61678571Y-2858571D02*
X61678571Y-2072857D01*
X61750000Y-1930000D01*
X61892857Y-1858571D01*
X62178571Y-1858571D01*
X62321428Y-1930000D01*
X61678571Y-2787142D02*
X61821428Y-2858571D01*
X62178571Y-2858571D01*
X62321428Y-2787142D01*
X62392857Y-2644285D01*
X62392857Y-2501428D01*
X62321428Y-2358571D01*
X62178571Y-2287142D01*
X61821428Y-2287142D01*
X61678571Y-2215714D01*
X61107142Y-1858571D02*
X60750000Y-2858571D01*
X60392857Y-1858571D02*
X60750000Y-2858571D01*
X60892857Y-3215714D01*
X60964285Y-3287142D01*
X61107142Y-3358571D01*
D10*
X76565714Y22055239D02*
X76422857Y22007620D01*
X76184762Y22007620D01*
X76089524Y22055239D01*
X76041905Y22102858D01*
X75994286Y22198096D01*
X75994286Y22293334D01*
X76041905Y22388572D01*
X76089524Y22436191D01*
X76184762Y22483810D01*
X76375238Y22531429D01*
X76470476Y22579048D01*
X76518095Y22626667D01*
X76565714Y22721905D01*
X76565714Y22817143D01*
X76518095Y22912381D01*
X76470476Y22960000D01*
X76375238Y23007620D01*
X76137143Y23007620D01*
X75994286Y22960000D01*
X75565714Y22007620D02*
X75565714Y23007620D01*
X75327619Y23007620D01*
X75184762Y22960000D01*
X75089524Y22864762D01*
X75041905Y22769524D01*
X74994286Y22579048D01*
X74994286Y22436191D01*
X75041905Y22245715D01*
X75089524Y22150477D01*
X75184762Y22055239D01*
X75327619Y22007620D01*
X75565714Y22007620D01*
X74613333Y22293334D02*
X74137143Y22293334D01*
X74708571Y22007620D02*
X74375238Y23007620D01*
X74041905Y22007620D01*
D12*
%TO.C,J1*%
X45493333Y22045477D02*
X45493333Y21138334D01*
X45553809Y20956905D01*
X45674761Y20835953D01*
X45856190Y20775477D01*
X45977142Y20775477D01*
X44223333Y20775477D02*
X44949047Y20775477D01*
X44586190Y20775477D02*
X44586190Y22045477D01*
X44707142Y21864048D01*
X44828095Y21743096D01*
X44949047Y21682620D01*
D10*
%TO.C,J3*%
X2606666Y24567620D02*
X2606666Y23853334D01*
X2654285Y23710477D01*
X2749523Y23615239D01*
X2892380Y23567620D01*
X2987618Y23567620D01*
X2225713Y24567620D02*
X1606666Y24567620D01*
X1939999Y24186667D01*
X1797142Y24186667D01*
X1701904Y24139048D01*
X1654285Y24091429D01*
X1606666Y23996191D01*
X1606666Y23758096D01*
X1654285Y23662858D01*
X1701904Y23615239D01*
X1797142Y23567620D01*
X2082856Y23567620D01*
X2178094Y23615239D01*
X2225713Y23662858D01*
%TO.C,U6*%
X297904Y51019620D02*
X297904Y50210096D01*
X250285Y50114858D01*
X202666Y50067239D01*
X107428Y50019620D01*
X-83048Y50019620D01*
X-178286Y50067239D01*
X-225905Y50114858D01*
X-273524Y50210096D01*
X-273524Y51019620D01*
X-1178286Y51019620D02*
X-987810Y51019620D01*
X-892572Y50972000D01*
X-844953Y50924381D01*
X-749715Y50781524D01*
X-702096Y50591048D01*
X-702096Y50210096D01*
X-749715Y50114858D01*
X-797334Y50067239D01*
X-892572Y50019620D01*
X-1083048Y50019620D01*
X-1178286Y50067239D01*
X-1225905Y50114858D01*
X-1273524Y50210096D01*
X-1273524Y50448191D01*
X-1225905Y50543429D01*
X-1178286Y50591048D01*
X-1083048Y50638667D01*
X-892572Y50638667D01*
X-797334Y50591048D01*
X-749715Y50543429D01*
X-702096Y50448191D01*
%TO.C,J7*%
X86813333Y41277620D02*
X86813333Y40563334D01*
X86860952Y40420477D01*
X86956190Y40325239D01*
X87099047Y40277620D01*
X87194285Y40277620D01*
X86432380Y41277620D02*
X85765714Y41277620D01*
X86194285Y40277620D01*
%TO.C,J6*%
X86923333Y22297620D02*
X86923333Y21583334D01*
X86970952Y21440477D01*
X87066190Y21345239D01*
X87209047Y21297620D01*
X87304285Y21297620D01*
X86018571Y22297620D02*
X86209047Y22297620D01*
X86304285Y22250000D01*
X86351904Y22202381D01*
X86447142Y22059524D01*
X86494761Y21869048D01*
X86494761Y21488096D01*
X86447142Y21392858D01*
X86399523Y21345239D01*
X86304285Y21297620D01*
X86113809Y21297620D01*
X86018571Y21345239D01*
X85970952Y21392858D01*
X85923333Y21488096D01*
X85923333Y21726191D01*
X85970952Y21821429D01*
X86018571Y21869048D01*
X86113809Y21916667D01*
X86304285Y21916667D01*
X86399523Y21869048D01*
X86447142Y21821429D01*
X86494761Y21726191D01*
%TO.C,J5*%
X79143333Y30527620D02*
X79143333Y29813334D01*
X79190952Y29670477D01*
X79286190Y29575239D01*
X79429047Y29527620D01*
X79524285Y29527620D01*
X78190952Y30527620D02*
X78667142Y30527620D01*
X78714761Y30051429D01*
X78667142Y30099048D01*
X78571904Y30146667D01*
X78333809Y30146667D01*
X78238571Y30099048D01*
X78190952Y30051429D01*
X78143333Y29956191D01*
X78143333Y29718096D01*
X78190952Y29622858D01*
X78238571Y29575239D01*
X78333809Y29527620D01*
X78571904Y29527620D01*
X78667142Y29575239D01*
X78714761Y29622858D01*
D13*
%TO.C,J1*%
X71115000Y-3095000D02*
X71115000Y45195000D01*
D14*
X71815000Y22750000D02*
X71815000Y22750000D01*
D13*
X13125000Y-3095000D02*
X71115000Y-3095000D01*
X71115000Y45195000D02*
X13125000Y45195000D01*
D14*
X71815000Y22950000D02*
X71815000Y22950000D01*
D13*
X13125000Y45195000D02*
X13125000Y-3095000D01*
D14*
X71815000Y22950000D02*
G75*
G03*
X71815000Y22750000I0J-100000D01*
G01*
X71815000Y22750000D02*
G75*
G03*
X71815000Y22950000I0J100000D01*
G01*
D15*
%TO.C,J3*%
X943333Y22580000D02*
X943333Y21250000D01*
X3603333Y7220000D02*
X943333Y7220000D01*
X943333Y19980000D02*
X943333Y7220000D01*
X3603333Y19980000D02*
X943333Y19980000D01*
X3603333Y19980000D02*
X3603333Y7220000D01*
X2273333Y22580000D02*
X943333Y22580000D01*
D13*
%TO.C,U6*%
X1270000Y47230000D02*
X-1430000Y47230000D01*
X-1880000Y47730000D02*
X-1880000Y47730000D01*
X-1880000Y47830000D02*
X-1880000Y47830000D01*
X1270000Y49630000D02*
X-1430000Y49630000D01*
X1270000Y48630000D02*
X1270000Y48230000D01*
X-1430000Y48630000D02*
X-1430000Y48230000D01*
X-1880000Y47830000D02*
G75*
G03*
X-1880000Y47730000I0J-50000D01*
G01*
X-1880000Y47730000D02*
G75*
G03*
X-1880000Y47830000I0J50000D01*
G01*
D15*
%TO.C,J7*%
X84345000Y39730000D02*
X84345000Y38680000D01*
X86845000Y39730000D02*
X84345000Y39730000D01*
X84345000Y33510000D02*
X84345000Y34560000D01*
X86845000Y33510000D02*
X84345000Y33510000D01*
X84345000Y38680000D02*
X83355000Y38680000D01*
X88815000Y38560000D02*
X88815000Y34680000D01*
%TO.C,J6*%
X84345000Y18690000D02*
X83355000Y18690000D01*
X86845000Y9520000D02*
X84345000Y9520000D01*
X84345000Y9520000D02*
X84345000Y10570000D01*
X84345000Y19740000D02*
X84345000Y18690000D01*
X88815000Y18570000D02*
X88815000Y10690000D01*
X86845000Y19740000D02*
X84345000Y19740000D01*
%TO.C,J5*%
X80140000Y26380000D02*
X80140000Y18700000D01*
X80140000Y18700000D02*
X77480000Y18700000D01*
X80140000Y26380000D02*
X77480000Y26380000D01*
X80140000Y27650000D02*
X80140000Y28980000D01*
X80140000Y28980000D02*
X78810000Y28980000D01*
X77480000Y26380000D02*
X77480000Y18700000D01*
%TD*%
%LPC*%
D16*
%TO.C,H2*%
X20000Y-30000D03*
%TD*%
%TO.C,H3*%
X85020000Y54970000D03*
%TD*%
%TO.C,H4*%
X85020000Y-30000D03*
%TD*%
%TO.C,H1*%
X20000Y54970000D03*
%TD*%
D17*
%TO.C,J4*%
X-2855000Y34880000D03*
X-2855000Y41480000D03*
D18*
X-2855000Y41480000D03*
X-2855000Y34880000D03*
%TD*%
D19*
%TO.C,J1*%
X68525000Y22900000D03*
X68525000Y35600000D03*
D20*
X42105000Y35600000D03*
X42105000Y5750000D03*
%TD*%
D21*
%TO.C,J3*%
X2273333Y21250000D03*
D22*
X2273333Y18710000D03*
X2273333Y16170000D03*
X2273333Y13630000D03*
X2273333Y11090000D03*
X2273333Y8550000D03*
%TD*%
D23*
%TO.C,U6*%
X-1180000Y47780000D03*
X-1180000Y49080000D03*
X1020000Y49080000D03*
X1020000Y47780000D03*
%TD*%
D24*
%TO.C,J7*%
X84130000Y38120000D03*
X84130000Y37120000D03*
X84130000Y36120000D03*
X84130000Y35120000D03*
D25*
X88005000Y39420000D03*
X88005000Y33820000D03*
%TD*%
D24*
%TO.C,J6*%
X84130000Y18130000D03*
X84130000Y17130000D03*
X84130000Y16130000D03*
X84130000Y15130000D03*
X84130000Y14130000D03*
X84130000Y13130000D03*
X84130000Y12130000D03*
X84130000Y11130000D03*
D25*
X88005000Y9830000D03*
X88005000Y19430000D03*
%TD*%
D21*
%TO.C,J5*%
X78810000Y27650000D03*
D22*
X78810000Y25110000D03*
X78810000Y22570000D03*
X78810000Y20030000D03*
%TD*%
M02*
