G04 #@! TF.GenerationSoftware,KiCad,Pcbnew,5.1.7-a382d34a8~87~ubuntu18.04.1*
G04 #@! TF.CreationDate,2020-10-16T10:59:29-04:00*
G04 #@! TF.ProjectId,water_meter,77617465-725f-46d6-9574-65722e6b6963,rev?*
G04 #@! TF.SameCoordinates,Original*
G04 #@! TF.FileFunction,Paste,Top*
G04 #@! TF.FilePolarity,Positive*
%FSLAX46Y46*%
G04 Gerber Fmt 4.6, Leading zero omitted, Abs format (unit mm)*
G04 Created by KiCad (PCBNEW 5.1.7-a382d34a8~87~ubuntu18.04.1) date 2020-10-16 10:59:29*
%MOMM*%
%LPD*%
G01*
G04 APERTURE LIST*
%ADD10R,0.750000X0.250000*%
%ADD11R,0.250000X0.750000*%
%ADD12R,0.400000X1.400000*%
%ADD13R,2.300000X1.900000*%
%ADD14R,1.800000X1.900000*%
%ADD15R,1.000000X2.510000*%
%ADD16R,0.350000X0.500000*%
%ADD17R,1.800000X1.750000*%
%ADD18R,2.000000X1.500000*%
%ADD19R,2.000000X3.800000*%
%ADD20R,0.900000X1.500000*%
%ADD21R,1.500000X0.900000*%
%ADD22R,4.100000X4.100000*%
%ADD23R,1.000000X1.700000*%
%ADD24R,0.800000X0.900000*%
%ADD25R,0.660400X0.355600*%
%ADD26R,1.244600X1.701800*%
G04 APERTURE END LIST*
D10*
X162550000Y-122250000D03*
X162550000Y-122750000D03*
X162550000Y-123250000D03*
X162550000Y-123750000D03*
D11*
X163258700Y-123950000D03*
X163741300Y-123949500D03*
D10*
X164450000Y-123750000D03*
X164450000Y-123250000D03*
X164450000Y-122750000D03*
X164450000Y-122250000D03*
D11*
X163741300Y-122050500D03*
X163258700Y-122050000D03*
D12*
X177900000Y-148850000D03*
X178550000Y-148850000D03*
X179200000Y-148850000D03*
X179850000Y-148850000D03*
X180500000Y-148850000D03*
D13*
X175450000Y-151700000D03*
X182950000Y-151700000D03*
D14*
X178050000Y-151700000D03*
X180350000Y-151700000D03*
D15*
X194750000Y-117455000D03*
X199830000Y-117455000D03*
X204910000Y-117455000D03*
X197290000Y-114145000D03*
X202370000Y-114145000D03*
X207450000Y-114145000D03*
X137770000Y-151055000D03*
X142850000Y-151055000D03*
X147930000Y-151055000D03*
X153010000Y-151055000D03*
X158090000Y-151055000D03*
X140310000Y-147745000D03*
X145390000Y-147745000D03*
X150470000Y-147745000D03*
X155550000Y-147745000D03*
X160630000Y-147745000D03*
G36*
G01*
X145760000Y-136985000D02*
X145760000Y-136035000D01*
G75*
G02*
X146010000Y-135785000I250000J0D01*
G01*
X146685000Y-135785000D01*
G75*
G02*
X146935000Y-136035000I0J-250000D01*
G01*
X146935000Y-136985000D01*
G75*
G02*
X146685000Y-137235000I-250000J0D01*
G01*
X146010000Y-137235000D01*
G75*
G02*
X145760000Y-136985000I0J250000D01*
G01*
G37*
G36*
G01*
X143685000Y-136985000D02*
X143685000Y-136035000D01*
G75*
G02*
X143935000Y-135785000I250000J0D01*
G01*
X144610000Y-135785000D01*
G75*
G02*
X144860000Y-136035000I0J-250000D01*
G01*
X144860000Y-136985000D01*
G75*
G02*
X144610000Y-137235000I-250000J0D01*
G01*
X143935000Y-137235000D01*
G75*
G02*
X143685000Y-136985000I0J250000D01*
G01*
G37*
G36*
G01*
X149485000Y-132210000D02*
X148535000Y-132210000D01*
G75*
G02*
X148285000Y-131960000I0J250000D01*
G01*
X148285000Y-131285000D01*
G75*
G02*
X148535000Y-131035000I250000J0D01*
G01*
X149485000Y-131035000D01*
G75*
G02*
X149735000Y-131285000I0J-250000D01*
G01*
X149735000Y-131960000D01*
G75*
G02*
X149485000Y-132210000I-250000J0D01*
G01*
G37*
G36*
G01*
X149485000Y-134285000D02*
X148535000Y-134285000D01*
G75*
G02*
X148285000Y-134035000I0J250000D01*
G01*
X148285000Y-133360000D01*
G75*
G02*
X148535000Y-133110000I250000J0D01*
G01*
X149485000Y-133110000D01*
G75*
G02*
X149735000Y-133360000I0J-250000D01*
G01*
X149735000Y-134035000D01*
G75*
G02*
X149485000Y-134285000I-250000J0D01*
G01*
G37*
D16*
X146285000Y-132330000D03*
X145635000Y-132330000D03*
X144985000Y-132330000D03*
X144335000Y-132330000D03*
X144335000Y-130280000D03*
X144985000Y-130280000D03*
X145635000Y-130280000D03*
X146285000Y-130280000D03*
G36*
G01*
X202200000Y-153100001D02*
X202200000Y-152199999D01*
G75*
G02*
X202449999Y-151950000I249999J0D01*
G01*
X203150001Y-151950000D01*
G75*
G02*
X203400000Y-152199999I0J-249999D01*
G01*
X203400000Y-153100001D01*
G75*
G02*
X203150001Y-153350000I-249999J0D01*
G01*
X202449999Y-153350000D01*
G75*
G02*
X202200000Y-153100001I0J249999D01*
G01*
G37*
G36*
G01*
X200200000Y-153100001D02*
X200200000Y-152199999D01*
G75*
G02*
X200449999Y-151950000I249999J0D01*
G01*
X201150001Y-151950000D01*
G75*
G02*
X201400000Y-152199999I0J-249999D01*
G01*
X201400000Y-153100001D01*
G75*
G02*
X201150001Y-153350000I-249999J0D01*
G01*
X200449999Y-153350000D01*
G75*
G02*
X200200000Y-153100001I0J249999D01*
G01*
G37*
G36*
G01*
X195250000Y-152125000D02*
X195250000Y-153075000D01*
G75*
G02*
X195000000Y-153325000I-250000J0D01*
G01*
X194325000Y-153325000D01*
G75*
G02*
X194075000Y-153075000I0J250000D01*
G01*
X194075000Y-152125000D01*
G75*
G02*
X194325000Y-151875000I250000J0D01*
G01*
X195000000Y-151875000D01*
G75*
G02*
X195250000Y-152125000I0J-250000D01*
G01*
G37*
G36*
G01*
X197325000Y-152125000D02*
X197325000Y-153075000D01*
G75*
G02*
X197075000Y-153325000I-250000J0D01*
G01*
X196400000Y-153325000D01*
G75*
G02*
X196150000Y-153075000I0J250000D01*
G01*
X196150000Y-152125000D01*
G75*
G02*
X196400000Y-151875000I250000J0D01*
G01*
X197075000Y-151875000D01*
G75*
G02*
X197325000Y-152125000I0J-250000D01*
G01*
G37*
G36*
G01*
X140150000Y-122950001D02*
X140150000Y-122049999D01*
G75*
G02*
X140399999Y-121800000I249999J0D01*
G01*
X141100001Y-121800000D01*
G75*
G02*
X141350000Y-122049999I0J-249999D01*
G01*
X141350000Y-122950001D01*
G75*
G02*
X141100001Y-123200000I-249999J0D01*
G01*
X140399999Y-123200000D01*
G75*
G02*
X140150000Y-122950001I0J249999D01*
G01*
G37*
G36*
G01*
X138150000Y-122950001D02*
X138150000Y-122049999D01*
G75*
G02*
X138399999Y-121800000I249999J0D01*
G01*
X139100001Y-121800000D01*
G75*
G02*
X139350000Y-122049999I0J-249999D01*
G01*
X139350000Y-122950001D01*
G75*
G02*
X139100001Y-123200000I-249999J0D01*
G01*
X138399999Y-123200000D01*
G75*
G02*
X138150000Y-122950001I0J249999D01*
G01*
G37*
G36*
G01*
X156949999Y-133250000D02*
X157850001Y-133250000D01*
G75*
G02*
X158100000Y-133499999I0J-249999D01*
G01*
X158100000Y-134200001D01*
G75*
G02*
X157850001Y-134450000I-249999J0D01*
G01*
X156949999Y-134450000D01*
G75*
G02*
X156700000Y-134200001I0J249999D01*
G01*
X156700000Y-133499999D01*
G75*
G02*
X156949999Y-133250000I249999J0D01*
G01*
G37*
G36*
G01*
X156949999Y-131250000D02*
X157850001Y-131250000D01*
G75*
G02*
X158100000Y-131499999I0J-249999D01*
G01*
X158100000Y-132200001D01*
G75*
G02*
X157850001Y-132450000I-249999J0D01*
G01*
X156949999Y-132450000D01*
G75*
G02*
X156700000Y-132200001I0J249999D01*
G01*
X156700000Y-131499999D01*
G75*
G02*
X156949999Y-131250000I249999J0D01*
G01*
G37*
G36*
G01*
X153149999Y-133200000D02*
X154050001Y-133200000D01*
G75*
G02*
X154300000Y-133449999I0J-249999D01*
G01*
X154300000Y-134150001D01*
G75*
G02*
X154050001Y-134400000I-249999J0D01*
G01*
X153149999Y-134400000D01*
G75*
G02*
X152900000Y-134150001I0J249999D01*
G01*
X152900000Y-133449999D01*
G75*
G02*
X153149999Y-133200000I249999J0D01*
G01*
G37*
G36*
G01*
X153149999Y-131200000D02*
X154050001Y-131200000D01*
G75*
G02*
X154300000Y-131449999I0J-249999D01*
G01*
X154300000Y-132150001D01*
G75*
G02*
X154050001Y-132400000I-249999J0D01*
G01*
X153149999Y-132400000D01*
G75*
G02*
X152900000Y-132150001I0J249999D01*
G01*
X152900000Y-131449999D01*
G75*
G02*
X153149999Y-131200000I249999J0D01*
G01*
G37*
G36*
G01*
X149325000Y-123850000D02*
X150275000Y-123850000D01*
G75*
G02*
X150525000Y-124100000I0J-250000D01*
G01*
X150525000Y-124775000D01*
G75*
G02*
X150275000Y-125025000I-250000J0D01*
G01*
X149325000Y-125025000D01*
G75*
G02*
X149075000Y-124775000I0J250000D01*
G01*
X149075000Y-124100000D01*
G75*
G02*
X149325000Y-123850000I250000J0D01*
G01*
G37*
G36*
G01*
X149325000Y-121775000D02*
X150275000Y-121775000D01*
G75*
G02*
X150525000Y-122025000I0J-250000D01*
G01*
X150525000Y-122700000D01*
G75*
G02*
X150275000Y-122950000I-250000J0D01*
G01*
X149325000Y-122950000D01*
G75*
G02*
X149075000Y-122700000I0J250000D01*
G01*
X149075000Y-122025000D01*
G75*
G02*
X149325000Y-121775000I250000J0D01*
G01*
G37*
G36*
G01*
X139300000Y-125725000D02*
X139300000Y-126675000D01*
G75*
G02*
X139050000Y-126925000I-250000J0D01*
G01*
X138375000Y-126925000D01*
G75*
G02*
X138125000Y-126675000I0J250000D01*
G01*
X138125000Y-125725000D01*
G75*
G02*
X138375000Y-125475000I250000J0D01*
G01*
X139050000Y-125475000D01*
G75*
G02*
X139300000Y-125725000I0J-250000D01*
G01*
G37*
G36*
G01*
X141375000Y-125725000D02*
X141375000Y-126675000D01*
G75*
G02*
X141125000Y-126925000I-250000J0D01*
G01*
X140450000Y-126925000D01*
G75*
G02*
X140200000Y-126675000I0J250000D01*
G01*
X140200000Y-125725000D01*
G75*
G02*
X140450000Y-125475000I250000J0D01*
G01*
X141125000Y-125475000D01*
G75*
G02*
X141375000Y-125725000I0J-250000D01*
G01*
G37*
G36*
G01*
X170575000Y-149025000D02*
X170575000Y-147775000D01*
G75*
G02*
X170825000Y-147525000I250000J0D01*
G01*
X171750000Y-147525000D01*
G75*
G02*
X172000000Y-147775000I0J-250000D01*
G01*
X172000000Y-149025000D01*
G75*
G02*
X171750000Y-149275000I-250000J0D01*
G01*
X170825000Y-149275000D01*
G75*
G02*
X170575000Y-149025000I0J250000D01*
G01*
G37*
G36*
G01*
X167600000Y-149025000D02*
X167600000Y-147775000D01*
G75*
G02*
X167850000Y-147525000I250000J0D01*
G01*
X168775000Y-147525000D01*
G75*
G02*
X169025000Y-147775000I0J-250000D01*
G01*
X169025000Y-149025000D01*
G75*
G02*
X168775000Y-149275000I-250000J0D01*
G01*
X167850000Y-149275000D01*
G75*
G02*
X167600000Y-149025000I0J250000D01*
G01*
G37*
D17*
X178500000Y-133725000D03*
X178500000Y-136975000D03*
D18*
X126350000Y-144500000D03*
X126350000Y-139900000D03*
X126350000Y-142200000D03*
D19*
X120050000Y-142200000D03*
D20*
X212375000Y-131175000D03*
X191375000Y-131175000D03*
X189875000Y-131175000D03*
D21*
X189125000Y-133050000D03*
X189125000Y-134550000D03*
X189125000Y-136050000D03*
X189125000Y-137550000D03*
X189125000Y-139050000D03*
X189125000Y-140550000D03*
X189125000Y-142050000D03*
X189125000Y-143550000D03*
D20*
X210875000Y-131175000D03*
X209375000Y-131175000D03*
X207875000Y-131175000D03*
X206375000Y-131175000D03*
X204875000Y-131175000D03*
X203375000Y-131175000D03*
X201875000Y-131175000D03*
X200375000Y-131175000D03*
X198875000Y-131175000D03*
X197375000Y-131175000D03*
X195875000Y-131175000D03*
X194375000Y-131175000D03*
X192875000Y-131175000D03*
X206275000Y-148425000D03*
X204775000Y-148425000D03*
X203275000Y-148425000D03*
X201775000Y-148425000D03*
X200275000Y-148425000D03*
X198775000Y-148425000D03*
X197275000Y-148425000D03*
X195775000Y-148425000D03*
X194275000Y-148425000D03*
X192775000Y-148425000D03*
X191275000Y-148425000D03*
X189775000Y-148425000D03*
D21*
X189125000Y-146550000D03*
X189125000Y-145050000D03*
D20*
X207775000Y-148425000D03*
X209375000Y-148425000D03*
X210875000Y-148425000D03*
X212275000Y-148425000D03*
D22*
X204335000Y-138610000D03*
D23*
X183100000Y-126150000D03*
X186900000Y-126150000D03*
X183100000Y-119850000D03*
X186900000Y-119850000D03*
X173300000Y-126150000D03*
X177100000Y-126150000D03*
X173300000Y-119850000D03*
X177100000Y-119850000D03*
G36*
G01*
X118900000Y-130049999D02*
X118900000Y-130950001D01*
G75*
G02*
X118650001Y-131200000I-249999J0D01*
G01*
X117949999Y-131200000D01*
G75*
G02*
X117700000Y-130950001I0J249999D01*
G01*
X117700000Y-130049999D01*
G75*
G02*
X117949999Y-129800000I249999J0D01*
G01*
X118650001Y-129800000D01*
G75*
G02*
X118900000Y-130049999I0J-249999D01*
G01*
G37*
G36*
G01*
X120900000Y-130049999D02*
X120900000Y-130950001D01*
G75*
G02*
X120650001Y-131200000I-249999J0D01*
G01*
X119949999Y-131200000D01*
G75*
G02*
X119700000Y-130950001I0J249999D01*
G01*
X119700000Y-130049999D01*
G75*
G02*
X119949999Y-129800000I249999J0D01*
G01*
X120650001Y-129800000D01*
G75*
G02*
X120900000Y-130049999I0J-249999D01*
G01*
G37*
G36*
G01*
X187700000Y-129050001D02*
X187700000Y-128149999D01*
G75*
G02*
X187949999Y-127900000I249999J0D01*
G01*
X188650001Y-127900000D01*
G75*
G02*
X188900000Y-128149999I0J-249999D01*
G01*
X188900000Y-129050001D01*
G75*
G02*
X188650001Y-129300000I-249999J0D01*
G01*
X187949999Y-129300000D01*
G75*
G02*
X187700000Y-129050001I0J249999D01*
G01*
G37*
G36*
G01*
X185700000Y-129050001D02*
X185700000Y-128149999D01*
G75*
G02*
X185949999Y-127900000I249999J0D01*
G01*
X186650001Y-127900000D01*
G75*
G02*
X186900000Y-128149999I0J-249999D01*
G01*
X186900000Y-129050001D01*
G75*
G02*
X186650001Y-129300000I-249999J0D01*
G01*
X185949999Y-129300000D01*
G75*
G02*
X185700000Y-129050001I0J249999D01*
G01*
G37*
G36*
G01*
X182500000Y-136549999D02*
X182500000Y-137450001D01*
G75*
G02*
X182250001Y-137700000I-249999J0D01*
G01*
X181549999Y-137700000D01*
G75*
G02*
X181300000Y-137450001I0J249999D01*
G01*
X181300000Y-136549999D01*
G75*
G02*
X181549999Y-136300000I249999J0D01*
G01*
X182250001Y-136300000D01*
G75*
G02*
X182500000Y-136549999I0J-249999D01*
G01*
G37*
G36*
G01*
X184500000Y-136549999D02*
X184500000Y-137450001D01*
G75*
G02*
X184250001Y-137700000I-249999J0D01*
G01*
X183549999Y-137700000D01*
G75*
G02*
X183300000Y-137450001I0J249999D01*
G01*
X183300000Y-136549999D01*
G75*
G02*
X183549999Y-136300000I249999J0D01*
G01*
X184250001Y-136300000D01*
G75*
G02*
X184500000Y-136549999I0J-249999D01*
G01*
G37*
G36*
G01*
X182500000Y-133249999D02*
X182500000Y-134150001D01*
G75*
G02*
X182250001Y-134400000I-249999J0D01*
G01*
X181549999Y-134400000D01*
G75*
G02*
X181300000Y-134150001I0J249999D01*
G01*
X181300000Y-133249999D01*
G75*
G02*
X181549999Y-133000000I249999J0D01*
G01*
X182250001Y-133000000D01*
G75*
G02*
X182500000Y-133249999I0J-249999D01*
G01*
G37*
G36*
G01*
X184500000Y-133249999D02*
X184500000Y-134150001D01*
G75*
G02*
X184250001Y-134400000I-249999J0D01*
G01*
X183549999Y-134400000D01*
G75*
G02*
X183300000Y-134150001I0J249999D01*
G01*
X183300000Y-133249999D01*
G75*
G02*
X183549999Y-133000000I249999J0D01*
G01*
X184250001Y-133000000D01*
G75*
G02*
X184500000Y-133249999I0J-249999D01*
G01*
G37*
G36*
G01*
X196450000Y-122049999D02*
X196450000Y-122950001D01*
G75*
G02*
X196200001Y-123200000I-249999J0D01*
G01*
X195499999Y-123200000D01*
G75*
G02*
X195250000Y-122950001I0J249999D01*
G01*
X195250000Y-122049999D01*
G75*
G02*
X195499999Y-121800000I249999J0D01*
G01*
X196200001Y-121800000D01*
G75*
G02*
X196450000Y-122049999I0J-249999D01*
G01*
G37*
G36*
G01*
X194450000Y-122049999D02*
X194450000Y-122950001D01*
G75*
G02*
X194200001Y-123200000I-249999J0D01*
G01*
X193499999Y-123200000D01*
G75*
G02*
X193250000Y-122950001I0J249999D01*
G01*
X193250000Y-122049999D01*
G75*
G02*
X193499999Y-121800000I249999J0D01*
G01*
X194200001Y-121800000D01*
G75*
G02*
X194450000Y-122049999I0J-249999D01*
G01*
G37*
G36*
G01*
X199950000Y-122149999D02*
X199950000Y-123050001D01*
G75*
G02*
X199700001Y-123300000I-249999J0D01*
G01*
X198999999Y-123300000D01*
G75*
G02*
X198750000Y-123050001I0J249999D01*
G01*
X198750000Y-122149999D01*
G75*
G02*
X198999999Y-121900000I249999J0D01*
G01*
X199700001Y-121900000D01*
G75*
G02*
X199950000Y-122149999I0J-249999D01*
G01*
G37*
G36*
G01*
X201950000Y-122149999D02*
X201950000Y-123050001D01*
G75*
G02*
X201700001Y-123300000I-249999J0D01*
G01*
X200999999Y-123300000D01*
G75*
G02*
X200750000Y-123050001I0J249999D01*
G01*
X200750000Y-122149999D01*
G75*
G02*
X200999999Y-121900000I249999J0D01*
G01*
X201700001Y-121900000D01*
G75*
G02*
X201950000Y-122149999I0J-249999D01*
G01*
G37*
D24*
X195800000Y-125100000D03*
X193900000Y-125100000D03*
X194850000Y-127100000D03*
X200350000Y-127200000D03*
X199400000Y-125200000D03*
X201300000Y-125200000D03*
G36*
G01*
X125850000Y-130950001D02*
X125850000Y-130049999D01*
G75*
G02*
X126099999Y-129800000I249999J0D01*
G01*
X126750001Y-129800000D01*
G75*
G02*
X127000000Y-130049999I0J-249999D01*
G01*
X127000000Y-130950001D01*
G75*
G02*
X126750001Y-131200000I-249999J0D01*
G01*
X126099999Y-131200000D01*
G75*
G02*
X125850000Y-130950001I0J249999D01*
G01*
G37*
G36*
G01*
X123800000Y-130950001D02*
X123800000Y-130049999D01*
G75*
G02*
X124049999Y-129800000I249999J0D01*
G01*
X124700001Y-129800000D01*
G75*
G02*
X124950000Y-130049999I0J-249999D01*
G01*
X124950000Y-130950001D01*
G75*
G02*
X124700001Y-131200000I-249999J0D01*
G01*
X124049999Y-131200000D01*
G75*
G02*
X123800000Y-130950001I0J249999D01*
G01*
G37*
G36*
G01*
X160350000Y-126925000D02*
X160350000Y-127875000D01*
G75*
G02*
X160100000Y-128125000I-250000J0D01*
G01*
X159425000Y-128125000D01*
G75*
G02*
X159175000Y-127875000I0J250000D01*
G01*
X159175000Y-126925000D01*
G75*
G02*
X159425000Y-126675000I250000J0D01*
G01*
X160100000Y-126675000D01*
G75*
G02*
X160350000Y-126925000I0J-250000D01*
G01*
G37*
G36*
G01*
X162425000Y-126925000D02*
X162425000Y-127875000D01*
G75*
G02*
X162175000Y-128125000I-250000J0D01*
G01*
X161500000Y-128125000D01*
G75*
G02*
X161250000Y-127875000I0J250000D01*
G01*
X161250000Y-126925000D01*
G75*
G02*
X161500000Y-126675000I250000J0D01*
G01*
X162175000Y-126675000D01*
G75*
G02*
X162425000Y-126925000I0J-250000D01*
G01*
G37*
G36*
G01*
X166650000Y-127875000D02*
X166650000Y-126925000D01*
G75*
G02*
X166900000Y-126675000I250000J0D01*
G01*
X167575000Y-126675000D01*
G75*
G02*
X167825000Y-126925000I0J-250000D01*
G01*
X167825000Y-127875000D01*
G75*
G02*
X167575000Y-128125000I-250000J0D01*
G01*
X166900000Y-128125000D01*
G75*
G02*
X166650000Y-127875000I0J250000D01*
G01*
G37*
G36*
G01*
X164575000Y-127875000D02*
X164575000Y-126925000D01*
G75*
G02*
X164825000Y-126675000I250000J0D01*
G01*
X165500000Y-126675000D01*
G75*
G02*
X165750000Y-126925000I0J-250000D01*
G01*
X165750000Y-127875000D01*
G75*
G02*
X165500000Y-128125000I-250000J0D01*
G01*
X164825000Y-128125000D01*
G75*
G02*
X164575000Y-127875000I0J250000D01*
G01*
G37*
G36*
G01*
X125812500Y-148475000D02*
X125812500Y-147525000D01*
G75*
G02*
X126062500Y-147275000I250000J0D01*
G01*
X126737500Y-147275000D01*
G75*
G02*
X126987500Y-147525000I0J-250000D01*
G01*
X126987500Y-148475000D01*
G75*
G02*
X126737500Y-148725000I-250000J0D01*
G01*
X126062500Y-148725000D01*
G75*
G02*
X125812500Y-148475000I0J250000D01*
G01*
G37*
G36*
G01*
X123737500Y-148475000D02*
X123737500Y-147525000D01*
G75*
G02*
X123987500Y-147275000I250000J0D01*
G01*
X124662500Y-147275000D01*
G75*
G02*
X124912500Y-147525000I0J-250000D01*
G01*
X124912500Y-148475000D01*
G75*
G02*
X124662500Y-148725000I-250000J0D01*
G01*
X123987500Y-148725000D01*
G75*
G02*
X123737500Y-148475000I0J250000D01*
G01*
G37*
G36*
G01*
X124950000Y-135325000D02*
X124950000Y-136275000D01*
G75*
G02*
X124700000Y-136525000I-250000J0D01*
G01*
X124025000Y-136525000D01*
G75*
G02*
X123775000Y-136275000I0J250000D01*
G01*
X123775000Y-135325000D01*
G75*
G02*
X124025000Y-135075000I250000J0D01*
G01*
X124700000Y-135075000D01*
G75*
G02*
X124950000Y-135325000I0J-250000D01*
G01*
G37*
G36*
G01*
X127025000Y-135325000D02*
X127025000Y-136275000D01*
G75*
G02*
X126775000Y-136525000I-250000J0D01*
G01*
X126100000Y-136525000D01*
G75*
G02*
X125850000Y-136275000I0J250000D01*
G01*
X125850000Y-135325000D01*
G75*
G02*
X126100000Y-135075000I250000J0D01*
G01*
X126775000Y-135075000D01*
G75*
G02*
X127025000Y-135325000I0J-250000D01*
G01*
G37*
G36*
G01*
X158475000Y-122150000D02*
X157525000Y-122150000D01*
G75*
G02*
X157275000Y-121900000I0J250000D01*
G01*
X157275000Y-121225000D01*
G75*
G02*
X157525000Y-120975000I250000J0D01*
G01*
X158475000Y-120975000D01*
G75*
G02*
X158725000Y-121225000I0J-250000D01*
G01*
X158725000Y-121900000D01*
G75*
G02*
X158475000Y-122150000I-250000J0D01*
G01*
G37*
G36*
G01*
X158475000Y-124225000D02*
X157525000Y-124225000D01*
G75*
G02*
X157275000Y-123975000I0J250000D01*
G01*
X157275000Y-123300000D01*
G75*
G02*
X157525000Y-123050000I250000J0D01*
G01*
X158475000Y-123050000D01*
G75*
G02*
X158725000Y-123300000I0J-250000D01*
G01*
X158725000Y-123975000D01*
G75*
G02*
X158475000Y-124225000I-250000J0D01*
G01*
G37*
G36*
G01*
X208150000Y-125175000D02*
X208150000Y-126125000D01*
G75*
G02*
X207900000Y-126375000I-250000J0D01*
G01*
X207225000Y-126375000D01*
G75*
G02*
X206975000Y-126125000I0J250000D01*
G01*
X206975000Y-125175000D01*
G75*
G02*
X207225000Y-124925000I250000J0D01*
G01*
X207900000Y-124925000D01*
G75*
G02*
X208150000Y-125175000I0J-250000D01*
G01*
G37*
G36*
G01*
X210225000Y-125175000D02*
X210225000Y-126125000D01*
G75*
G02*
X209975000Y-126375000I-250000J0D01*
G01*
X209300000Y-126375000D01*
G75*
G02*
X209050000Y-126125000I0J250000D01*
G01*
X209050000Y-125175000D01*
G75*
G02*
X209300000Y-124925000I250000J0D01*
G01*
X209975000Y-124925000D01*
G75*
G02*
X210225000Y-125175000I0J-250000D01*
G01*
G37*
G36*
G01*
X208150000Y-128075000D02*
X208150000Y-129025000D01*
G75*
G02*
X207900000Y-129275000I-250000J0D01*
G01*
X207225000Y-129275000D01*
G75*
G02*
X206975000Y-129025000I0J250000D01*
G01*
X206975000Y-128075000D01*
G75*
G02*
X207225000Y-127825000I250000J0D01*
G01*
X207900000Y-127825000D01*
G75*
G02*
X208150000Y-128075000I0J-250000D01*
G01*
G37*
G36*
G01*
X210225000Y-128075000D02*
X210225000Y-129025000D01*
G75*
G02*
X209975000Y-129275000I-250000J0D01*
G01*
X209300000Y-129275000D01*
G75*
G02*
X209050000Y-129025000I0J250000D01*
G01*
X209050000Y-128075000D01*
G75*
G02*
X209300000Y-127825000I250000J0D01*
G01*
X209975000Y-127825000D01*
G75*
G02*
X210225000Y-128075000I0J-250000D01*
G01*
G37*
G36*
G01*
X169850000Y-152875000D02*
X169850000Y-151925000D01*
G75*
G02*
X170100000Y-151675000I250000J0D01*
G01*
X170775000Y-151675000D01*
G75*
G02*
X171025000Y-151925000I0J-250000D01*
G01*
X171025000Y-152875000D01*
G75*
G02*
X170775000Y-153125000I-250000J0D01*
G01*
X170100000Y-153125000D01*
G75*
G02*
X169850000Y-152875000I0J250000D01*
G01*
G37*
G36*
G01*
X167775000Y-152875000D02*
X167775000Y-151925000D01*
G75*
G02*
X168025000Y-151675000I250000J0D01*
G01*
X168700000Y-151675000D01*
G75*
G02*
X168950000Y-151925000I0J-250000D01*
G01*
X168950000Y-152875000D01*
G75*
G02*
X168700000Y-153125000I-250000J0D01*
G01*
X168025000Y-153125000D01*
G75*
G02*
X167775000Y-152875000I0J250000D01*
G01*
G37*
G36*
G01*
X178050000Y-140575000D02*
X178050000Y-139625000D01*
G75*
G02*
X178300000Y-139375000I250000J0D01*
G01*
X178975000Y-139375000D01*
G75*
G02*
X179225000Y-139625000I0J-250000D01*
G01*
X179225000Y-140575000D01*
G75*
G02*
X178975000Y-140825000I-250000J0D01*
G01*
X178300000Y-140825000D01*
G75*
G02*
X178050000Y-140575000I0J250000D01*
G01*
G37*
G36*
G01*
X175975000Y-140575000D02*
X175975000Y-139625000D01*
G75*
G02*
X176225000Y-139375000I250000J0D01*
G01*
X176900000Y-139375000D01*
G75*
G02*
X177150000Y-139625000I0J-250000D01*
G01*
X177150000Y-140575000D01*
G75*
G02*
X176900000Y-140825000I-250000J0D01*
G01*
X176225000Y-140825000D01*
G75*
G02*
X175975000Y-140575000I0J250000D01*
G01*
G37*
G36*
G01*
X177850000Y-131175000D02*
X177850000Y-130225000D01*
G75*
G02*
X178100000Y-129975000I250000J0D01*
G01*
X178775000Y-129975000D01*
G75*
G02*
X179025000Y-130225000I0J-250000D01*
G01*
X179025000Y-131175000D01*
G75*
G02*
X178775000Y-131425000I-250000J0D01*
G01*
X178100000Y-131425000D01*
G75*
G02*
X177850000Y-131175000I0J250000D01*
G01*
G37*
G36*
G01*
X175775000Y-131175000D02*
X175775000Y-130225000D01*
G75*
G02*
X176025000Y-129975000I250000J0D01*
G01*
X176700000Y-129975000D01*
G75*
G02*
X176950000Y-130225000I0J-250000D01*
G01*
X176950000Y-131175000D01*
G75*
G02*
X176700000Y-131425000I-250000J0D01*
G01*
X176025000Y-131425000D01*
G75*
G02*
X175775000Y-131175000I0J250000D01*
G01*
G37*
D25*
X144156200Y-122099999D03*
X144156200Y-122900000D03*
X144156200Y-123700001D03*
X146543800Y-123700001D03*
X146543800Y-122900000D03*
X146543800Y-122099999D03*
D26*
X145350000Y-122900000D03*
M02*
