M48
INCH
T1C0.0197
T2C0.0236
T3C0.0394
T4C0.0402
T5C0.1358
%
G90
G05
T2
X-0.1122Y1.9909
X-0.0969Y1.1925
X0.0024Y1.8134
X0.078Y1.3768
X0.1028Y1.0535
X0.111Y1.6642
X0.1276Y2.0
X0.2118Y1.1756
X0.2161Y0.6339
X0.3098Y1.0559
X0.3287Y0.2614
X0.3437Y2.0102
X0.3677Y1.5559
X0.4075Y0.0504
X0.437Y0.2295
X0.5236Y0.0484
X0.537Y1.3398
X0.5752Y1.8843
X0.6197Y0.1776
X0.6213Y0.2787
X0.6528Y0.6146
X0.6555Y1.0205
X0.7161Y0.5417
X0.7287Y1.5634
X0.75Y1.6638
X0.7768Y0.4839
X0.7768Y0.3461
X0.7772Y0.4146
X0.7846Y0.9587
X0.813Y-0.0862
X0.8165Y1.3508
X0.822Y0.7579
X0.8224Y1.9303
X0.8547Y1.1697
X0.8591Y0.345
X0.8598Y0.1472
X0.9358Y0.6756
X0.9909Y0.7248
X0.9984Y1.5575
X0.9992Y1.4177
X1.0449Y1.0193
X1.0646Y1.0709
X1.0984Y0.3984
X1.0992Y0.1795
X1.1646Y-0.0862
X1.1843Y0.9559
X1.263Y1.7331
X1.2819Y0.3791
X1.3031Y1.0768
X1.3063Y0.3287
X1.3157Y1.1949
X1.3634Y1.7382
X1.3815Y0.2701
X1.4795Y0.2713
X1.5126Y-0.0862
X1.5142Y1.224
X1.5197Y0.8976
X1.524Y1.0154
X1.5374Y0.113
X1.5378Y1.1043
X1.6402Y0.9358
X1.6811Y1.1606
X1.6957Y0.763
X1.7323Y1.1862
X1.7409Y1.6925
X1.7799Y0.724
X1.7807Y1.5898
X1.7819Y1.8087
X1.7925Y1.3339
X1.8146Y1.1311
X1.822Y1.0823
X1.8528Y0.9594
X1.8744Y1.1169
X1.878Y1.2004
X1.8803Y0.7248
X1.885Y-0.0862
X1.8949Y0.2268
X1.9921Y1.1815
X2.1004Y1.7016
X2.1142Y0.2283
X2.1382Y0.7181
X2.2122Y1.1031
X2.2587Y0.7252
X2.2756Y-0.0874
X2.3906Y1.7035
X2.4126Y1.0063
X2.4638Y1.0638
X2.5441Y0.2496
X2.5543Y0.7142
X2.5827Y0.1425
X2.7303Y0.5366
X2.7803Y1.0929
X2.8283Y1.8976
X2.9083Y0.2634
X2.9114Y1.5894
X2.9398Y0.0409
X2.9457Y1.9764
X3.0614Y1.4213
X3.111Y1.9831
X3.1201Y0.3996
X3.1413Y0.1303
X3.1421Y0.4772
X3.1488Y0.6047
X3.3339Y1.3012
X3.3476Y1.8154
X3.3949Y1.4224
X3.4256Y1.6594
T3
X0.0895Y0.8366
X0.0895Y0.7366
X0.0895Y0.6366
X0.0895Y0.5366
X0.0895Y0.4366
X0.0895Y0.3366
X3.1028Y1.0886
X3.1028Y0.9886
X3.1028Y0.8886
X3.1028Y0.7886
T4
X2.6978Y1.4016
X2.6978Y0.9016
T5
X1.6577Y1.4016
X1.6577Y0.2264
T1
G00X-0.0986Y1.6331
M15
G01X-0.1262Y1.6331
M16
G05
G00X-0.0986Y1.3732
M15
G01X-0.1262Y1.3732
M16
G05
T0
M30
