G04 #@! TF.GenerationSoftware,KiCad,Pcbnew,6.0.11-2627ca5db0~126~ubuntu20.04.1*
G04 #@! TF.CreationDate,2023-04-04T17:10:53-04:00*
G04 #@! TF.ProjectId,water_meter,77617465-725f-46d6-9574-65722e6b6963,rev?*
G04 #@! TF.SameCoordinates,Original*
G04 #@! TF.FileFunction,AssemblyDrawing,Bot*
%FSLAX46Y46*%
G04 Gerber Fmt 4.6, Leading zero omitted, Abs format (unit mm)*
G04 Created by KiCad (PCBNEW 6.0.11-2627ca5db0~126~ubuntu20.04.1) date 2023-04-04 17:10:53*
%MOMM*%
%LPD*%
G01*
G04 APERTURE LIST*
%ADD10C,0.254000*%
%ADD11C,0.200000*%
%ADD12C,0.100000*%
G04 APERTURE END LIST*
D10*
X165798333Y-113504523D02*
X165798333Y-114411666D01*
X165858809Y-114593095D01*
X165979761Y-114714047D01*
X166161190Y-114774523D01*
X166282142Y-114774523D01*
X164528333Y-114774523D02*
X165254047Y-114774523D01*
X164891190Y-114774523D02*
X164891190Y-113504523D01*
X165012142Y-113685952D01*
X165133095Y-113806904D01*
X165254047Y-113867380D01*
D11*
X127955000Y-146225000D02*
X185945000Y-146225000D01*
X185945000Y-146225000D02*
X185945000Y-97935000D01*
X185945000Y-97935000D02*
X127955000Y-97935000D01*
X127955000Y-97935000D02*
X127955000Y-146225000D01*
D12*
X184120000Y-120230000D02*
G75*
G03*
X184120000Y-120230000I-765000J0D01*
G01*
X184120000Y-107530000D02*
G75*
G03*
X184120000Y-107530000I-765000J0D01*
G01*
X159522500Y-107530000D02*
G75*
G03*
X159522500Y-107530000I-2587500J0D01*
G01*
X159522500Y-137380000D02*
G75*
G03*
X159522500Y-137380000I-2587500J0D01*
G01*
X117350000Y-143160000D02*
G75*
G03*
X117350000Y-143160000I-2500000J0D01*
G01*
X202350000Y-88160000D02*
G75*
G03*
X202350000Y-88160000I-2500000J0D01*
G01*
X202350000Y-143160000D02*
G75*
G03*
X202350000Y-143160000I-2500000J0D01*
G01*
X117350000Y-88160000D02*
G75*
G03*
X117350000Y-88160000I-2500000J0D01*
G01*
X112312500Y-110005750D02*
G75*
G03*
X112312500Y-110005750I-250000J0D01*
G01*
X112312500Y-103405750D02*
G75*
G03*
X112312500Y-103405750I-250000J0D01*
G01*
X112512500Y-102955750D02*
X111612500Y-102955750D01*
X112512500Y-103855750D02*
X111612500Y-103855750D01*
X111612500Y-102955750D02*
G75*
G03*
X111612500Y-103855750I0J-450000D01*
G01*
X112512500Y-103855750D02*
G75*
G03*
X112512500Y-102955750I0J450000D01*
G01*
X112512500Y-109555750D02*
X111612500Y-109555750D01*
X112512500Y-110455750D02*
X111612500Y-110455750D01*
X111612500Y-109555750D02*
G75*
G03*
X111612500Y-110455750I0J-450000D01*
G01*
X112512500Y-110455750D02*
G75*
G03*
X112512500Y-109555750I0J450000D01*
G01*
X116253333Y-121030000D02*
X116253333Y-122730000D01*
X117953333Y-122730000D01*
X117953333Y-121030000D01*
X116253333Y-121030000D01*
X116253333Y-124420000D02*
X116253333Y-124420000D01*
X117953333Y-124420000D02*
X117953333Y-124420000D01*
X116253333Y-124420000D02*
G75*
G03*
X117953333Y-124420000I850000J0D01*
G01*
X117953333Y-124420000D02*
G75*
G03*
X116253333Y-124420000I-850000J0D01*
G01*
X116253333Y-126960000D02*
X116253333Y-126960000D01*
X117953333Y-126960000D02*
X117953333Y-126960000D01*
X116253333Y-126960000D02*
G75*
G03*
X117953333Y-126960000I850000J0D01*
G01*
X117953333Y-126960000D02*
G75*
G03*
X116253333Y-126960000I-850000J0D01*
G01*
X116253333Y-129500000D02*
X116253333Y-129500000D01*
X117953333Y-129500000D02*
X117953333Y-129500000D01*
X116253333Y-129500000D02*
G75*
G03*
X117953333Y-129500000I850000J0D01*
G01*
X117953333Y-129500000D02*
G75*
G03*
X116253333Y-129500000I-850000J0D01*
G01*
X116253333Y-132040000D02*
X116253333Y-132040000D01*
X117953333Y-132040000D02*
X117953333Y-132040000D01*
X116253333Y-132040000D02*
G75*
G03*
X117953333Y-132040000I850000J0D01*
G01*
X117953333Y-132040000D02*
G75*
G03*
X116253333Y-132040000I-850000J0D01*
G01*
X116253333Y-134580000D02*
X116253333Y-134580000D01*
X117953333Y-134580000D02*
X117953333Y-134580000D01*
X116253333Y-134580000D02*
G75*
G03*
X117953333Y-134580000I850000J0D01*
G01*
X117953333Y-134580000D02*
G75*
G03*
X116253333Y-134580000I-850000J0D01*
G01*
X192840000Y-117130000D02*
X192840000Y-118830000D01*
X194540000Y-118830000D01*
X194540000Y-117130000D01*
X192840000Y-117130000D01*
X192840000Y-120520000D02*
X192840000Y-120520000D01*
X194540000Y-120520000D02*
X194540000Y-120520000D01*
X192840000Y-120520000D02*
G75*
G03*
X194540000Y-120520000I850000J0D01*
G01*
X194540000Y-120520000D02*
G75*
G03*
X192840000Y-120520000I-850000J0D01*
G01*
M02*
